<?xml version="1.0" encoding="UTF-8"?>
<svg version="1.1" xmlns="http://www.w3.org/2000/svg" width="452" height="89">
<path d="M0 0 C149.16 0 298.32 0 452 0 C452 29.37 452 58.74 452 89 C302.84 89 153.68 89 0 89 C0 59.63 0 30.26 0 0 Z " fill="#FBFDFD" transform="translate(0,0)"/>
<path d="M0 0 C3.96 0 7.92 0 12 0 C12.33 6.6 12.66 13.2 13 20 C14.134375 18.948125 15.26875 17.89625 16.4375 16.8125 C26.40952689 8.08033436 34.91059865 6.22069716 48 7 C56.98791476 8.57122065 63.98953807 14.12078956 69.6796875 21.0546875 C72.00785691 24.48494893 73.46331673 28.15829183 75 32 C74.01 28.37 73.02 24.74 72 21 C72.99 20.505 72.99 20.505 74 20 C74.78623891 17.83927773 75.48201226 15.64509125 76.125 13.4375 C76.47820312 12.23996094 76.83140625 11.04242188 77.1953125 9.80859375 C77.46085937 8.88175781 77.72640625 7.95492188 78 7 C80.64 7 83.28 7 86 7 C86 11.62 86 16.24 86 21 C89.3 21 92.6 21 96 21 C96 23.64 96 26.28 96 29 C92.04 29 88.08 29 84 29 C84.01160156 30.09957031 84.02320313 31.19914062 84.03515625 32.33203125 C84.09517362 40.61536634 83.99647506 48.76128653 83 57 C85.64 56.67 88.28 56.34 91 56 C92.5625 58.3125 92.5625 58.3125 94 61 C93 64 93 64 90.78125 65.171875 C87.87600984 66.03691842 85.52463715 66.26699234 82.5 66.25 C81.5821875 66.25515625 80.664375 66.2603125 79.71875 66.265625 C76.07958992 65.91007488 73.23951068 64.61975534 70 63 C67.28648417 64.39342705 65.02543769 65.97868734 62.6875 67.9375 C53.78201063 74.77194533 45.06059944 75.87100729 34 75 C28.04074833 73.48466987 23.68260393 70.94324541 19 67 C16.42227428 65.46052492 13.84601178 63.97050193 11 63 C9.515 63.495 9.515 63.495 8 64 C8 64.66 8 65.32 8 66 C3.71 66 -0.58 66 -5 66 C-4.03079504 50.12153571 -3.04678783 34.24439104 -1.9375 18.375 C-1.85838379 17.21581055 -1.77926758 16.05662109 -1.69775391 14.86230469 C-1.62089355 13.78110352 -1.5440332 12.69990234 -1.46484375 11.5859375 C-1.399021 10.6479834 -1.33319824 9.7100293 -1.26538086 8.74365234 C-0.98048056 5.79819734 -0.51748493 2.91283118 0 0 Z " fill="#F7F9F7" transform="translate(238,4)"/>
<path d="M0 0 C34.32 0 68.64 0 104 0 C103.01 0.99 102.02 1.98 101 3 C102.65 3.33 104.3 3.66 106 4 C106 12.58 106 21.16 106 30 C103.75565463 26.63348195 103.79861098 25.78403012 104.0234375 21.89453125 C104.10078125 20.42016602 104.10078125 20.42016602 104.1796875 18.91601562 C104.24414062 17.89185547 104.30859375 16.86769531 104.375 15.8125 C104.46007812 14.25885742 104.46007812 14.25885742 104.546875 12.67382812 C104.68835827 10.11533893 104.84293699 7.55758005 105 5 C101.37 5 97.74 5 94 5 C93.94593994 6.16821289 93.89187988 7.33642578 93.83618164 8.54003906 C93.19920404 21.95529159 92.34993458 35.35099035 91.4375 48.75 C91.29736795 50.82681226 91.15739324 52.90363513 91.01757812 54.98046875 C90.68019004 59.98710287 90.34070507 64.99359056 90 70 C89.01 70 88.02 70 87 70 C87 69.01 87 68.02 87 67 C85.515 66.505 85.515 66.505 84 66 C83.67 66.66 83.34 67.32 83 68 C81 67 81 67 79.875 63.9375 C79.58625 62.968125 79.2975 61.99875 79 61 C76.36 61 73.72 61 71 61 C70.8179104 51.63250185 71.38673965 42.3412692 72 33 C75.96 33 79.92 33 84 33 C84 30.36 84 27.72 84 25 C80.7 25 77.4 25 74 25 C74 20.38 74 15.76 74 11 C71.36 11 68.72 11 66 11 C65.81824219 11.88751953 65.81824219 11.88751953 65.6328125 12.79296875 C64.73255357 17.03803585 63.79543379 21.02439661 62 25 C61.34 25 60.68 25 60 25 C60.28875 25.59167969 60.5775 26.18335937 60.875 26.79296875 C64.56239016 34.64147627 64.56239016 34.64147627 64 39 C62.3378154 36.5067231 61.38429444 34.55260795 60.3125 31.8125 C56.349303 22.86990164 49.8271785 17.10137393 41 13 C31.32130684 10.40211837 20.73033159 10.97684965 12 16 C9.87191821 17.56502682 7.96729271 19.22943656 6 21 C5.34 21 4.68 21 4 21 C3.67 21.99 3.34 22.98 3 24 C2.34 24 1.68 24 1 24 C-0.57029041 16.14854796 0 8.00694143 0 0 Z " fill="#F8FCFC" transform="translate(250,0)"/>
<path d="M0 0 C3.96 0 7.92 0 12 0 C12.12195253 8.04886676 11.64729281 15.97819263 11 24 C12.11375 23.34 13.2275 22.68 14.375 22 C19.24776849 19.61527055 23.66039838 18.73268949 29 20 C33.98131949 22.9721873 37.31465997 26.39583532 39 32 C40.09404774 42.30440311 38.63888695 51.10249357 33.1875 59.9375 C28.21616237 64.62476119 24.66685283 66.25802981 17.875 66.5 C13.83438202 66.37847765 12.26425233 66.16261682 8.75 64 C8.1725 63.34 7.595 62.68 7 62 C6.34 63.32 5.68 64.64 5 66 C2.03 66 -0.94 66 -4 66 C-4.41070043 52.62941945 -3.25252916 39.30187099 -1.46875 26.0546875 C-0.80369184 20.89016688 -0.64560666 15.69925497 -0.4375 10.5 C-0.39431641 9.48679687 -0.35113281 8.47359375 -0.30664062 7.4296875 C-0.20150872 4.95324717 -0.10034657 2.47663885 0 0 Z " fill="#175779" transform="translate(390,4)"/>
<path d="M0 0 C5.37259552 2.31510025 7.81068873 5.60055489 10 11 C10.36328125 14.62109375 10.36328125 14.62109375 10.3125 18.4375 C10.30863281 19.69433594 10.30476563 20.95117188 10.30078125 22.24609375 C9.72186642 29.47125159 7.48982979 35.35704453 3 41 C-1.75812586 44.71133817 -5.39117663 46.15163578 -11.375 46.25 C-12.77878906 46.28867188 -12.77878906 46.28867188 -14.2109375 46.328125 C-17.45850303 45.94605847 -19.33337865 44.84239293 -22 43 C-21.98839844 43.89203125 -21.97679687 44.7840625 -21.96484375 45.703125 C-21.95130859 47.45882812 -21.95130859 47.45882812 -21.9375 49.25 C-21.92589844 50.41015625 -21.91429687 51.5703125 -21.90234375 52.765625 C-22 56 -22 56 -23 60 C-26.63 60 -30.26 60 -34 60 C-34.22699693 49.13594881 -33.52358482 38.49775532 -32.5625 27.6875 C-32.42591509 26.09314318 -32.28984511 24.49874216 -32.15429688 22.90429688 C-31.52710972 15.59224728 -30.86388948 8.2885433 -30 1 C-27.03 1 -24.06 1 -21 1 C-20.67 2.65 -20.34 4.3 -20 6 C-19.47792969 5.566875 -18.95585937 5.13375 -18.41796875 4.6875 C-12.41266708 0.14408437 -7.50057817 -1.50691374 0 0 Z " fill="#19577A" transform="translate(216,24)"/>
<path d="M0 0 C3.92013204 1.70440524 5.25773993 3.20155914 7 7 C7.81404297 6.36771484 7.81404297 6.36771484 8.64453125 5.72265625 C9.35996094 5.17480469 10.07539062 4.62695312 10.8125 4.0625 C11.52019531 3.51722656 12.22789063 2.97195312 12.95703125 2.41015625 C17.54456912 -0.75638518 22.63573161 -0.4814087 28 0 C31.73113266 1.62223159 34.32658788 3.94467186 37 7 C39.83223726 15.49671177 37.80202581 25.97106878 37 34.75 C36.90460938 35.84054688 36.80921875 36.93109375 36.7109375 38.0546875 C36.47858248 40.7035347 36.23996351 43.35183123 36 46 C32.04 46 28.08 46 24 46 C24.0721875 44.63488281 24.144375 43.26976562 24.21875 41.86328125 C25.35029953 26.9237495 25.35029953 26.9237495 25 12 C22.42009199 9.42009199 20.49755539 9.68401162 16.97265625 9.5390625 C14.87922119 9.84498935 14.87922119 9.84498935 13.43603516 11.56689453 C11.55137901 14.76010827 11.31786348 17.77191152 11.05078125 21.390625 C10.98843796 22.09523865 10.92609467 22.79985229 10.86186218 23.52581787 C10.66645084 25.76636059 10.48924093 28.00791501 10.3125 30.25 C10.18284046 31.77354009 10.05199424 33.29697968 9.91992188 34.8203125 C9.59952665 38.54580949 9.29543171 42.2724308 9 46 C5.04 46 1.08 46 -3 46 C-2.9278125 45.06542969 -2.855625 44.13085938 -2.78125 43.16796875 C-2.22484476 35.29328903 -1.89303152 27.45805188 -1.875 19.5625 C-1.87048828 18.72807373 -1.86597656 17.89364746 -1.86132812 17.03393555 C-1.49796352 13.20852163 -1.49796352 13.20852163 -3 10 C-8.22246672 9.51707958 -8.22246672 9.51707958 -13.06616211 11.05102539 C-15.84858016 13.85522225 -15.80729929 16.7491839 -16.046875 20.51171875 C-16.10780334 21.23994339 -16.16873169 21.96816803 -16.23150635 22.71846008 C-16.42176483 25.04046993 -16.58617832 27.36349012 -16.75 29.6875 C-16.87460286 31.26380712 -17.00088527 32.83998243 -17.12890625 34.41601562 C-17.4387672 38.27608588 -17.72546829 42.13726289 -18 46 C-21.63 46 -25.26 46 -29 46 C-29.12441177 36.20257282 -28.63303395 26.51954067 -28 16.75 C-27.90330371 15.21486526 -27.80694734 13.67970907 -27.7109375 12.14453125 C-27.477867 8.4294326 -27.24023149 4.7146433 -27 1 C-23.7 1 -20.4 1 -17 1 C-16.67 2.32 -16.34 3.64 -16 5 C-15.5153125 4.6390625 -15.030625 4.278125 -14.53125 3.90625 C-9.39752209 0.35213068 -6.23976704 -0.8183301 0 0 Z " fill="#185779" transform="translate(57,24)"/>
<path d="M0 0 C4.46844831 2.43088747 7.38311026 5.14933078 9 10 C9.09295857 11.54732165 9.13068865 13.09832748 9.1328125 14.6484375 C9.13482666 15.5660083 9.13684082 16.4835791 9.13891602 17.42895508 C9.13432373 18.4011499 9.12973145 19.37334473 9.125 20.375 C9.12234131 21.36201904 9.11968262 22.34903809 9.11694336 23.3659668 C8.98336415 44.01663585 8.98336415 44.01663585 7 46 C3.5625 46.1875 3.5625 46.1875 0 46 C-0.66 45.34 -1.32 44.68 -2 44 C-2 43.01 -2 42.02 -2 41 C-2.87398437 41.54140625 -2.87398437 41.54140625 -3.765625 42.09375 C-10.48765711 45.89867384 -16.29860863 47.26084726 -24 46 C-27.07365786 44.19196596 -28.43019732 43.13960536 -30 40 C-30.38356511 35.39721864 -30.44964438 32.9352603 -28.4375 28.75 C-23.94142262 23.67750244 -18.62918099 21.348308 -12 20 C-8.65857341 19.85301643 -5.34179421 19.87896922 -2 20 C-2.28127421 18.51882199 -2.57533732 17.04006751 -2.875 15.5625 C-3.03742188 14.73878906 -3.19984375 13.91507813 -3.3671875 13.06640625 C-3.68042969 12.04353516 -3.68042969 12.04353516 -4 11 C-7.02437339 9.4878133 -9.66241534 9.82736631 -13 10 C-14.34136367 10.65035814 -15.67532254 11.3162955 -17 12 C-20.125 12.3125 -20.125 12.3125 -23 12 C-25 9 -25 9 -24.8515625 6.984375 C-23.42265688 3.65463163 -21.07279544 2.60727127 -17.93359375 1 C-12.01192989 -1.01856984 -6.12680544 -1.08516576 0 0 Z " fill="#155579" transform="translate(132,24)"/>
<path d="M0 0 C0.21934204 0.89307861 0.21934204 0.89307861 0.44311523 1.80419922 C1.10545685 4.49507696 1.77143268 7.18504217 2.4375 9.875 C2.66759766 10.81214844 2.89769531 11.74929687 3.13476562 12.71484375 C3.35712891 13.61074219 3.57949219 14.50664062 3.80859375 15.4296875 C4.11494751 16.67081299 4.11494751 16.67081299 4.42749023 17.93701172 C4.94007994 20.03995155 4.94007994 20.03995155 6 22 C7.98 17.05 9.96 12.1 12 7 C17.625 8.125 17.625 8.125 20 11 C19.28972656 11.91523438 18.57945312 12.83046875 17.84765625 13.7734375 C16.91918172 14.97388942 15.99080118 16.17441403 15.0625 17.375 C14.59392578 17.97828125 14.12535156 18.5815625 13.64257812 19.203125 C11.09448545 22.45408381 11.09448545 22.45408381 9 26 C10.32 26 11.64 26 13 26 C13 26.66 13 27.32 13 28 C11.35 28 9.7 28 8 28 C8 28.66 8 29.32 8 30 C8.58120605 30.27255615 9.16241211 30.5451123 9.76123047 30.82592773 C11.97299288 31.98583672 13.83722183 33.27161287 15.8203125 34.78515625 C16.52027344 35.31560547 17.22023438 35.84605469 17.94140625 36.39257812 C18.66199219 36.94365234 19.38257813 37.49472656 20.125 38.0625 C21.56402944 39.15896402 23.0040857 40.25408212 24.4453125 41.34765625 C25.07969238 41.83242432 25.71407227 42.31719238 26.36767578 42.81665039 C28.00118391 44.06846575 28.00118391 44.06846575 30 45 C30 45.99 30 46.98 30 48 C30.66 48 31.32 48 32 48 C33.45232253 44.42152963 34.81226545 40.81939893 36.125 37.1875 C36.47820312 36.21167969 36.83140625 35.23585937 37.1953125 34.23046875 C37.46085937 33.49441406 37.72640625 32.75835937 38 32 C38.33 32 38.66 32 39 32 C38.69975093 40.10672496 35.60705251 46.09545863 30.10546875 52.05078125 C22.51866299 59.03902246 15.14086554 62.13392033 4.875 62.1875 C3.63492187 62.20167969 2.39484375 62.21585938 1.1171875 62.23046875 C-2 62 -2 62 -4 60 C-2.73542969 59.96261719 -1.47085937 59.92523438 -0.16796875 59.88671875 C1.4922173 59.82106167 3.15237222 59.75461424 4.8125 59.6875 C5.64587891 59.66494141 6.47925781 59.64238281 7.33789062 59.61914062 C8.14033203 59.58369141 8.94277344 59.54824219 9.76953125 59.51171875 C10.50792236 59.48553467 11.24631348 59.45935059 12.00708008 59.43237305 C14.47166391 58.89767037 15.40052324 57.90034653 17 56 C16.01 55.505 16.01 55.505 15 55 C16.65 53.35 18.3 51.7 20 50 C20.99 50.66 21.98 51.32 23 52 C21.43905326 49.9571299 19.87629071 47.91569142 18.3125 45.875 C17.87744141 45.30523437 17.44238281 44.73546875 16.99414062 44.1484375 C14.0834415 40.35374828 11.08351746 36.65577385 8 33 C8.495 39.93 8.495 39.93 9 47 C6.36 47 3.72 47 1 47 C0.7603057 41.36718401 1.61470179 36.45461169 3 31 C1.6696875 31.928125 1.6696875 31.928125 0.3125 32.875 C-2.46061184 34.65397741 -4.9140354 35.91083602 -8 37 C-8 35.68 -8 34.36 -8 33 C-6.35 32.34 -4.7 31.68 -3 31 C-3.88042969 31.144375 -4.76085937 31.28875 -5.66796875 31.4375 C-6.82941406 31.623125 -7.99085938 31.80875 -9.1875 32 C-10.33605469 32.185625 -11.48460937 32.37125 -12.66796875 32.5625 C-15.50415393 32.93489477 -18.14719564 33.08596021 -21 33 C-21.05441656 31.10448978 -21.09298035 29.2085208 -21.125 27.3125 C-21.14820313 26.25675781 -21.17140625 25.20101562 -21.1953125 24.11328125 C-20.99858729 20.97748141 -20.33057654 18.82354627 -19 16 C-14.53202662 17.39878802 -10.36177921 19.13630772 -6.125 21.125 C-4.97257812 21.66382812 -3.82015625 22.20265625 -2.6328125 22.7578125 C-1.76398438 23.16773437 -0.89515625 23.57765625 0 24 C-1.99056273 21.0141559 -4.15233624 18.32796091 -6.4375 15.5625 C-14 6.40527183 -14 6.40527183 -14 4 C-9.01590548 0.34499735 -6.09286393 -1.48204798 0 0 Z " fill="#666660" transform="translate(274,17)"/>
<path d="M0 0 C1.32 0 2.64 0 4 0 C4.33 2.97 4.66 5.94 5 9 C11.35219042 8.45118943 17.67873638 7.83488387 24 7 C23.67 7.66 23.34 8.32 23 9 C20.4375 9.625 20.4375 9.625 18 10 C18 11.32 18 12.64 18 14 C19.299375 13.1028125 19.299375 13.1028125 20.625 12.1875 C23.66982519 10.0851207 26.58448814 8.70775593 30 7 C29.01 12.61 28.02 18.22 27 24 C29.64 24 32.28 24 35 24 C34.855625 23.33613281 34.71125 22.67226563 34.5625 21.98828125 C34.376875 21.10527344 34.19125 20.22226562 34 19.3125 C33.814375 18.44238281 33.62875 17.57226562 33.4375 16.67578125 C33.01027953 14.06287036 32.92383799 11.64186962 33 9 C38.71329366 14.53475323 44.5146116 20.41121517 49 27 C49 27.66 49 28.32 49 29 C47.68 29 46.36 29 45 29 C43.79371992 31.33214148 42.8345262 33.49642139 42 36 C36.00757856 38.99621072 25.01662329 37.93234538 18.7265625 35.98828125 C16.33264161 34.7913208 14.17747374 33.55221522 12 32 C11.25492187 31.49082031 10.50984375 30.98164062 9.7421875 30.45703125 C9.16726563 29.97621094 8.59234375 29.49539062 8 29 C8 28.34 8 27.68 8 27 C7.34 27 6.68 27 6 27 C4.52734375 24.91796875 4.52734375 24.91796875 2.9375 22.1875 C2.41027344 21.29417969 1.88304687 20.40085937 1.33984375 19.48046875 C-0.92488906 15.28774183 -1.13544303 12.08480628 -1.125 7.375 C-1.12886719 5.62316406 -1.12886719 5.62316406 -1.1328125 3.8359375 C-1 1 -1 1 0 0 Z " fill="#F7F9F7" transform="translate(248,40)"/>
<path d="M0 0 C2.31 0 4.62 0 7 0 C7 4.62 7 9.24 7 14 C10.63 14 14.26 14 18 14 C17.67 16.64 17.34 19.28 17 22 C13.37 22 9.74 22 6 22 C5.34 31.24 4.68 40.48 4 50 C6.64 49.67 9.28 49.34 12 49 C15.01822323 52.38041002 15.01822323 52.38041002 14.9375 55.125 C13.67868201 57.64263599 12.61012924 57.98323802 10 59 C7.125 59.30078125 7.125 59.30078125 4 59.3125 C2.96875 59.32925781 1.9375 59.34601563 0.875 59.36328125 C-2.36227966 58.95422281 -3.69741778 58.27593196 -6 56 C-9.31925604 46.04223187 -6.83522697 32.38067807 -6 22 C-7.98 22 -9.96 22 -12 22 C-12 19.69 -12 17.38 -12 15 C-10.39125 14.87625 -10.39125 14.87625 -8.75 14.75 C-6.74075486 14.33137572 -6.74075486 14.33137572 -5 13 C-3.53906589 9.93549619 -2.62148227 6.92463735 -1.7265625 3.65234375 C-1 1 -1 1 0 0 Z " fill="#165477" transform="translate(160,11)"/>
<path d="M0 0 C3.63 0 7.26 0 11 0 C11.11857623 9.75524732 10.78966046 19.39072312 10.125 29.125 C10.08086975 29.79177765 10.0367395 30.4585553 9.99127197 31.14553833 C9.24247037 42.45744134 8.25926152 53.73362829 7 65 C3.37 65 -0.26 65 -4 65 C-4.2147475 53.3486511 -3.64970385 41.84870816 -2.77319336 30.2331543 C-2.56045971 27.41042774 -2.3567224 24.58715469 -2.15429688 21.76367188 C-2.02134974 19.94527467 -1.88790451 18.1269138 -1.75390625 16.30859375 C-1.6934462 15.47621689 -1.63298615 14.64384003 -1.57069397 13.78623962 C-1.21835889 9.15377121 -0.71251681 4.59122017 0 0 Z " fill="#19577B" transform="translate(344,5)"/>
<path d="M0 0 C2.64 0 5.28 0 8 0 C8 4.62 8 9.24 8 14 C11.3 14 14.6 14 18 14 C18 16.64 18 19.28 18 22 C14.04 22 10.08 22 6 22 C6.01160156 23.09957031 6.02320313 24.19914062 6.03515625 25.33203125 C6.09517362 33.61536634 5.99647506 41.76128653 5 50 C7.64 49.67 10.28 49.34 13 49 C14.5625 51.3125 14.5625 51.3125 16 54 C15 57 15 57 12.78125 58.16015625 C8.18378224 59.54843654 3.74443615 59.73264906 -1 59 C-3.35663599 57.55170336 -4.34737146 56.27948765 -6 54 C-5.52269162 52.5410574 -5.04308958 51.08286504 -4.5625 49.625 C-4.29566406 48.81289063 -4.02882813 48.00078125 -3.75390625 47.1640625 C-3 45 -3 45 -2 43 C-1.9310528 41.62657169 -1.91532292 40.24997898 -1.9375 38.875 C-1.958125 37.59625 -1.97875 36.3175 -2 35 C-2.66 35 -3.32 35 -4 35 C-4.08636719 34.23816406 -4.17273438 33.47632813 -4.26171875 32.69140625 C-5.78617709 21.48873534 -9.61206501 14.51771695 -18 7 C-14.40035015 7 -14.02649029 7.54149743 -11.5625 10 C-8.02234765 13.66765784 -6.03904077 17.35098704 -4 22 C-4.33 21.05125 -4.66 20.1025 -5 19.125 C-6 16 -6 16 -6 14 C-5.34 13.67 -4.68 13.34 -4 13 C-3.21376109 10.83927773 -2.51798774 8.64509125 -1.875 6.4375 C-1.52179688 5.23996094 -1.16859375 4.04242188 -0.8046875 2.80859375 C-0.53914063 1.88175781 -0.27359375 0.95492188 0 0 Z " fill="#1C5374" transform="translate(316,11)"/>
<path d="M0 0 C6.93359375 -0.09765625 6.93359375 -0.09765625 9 0 C10 1 10 1 10.0625 3.5625 C10.041875 4.366875 10.02125 5.17125 10 6 C10.66 6.33 11.32 6.66 12 7 C12 10 12 10 11 13 C10.6029957 16.51057565 10.44268055 20.03550599 10.25 23.5625 C10.18167969 24.53380859 10.11335937 25.50511719 10.04296875 26.50585938 C9.99269531 27.43333984 9.94242188 28.36082031 9.890625 29.31640625 C9.83938477 30.16662354 9.78814453 31.01684082 9.73535156 31.89282227 C9.86635254 32.93587524 9.86635254 32.93587524 10 34 C13.20380017 36.13586678 14.01939967 36.23132175 17.6875 36.125 C18.49574219 36.10695312 19.30398437 36.08890625 20.13671875 36.0703125 C20.75160156 36.04710937 21.36648437 36.02390625 22 36 C22 36.66 22 37.32 22 38 C19.1875 39.5625 19.1875 39.5625 16 41 C14.515 40.505 14.515 40.505 13 40 C12.67 40.99 12.34 41.98 12 43 C10.68 42.67 9.36 42.34 8 42 C8.01160156 42.89203125 8.02320313 43.7840625 8.03515625 44.703125 C8.04869141 46.45882812 8.04869141 46.45882812 8.0625 48.25 C8.07410156 49.41015625 8.08570313 50.5703125 8.09765625 51.765625 C8 55 8 55 7 59 C3.37 59 -0.26 59 -4 59 C-4.22699693 48.13594881 -3.52358482 37.49775532 -2.5625 26.6875 C-2.42591509 25.09314318 -2.28984511 23.49874216 -2.15429688 21.90429688 C-1.52710972 14.59224728 -0.86388948 7.2885433 0 0 Z " fill="#195679" transform="translate(186,25)"/>
<path d="M0 0 C3.63 0 7.26 0 11 0 C11.30447373 21.27933068 11.30447373 21.27933068 8.48632812 27.15698242 C6.76225604 31.1142706 6.61360722 34.8518132 6.70703125 39.12109375 C6.71127609 39.86585464 6.71552094 40.61061554 6.71989441 41.37794495 C6.73654276 43.73151473 6.77416625 46.08419379 6.8125 48.4375 C6.82756485 50.04360733 6.84125009 51.64972823 6.85351562 53.25585938 C6.88640048 57.17091047 6.93808374 61.08530479 7 65 C3.04 65 -0.92 65 -5 65 C-4.03159565 49.10073109 -3.04410978 33.20282406 -1.9375 17.3125 C-1.85838379 16.14493164 -1.77926758 14.97736328 -1.69775391 13.77441406 C-1.62089355 12.68999023 -1.5440332 11.60556641 -1.46484375 10.48828125 C-1.36610962 9.07349487 -1.36610962 9.07349487 -1.26538086 7.63012695 C-1.00656234 5.06503777 -0.50560967 2.52804834 0 0 Z " fill="#175679" transform="translate(238,5)"/>
<path d="M0 0 C0 0.33 0 0.66 0 1 C-1.65 1.33 -3.3 1.66 -5 2 C-4.67 2.66 -4.34 3.32 -4 4 C-4.66 4 -5.32 4 -6 4 C-6 4.66 -6 5.32 -6 6 C-3.36 6.33 -0.72 6.66 2 7 C2 9.31 2 11.62 2 14 C2.66 14 3.32 14 4 14 C4 17.3 4 20.6 4 24 C5.98 24 7.96 24 10 24 C10.33 21.36 10.66 18.72 11 16 C11.33 16 11.66 16 12 16 C12.02689216 17.47906892 12.04634621 18.95827483 12.0625 20.4375 C12.07410156 21.26121094 12.08570313 22.08492187 12.09765625 22.93359375 C12 25 12 25 11 26 C7.5625 26.1875 7.5625 26.1875 4 26 C3.34 25.34 2.68 24.68 2 24 C2 23.01 2 22.02 2 21 C1.41734375 21.3609375 0.8346875 21.721875 0.234375 22.09375 C-6.48765711 25.89867384 -12.29860863 27.26084726 -20 26 C-23.07365786 24.19196596 -24.43019732 23.13960536 -26 20 C-26.38356511 15.39721864 -26.44964438 12.9352603 -24.4375 8.75 C-17.97739222 1.46167327 -9.45283307 -0.33167835 0 0 Z " fill="#1D5B7C" transform="translate(128,44)"/>
<path d="M0 0 C4.17143003 3.43529532 5.76781332 6.81312545 6.3359375 12.1640625 C6.44159905 21.5256762 5.13651933 28.91667557 0.1875 36.9375 C-5.79546591 42.57858214 -10.15576045 43.44395923 -18.23046875 43.43359375 C-21.30593893 42.95210265 -22.71199468 42.05865872 -25 40 C-24.34 38.35 -23.68 36.7 -23 35 C-22.32453125 34.97421875 -21.6490625 34.9484375 -20.953125 34.921875 C-15.4299982 34.62670872 -15.4299982 34.62670872 -10.5 32.375 C-6.41694648 25.91016525 -6.11198756 18.46549994 -7 11 C-8.07199368 8.48780612 -9.16485958 7.06453298 -11 5 C-10.030625 4.87625 -9.06125 4.7525 -8.0625 4.625 C-7.051875 4.41875 -6.04125 4.2125 -5 4 C-4.67 3.34 -4.34 2.68 -4 2 C-4.99 2 -5.98 2 -7 2 C-7 1.34 -7 0.68 -7 0 C-3.80367098 -1.06544301 -3.02974348 -1.19353531 0 0 Z " fill="#185579" transform="translate(423,27)"/>
<path d="M0 0 C2.83203125 0.03255208 5.6640625 0.06510417 8.49609375 0.09765625 C8.78083025 9.73255954 7.89284395 19.20678076 6.99609375 28.78515625 C6.85110985 30.37300561 6.70657531 31.96089607 6.5625 33.54882812 C6.21220388 37.39893034 5.85585267 41.24842721 5.49609375 45.09765625 C1.86609375 45.09765625 -1.76390625 45.09765625 -5.50390625 45.09765625 C-5.63059033 36.66049635 -5.205292 28.29003739 -4.7043457 19.87182617 C-4.56487626 17.50923854 -4.43362372 15.1462799 -4.30273438 12.78320312 C-4.21533738 11.28252325 -4.12746471 9.78187099 -4.0390625 8.28125 C-4.00047623 7.57407333 -3.96188995 6.86689667 -3.9221344 6.13829041 C-3.55229634 0.1385451 -3.55229634 0.1385451 0 0 Z " fill="#175679" transform="translate(368.50390625,24.90234375)"/>
<path d="M0 0 C2.4375 1.75 2.4375 1.75 4 5 C5.05733928 13.37460769 4.07468435 20.44491208 -0.6875 27.5 C-3.58842083 29.38167838 -5.60543382 29.44022376 -9 29.43359375 C-11.67289894 28.85411761 -13.06083959 27.92203759 -15 26 C-15.42578125 23.90625 -15.42578125 23.90625 -15.3125 21.5 C-15.27125 20.62085937 -15.23 19.74171875 -15.1875 18.8359375 C-15.125625 17.90007813 -15.06375 16.96421875 -15 16 C-14.979375 15.02289063 -14.95875 14.04578125 -14.9375 13.0390625 C-14.62136486 5.66916216 -14.62136486 5.66916216 -11.5625 2.375 C-7.35264796 0.116055 -4.88239864 -0.50507572 0 0 Z " fill="#F2F8F9" transform="translate(413,33)"/>
<path d="M0 0 C2.5 1.75 2.5 1.75 4 5 C5.04610077 13.3808303 4.07927828 20.43810625 -0.6875 27.5 C-3.58842083 29.38167838 -5.60543382 29.44022376 -9 29.43359375 C-11.6653468 28.85575489 -13.00689339 27.85498827 -15 26 C-15.71696761 22.56972703 -15.32292471 19.11224498 -15.125 15.625 C-15.10953125 14.67882813 -15.0940625 13.73265625 -15.078125 12.7578125 C-14.75787094 6.05131577 -14.75787094 6.05131577 -12.73388672 3.24365234 C-8.37429836 -0.61486555 -5.48996486 -0.8854782 0 0 Z " fill="#F8FDFD" transform="translate(210,33)"/>
<path d="M0 0 C1.98 8.58 3.96 17.16 6 26 C5.01 26 4.02 26 3 26 C3 26.66 3 27.32 3 28 C0.29273634 28.5064814 -2.41557124 29.005351 -5.125 29.5 C-5.88554687 29.64308594 -6.64609375 29.78617188 -7.4296875 29.93359375 C-11.68042914 30.70312456 -15.65859197 31.16644376 -20 31 C-20.16682272 26.07872966 -20.24828052 22.49656104 -18 18 C-14.84198444 18.97748101 -11.98714077 20.00684002 -9.0625 21.5625 C-5.66364527 23.15788079 -2.70612841 23.54056259 1 24 C0.61666504 23.57178955 0.23333008 23.1435791 -0.16162109 22.70239258 C-1.90650091 20.74528336 -3.64077395 18.7790538 -5.375 16.8125 C-5.97828125 16.13896484 -6.5815625 15.46542969 -7.203125 14.77148438 C-10.20546991 11.35214712 -12.7008036 8.46057429 -14 4 C-6.35 -1.27 -6.35 -1.27 0 0 Z " fill="#AD896C" transform="translate(274,17)"/>
<path d="M0 0 C3.96 0 7.92 0 12 0 C12.33 6.6 12.66 13.2 13 20 C14.134375 18.948125 15.26875 17.89625 16.4375 16.8125 C26.38920259 8.09813165 34.92710829 6.18294427 48 7 C52.94733196 7.99633769 56.5734131 9.21271974 60 13 C55.36602452 12.22767075 55.36602452 12.22767075 53.3671875 10.984375 C49.7868578 9.49552503 46.19349147 9.61716398 42.375 9.625 C41.57046387 9.62661133 40.76592773 9.62822266 39.93701172 9.62988281 C32.40855642 9.78473307 26.2174676 11.10427916 20.5 16.25 C20.005 16.8275 19.51 17.405 19 18 C18.34 18 17.68 18 17 18 C16.56880859 18.86431641 16.56880859 18.86431641 16.12890625 19.74609375 C15.41176327 21.17789825 14.69083993 22.60782036 13.96484375 24.03515625 C13.62582031 24.70417969 13.28679687 25.37320312 12.9375 26.0625 C12.59589844 26.73410156 12.25429687 27.40570312 11.90234375 28.09765625 C8.52252989 35.22306469 8.58856608 45.77588909 11.08203125 53.23828125 C12.28577276 55.57985335 13.59349835 57.77726624 15 60 C15.33 60.99 15.66 61.98 16 63 C16.66 63 17.32 63 18 63 C18 63.66 18 64.32 18 65 C18.55171875 65.27585937 19.1034375 65.55171875 19.671875 65.8359375 C23.78125 67.890625 27.890625 69.9453125 32 72 C30.265625 72.66796875 30.265625 72.66796875 28 73 C25.921875 71.92578125 25.921875 71.92578125 23.75 70.3125 C19.61636699 67.39303642 15.65481418 65.00638542 11 63 C7.88214887 63.64644661 7.88214887 63.64644661 7 66 C6.39020363 57.29951245 5.88217054 48.59728402 5.75 39.875 C5.7180957 38.84741577 5.7180957 38.84741577 5.68554688 37.79907227 C5.65685839 33.61413913 6.47916786 30.79747221 8.26513672 27.0625 C9.90620527 22.45660395 9.87424187 17.4050683 10.1875 12.5625 C10.26935547 11.44939453 10.35121094 10.33628906 10.43554688 9.18945312 C10.63466138 6.46041319 10.81883321 3.73029012 11 1 C7.37 1 3.74 1 0 1 C0 0.67 0 0.34 0 0 Z " fill="#9FB6BC" transform="translate(238,4)"/>
<path d="M0 0 C2.64 0 5.28 0 8 0 C8 4.62 8 9.24 8 14 C11.3 14 14.6 14 18 14 C18 14.33 18 14.66 18 15 C14.37 15 10.74 15 7 15 C7 12.03 7 9.06 7 6 C6.01 6.495 6.01 6.495 5 7 C5.12568359 8.12148438 5.12568359 8.12148438 5.25390625 9.265625 C5.35574219 10.25046875 5.45757812 11.2353125 5.5625 12.25 C5.66691406 13.22453125 5.77132813 14.1990625 5.87890625 15.203125 C5.99255068 17.8279447 5.6920711 19.50658073 5 22 C4.7792294 24.78007422 4.62193223 27.55877198 4.4765625 30.34375 C3.94295995 33.31792814 2.97767694 34.75792774 1 37 C0.67 34.03 0.34 31.06 0 28 C0 31.63 0 35.26 0 39 C-0.66 37.68 -1.32 36.36 -2 35 C-2.66 35 -3.32 35 -4 35 C-4.08636719 34.23816406 -4.17273438 33.47632813 -4.26171875 32.69140625 C-5.78617709 21.48873534 -9.61206501 14.51771695 -18 7 C-14.40035015 7 -14.02649029 7.54149743 -11.5625 10 C-8.02234765 13.66765784 -6.03904077 17.35098704 -4 22 C-4.33 21.05125 -4.66 20.1025 -5 19.125 C-6 16 -6 16 -6 14 C-5.34 13.67 -4.68 13.34 -4 13 C-3.21376109 10.83927773 -2.51798774 8.64509125 -1.875 6.4375 C-1.52179688 5.23996094 -1.16859375 4.04242188 -0.8046875 2.80859375 C-0.53914063 1.88175781 -0.27359375 0.95492188 0 0 Z " fill="#2E6580" transform="translate(316,11)"/>
<path d="M0 0 C0.33 0 0.66 0 1 0 C1.06058594 1.03640625 1.12117187 2.0728125 1.18359375 3.140625 C1.26803371 4.51042873 1.35267997 5.88021975 1.4375 7.25 C1.47681641 7.93191406 1.51613281 8.61382812 1.55664062 9.31640625 C1.74968824 14.26686903 1.74968824 14.26686903 3 19 C3.99 19.33 4.98 19.66 6 20 C6.66 19.34 7.32 18.68 8 18 C8.9767249 28.02887177 9.10849626 37.93395765 9 48 C5.04 48 1.08 48 -3 48 C-2 32 -1 16 0 0 Z " fill="#225B7B" transform="translate(236,22)"/>
<path d="M0 0 C-0.33 0.66 -0.66 1.32 -1 2 C-2.6396875 2.2165625 -2.6396875 2.2165625 -4.3125 2.4375 C-8.01292356 3.00197139 -9.24670246 3.65459839 -12 6 C-12.66 6 -13.32 6 -14 6 C-8.98338808 12.93352867 -3.51369211 19.46202516 2 26 C1.34 26.33 0.68 26.66 0 27 C-1.97119141 26.28735352 -1.97119141 26.28735352 -4.3515625 25.12890625 C-5.20234375 24.71962891 -6.053125 24.31035156 -6.9296875 23.88867188 C-7.81914062 23.45103516 -8.70859375 23.01339844 -9.625 22.5625 C-10.5221875 22.12873047 -11.419375 21.69496094 -12.34375 21.24804688 C-14.56592806 20.17241813 -16.78341247 19.08710268 -19 18 C-19.66 23.28 -20.32 28.56 -21 34 C-21.33 34 -21.66 34 -22 34 C-22 31.03 -22 28.06 -22 25 C-23.65 25.33 -25.3 25.66 -27 26 C-26.30417524 17.65010288 -23.34756704 11.59190429 -17 6 C-16.50113281 5.5565625 -16.00226563 5.113125 -15.48828125 4.65625 C-9.83211438 -0.24481147 -7.4825042 -1.43894312 0 0 Z " fill="#F2F5F1" transform="translate(274,15)"/>
<path d="M0 0 C3.15312082 1.69633011 4.63845135 3.23526012 7 6 C6.67 6.66 6.34 7.32 6 8 C5.46375 7.360625 4.9275 6.72125 4.375 6.0625 C1.55632807 3.61470596 -0.33860732 3.33285388 -4 3 C-4 4.98 -4 6.96 -4 9 C-4.90492187 9.07347656 -4.90492187 9.07347656 -5.828125 9.1484375 C-6.62734375 9.22320312 -7.4265625 9.29796875 -8.25 9.375 C-9.03890625 9.44460937 -9.8278125 9.51421875 -10.640625 9.5859375 C-13.0988856 10.01735409 -14.79774465 10.86262121 -17 12 C-20.125 12.3125 -20.125 12.3125 -23 12 C-25 9 -25 9 -24.8515625 6.984375 C-23.42321822 3.65593972 -21.07225336 2.60868322 -17.9375 0.99609375 C-12.04742686 -1.00120499 -6.09803145 -1.00381929 0 0 Z " fill="#225977" transform="translate(132,24)"/>
<path d="M0 0 C2 1.125 2 1.125 3 3 C3.5 5.875 3.5 5.875 3 9 C0.51877621 12.35694984 -0.94365169 13.78441871 -5.0625 14.625 C-8 14 -8 14 -10.375 11.8125 C-12.14232156 8.75367423 -12.70698088 7.44653179 -12 4 C-8.80294102 -0.92879926 -5.39655285 -0.59961698 0 0 Z " fill="#1D5978" transform="translate(377,5)"/>
<path d="M0 0 C4.73789165 1.44323469 8.98858151 3.37226733 13.375 5.625 C14.33599609 6.11226562 14.33599609 6.11226562 15.31640625 6.609375 C16.87947501 7.40257407 18.44000622 8.20077031 20 9 C20 9.33 20 9.66 20 10 C17.45953542 10.50688605 14.91791124 11.00566874 12.375 11.5 C11.66214844 11.64308594 10.94929688 11.78617188 10.21484375 11.93359375 C6.07855065 12.73049426 2.23566321 13.16034056 -2 13 C-2.16682272 8.07872966 -2.24828052 4.49656104 0 0 Z " fill="#F7D971" transform="translate(256,35)"/>
<path d="M0 0 C0.33 0 0.66 0 1 0 C0.69975093 8.10672496 -2.39294749 14.09545863 -7.89453125 20.05078125 C-15.48133701 27.03902246 -22.85913446 30.13392033 -33.125 30.1875 C-34.36507813 30.20167969 -35.60515625 30.21585938 -36.8828125 30.23046875 C-40 30 -40 30 -42 28 C-40.73542969 27.96261719 -39.47085937 27.92523438 -38.16796875 27.88671875 C-36.5077827 27.82106167 -34.84762778 27.75461424 -33.1875 27.6875 C-32.35412109 27.66494141 -31.52074219 27.64238281 -30.66210938 27.61914062 C-29.85966797 27.58369141 -29.05722656 27.54824219 -28.23046875 27.51171875 C-27.49207764 27.48553467 -26.75368652 27.45935059 -25.99291992 27.43237305 C-23.52833609 26.89767037 -22.59947676 25.90034653 -21 24 C-21.66 23.67 -22.32 23.34 -23 23 C-21.35 21.35 -19.7 19.7 -18 18 C-17.01 18.33 -16.02 18.66 -15 19 C-11.59329487 17.33819262 -10.13110601 16.19665902 -8 13 C-8 13.99 -8 14.98 -8 16 C-7.34 16 -6.68 16 -6 16 C-4.54767747 12.42152963 -3.18773455 8.81939893 -1.875 5.1875 C-1.52179688 4.21167969 -1.16859375 3.23585937 -0.8046875 2.23046875 C-0.53914063 1.49441406 -0.27359375 0.75835937 0 0 Z " fill="#A0AEAF" transform="translate(312,49)"/>
<path d="M0 0 C0.33 0.66 0.66 1.32 1 2 C0.525625 3.010625 0.05125 4.02125 -0.4375 5.0625 C-3.38500278 12.56149544 -3.49797121 22.57588432 -0.91015625 30.21875 C0.28482459 32.57407455 1.58931021 34.77064761 3 37 C3.33 37.99 3.66 38.98 4 40 C4.66 40 5.32 40 6 40 C6 40.66 6 41.32 6 42 C6.55171875 42.27585938 7.1034375 42.55171875 7.671875 42.8359375 C11.78125 44.890625 15.890625 46.9453125 20 49 C18.265625 49.66796875 18.265625 49.66796875 16 50 C13.921875 48.92578125 13.921875 48.92578125 11.75 47.3125 C7.61636699 44.39303642 3.65481418 42.00638542 -1 40 C-4.11785113 40.64644661 -4.11785113 40.64644661 -5 43 C-4.91621094 41.97519531 -4.83242187 40.95039062 -4.74609375 39.89453125 C-4.64287202 38.53388121 -4.54002735 37.17320254 -4.4375 35.8125 C-4.35338867 34.80219727 -4.35338867 34.80219727 -4.26757812 33.77148438 C-3.98834584 29.95530981 -4.12520089 26.71317606 -5 23 C-5.71547592 14.81330436 -4.61856626 6.9278494 0 0 Z " fill="#9CAEB3" transform="translate(250,27)"/>
<path d="M0 0 C0.390625 5.95703125 0.390625 5.95703125 0 8 C-2.14533419 10.21469835 -3.47646748 10.93244742 -6.54296875 11.328125 C-7.41566406 11.30234375 -8.28835937 11.2765625 -9.1875 11.25 C-10.50814453 11.22679687 -10.50814453 11.22679687 -11.85546875 11.203125 C-14 11 -14 11 -15 10 C-15.3125 7.125 -15.3125 7.125 -15 4 C-10.70224739 -0.45124378 -5.87580163 -0.11299619 0 0 Z " fill="#FAFCFB" transform="translate(129,51)"/>
<path d="M0 0 C0.66 0 1.32 0 2 0 C2 2.97 2 5.94 2 9 C5.63 9 9.26 9 13 9 C13 11.31 13 13.62 13 16 C9.04 16 5.08 16 1 16 C1.020625 17.175625 1.04125 18.35125 1.0625 19.5625 C1.06947261 23.47413467 0.64250343 27.14497944 0 31 C-0.33 31 -0.66 31 -1 31 C-1.02689449 28.04160645 -1.04678741 25.08345573 -1.0625 22.125 C-1.07087891 21.28324219 -1.07925781 20.44148438 -1.08789062 19.57421875 C-1.09111328 18.76855469 -1.09433594 17.96289062 -1.09765625 17.1328125 C-1.10289307 16.38918457 -1.10812988 15.64555664 -1.11352539 14.87939453 C-1 13 -1 13 0 11 C-0.11261013 9.30803281 -0.28699205 7.6197787 -0.5 5.9375 C-0.70721304 4.29627854 -0.88358734 2.65014946 -1 1 C-0.67 0.67 -0.34 0.34 0 0 Z " fill="#15516D" transform="translate(321,17)"/>
<path d="M0 0 C4.29 0 8.58 0 13 0 C13 8.58 13 17.16 13 26 C10.75565463 22.63348195 10.79861098 21.78403012 11.0234375 17.89453125 C11.075 16.91162109 11.1265625 15.92871094 11.1796875 14.91601562 C11.24414062 13.89185547 11.30859375 12.86769531 11.375 11.8125 C11.43171875 10.77673828 11.4884375 9.74097656 11.546875 8.67382812 C11.68835827 6.11533893 11.84293699 3.55758005 12 1 C8.37 1 4.74 1 1 1 C0.95101563 2.10730469 0.90203125 3.21460938 0.8515625 4.35546875 C0.14719426 19.58804199 -0.91204009 34.79073223 -2 50 C-2.33 50 -2.66 50 -3 50 C-3.02934144 46.02084915 -3.04691265 42.04172663 -3.0625 38.0625 C-3.07506836 36.38704102 -3.07506836 36.38704102 -3.08789062 34.67773438 C-3.10445788 29.02830112 -2.94020468 23.54461338 -2.21606445 17.94165039 C-1.79954224 14.19859825 -2.03742296 10.45485735 -2.16015625 6.69921875 C-2 4 -2 4 0 0 Z " fill="#CAE2EA" transform="translate(343,4)"/>
<path d="M0 0 C0 0.33 0 0.66 0 1 C-1.65 1.33 -3.3 1.66 -5 2 C-4.67 2.66 -4.34 3.32 -4 4 C-4.66 4 -5.32 4 -6 4 C-6 4.66 -6 5.32 -6 6 C-7.98 6 -9.96 6 -12 6 C-12.33 5.34 -12.66 4.68 -13 4 C-13.4125 4.61875 -13.825 5.2375 -14.25 5.875 C-16.07515423 8.0912587 -17.44745809 8.80881377 -20 10 C-20.33 10.66 -20.66 11.32 -21 12 C-21.66 12 -22.32 12 -23 12 C-22.938125 13.918125 -22.938125 13.918125 -22.875 15.875 C-22.8046875 18.0546875 -22.8046875 18.0546875 -23 20 C-23.66 20.66 -24.32 21.32 -25 22 C-26.61055776 18.77888448 -26.45617429 15.49299172 -26 12 C-22.83953746 5.42623793 -18.12184759 3.1352173 -11.5625 0.75 C-7.53803613 -0.09725555 -4.10034945 -0.14387191 0 0 Z " fill="#2B657F" transform="translate(128,44)"/>
<path d="M0 0 C2.04333653 3.06500479 2.57911363 4.93471815 3.25 8.5 C3.44078125 9.4590625 3.6315625 10.418125 3.828125 11.40625 C4 14 4 14 2 17 C0.0625 16.1875 0.0625 16.1875 -2 15 C-2.33 14.01 -2.66 13.02 -3 12 C-3.66 12 -4.32 12 -5 12 C-7.125 7.375 -7.125 7.375 -6 4 C-5.34 4 -4.68 4 -4 4 C-3.67 3.01 -3.34 2.02 -3 1 C-2.01 0.67 -1.02 0.34 0 0 Z " fill="#F1A571" transform="translate(271,17)"/>
<path d="M0 0 C3.68754757 0.49831724 5.60490662 1.10067643 8 4 C6.39852104 6.10626032 4.79395125 8.21003738 3.1875 10.3125 C2.73568359 10.90740234 2.28386719 11.50230469 1.81835938 12.11523438 C-0.31610234 14.90405661 -2.41080206 17.61724973 -5 20 C-6.65296348 15.13556463 -5.01918801 11.6617647 -3.0625 7.1875 C-2.77181641 6.49462891 -2.48113281 5.80175781 -2.18164062 5.08789062 C-1.46608352 3.38697619 -0.73460121 1.69277669 0 0 Z " fill="#9AA777" transform="translate(286,24)"/>
<path d="M0 0 C2 2 2 2 2.16699219 3.83740234 C2.10753418 4.95042725 2.10753418 4.95042725 2.046875 6.0859375 C1.98487915 7.34531128 1.98487915 7.34531128 1.92163086 8.63012695 C1.86499268 9.53593506 1.80835449 10.44174316 1.75 11.375 C1.6991626 12.30078857 1.6483252 13.22657715 1.59594727 14.18041992 C1.02781988 23.81576252 0.0611798 33.40817092 -1 43 C-4.63 43 -8.26 43 -12 43 C-11.67 41.68 -11.34 40.36 -11 39 C-9.865625 38.855625 -8.73125 38.71125 -7.5625 38.5625 C-4.19222799 38.38828522 -4.19222799 38.38828522 -3 37 C-2.78352101 35.37565588 -2.62853502 33.74303217 -2.5 32.109375 C-2.3769751 30.58763672 -2.3769751 30.58763672 -2.25146484 29.03515625 C-2.16848145 27.95105469 -2.08549805 26.86695312 -2 25.75 C-1.91314941 24.66074219 -1.82629883 23.57148437 -1.73681641 22.44921875 C-1.4867219 19.29981103 -1.24254766 16.1499967 -1 13 C-0.88300982 11.50519288 -0.76585387 10.01039871 -0.6484375 8.515625 C-0.42768655 5.67739845 -0.21070606 2.83898685 0 0 Z " fill="#285672" transform="translate(375,27)"/>
<path d="M0 0 C2.475 0.99 2.475 0.99 5 2 C5.33 7.28 5.66 12.56 6 18 C3.36 18 0.72 18 -2 18 C-2.27560214 11.79895188 -1.22899346 6.06815522 0 0 Z " fill="#8EA68C" transform="translate(277,46)"/>
<path d="M0 0 C3.73113266 1.62223159 6.32658788 3.94467186 9 7 C11.38866434 14.16599303 10.13355962 22.63186245 9 30 C8.67 30 8.34 30 8 30 C7.93941406 28.92621094 7.87882812 27.85242188 7.81640625 26.74609375 C7.73192349 25.30988685 7.64727946 23.87368942 7.5625 22.4375 C7.52318359 21.73302734 7.48386719 21.02855469 7.44335938 20.30273438 C7.17543717 15.83049448 6.85413346 11.4055305 6 7 C4.06402968 5.48705712 4.06402968 5.48705712 2 5 C2 4.34 2 3.68 2 3 C-1.96 2.67 -5.92 2.34 -10 2 C-10 2.66 -10 3.32 -10 4 C-11.875 4.625 -11.875 4.625 -14 5 C-14.66 4.34 -15.32 3.68 -16 3 C-10.72671417 -0.33049632 -6.06411366 -0.75166568 0 0 Z " fill="#2C5970" transform="translate(85,24)"/>
<path d="M0 0 C5.63098876 3.00064027 10.88084541 6.18786361 16 10 C15.42655063 12.86724686 15.1385485 13.8614515 13 16 C10.47998133 15.7755449 9.26107316 15.23234262 7.3671875 13.546875 C4.56341908 10.17060936 2.30307294 7.26460236 1 3 C0.67 2.01 0.34 1.02 0 0 Z " fill="#D6A07A" transform="translate(287,52)"/>
<path d="M0 0 C0.33 0 0.66 0 1 0 C1 2.31 1 4.62 1 7 C1.66 7 2.32 7 3 7 C3 10.3 3 13.6 3 17 C4.98 17 6.96 17 9 17 C9.33 14.36 9.66 11.72 10 9 C10.33 9 10.66 9 11 9 C11.02689216 10.47906892 11.04634621 11.95827483 11.0625 13.4375 C11.07410156 14.26121094 11.08570313 15.08492187 11.09765625 15.93359375 C11 18 11 18 10 19 C6.5625 19.1875 6.5625 19.1875 3 19 C2.34 18.34 1.68 17.68 1 17 C1 16.01 1 15.02 1 14 C-0.98 14.99 -2.96 15.98 -5 17 C-4.75 13.625 -4.75 13.625 -4 10 C-1.9375 8.5625 -1.9375 8.5625 0 8 C0 5.36 0 2.72 0 0 Z " fill="#2B5E79" transform="translate(129,51)"/>
<path d="M0 0 C3.96 0 7.92 0 12 0 C13.59947089 23.27801389 13.59947089 23.27801389 12.01953125 27.81640625 C10.58956309 32.28163248 10.55426972 36.61178238 10.34375 41.26953125 C10.2303125 42.17058594 10.116875 43.07164063 10 44 C9.01 44.495 9.01 44.495 8 45 C8.66563274 30.30352985 9.77142195 15.65944095 11 1 C7.37 1 3.74 1 0 1 C0 0.67 0 0.34 0 0 Z " fill="#C4E0E8" transform="translate(366,24)"/>
<path d="M0 0 C5.68502535 1.64566523 10.76681636 4.29032784 16 7 C13 8 13 8 10.08203125 6.78515625 C7.0546875 5.19010417 4.02734375 3.59505208 1 2 C0.34 6.29 -0.32 10.58 -1 15 C0.62808594 14.67515625 0.62808594 14.67515625 2.2890625 14.34375 C3.7343179 14.06220674 5.17963365 13.78097314 6.625 13.5 C7.33785156 13.35691406 8.05070312 13.21382812 8.78515625 13.06640625 C12.92144935 12.26950574 16.76433679 11.83965944 21 12 C19 15 19 15 17.00390625 15.4765625 C15.79541016 15.55003906 15.79541016 15.55003906 14.5625 15.625 C13.23798828 15.71974609 13.23798828 15.71974609 11.88671875 15.81640625 C10.93410156 15.87699219 9.98148437 15.93757813 9 16 C6.95786951 16.18237895 4.91617648 16.36973689 2.875 16.5625 C1.25004117 16.70879131 -0.3749437 16.85479535 -2 17 C-2.05441656 15.10448978 -2.09298035 13.2085208 -2.125 11.3125 C-2.14820313 10.25675781 -2.17140625 9.20101562 -2.1953125 8.11328125 C-1.99858729 4.97748141 -1.33057654 2.82354627 0 0 Z " fill="#A4966B" transform="translate(255,33)"/>
<path d="M0 0 C2.33760758 3.71267087 1.9611085 4.19445748 1 9 C4.63 9 8.26 9 12 9 C12 9.66 12 10.32 12 11 C9.36 11 6.72 11 4 11 C4.33 12.32 4.66 13.64 5 15 C4.01 15.33 3.02 15.66 2 16 C0.17578125 15.07421875 0.17578125 15.07421875 -1.6875 13.6875 C-2.62142578 13.01267578 -2.62142578 13.01267578 -3.57421875 12.32421875 C-4.04472656 11.88722656 -4.51523437 11.45023438 -5 11 C-5 10.34 -5 9.68 -5 9 C-3.35 9 -1.7 9 0 9 C0 8.34 0 7.68 0 7 C-1.65 7.33 -3.3 7.66 -5 8 C-3.62845496 5.04590299 -2.01136276 2.55991624 0 0 Z " fill="#F5F5F0" transform="translate(287,36)"/>
<path d="M0 0 C0.66 0.33 1.32 0.66 2 1 C1.67 1.66 1.34 2.32 1 3 C1.66 3 2.32 3 3 3 C2.67 4.65 2.34 6.3 2 8 C-1.07353898 9.02451299 -2.81441086 9.06374438 -6 8.8125 C-6.86625 8.75707031 -7.7325 8.70164062 -8.625 8.64453125 C-11.62638361 7.83001103 -12.41389616 6.60350598 -14 4 C-11.1554777 2.57773885 -8.33587776 2.62238263 -5.19140625 2.37890625 C-2.71626355 2.1032176 -2.71626355 2.1032176 0 0 Z " fill="#0F557B" transform="translate(416,60)"/>
<path d="M0 0 C1.62463842 -0.05395478 3.24978541 -0.09277195 4.875 -0.125 C6.23238281 -0.15980469 6.23238281 -0.15980469 7.6171875 -0.1953125 C10 0 10 0 12 2 C10.35 2.33 8.7 2.66 7 3 C7 3.66 7 4.32 7 5 C7.99 5 8.98 5 10 5 C9.67 5.99 9.34 6.98 9 8 C5.37 8.33 1.74 8.66 -2 9 C-2.33 7.35 -2.66 5.7 -3 4 C-1.35 3.67 0.3 3.34 2 3 C1.34 2.01 0.68 1.02 0 0 Z " fill="#215E83" transform="translate(409,24)"/>
<path d="M0 0 C3.63 0 7.26 0 11 0 C11 4.62 11 9.24 11 14 C10.34 13.67 9.68 13.34 9 13 C9 9.37 9 5.74 9 2 C7.35 2 5.7 2 4 2 C1.74566386 7.56069582 1.40038172 13.0785651 1 19 C0.67 19 0.34 19 0 19 C0 12.73 0 6.46 0 0 Z " fill="#1C516A" transform="translate(344,5)"/>
<path d="M0 0 C1.48593696 2.97187391 0.28156453 5.04268059 -0.625 8.125 C-1.2156101 10.08039699 -1.2156101 10.08039699 0 12 C0.13415472 14.6723621 0.04318541 17.32250488 0 20 C-0.66 20.33 -1.32 20.66 -2 21 C-2 18.69 -2 16.38 -2 14 C-5.3 14 -8.6 14 -12 14 C-11.34 13.67 -10.68 13.34 -10 13 C-9.67 12.01 -9.34 11.02 -9 10 C-9.66 9.34 -10.32 8.68 -11 8 C-10.37351562 7.92523438 -9.74703125 7.85046875 -9.1015625 7.7734375 C-6.59401809 7.37001553 -4.36502817 6.93390509 -2 6 C-0.30834699 3.01716843 -0.30834699 3.01716843 0 0 Z " fill="#164E6C" transform="translate(132,37)"/>
<path d="M0 0 C1.485 0.99 1.485 0.99 3 2 C7.07490752 2.33957563 8.53001271 2.31332486 12 0 C12 2.64 12 5.28 12 8 C8.04 8 4.08 8 0 8 C-1.125 2.25 -1.125 2.25 0 0 Z " fill="#EDF9FA" transform="translate(366,16)"/>
<path d="M0 0 C0.66 0 1.32 0 2 0 C2 0.99 2 1.98 2 3 C2.66 3 3.32 3 4 3 C4.77976109 7.4186462 4.90788764 10.65178134 4 15 C3.85843072 16.91042776 3.75525298 18.82395604 3.68359375 20.73828125 C3.64169922 21.80498047 3.59980469 22.87167969 3.55664062 23.97070312 C3.49766602 25.62489258 3.49766602 25.62489258 3.4375 27.3125 C3.39431641 28.43462891 3.35113281 29.55675781 3.30664062 30.71289062 C3.20085213 33.47514569 3.09876328 36.2374863 3 39 C2.01 39 1.02 39 0 39 C0.0721875 38.31679687 0.144375 37.63359375 0.21875 36.9296875 C0.91001768 29.42175247 1.11015581 21.97463538 1.125 14.4375 C1.12951172 13.47376465 1.13402344 12.5100293 1.13867188 11.51708984 C1.13673828 10.60266113 1.13480469 9.68823242 1.1328125 8.74609375 C1.13168457 7.92810303 1.13055664 7.1101123 1.12939453 6.26733398 C1.00306516 4.05370962 0.61353693 2.12544546 0 0 Z " fill="#D7EEF5" transform="translate(139,30)"/>
<path d="M0 0 C0.33333333 1.33333333 0.66666667 2.66666667 1 4 C1.3403125 5.051875 1.3403125 5.051875 1.6875 6.125 C1.8421875 7.053125 1.8421875 7.053125 2 8 C-0.6855594 10.6855594 -3.37621328 11.06049974 -7 12 C-7 12.99 -7 13.98 -7 15 C-5.02 15 -3.04 15 -1 15 C-1 17.97 -1 20.94 -1 24 C-1.66 24.33 -2.32 24.66 -3 25 C-3 22.03 -3 19.06 -3 16 C-4.98 16 -6.96 16 -9 16 C-9 13.69 -9 11.38 -9 9 C-7.329375 8.7215625 -7.329375 8.7215625 -5.625 8.4375 C-4.42875 7.963125 -3.2325 7.48875 -2 7 C-0.45913678 3.48599332 -0.45913678 3.48599332 0 0 Z " fill="#23556E" transform="translate(157,17)"/>
<path d="M0 0 C1.8125 1.375 1.8125 1.375 2.5625 4 C2.68625 5.175625 2.68625 5.175625 2.8125 6.375 C-1.02259798 9.04966243 -3.65049549 9.78505267 -8.3125 9.75 C-9.34632813 9.75773437 -10.38015625 9.76546875 -11.4453125 9.7734375 C-14.4709498 9.33381499 -15.35983014 8.75727313 -17.1875 6.375 C-11.85416667 6.375 -6.52083333 6.375 -1.1875 6.375 C-1.53270448 4.41006426 -1.53270448 4.41006426 -2.1875 2.375 C-4.1712767 1.09063266 -4.1712767 1.09063266 -6.1875 0.375 C-3.77466168 -0.48672797 -2.49284286 -0.71224082 0 0 Z " fill="#29566F" transform="translate(172.1875,60.625)"/>
<path d="M0 0 C0.33 0 0.66 0 1 0 C1.13425509 8.31262781 0.75613601 16.47337607 0 24.75 C-0.09539062 25.84054688 -0.19078125 26.93109375 -0.2890625 28.0546875 C-0.52142068 30.70357074 -0.75844982 33.35194196 -1 36 C-1.33 36 -1.66 36 -2 36 C-3.76630435 11.29891304 -3.76630435 11.29891304 0 0 Z " fill="#CCE3EC" transform="translate(364,34)"/>
<path d="M0 0 C3.3 0 6.6 0 10 0 C9.67 0.66 9.34 1.32 9 2 C7.02 2 5.04 2 3 2 C4.63778399 5.2117961 4.63778399 5.2117961 7.3828125 5.51171875 C8.28773438 5.56972656 9.19265625 5.62773438 10.125 5.6875 C11.49011719 5.78611328 11.49011719 5.78611328 12.8828125 5.88671875 C13.58148438 5.92410156 14.28015625 5.96148437 15 6 C14.67 6.66 14.34 7.32 14 8 C12.08404032 8.08133791 10.16708068 8.13934367 8.25 8.1875 C7.18265625 8.22230469 6.1153125 8.25710937 5.015625 8.29296875 C1.69972145 7.97082786 0.40983327 7.22851086 -2 5 C-1.34 3.35 -0.68 1.7 0 0 Z " fill="#205370" transform="translate(400,62)"/>
<path d="M0 0 C0.33 0 0.66 0 1 0 C1 1.65 1 3.3 1 5 C1.66 5 2.32 5 3 5 C4.23076923 10.41538462 4.23076923 10.41538462 3.0625 13.375 C2.711875 13.91125 2.36125 14.4475 2 15 C-0.375 14.75 -0.375 14.75 -3 14 C-4.3125 11.9375 -4.3125 11.9375 -5 10 C-4.360625 9.0925 -3.72125 8.185 -3.0625 7.25 C-1.38571047 4.60778619 -0.46310002 3.0101501 0 0 Z " fill="#245F80" transform="translate(213,50)"/>
<path d="M0 0 C1.32 0 2.64 0 4 0 C4 10.89 4 21.78 4 33 C3.34 33 2.68 33 2 33 C1.07811539 30.23434618 0.88214778 28.61716298 0.90234375 25.76953125 C0.90556641 24.96708984 0.90878906 24.16464844 0.91210938 23.33789062 C0.92048828 22.50451172 0.92886719 21.67113281 0.9375 20.8125 C0.94201172 19.96751953 0.94652344 19.12253906 0.95117188 18.25195312 C0.96294597 16.16793845 0.9808811 14.08396023 1 12 C1.66 12 2.32 12 3 12 C3 9.03 3 6.06 3 3 C2.01 2.67 1.02 2.34 0 2 C0 1.34 0 0.68 0 0 Z " fill="#CDE6EE" transform="translate(150,33)"/>
<path d="M0 0 C0.66 0 1.32 0 2 0 C3 1.33333333 4 2.66666667 5 4 C5.66 4 6.32 4 7 4 C7.66 3.34 8.32 2.68 9 2 C9.66 4.31 10.32 6.62 11 9 C11.66 8.67 12.32 8.34 13 8 C13.33 9.98 13.66 11.96 14 14 C13.01 14 12.02 14 11 14 C10.67 14.66 10.34 15.32 10 16 C8.35 15.01 6.7 14.02 5 13 C6.32 12.67 7.64 12.34 9 12 C8.3503125 11.21753906 7.700625 10.43507813 7.03125 9.62890625 C5.77828125 8.11103516 5.77828125 8.11103516 4.5 6.5625 C3.6646875 5.55316406 2.829375 4.54382812 1.96875 3.50390625 C0 1 0 1 0 0 Z " fill="#C39775" transform="translate(266,29)"/>
<path d="M0 0 C0.66 0 1.32 0 2 0 C2.11157151 9.07448253 1.94242818 17.96278689 1 27 C-0.32 27.33 -1.64 27.66 -3 28 C-2.505 26.515 -2.505 26.515 -2 25 C-1.78391654 23.08330242 -1.6112858 21.16155357 -1.46484375 19.23828125 C-1.37783203 18.12001953 -1.29082031 17.00175781 -1.20117188 15.84960938 C-1.11416016 14.68236328 -1.02714844 13.51511719 -0.9375 12.3125 C-0.84662109 11.13365234 -0.75574219 9.95480469 -0.66210938 8.74023438 C-0.4380194 5.82706468 -0.21745704 2.9136711 0 0 Z " fill="#CFE5EB" transform="translate(27,43)"/>
<path d="M0 0 C0 0.33 0 0.66 0 1 C-1.670625 1.12375 -1.670625 1.12375 -3.375 1.25 C-6.9987422 1.56089266 -6.9987422 1.56089266 -8.1875 3.75 C-9.04935742 6.13668208 -9.40227081 8.22573585 -9.625 10.75 C-9.69976562 11.54921875 -9.77453125 12.3484375 -9.8515625 13.171875 C-9.90054688 13.77515625 -9.94953125 14.3784375 -10 15 C-10.66 15 -11.32 15 -12 15 C-11.97679688 15.98742188 -11.95359375 16.97484375 -11.9296875 17.9921875 C-11.91164063 19.27351563 -11.89359375 20.55484375 -11.875 21.875 C-11.85179688 23.15117188 -11.82859375 24.42734375 -11.8046875 25.7421875 C-12 29 -12 29 -14 31 C-12.94833128 5.59389776 -12.94833128 5.59389776 -9.69140625 1.2578125 C-6.68486386 -0.97799962 -3.63216813 -0.17863122 0 0 Z " fill="#BAD6E5" transform="translate(80,33)"/>
<path d="M0 0 C4.21814817 3.9700218 7.61227103 8.30840284 11 13 C5.00067626 11.1668733 -0.44920563 8.92678249 -6 6 C-6 5.34 -6 4.68 -6 4 C-3.61435923 4.57584432 -1.33317216 5.22227595 1 6 C0.67 4.02 0.34 2.04 0 0 Z " fill="#F5F1E1" transform="translate(265,29)"/>
<path d="M0 0 C4.15414253 1.22736029 6.43688534 2.327664 10 5 C6.7 4.67 3.4 4.34 0 4 C0 5.65 0 7.3 0 9 C0.66 9 1.32 9 2 9 C2 9.66 2 10.32 2 11 C3.98 11 5.96 11 8 11 C4.5980513 13.09350689 1.94727588 13.17942163 -2 13 C-2.16682272 8.07872966 -2.24828052 4.49656104 0 0 Z " fill="#EBD887" transform="translate(256,35)"/>
<path d="M0 0 C2.64 0 5.28 0 8 0 C8 4.62 8 9.24 8 14 C11.3 14 14.6 14 18 14 C18 14.33 18 14.66 18 15 C14.37 15 10.74 15 7 15 C7 12.03 7 9.06 7 6 C6.34 6 5.68 6 5 6 C5 4.68 5 3.36 5 2 C4.01 2 3.02 2 2 2 C2 3.65 2 5.3 2 7 C1.67 6.34 1.34 5.68 1 5 C0.34 5 -0.32 5 -1 5 C-0.67 3.35 -0.34 1.7 0 0 Z " fill="#3E6A7F" transform="translate(316,11)"/>
<path d="M0 0 C1.23896243 2.92845666 0.99614276 4.01050025 -0.125 7.0625 C-3.06015983 11.66091707 -6.9898468 13.20148347 -12 15 C-12.639375 15.2475 -13.27875 15.495 -13.9375 15.75 C-16.94565722 16.11462512 -19.2154523 15.07584797 -22 14 C-22 13.67 -22 13.34 -22 13 C-21.20335937 12.90203125 -20.40671875 12.8040625 -19.5859375 12.703125 C-11.08690269 11.56398971 -11.08690269 11.56398971 -4 7 C-2.44243117 4.72242293 -1.23995168 2.47990335 0 0 Z " fill="#D3ECF2" transform="translate(223,57)"/>
<path d="M0 0 C-1.3125 2.9375 -1.3125 2.9375 -3 6 C-6.01490557 7.00496852 -8.04181692 7.10335303 -11.1875 7.0625 C-12.08855469 7.05347656 -12.98960938 7.04445313 -13.91796875 7.03515625 C-14.60503906 7.02355469 -15.29210937 7.01195313 -16 7 C-16.33 6.34 -16.66 5.68 -17 5 C-11.06 4.505 -11.06 4.505 -5 4 C-6.98 3.01 -8.96 2.02 -11 1 C-11 0.67 -11 0.34 -11 0 C-3.57142857 -1.28571429 -3.57142857 -1.28571429 0 0 Z " fill="#1F4E6B" transform="translate(126,63)"/>
<path d="M0 0 C0.33 0 0.66 0 1 0 C1.39708855 7.7542569 1.63688912 14.1866252 -2.04296875 21.15625 C-3.1977948 23.38105775 -3.68025495 25.52197587 -4 28 C-5.32 27.34 -6.64 26.68 -8 26 C-7.566875 25.2265625 -7.13375 24.453125 -6.6875 23.65625 C-3.37029018 17.45183905 -1.18502875 13.06308421 -2 6 C-1.34 6 -0.68 6 0 6 C0 4.02 0 2.04 0 0 Z " fill="#C7E7F0" transform="translate(314,40)"/>
<path d="M0 0 C1.4370809 -0.05422947 2.87475462 -0.09289723 4.3125 -0.125 C5.11300781 -0.14820312 5.91351563 -0.17140625 6.73828125 -0.1953125 C9 0 9 0 12 2 C12 2.66 12 3.32 12 4 C12.70125 3.505 13.4025 3.01 14.125 2.5 C17.37119719 0.8063319 19.39340156 0.74837685 23 1 C22.443125 1.4125 21.88625 1.825 21.3125 2.25 C19.63388406 3.52030395 17.99217853 4.83985123 16.375 6.1875 C14 8 14 8 12 8 C11.46375 7.21625 10.9275 6.4325 10.375 5.625 C7.12962729 2.03800911 4.69349778 1.86047459 0 1 C0 0.67 0 0.34 0 0 Z " fill="#D9F1F6" transform="translate(52,23)"/>
<path d="M0 0 C0.34684009 5.28931132 0.34684009 5.28931132 0 8 C-1.8125 10.0625 -1.8125 10.0625 -4 11 C-4.99 10.67 -5.98 10.34 -7 10 C-6.34 10 -5.68 10 -5 10 C-5 9.01 -5 8.02 -5 7 C-4.34 6.67 -3.68 6.34 -3 6 C-2.67 5.01 -2.34 4.02 -2 3 C-5.63 3 -9.26 3 -13 3 C-9.25711729 -0.74288271 -5.09766283 -0.09803198 0 0 Z " fill="#D5EEF6" transform="translate(129,51)"/>
<path d="M0 0 C0.66 0.33 1.32 0.66 2 1 C0.625 3 0.625 3 -1 5 C-1.66 5 -2.32 5 -3 5 C-2.67 11.6 -2.34 18.2 -2 25 C2.455 25.99 2.455 25.99 7 27 C7 27.33 7 27.66 7 28 C-0.36288394 28.3681442 -0.36288394 28.3681442 -3.11425781 26.77832031 C-5 25 -5 25 -5.42578125 22.79516602 C-5.38839844 21.95655029 -5.35101563 21.11793457 -5.3125 20.25390625 C-5.27253906 19.33416016 -5.23257813 18.41441406 -5.19140625 17.46679688 C-5.12824219 16.50837891 -5.06507813 15.54996094 -5 14.5625 C-4.96777344 13.60794922 -4.93554688 12.65339844 -4.90234375 11.66992188 C-4.52032256 4.67109785 -4.52032256 4.67109785 -1.9375 1.33984375 C-0.9784375 0.67662109 -0.9784375 0.67662109 0 0 Z " fill="#C6E2EB" transform="translate(200,34)"/>
<path d="M0 0 C0 0.66 0 1.32 0 2 C1.65 2 3.3 2 5 2 C5 3.32 5 4.64 5 6 C0.83861737 6.08159574 -2.9472484 5.98248524 -7 5 C-7 4.01 -7 3.02 -7 2 C-2.25 0 -2.25 0 0 0 Z " fill="#09567D" transform="translate(322,62)"/>
<path d="M0 0 C2.31 0 4.62 0 7 0 C7 4.62 7 9.24 7 14 C6.67 14 6.34 14 6 14 C5.87625 13.030625 5.7525 12.06125 5.625 11.0625 C5.315625 9.5465625 5.315625 9.5465625 5 8 C4.34 7.67 3.68 7.34 3 7 C3 6.34 3 5.68 3 5 C2.01 5.33 1.02 5.66 0 6 C-0.38218767 4.34385343 -0.71395102 2.67542976 -1 1 C-0.67 0.67 -0.34 0.34 0 0 Z " fill="#275E7E" transform="translate(160,11)"/>
<path d="M0 0 C3.96 0 7.92 0 12 0 C12 0.33 12 0.66 12 1 C8.37 1 4.74 1 1 1 C1.08378906 2.43214844 1.16757812 3.86429688 1.25390625 5.33984375 C1.35704481 7.20571404 1.45989452 9.07160032 1.5625 10.9375 C1.61857422 11.88302734 1.67464844 12.82855469 1.73242188 13.80273438 C1.78076172 14.70185547 1.82910156 15.60097656 1.87890625 16.52734375 C1.9260376 17.35999756 1.97316895 18.19265137 2.02172852 19.05053711 C2 21 2 21 1 22 C0.95919217 23.99958364 0.95745644 26.00045254 1 28 C0.34 28 -0.32 28 -1 28 C-1.1820896 18.63250185 -0.61326035 9.3412692 0 0 Z " fill="#C2E1ED" transform="translate(322,33)"/>
<path d="M0 0 C3.4375 0.3125 3.4375 0.3125 5.4375 1.3125 C5.1075 3.2925 4.7775 5.2725 4.4375 7.3125 C3.7775 7.3125 3.1175 7.3125 2.4375 7.3125 C2.4375 6.3225 2.4375 5.3325 2.4375 4.3125 C-0.5325 4.3125 -3.5025 4.3125 -6.5625 4.3125 C-4.7099227 0.82529566 -4.05178209 0.35541948 0 0 Z " fill="#0B5478" transform="translate(52.5625,26.6875)"/>
<path d="M0 0 C3.63 0 7.26 0 11 0 C11 2.31 11 4.62 11 7 C10.34 6.34 9.68 5.68 9 5 C9 4.01 9 3.02 9 2 C8.01 2.495 8.01 2.495 7 3 C5.00039988 3.039992 2.99952758 3.04346799 1 3 C1.33 5.64 1.66 8.28 2 11 C1.34 11 0.68 11 0 11 C0 7.37 0 3.74 0 0 Z " fill="#194E67" transform="translate(238,5)"/>
<path d="M0 0 C0.33 0 0.66 0 1 0 C1 4.29 1 8.58 1 13 C-2.63 13 -6.26 13 -10 13 C-10 12.34 -10 11.68 -10 11 C-9.34 11 -8.68 11 -8 11 C-7.67 10.01 -7.34 9.02 -7 8 C-7 8.66 -7 9.32 -7 10 C-5.02 10 -3.04 10 -1 10 C-0.67 6.7 -0.34 3.4 0 0 Z " fill="#174F6A" transform="translate(192,71)"/>
<path d="M0 0 C0.99 0.33 1.98 0.66 3 1 C3 2.32 3 3.64 3 5 C0.47524538 6.26237731 -1.31200466 6.09856404 -4.125 6.0625 C-5.03507813 6.05347656 -5.94515625 6.04445313 -6.8828125 6.03515625 C-7.58148438 6.02355469 -8.28015625 6.01195313 -9 6 C-9.33 4.68 -9.66 3.36 -10 2 C-9.67 2.66 -9.34 3.32 -9 4 C-5.59687262 2.94124926 -2.98646769 1.99097846 0 0 Z " fill="#0E587D" transform="translate(168,62)"/>
<path d="M0 0 C0.33 0 0.66 0 1 0 C1.1723784 9.04028922 0.6331684 17.98865693 0 27 C-4.04438653 20.50009307 -2.59603875 10.79577411 -1 3.625 C-0.67 2.42875 -0.34 1.2325 0 0 Z " fill="#D9E9F1" transform="translate(235,27)"/>
<path d="M0 0 C0.33 0 0.66 0 1 0 C1 9.57 1 19.14 1 29 C0.01 29.33 -0.98 29.66 -2 30 C-1.85957505 26.49976144 -1.71166774 22.99987601 -1.5625 19.5 C-1.52318359 18.51773438 -1.48386719 17.53546875 -1.44335938 16.5234375 C-1.20239383 10.9626941 -0.78078831 5.51144691 0 0 Z " fill="#416D83" transform="translate(388,34)"/>
<path d="M0 0 C0.66 0 1.32 0 2 0 C1.67 5.61 1.34 11.22 1 17 C3.64 17.33 6.28 17.66 9 18 C9 18.33 9 18.66 9 19 C5.7 19 2.4 19 -1 19 C-1.10655578 12.55929529 -0.96205088 6.37358711 0 0 Z " fill="#1B4C69" transform="translate(29,50)"/>
<path d="M0 0 C0.33 0.66 0.66 1.32 1 2 C2.32859716 2.67605608 3.66294764 3.34082384 5 4 C6.60732981 5.1762248 8.19024962 6.3863747 9.75 7.625 C10.54921875 8.25664063 11.3484375 8.88828125 12.171875 9.5390625 C12.77515625 10.02117188 13.3784375 10.50328125 14 11 C10.89448334 11 9.64738916 10.4606285 7 9 C7.66 10.32 8.32 11.64 9 13 C5.02408145 10.12850327 2.44710903 7.25978238 0 3 C0 2.01 0 1.02 0 0 Z " fill="#9B8777" transform="translate(281,45)"/>
<path d="M0 0 C1.91015625 0.23046875 1.91015625 0.23046875 3.91015625 2.23046875 C4.13720703 4.20166016 4.13720703 4.20166016 4.10546875 6.58203125 C4.09580078 7.85820313 4.09580078 7.85820313 4.0859375 9.16015625 C4.06917969 10.04960938 4.05242188 10.9390625 4.03515625 11.85546875 C4.02613281 12.75265625 4.01710938 13.64984375 4.0078125 14.57421875 C3.98420595 16.79323461 3.95127935 19.01171952 3.91015625 21.23046875 C3.58015625 21.23046875 3.25015625 21.23046875 2.91015625 21.23046875 C2.84957031 20.01488281 2.78898437 18.79929687 2.7265625 17.546875 C2.64217293 15.96222647 2.55752415 14.37759173 2.47265625 12.79296875 C2.43333984 11.99052734 2.39402344 11.18808594 2.35351562 10.36132812 C2.50472665 6.47807314 2.50472665 6.47807314 0.91015625 3.23046875 C-2.72179016 3.03897794 -2.72179016 3.03897794 -6.08984375 4.23046875 C-6.41984375 3.24046875 -6.74984375 2.25046875 -7.08984375 1.23046875 C-5.19495423 -0.66442077 -2.51845229 0.05027763 0 0 Z " fill="#C6E1E7" transform="translate(52.08984375,32.76953125)"/>
<path d="M0 0 C-1.98 2.97 -1.98 2.97 -4 6 C-4.78375 5.814375 -5.5675 5.62875 -6.375 5.4375 C-8.97089775 4.74037734 -8.97089775 4.74037734 -11 6 C-10.03628506 3.59071265 -9.34789837 2.23992991 -7.1875 0.75 C-4.67678635 -0.11081611 -2.63651351 -0.14647297 0 0 Z M-13 6 C-12.34 6.33 -11.68 6.66 -11 7 C-11.99 7.99 -12.98 8.98 -14 10 C-13.67 8.68 -13.34 7.36 -13 6 Z " fill="#F3FCFC" transform="translate(414,34)"/>
<path d="M0 0 C1.65 0.33 3.3 0.66 5 1 C2.45335415 5.81033104 0.00972202 9.32442148 -4 13 C-3.52343588 11.20763933 -3.04366502 9.41613103 -2.5625 7.625 C-2.29566406 6.62726562 -2.02882813 5.62953125 -1.75390625 4.6015625 C-1 2 -1 2 0 0 Z " fill="#E1F2A1" transform="translate(287,26)"/>
<path d="M0 0 C0.33 0 0.66 0 1 0 C1 1.98 1 3.96 1 6 C3.64 6 6.28 6 9 6 C9.33 4.68 9.66 3.36 10 2 C11 3 11 3 11 8 C7.04 8 3.08 8 -1 8 C-1 2 -1 2 0 0 Z " fill="#41647B" transform="translate(55,62)"/>
<path d="M0 0 C2.31 0 4.62 0 7 0 C4.6056608 2.77239276 2.52911809 4.00264054 -1 5 C-4.00837909 5.15673908 -6.99078037 5.11800861 -10 5 C-10.33 4.34 -10.66 3.68 -11 3 C-7.7 3 -4.4 3 -1 3 C-0.67 2.01 -0.34 1.02 0 0 Z " fill="#20546B" transform="translate(211,65)"/>
<path d="M0 0 C-2 3 -2 3 -4.06640625 3.4765625 C-5.30197266 3.55003906 -5.30197266 3.55003906 -6.5625 3.625 C-7.44808594 3.68816406 -8.33367187 3.75132813 -9.24609375 3.81640625 C-10.15488281 3.87699219 -11.06367188 3.93757813 -12 4 C-13.70932723 4.1782118 -15.41779451 4.36499445 -17.125 4.5625 C-18.40375 4.706875 -19.6825 4.85125 -21 5 C-21.33 4.34 -21.66 3.68 -22 3 C-19.45953542 2.49311395 -16.91791124 1.99433126 -14.375 1.5 C-13.66214844 1.35691406 -12.94929688 1.21382812 -12.21484375 1.06640625 C-8.07855065 0.26950574 -4.23566321 -0.16034056 0 0 Z " fill="#AFA471" transform="translate(276,45)"/>
<path d="M0 0 C1.734375 1.19140625 1.734375 1.19140625 3 3 C3.29296875 5.48046875 3.29296875 5.48046875 3.1875 8.1875 C3.16042969 9.08855469 3.13335937 9.98960938 3.10546875 10.91796875 C3.07066406 11.60503906 3.03585937 12.29210938 3 13 C2.01 12.67 1.02 12.34 0 12 C0.33 11.67 0.66 11.34 1 11 C1.25005386 8.04182893 1.25005386 8.04182893 1 5 C-0.7766235 2.78090338 -0.7766235 2.78090338 -3.09375 2.875 C-4.28484375 2.936875 -4.28484375 2.936875 -5.5 3 C-7.90625 3.125 -7.90625 3.125 -10 3 C-10.66 2.34 -11.32 1.68 -12 1 C-7.96961634 -0.34346122 -4.20161608 -0.26676927 0 0 Z " fill="#D7EDF3" transform="translate(378,3)"/>
<path d="M0 0 C0.33 0 0.66 0 1 0 C1 4.29 1 8.58 1 13 C3.97 13 6.94 13 10 13 C10.33 13.99 10.66 14.98 11 16 C7.37 16 3.74 16 0 16 C0 10.72 0 5.44 0 0 Z " fill="#3E6677" transform="translate(340,54)"/>
<path d="M0 0 C-0.556875 0.268125 -1.11375 0.53625 -1.6875 0.8125 C-7.41695293 3.6662195 -7.41695293 3.6662195 -12 8 C-12.72197162 10.60611077 -12.72197162 10.60611077 -13 13 C-13.33 13 -13.66 13 -14 13 C-14.43712969 7.75444371 -14.43712969 7.75444371 -14 5 C-9.4707818 0.35159185 -6.32988415 -0.11722008 0 0 Z " fill="#CCE1EC" transform="translate(413,33)"/>
<path d="M0 0 C1 2 1 2 1 5 C0.01 5.495 0.01 5.495 -1 6 C-0.938125 7.918125 -0.938125 7.918125 -0.875 9.875 C-0.8046875 12.0546875 -0.8046875 12.0546875 -1 14 C-1.66 14.66 -2.32 15.32 -3 16 C-4.6033559 12.7932882 -4.49604443 9.47875318 -4 6 C-2.88843696 3.68950216 -1.61720298 2.02150372 0 0 Z " fill="#3A637A" transform="translate(106,50)"/>
<path d="M0 0 C0.66 0 1.32 0 2 0 C2 0.99 2 1.98 2 3 C1.01 3 0.02 3 -1 3 C-0.835 3.639375 -0.67 4.27875 -0.5 4.9375 C0.15932515 8.97586652 0.08003779 12.91807258 0 17 C-0.33 17 -0.66 17 -1 17 C-1.33 18.98 -1.66 20.96 -2 23 C-2.33 23 -2.66 23 -3 23 C-2.8904307 19.54099522 -2.75973152 16.08310891 -2.625 12.625 C-2.5940625 11.64015625 -2.563125 10.6553125 -2.53125 9.640625 C-2.49257813 8.69960938 -2.45390625 7.75859375 -2.4140625 6.7890625 C-2.3826416 5.91975098 -2.3512207 5.05043945 -2.31884766 4.15478516 C-2 2 -2 2 0 0 Z " fill="#D2ECF2" transform="translate(43,35)"/>
<path d="M0 0 C0.33 0 0.66 0 1 0 C1 4.62 1 9.24 1 14 C-2.96 14 -6.92 14 -11 14 C-11 12.02 -11 10.04 -11 8 C-10.67 8 -10.34 8 -10 8 C-10 9.65 -10 11.3 -10 13 C-5.545 12.505 -5.545 12.505 -1 12 C-1.33 10.68 -1.66 9.36 -2 8 C-1.67 7.67 -1.34 7.34 -1 7 C-0.63239269 4.67182036 -0.29758419 2.3381615 0 0 Z " fill="#3F6A82" transform="translate(92,56)"/>
<path d="M0 0 C0.33 0 0.66 0 1 0 C1.33 3.96 1.66 7.92 2 12 C4.97 12 7.94 12 11 12 C11 12.66 11 13.32 11 14 C7.37 14 3.74 14 0 14 C0 9.38 0 4.76 0 0 Z " fill="#D1E8F1" transform="translate(167,11)"/>
<path d="M0 0 C0.99 0.66 1.98 1.32 3 2 C1.625 4.5 1.625 4.5 0 7 C-0.66 7 -1.32 7 -2 7 C-2.33 8.65 -2.66 10.3 -3 12 C-4.32 11.01 -5.64 10.02 -7 9 C-6.1875 7.0625 -6.1875 7.0625 -5 5 C-4.01 4.67 -3.02 4.34 -2 4 C-0.79117904 1.99983534 -0.79117904 1.99983534 0 0 Z " fill="#14567D" transform="translate(114,47)"/>
<path d="M0 0 C2.97 0 5.94 0 9 0 C9.33 1.32 9.66 2.64 10 4 C7.36 3.67 4.72 3.34 2 3 C2 3.66 2 4.32 2 5 C1.34 5 0.68 5 0 5 C0 3.35 0 1.7 0 0 Z " fill="#22546C" transform="translate(186,25)"/>
<path d="M0 0 C0 0.66 0 1.32 0 2 C-3.3 2 -6.6 2 -10 2 C-10 2.66 -10 3.32 -10 4 C-11.875 4.625 -11.875 4.625 -14 5 C-14.66 4.34 -15.32 3.68 -16 3 C-10.62669111 -0.39366878 -6.13053511 -0.32712342 0 0 Z " fill="#355E78" transform="translate(85,24)"/>
<path d="M0 0 C0.66 0.33 1.32 0.66 2 1 C-0.05127045 4.9945793 -1.88912162 7.10267152 -6 9 C-6.66 8.67 -7.32 8.34 -8 8 C-7.00310315 4.31148165 -6.31080309 3.19425193 -3 1.125 C-2.01 0.75375 -1.02 0.3825 0 0 Z " fill="#265C7B" transform="translate(113,46)"/>
<path d="M0 0 C1.80411967 2.75924185 2.0127245 3.88972103 1.625 7.25 C1.41875 8.1575 1.2125 9.065 1 10 C-0.98 10.33 -2.96 10.66 -5 11 C-5 10.34 -5 9.68 -5 9 C-3.35 9 -1.7 9 0 9 C0 8.34 0 7.68 0 7 C-1.65 7.33 -3.3 7.66 -5 8 C-3.62845496 5.04590299 -2.01136276 2.55991624 0 0 Z " fill="#DCDDDD" transform="translate(287,36)"/>
<path d="M0 0 C0.66 0 1.32 0 2 0 C2 0.99 2 1.98 2 3 C2.66 3 3.32 3 4 3 C5.18609365 8.6932495 4.66251802 12.42567486 3 18 C2.67 18 2.34 18 2 18 C1.93941406 17.03578125 1.87882813 16.0715625 1.81640625 15.078125 C1.73261719 13.81484375 1.64882812 12.5515625 1.5625 11.25 C1.48128906 9.99703125 1.40007812 8.7440625 1.31640625 7.453125 C1.07484478 4.81682447 0.75716066 2.51962706 0 0 Z " fill="#C0DCE5" transform="translate(139,30)"/>
<path d="M0 0 C1.51400391 0.01740234 1.51400391 0.01740234 3.05859375 0.03515625 C4.07050781 0.04417969 5.08242188 0.05320312 6.125 0.0625 C7.29869141 0.07990234 7.29869141 0.07990234 8.49609375 0.09765625 C4.32354104 3.67815756 1.8274533 3.36422423 -3.50390625 3.09765625 C-3.17390625 4.74765625 -2.84390625 6.39765625 -2.50390625 8.09765625 C-3.49390625 7.76765625 -4.48390625 7.43765625 -5.50390625 7.09765625 C-3.27951797 0.12790632 -3.27951797 0.12790632 0 0 Z " fill="#164F6E" transform="translate(409.50390625,24.90234375)"/>
<path d="M0 0 C0.33333333 1.33333333 0.66666667 2.66666667 1 4 C1.3403125 5.051875 1.3403125 5.051875 1.6875 6.125 C1.8421875 7.053125 1.8421875 7.053125 2 8 C0 10 0 10 -1.9453125 10.1953125 C-3.96354167 10.13020833 -5.98177083 10.06510417 -8 10 C-8 11.98 -8 13.96 -8 16 C-8.33 16 -8.66 16 -9 16 C-9 13.69 -9 11.38 -9 9 C-7.329375 8.7215625 -7.329375 8.7215625 -5.625 8.4375 C-4.42875 7.963125 -3.2325 7.48875 -2 7 C-0.45913678 3.48599332 -0.45913678 3.48599332 0 0 Z " fill="#457088" transform="translate(157,17)"/>
<path d="M0 0 C0.66 0 1.32 0 2 0 C2.20852314 6.40629424 2.1583195 11.92972642 0 18 C-0.33 18 -0.66 18 -1 18 C-0.505 9.09 -0.505 9.09 0 0 Z " fill="#DEF4F7" transform="translate(402,4)"/>
<path d="M0 0 C0.33 0 0.66 0 1 0 C1.33 3.96 1.66 7.92 2 12 C0.68 12 -0.64 12 -2 12 C-1.85904936 10.3745692 -1.71207913 8.74965949 -1.5625 7.125 C-1.48128906 6.22007813 -1.40007812 5.31515625 -1.31640625 4.3828125 C-1 2 -1 2 0 0 Z " fill="#BDEFC6" transform="translate(279,51)"/>
<path d="M0 0 C-1.98 0.66 -3.96 1.32 -6 2 C-6 3.32 -6 4.64 -6 6 C-7.65 6 -9.3 6 -11 6 C-11.33 5.01 -11.66 4.02 -12 3 C-10.68 3 -9.36 3 -8 3 C-8 2.01 -8 1.02 -8 0 C-4.71303767 -0.79953138 -3.28976808 -1.09658936 0 0 Z " fill="#E9F1E9" transform="translate(272,48)"/>
<path d="M0 0 C-0.33 0.66 -0.66 1.32 -1 2 C-2.0725 2.144375 -3.145 2.28875 -4.25 2.4375 C-7.96914603 2.9953719 -9.95737715 3.87938407 -13 6 C-13.33 5.01 -13.66 4.02 -14 3 C-8.8269357 -0.48390045 -6.32765881 -1.54963073 0 0 Z " fill="#E7E8E5" transform="translate(274,15)"/>
<path d="M0 0 C2 2 2 2 2.125 5.625 C2.08375 6.73875 2.0425 7.8525 2 9 C-3.94 9.495 -3.94 9.495 -10 10 C-9.67 9.34 -9.34 8.68 -9 8 C-6.69 8 -4.38 8 -2 8 C-2 7.34 -2 6.68 -2 6 C-1.34 5.34 -0.68 4.68 0 4 C0 2.68 0 1.36 0 0 Z " fill="#DEF1F6" transform="translate(128,35)"/>
<path d="M0 0 C0.66 0 1.32 0 2 0 C1.34 5.94 0.68 11.88 0 18 C-0.33 18 -0.66 18 -1 18 C-1.22119939 15.37549914 -1.42746669 12.75129514 -1.625 10.125 C-1.68945312 9.37863281 -1.75390625 8.63226563 -1.8203125 7.86328125 C-1.96087365 5.9129953 -1.98759849 3.95530533 -2 2 C-1.34 1.34 -0.68 0.68 0 0 Z " fill="#15506B" transform="translate(243,32)"/>
<path d="M0 0 C-2.5654594 2.5654594 -4.47686668 2.54046087 -8 3 C-8 3.66 -8 4.32 -8 5 C-8.99 5 -9.98 5 -11 5 C-11.33 6.32 -11.66 7.64 -12 9 C-12.34982212 5.85160094 -12.24633224 4.37976221 -10.5 1.6875 C-6.87174359 -0.76157308 -4.32159775 -0.28810652 0 0 Z " fill="#3C6681" transform="translate(377,5)"/>
<path d="M0 0 C0.33 0.99 0.66 1.98 1 3 C-0.62415057 5.51005088 -1.71933982 7.1858385 -4 9 C-7.3125 9.375 -7.3125 9.375 -10 9 C-9.278125 8.443125 -8.55625 7.88625 -7.8125 7.3125 C-5.02542701 5.02090666 -2.51358472 2.58540143 0 0 Z " fill="#CEE4EC" transform="translate(424,61)"/>
<path d="M0 0 C1.9375 1 1.9375 1 3.1875 4.0625 C3.435 5.031875 3.6825 6.00125 3.9375 7 C2.6175 7 1.2975 7 -0.0625 7 C-0.0625 5.68 -0.0625 4.36 -0.0625 3 C-1.7125 2.67 -3.3625 2.34 -5.0625 2 C-2.0625 0 -2.0625 0 0 0 Z " fill="#336278" transform="translate(328.0625,60)"/>
<path d="M0 0 C0.33 0 0.66 0 1 0 C1.29058436 4.9399341 1.21320034 8.09825673 -2 12 C-4.1875 12.8125 -4.1875 12.8125 -6 13 C-4.91367588 10.74378837 -3.76654035 8.62646456 -2.4375 6.5 C-1.14826053 4.2578444 -0.46652072 2.51921187 0 0 Z " fill="#33647B" transform="translate(416,50)"/>
<path d="M0 0 C0.66 0 1.32 0 2 0 C2 2.97 2 5.94 2 9 C3.32 9.66 4.64 10.32 6 11 C4.35 11.33 2.7 11.66 1 12 C1 10.35 1 8.7 1 7 C0.34 7 -0.32 7 -1 7 C-0.67 4.69 -0.34 2.38 0 0 Z " fill="#154D6B" transform="translate(162,52)"/>
<path d="M0 0 C0.33 0 0.66 0 1 0 C1.33 4.62 1.66 9.24 2 14 C1.67 14 1.34 14 1 14 C0.67 16.97 0.34 19.94 0 23 C-0.33 23 -0.66 23 -1 23 C-1.10920422 15.25863399 -0.97159933 7.68604474 0 0 Z " fill="#ADCADA" transform="translate(165,38)"/>
<path d="M0 0 C2.64752004 2.57784846 4.94432065 4.91648098 7 8 C5.53932801 7.54917531 4.08151968 7.08906463 2.625 6.625 C1.81289063 6.36976562 1.00078125 6.11453125 0.1640625 5.8515625 C-2 5 -2 5 -4 3 C-2.68 3 -1.36 3 0 3 C0 2.01 0 1.02 0 0 Z " fill="#F4E7D1" transform="translate(269,34)"/>
<path d="M0 0 C1.98 0.66 3.96 1.32 6 2 C6 4.9154476 5.59136731 7.34154481 5 10.1875 C4.814375 11.08855469 4.62875 11.98960938 4.4375 12.91796875 C4.293125 13.60503906 4.14875 14.29210938 4 15 C3.67 15 3.34 15 3 15 C1.71428571 6.42857143 1.71428571 6.42857143 3 3 C2.01 2.67 1.02 2.34 0 2 C0 1.34 0 0.68 0 0 Z " fill="#2A5E7B" transform="translate(64,31)"/>
<path d="M0 0 C1.8125 1.375 1.8125 1.375 2.5625 4 C2.68625 5.175625 2.68625 5.175625 2.8125 6.375 C1.4925 6.375 0.1725 6.375 -1.1875 6.375 C-1.31125 5.446875 -1.31125 5.446875 -1.4375 4.5 C-2.00008459 2.19062433 -2.00008459 2.19062433 -4.25 1.125 C-4.889375 0.8775 -5.52875 0.63 -6.1875 0.375 C-3.77466168 -0.48672797 -2.49284286 -0.71224082 0 0 Z " fill="#325E77" transform="translate(172.1875,60.625)"/>
<path d="M0 0 C0 3.60573896 -0.81707462 4.41336566 -3 7.1875 C-3.556875 7.90292969 -4.11375 8.61835937 -4.6875 9.35546875 C-5.120625 9.89816406 -5.55375 10.44085938 -6 11 C-6.66 10.34 -7.32 9.68 -8 9 C-7.625 6.375 -7.625 6.375 -7 4 C-6.01 4.33 -5.02 4.66 -4 5 C-2.68 3.35 -1.36 1.7 0 0 Z " fill="#9BA189" transform="translate(288,33)"/>
<path d="M0 0 C3.96 0 7.92 0 12 0 C12 0.99 12 1.98 12 3 C8.04 2.67 4.08 2.34 0 2 C0 1.34 0 0.68 0 0 Z " fill="#E3FAFD" transform="translate(54,70)"/>
<path d="M0 0 C0.33 0 0.66 0 1 0 C1.02689216 1.47906892 1.04634621 2.95827483 1.0625 4.4375 C1.07410156 5.26121094 1.08570313 6.08492188 1.09765625 6.93359375 C1 9 1 9 0 10 C-2.33297433 10.04092937 -4.66705225 10.04241723 -7 10 C-7 9.34 -7 8.68 -7 8 C-5.02 8 -3.04 8 -1 8 C-0.67 5.36 -0.34 2.72 0 0 Z " fill="#3C637A" transform="translate(139,60)"/>
<path d="M0 0 C6.67048055 3.39588101 6.67048055 3.39588101 8.125 6.0625 C8 8 8 8 6.5625 9.75 C5.7890625 10.36875 5.7890625 10.36875 5 11 C4.01 10.67 3.02 10.34 2 10 C2.66 10 3.32 10 4 10 C4 9.34 4 8.68 4 8 C4.66 8 5.32 8 6 8 C5.195625 7.236875 4.39125 6.47375 3.5625 5.6875 C1 3 1 3 0 0 Z " fill="#A9886F" transform="translate(295,57)"/>
<path d="M0 0 C0.99 0.66 1.98 1.32 3 2 C1.63016497 5.16115776 1.0109362 5.9927092 -2 8 C-2.99 7.67 -3.98 7.34 -5 7 C-3.35 4.69 -1.7 2.38 0 0 Z " fill="#EEF4E1" transform="translate(293,28)"/>
<path d="M0 0 C0.103125 0.639375 0.20625 1.27875 0.3125 1.9375 C0.539375 2.618125 0.76625 3.29875 1 4 C1.99 4.33 2.98 4.66 4 5 C2.6875 7 2.6875 7 1 9 C0.01 9 -0.98 9 -2 9 C-2.33 7.68 -2.66 6.36 -3 5 C-2.34 4.67 -1.68 4.34 -1 4 C-0.34786708 1.97536745 -0.34786708 1.97536745 0 0 Z " fill="#2E5D7A" transform="translate(313,20)"/>
<path d="M0 0 C0.66 0 1.32 0 2 0 C2.18451025 9.41002278 2.18451025 9.41002278 1 14 C-1.02907167 10.6853333 -1.12742133 8.5684021 -0.625 4.75 C-0.51414062 3.85796875 -0.40328125 2.9659375 -0.2890625 2.046875 C-0.19367188 1.37140625 -0.09828125 0.6959375 0 0 Z " fill="#1F5170" transform="translate(397,40)"/>
<path d="M0 0 C0.66 0.33 1.32 0.66 2 1 C2 5.95 2 10.9 2 16 C1.01 16.33 0.02 16.66 -1 17 C-0.67 11.39 -0.34 5.78 0 0 Z " fill="#C2E3EB" transform="translate(194,67)"/>
<path d="M0 0 C2 2 2 2 2 6 C2.99 6.33 3.98 6.66 5 7 C5 7.33 5 7.66 5 8 C3.33388095 8.042721 1.66617115 8.04063832 0 8 C-1 7 -1 7 -1.125 4 C-1 1 -1 1 0 0 Z " fill="#E1FAFD" transform="translate(115,54)"/>
<path d="M0 0 C2.31 0 4.62 0 7 0 C6.67 0.99 6.34 1.98 6 3 C5.01 3 4.02 3 3 3 C2.34 4.65 1.68 6.3 1 8 C0.67 8 0.34 8 0 8 C0 5.36 0 2.72 0 0 Z " fill="#1C4E68" transform="translate(31,25)"/>
<path d="M0 0 C0.99 0.33 1.98 0.66 3 1 C-1.46637991 3.23318995 -4.03570488 4.11664144 -9.125 4.0625 C-10.22070312 4.05347656 -11.31640625 4.04445313 -12.4453125 4.03515625 C-13.70988281 4.01775391 -13.70988281 4.01775391 -15 4 C-15 3.67 -15 3.34 -15 3 C-14.08476563 2.86722656 -13.16953125 2.73445313 -12.2265625 2.59765625 C-11.03804688 2.42105469 -9.84953125 2.24445313 -8.625 2.0625 C-7.44164063 1.88847656 -6.25828125 1.71445313 -5.0390625 1.53515625 C-2.09297619 1.16537214 -2.09297619 1.16537214 0 0 Z " fill="#B8D1DC" transform="translate(125,67)"/>
<path d="M0 0 C-0.66 1.65 -1.32 3.3 -2 5 C-3.65 5 -5.3 5 -7 5 C-7 4.01 -7 3.02 -7 2 C-2.25 0 -2.25 0 0 0 Z " fill="#105688" transform="translate(322,62)"/>
<path d="M0 0 C0 0.33 0 0.66 0 1 C-0.94875 1.12375 -1.8975 1.2475 -2.875 1.375 C-6.08667191 1.71687177 -6.08667191 1.71687177 -8 4 C-9.98821313 4.39764263 -11.98944339 4.73775349 -14 5 C-9.10666796 -0.05644311 -6.85563609 -0.11057478 0 0 Z " fill="#3D6986" transform="translate(57,24)"/>
<path d="M0 0 C0.66 0 1.32 0 2 0 C2 1.32 2 2.64 2 4 C-1.96 4 -5.92 4 -10 4 C-9.67 3.34 -9.34 2.68 -9 2 C-7.329375 2.061875 -7.329375 2.061875 -5.625 2.125 C-1.95633975 2.41121859 -1.95633975 2.41121859 0 0 Z " fill="#E9FFFE" transform="translate(248,0)"/>
<path d="M0 0 C-5.90486258 4.09725159 -5.90486258 4.09725159 -9.0234375 3.8203125 C-10.9375 3.25 -10.9375 3.25 -14 2 C-14 1.67 -14 1.34 -14 1 C-12.04310963 0.63794536 -10.08442332 0.28558579 -8.125 -0.0625 C-7.03445312 -0.25972656 -5.94390625 -0.45695312 -4.8203125 -0.66015625 C-2 -1 -2 -1 0 0 Z " fill="#BFD7DB" transform="translate(215,69)"/>
<path d="M0 0 C0.99 0.33 1.98 0.66 3 1 C3 1.99 3 2.98 3 4 C1.02 4.33 -0.96 4.66 -3 5 C-3 3.68 -3 2.36 -3 1 C-2.01 1.33 -1.02 1.66 0 2 C0 1.34 0 0.68 0 0 Z " fill="#EBFAFB" transform="translate(326,56)"/>
<path d="M0 0 C0.66 0 1.32 0 2 0 C1.75 3.375 1.75 3.375 1 7 C-1.0625 8.4375 -1.0625 8.4375 -3 9 C-3 8.34 -3 7.68 -3 7 C-2.34 7 -1.68 7 -1 7 C-1.020625 6.030625 -1.04125 5.06125 -1.0625 4.0625 C-1 1 -1 1 0 0 Z " fill="#255671" transform="translate(422,57)"/>
<path d="M0 0 C1.44977894 2.34112451 2.04314411 3.5796929 1.7578125 6.359375 C1.54898437 7.14828125 1.34015625 7.9371875 1.125 8.75 C0.92132813 9.54921875 0.71765625 10.3484375 0.5078125 11.171875 C0.34023438 11.77515625 0.17265625 12.3784375 0 13 C-0.66 12.67 -1.32 12.34 -2 12 C-1.44687265 7.97007218 -0.8441938 3.97977076 0 0 Z " fill="#9DB89F" transform="translate(277,49)"/>
<path d="M0 0 C1.32 0 2.64 0 4 0 C4 4.95 4 9.9 4 15 C3.67 15 3.34 15 3 15 C3 11.04 3 7.08 3 3 C2.01 2.67 1.02 2.34 0 2 C0 1.34 0 0.68 0 0 Z " fill="#B5D2DE" transform="translate(150,33)"/>
<path d="M0 0 C0.33 0 0.66 0 1 0 C1 1.98 1 3.96 1 6 C2.65 5.34 4.3 4.68 6 4 C5.67 5.32 5.34 6.64 5 8 C3.35 8.33 1.7 8.66 0 9 C0 6.03 0 3.06 0 0 Z " fill="#558398" transform="translate(400,22)"/>
<path d="M0 0 C0.33 0.99 0.66 1.98 1 3 C0.34 3.66 -0.32 4.32 -1 5 C-0.34 6.32 0.32 7.64 1 9 C-1.5 7.625 -1.5 7.625 -4 6 C-4 5.34 -4 4.68 -4 4 C-4.66 3.67 -5.32 3.34 -6 3 C-5.195625 2.690625 -4.39125 2.38125 -3.5625 2.0625 C-1.10919595 1.23664655 -1.10919595 1.23664655 0 0 Z " fill="#E5F0F0" transform="translate(260,63)"/>
<path d="M0 0 C0.33 0.99 0.66 1.98 1 3 C-2.75 6 -2.75 6 -5 6 C-5 4.68 -5 3.36 -5 2 C-3.35 1.34 -1.7 0.68 0 0 Z " fill="#8F9E9B" transform="translate(271,48)"/>
<path d="M0 0 C0.33 0 0.66 0 1 0 C1 4.62 1 9.24 1 14 C-0.9451 11.08235 -1.45276317 9.37462715 -2 6 C-1.34 6 -0.68 6 0 6 C0 4.02 0 2.04 0 0 Z " fill="#ACCCDC" transform="translate(314,40)"/>
<path d="M0 0 C3.3 0.33 6.6 0.66 10 1 C10.33 1.99 10.66 2.98 11 4 C10.01 4.66 9.02 5.32 8 6 C7.4121875 5.0409375 7.4121875 5.0409375 6.8125 4.0625 C4.61527704 1.56221181 3.24208567 1.35049575 0 1 C0 0.67 0 0.34 0 0 Z " fill="#275D74" transform="translate(205,32)"/>
<path d="M0 0 C-2.55068845 2.35448165 -3.71017358 2.98327924 -7.25 3.1875 C-8.1575 3.125625 -9.065 3.06375 -10 3 C-10 2.34 -10 1.68 -10 1 C-6.78548731 -0.60725635 -3.56387464 -0.05748185 0 0 Z " fill="#255269" transform="translate(119,33)"/>
<path d="M0 0 C0.66 0 1.32 0 2 0 C2 2.31 2 4.62 2 7 C1.01 7.33 0.02 7.66 -1 8 C-1.04241723 5.66705225 -1.04092937 3.33297433 -1 1 C-0.67 0.67 -0.34 0.34 0 0 Z " fill="#06597A" transform="translate(161,16)"/>
<path d="M0 0 C0.33 0 0.66 0 1 0 C1.22786458 1.98567708 1.45572917 3.97135417 1.68359375 5.95703125 C1.97170735 8.19396393 1.97170735 8.19396393 3 11 C1.68 11 0.36 11 -1 11 C-0.67 7.37 -0.34 3.74 0 0 Z " fill="#1D4A61" transform="translate(387,58)"/>
<path d="M0 0 C1.85625 -0.061875 1.85625 -0.061875 3.75 -0.125 C4.79414063 -0.15980469 4.79414063 -0.15980469 5.859375 -0.1953125 C8.30155975 0.02751458 9.88636771 0.79085 12 2 C10.56589632 2.24954005 9.12739928 2.47392642 7.6875 2.6875 C6.88699219 2.81511719 6.08648437 2.94273438 5.26171875 3.07421875 C3 3 3 3 1.20703125 1.51953125 C0.80871094 1.01808594 0.41039062 0.51664062 0 0 Z " fill="#2B5874" transform="translate(312,67)"/>
<path d="M0 0 C1.32 1.32 2.64 2.64 4 4 C3.34 6.31 2.68 8.62 2 11 C1.67 11 1.34 11 1 11 C0.67 7.37 0.34 3.74 0 0 Z " fill="#E5EDDC" transform="translate(281,49)"/>
<path d="M0 0 C0.66 0 1.32 0 2 0 C1.67 4.62 1.34 9.24 1 14 C0.67 14 0.34 14 0 14 C-0.19393875 11.85473901 -0.37998676 9.70876323 -0.5625 7.5625 C-0.71912109 5.77005859 -0.71912109 5.77005859 -0.87890625 3.94140625 C-0.91886719 2.97074219 -0.95882812 2.00007813 -1 1 C-0.67 0.67 -0.34 0.34 0 0 Z " fill="#14506A" transform="translate(215,36)"/>
<path d="M0 0 C2.05078125 0.03255208 4.1015625 0.06510417 6.15234375 0.09765625 C5.82234375 1.08765625 5.49234375 2.07765625 5.15234375 3.09765625 C3.97671875 3.06671875 3.97671875 3.06671875 2.77734375 3.03515625 C0.17119414 2.91081562 0.17119414 2.91081562 -1.84765625 4.09765625 C-2.17765625 3.10765625 -2.50765625 2.11765625 -2.84765625 1.09765625 C-1.84765625 0.09765625 -1.84765625 0.09765625 0 0 Z " fill="#D1E4EE" transform="translate(47.84765625,32.90234375)"/>
<path d="M0 0 C0.99 1.32 1.98 2.64 3 4 C0.69 5.32 -1.62 6.64 -4 8 C-4 4 -4 4 -2 1.75 C-1.01 0.88375 -1.01 0.88375 0 0 Z " fill="#2A5B7B" transform="translate(403,30)"/>
<path d="M0 0 C2 1 2 1 3.1875 3.1875 C4.1442869 6.49945464 3.77315996 8.67541217 3 12 C2.67 12 2.34 12 2 12 C0.86235649 7.73383684 0 4.43513689 0 0 Z " fill="#F8ECE6" transform="translate(277,30)"/>
<path d="M0 0 C0.33 0.66 0.66 1.32 1 2 C0.34 2 -0.32 2 -1 2 C-1 2.763125 -1 3.52625 -1 4.3125 C-1 6.20833333 -1 8.10416667 -1 10 C-2.5625 8.8125 -2.5625 8.8125 -4 7 C-3.875 4.4375 -3.875 4.4375 -3 2 C-2.01 1.34 -1.02 0.68 0 0 Z " fill="#C69870" transform="translate(266,19)"/>
<path d="M0 0 C0.66 0 1.32 0 2 0 C2 2.31 2 4.62 2 7 C1.01 7.33 0.02 7.66 -1 8 C-1.125 2.25 -1.125 2.25 0 0 Z " fill="#1E4D6D" transform="translate(315,16)"/>
<path d="M0 0 C2.31 0 4.62 0 7 0 C7 0.66 7 1.32 7 2 C4.29120665 3.35439668 1.99066732 3.06501451 -1 3 C-0.67 2.01 -0.34 1.02 0 0 Z " fill="#375C72" transform="translate(160,11)"/>
<path d="M0 0 C2.31 0.33 4.62 0.66 7 1 C4.33333333 2.33333333 1.66666667 3.66666667 -1 5 C-1.33 4.01 -1.66 3.02 -2 2 C-1.34 2 -0.68 2 0 2 C0 1.34 0 0.68 0 0 Z " fill="#255D72" transform="translate(115,50)"/>
<path d="M0 0 C3.5 0.25 3.5 0.25 5.5 2.25 C1.48195309 3.09098656 -1.51803543 3.30404945 -5.5 2.25 C-3.5 0.25 -3.5 0.25 0 0 Z " fill="#C7EBF3" transform="translate(122.5,32.75)"/>
<path d="M0 0 C1.485 0.99 1.485 0.99 3 2 C3.29296875 4.3828125 3.29296875 4.3828125 3.1875 7.125 C3.16042969 8.03507813 3.13335937 8.94515625 3.10546875 9.8828125 C3.07066406 10.58148438 3.03585937 11.28015625 3 12 C2.01 11.67 1.02 11.34 0 11 C0.33 10.67 0.66 10.34 1 10 C1.26293056 5.96839809 1.29404844 4.44107266 -1 1 C-0.67 0.67 -0.34 0.34 0 0 Z " fill="#DFF6FA" transform="translate(378,4)"/>
<path d="M0 0 C0.33 0.66 0.66 1.32 1 2 C1.66 2 2.32 2 3 2 C3 2.66 3 3.32 3 4 C4.98 4 6.96 4 9 4 C6.42786866 5.61949011 5.32330841 6.04408751 2.25 5.625 C1.5075 5.41875 0.765 5.2125 0 5 C0 3.35 0 1.7 0 0 Z " fill="#F6D87B" transform="translate(255,42)"/>
<path d="M0 0 C-0.66 1.32 -1.32 2.64 -2 4 C-3.32 4 -4.64 4 -6 4 C-6 3.01 -6 2.02 -6 1 C-4 0 -4 0 0 0 Z " fill="#FEFEF0" transform="translate(412,36)"/>
<path d="M0 0 C0.99 0.33 1.98 0.66 3 1 C1.02 1.99 1.02 1.99 -1 3 C-0.67 3.99 -0.34 4.98 0 6 C-0.66 6 -1.32 6 -2 6 C-2 6.66 -2 7.32 -2 8 C-2.66 7.67 -3.32 7.34 -4 7 C-4 4 -4 4 -2 1.8125 C-1.34 1.214375 -0.68 0.61625 0 0 Z " fill="#1F5C7E" transform="translate(200,27)"/>
<path d="M0 0 C0.5534764 2.07553648 1 3.84365964 1 6 C0.01 6.33 -0.98 6.66 -2 7 C-2.33 5.35 -2.66 3.7 -3 2 C-2.01 1.34 -1.02 0.68 0 0 Z " fill="#315B76" transform="translate(110,28)"/>
<path d="M0 0 C0.99 0.66 1.98 1.32 3 2 C3.99 2.33 4.98 2.66 6 3 C0.25 6 0.25 6 -2 6 C-1.49396008 3.83125748 -1.00016187 2.00032373 0 0 Z " fill="#DFF5F8" transform="translate(403,22)"/>
<path d="M0 0 C0.99 0.33 1.98 0.66 3 1 C2.67 1.99 2.34 2.98 2 4 C-0.31 4.33 -2.62 4.66 -5 5 C-3.35 3.35 -1.7 1.7 0 0 Z " fill="#D3EAF3" transform="translate(153,21)"/>
<path d="M0 0 C1.65 0 3.3 0 5 0 C5.33 0.99 5.66 1.98 6 3 C5.34 3.66 4.68 4.32 4 5 C3.01 4.67 2.02 4.34 1 4 C0.3125 1.9375 0.3125 1.9375 0 0 Z " fill="#F0F1EC" transform="translate(286,20)"/>
<path d="M0 0 C1.65 0 3.3 0 5 0 C5.33 0.99 5.66 1.98 6 3 C3.36 3.33 0.72 3.66 -2 4 C-1.34 2.68 -0.68 1.36 0 0 Z " fill="#E8F6FB" transform="translate(161,8)"/>
<path d="M0 0 C1.65 1.65 3.3 3.3 5 5 C2.69 5 0.38 5 -2 5 C-1.34 3.35 -0.68 1.7 0 0 Z " fill="#D1EAF3" transform="translate(397,65)"/>
<path d="M0 0 C0.66 0 1.32 0 2 0 C2 0.66 2 1.32 2 2 C3.32 2.66 4.64 3.32 6 4 C5.34 5.32 4.68 6.64 4 8 C3.34 7.67 2.68 7.34 2 7 C1.26924352 4.6859378 0.59861742 2.35171131 0 0 Z " fill="#D6EAF0" transform="translate(329,60)"/>
<path d="M0 0 C0.33 0.66 0.66 1.32 1 2 C1.66 2.33 2.32 2.66 3 3 C2.34 4.32 1.68 5.64 1 7 C0.01 7 -0.98 7 -2 7 C-1.34 4.69 -0.68 2.38 0 0 Z " fill="#D6E8F0" transform="translate(427,54)"/>
<path d="M0 0 C-2.93720508 1.52299523 -5.9168649 2.80100302 -9 4 C-9.66 3.34 -10.32 2.68 -11 2 C-7.36576791 -0.32590854 -4.22911669 -0.16265833 0 0 Z " fill="#D0E8F5" transform="translate(413,33)"/>
<path d="M0 0 C2.64 0 5.28 0 8 0 C8.33 0.66 8.66 1.32 9 2 C6.1875 2.6875 6.1875 2.6875 3 3 C1.125 1.5625 1.125 1.5625 0 0 Z " fill="#C9E7F1" transform="translate(202,33)"/>
<path d="M0 0 C1.98 0 3.96 0 6 0 C6 0.99 6 1.98 6 3 C4.02 3 2.04 3 0 3 C0 2.01 0 1.02 0 0 Z " fill="#0A5878" transform="translate(326,28)"/>
<path d="M0 0 C0.33 0.66 0.66 1.32 1 2 C2.65 2 4.3 2 6 2 C4.71034824 3.37562854 3.37310707 4.70766393 2 6 C1.34 6 0.68 6 0 6 C-0.38218767 4.34385343 -0.71395102 2.67542976 -1 1 C-0.67 0.67 -0.34 0.34 0 0 Z " fill="#D0ECF5" transform="translate(196,24)"/>
<path d="M0 0 C0.66 0 1.32 0 2 0 C2 2.31 2 4.62 2 7 C1.34 7 0.68 7 0 7 C-0.38133299 5.0085944 -0.71325582 3.00720923 -1 1 C-0.67 0.67 -0.34 0.34 0 0 Z " fill="#0B4D68" transform="translate(321,17)"/>
<path d="M0 0 C0.99 0.33 1.98 0.66 3 1 C3 1.66 3 2.32 3 3 C-0.63 3 -4.26 3 -8 3 C-8 2.67 -8 2.34 -8 2 C-6.865625 1.855625 -5.73125 1.71125 -4.5625 1.5625 C-1.19222799 1.38828522 -1.19222799 1.38828522 0 0 Z " fill="#EBFEFE" transform="translate(352,1)"/>
<path d="M0 0 C2.02045442 0.60183749 4.02111039 1.27306096 6 2 C6.33 2.66 6.66 3.32 7 4 C4.69 4 2.38 4 0 4 C0 2.68 0 1.36 0 0 Z " fill="#DDF6FC" transform="translate(195,68)"/>
<path d="M0 0 C0.66 1.32 1.32 2.64 2 4 C0.8125 5.5 0.8125 5.5 -1 7 C-3.6875 7.1875 -3.6875 7.1875 -6 7 C-5.195625 6.401875 -4.39125 5.80375 -3.5625 5.1875 C-0.77672016 3.19052724 -0.77672016 3.19052724 0 0 Z " fill="#E8EBE5" transform="translate(303,62)"/>
<path d="M0 0 C4.08718695 -0.24042276 7.17679443 0.57741188 11 2 C11 2.33 11 2.66 11 3 C3.49230769 3.36923077 3.49230769 3.36923077 1 1.5 C0.67 1.005 0.34 0.51 0 0 Z " fill="#ADC7D7" transform="translate(196,59)"/>
<path d="M0 0 C0.33 0 0.66 0 1 0 C1.24915939 1.76813112 1.47366632 3.53974982 1.6875 5.3125 C1.81511719 6.29863281 1.94273437 7.28476562 2.07421875 8.30078125 C2 11 2 11 -1 14 C-0.67 9.38 -0.34 4.76 0 0 Z " fill="#BDDCE6" transform="translate(429,40)"/>
<path d="M0 0 C1.33332095 2.6666419 0.67102033 4.16680303 0 7 C-1.65 5.68 -3.3 4.36 -5 3 C-3.35 2.01 -1.7 1.02 0 0 Z " fill="#E2EDE4" transform="translate(277,47)"/>
<path d="M0 0 C2.64 0 5.28 0 8 0 C8.33 0.66 8.66 1.32 9 2 C8.01 2 7.02 2 6 2 C5.67 2.66 5.34 3.32 5 4 C3.31503702 3.03114628 1.64821244 2.03013277 0 1 C0 0.67 0 0.34 0 0 Z " fill="#A1906F" transform="translate(271,41)"/>
<path d="M0 0 C0.66 0.33 1.32 0.66 2 1 C1.67 2.32 1.34 3.64 1 5 C-0.32 5.33 -1.64 5.66 -3 6 C-1.125 1.125 -1.125 1.125 0 0 Z " fill="#205880" transform="translate(113,26)"/>
<path d="M0 0 C0 0.99 0 1.98 0 3 C-1.32 3 -2.64 3 -4 3 C-4 3.66 -4 4.32 -4 5 C-4.99 4.67 -5.98 4.34 -7 4 C-4.83989616 0.75984424 -3.8842653 0 0 0 Z " fill="#10577B" transform="translate(120,27)"/>
</svg>
