<?xml version="1.0" encoding="UTF-8"?>
<svg version="1.1" xmlns="http://www.w3.org/2000/svg" width="510" height="270">
<path d="M0 0 C2.78682789 2.48063564 3.00060382 4.0066641 3.34057617 7.75878906 C3.34010365 9.26115145 3.32329907 10.76356873 3.29296875 12.265625 C3.28872391 13.05902283 3.28447906 13.85242065 3.28010559 14.66986084 C3.2633504 17.1969232 3.22570506 19.72317983 3.1875 22.25 C3.17244903 23.96613429 3.15876134 25.68228112 3.14648438 27.3984375 C3.11345735 31.59926746 3.06169765 35.79949725 3 40 C3.72010254 39.60530518 4.44020508 39.21061035 5.18212891 38.80395508 C15.37192773 33.23015728 15.37192773 33.23015728 20.375 30.6875 C21.33148438 30.19636719 22.28796875 29.70523438 23.2734375 29.19921875 C30.38187456 26.07272853 37.58292998 26.36445619 44.890625 28.66796875 C51.96466985 31.69843269 58.46698141 35.9604421 65 40 C64.9685791 38.44889526 64.9685791 38.44889526 64.93652344 36.86645508 C64.86394712 33.01812672 64.81813683 29.16985846 64.78027344 25.32104492 C64.76019793 23.65752987 64.73293124 21.99408504 64.69824219 20.33081055 C64.64954234 17.9352076 64.62699144 15.54054008 64.609375 13.14453125 C64.58872986 12.4047554 64.56808472 11.66497955 64.54681396 10.90278625 C64.54524968 7.27665053 64.90427696 5.15874713 66.79174805 2.02856445 C69 0 69 0 72.72265625 -0.6015625 C77.697606 -0.27227862 81.3169873 1.98648367 85.4375 4.625 C86.17887207 5.08213379 86.92024414 5.53926758 87.68408203 6.01025391 C89.8008971 7.32287426 91.90133759 8.65861937 94 10 C94.98871094 10.61359375 95.97742188 11.2271875 96.99609375 11.859375 C103.79111968 16.18855408 103.79111968 16.18855408 106 20 C106.30533069 22.95257544 106.44432863 25.68840453 106.43359375 28.640625 C106.4388356 29.48163757 106.44407745 30.32265015 106.44947815 31.18914795 C106.45589449 32.96772154 106.45456634 34.74633759 106.44604492 36.52490234 C106.43757205 39.2270211 106.46623942 41.92699826 106.49804688 44.62890625 C106.49966014 46.36197854 106.49907895 48.09505453 106.49609375 49.828125 C106.50732773 50.62736389 106.51856171 51.42660278 106.53013611 52.25006104 C106.46121898 57.88698662 105.2401557 62.32579602 102 67 C99.84008374 68.98192518 97.57313802 70.49451522 95.0625 72 C94.40733398 72.4129834 93.75216797 72.8259668 93.07714844 73.25146484 C91.7268549 74.09905874 90.37117368 74.93812984 89.01025391 75.76855469 C87.06675801 76.95910525 85.14679407 78.18036799 83.23046875 79.4140625 C74.45549064 85 74.45549064 85 71 85 C70.67 85.66 70.34 86.32 70 87 C68.08063787 86.57448104 66.16457126 86.13408062 64.25 85.6875 C63.18265625 85.44386719 62.1153125 85.20023437 61.015625 84.94921875 C57.34736176 83.79457112 55.1321982 82.17937313 52.5 79.4375 C50.80804105 77.81603934 49.12800252 76.95393216 47 76 C47 75.34 47 74.68 47 74 C45.67741528 73.31225595 44.34013497 72.65288627 43 72 C41.948125 71.4225 40.89625 70.845 39.8125 70.25 C35.26431999 68.35733527 31.51468954 69.32755335 27 71 C23.91728463 72.88443462 21.19619381 75.11104393 18.4375 77.4375 C6.640492 87.26653783 6.640492 87.26653783 -0.65234375 86.84765625 C-5.88663953 85.04920591 -10.20907654 82.8238739 -14.71484375 79.60546875 C-17.09838997 77.93087474 -19.54503678 76.46435647 -22.0625 75 C-25.26734017 73.08009575 -28.43076216 71.131261 -31.5 69 C-32.1290625 68.566875 -32.758125 68.13375 -33.40625 67.6875 C-39.55007205 61.18227665 -38.10790038 48.1917422 -37.9140625 39.9296875 C-37.82541125 37.57782201 -37.72903695 35.22623513 -37.625 32.875 C-37.58117187 31.67101562 -37.53734375 30.46703125 -37.4921875 29.2265625 C-37.13632015 20.40896046 -37.13632015 20.40896046 -36 17 C-34.26977539 15.60107422 -34.26977539 15.60107422 -32.03515625 14.1796875 C-31.22062988 13.65858398 -30.40610352 13.13748047 -29.56689453 12.60058594 C-28.71981934 12.07239258 -27.87274414 11.54419922 -27 11 C-26.21093262 10.50016602 -25.42186523 10.00033203 -24.60888672 9.48535156 C-22.23568574 8.001304 -19.84085587 6.55960658 -17.4375 5.125 C-16.63892578 4.62742187 -15.84035156 4.12984375 -15.01757812 3.6171875 C-9.75990413 0.49771996 -6.13343498 -0.97229262 0 0 Z " fill="#02C94A" transform="translate(221,64)"/>
<path d="M0 0 C2.78682789 2.48063564 3.00060382 4.0066641 3.34057617 7.75878906 C3.34010365 9.26115145 3.32329907 10.76356873 3.29296875 12.265625 C3.28872391 13.05902283 3.28447906 13.85242065 3.28010559 14.66986084 C3.2633504 17.1969232 3.22570506 19.72317983 3.1875 22.25 C3.17244903 23.96613429 3.15876134 25.68228112 3.14648438 27.3984375 C3.11345735 31.59926746 3.06169765 35.79949725 3 40 C4.98 39.505 4.98 39.505 7 39 C6.505 39.99 6.505 39.99 6 41 C5.01 41.33 4.02 41.66 3 42 C2.95064176 47.23273331 2.91430051 52.46533176 2.89013672 57.69824219 C2.88006569 59.47919067 2.86640815 61.26012257 2.84912109 63.04101562 C2.82492087 65.59769783 2.81352816 68.15416185 2.8046875 70.7109375 C2.79436493 71.50994476 2.78404236 72.30895203 2.77340698 73.13217163 C2.77300774 75.0895722 2.87758931 77.04643077 3 79 C5.5654594 81.5654594 7.47686668 81.54046087 11 82 C9.55139252 84.89721496 7.32611135 85.54523603 4.375 86.578125 C-1.82979726 87.68029293 -7.47114263 84.54007158 -12.5 81.1875 C-13.23089844 80.66542969 -13.96179688 80.14335937 -14.71484375 79.60546875 C-17.09838997 77.93087474 -19.54503678 76.46435647 -22.0625 75 C-25.26734017 73.08009575 -28.43076216 71.131261 -31.5 69 C-32.1290625 68.566875 -32.758125 68.13375 -33.40625 67.6875 C-39.55007205 61.18227665 -38.10790038 48.1917422 -37.9140625 39.9296875 C-37.82541125 37.57782201 -37.72903695 35.22623513 -37.625 32.875 C-37.58117187 31.67101562 -37.53734375 30.46703125 -37.4921875 29.2265625 C-37.13632015 20.40896046 -37.13632015 20.40896046 -36 17 C-34.26977539 15.60107422 -34.26977539 15.60107422 -32.03515625 14.1796875 C-31.22062988 13.65858398 -30.40610352 13.13748047 -29.56689453 12.60058594 C-28.71981934 12.07239258 -27.87274414 11.54419922 -27 11 C-26.21093262 10.50016602 -25.42186523 10.00033203 -24.60888672 9.48535156 C-22.23568574 8.001304 -19.84085587 6.55960658 -17.4375 5.125 C-16.63892578 4.62742187 -15.84035156 4.12984375 -15.01757812 3.6171875 C-9.75990413 0.49771996 -6.13343498 -0.97229262 0 0 Z " fill="#D4D709" transform="translate(221,64)"/>
<path d="M0 0 C4.97494975 0.32928388 8.59433105 2.58804617 12.71484375 5.2265625 C13.45621582 5.68369629 14.19758789 6.14083008 14.96142578 6.61181641 C17.07824085 7.92443676 19.17868134 9.26018187 21.27734375 10.6015625 C22.26605469 11.21515625 23.25476563 11.82875 24.2734375 12.4609375 C31.06846343 16.79011658 31.06846343 16.79011658 33.27734375 20.6015625 C33.58267444 23.55413794 33.72167238 26.28996703 33.7109375 29.2421875 C33.71617935 30.08320007 33.7214212 30.92421265 33.7268219 31.79071045 C33.73323824 33.56928404 33.73191009 35.34790009 33.72338867 37.12646484 C33.7149158 39.8285836 33.74358317 42.52856076 33.77539062 45.23046875 C33.77700389 46.96354104 33.7764227 48.69661703 33.7734375 50.4296875 C33.79028847 51.62854584 33.79028847 51.62854584 33.80747986 52.85162354 C33.73856273 58.48854912 32.51749945 62.92735852 29.27734375 67.6015625 C27.11742749 69.58348768 24.85048177 71.09607772 22.33984375 72.6015625 C21.68467773 73.0145459 21.02951172 73.4275293 20.35449219 73.85302734 C19.00419865 74.70062124 17.64851743 75.53969234 16.28759766 76.37011719 C14.34410176 77.56066775 12.42413782 78.78193049 10.5078125 80.015625 C1.73283439 85.6015625 1.73283439 85.6015625 -1.72265625 85.6015625 C-2.21765625 86.5915625 -2.21765625 86.5915625 -2.72265625 87.6015625 C-4.68419416 87.17866213 -6.641855 86.73774632 -8.59765625 86.2890625 C-9.68820312 86.04542969 -10.77875 85.80179687 -11.90234375 85.55078125 C-14.72265625 84.6015625 -14.72265625 84.6015625 -16.72265625 81.6015625 C-14.70442708 81.69921875 -12.68619792 81.796875 -10.66796875 81.89453125 C-10.02601563 81.79785156 -9.3840625 81.70117188 -8.72265625 81.6015625 C-6.21823513 77.84493082 -6.37380188 74.79148125 -6.30859375 70.43359375 C-6.2892276 69.63878098 -6.26986145 68.8439682 -6.24990845 68.02507019 C-6.19016183 65.48817655 -6.14374742 62.95123741 -6.09765625 60.4140625 C-6.0594719 58.69333966 -6.0204199 56.97263585 -5.98046875 55.25195312 C-5.88446446 51.03531085 -5.80041549 46.8185791 -5.72265625 42.6015625 C-6.38265625 42.2715625 -7.04265625 41.9415625 -7.72265625 41.6015625 C-7.82175465 36.56622014 -7.89423205 31.53144908 -7.94238281 26.49536133 C-7.9624613 24.78334664 -7.98973017 23.07140022 -8.02441406 21.35961914 C-8.07310026 18.89452242 -8.09566198 16.4303346 -8.11328125 13.96484375 C-8.13392639 13.20319412 -8.15457153 12.44154449 -8.17584229 11.65681458 C-8.17738364 7.9816734 -7.83761668 5.79309012 -5.9309082 2.61645508 C-3.72265625 0.6015625 -3.72265625 0.6015625 0 0 Z " fill="#C5CD02" transform="translate(293.72265625,63.3984375)"/>
<path d="M0 0 C2.671875 1.3828125 2.671875 1.3828125 5.28515625 3.078125 C7.5241033 4.52632079 9.56849563 5.63572499 11.96484375 6.75 C16.02290294 8.76690392 19.03704523 10.60924544 22.171875 13.9453125 C23.9274074 19.47027106 23.24204517 25.34516065 22.171875 30.9453125 C20.171875 32.9453125 20.171875 32.9453125 17.640625 33.02734375 C16.6609375 32.93839844 15.68125 32.84945312 14.671875 32.7578125 C13.6921875 32.68175781 12.7125 32.60570312 11.703125 32.52734375 C9.171875 31.9453125 9.171875 31.9453125 7.171875 28.9453125 C5.12183545 27.75298637 5.12183545 27.75298637 3.171875 26.9453125 C3.171875 26.2853125 3.171875 25.6253125 3.171875 24.9453125 C1.84929028 24.25756845 0.51200997 23.59819877 -0.828125 22.9453125 C-1.88 22.3678125 -2.931875 21.7903125 -4.015625 21.1953125 C-7.67363104 19.72902316 -10.36567919 19.6734088 -14.171875 20.6640625 C-18.50275361 22.75307454 -22.06337865 25.90321387 -25.60375977 29.13330078 C-28.70730873 31.83277669 -30.88390409 33.30600074 -35.07421875 33.46875 C-38.828125 32.9453125 -38.828125 32.9453125 -40.77734375 31.8984375 C-43.5326264 26.77709428 -42.90007905 20.46999874 -41.828125 14.9453125 C-39.13766739 11.44403204 -35.70488212 9.93866357 -31.828125 7.9453125 C-30.64749841 7.15677592 -29.47731538 6.35244387 -28.31640625 5.53515625 C-19.29176816 -0.68054384 -10.95659001 -4.08602114 0 0 Z " fill="#068956" transform="translate(264.828125,113.0546875)"/>
<path d="M0 0 C2.375 0.6875 2.375 0.6875 3.375 1.6875 C3.41580783 3.68708364 3.41754356 5.68795254 3.375 7.6875 C4.15875 7.790625 4.9425 7.89375 5.75 8 C8.375 8.6875 8.375 8.6875 10.375 11.6875 C11.035 11.048125 11.695 10.40875 12.375 9.75 C16.05863774 7.21749905 18.90879642 6.3075772 23.375 6.6875 C26.71065268 7.94877366 29.72388212 9.38526425 31.375 12.6875 C31.84037396 19.08639197 31.84037396 19.08639197 29.875 21.625 C29.38 21.975625 28.885 22.32625 28.375 22.6875 C29.035 23.3475 29.695 24.0075 30.375 24.6875 C30 27.3125 30 27.3125 29.375 29.6875 C28.715 29.6875 28.055 29.6875 27.375 29.6875 C27.045 30.3475 26.715 31.0075 26.375 31.6875 C16.52098881 31.34235075 16.52098881 31.34235075 12.3125 28.9375 C8.65154794 24.6860718 8.1175868 21.22188385 8.375 15.6875 C6.725 16.0175 5.075 16.3475 3.375 16.6875 C3.56328772 19.13230079 3.56328772 19.13230079 4.375 21.6875 C6.34258273 23.04770151 6.34258273 23.04770151 8.375 23.6875 C8.5 26.0625 8.5 26.0625 8.375 28.6875 C6.375 30.6875 6.375 30.6875 3.5625 31.0625 C-0.32541449 30.6050983 -1.85065497 29.38257803 -4.625 26.6875 C-6.23225635 23.47298731 -5.68248185 20.25137464 -5.625 16.6875 C-6.615 16.3575 -7.605 16.0275 -8.625 15.6875 C-8.71587891 17.06035156 -8.71587891 17.06035156 -8.80859375 18.4609375 C-8.89238281 19.64945313 -8.97617187 20.83796875 -9.0625 22.0625 C-9.14371094 23.24585938 -9.22492188 24.42921875 -9.30859375 25.6484375 C-9.625 28.6875 -9.625 28.6875 -10.625 30.6875 C-13.35656959 30.85012928 -16.07842122 30.96860686 -18.8125 31.0625 C-19.58142578 31.11277344 -20.35035156 31.16304687 -21.14257812 31.21484375 C-26.67236591 31.35724172 -26.67236591 31.35724172 -29.27832031 29.52514648 C-31.48564795 27.10642055 -32.5666633 25.00922255 -33.1484375 21.80078125 C-33.07496094 20.41439453 -33.07496094 20.41439453 -33 19 C-32.96648437 18.06800781 -32.93296875 17.13601562 -32.8984375 16.17578125 C-32.625 13.6875 -32.625 13.6875 -31.625 10.6875 C-27.52465526 7.40108137 -24.14580091 7.33600491 -19 7.4375 C-17.68773437 7.45296875 -16.37546875 7.4684375 -15.0234375 7.484375 C-11.625 7.6875 -11.625 7.6875 -8.625 8.6875 C-7.635 8.3575 -6.645 8.0275 -5.625 7.6875 C-5.686875 6.73875 -5.74875 5.79 -5.8125 4.8125 C-5.7196875 3.265625 -5.7196875 3.265625 -5.625 1.6875 C-2.625 -0.3125 -2.625 -0.3125 0 0 Z M19.375 14.6875 C18.385 16.1725 18.385 16.1725 17.375 17.6875 C19.025 17.6875 20.675 17.6875 22.375 17.6875 C22.375 16.6975 22.375 15.7075 22.375 14.6875 C21.385 14.6875 20.395 14.6875 19.375 14.6875 Z M-24.625 16.6875 C-24.295 18.3375 -23.965 19.9875 -23.625 21.6875 C-22.305 21.6875 -20.985 21.6875 -19.625 21.6875 C-19.295 20.0375 -18.965 18.3875 -18.625 16.6875 C-21.67413228 15.67638907 -21.67413228 15.67638907 -24.625 16.6875 Z M18.375 21.6875 C18.705 22.3475 19.035 23.0075 19.375 23.6875 C22.84 23.1925 22.84 23.1925 26.375 22.6875 C26.375 22.3575 26.375 22.0275 26.375 21.6875 C23.735 21.6875 21.095 21.6875 18.375 21.6875 Z " fill="#3C3878" transform="translate(316.625,175.3125)"/>
<path d="M0 0 C0.029729 1.66554932 0.029729 1.66554932 0.06005859 3.36474609 C0.13601081 7.47614602 0.2247436 11.58718718 0.31738281 15.69824219 C0.35571565 17.47909473 0.39056089 19.26002584 0.421875 21.04101562 C0.46743271 23.59794234 0.52544107 26.1543261 0.5859375 28.7109375 C0.59748871 29.50994476 0.60903992 30.30895203 0.62094116 31.13217163 C0.57258944 35.53457212 0.57258944 35.53457212 3 39 C4.98821313 39.39764263 6.98944339 39.73775349 9 40 C7.55139252 42.89721496 5.32611135 43.54523603 2.375 44.578125 C-3.82979726 45.68029293 -9.47114263 42.54007158 -14.5 39.1875 C-15.59634766 38.40439453 -15.59634766 38.40439453 -16.71484375 37.60546875 C-19.09838997 35.93087474 -21.54503678 34.46435647 -24.0625 33 C-27.28308595 31.07568734 -30.43602573 29.10389049 -33.5 26.9375 C-34.1290625 26.49277344 -34.758125 26.04804688 -35.40625 25.58984375 C-37.51617408 23.48509105 -38.21244138 21.88230218 -39 19 C-38.9765625 15.44921875 -38.9765625 15.44921875 -38.625 11.6875 C-38.51414063 10.43324219 -38.40328125 9.17898437 -38.2890625 7.88671875 C-38.14597656 6.45779297 -38.14597656 6.45779297 -38 5 C-37.67 5 -37.34 5 -37 5 C-37 7.64 -37 10.28 -37 13 C-24.42805154 14.99907308 -16.28693316 9.46128022 -6 3 C-1.11777302 0 -1.11777302 0 0 0 Z " fill="#7DB904" transform="translate(223,106)"/>
<path d="M0 0 C4.10745151 1.2478761 7.56906269 2.757572 11.22265625 5.00390625 C12.17333984 5.57947266 13.12402344 6.15503906 14.10351562 6.74804688 C16.08075175 7.96049068 18.05731175 9.17403779 20.03320312 10.38867188 C20.98259766 10.96294922 21.93199219 11.53722656 22.91015625 12.12890625 C23.76746338 12.65556885 24.62477051 13.18223145 25.50805664 13.72485352 C28.07080863 15.03623332 30.1457438 15.67860039 33 16 C35.26857146 15.15922128 35.26857146 15.15922128 37 14 C37.3125 17.1875 37.3125 17.1875 37 21 C33.47504846 25.13682992 29.32871683 28.00896183 24.8125 30.9375 C24.15411133 31.3691748 23.49572266 31.80084961 22.81738281 32.24560547 C7.86283407 42 7.86283407 42 4 42 C3.67 42.66 3.34 43.32 3 44 C1.03846209 43.57709963 -0.91919875 43.13618382 -2.875 42.6875 C-3.96554687 42.44386719 -5.05609375 42.20023438 -6.1796875 41.94921875 C-9 41 -9 41 -11 38 C-8.98177083 38.09765625 -6.96354167 38.1953125 -4.9453125 38.29296875 C-4.30335938 38.19628906 -3.66140625 38.09960938 -3 38 C-0.52886419 34.29329628 -0.65211411 31.34807819 -0.5859375 27.05078125 C-0.56657135 26.27816452 -0.5472052 25.50554779 -0.5272522 24.70951843 C-0.46751521 22.2439576 -0.42109514 19.77834993 -0.375 17.3125 C-0.33681475 15.6399537 -0.29776269 13.96742695 -0.2578125 12.29492188 C-0.16181867 8.19677353 -0.07776623 4.09853312 0 0 Z " fill="#83B903" transform="translate(288,107)"/>
<path d="M0 0 C4.97494975 0.32928388 8.59433105 2.58804617 12.71484375 5.2265625 C13.45621582 5.68369629 14.19758789 6.14083008 14.96142578 6.61181641 C17.07824085 7.92443676 19.17868134 9.26018187 21.27734375 10.6015625 C22.26605469 11.21515625 23.25476563 11.82875 24.2734375 12.4609375 C31.11447077 16.81942832 31.11447077 16.81942832 33.27734375 20.6015625 C33.69463339 23.57773216 33.62611596 26.52337092 33.5703125 29.5234375 C33.56606766 30.38342346 33.56182281 31.24340942 33.55744934 32.12945557 C33.54068491 34.8704792 33.5030372 37.61076189 33.46484375 40.3515625 C33.449794 42.21222895 33.4361061 44.07290695 33.42382812 45.93359375 C33.39078874 50.4898679 33.33902208 55.04558966 33.27734375 59.6015625 C32.94734375 59.6015625 32.61734375 59.6015625 32.27734375 59.6015625 C31.94734375 47.3915625 31.61734375 35.1815625 31.27734375 22.6015625 C29.62734375 23.5915625 27.97734375 24.5815625 26.27734375 25.6015625 C23.55859375 26.515625 23.55859375 26.515625 20.77734375 27.2265625 C19.85953125 27.46632813 18.94171875 27.70609375 17.99609375 27.953125 C14.35744914 28.82096265 11.02819785 29.6015625 7.27734375 29.6015625 C6.94734375 30.2615625 6.61734375 30.9215625 6.27734375 31.6015625 C4.95734375 31.2715625 3.63734375 30.9415625 2.27734375 30.6015625 C1.94734375 31.2615625 1.61734375 31.9215625 1.27734375 32.6015625 C-1.03265625 32.6015625 -3.34265625 32.6015625 -5.72265625 32.6015625 C-5.72265625 35.9015625 -5.72265625 39.2015625 -5.72265625 42.6015625 C-6.38265625 42.2715625 -7.04265625 41.9415625 -7.72265625 41.6015625 C-7.82175465 36.56622014 -7.89423205 31.53144908 -7.94238281 26.49536133 C-7.9624613 24.78334664 -7.98973017 23.07140022 -8.02441406 21.35961914 C-8.07310026 18.89452242 -8.09566198 16.4303346 -8.11328125 13.96484375 C-8.13392639 13.20319412 -8.15457153 12.44154449 -8.17584229 11.65681458 C-8.17738364 7.9816734 -7.83761668 5.79309012 -5.9309082 2.61645508 C-3.72265625 0.6015625 -3.72265625 0.6015625 0 0 Z " fill="#E8DC14" transform="translate(293.72265625,63.3984375)"/>
<path d="M0 0 C1.32 3.96 2.64 7.92 4 12 C6.14010575 8.78984138 7.4913319 5.54209032 9 2 C10 1 10 1 12.375 0.625 C15 1 15 1 16.6875 3.1875 C17.89011479 5.76453169 19.0098658 8.33425408 20 11 C22.1518423 8.03039656 22.1518423 8.03039656 23.3125 4.375 C25 1 25 1 27.5 -0.0625 C30 0 30 0 33 2 C32.35856108 8.44149223 30.45254731 14.30457383 28.4375 20.4375 C28.10814453 21.45521484 27.77878906 22.47292969 27.43945312 23.52148438 C26.63136468 26.01601826 25.81809872 28.50873483 25 31 C22.69 31.33 20.38 31.66 18 32 C15.43015167 28.14522751 14.14185734 24.47959418 13 20 C12.65066406 20.78246094 12.30132812 21.56492188 11.94140625 22.37109375 C11.48636719 23.38300781 11.03132813 24.39492187 10.5625 25.4375 C10.11003906 26.44683594 9.65757812 27.45617187 9.19140625 28.49609375 C8 31 8 31 7 32 C4.625 32.375 4.625 32.375 2 32 C-0.87272532 28.5748275 -1.97736703 24.35394761 -3.3046875 20.1484375 C-4.01595299 17.85460975 -4.01595299 17.85460975 -5.1875 15.125 C-6 13 -6 13 -6 10 C-6.66 9.67 -7.32 9.34 -8 9 C-8 6.69 -8 4.38 -8 2 C-4.91190305 0.23537317 -3.76687864 0 0 0 Z " fill="#3A3677" transform="translate(170,174)"/>
<path d="M0 0 C3.84478875 1.45836815 5.1822915 3.36458299 7 7 C7.6875 9.3125 7.6875 9.3125 8 11 C8.66 11 9.32 11 10 11 C10.0928125 9.948125 10.0928125 9.948125 10.1875 8.875 C11.29201202 4.9667267 13.28230992 2.99642752 16 0 C18.4375 0.6875 18.4375 0.6875 21 2 C22.17161961 5.15182178 22.17011801 6.58309107 20.890625 9.71875 C20.07851563 11.09546875 20.07851563 11.09546875 19.25 12.5 C18.71890625 13.4178125 18.1878125 14.335625 17.640625 15.28125 C16.82851563 16.62703125 16.82851563 16.62703125 16 18 C15.50371094 18.92167969 15.00742187 19.84335938 14.49609375 20.79296875 C13 23 13 23 9.8125 23.8125 C8.884375 23.874375 7.95625 23.93625 7 24 C3.5148552 19.42284316 0.13572684 14.82419514 -3 10 C-3.09087891 11.39025391 -3.09087891 11.39025391 -3.18359375 12.80859375 C-3.26738281 14.00613281 -3.35117188 15.20367187 -3.4375 16.4375 C-3.51871094 17.63246094 -3.59992188 18.82742187 -3.68359375 20.05859375 C-4 23 -4 23 -5 24 C-20.32967506 25.41147358 -20.32967506 25.41147358 -25.5625 21.6875 C-27.60611982 19.46871276 -27.97746102 18.28767936 -28.21484375 15.2578125 C-27.92580982 11.29542011 -27.25603369 7.76810108 -26 4 C-21.89965526 0.71358137 -18.52080091 0.64850491 -13.375 0.75 C-12.06273437 0.76546875 -10.75046875 0.7809375 -9.3984375 0.796875 C-6 1 -6 1 -3 2 C-2.01 1.34 -1.02 0.68 0 0 Z M-17 9 C-17.66 9.66 -18.32 10.32 -19 11 C-18.6814823 13.10820797 -18.6814823 13.10820797 -18 15 C-16.35 14.67 -14.7 14.34 -13 14 C-13 12.68 -13 11.36 -13 10 C-14.89179203 9.3185177 -14.89179203 9.3185177 -17 9 Z " fill="#373375" transform="translate(251,182)"/>
<path d="M0 0 C0.88123535 -0.01289062 1.7624707 -0.02578125 2.67041016 -0.0390625 C3.50878418 -0.04035156 4.3471582 -0.04164062 5.2109375 -0.04296875 C6.34088135 -0.04913208 6.34088135 -0.04913208 7.49365234 -0.05541992 C9.90444408 0.21934958 11.5313574 0.99066693 13.625 2.1875 C13.295 3.8375 12.965 5.4875 12.625 7.1875 C14.2028125 6.94 14.2028125 6.94 15.8125 6.6875 C18.83587033 6.29099242 21.59529331 6.1875 24.625 6.1875 C25.285 5.8575 25.945 5.5275 26.625 5.1875 C26.625 6.5075 26.625 7.8275 26.625 9.1875 C27.285 9.1875 27.945 9.1875 28.625 9.1875 C28.955 8.5275 29.285 7.8675 29.625 7.1875 C29.67895478 8.81213842 29.71777195 10.43728541 29.75 12.0625 C29.77320313 12.96742188 29.79640625 13.87234375 29.8203125 14.8046875 C29.625 17.1875 29.625 17.1875 27.625 19.1875 C25.09375 19.26953125 25.09375 19.26953125 22.125 19 C21.1453125 18.92394531 20.165625 18.84789062 19.15625 18.76953125 C16.625 18.1875 16.625 18.1875 14.625 15.1875 C12.57496045 13.99517387 12.57496045 13.99517387 10.625 13.1875 C10.625 12.5275 10.625 11.8675 10.625 11.1875 C9.30241528 10.49975595 7.96513497 9.84038627 6.625 9.1875 C5.573125 8.61 4.52125 8.0325 3.4375 7.4375 C-0.22050604 5.97121066 -2.91255419 5.9155963 -6.71875 6.90625 C-11.04962861 8.99526204 -14.61025365 12.14540137 -18.15063477 15.37548828 C-21.25418373 18.07496419 -23.43077909 19.54818824 -27.62109375 19.7109375 C-31.375 19.1875 -31.375 19.1875 -33.36328125 18.16796875 C-34.9561071 15.04996602 -34.68666801 11.90984453 -34.5625 8.5 C-34.54896484 7.79810547 -34.53542969 7.09621094 -34.52148438 6.37304688 C-34.48620182 4.64420171 -34.43239583 2.91575235 -34.375 1.1875 C-33.48039063 1.19910156 -32.58578125 1.21070313 -31.6640625 1.22265625 C-23.68925116 1.31333748 -23.68925116 1.31333748 -15.75 0.6875 C-10.50643983 0.08044354 -5.27259192 0.03752067 0 0 Z " fill="#0E7065" transform="translate(257.375,126.8125)"/>
<path d="M0 0 C-1.32 0.33 -2.64 0.66 -4 1 C-4 0.34 -4 -0.32 -4 -1 C-4.94456055 -0.83846436 -5.88912109 -0.67692871 -6.86230469 -0.51049805 C-11.63838469 0.16785611 -16.38655701 0.16212302 -21.203125 0.16796875 C-22.16273132 0.17129715 -23.12233765 0.17462555 -24.11102295 0.17805481 C-26.12804691 0.1830948 -28.14507913 0.18546405 -30.16210938 0.18530273 C-33.25404349 0.18750288 -36.34562825 0.20572659 -39.4375 0.22460938 C-41.40104045 0.22754114 -43.36458259 0.22952739 -45.328125 0.23046875 C-46.71562958 0.24124702 -46.71562958 0.24124702 -48.13116455 0.25224304 C-48.9892572 0.24916641 -49.84734985 0.24608978 -50.73144531 0.24291992 C-51.48532532 0.24434494 -52.23920532 0.24576996 -53.01593018 0.24723816 C-55 0 -55 0 -58 -2 C-55.50656957 -3.47063979 -53.00618881 -4.92638732 -50.5 -6.375 C-49.80390625 -6.7875 -49.1078125 -7.2 -48.390625 -7.625 C-30.09323276 -18.12905851 -16.17573192 -10.00193168 0 0 Z " fill="#55D630" transform="translate(286,104)"/>
<path d="M0 0 C2.49806327 3.04451461 2.48236994 4.72905485 2.2421875 8.55078125 C1.98282988 10.57126077 1.54140919 12.47489169 1 14.4375 C1.020625 15.30375 1.04125 16.17 1.0625 17.0625 C1 19.4375 1 19.4375 -1 21.4375 C-4.1875 21.66796875 -4.1875 21.66796875 -8 21.625 C-9.258125 21.61855469 -10.51625 21.61210937 -11.8125 21.60546875 C-15 21.4375 -15 21.4375 -17 20.4375 C-17 19.7775 -17 19.1175 -17 18.4375 C-17.66 18.4375 -18.32 18.4375 -19 18.4375 C-21.01352876 14.28459692 -21.47545228 11.0335387 -21 6.4375 C-19.62125969 2.55979287 -17.94964963 -0.04450929 -14.25 -2.0625 C-8.88477691 -2.88791894 -4.84223052 -2.52199506 0 0 Z M-10 5.4375 C-10.99 6.9225 -10.99 6.9225 -12 8.4375 C-10.35 8.4375 -8.7 8.4375 -7 8.4375 C-7 7.4475 -7 6.4575 -7 5.4375 C-7.99 5.4375 -8.98 5.4375 -10 5.4375 Z M-11 12.4375 C-10.34 13.0975 -9.68 13.7575 -9 14.4375 C-5.90073181 14.11551034 -5.90073181 14.11551034 -3 13.4375 C-3 13.1075 -3 12.7775 -3 12.4375 C-5.64 12.4375 -8.28 12.4375 -11 12.4375 Z " fill="#383476" transform="translate(221,184.5625)"/>
<path d="M0 0 C2.371875 0.061875 4.74375 0.12375 7.1875 0.1875 C7.1875 7.4475 7.1875 14.7075 7.1875 22.1875 C4.5475 21.8575 1.9075 21.5275 -0.8125 21.1875 C-0.8125 21.8475 -0.8125 22.5075 -0.8125 23.1875 C-7.88008397 23.90623735 -7.88008397 23.90623735 -11.8125 20.875 C-14.92371124 16.51095201 -14.3743464 11.30030226 -13.8125 6.1875 C-12.8125 3.1875 -12.8125 3.1875 -10.73828125 1.51171875 C-7.08789341 -0.14045946 -3.91381101 -0.1449243 0 0 Z M-5.8125 9.1875 C-5.4825 10.8375 -5.1525 12.4875 -4.8125 14.1875 C-3.4925 14.1875 -2.1725 14.1875 -0.8125 14.1875 C-0.4825 12.5375 -0.1525 10.8875 0.1875 9.1875 C-2.86163228 8.17638907 -2.86163228 8.17638907 -5.8125 9.1875 Z " fill="#363175" transform="translate(297.8125,182.8125)"/>
<path d="M0 0 C3.48570896 2.67237687 5.08675988 6.18100335 5.875 10.4375 C6.535 10.4375 7.195 10.4375 7.875 10.4375 C7.9678125 9.385625 7.9678125 9.385625 8.0625 8.3125 C9.16701202 4.4042267 11.15730992 2.43392752 13.875 -0.5625 C16.3125 0.125 16.3125 0.125 18.875 1.4375 C20.04661961 4.58932178 20.04511801 6.02059107 18.765625 9.15625 C17.95351563 10.53296875 17.95351563 10.53296875 17.125 11.9375 C16.59390625 12.8553125 16.0628125 13.773125 15.515625 14.71875 C14.97421875 15.6159375 14.4328125 16.513125 13.875 17.4375 C13.13056641 18.82001953 13.13056641 18.82001953 12.37109375 20.23046875 C10.875 22.4375 10.875 22.4375 7.6875 23.25 C6.759375 23.311875 5.83125 23.37375 4.875 23.4375 C1.3898552 18.86034316 -1.98927316 14.26169514 -5.125 9.4375 C-5.18558594 10.36433594 -5.24617187 11.29117188 -5.30859375 12.24609375 C-5.39238281 13.44363281 -5.47617188 14.64117187 -5.5625 15.875 C-5.64371094 17.06996094 -5.72492188 18.26492187 -5.80859375 19.49609375 C-6.125 22.4375 -6.125 22.4375 -7.125 23.4375 C-10.5625 23.625 -10.5625 23.625 -14.125 23.4375 C-14.785 22.7775 -15.445 22.1175 -16.125 21.4375 C-13.485 21.4375 -10.845 21.4375 -8.125 21.4375 C-7.795 14.8375 -7.465 8.2375 -7.125 1.4375 C-2.125 -0.5625 -2.125 -0.5625 0 0 Z " fill="#514E86" transform="translate(253.125,182.5625)"/>
<path d="M0 0 C2.5 1.5625 2.5 1.5625 4 4 C4.74195584 10.04164038 4.74195584 10.04164038 2.5 12.9375 C2.005 13.288125 1.51 13.63875 1 14 C1.66 14.66 2.32 15.32 3 16 C2.625 18.625 2.625 18.625 2 21 C1.34 21 0.68 21 0 21 C-0.33 21.66 -0.66 22.32 -1 23 C-5.97934517 22.82559211 -10.54884049 22.59753627 -15.1875 20.6875 C-17.79586396 16.81992586 -17.93366119 13.53631912 -17.7421875 8.9296875 C-16.85423774 5.42462265 -15.90395337 4.35009085 -13 2.25 C-8.39080548 -0.20339803 -5.14446761 -0.87194366 0 0 Z M-8 6 C-8.99 7.485 -8.99 7.485 -10 9 C-8.35 9 -6.7 9 -5 9 C-5 8.01 -5 7.02 -5 6 C-5.99 6 -6.98 6 -8 6 Z M-9 13 C-8.67 13.66 -8.34 14.32 -8 15 C-4.535 14.505 -4.535 14.505 -1 14 C-1 13.67 -1 13.34 -1 13 C-3.64 13 -6.28 13 -9 13 Z " fill="#2F2B70" transform="translate(344,184)"/>
<path d="M0 0 C6.23334785 -0.20717775 11.66478824 0.73259802 17.6640625 2.40625 C22.51948441 3.74879503 27.40338171 4.47563266 32.390625 5.16015625 C33.050625 4.17015625 33.710625 3.18015625 34.390625 2.16015625 C34.390625 7.11015625 34.390625 12.06015625 34.390625 17.16015625 C30.9986356 15.80336049 28.51071654 14.74602546 25.54296875 12.84765625 C24.85525391 12.41195312 24.16753906 11.97625 23.45898438 11.52734375 C22.75580078 11.07617188 22.05261719 10.625 21.328125 10.16015625 C19.92162904 9.26266567 18.5141083 8.36677863 17.10546875 7.47265625 C16.48792725 7.07691406 15.87038574 6.68117188 15.23413086 6.2734375 C9.49569151 2.80803114 4.28116613 1.78678485 -2.47802734 2.62451172 C-9.14426492 4.29985252 -14.98043763 8.9584924 -20.56982422 12.79882812 C-23.49727451 14.75279782 -26.53061932 16.45649698 -29.609375 18.16015625 C-29.609375 13.54015625 -29.609375 8.92015625 -29.609375 4.16015625 C-25.63823755 3.16737189 -24.40737531 3.32644887 -20.609375 4.16015625 C-16.91757375 4.56120804 -16.91757375 4.56120804 -13.859375 2.72265625 C-9.74789118 -0.13254085 -4.86661162 0.29869922 0 0 Z " fill="#02CA54" transform="translate(252.609375,109.83984375)"/>
<path d="M0 0 C0.125 6.75 0.125 6.75 -1 9 C-1.66 9 -2.32 9 -3 9 C-3.495 7.515 -3.495 7.515 -4 6 C-4.66 6.33 -5.32 6.66 -6 7 C-8.0092226 7 -10.01901908 6.99756205 -12.02734375 6.9375 C-14.2147211 6.91266984 -14.2147211 6.91266984 -17 8 C-17.38218767 6.34385343 -17.71395102 4.67542976 -18 3 C-17.67 2.67 -17.34 2.34 -17 2 C-19.71062356 1.09645881 -21.28639021 0.87158548 -24.0703125 0.8671875 C-25.27953369 0.86440796 -25.27953369 0.86440796 -26.51318359 0.86157227 C-27.37508301 0.86600342 -28.23698242 0.87043457 -29.125 0.875 C-30.0113916 0.8762085 -30.8977832 0.87741699 -31.81103516 0.87866211 C-38.37452466 0.91673339 -44.90021085 1.19567934 -51.44189453 1.73193359 C-55.47306546 2.03474928 -59.04278676 1.82697181 -63 1 C-61.17585179 -1.46796522 -60.09871293 -1.98028353 -57.046875 -2.58984375 C-52.14772007 -3.19645408 -47.24167311 -3.14560978 -42.3125 -3.125 C-41.37599609 -3.12886719 -40.43949219 -3.13273437 -39.47460938 -3.13671875 C-38.12012695 -3.13478516 -38.12012695 -3.13478516 -36.73828125 -3.1328125 C-35.92399658 -3.13168457 -35.10971191 -3.13055664 -34.27075195 -3.12939453 C-32 -3 -32 -3 -29.90698242 -2.46826172 C-26.85072173 -1.7177934 -24.07867279 -2.48688787 -21 -3 C-12.40759693 -4.24648014 -7.39147665 -4.73054506 0 0 Z " fill="#077558" transform="translate(287,127)"/>
<path d="M0 0 C3.24915329 1.20235449 5.89204162 2.53109315 8.6875 4.5625 C13.25988876 7.53498983 17.64030293 7.87918716 23 8 C21.56770819 12.29687544 18.35400238 13.51455902 14.625 15.6875 C13.59632813 16.31108398 13.59632813 16.31108398 12.546875 16.94726562 C7.39381927 20 7.39381927 20 4 20 C3.67 20.66 3.34 21.32 3 22 C1.03846209 21.57709963 -0.91919875 21.13618382 -2.875 20.6875 C-3.96554687 20.44386719 -5.05609375 20.20023438 -6.1796875 19.94921875 C-9 19 -9 19 -11 16 C-8.98177083 16.09765625 -6.96354167 16.1953125 -4.9453125 16.29296875 C-4.30335938 16.19628906 -3.66140625 16.09960938 -3 16 C-0.65229357 12.47844036 -0.62330386 10.49228157 -0.375 6.3125 C-0.30023438 5.13300781 -0.22546875 3.95351562 -0.1484375 2.73828125 C-0.09945313 1.83464844 -0.05046875 0.93101562 0 0 Z " fill="#6AB00C" transform="translate(288,129)"/>
<path d="M0 0 C0.04898438 1.05960938 0.09796875 2.11921875 0.1484375 3.2109375 C0.22346709 4.59898497 0.29901485 5.98700451 0.375 7.375 C0.4059375 8.07367188 0.436875 8.77234375 0.46875 9.4921875 C0.59499498 13.70185827 0.59499498 13.70185827 3 17 C4.98821313 17.39764263 6.98944339 17.73775349 9 18 C7.55139252 20.89721496 5.32611135 21.54523603 2.375 22.578125 C-3.94581924 23.7009021 -9.70841491 20.38811799 -14.875 17.0625 C-17.86234186 14.94228038 -20.56251916 12.75541312 -23 10 C-22.01 10.33 -21.02 10.66 -20 11 C-19.67 10.34 -19.34 9.68 -19 9 C-17.25 8.359375 -17.25 8.359375 -15 7.75 C-10.31880058 6.30212903 -6.71967824 4.03956207 -2.75 1.20703125 C-1 0 -1 0 0 0 Z " fill="#66AE05" transform="translate(223,128)"/>
<path d="M0 0 C0.33 0.66 0.66 1.32 1 2 C2.41357788 1.75552124 2.41357788 1.75552124 3.85571289 1.50610352 C8.67111701 0.82198112 13.45349097 0.87529193 18.30859375 0.90234375 C19.27531509 0.9037587 20.24203644 0.90517365 21.23805237 0.90663147 C24.30456732 0.91219779 27.37100738 0.92474401 30.4375 0.9375 C32.52538957 0.94251935 34.61328028 0.9470815 36.70117188 0.95117188 C41.8008098 0.96215618 46.90039223 0.97939745 52 1 C52 1.66 52 2.32 52 3 C53.98 3.33 55.96 3.66 58 4 C58 15.88 58 27.76 58 40 C57.67 40 57.34 40 57 40 C57 28.45 57 16.9 57 5 C51.55491799 4.79236199 51.55491799 4.79236199 48.515625 5.52734375 C45.45579669 6.10224938 42.84810331 5.85982982 39.75 5.5625 C31.48977745 4.88070385 23.28281062 4.91726382 15 5 C14.01 5 13.02 5 12 5 C11.01 5.33 10.02 5.66 9 6 C8.34 5.67 7.68 5.34 7 5 C5.32883114 5.11291681 3.66144364 5.28748977 2 5.5 C-2.77777778 6.11111111 -2.77777778 6.11111111 -5 5 C-5.66 5.66 -6.32 6.32 -7 7 C-6.875 5.1875 -6.875 5.1875 -6 3 C-2.9375 1.25 -2.9375 1.25 0 0 Z " fill="#20C63D" transform="translate(230,102)"/>
<path d="M0 0 C3.0625 0.125 3.0625 0.125 5.0625 1.125 C5.0625 7.725 5.0625 14.325 5.0625 21.125 C2.7525 22.115 0.4425 23.105 -1.9375 24.125 C-3.95727128 22.2666022 -4.8840366 20.78422835 -5.10742188 18.02978516 C-5.04374818 15.48848567 -4.88692701 12.97172818 -4.6875 10.4375 C-4.63464844 9.55771484 -4.58179688 8.67792969 -4.52734375 7.77148438 C-4.02339329 0.17120823 -4.02339329 0.17120823 0 0 Z " fill="#4D4984" transform="translate(277.9375,182.875)"/>
<path d="M0 0 C1.48343205 0.09290181 2.96288852 0.25116064 4.4375 0.4375 C9.64648369 1.02379254 14.7637968 1.10026772 20 1 C16.46497273 4.97110675 12.30280018 7.50393198 7.8125 10.25 C7.07580078 10.70890625 6.33910156 11.1678125 5.58007812 11.640625 C0.1460891 15 0.1460891 15 -1 15 C-1.02685412 12.68756208 -1.04632841 10.3750373 -1.0625 8.0625 C-1.07410156 6.77472656 -1.08570313 5.48695312 -1.09765625 4.16015625 C-1 1 -1 1 0 0 Z " fill="#04BA5E" transform="translate(224,113)"/>
<path d="M0 0 C-2.70553429 1.35276714 -4.04639151 0.5907217 -7 0 C-9.33301986 -0.03824623 -11.66711508 -0.04574284 -14 0 C-12.74458443 -2.51083114 -11.49936512 -2.87125446 -9 -4 C-23.88346406 -5.05128315 -23.88346406 -5.05128315 -38 -2 C-38.99 -2.66 -39.98 -3.32 -41 -4 C-25.4734834 -11.27276921 -14.22451004 -9.35185873 0 0 Z " fill="#A2DE4C" transform="translate(279,100)"/>
<path d="M0 0 C0.33 0 0.66 0 1 0 C1.05395478 1.62463842 1.09277195 3.24978541 1.125 4.875 C1.14820313 5.77992188 1.17140625 6.68484375 1.1953125 7.6171875 C1 10 1 10 -1 12 C-3.6015625 11.9765625 -3.6015625 11.9765625 -6.625 11.625 C-7.62789063 11.51414063 -8.63078125 11.40328125 -9.6640625 11.2890625 C-10.82035156 11.14597656 -10.82035156 11.14597656 -12 11 C-12.99 8.69 -13.98 6.38 -15 4 C-12.09064546 2.37262132 -9.68626361 1.65027104 -6.375 1.3125 C-5.59898437 1.22613281 -4.82296875 1.13976562 -4.0234375 1.05078125 C-2 1 -2 1 0 2 C0 1.34 0 0.68 0 0 Z " fill="#0A5065" transform="translate(286,134)"/>
<path d="M0 0 C3.4296875 1.53125 3.4296875 1.53125 6 3 C5.67 3.66 5.34 4.32 5 5 C1.98102281 5.44542286 -0.96220691 5.76267241 -4 6 C-6.1042423 6.16570908 -8.2084079 6.33239462 -10.3125 6.5 C-11.79169922 6.60828125 -11.79169922 6.60828125 -13.30078125 6.71875 C-15.63472991 6.96194002 -17.74853956 7.35825356 -20 8 C-20.66 7.01 -21.32 6.02 -22 5 C-15.4228344 -0.71927444 -8.45764581 -1.17739849 0 0 Z " fill="#03A14A" transform="translate(262,112)"/>
<path d="M0 0 C1.06347656 -0.00257813 2.12695312 -0.00515625 3.22265625 -0.0078125 C5.9375 0.125 5.9375 0.125 7.9375 1.125 C6.43033703 4.96141483 4.45336512 6.98490819 0.9375 9.125 C-1.91907782 9.57459574 -4.12984205 9.41345816 -7.0625 9.125 C-9.0625 7.125 -9.0625 7.125 -9.1875 4 C-9.14625 3.05125 -9.105 2.1025 -9.0625 1.125 C-5.82377868 0.04542623 -3.40221795 -0.00826784 0 0 Z " fill="#1B617C" transform="translate(233.0625,136.875)"/>
<path d="M0 0 C1.14339844 0.00064453 2.28679687 0.00128906 3.46484375 0.00195312 C5.24181641 0.02612305 5.24181641 0.02612305 7.0546875 0.05078125 C8.24707031 0.04755859 9.43945312 0.04433594 10.66796875 0.04101562 C19.52889088 0.0960835 19.52889088 0.0960835 22.9296875 2.36328125 C16.725883 4.49830001 10.77075955 4.85758228 4.2421875 5.11328125 C2.6943457 5.19642578 2.6943457 5.19642578 1.11523438 5.28125 C0.12201172 5.32378906 -0.87121094 5.36632812 -1.89453125 5.41015625 C-2.79260498 5.44979492 -3.69067871 5.48943359 -4.6159668 5.53027344 C-7.25061751 5.35101341 -8.81878356 4.70232948 -11.0703125 3.36328125 C-7.23392562 0.69070734 -4.65516853 -0.01329227 0 0 Z " fill="#07825F" transform="translate(235.0703125,123.63671875)"/>
<path d="M0 0 C0.66 0.66 1.32 1.32 2 2 C0 4 0 4 -2.9375 4.125 C-3.948125 4.08375 -4.95875 4.0425 -6 4 C-6.99 4 -7.98 4 -9 4 C-16 4 -23 4 -30 4 C-30.33 4.66 -30.66 5.32 -31 6 C-31 5.34 -31 4.68 -31 4 C-31.99 4.33 -32.98 4.66 -34 5 C-33.67 3.68 -33.34 2.36 -33 1 C-32.278125 1.185625 -31.55625 1.37125 -30.8125 1.5625 C-27.78025237 2.03418297 -25.98930999 1.60462706 -23 1 C-19.46043056 0.70503588 -15.92029999 0.49519052 -12.375 0.28125 C-1.62111801 -0.61490683 -1.62111801 -0.61490683 0 0 Z " fill="#059551" transform="translate(271,117)"/>
<path d="M0 0 C1.09054687 0.02320313 2.18109375 0.04640625 3.3046875 0.0703125 C4.40039062 0.08835938 5.49609375 0.10640625 6.625 0.125 C7.46804688 0.14820313 8.31109375 0.17140625 9.1796875 0.1953125 C9.5096875 1.1853125 9.8396875 2.1753125 10.1796875 3.1953125 C5.5546875 6.1953125 5.5546875 6.1953125 2.1796875 6.1953125 C1.8496875 6.8553125 1.5196875 7.5153125 1.1796875 8.1953125 C-0.78185041 7.77241213 -2.73951125 7.33149632 -4.6953125 6.8828125 C-5.78585937 6.63917969 -6.87640625 6.39554688 -8 6.14453125 C-10.8203125 5.1953125 -10.8203125 5.1953125 -12.8203125 2.1953125 C-11.5415625 2.2365625 -10.2628125 2.2778125 -8.9453125 2.3203125 C-6.80159758 2.43744123 -6.80159758 2.43744123 -4.8203125 2.1953125 C-2.8203125 0.1953125 -2.8203125 0.1953125 0 0 Z " fill="#81BC2A" transform="translate(289.8203125,142.8046875)"/>
<path d="M0 0 C0.66 0.33 1.32 0.66 2 1 C3.87379605 1.07033769 5.75001102 1.0843022 7.625 1.0625 C8.62789062 1.05347656 9.63078125 1.04445312 10.6640625 1.03515625 C11.82035156 1.01775391 11.82035156 1.01775391 13 1 C10 3 10 3 6.625 4.4375 C3.54775036 5.7639007 0.81937288 7.20585362 -2 9 C-1.67 7.68 -1.34 6.36 -1 5 C-6.94 5 -12.88 5 -19 5 C-19 4.01 -19 3.02 -19 2 C-15.82804609 0.41402304 -12.41441228 0.9395845 -8.9375 1 C-6.28540969 1.04584426 -3.65348806 1.0470164 -1 1 C-0.67 0.67 -0.34 0.34 0 0 Z " fill="#207473" transform="translate(244,130)"/>
<path d="M0 0 C3.15118325 0.72045367 3.15118325 0.72045367 6 1 C4.55622326 3.88755349 2.33512896 4.53446535 -0.59765625 5.58984375 C-4.97948357 6.33796061 -9.08117778 4.96669516 -13 3 C-13.66 2.01 -14.32 1.02 -15 0 C-12.66836622 -0.67258667 -10.3347961 -1.33847444 -8 -2 C-7.278125 -2.268125 -6.55625 -2.53625 -5.8125 -2.8125 C-3.13085697 -3.08991135 -2.09855997 -1.60478115 0 0 Z " fill="#74B615" transform="translate(226,145)"/>
<path d="M0 0 C-0.33 0.66 -0.66 1.32 -1 2 C-5.6967517 3.49399656 -10.69131731 3.07419928 -15.5625 3 C-17.25123646 2.97439369 -18.94005047 2.95339511 -20.62890625 2.9375 C-21.37213135 2.92589844 -22.11535645 2.91429688 -22.88110352 2.90234375 C-25.05277274 3.0024322 -26.90935105 3.42457454 -29 4 C-30.58025005 4.21192095 -32.16398461 4.39923371 -33.75 4.5625 C-34.94882813 4.68818359 -34.94882813 4.68818359 -36.171875 4.81640625 C-37.07679688 4.90728516 -37.07679688 4.90728516 -38 5 C-36.375 3 -36.375 3 -34 1 C-30.8125 0.8125 -30.8125 0.8125 -28 1 C-27.67 0.67 -27.34 0.34 -27 0 C-18.14756295 -1.84425772 -8.92657004 -0.67311723 0 0 Z " fill="#6AD92B" transform="translate(270,96)"/>
<path d="M0 0 C0.66 0.66 1.32 1.32 2 2 C3.93681136 2.27654388 3.93681136 2.27654388 6.1328125 2.1953125 C6.93847656 2.18886719 7.74414062 2.18242187 8.57421875 2.17578125 C9.41597656 2.15902344 10.25773438 2.14226562 11.125 2.125 C11.97449219 2.11597656 12.82398438 2.10695312 13.69921875 2.09765625 C15.79959884 2.07405647 17.89983444 2.03818483 20 2 C19.34 3.65 18.68 5.3 18 7 C17.41992188 6.9278125 16.83984375 6.855625 16.2421875 6.78125 C9.63819918 5.96531722 9.63819918 5.96531722 3 6 C0.83656989 8.03268602 0.83656989 8.03268602 -1 11 C-1.0270043 9.54176788 -1.04639787 8.08339325 -1.0625 6.625 C-1.07410156 5.81289062 -1.08570313 5.00078125 -1.09765625 4.1640625 C-1 2 -1 2 0 0 Z " fill="#0D6571" transform="translate(224,132)"/>
<path d="M0 0 C3.375 -0.125 3.375 -0.125 7 0 C9 2 9 2 9.125 4.625 C9.08375 5.40875 9.0425 6.1925 9 7 C8.34 7 7.68 7 7 7 C7 7.66 7 8.32 7 9 C4.69 9 2.38 9 0 9 C-1.125 3.375 -1.125 3.375 0 0 Z " fill="#7C7CA0" transform="translate(274,173)"/>
<path d="M0 0 C0.33 0.66 0.66 1.32 1 2 C2.03125 1.79375 3.0625 1.5875 4.125 1.375 C8.1234216 0.98805597 10.33693757 1.48116924 14 3 C13.67 3.99 13.34 4.98 13 6 C10 6 10 6 7 5 C5.30784178 5.10970232 3.61914618 5.28205469 1.9375 5.5 C-2.78063011 6.10968495 -2.78063011 6.10968495 -5 5 C-5.66 5.66 -6.32 6.32 -7 7 C-6.875 5.1875 -6.875 5.1875 -6 3 C-2.9375 1.25 -2.9375 1.25 0 0 Z " fill="#12CE40" transform="translate(230,102)"/>
<path d="M0 0 C0 0.33 0 0.66 0 1 C-0.88751953 1.14695313 -0.88751953 1.14695313 -1.79296875 1.296875 C-6.93365713 2.26966432 -10.04086273 3.4007843 -14 7 C-14.66 7 -15.32 7 -16 7 C-16 10.3 -16 13.6 -16 17 C-18.47138232 13.29292652 -18.07439973 11.38958392 -18 7 C-18.29185063 4.9935269 -18.61169599 2.99005807 -19 1 C-18.01 1.99 -17.02 2.98 -16 4 C-15.236875 3.360625 -14.47375 2.72125 -13.6875 2.0625 C-8.81724109 -1.67514056 -5.73847541 -0.84666031 0 0 Z " fill="#78789C" transform="translate(343,183)"/>
<path d="M0 0 C0.33 0 0.66 0 1 0 C1.125 5.75 1.125 5.75 0 8 C-0.66 8 -1.32 8 -2 8 C-2.33 7.01 -2.66 6.02 -3 5 C-3.99 5.495 -3.99 5.495 -5 6 C-7.0092226 6 -9.01901908 5.99756205 -11.02734375 5.9375 C-13.2147211 5.91266984 -13.2147211 5.91266984 -16 7 C-16 5.68 -16 4.36 -16 3 C-14.68 3 -13.36 3 -12 3 C-11.67 2.34 -11.34 1.68 -11 1 C-9.54119891 1.14107747 -8.08296449 1.28802415 -6.625 1.4375 C-5.40683594 1.55931641 -5.40683594 1.55931641 -4.1640625 1.68359375 C-2 2 -2 2 0 3 C0 2.01 0 1.02 0 0 Z " fill="#08635F" transform="translate(286,128)"/>
<path d="M0 0 C0 3.3 0 6.6 0 10 C-3.63 10 -7.26 10 -11 10 C-11.33 9.01 -11.66 8.02 -12 7 C-10.18924982 5.83061933 -8.37635257 4.66456267 -6.5625 3.5 C-5.55316406 2.8503125 -4.54382813 2.200625 -3.50390625 1.53125 C-1 0 -1 0 0 0 Z " fill="#58A703" transform="translate(223,128)"/>
<path d="M0 0 C4.51602229 1.15114294 8.05747235 2.54923957 12 5 C14.19130534 5.69579454 14.19130534 5.69579454 16 6 C16.66 5.01 17.32 4.02 18 3 C18 5.97 18 8.94 18 12 C13.83740241 10.5199653 10.41490692 8.4553071 6.75 6 C5.69296875 5.29875 4.6359375 4.5975 3.546875 3.875 C1 2 1 2 0 0 Z " fill="#05C862" transform="translate(269,115)"/>
<path d="M0 0 C0.66 0.66 1.32 1.32 2 2 C4.57061311 2.64767793 4.57061311 2.64767793 7 3 C6.67 3.66 6.34 4.32 6 5 C-1.92 5 -9.84 5 -18 5 C-18 4.34 -18 3.68 -18 3 C-15.93918639 2.49309416 -13.87626474 1.99475381 -11.8125 1.5 C-10.66394531 1.2215625 -9.51539063 0.943125 -8.33203125 0.65625 C-5.40220992 0.07921602 -2.96427142 -0.2948476 0 0 Z " fill="#39CE37" transform="translate(258,99)"/>
<path d="M0 0 C4.29 0.33 8.58 0.66 13 1 C10 6 10 6 8.02734375 6.55859375 C2.22222222 6.22222222 2.22222222 6.22222222 0 4 C0 2.68 0 1.36 0 0 Z " fill="#185281" transform="translate(224,140)"/>
<path d="M0 0 C1.98 0 3.96 0 6 0 C6.02888146 3.31248187 6.04675799 6.62493167 6.0625 9.9375 C6.07087891 10.88302734 6.07925781 11.82855469 6.08789062 12.80273438 C6.09111328 13.70185547 6.09433594 14.60097656 6.09765625 15.52734375 C6.10289307 16.35999756 6.10812988 17.19265137 6.11352539 18.05053711 C6 20 6 20 5 21 C3.33382885 21.04063832 1.66611905 21.042721 0 21 C0 20.34 0 19.68 0 19 C1.32 19 2.64 19 4 19 C4 13.06 4 7.12 4 1 C2.68 1.33 1.36 1.66 0 2 C0 1.34 0 0.68 0 0 Z " fill="#1D1963" transform="translate(240,184)"/>
<path d="M0 0 C0.66 0 1.32 0 2 0 C3.12615269 4.34493238 2.94823211 8.22777042 2.625 12.6875 C2.58117187 13.36361328 2.53734375 14.03972656 2.4921875 14.73632812 C2.13433689 19.73132622 2.13433689 19.73132622 1 22 C-2.375 22.125 -2.375 22.125 -6 22 C-6.66 21.34 -7.32 20.68 -8 20 C-5.36 20.33 -2.72 20.66 0 21 C0 14.07 0 7.14 0 0 Z " fill="#A5A5BF" transform="translate(305,184)"/>
<path d="M0 0 C2.625 0.375 2.625 0.375 4.25 2.3125 C6.0046665 6.22062085 7.67074013 10.18777351 8.625 14.375 C8.295 15.035 7.965 15.695 7.625 16.375 C6.965 16.045 6.305 15.715 5.625 15.375 C5.2109375 13.30859375 5.2109375 13.30859375 5 10.8125 C4.92523438 9.98621094 4.85046875 9.15992188 4.7734375 8.30859375 C4.72445312 7.67050781 4.67546875 7.03242188 4.625 6.375 C3.965 6.375 3.305 6.375 2.625 6.375 C2.295 5.385 1.965 4.395 1.625 3.375 C-0.025 3.375 -1.675 3.375 -3.375 3.375 C-3.045 4.695 -2.715 6.015 -2.375 7.375 C-3.035 7.375 -3.695 7.375 -4.375 7.375 C-4.705 8.365 -5.035 9.355 -5.375 10.375 C-5.705 9.715 -6.035 9.055 -6.375 8.375 C-3.34648476 0.52839233 -3.34648476 0.52839233 0 0 Z " fill="#706F9B" transform="translate(182.375,174.625)"/>
<path d="M0 0 C-1.07401108 2.91517292 -1.77810176 4.77810176 -4 7 C-3.67 7.66 -3.34 8.32 -3 9 C-3.515625 8.731875 -4.03125 8.46375 -4.5625 8.1875 C-7.66401415 6.67650593 -10.82262806 5.34427274 -14 4 C-14 3.67 -14 3.34 -14 3 C-12.02 3 -10.04 3 -8 3 C-7.67 2.01 -7.34 1.02 -7 0 C-3.86650268 -1.04449911 -3.01031744 -0.93423645 0 0 Z " fill="#1C7468" transform="translate(271,129)"/>
<path d="M0 0 C0.33 0 0.66 0 1 0 C1 2.64 1 5.28 1 8 C4.63 8 8.26 8 12 8 C12.33 8.66 12.66 9.32 13 10 C9.36576791 12.32590854 6.22911669 12.16265833 2 12 C1.34 13.32 0.68 14.64 0 16 C-1.52634923 12.94730154 -0.83794444 10.24154311 -0.5625 6.875 C-0.46066406 5.59367187 -0.35882813 4.31234375 -0.25390625 2.9921875 C-0.12822266 1.51105469 -0.12822266 1.51105469 0 0 Z " fill="#A4C812" transform="translate(185,111)"/>
<path d="M0 0 C3.69876091 1.37287342 6.9514476 3.06355453 10.3125 5.125 C11.19550781 5.66382813 12.07851563 6.20265625 12.98828125 6.7578125 C13.65214844 7.16773438 14.31601562 7.57765625 15 8 C12 9 12 9 9.6875 7.9375 C6.15494917 6.70521483 4.37361265 7.58779005 1 9 C0.67 6.03 0.34 3.06 0 0 Z " fill="#59A801" transform="translate(288,129)"/>
<path d="M0 0 C0.66902344 -0.02900391 1.33804687 -0.05800781 2.02734375 -0.08789062 C5.76787264 -0.13565769 7.60353432 0.21338644 10.734375 2.33203125 C11.39953125 2.98558594 12.0646875 3.63914062 12.75 4.3125 C11.43 4.3125 10.11 4.3125 8.75 4.3125 C8.75 3.6525 8.75 2.9925 8.75 2.3125 C7.76 2.4775 6.77 2.6425 5.75 2.8125 C1.69331241 3.38258441 -2.15383459 3.5207796 -6.25 3.3125 C-6.91 2.6525 -7.57 1.9925 -8.25 1.3125 C-6.28039628 -0.65710372 -2.67904385 0.0378396 0 0 Z " fill="#41D440" transform="translate(273.25,100.6875)"/>
<path d="M0 0 C0.33 0.66 0.66 1.32 1 2 C-11.08919203 5.613851 -11.08919203 5.613851 -16 5 C-16.99 4.34 -17.98 3.68 -19 3 C-17.23986329 1.23986329 -14.70101226 1.33411643 -12.3125 0.9375 C-11.27738281 0.76089844 -10.24226562 0.58429688 -9.17578125 0.40234375 C-6.07778231 0.00985434 -3.11875137 -0.07013684 0 0 Z " fill="#42D336" transform="translate(247,99)"/>
<path d="M0 0 C3.04386724 -0.08226668 5.07175348 0.02391783 8 1 C7 4 7 4 5.375 5.1875 C2.19617272 6.27499354 -0.66661533 6.1282071 -4 6 C-4.66 4.68 -5.32 3.36 -6 2 C-4 2 -2 2 0 2 C0 1.34 0 0.68 0 0 Z " fill="#1F5172" transform="translate(278,139)"/>
<path d="M0 0 C0.66 0.66 1.32 1.32 2 2 C0.35616456 3.16948002 -1.29012269 4.3355145 -2.9375 5.5 C-4.31228516 6.47453125 -4.31228516 6.47453125 -5.71484375 7.46875 C-8 9 -8 9 -9 9 C-9 7.02 -9 5.04 -9 3 C-6 2 -3 1 0 0 Z " fill="#07BB76" transform="translate(232,119)"/>
<path d="M0 0 C0 0.33 0 0.66 0 1 C-1.3921875 1.1546875 -1.3921875 1.1546875 -2.8125 1.3125 C-6.03254358 2.0070192 -7.02579865 2.47740939 -9 5 C-9.66 4.67 -10.32 4.34 -11 4 C-11.37125 4.474375 -11.7425 4.94875 -12.125 5.4375 C-14.62646962 7.52205802 -16.81593418 7.64621491 -20 8 C-14.37125479 1.94510373 -8.18560231 -0.74414566 0 0 Z " fill="#F4E730" transform="translate(221,64)"/>
<path d="M0 0 C2.0625 1.875 2.0625 1.875 3 4 C2.67 4.99 2.34 5.98 2 7 C1.525625 6.360625 1.05125 5.72125 0.5625 5.0625 C-3.05420035 2.15149728 -6.47204894 2.19350218 -11 2 C-11 1.34 -11 0.68 -11 0 C-7.0983099 -1.30056337 -3.95489612 -1.07711308 0 0 Z " fill="#525182" transform="translate(218,183)"/>
<path d="M0 0 C5.15464734 0.48324819 8.81550319 3.18610761 13 6 C10.29446571 7.35276714 8.95360849 6.5907217 6 6 C3.66698014 5.96175377 1.33288492 5.95425716 -1 6 C0.25541557 3.48916886 1.50063488 3.12874554 4 2 C2.68 2 1.36 2 0 2 C0 1.34 0 0.68 0 0 Z " fill="#82DC4A" transform="translate(266,94)"/>
<path d="M0 0 C0.66 0.33 1.32 0.66 2 1 C1.98839844 1.68707031 1.97679687 2.37414062 1.96484375 3.08203125 C1.95582031 3.98308594 1.94679687 4.88414062 1.9375 5.8125 C1.92589844 6.70582031 1.91429687 7.59914062 1.90234375 8.51953125 C1.88990033 11.13413791 1.88990033 11.13413791 3 14 C2.34 14 1.68 14 1 14 C-0.99851462 9.8780636 -1.25785684 6.55547083 -1 2 C-0.67 1.34 -0.34 0.68 0 0 Z " fill="#77779E" transform="translate(201,189)"/>
<path d="M0 0 C1.60875 0.2784375 1.60875 0.2784375 3.25 0.5625 C6.40391546 0.9304568 8.09818492 1.04465343 11 0 C11 0.99 11 1.98 11 3 C10.01 3 9.02 3 8 3 C7.67 3.66 7.34 4.32 7 5 C4.69 5 2.38 5 0 5 C0 3.35 0 1.7 0 0 Z " fill="#DAD500" transform="translate(288,91)"/>
<path d="M0 0 C2.18975773 3.28463659 2.99806563 6.20696275 4 10 C4.66 10 5.32 10 6 10 C5.67 11.65 5.34 13.3 5 15 C4.34 14.67 3.68 14.34 3 14 C3 13.01 3 12.02 3 11 C2.34 11 1.68 11 1 11 C1 9.02 1 7.04 1 5 C0.34 5 -0.32 5 -1 5 C-0.67 3.35 -0.34 1.7 0 0 Z " fill="#8583A8" transform="translate(170,176)"/>
<path d="M0 0 C0 0.66 0 1.32 0 2 C-1.1446875 2.4021875 -1.1446875 2.4021875 -2.3125 2.8125 C-5.67693362 4.29708893 -5.67693362 4.29708893 -8 7 C-8.73041853 10.61023099 -8.73041853 10.61023099 -9 14 C-9.33 14 -9.66 14 -10 14 C-10.49029622 6.76813075 -10.49029622 6.76813075 -8.125 3.0625 C-5.04667814 0.07471702 -4.4599219 0 0 0 Z " fill="#110D59" transform="translate(295,184)"/>
<path d="M0 0 C2.24993359 -0.02707139 4.49996095 -0.04642829 6.75 -0.0625 C8.00296875 -0.07410156 9.2559375 -0.08570312 10.546875 -0.09765625 C13.28536501 -0.02021027 15.41880293 0.17219185 18 1 C18 1.66 18 2.32 18 3 C15.36 3 12.72 3 10 3 C10 2.34 10 1.68 10 1 C6.7 1 3.4 1 0 1 C0 0.67 0 0.34 0 0 Z " fill="#8DDD18" transform="translate(248,93)"/>
<path d="M0 0 C2.62527189 -0.05382106 5.24944713 -0.09358313 7.875 -0.125 C8.62136719 -0.14175781 9.36773437 -0.15851563 10.13671875 -0.17578125 C12.09194461 -0.1933959 14.04742021 -0.10320189 16 0 C16.66 0.66 17.32 1.32 18 2 C12.06 2.33 6.12 2.66 0 3 C0 2.01 0 1.02 0 0 Z " fill="#46D432" transform="translate(259,99)"/>
<path d="M0 0 C0.33 0 0.66 0 1 0 C1.05395478 1.62463842 1.09277195 3.24978541 1.125 4.875 C1.14820313 5.77992188 1.17140625 6.68484375 1.1953125 7.6171875 C1 10 1 10 -1 12 C-4.125 12.125 -4.125 12.125 -7 12 C-7.33 11.34 -7.66 10.68 -8 10 C-6.02 10 -4.04 10 -2 10 C-1.34 6.7 -0.68 3.4 0 0 Z " fill="#093D6A" transform="translate(286,134)"/>
<path d="M0 0 C1.98 0 3.96 0 6 0 C5.04247992 2.47359354 4.50503355 3.73064878 2.125 5 C0 5 0 5 -2.25 3.0625 C-2.8275 2.381875 -3.405 1.70125 -4 1 C-3.01 1.33 -2.02 1.66 -1 2 C-0.67 1.34 -0.34 0.68 0 0 Z " fill="#6DAE26" transform="translate(204,137)"/>
<path d="M0 0 C0.33 0.66 0.66 1.32 1 2 C2.11375 1.835 3.2275 1.67 4.375 1.5 C8 1 8 1 10 1 C10 1.66 10 2.32 10 3 C3.565 3.495 3.565 3.495 -3 4 C-2.67 3.01 -2.34 2.02 -2 1 C-1.34 0.67 -0.68 0.34 0 0 Z " fill="#1CD33B" transform="translate(230,102)"/>
<path d="M0 0 C0.7425 0.0825 1.485 0.165 2.25 0.25 C2.25 1.24 2.25 2.23 2.25 3.25 C-2.205 3.745 -2.205 3.745 -6.75 4.25 C-3.42692308 0.31153846 -3.42692308 0.31153846 0 0 Z " fill="#66DA41" transform="translate(238.75,96.75)"/>
<path d="M0 0 C0 0.66 0 1.32 0 2 C-4.29 2 -8.58 2 -13 2 C-13 1.34 -13 0.68 -13 0 C-11.20909747 -0.19466332 -9.41723495 -0.38051213 -7.625 -0.5625 C-6.12839844 -0.71912109 -6.12839844 -0.71912109 -4.6015625 -0.87890625 C-2 -1 -2 -1 0 0 Z " fill="#09675F" transform="translate(263,130)"/>
<path d="M0 0 C-2.52788007 2.79872437 -4.20411134 4.45773019 -8 5 C-8.33 3.68 -8.66 2.36 -9 1 C-6.04335481 -0.4783226 -3.25770263 -0.06032783 0 0 Z " fill="#04C860" transform="translate(244,114)"/>
<path d="M0 0 C0.66 0.33 1.32 0.66 2 1 C2 1.66 2 2.32 2 3 C1.34 3.66 0.68 4.32 0 5 C0.33 5.66 0.66 6.32 1 7 C-0.9375 6.1875 -0.9375 6.1875 -3 5 C-3.33 4.01 -3.66 3.02 -4 2 C-2.125 0.9375 -2.125 0.9375 0 0 Z " fill="#2D7476" transform="translate(267,131)"/>
<path d="M0 0 C3.96 0 7.92 0 12 0 C8 3 8 3 5.859375 2.85546875 C3.90625 2.23697917 1.953125 1.61848958 0 1 C0 0.67 0 0.34 0 0 Z " fill="#A3CD6A" transform="translate(216,148)"/>
<path d="M0 0 C1.85772162 0.08984301 3.71247985 0.24611861 5.5625 0.4375 C7.08037109 0.59025391 7.08037109 0.59025391 8.62890625 0.74609375 C9.80259766 0.87177734 9.80259766 0.87177734 11 1 C9 3 9 3 5.5625 3.25 C2 3 2 3 -1 1 C-0.67 0.67 -0.34 0.34 0 0 Z " fill="#47D543" transform="translate(229,101)"/>
<path d="M0 0 C0.66 0.33 1.32 0.66 2 1 C-1.07999946 4.67230705 -3.2482602 5.56802365 -8 6 C-5.63404067 3.38499232 -3.13950774 1.61000397 0 0 Z " fill="#EAE74B" transform="translate(209,66)"/>
<path d="M0 0 C0.66 0.33 1.32 0.66 2 1 C1.67 2.32 1.34 3.64 1 5 C-0.32 5 -1.64 5 -3 5 C-2.625 3.0625 -2.625 3.0625 -2 1 C-1.34 0.67 -0.68 0.34 0 0 Z " fill="#1A1363" transform="translate(279,174)"/>
<path d="M0 0 C2.31 0 4.62 0 7 0 C7.33 0.66 7.66 1.32 8 2 C1.25 3 1.25 3 -1 3 C-0.67 2.01 -0.34 1.02 0 0 Z " fill="#A5C900" transform="translate(190,119)"/>
<path d="" fill="#D0DACF" transform="translate(0,0)"/>
<path d="" fill="#D0DACF" transform="translate(0,0)"/>
<path d="" fill="#D0DACF" transform="translate(0,0)"/>
<path d="" fill="#D0DACF" transform="translate(0,0)"/>
</svg>
