<?xml version="1.0" encoding="UTF-8"?>
<svg version="1.1" xmlns="http://www.w3.org/2000/svg" width="474" height="474">
<path d="M0 0 C156.42 0 312.84 0 474 0 C474 156.42 474 312.84 474 474 C317.58 474 161.16 474 0 474 C0 317.58 0 161.16 0 0 Z " fill="#FDFDFD" transform="translate(0,0)"/>
<path d="M0 0 C0 0.66 0 1.32 0 2 C1.15757812 2.11601563 2.31515625 2.23203125 3.5078125 2.3515625 C7.82043166 2.89230005 11.76108243 4.00604889 15.875 5.375 C17.27965726 5.83292379 18.68460502 6.28995746 20.08984375 6.74609375 C20.76128418 6.96507324 21.43272461 7.18405273 22.12451172 7.40966797 C24.54077833 8.17021635 26.98705029 8.79708513 29.4375 9.4375 C33.73412954 10.71004585 36.93786056 12.77714148 40.5546875 15.3828125 C44.3520981 17.89419906 48.46170734 19.71161586 52.59375 21.60546875 C55 23 55 23 56 26 C56.5775 26.12375 57.155 26.2475 57.75 26.375 C61.03846907 27.28846363 62.60941422 29.60941422 65 32 C65.94875 32.44730469 66.8975 32.89460938 67.875 33.35546875 C71.29223287 35.15378755 73.13448825 37.0113687 75.625 39.9375 C78.32562718 43.07875582 81.0686948 46.07460469 84 49 C90.24175056 56.06828374 96.08378758 64.61947176 98 74 C98.66 74 99.32 74 100 74 C102.72959715 79.08269815 104.71881973 83.92435617 106.2734375 89.4765625 C106.98886021 91.96131021 107.82162248 94.37671371 108.6875 96.8125 C109.76711972 99.98388293 110.32772611 102.61349691 110 106 C110.66 106 111.32 106 112 106 C114.91641167 121.83194906 114.18954114 137.9735674 114 154 C113.34 154 112.68 154 112 154 C112.05027344 155.10601562 112.10054688 156.21203125 112.15234375 157.3515625 C112.15119125 162.58158774 110.90240904 167.3475727 109.5625 172.375 C109.33240234 173.27605469 109.10230469 174.17710937 108.86523438 175.10546875 C107.17020089 181.65959821 107.17020089 181.65959821 106 184 C105.34 184 104.68 184 104 184 C103.87625 184.9075 103.7525 185.815 103.625 186.75 C103.07890323 189.58970323 102.42736197 191.52590591 101 194 C100.34 194 99.68 194 99 194 C98.7525 195.216875 98.505 196.43375 98.25 197.6875 C97.2707336 201.63929138 95.68456503 203.9086827 93 207 C92.2575 208.5778125 92.2575 208.5778125 91.5 210.1875 C90 213 90 213 87.875 213.9375 C87.25625 214.288125 86.6375 214.63875 86 215 C85.87044922 216.58748047 85.87044922 216.58748047 85.73828125 218.20703125 C84.83308746 222.8575242 82.7900307 224.81935588 79.3125 227.75 C78.79494141 228.21792969 78.27738281 228.68585938 77.74414062 229.16796875 C75.18208147 231.42053882 72.94067494 233.0291473 69.8515625 234.546875 C66.70554629 236.15005038 65.23230136 237.74760927 63.0625 240.5 C59.53179516 244.66959429 57.04987188 246.12967708 52 248 C50.59546536 249.24492843 49.19118429 250.49016607 47.79296875 251.7421875 C44.72676095 253.8932091 41.21702375 254.84462185 37.6875 256.01953125 C35.26380994 256.90375538 33.25250389 257.90484675 31.0625 259.25 C28 261 28 261 24 261 C24 261.66 24 262.32 24 263 C19.59074582 264.12720944 15.17991924 265.24797219 10.76757812 266.36303711 C9.2697437 266.74249495 7.77233762 267.12364805 6.27539062 267.5065918 C4.11180862 268.0597476 1.94671066 268.60659487 -0.21875 269.15234375 C-0.87742065 269.3221727 -1.53609131 269.49200165 -2.21472168 269.66697693 C-10.63022328 271.77184541 -18.85815882 272.19436514 -27.5 272.1875 C-28.5528418 272.18669434 -29.60568359 272.18588867 -30.69042969 272.18505859 C-52.39857692 272.01613648 -52.39857692 272.01613648 -60 268 C-61.86355598 267.47809503 -63.74043884 267.00256243 -65.625 266.5625 C-73.60508765 264.61095314 -80.86551289 262.68607155 -88.1875 258.875 C-92.62749524 256.59238706 -95.97811742 254.8975126 -101 255 C-101.69609375 255.42539062 -102.3921875 255.85078125 -103.109375 256.2890625 C-106.99692278 258.59007051 -111.05227513 259.96908379 -115.3125 261.4375 C-116.64112061 261.89709106 -116.64112061 261.89709106 -117.99658203 262.3659668 C-132.73506105 267.37101343 -147.76992404 271.15859745 -163.4296875 271.046875 C-164.66702637 271.04010742 -165.90436523 271.03333984 -167.17919922 271.02636719 C-168.11006348 271.01766602 -169.04092773 271.00896484 -170 271 C-170.02334151 250.9727082 -170.04098535 230.94541915 -170.05181217 210.91811657 C-170.05697246 201.61947869 -170.0640101 192.32084926 -170.07543945 183.0222168 C-170.08539442 174.919258 -170.09185537 166.81630532 -170.09408849 158.71334058 C-170.09539421 154.42134012 -170.09847135 150.12935715 -170.10573006 145.83736229 C-170.11250307 141.7999501 -170.11461433 137.76256267 -170.11310768 133.72514534 C-170.11338343 132.24123882 -170.11538097 130.75733149 -170.11920547 129.27342987 C-170.12416262 127.25135899 -170.12239289 125.22927492 -170.12025452 123.2071991 C-170.12117631 122.07431552 -170.1220981 120.94143194 -170.12304783 119.77421856 C-170 117 -170 117 -169 114 C-168.34 114 -167.68 114 -167 114 C-167.12375 112.4840625 -167.12375 112.4840625 -167.25 110.9375 C-167.25801896 106.49499797 -166.28560004 102.34174107 -165.1875 98.0625 C-165.02217773 97.38759521 -164.85685547 96.71269043 -164.68652344 96.01733398 C-164.16796875 94.09765625 -164.16796875 94.09765625 -163 91 C-161.515 90.505 -161.515 90.505 -160 90 C-159.9175 89.21625 -159.835 88.4325 -159.75 87.625 C-158.52051991 81.68251292 -156.37016322 76.05524483 -153 71 C-152.34 71 -151.68 71 -151 71 C-150.731875 70.13375 -150.46375 69.2675 -150.1875 68.375 C-149.02888013 65.08208036 -147.61790161 62.08872125 -146 59 C-145.01 59 -144.02 59 -143 59 C-142.72027344 58.4225 -142.44054687 57.845 -142.15234375 57.25 C-135.61401072 44.4836277 -135.61401072 44.4836277 -130.6875 41.6875 C-128.149937 40.09414649 -126.91699534 38.84420893 -125.0625 36.5625 C-122.33581068 33.23692543 -119.7384641 31.12412733 -116 29 C-115.34 29 -114.68 29 -114 29 C-113.773125 28.21625 -113.54625 27.4325 -113.3125 26.625 C-112 24 -112 24 -109.6875 22.875 C-108.800625 22.58625 -107.91375 22.2975 -107 22 C-103.335651 20.1585362 -103.335651 20.1585362 -101 17 C-99.34193068 16.31222942 -97.67367271 15.6488774 -96 15 C-94.42116694 14.04739316 -92.85884502 13.06698528 -91.3125 12.0625 C-87.20272146 9.55029116 -83.36824001 7.94047677 -78.71484375 6.73828125 C-76.41228977 6.11211909 -74.22398088 5.37924892 -71.9765625 4.5859375 C-48.78361633 -3.19604784 -23.97275339 -3.9484535 0 0 Z " fill="#FEDD2E" transform="translate(336,102)"/>
<path d="M0 0 C0.86555511 -0.00073517 1.73111023 -0.00147034 2.62289429 -0.00222778 C16.01230812 0.02764928 28.35301794 0.89919039 41.0625 5.4375 C41.86397461 5.71577637 42.66544922 5.99405273 43.49121094 6.28076172 C52.29302564 9.38697747 60.85866094 12.96455257 69.0625 17.4375 C67.35168226 21.22629728 65.84607481 22.58970765 62.0625 24.4375 C61.175625 24.56125 60.28875 24.685 59.375 24.8125 C58.611875 25.01875 57.84875 25.225 57.0625 25.4375 C56.77117187 26.21738281 56.47984375 26.99726562 56.1796875 27.80078125 C54.85353465 30.93068745 53.78251946 31.59356465 50.875 33.25 C46.58769294 35.90108842 43.67926188 38.85827298 40.5703125 42.80078125 C39.0625 44.4375 39.0625 44.4375 36.0625 45.4375 C32.72132575 49.1020137 30.45560919 53.12990347 28.0625 57.4375 C27.4025 58.4275 26.7425 59.4175 26.0625 60.4375 C25.0725 60.4375 24.0825 60.4375 23.0625 60.4375 C22.794375 61.30375 22.52625 62.17 22.25 63.0625 C19.34809857 71.31000931 19.34809857 71.31000931 16.125 74.13671875 C13.44082648 77.13099566 12.53156476 80.34255899 11.4375 84.125 C10.70676632 86.5970073 9.92519243 89.0049421 9.0625 91.4375 C8.0725 91.9325 8.0725 91.9325 7.0625 92.4375 C6.27417943 94.79651211 5.60550099 97.0937942 5 99.5 C4.8237207 100.1794165 4.64744141 100.85883301 4.46582031 101.55883789 C3.29515313 106.18784181 2.45050504 110.6844383 2.0625 115.4375 C1.4025 115.4375 0.7425 115.4375 0.0625 115.4375 C0.0625 167.5775 0.0625 219.7175 0.0625 273.4375 C-17.35234375 273.4375 -17.35234375 273.4375 -24.625 271.8125 C-25.45169189 271.6371875 -26.27838379 271.461875 -27.13012695 271.28125 C-44.20497781 267.51940415 -59.72199349 262.06528721 -74.9375 253.4375 C-75.90171875 252.89351562 -76.8659375 252.34953125 -77.859375 251.7890625 C-78.77203125 251.26054687 -79.6846875 250.73203125 -80.625 250.1875 C-81.45386719 249.70796875 -82.28273437 249.2284375 -83.13671875 248.734375 C-83.73097656 248.30640625 -84.32523438 247.8784375 -84.9375 247.4375 C-84.9375 246.7775 -84.9375 246.1175 -84.9375 245.4375 C-86.00484375 245.07398438 -86.00484375 245.07398438 -87.09375 244.703125 C-94.65791093 241.33665777 -100.92799241 234.92039218 -105.9375 228.4375 C-106.7625 227.6125 -107.5875 226.7875 -108.4375 225.9375 C-111.15912196 223.21587804 -113.57439039 220.47578379 -115.9375 217.4375 C-115.9375 216.7775 -115.9375 216.1175 -115.9375 215.4375 C-116.5975 215.4375 -117.2575 215.4375 -117.9375 215.4375 C-127.62732017 203.68308747 -134.08210614 187.35665148 -138.4375 172.9375 C-138.66832275 172.17445557 -138.89914551 171.41141113 -139.13696289 170.62524414 C-142.23161306 159.66673493 -143.30716117 148.66934806 -143.25 137.3125 C-143.24508545 136.14033936 -143.2401709 134.96817871 -143.23510742 133.76049805 C-142.85287582 105.10488876 -133.6980317 78.13151273 -115.9375 55.4375 C-115.2775 55.4375 -114.6175 55.4375 -113.9375 55.4375 C-113.875625 54.90125 -113.81375 54.365 -113.75 53.8125 C-112.53714736 50.26723843 -110.49139074 48.1782608 -107.9375 45.4375 C-107.2775 45.4375 -106.6175 45.4375 -105.9375 45.4375 C-105.6075 44.4475 -105.2775 43.4575 -104.9375 42.4375 C-104.2775 42.4375 -103.6175 42.4375 -102.9375 42.4375 C-102.6075 41.4475 -102.2775 40.4575 -101.9375 39.4375 C-101.2775 39.4375 -100.6175 39.4375 -99.9375 39.4375 C-99.9375 38.7775 -99.9375 38.1175 -99.9375 37.4375 C-97.8717635 35.61904875 -95.80326532 33.924552 -93.625 32.25 C-92.66811279 31.5079834 -92.66811279 31.5079834 -91.69189453 30.75097656 C-86.30991978 26.62672398 -80.75368877 22.92383666 -74.9375 19.4375 C-73.55884766 18.56158203 -73.55884766 18.56158203 -72.15234375 17.66796875 C-59.48353436 9.8416114 -45.46361311 5.40975864 -30.9375 2.4375 C-30.11628662 2.26017334 -29.29507324 2.08284668 -28.44897461 1.90014648 C-19.00016782 0.07010152 -9.58968886 -0.00353893 0 0 Z " fill="#337DFD" transform="translate(166.9375,100.5625)"/>
<path d="M0 0 C1.17456757 0.00520786 1.17456757 0.00520786 2.37286377 0.01052094 C4.28700717 0.01951117 6.20112697 0.03331009 8.11523438 0.0480957 C8.20924346 18.79997192 8.27948774 37.55179941 8.32248306 56.30386353 C8.34298926 65.01344749 8.37087713 73.7228839 8.41699219 82.43237305 C8.45723027 90.03562566 8.48275358 97.63877127 8.49158835 105.24212742 C8.49674154 109.25714454 8.5085938 113.27185593 8.5381546 117.28677368 C8.72601264 143.86115848 6.82881421 168.422389 -3.88476562 193.0480957 C-4.54476562 193.0480957 -5.20476562 193.0480957 -5.88476562 193.0480957 C-5.98660156 193.75321289 -6.0884375 194.45833008 -6.19335938 195.18481445 C-6.98391374 198.45869215 -8.29000297 200.93394037 -9.94726562 203.8605957 C-10.49511719 204.83641602 -11.04296875 205.81223633 -11.60742188 206.81762695 C-12.02894531 207.55368164 -12.45046875 208.28973633 -12.88476562 209.0480957 C-13.54476562 209.0480957 -14.20476562 209.0480957 -14.88476562 209.0480957 C-15.19414062 209.9968457 -15.50351562 210.9455957 -15.82226562 211.9230957 C-16.88476562 215.0480957 -16.88476562 215.0480957 -17.88476562 217.0480957 C-18.54476562 217.0480957 -19.20476562 217.0480957 -19.88476562 217.0480957 C-20.21476562 218.0380957 -20.54476562 219.0280957 -20.88476562 220.0480957 C-21.54476562 220.0480957 -22.20476562 220.0480957 -22.88476562 220.0480957 C-23.11164063 220.6049707 -23.33851563 221.1618457 -23.57226562 221.7355957 C-25.26619798 224.72014319 -27.40091261 226.67463615 -29.88476562 229.0480957 C-30.48289062 229.6668457 -31.08101563 230.2855957 -31.69726562 230.9230957 C-32.31601562 231.5624707 -32.93476563 232.2018457 -33.57226562 232.8605957 C-34.15363281 233.46516602 -34.735 234.06973633 -35.33398438 234.69262695 C-36.88476562 236.0480957 -36.88476562 236.0480957 -38.88476562 236.0480957 C-38.88476562 236.7080957 -38.88476562 237.3680957 -38.88476562 238.0480957 C-39.54476562 238.0480957 -40.20476562 238.0480957 -40.88476562 238.0480957 C-40.88476562 238.7080957 -40.88476562 239.3680957 -40.88476562 240.0480957 C-42.25488281 241.265625 -42.25488281 241.265625 -44.18164062 242.62231445 C-44.88651611 243.12158447 -45.5913916 243.62085449 -46.31762695 244.13525391 C-47.4646106 244.9274231 -47.4646106 244.9274231 -48.63476562 245.7355957 C-49.41682373 246.27724365 -50.19888184 246.8188916 -51.00463867 247.37695312 C-53.28981335 248.94649928 -55.58488178 250.50020751 -57.88476562 252.0480957 C-58.90699219 252.74161133 -59.92921875 253.43512695 -60.98242188 254.1496582 C-79.52799852 265.83737413 -105.60797176 272.24983264 -127.31445312 272.0949707 C-128.55179199 272.08820313 -129.78913086 272.08143555 -131.06396484 272.07446289 C-131.9948291 272.06576172 -132.92569336 272.05706055 -133.88476562 272.0480957 C-133.90810713 252.0208039 -133.92575097 231.99351485 -133.9365778 211.96621227 C-133.94173808 202.66757439 -133.94877572 193.36894496 -133.96020508 184.0703125 C-133.97016005 175.96735371 -133.976621 167.86440102 -133.97885412 159.76143628 C-133.98015984 155.46943582 -133.98323697 151.17745286 -133.99049568 146.88545799 C-133.9972687 142.84804581 -133.99937996 138.81065837 -133.99787331 134.77324104 C-133.99814905 133.28933452 -134.0001466 131.80542719 -134.0039711 130.32152557 C-134.00892824 128.2994547 -134.00715851 126.27737062 -134.00502014 124.2552948 C-134.00594193 123.12241122 -134.00686373 121.98952765 -134.00781345 120.82231426 C-133.88476562 118.0480957 -133.88476562 118.0480957 -132.88476562 115.0480957 C-132.22476563 115.0480957 -131.56476563 115.0480957 -130.88476562 115.0480957 C-131.00851563 113.5321582 -131.00851563 113.5321582 -131.13476562 111.9855957 C-131.14278458 107.54309367 -130.17036567 103.38983677 -129.07226562 99.1105957 C-128.90694336 98.43569092 -128.74162109 97.76078613 -128.57128906 97.06542969 C-128.05273438 95.14575195 -128.05273438 95.14575195 -126.88476562 92.0480957 C-125.39976562 91.5530957 -125.39976562 91.5530957 -123.88476562 91.0480957 C-123.80226562 90.2643457 -123.71976563 89.4805957 -123.63476562 88.6730957 C-122.40528554 82.73060862 -120.25492884 77.10334053 -116.88476562 72.0480957 C-116.22476563 72.0480957 -115.56476563 72.0480957 -114.88476562 72.0480957 C-114.61664063 71.1818457 -114.34851563 70.3155957 -114.07226562 69.4230957 C-112.91364575 66.13017606 -111.50266723 63.13681696 -109.88476562 60.0480957 C-108.89476562 60.0480957 -107.90476563 60.0480957 -106.88476562 60.0480957 C-106.60503906 59.4705957 -106.3253125 58.8930957 -106.03710938 58.2980957 C-99.49877634 45.53172341 -99.49877634 45.53172341 -94.57226562 42.7355957 C-92.03470262 41.14224219 -90.80176097 39.89230463 -88.94726562 37.6105957 C-86.22057631 34.28502113 -83.62322973 32.17222303 -79.88476562 30.0480957 C-79.22476563 30.0480957 -78.56476563 30.0480957 -77.88476562 30.0480957 C-77.65789062 29.2643457 -77.43101562 28.4805957 -77.19726562 27.6730957 C-75.88476562 25.0480957 -75.88476562 25.0480957 -73.57226562 23.9230957 C-72.68539062 23.6343457 -71.79851562 23.3455957 -70.88476562 23.0480957 C-67.22041663 21.2066319 -67.22041663 21.2066319 -64.88476562 18.0480957 C-63.22669631 17.36032513 -61.55843833 16.69697311 -59.88476562 16.0480957 C-58.30593257 15.09548887 -56.74361065 14.11508098 -55.19726562 13.1105957 C-51.08748709 10.59838686 -47.25300563 8.98857247 -42.59960938 7.78637695 C-40.25758838 7.14948203 -38.02098871 6.40416092 -35.73242188 5.6027832 C-30.68668414 3.90732782 -25.61362489 2.82598136 -20.38476562 1.8605957 C-19.51851563 1.68334961 -18.65226562 1.50610352 -17.75976562 1.32348633 C-11.79341739 0.21336837 -6.0468923 -0.05135327 0 0 Z " fill="#FE6346" transform="translate(299.884765625,100.951904296875)"/>
<path d="M0 0 C2.0625 0.4375 2.0625 0.4375 4 1 C1.34946654 3.75270822 -1.36558492 6.10700031 -4.4375 8.375 C-7.26216755 10.52712766 -9.67139693 12.58868122 -11.875 15.375 C-14 18 -14 18 -17 19 C-20.34117425 22.6645137 -22.60689081 26.69240347 -25 31 C-25.66 31.99 -26.32 32.98 -27 34 C-27.99 34 -28.98 34 -30 34 C-30.268125 34.86625 -30.53625 35.7325 -30.8125 36.625 C-33.71440143 44.87250931 -33.71440143 44.87250931 -36.9375 47.69921875 C-39.62167352 50.69349566 -40.53093524 53.90505899 -41.625 57.6875 C-42.35573368 60.1595073 -43.13730757 62.5674421 -44 65 C-44.99 65.495 -44.99 65.495 -46 66 C-46.78832057 68.35901211 -47.45699901 70.6562942 -48.0625 73.0625 C-48.2387793 73.7419165 -48.41505859 74.42133301 -48.59667969 75.12133789 C-49.76734687 79.75034181 -50.61199496 84.2469383 -51 89 C-51.66 89 -52.32 89 -53 89 C-53 141.14 -53 193.28 -53 247 C-70.41484375 247 -70.41484375 247 -77.6875 245.375 C-78.51419189 245.1996875 -79.34088379 245.024375 -80.19262695 244.84375 C-94.37650542 241.71882874 -108.02103996 237.55779034 -121 231 C-118.29120665 229.64560332 -115.99066732 229.93498549 -113 230 C-112.505 229.01 -112.505 229.01 -112 228 C-110.35 228.33 -108.7 228.66 -107 229 C-107.495 230.98 -107.495 230.98 -108 233 C-106.72125 233.309375 -105.4425 233.61875 -104.125 233.9375 C-101.89898325 234.47605244 -100.05260001 234.9737 -98 236 C-98 236.66 -98 237.32 -98 238 C-97.236875 237.95875 -96.47375 237.9175 -95.6875 237.875 C-93 238 -93 238 -90 240 C-87.24195823 240.60804929 -84.53444967 241.11951937 -81.75 241.5625 C-81.03070313 241.68818359 -80.31140625 241.81386719 -79.5703125 241.94335938 C-74.4533514 242.78299818 -69.34141643 243.21923654 -64.16894531 243.54272461 C-63.47741364 243.58733574 -62.78588196 243.63194687 -62.07339478 243.67790985 C-60.38235975 243.78678358 -58.69119261 243.89360218 -57 244 C-57.0077306 242.90093464 -57.0077306 242.90093464 -57.01561737 241.77966595 C-57.14187871 223.81967432 -57.26708037 205.85967559 -57.39115143 187.89966869 C-57.45117975 179.21378919 -57.51154614 170.5279123 -57.57275391 161.84204102 C-57.62620029 154.25744342 -57.67896604 146.67284142 -57.73096704 139.08823377 C-57.75843616 135.08498971 -57.78621023 131.08174838 -57.81480408 127.07851219 C-57.87180175 119.06921878 -57.92370755 111.05995339 -57.96357012 103.05055481 C-57.98130624 99.68700372 -58.00510832 96.32367611 -58.04135132 92.96026993 C-58.08186389 89.18618012 -58.11108436 85.41214217 -58.13867188 81.63793945 C-58.1546064 80.52553233 -58.17054092 79.41312521 -58.18695831 78.26700878 C-58.19225304 77.24543839 -58.19754776 76.22386801 -58.20300293 75.17134094 C-58.21208427 74.28782109 -58.22116562 73.40430124 -58.23052216 72.49400806 C-57.97170619 69.69389061 -57.1566166 67.55006728 -56 65 C-55.34 65 -54.68 65 -54 65 C-54 61.04 -54 57.08 -54 53 C-52.55625 52.835 -51.1125 52.67 -49.625 52.5 C-48.40683594 52.36078125 -48.40683594 52.36078125 -47.1640625 52.21875 C-45 52 -45 52 -43 52 C-42.67 51.01 -42.34 50.02 -42 49 C-41.278125 48.34 -40.55625 47.68 -39.8125 47 C-35.74035456 43.15408487 -33.51222384 37.9294839 -31 33 C-30.34 33 -29.68 33 -29 33 C-28.89429688 32.4328125 -28.78859375 31.865625 -28.6796875 31.28125 C-27.88797047 28.62399285 -26.69519819 26.78108394 -25.125 24.5 C-24.61195313 23.7471875 -24.09890625 22.994375 -23.5703125 22.21875 C-23.05210937 21.4865625 -22.53390625 20.754375 -22 20 C-21.48179687 19.2471875 -20.96359375 18.494375 -20.4296875 17.71875 C-19.95789063 17.1515625 -19.48609375 16.584375 -19 16 C-18.34 16 -17.68 16 -17 16 C-16.73646729 15.39696045 -16.47293457 14.7939209 -16.20141602 14.17260742 C-14.93607537 11.88440047 -13.84022725 10.80812655 -11.77734375 9.23828125 C-11.15666016 8.75939453 -10.53597656 8.28050781 -9.89648438 7.78710938 C-9.25001953 7.30048828 -8.60355469 6.81386719 -7.9375 6.3125 C-6.65470491 5.3297442 -5.3721407 4.34668693 -4.08984375 3.36328125 C-3.07019531 2.58339844 -2.05054688 1.80351562 -1 1 C-0.67 0.67 -0.34 0.34 0 0 Z " fill="#3D7BE4" transform="translate(220,127)"/>
<path d="M0 0 C0.66 0 1.32 0 2 0 C2.33 7.92 2.66 15.84 3 24 C4.32 23.67 5.64 23.34 7 23 C7 65.57 7 108.14 7 152 C7.66 152 8.32 152 9 152 C9 152.66 9 153.32 9 154 C14.94 154 20.88 154 27 154 C27 154.33 27 154.66 27 155 C24.96063313 155.34712628 22.91827451 155.67666865 20.875 156 C19.73804688 156.185625 18.60109375 156.37125 17.4296875 156.5625 C13.52225814 157.06136444 9.65939493 157.0433529 5.72314453 157.02734375 C4.46374054 157.023396 3.20433655 157.01944824 1.9067688 157.01538086 C0.9475351 157.01030518 -0.01169861 157.00522949 -1 157 C-1.02334151 136.9727082 -1.04098535 116.94541915 -1.05181217 96.91811657 C-1.05697246 87.61947869 -1.0640101 78.32084926 -1.07543945 69.0222168 C-1.08539442 60.919258 -1.09185537 52.81630532 -1.09408849 44.71334058 C-1.09539421 40.42134012 -1.09847135 36.12935715 -1.10573006 31.83736229 C-1.11250307 27.7999501 -1.11461433 23.76256267 -1.11310768 19.72514534 C-1.11338343 18.24123882 -1.11538097 16.75733149 -1.11920547 15.27342987 C-1.12416262 13.25135899 -1.12239289 11.22927492 -1.12025452 9.2071991 C-1.12117631 8.07431552 -1.1220981 6.94143194 -1.12304783 5.77421856 C-1 3 -1 3 0 0 Z " fill="#F56847" transform="translate(167,216)"/>
<path d="M0 0 C0.66 0 1.32 0 2 0 C2 51.15 2 102.3 2 155 C6.62 154.67 11.24 154.34 16 154 C19.67613573 153.96395945 23.32813291 153.93255754 27 154 C27 154.33 27 154.66 27 155 C24.96063313 155.34712628 22.91827451 155.67666865 20.875 156 C19.73804688 156.185625 18.60109375 156.37125 17.4296875 156.5625 C13.52225814 157.06136444 9.65939493 157.0433529 5.72314453 157.02734375 C4.46374054 157.023396 3.20433655 157.01944824 1.9067688 157.01538086 C0.9475351 157.01030518 -0.01169861 157.00522949 -1 157 C-1.02334151 136.9727082 -1.04098535 116.94541915 -1.05181217 96.91811657 C-1.05697246 87.61947869 -1.0640101 78.32084926 -1.07543945 69.0222168 C-1.08539442 60.919258 -1.09185537 52.81630532 -1.09408849 44.71334058 C-1.09539421 40.42134012 -1.09847135 36.12935715 -1.10573006 31.83736229 C-1.11250307 27.7999501 -1.11461433 23.76256267 -1.11310768 19.72514534 C-1.11338343 18.24123882 -1.11538097 16.75733149 -1.11920547 15.27342987 C-1.12416262 13.25135899 -1.12239289 11.22927492 -1.12025452 9.2071991 C-1.12117631 8.07431552 -1.1220981 6.94143194 -1.12304783 5.77421856 C-1 3 -1 3 0 0 Z " fill="#E0696B" transform="translate(167,216)"/>
<path d="M0 0 C13.50347777 -0.21987126 26.64779643 -0.19918647 40 2 C40 2.66 40 3.32 40 4 C41.155 4.12375 42.31 4.2475 43.5 4.375 C47.78350375 4.90278885 51.83352672 5.88398037 56 7 C56 7.33 56 7.66 56 8 C50.84876235 8.2102546 46.92412166 7.40912035 42 6 C39.63285009 5.59668827 37.25667611 5.24356853 34.875 4.9375 C33.69679688 4.78152344 32.51859375 4.62554687 31.3046875 4.46484375 C27.62051328 4.03292058 23.92956834 3.75049515 20.23095703 3.47094727 C19.06323761 3.38232925 17.89551819 3.29371124 16.69241333 3.20240784 C15.80391693 3.13561325 14.91542053 3.06881866 14 3 C14.00092179 3.78244552 14.00184359 4.56489103 14.00279331 5.37104702 C14.02484712 24.38176382 14.04141085 43.39247807 14.05181217 62.40320492 C14.05697545 71.59652604 14.06401875 80.78983864 14.07543945 89.9831543 C14.08538532 97.99307036 14.09185319 106.00298025 14.09408849 114.01290232 C14.09539577 118.25677253 14.09848266 122.5006251 14.10573006 126.74448967 C14.11248874 130.7342907 14.11461727 134.7240667 14.11310768 138.71387291 C14.11338408 140.18249395 14.1153901 141.65111579 14.11920547 143.1197319 C14.12414028 145.11622776 14.12239813 147.11273687 14.12025452 149.10923767 C14.12117631 150.22921615 14.1220981 151.34919462 14.12304783 152.50311184 C14 155 14 155 13 156 C12.76924918 157.34747084 12.58846937 158.70377565 12.4375 160.0625 C12.2209375 162.0115625 12.2209375 162.0115625 12 164 C11.34 164 10.68 164 10 164 C9.67 166.64 9.34 169.28 9 172 C8.67 172 8.34 172 8 172 C8.43462613 166.29267272 9.02770927 160.68043487 10.01913452 155.04109192 C11.16350531 147.69271927 11.307743 140.45217772 11.31884766 133.0300293 C11.3281721 131.57984881 11.3383444 130.12967356 11.34928894 128.67950439 C11.37631988 124.78578132 11.39165734 120.89209384 11.40471697 116.99830222 C11.42046683 112.91303714 11.44721848 108.82784356 11.4727478 104.74263 C11.51932755 97.02595083 11.55617157 89.30925788 11.58942068 81.592511 C11.6277901 72.79910382 11.67716086 64.00576882 11.72740483 55.21242273 C11.83041482 37.14166732 11.91938452 19.07086824 12 1 C8.04 1 4.08 1 0 1 C0 0.67 0 0.34 0 0 Z " fill="#FEC640" transform="translate(296,100)"/>
<path d="M0 0 C0.78008423 0.00366577 1.56016846 0.00733154 2.3638916 0.0111084 C4.26735633 0.02058563 6.17079458 0.03515423 8.07421875 0.05078125 C8.14460922 18.8890316 8.19735296 37.72725489 8.22965527 56.56560993 C8.24505905 65.3145369 8.26602285 74.06338168 8.30053711 82.81225586 C8.3306399 90.44658968 8.34984076 98.08086391 8.35648423 105.71525544 C8.36036152 109.74961527 8.36933443 113.78380481 8.39140892 117.81810951 C8.61694558 160.73669101 8.61694558 160.73669101 3.07421875 169.05078125 C3.21632782 167.8530307 3.35843689 166.65528015 3.50485229 165.42123413 C5.31518722 148.8628612 5.33932419 132.3717322 5.27700663 115.74232531 C5.26430139 111.76526642 5.26331349 107.78820276 5.26095581 103.81112671 C5.25479808 96.31781197 5.23846663 88.82455726 5.21825683 81.33126867 C5.19571749 72.7843758 5.18485958 64.2374797 5.17486596 55.69056439 C5.15409365 38.14393559 5.11903177 20.59736481 5.07421875 3.05078125 C0.0241228 2.11292043 0.0241228 2.11292043 -4.92578125 3.05078125 C-6.90220994 3.22993953 -8.88224017 3.37061942 -10.86328125 3.48828125 C-16.4647442 3.87048398 -21.86251762 4.65561641 -27.3671875 5.74609375 C-29.90413607 6.04820366 -31.52404361 5.85324418 -33.92578125 5.05078125 C-22.61313058 1.99330809 -11.73537949 -0.10599536 0 0 Z " fill="#EB7436" transform="translate(299.92578125,100.94921875)"/>
<path d="M0 0 C-1 3 -1 3 -4 5 C-4 5.66 -4 6.32 -4 7 C-5.32 7 -6.64 7 -8 7 C-8 7.99 -8 8.98 -8 10 C-6.329375 10.433125 -6.329375 10.433125 -4.625 10.875 C-1 12 -1 12 1 14 C2.051875 13.938125 2.051875 13.938125 3.125 13.875 C6.54673717 14.02377118 8.5894638 15.38244328 11.55078125 16.984375 C15.54268501 18.63970989 19.68099055 19.00687075 23.94921875 19.5078125 C27 20 27 20 29.39453125 20.9921875 C36.00965216 23.5509599 43.41646253 23.1368204 50.40625 23.09765625 C51.85420959 23.09553383 51.85420959 23.09553383 53.3314209 23.09336853 C56.38764665 23.0878108 59.44379673 23.0752663 62.5 23.0625 C64.58333227 23.05747953 66.6666657 23.05291758 68.75 23.04882812 C73.83336209 23.03785524 78.91666826 23.02062011 84 23 C68.65622771 30.90497645 44.42602674 28.4115594 28 25 C26.65273542 24.36195583 25.31805688 23.69638228 24 23 C22.13644402 22.47809503 20.25956116 22.00256243 18.375 21.5625 C9.23030556 19.32614615 1.21637084 16.84058614 -7.140625 12.40234375 C-10.03990456 10.98042932 -12.91819481 9.95280663 -16 9 C-13.19033482 6.86875056 -10.34662302 4.80606146 -7.4375 2.8125 C-6.67308594 2.28269531 -5.90867188 1.75289063 -5.12109375 1.20703125 C-3 0 -3 0 0 0 Z " fill="#F4E261" transform="translate(252,347)"/>
<path d="M0 0 C0.33 0 0.66 0 1 0 C1.74668723 5.31207248 2.11933785 10.4042139 2.09765625 15.78125 C2.0962413 16.48020386 2.09482635 17.17915771 2.09336853 17.89929199 C2.0878367 20.09957429 2.07529777 22.29974923 2.0625 24.5 C2.05747616 26.00520685 2.05291482 27.51041532 2.04882812 29.015625 C2.03788977 32.67711735 2.02067359 36.33854817 2 40 C1.34 40 0.68 40 0 40 C0.05027344 41.10601562 0.10054688 42.21203125 0.15234375 43.3515625 C0.15119125 48.58158774 -1.09759096 53.3475727 -2.4375 58.375 C-2.66759766 59.27605469 -2.89769531 60.17710937 -3.13476562 61.10546875 C-4.82979911 67.65959821 -4.82979911 67.65959821 -6 70 C-6.66 70 -7.32 70 -8 70 C-8.12375 70.9075 -8.2475 71.815 -8.375 72.75 C-8.92109677 75.58970323 -9.57263803 77.52590591 -11 80 C-11.66 80 -12.32 80 -13 80 C-13.495 80.99 -13.495 80.99 -14 82 C-14.1875 79.625 -14.1875 79.625 -14 77 C-12.515 76.01 -12.515 76.01 -11 75 C-10.27238843 72.41763314 -10.27238843 72.41763314 -9.9375 69.5 C-9.20610687 64.20610687 -9.20610687 64.20610687 -7 62 C-6.35232207 59.42938689 -6.35232207 59.42938689 -6 57 C-8.97 59.475 -8.97 59.475 -12 62 C-12.33 60.02 -12.66 58.04 -13 56 C-11.515 55.505 -11.515 55.505 -10 55 C-8.58365167 52.16730334 -8.6536995 49.52533562 -8.4375 46.375 C-8.31181641 44.59222656 -8.31181641 44.59222656 -8.18359375 42.7734375 C-8.09271484 41.40058594 -8.09271484 41.40058594 -8 40 C-7.34 40 -6.68 40 -6 40 C-6 44.62 -6 49.24 -6 54 C-5.34 54 -4.68 54 -4 54 C-1.59465206 35.99722651 -0.3718475 18.15684087 0 0 Z " fill="#FCDA3A" transform="translate(448,216)"/>
<path d="M0 0 C1.60522809 5.4845293 0.79579548 10.28108177 -1.5625 15.375 C-3.2048516 19.5165823 -3.20674819 22.57108994 -3.0078125 26.9609375 C-3.00523438 27.63382813 -3.00265625 28.30671875 -3 29 C-3.33 29.33 -3.66 29.66 -4 30 C-4.04063832 31.66617115 -4.042721 33.33388095 -4 35 C-3.34 35 -2.68 35 -2 35 C-2 40.28 -2 45.56 -2 51 C-2.99 51.495 -2.99 51.495 -4 52 C-4.33 47.71 -4.66 43.42 -5 39 C-5.02703562 41.58340384 -5.04685611 44.16652308 -5.0625 46.75 C-5.07087891 47.47960937 -5.07925781 48.20921875 -5.08789062 48.9609375 C-5.10391684 52.48670558 -4.95292713 55.61034916 -4 59 C-3.34 57.68 -2.68 56.36 -2 55 C-1.97312721 56.81242052 -1.95366285 58.62495233 -1.9375 60.4375 C-1.92589844 61.44683594 -1.91429687 62.45617187 -1.90234375 63.49609375 C-2 66 -2 66 -3 67 C-3.22067052 73.06843919 -2.69150752 78.97400589 -2 85 C-4.70139434 82.29860566 -4.80613026 80.03890797 -5.5625 76.3125 C-5.81128906 75.11238281 -6.06007813 73.91226563 -6.31640625 72.67578125 C-10.88005966 48.13636493 -8.16699762 23.40345168 0 0 Z " fill="#3F80E9" transform="translate(32,189)"/>
<path d="M0 0 C1.08557659 3.24215827 0.94015194 5.02321809 -0.3125 8.1875 C-0.70888672 9.22970703 -0.70888672 9.22970703 -1.11328125 10.29296875 C-2 12 -2 12 -4 13 C-4.78832057 15.35901211 -5.45699901 17.6562942 -6.0625 20.0625 C-6.32691895 21.08162476 -6.32691895 21.08162476 -6.59667969 22.12133789 C-7.76734687 26.75034181 -8.61199496 31.2469383 -9 36 C-9.66 36 -10.32 36 -11 36 C-11.33 87.81 -11.66 139.62 -12 193 C-12.33 193 -12.66 193 -13 193 C-13.02332717 172.28624779 -13.04097828 151.57249775 -13.05181217 130.85873508 C-13.05697552 121.24167505 -13.06401895 111.62462316 -13.07543945 102.00756836 C-13.08538512 93.62848831 -13.09185315 85.24941416 -13.09408849 76.87032837 C-13.0953958 72.43083875 -13.09848292 67.99136601 -13.10573006 63.55188179 C-13.11248842 59.37822727 -13.11461734 55.20459667 -13.11310768 51.03093719 C-13.11338409 49.4945888 -13.11539031 47.95823966 -13.11920547 46.42189598 C-13.12413987 44.33340383 -13.12299925 42.24500343 -13.12025452 40.1565094 C-13.12117631 38.98491052 -13.1220981 37.81331163 -13.12304783 36.60620975 C-13 34 -13 34 -12 33 C-11.72131605 31.60960943 -11.47831069 30.21204454 -11.25 28.8125 C-10.36665563 24.22973597 -9.08434651 19.84418407 -7.5625 15.4375 C-7.15128906 14.23996094 -6.74007812 13.04242188 -6.31640625 11.80859375 C-5.88199219 10.88175781 -5.44757813 9.95492187 -5 9 C-4.01 8.67 -3.02 8.34 -2 8 C-2.061875 6.8553125 -2.061875 6.8553125 -2.125 5.6875 C-2 3 -2 3 0 0 Z " fill="#7674AE" transform="translate(178,180)"/>
<path d="M0 0 C0.86555511 -0.00073517 1.73111023 -0.00147034 2.62289429 -0.00222778 C15.9993478 0.02762036 28.37202543 0.87109847 41.0625 5.4375 C42.34447266 5.89479492 42.34447266 5.89479492 43.65234375 6.36132812 C48.84993318 8.25031988 53.97081347 10.28021645 59.0625 12.4375 C55.36831799 13.668894 52.8568739 13.08182764 49.0625 12.4375 C49.0625 11.7775 49.0625 11.1175 49.0625 10.4375 C47.91652344 10.17195313 46.77054687 9.90640625 45.58984375 9.6328125 C44.05987464 9.27613258 42.52992791 8.91935663 41 8.5625 C40.24783203 8.38847656 39.49566406 8.21445313 38.72070312 8.03515625 C35.26156342 7.22652619 31.85186395 6.37569525 28.44140625 5.375 C3.73867133 -1.47893801 -26.20733772 1.20053962 -49.9375 10.4375 C-50.5975 11.0975 -51.2575 11.7575 -51.9375 12.4375 C-55.0625 12.5625 -55.0625 12.5625 -57.9375 12.4375 C-57.9375 13.0975 -57.9375 13.7575 -57.9375 14.4375 C-61.44526784 16.04105101 -64.08104879 16.65786864 -67.9375 16.4375 C-64.14884365 13.07624465 -60.34421239 11.13364724 -55.625 9.4375 C-54.92858398 9.18258789 -54.23216797 8.92767578 -53.51464844 8.66503906 C-46.13304732 6.03656592 -38.61415091 4.00825687 -30.9375 2.4375 C-30.11628662 2.26017334 -29.29507324 2.08284668 -28.44897461 1.90014648 C-19.00016782 0.07010152 -9.58968886 -0.00353893 0 0 Z " fill="#5D8DDB" transform="translate(166.9375,100.5625)"/>
<path d="M0 0 C2.0625 0.4375 2.0625 0.4375 4 1 C1.34946654 3.75270822 -1.36558492 6.10700031 -4.4375 8.375 C-7.26216755 10.52712766 -9.67139693 12.58868122 -11.875 15.375 C-14 18 -14 18 -17 19 C-20.34117425 22.6645137 -22.60689081 26.69240347 -25 31 C-25.99 32.485 -25.99 32.485 -27 34 C-27.99 34 -28.98 34 -30 34 C-30.268125 34.86625 -30.53625 35.7325 -30.8125 36.625 C-32.73642321 42.09299228 -34.75636137 46.03014451 -39 50 C-39.66 50.99 -40.32 51.98 -41 53 C-40.45048177 48.42354352 -38.45767256 45.1064246 -36 41.3125 C-33.35684469 37.23886868 -33.35684469 37.23886868 -31 33 C-30.34 33 -29.68 33 -29 33 C-28.89429688 32.4328125 -28.78859375 31.865625 -28.6796875 31.28125 C-27.88797047 28.62399285 -26.69519819 26.78108394 -25.125 24.5 C-24.61195313 23.7471875 -24.09890625 22.994375 -23.5703125 22.21875 C-23.05210937 21.4865625 -22.53390625 20.754375 -22 20 C-21.48179687 19.2471875 -20.96359375 18.494375 -20.4296875 17.71875 C-19.95789063 17.1515625 -19.48609375 16.584375 -19 16 C-18.34 16 -17.68 16 -17 16 C-16.73646729 15.39696045 -16.47293457 14.7939209 -16.20141602 14.17260742 C-14.93607537 11.88440047 -13.84022725 10.80812655 -11.77734375 9.23828125 C-11.15666016 8.75939453 -10.53597656 8.28050781 -9.89648438 7.78710938 C-9.25001953 7.30048828 -8.60355469 6.81386719 -7.9375 6.3125 C-6.65470491 5.3297442 -5.3721407 4.34668693 -4.08984375 3.36328125 C-3.07019531 2.58339844 -2.05054688 1.80351562 -1 1 C-0.67 0.67 -0.34 0.34 0 0 Z " fill="#8970AB" transform="translate(220,127)"/>
<path d="M0 0 C1.65 0.33 3.3 0.66 5 1 C4.67 2.32 4.34 3.64 4 5 C5.918125 5.4640625 5.918125 5.4640625 7.875 5.9375 C10.10101675 6.47605244 11.94739999 6.9737 14 8 C14 8.66 14 9.32 14 10 C15.1446875 9.938125 15.1446875 9.938125 16.3125 9.875 C19 10 19 10 22 12 C24.02045309 12.54190296 24.02045309 12.54190296 26.23046875 12.8515625 C27.03291016 12.98046875 27.83535156 13.109375 28.66210938 13.2421875 C29.91217773 13.43167969 29.91217773 13.43167969 31.1875 13.625 C32.03248047 13.7590625 32.87746094 13.893125 33.74804688 14.03125 C35.83099945 14.36075662 37.91537427 14.68124989 40 15 C40 15.66 40 16.32 40 17 C46.27 17.33 52.54 17.66 59 18 C59 18.33 59 18.66 59 19 C35.78352247 20.26635332 11.62467869 13.42089029 -9 3 C-6.29120665 1.64560332 -3.99066732 1.93498549 -1 2 C-0.67 1.34 -0.34 0.68 0 0 Z " fill="#3F82ED" transform="translate(108,355)"/>
<path d="M0 0 C2.58253564 3.87380345 4.05040054 8.05175232 5.70117188 12.375 C6.85403055 15.3352816 8.04169051 18.06874601 9.69140625 20.7890625 C11 23 11 23 11 26 C11.66 26 12.32 26 13 26 C15.18326108 30.27113698 17.31326082 34.50202887 19 39 C19.99 39 20.98 39 22 39 C23.4606285 41.64738916 24 42.89448334 24 46 C24.5775 46.0825 25.155 46.165 25.75 46.25 C29.6277117 47.54257057 31.5181649 50.19051703 33.5625 53.625 C34.92617739 56.25743604 34.92617739 56.25743604 38 58 C38 58.99 38 59.98 38 61 C38.5775 61.268125 39.155 61.53625 39.75 61.8125 C42.05550043 63.02929189 44.02056192 64.30333879 46 66 C46 66.66 46 67.32 46 68 C47.32 68.33 48.64 68.66 50 69 C50 69.66 50 70.32 50 71 C40.43405655 67.85739764 33.28000413 58.5453781 27 51 C26.41992188 50.34644531 25.83984375 49.69289063 25.2421875 49.01953125 C24.68789063 48.39433594 24.13359375 47.76914062 23.5625 47.125 C23.06878906 46.57070313 22.57507813 46.01640625 22.06640625 45.4453125 C21 44 21 44 21 42 C20.34 42 19.68 42 19 42 C10.73069292 31.9687667 0 13.08552064 0 0 Z " fill="#4980D3" transform="translate(30,274)"/>
<path d="M0 0 C4.02979299 0.90344681 7.05771885 2.31553742 10.68359375 4.27734375 C15.70990261 6.90722039 20.17132487 8.76085622 25.74609375 9.83984375 C27.83234204 10.32753816 29.91552194 10.82847429 31.99609375 11.33984375 C32.99125 11.57703125 33.98640625 11.81421875 35.01171875 12.05859375 C37.74609375 12.83984375 37.74609375 12.83984375 39.83984375 13.89453125 C43.01267868 15.46794529 46.24548367 15.48978274 49.74609375 15.83984375 C49.74609375 16.16984375 49.74609375 16.49984375 49.74609375 16.83984375 C42.68001184 16.97779329 35.7724879 16.58790092 28.74609375 15.83984375 C29.07609375 14.84984375 29.40609375 13.85984375 29.74609375 12.83984375 C28.98296875 12.73671875 28.21984375 12.63359375 27.43359375 12.52734375 C24.23050913 11.93015848 21.09445843 11.25094421 17.93359375 10.46484375 C16.97839844 10.23023438 16.02320313 9.995625 15.0390625 9.75390625 C14.28238281 9.45226562 13.52570313 9.150625 12.74609375 8.83984375 C12.41609375 7.84984375 12.08609375 6.85984375 11.74609375 5.83984375 C10.67359375 5.71609375 9.60109375 5.59234375 8.49609375 5.46484375 C4.74609375 4.83984375 4.74609375 4.83984375 2.68359375 3.71484375 C-0.20526262 2.41019894 -2.24556241 3.07175596 -5.25390625 3.83984375 C-6.24390625 4.49984375 -7.23390625 5.15984375 -8.25390625 5.83984375 C-10.515625 6.25390625 -10.515625 6.25390625 -12.94140625 6.46484375 C-13.74964844 6.53960937 -14.55789062 6.614375 -15.390625 6.69140625 C-16.31294922 6.76488281 -16.31294922 6.76488281 -17.25390625 6.83984375 C-15.04558743 4.63152493 -13.75732749 4.22839795 -10.81640625 3.33984375 C-6.85256458 2.13828384 -4.13564154 -0.20355499 0 0 Z " fill="#FDF4B8" transform="translate(238.25390625,356.16015625)"/>
<path d="M0 0 C0.33 0.99 0.66 1.98 1 3 C-0.8125 5.6875 -0.8125 5.6875 -3 8 C-3.66 8 -4.32 8 -5 8 C-5.04898437 9.03640625 -5.09796875 10.0728125 -5.1484375 11.140625 C-6.1684735 15.76354044 -8.15194608 17.79832463 -11.625 20.75 C-12.13417969 21.21792969 -12.64335937 21.68585938 -13.16796875 22.16796875 C-16.84567967 25.42168292 -20.41207051 27.26652538 -25 29 C-27.1519437 25.77208445 -27.20086443 24.71599191 -27 21 C-26.34 21.33 -25.68 21.66 -25 22 C-24.67 22.99 -24.34 23.98 -24 25 C-23.34 25.33 -22.68 25.66 -22 26 C-22 25.34 -22 24.68 -22 24 C-19.625 21.375 -19.625 21.375 -17 19 C-16.34 19 -15.68 19 -15 19 C-14.67 17.35 -14.34 15.7 -14 14 C-15.32 14.33 -16.64 14.66 -18 15 C-18.33 13.68 -18.66 12.36 -19 11 C-17.7625 11.37125 -16.525 11.7425 -15.25 12.125 C-12.56213635 12.79101931 -11.28087802 13.07202 -8.5625 12.375 C-6.82619446 11.10954832 -6.82619446 11.10954832 -6.5 9 C-6.335 8.34 -6.17 7.68 -6 7 C-4.66666667 6.33333333 -3.33333333 5.66666667 -2 5 C-1.26676204 2.98491642 -1.26676204 2.98491642 -1 1 C-0.67 0.67 -0.34 0.34 0 0 Z " fill="#F3DF41" transform="translate(427,309)"/>
<path d="M0 0 C13.50347777 -0.21987126 26.64779643 -0.19918647 40 2 C40 2.66 40 3.32 40 4 C41.155 4.12375 42.31 4.2475 43.5 4.375 C47.78350375 4.90278885 51.83352672 5.88398037 56 7 C56 7.33 56 7.66 56 8 C50.84876235 8.2102546 46.92412166 7.40912035 42 6 C32.73276149 4.4210607 23.37575752 3.6008074 14 3 C14 4.65 14 6.3 14 8 C13.67 8 13.34 8 13 8 C13 5.69 13 3.38 13 1 C8.71 1 4.42 1 0 1 C0 0.67 0 0.34 0 0 Z " fill="#F5DB66" transform="translate(296,100)"/>
<path d="M0 0 C1.32 0 2.64 0 4 0 C4 0.99 4 1.98 4 3 C3.01 3.33 2.02 3.66 1 4 C3.77415366 3.44516927 5.89625859 2.58387994 8.5 1.375 C12 0 12 0 14.4375 0.3125 C15.2109375 0.6528125 15.2109375 0.6528125 16 1 C11.02583477 4.70208363 5.97894007 6.65918952 0.125 8.625 C-1.16470703 9.07359375 -1.16470703 9.07359375 -2.48046875 9.53125 C-15.51102738 14 -15.51102738 14 -22 14 C-22 13.34 -22 12.68 -22 12 C-19.36 12 -16.72 12 -14 12 C-14 11.34 -14 10.68 -14 10 C-13.1028125 9.5978125 -13.1028125 9.5978125 -12.1875 9.1875 C-9.98271274 8.13430869 -9.98271274 8.13430869 -8.5625 6.5 C-7 5 -7 5 -4.4375 4 C-1.68761678 3.13727591 -1.68761678 3.13727591 0 0 Z " fill="#FC5F4D" transform="translate(220,355)"/>
<path d="M0 0 C0.66 0 1.32 0 2 0 C1.29445932 3.66881155 -0.27735506 6.70450534 -2 10 C-2.66 10 -3.32 10 -4 10 C-4.309375 10.94875 -4.61875 11.8975 -4.9375 12.875 C-6 16 -6 16 -7 18 C-7.66 18 -8.32 18 -9 18 C-9.33 18.99 -9.66 19.98 -10 21 C-10.66 21 -11.32 21 -12 21 C-12.226875 21.556875 -12.45375 22.11375 -12.6875 22.6875 C-14.38143236 25.67204749 -16.51614698 27.62654045 -19 30 C-19.598125 30.61875 -20.19625 31.2375 -20.8125 31.875 C-21.43125 32.514375 -22.05 33.15375 -22.6875 33.8125 C-23.26886719 34.41707031 -23.85023438 35.02164063 -24.44921875 35.64453125 C-26 37 -26 37 -28 37 C-28 37.66 -28 38.32 -28 39 C-28.66 39 -29.32 39 -30 39 C-30 39.66 -30 40.32 -30 41 C-31.485 41.495 -31.485 41.495 -33 42 C-31.54682061 38.6092481 -29.58699688 36.58699688 -27 34 C-26.67 33.01 -26.34 32.02 -26 31 C-25.34 31 -24.68 31 -24 31 C-23.67 30.01 -23.34 29.02 -23 28 C-21.01679982 26.96708324 -19.01652194 25.9662501 -17 25 C-16.67 24.34 -16.34 23.68 -16 23 C-15.34 23 -14.68 23 -14 23 C-13.67 22.01 -13.34 21.02 -13 20 C-12.34 20 -11.68 20 -11 20 C-10.9175 19.0925 -10.835 18.185 -10.75 17.25 C-9.88898034 13.51891482 -8.77159859 12.51963508 -6 10 C-5.31822584 8.67432801 -4.64808564 7.34246312 -4 6 C-3.34 5.67 -2.68 5.34 -2 5 C-1.27840576 3.35636866 -0.60648579 1.68949614 0 0 Z " fill="#E87B2F" transform="translate(289,300)"/>
<path d="M0 0 C4.13646914 5.03570157 4.15809124 9.36894978 4.16796875 15.73046875 C4.17129715 16.48032547 4.17462555 17.23018219 4.17805481 18.00276184 C4.18310975 19.58883045 4.18546358 21.17490967 4.18530273 22.76098633 C4.18747673 25.16180482 4.20561269 27.5621541 4.22460938 29.96289062 C4.29187875 47.82279412 4.29187875 47.82279412 0 56 C0 53.36 0 50.72 0 48 C0.66 48 1.32 48 2 48 C1.39084778 23.98161299 1.39084778 23.98161299 0 0 Z " fill="#FEF8CC" transform="translate(448,208)"/>
<path d="M0 0 C0.33 0 0.66 0 1 0 C1.74668723 5.31207248 2.11933785 10.4042139 2.09765625 15.78125 C2.0962413 16.48020386 2.09482635 17.17915771 2.09336853 17.89929199 C2.0878367 20.09957429 2.07529777 22.29974923 2.0625 24.5 C2.05747616 26.00520685 2.05291482 27.51041532 2.04882812 29.015625 C2.03788977 32.67711735 2.02067359 36.33854817 2 40 C1.34 40 0.68 40 0 40 C0.061875 41.7325 0.061875 41.7325 0.125 43.5 C0.14087433 47.94481301 -0.78206895 51.73724131 -2 56 C-2.33 56 -2.66 56 -3 56 C-2.85585213 53.58322291 -2.70969243 51.16659218 -2.5625 48.75 C-2.52318359 48.08742188 -2.48386719 47.42484375 -2.44335938 46.7421875 C-2.19013698 42.61271461 -1.869135 38.49580115 -1.5 34.375 C-0.9034178 27.34078892 -0.66209308 20.3044317 -0.4375 13.25 C-0.39431641 11.96867188 -0.35113281 10.68734375 -0.30664062 9.3671875 C-0.20178666 6.24486934 -0.09961982 3.12248879 0 0 Z " fill="#F4E157" transform="translate(448,216)"/>
<path d="M0 0 C0.66 0 1.32 0 2 0 C2.01458252 0.72888428 2.02916504 1.45776855 2.04418945 2.20874023 C2.33581891 15.29290686 2.68000337 28.0244191 5.4765625 40.83984375 C5.95622941 43.73574325 6.01681306 45.29527727 5 48 C-1.50717994 38.23923009 -0.1306604 26.20454328 -0.0625 14.9375 C-0.05747414 13.48502759 -0.05291316 12.03255349 -0.04882812 10.58007812 C-0.03791042 7.05334985 -0.02070586 3.52668598 0 0 Z " fill="#E1F6FE" transform="translate(22,224)"/>
<path d="M0 0 C1.08557659 3.24215827 0.94015194 5.02321809 -0.3125 8.1875 C-0.70888672 9.22970703 -0.70888672 9.22970703 -1.11328125 10.29296875 C-2 12 -2 12 -4 13 C-4.78832057 15.35901211 -5.45699901 17.6562942 -6.0625 20.0625 C-6.32691895 21.08162476 -6.32691895 21.08162476 -6.59667969 22.12133789 C-7.76734687 26.75034181 -8.61199496 31.2469383 -9 36 C-9.66 36 -10.32 36 -11 36 C-11.33 43.92 -11.66 51.84 -12 60 C-12.33 60 -12.66 60 -13 60 C-13.02886537 55.68751391 -13.04675255 51.37505238 -13.0625 47.0625 C-13.07087891 45.83080078 -13.07925781 44.59910156 -13.08789062 43.33007812 C-13.09111328 42.16025391 -13.09433594 40.99042969 -13.09765625 39.78515625 C-13.10289307 38.70113525 -13.10812988 37.61711426 -13.11352539 36.50024414 C-13 34 -13 34 -12 33 C-11.72131605 31.60960943 -11.47831069 30.21204454 -11.25 28.8125 C-10.36665563 24.22973597 -9.08434651 19.84418407 -7.5625 15.4375 C-7.15128906 14.23996094 -6.74007812 13.04242188 -6.31640625 11.80859375 C-5.88199219 10.88175781 -5.44757813 9.95492187 -5 9 C-4.01 8.67 -3.02 8.34 -2 8 C-2.061875 6.8553125 -2.061875 6.8553125 -2.125 5.6875 C-2 3 -2 3 0 0 Z " fill="#6E71C2" transform="translate(178,180)"/>
<path d="M0 0 C0.66 0.33 1.32 0.66 2 1 C-2.60554371 5.73347548 -2.60554371 5.73347548 -5.3125 7.5625 C-5.869375 8.036875 -6.42625 8.51125 -7 9 C-7 10.32 -7 11.64 -7 13 C-7.99 13 -8.98 13 -10 13 C-10.598125 13.969375 -11.19625 14.93875 -11.8125 15.9375 C-14 19 -14 19 -17.25 19.875 C-18.1575 19.91625 -19.065 19.9575 -20 20 C-20.33 21.65 -20.66 23.3 -21 25 C-21.66 25 -22.32 25 -23 25 C-23.433125 25.86625 -23.433125 25.86625 -23.875 26.75 C-24.91666667 28.83333333 -25.95833333 30.91666667 -27 33 C-27.99 32.34 -28.98 31.68 -30 31 C-28.625 29 -28.625 29 -27 27 C-26.34 27 -25.68 27 -25 27 C-24.938125 26.46375 -24.87625 25.9275 -24.8125 25.375 C-23.59964736 21.82973843 -21.55389074 19.7407608 -19 17 C-18.34 17 -17.68 17 -17 17 C-16.67 16.01 -16.34 15.02 -16 14 C-15.34 14 -14.68 14 -14 14 C-13.67 13.01 -13.34 12.02 -13 11 C-12.34 11 -11.68 11 -11 11 C-11 10.34 -11 9.68 -11 9 C-9.21895282 7.39821407 -7.37462722 5.86618074 -5.5 4.375 C-4.4790625 3.55773437 -3.458125 2.74046875 -2.40625 1.8984375 C-1.6121875 1.27195313 -0.818125 0.64546875 0 0 Z " fill="#4A89E7" transform="translate(78,129)"/>
<path d="M0 0 C3.91211733 1.15585285 6.8745041 2.35534962 10 5 C6.96017445 9.55973832 3.19103832 10.95250573 -1.8125 12.8125 C-6.31738509 14.53376953 -9.66874951 16.78746043 -13.30859375 19.92578125 C-13.86675781 20.28027344 -14.42492187 20.63476562 -15 21 C-15.99 20.67 -16.98 20.34 -18 20 C-18 19.01 -18 18.02 -18 17 C-16.68 16.67 -15.36 16.34 -14 16 C-14 15.34 -14 14.68 -14 14 C-12.6078125 13.87625 -12.6078125 13.87625 -11.1875 13.75 C-7.41657872 12.8627244 -7.19718597 11.96142457 -5 9 C-3.33391013 8.95615553 -1.66619446 8.9603287 0 9 C3.69598454 7.217991 3.69598454 7.217991 6 4 C4.02 3.34 2.04 2.68 0 2 C0 1.34 0 0.68 0 0 Z " fill="#327EF2" transform="translate(226,114)"/>
<path d="M0 0 C1.32 0 2.64 0 4 0 C4.33 0.66 4.66 1.32 5 2 C9.84911616 4.79717437 14.32808998 6.58173436 20 6 C20.33 5.01 20.66 4.02 21 3 C23.31 3 25.62 3 28 3 C28 4.32 28 5.64 28 7 C26.35 7.33 24.7 7.66 23 8 C23 8.99 23 9.98 23 11 C25.44496043 12.71711243 25.44496043 12.71711243 28 14 C27.67 14.99 27.34 15.98 27 17 C24 16 24 16 22 13 C19.43268481 11.59833801 16.89189466 10.30532679 14.25 9.0625 C9.23569273 6.67932649 4.4986715 4.27497627 0 1 C0 0.67 0 0.34 0 0 Z " fill="#FDFEED" transform="translate(368,112)"/>
<path d="M0 0 C0.33 0.99 0.66 1.98 1 3 C-0.07421875 4.97265625 -0.07421875 4.97265625 -1.6875 7.0625 C-2.20699219 7.75472656 -2.72648437 8.44695312 -3.26171875 9.16015625 C-5.06223358 11.0658697 -6.60035853 11.99100043 -9 13 C-9 13.66 -9 14.32 -9 15 C-9.66 15 -10.32 15 -11 15 C-11.061875 15.556875 -11.12375 16.11375 -11.1875 16.6875 C-12.40697119 20.15830262 -14.14665258 21.68165522 -17 24 C-19.94119469 25.24150932 -22.91832109 26.17419062 -26 27 C-24.625 25 -24.625 25 -23 23 C-22.34 23 -21.68 23 -21 23 C-21 22.34 -21 21.68 -21 21 C-20.34 21 -19.68 21 -19 21 C-19 20.34 -19 19.68 -19 19 C-17.35546875 17.30859375 -17.35546875 17.30859375 -15.1875 15.4375 C-14.47980469 14.81746094 -13.77210938 14.19742187 -13.04296875 13.55859375 C-11 12 -11 12 -8 11 C-7.28891701 9.68981559 -6.62746983 8.35222181 -6 7 C-4.99564028 5.71983165 -3.95309739 4.46871878 -2.875 3.25 C-2.33617187 2.63640625 -1.79734375 2.0228125 -1.2421875 1.390625 C-0.83226562 0.93171875 -0.42234375 0.4728125 0 0 Z " fill="#FDC441" transform="translate(280,318)"/>
<path d="M0 0 C1.32 0 2.64 0 4 0 C4.33 1.98 4.66 3.96 5 6 C5.66 6 6.32 6 7 6 C7 6.66 7 7.32 7 8 C7.66 8 8.32 8 9 8 C13.86139809 18.26295152 17.35256292 28.96901217 20 40 C20.495 40.495 20.495 40.495 21 41 C21.04063832 42.66617115 21.042721 44.33388095 21 46 C20.34 46 19.68 46 19 46 C18.81824219 45.14277344 18.63648438 44.28554687 18.44921875 43.40234375 C17.10508845 37.28827415 15.68115871 31.68405646 13 26 C12.25923989 24.23398494 11.53071404 22.46280372 10.8125 20.6875 C10.46832031 19.84574219 10.12414062 19.00398438 9.76953125 18.13671875 C9 16 9 16 9 14 C8.34 14 7.68 14 7 14 C4.66666667 9.33333333 2.33333333 4.66666667 0 0 Z " fill="#FDF5BF" transform="translate(427,162)"/>
<path d="M0 0 C-0.33 0.99 -0.66 1.98 -1 3 C-2.51980469 3.07347656 -2.51980469 3.07347656 -4.0703125 3.1484375 C-5.42189911 3.22352564 -6.77346038 3.29907081 -8.125 3.375 C-8.79015625 3.4059375 -9.4553125 3.436875 -10.140625 3.46875 C-14.39821262 3.71919633 -18.02085783 4.47528197 -22 6 C-22 7.98 -22 9.96 -22 12 C-23.32 12 -24.64 12 -26 12 C-26 10.02 -26 8.04 -26 6 C-26.66 6 -27.32 6 -28 6 C-28 5.34 -28 4.68 -28 4 C-19.4047663 -0.59745058 -9.54401202 -0.18713749 0 0 Z " fill="#FCE9E0" transform="translate(188,372)"/>
<path d="M0 0 C0.33 0 0.66 0 1 0 C1.37705922 5.1531427 0.02042284 8.31261901 -2 13 C-2.1546875 14.918125 -2.1546875 14.918125 -2.3125 16.875 C-2.7245755 21.39906296 -4.89595834 24.27532114 -7.515625 27.88671875 C-9.18029118 30.12943831 -9.18029118 30.12943831 -10.625 33.4375 C-12.12267635 36.22862411 -13.05120783 36.98317511 -16 38 C-14.35433477 32.31497465 -11.70967216 27.23318364 -9 22 C-8.34 22 -7.68 22 -7 22 C-6.8865625 21.13632812 -6.773125 20.27265625 -6.65625 19.3828125 C-5.98515144 15.92345923 -4.91624112 13.09447837 -3.5 9.875 C-2.06646284 6.59953428 -0.7378709 3.50488679 0 0 Z " fill="#FEC343" transform="translate(303,272)"/>
<path d="M0 0 C-0.99 1.98 -1.98 3.96 -3 6 C-3.66 6 -4.32 6 -5 6 C-5.185625 6.78375 -5.37125 7.5675 -5.5625 8.375 C-7.5865286 13.47907213 -10.75054976 17.60368497 -14 22 C-14.33 21.01 -14.66 20.02 -15 19 C-13.5625 16.3125 -13.5625 16.3125 -12 14 C-12.99 14.33 -13.98 14.66 -15 15 C-15.33 13.35 -15.66 11.7 -16 10 C-14.35 9.34 -12.7 8.68 -11 8 C-10.67 9.32 -10.34 10.64 -10 12 C-10 11.34 -10 10.68 -10 10 C-9.34 9.67 -8.68 9.34 -8 9 C-8.061875 8.071875 -8.12375 7.14375 -8.1875 6.1875 C-8 3 -8 3 -6.8125 1.125 C-4.43963721 -0.34781139 -2.74086056 -0.22223194 0 0 Z " fill="#4B79DF" transform="translate(194,154)"/>
<path d="M0 0 C1.8871875 0.061875 1.8871875 0.061875 3.8125 0.125 C4.1425 1.445 4.4725 2.765 4.8125 4.125 C2.1725 4.455 -0.4675 4.785 -3.1875 5.125 C-2.1975 6.61 -2.1975 6.61 -1.1875 8.125 C-5.21742782 7.57187265 -9.20772924 6.9691938 -13.1875 6.125 C-13.1875 5.465 -13.1875 4.805 -13.1875 4.125 C-15.8275 4.125 -18.4675 4.125 -21.1875 4.125 C-21.1875 3.795 -21.1875 3.465 -21.1875 3.125 C-20.21167969 3.07601562 -19.23585938 3.02703125 -18.23046875 2.9765625 C-16.95816406 2.90179688 -15.68585938 2.82703125 -14.375 2.75 C-12.47814453 2.64558594 -12.47814453 2.64558594 -10.54296875 2.5390625 C-6.41730593 2.02995859 -4.22880983 -0.1386495 0 0 Z " fill="#FBFEED" transform="translate(349.1875,97.875)"/>
<path d="M0 0 C0.33 0 0.66 0 1 0 C1 1.98 1 3.96 1 6 C0.34 6 -0.32 6 -1 6 C-1.2475 7.0725 -1.495 8.145 -1.75 9.25 C-3 13 -3 13 -5.0625 15 C-7.75108528 17.77531384 -7.71076059 20.23988771 -8 24 C-7.01 24.33 -6.02 24.66 -5 25 C-5 26.32 -5 27.64 -5 29 C-5.99 29 -6.98 29 -8 29 C-8.33 28.01 -8.66 27.02 -9 26 C-9.66 26.33 -10.32 26.66 -11 27 C-11.66 26.67 -12.32 26.34 -13 26 C-10.76918992 17.67164237 -6.21803644 6.21803644 0 0 Z " fill="#4882DA" transform="translate(46,163)"/>
<path d="M0 0 C5.44195365 3.1096878 8.44619596 6.90322782 12 12 C12.48855469 12.61875 12.97710937 13.2375 13.48046875 13.875 C15.33135274 16.46338275 16.70798025 19.1517191 18.125 22 C18.90230469 23.546875 18.90230469 23.546875 19.6953125 25.125 C20.75465021 27.45934896 21.50719748 29.49992869 22 32 C20.35 31.67 18.7 31.34 17 31 C16.89042969 30.37351563 16.78085937 29.74703125 16.66796875 29.1015625 C16.43013672 27.87566406 16.43013672 27.87566406 16.1875 26.625 C16.03667969 25.81289062 15.88585937 25.00078125 15.73046875 24.1640625 C15.12455058 21.64179359 15.12455058 21.64179359 12 20 C11.71382813 18.92363281 11.42765625 17.84726563 11.1328125 16.73828125 C9.81497572 12.38941988 8.03558963 10.40661907 4.875 7.1875 C0 2.18130312 0 2.18130312 0 0 Z " fill="#F7E471" transform="translate(412,144)"/>
<path d="M0 0 C16.29896171 -0.78865944 33.2106085 3.15990643 48 10 C48.66 10.66 49.32 11.32 50 12 C46.7 11.67 43.4 11.34 40 11 C40 10.34 40 9.68 40 9 C38.85402344 8.73445313 37.70804688 8.46890625 36.52734375 8.1953125 C34.99737464 7.83863258 33.46742791 7.48185663 31.9375 7.125 C31.18533203 6.95097656 30.43316406 6.77695313 29.65820312 6.59765625 C26.22433014 5.7949327 22.84777288 4.95419715 19.46875 3.9375 C15.50508677 2.86623967 11.63428838 2.32949056 7.5625 1.875 C6.83095703 1.78863281 6.09941406 1.70226562 5.34570312 1.61328125 C3.56439906 1.40371607 1.78227719 1.20112132 0 1 C0 0.67 0 0.34 0 0 Z " fill="#477EDA" transform="translate(176,102)"/>
<path d="M0 0 C0.66 0.33 1.32 0.66 2 1 C1.34 2.32 0.68 3.64 0 5 C-0.66 5 -1.32 5 -2 5 C-2.12117187 5.66386719 -2.24234375 6.32773438 -2.3671875 7.01171875 C-3.22547708 11.53424459 -4.03971311 15.79938524 -6 20 C-6.66 20 -7.32 20 -8 20 C-8 22.64 -8 25.28 -8 28 C-8.66 28.33 -9.32 28.66 -10 29 C-11.00259507 32.00778521 -11.30314642 34.53820647 -11.5625 37.6875 C-11.68818359 39.17830078 -11.68818359 39.17830078 -11.81640625 40.69921875 C-11.87699219 41.45847656 -11.93757812 42.21773437 -12 43 C-12.66 43 -13.32 43 -14 43 C-14.45637085 37.40945704 -13.57664343 32.47592261 -12.1875 27.0625 C-12.02217773 26.38759521 -11.85685547 25.71269043 -11.68652344 25.01733398 C-11.16796875 23.09765625 -11.16796875 23.09765625 -10 20 C-9.01 19.67 -8.02 19.34 -7 19 C-6.9175 18.21625 -6.835 17.4325 -6.75 16.625 C-5.52051991 10.68251292 -3.37016322 5.05524483 0 0 Z " fill="#DD6C65" transform="translate(183,173)"/>
<path d="M0 0 C0.625 1.8125 0.625 1.8125 1 4 C0.01 5.485 0.01 5.485 -1 7 C-1.165 7.86625 -1.33 8.7325 -1.5 9.625 C-1.665 10.40875 -1.83 11.1925 -2 12 C-2.99 12.495 -2.99 12.495 -4 13 C-4.99 14.485 -4.99 14.485 -6 16 C-5.67 13.69 -5.34 11.38 -5 9 C-8.87797662 8.56613908 -8.87797662 8.56613908 -10.75 10.5 C-11.1625 10.995 -11.575 11.49 -12 12 C-12 9.36 -12 6.72 -12 4 C-10.54182203 3.83197949 -9.0834516 3.66562857 -7.625 3.5 C-6.81289062 3.4071875 -6.00078125 3.314375 -5.1640625 3.21875 C-3 3 -3 3 -1 3 C-0.67 2.01 -0.34 1.02 0 0 Z " fill="#4577E9" transform="translate(178,176)"/>
<path d="M0 0 C0 0.66 0 1.32 0 2 C-0.88042969 2.33773437 -1.76085937 2.67546875 -2.66796875 3.0234375 C-4.41013672 3.69246094 -4.41013672 3.69246094 -6.1875 4.375 C-7.33605469 4.81585938 -8.48460937 5.25671875 -9.66796875 5.7109375 C-10.76753906 6.13632813 -11.86710938 6.56171875 -13 7 C-14.41732422 7.51433594 -14.41732422 7.51433594 -15.86328125 8.0390625 C-18.16526187 8.80360422 -18.16526187 8.80360422 -19 11 C-21.64860427 11.59355614 -24.29197322 11.74209269 -27 12 C-21.53264307 5.29006195 -8.68568595 -0.81428306 0 0 Z " fill="#E68771" transform="translate(266,107)"/>
<path d="M0 0 C1.7074998 1.28062485 3.37373596 2.61767557 5 4 C5 4.66 5 5.32 5 6 C5.5775 6.226875 6.155 6.45375 6.75 6.6875 C9.58972308 8.34400513 10.95224536 10.42567988 13 13 C15.26749444 15.08139338 17.6172185 17.05227692 20 19 C19.34 19.33 18.68 19.66 18 20 C13.55761486 17.77880743 10.45457049 15.577948 7 12 C6.01 11.67 5.02 11.34 4 11 C1.82328797 7.67091101 1.02493047 3.80688461 0 0 Z " fill="#EFFBF7" transform="translate(54,322)"/>
<path d="M0 0 C0 0.66 0 1.32 0 2 C5.28 2 10.56 2 16 2 C16 2.33 16 2.66 16 3 C15.32533691 3.01981934 14.65067383 3.03963867 13.95556641 3.06005859 C10.84504139 3.1563811 7.73509211 3.2656181 4.625 3.375 C3.03365234 3.42140625 3.03365234 3.42140625 1.41015625 3.46875 C-4.50691849 3.68655643 -10.08178018 4.22763088 -15.85351562 5.57226562 C-18.9563119 6.19056625 -21.84698957 6.13708741 -25 6 C-23.5 4 -23.5 4 -21 2 C-18.28045481 1.68289888 -15.75156104 1.86685995 -13 2 C-12.34 1.67 -11.68 1.34 -11 1 C-9.50529764 0.77412147 -8.00382898 0.59130069 -6.5 0.4375 C-5.7059375 0.35371094 -4.911875 0.26992187 -4.09375 0.18359375 C-2 0 -2 0 0 0 Z " fill="#FCEEDA" transform="translate(304,97)"/>
<path d="M0 0 C8.73953968 1.01925153 17.40632701 2.05816043 26 4 C26 4.66 26 5.32 26 6 C32.27 6.33 38.54 6.66 45 7 C45 7.33 45 7.66 45 8 C29.53249031 8.84368235 14.66008582 5.88669527 0 1 C0 0.67 0 0.34 0 0 Z " fill="#6C98E2" transform="translate(122,366)"/>
<path d="M0 0 C0.33 0.99 0.66 1.98 1 3 C1.8971875 3.2165625 1.8971875 3.2165625 2.8125 3.4375 C6.72216223 4.44284172 8.56553241 7.27009445 10.5625 10.625 C11.92617739 13.25743604 11.92617739 13.25743604 15 15 C15 15.99 15 16.98 15 18 C15.5775 18.268125 16.155 18.53625 16.75 18.8125 C19.05550043 20.02929189 21.02056192 21.30333879 23 23 C23 23.66 23 24.32 23 25 C24.32 25.33 25.64 25.66 27 26 C27 26.66 27 27.32 27 28 C17.46918991 24.86893964 10.22044227 15.56147268 4 8 C3.49339844 7.39671875 2.98679688 6.7934375 2.46484375 6.171875 C1.30313881 4.78688972 0.15038301 3.39440364 -1 2 C-0.67 1.34 -0.34 0.68 0 0 Z " fill="#4A83DC" transform="translate(53,317)"/>
<path d="M0 0 C-0.66 0.99 -1.32 1.98 -2 3 C-2.928125 2.814375 -3.85625 2.62875 -4.8125 2.4375 C-8.01343771 1.75876119 -8.01343771 1.75876119 -11 3 C-12.97642869 3.17915828 -14.95645892 3.31983817 -16.9375 3.4375 C-22.53896295 3.81970273 -27.93673637 4.60483516 -33.44140625 5.6953125 C-35.97835482 5.99742241 -37.59826236 5.80246293 -40 5 C-26.52765628 1.35882602 -13.91321332 -0.34638705 0 0 Z " fill="#EB6F5F" transform="translate(306,101)"/>
<path d="M0 0 C-0.33 0.66 -0.66 1.32 -1 2 C-2.93359375 2.640625 -2.93359375 2.640625 -5.4375 3.25 C-10.46479587 4.64927604 -14.42480709 6.8481636 -18.7734375 9.6953125 C-20.89106808 10.93616971 -22.6032885 11.55130059 -25 12 C-24.5625 9.6875 -24.5625 9.6875 -23 7 C-20.09888817 5.62197188 -17.09837258 4.81739598 -14 4 C-13.01 3.67 -12.02 3.34 -11 3 C-11 2.34 -11 1.68 -11 1 C-6.8204355 -1.78637633 -4.85331323 -0.79562512 0 0 Z " fill="#FEEBE3" transform="translate(261,107)"/>
<path d="M0 0 C2.875 0.75 2.875 0.75 6 2 C7.125 4.0625 7.125 4.0625 8 6 C8.598125 6.144375 9.19625 6.28875 9.8125 6.4375 C13.0785013 7.27732891 14.64209781 9.64209781 17 12 C17.99 12.495 18.98 12.99 20 13.5 C23.37066347 15.18533173 25.46487611 17.24118871 28 20 C27.67 20.66 27.34 21.32 27 22 C26.29875 21.21625 25.5975 20.4325 24.875 19.625 C21.88701075 16.89683591 19.81041489 16.1258044 16 15 C15.67 14.34 15.34 13.68 15 13 C12.98330173 11.86649466 12.98330173 11.86649466 11 11 C11 10.01 11 9.02 11 8 C8.69 7.34 6.38 6.68 4 6 C4 5.01 4 4.02 4 3 C2.68 2.34 1.36 1.68 0 1 C0 0.67 0 0.34 0 0 Z " fill="#F4E76A" transform="translate(384,122)"/>
<path d="M0 0 C0.495 0.99 0.495 0.99 1 2 C-9.89 2 -20.78 2 -32 2 C-32 1.67 -32 1.34 -32 1 C-27.26155483 -0.13877094 -22.53536744 -0.36845916 -17.6875 -0.625 C-16.46256836 -0.70234375 -16.46256836 -0.70234375 -15.21289062 -0.78125 C-9.9973973 -1.06384247 -5.14502286 -0.96505513 0 0 Z " fill="#C9E4FC" transform="translate(184,99)"/>
<path d="M0 0 C1.25127906 3.54667178 0.72285053 5.72253438 -0.4375 9.25 C-0.72496094 10.14203125 -1.01242187 11.0340625 -1.30859375 11.953125 C-1.53675781 12.62859375 -1.76492188 13.3040625 -2 14 C-2.66 14 -3.32 14 -4 14 C-4.185625 15.36125 -4.185625 15.36125 -4.375 16.75 C-4.92109677 19.58970323 -5.57263803 21.52590591 -7 24 C-7.66 24 -8.32 24 -9 24 C-9.33 24.66 -9.66 25.32 -10 26 C-10.1875 23.625 -10.1875 23.625 -10 21 C-9.01 20.34 -8.02 19.68 -7 19 C-6.34540979 16.51643505 -6.34540979 16.51643505 -6.0625 13.6875 C-5.34125516 9.01163301 -4.35671371 6.4649948 -1 3 C-0.67 2.01 -0.34 1.02 0 0 Z " fill="#F5E46B" transform="translate(444,272)"/>
<path d="M0 0 C1.65 0.33 3.3 0.66 5 1 C3.13336904 12.1119443 3.13336904 12.1119443 0 17 C-0.99 17.33 -1.98 17.66 -3 18 C-3.1875 14.625 -3.1875 14.625 -3 11 C-2.01 10.34 -1.02 9.68 0 9 C0.36362818 6.79274927 0.36362818 6.79274927 0.1875 4.375 C0.14689453 3.14910156 0.14689453 3.14910156 0.10546875 1.8984375 C0.07066406 1.27195313 0.03585938 0.64546875 0 0 Z " fill="#347BF3" transform="translate(169,184)"/>
<path d="M0 0 C1.65 0 3.3 0 5 0 C3.625 2 3.625 2 2 4 C1.34 4 0.68 4 0 4 C0 4.66 0 5.32 0 6 C-0.680625 6.53625 -1.36125 7.0725 -2.0625 7.625 C-5.32819838 10.26535188 -7.85506123 13.18385555 -10.546875 16.390625 C-11.02640625 16.92171875 -11.5059375 17.4528125 -12 18 C-12.33 18 -12.66 18 -13 18 C-13 16.35 -13 14.7 -13 13 C-11.68 12.67 -10.36 12.34 -9 12 C-8.8453125 10.824375 -8.8453125 10.824375 -8.6875 9.625 C-8 7 -8 7 -5 5 C-3.68 5 -2.36 5 -1 5 C-0.67 3.35 -0.34 1.7 0 0 Z " fill="#E0F3FE" transform="translate(67,134)"/>
<path d="M0 0 C0.66 0 1.32 0 2 0 C1.55788285 5.19487649 0.20522328 9.1357713 -2.01171875 13.84375 C-3.22839078 16.49830715 -4.14187802 19.21110357 -5 22 C-5.66 22 -6.32 22 -7 22 C-7.12375 22.804375 -7.2475 23.60875 -7.375 24.4375 C-7.684375 25.7059375 -7.684375 25.7059375 -8 27 C-8.66 27.33 -9.32 27.66 -10 28 C-9.40716742 24.63271095 -8.56701313 21.65219536 -7.25 18.5 C-4.73203666 12.37172157 -2.36658307 6.18803278 0 0 Z " fill="#E7772D" transform="translate(301,272)"/>
<path d="M0 0 C-2.22475098 2.22475098 -3.59735744 2.65344345 -6.5625 3.5625 C-9.5425132 4.33211636 -9.5425132 4.33211636 -12 6 C-13.99958364 6.04080783 -16.00045254 6.04254356 -18 6 C-18 6.66 -18 7.32 -18 8 C-21.50776784 9.60355101 -24.14354879 10.22036864 -28 10 C-23.98920872 6.4105759 -20.09717573 4.57158214 -15.125 2.75 C-14.10212891 2.3478125 -14.10212891 2.3478125 -13.05859375 1.9375 C-8.50462594 0.23735202 -4.85551705 -0.27890698 0 0 Z " fill="#5488DE" transform="translate(127,107)"/>
<path d="M0 0 C0.33 0.99 0.66 1.98 1 3 C-0.8125 5.6875 -0.8125 5.6875 -3 8 C-3.66 8 -4.32 8 -5 8 C-5.03996094 9.03253906 -5.07992188 10.06507813 -5.12109375 11.12890625 C-6.24588723 16.08299666 -8.26384625 17.79872668 -12.0625 20.9375 C-12.63033203 21.43056641 -13.19816406 21.92363281 -13.78320312 22.43164062 C-15.17545013 23.63669475 -16.58597341 24.82057812 -18 26 C-18 21.74567794 -16.03975166 20.6388367 -13.125 17.625 C-9.77279276 14.15818738 -7.64863026 11.51581333 -6 7 C-4.67479497 6.31731862 -3.34187818 5.6492959 -2 5 C-1.26676204 2.98491642 -1.26676204 2.98491642 -1 1 C-0.67 0.67 -0.34 0.34 0 0 Z " fill="#FCF3AE" transform="translate(427,309)"/>
<path d="M0 0 C0.66 0 1.32 0 2 0 C5.9701361 7.39266721 8.43368893 14.75856886 10 23 C7.53686261 21.17251097 6.16571382 19.77023784 5.51171875 16.73046875 C5.27481707 14.48520654 5.09638651 12.25544422 5 10 C4.34 10 3.68 10 3 10 C1.375 8.9375 1.375 8.9375 0 7 C-0.1875 3.3125 -0.1875 3.3125 0 0 Z " fill="#F4DE66" transform="translate(434,176)"/>
<path d="M0 0 C0.33 0 0.66 0 1 0 C1.23521679 5.76281127 0.87442948 10.47536576 -1 16 C-1.24105469 16.76828125 -1.48210937 17.5365625 -1.73046875 18.328125 C-2.88379652 21.95788754 -3.86745827 24.8011874 -6 28 C-6.66 28 -7.32 28 -8 28 C-7.67 26.02 -7.34 24.04 -7 22 C-6.34 22 -5.68 22 -5 22 C-4.72285156 20.74703125 -4.44570313 19.4940625 -4.16015625 18.203125 C-3.79429904 16.55207708 -3.42841207 14.90103576 -3.0625 13.25 C-2.88009766 12.425 -2.69769531 11.6 -2.50976562 10.75 C-2.33251953 9.95078125 -2.15527344 9.1515625 -1.97265625 8.328125 C-1.72914429 7.22839355 -1.72914429 7.22839355 -1.48071289 6.10644531 C-1.01446454 4.06338247 -0.51579351 2.03106238 0 0 Z " fill="#FEFDD5" transform="translate(447,264)"/>
<path d="M0 0 C-0.33 1.32 -0.66 2.64 -1 4 C-3.31 4 -5.62 4 -8 4 C-8 4.66 -8 5.32 -8 6 C-10.20283698 7.01390853 -12.41098556 8.01104385 -14.625 9 C-15.24246094 9.28617187 -15.85992187 9.57234375 -16.49609375 9.8671875 C-20.50217971 11.63829919 -23.63200469 12.32255965 -28 12 C-24.77208445 9.8480563 -23.71599191 9.79913557 -20 10 C-20 9.34 -20 8.68 -20 8 C-19.05640625 7.63648438 -19.05640625 7.63648438 -18.09375 7.265625 C-13.80102771 5.58473977 -9.60120343 3.86091353 -5.5 1.75 C-2 0 -2 0 0 0 Z " fill="#FCF7B1" transform="translate(380,355)"/>
<path d="M0 0 C-1 3 -1 3 -4 5 C-4 5.66 -4 6.32 -4 7 C-5.32 7 -6.64 7 -8 7 C-8 7.99 -8 8.98 -8 10 C-10.64 9.67 -13.28 9.34 -16 9 C-13.19033482 6.86875056 -10.34662302 4.80606146 -7.4375 2.8125 C-6.67308594 2.28269531 -5.90867188 1.75289063 -5.12109375 1.20703125 C-3 0 -3 0 0 0 Z " fill="#FCCD50" transform="translate(252,347)"/>
<path d="M0 0 C9.9 1.98 9.9 1.98 20 4 C20 4.66 20 5.32 20 6 C13.65996716 6.23385367 8.01762098 6.14915035 2 4 C1.34 2.68 0.68 1.36 0 0 Z " fill="#DFF4FD" transform="translate(126,368)"/>
<path d="M0 0 C9.45579016 1.99439743 18.19861519 3.90516812 26 10 C26 10.33 26 10.66 26 11 C23.6875 11.1875 23.6875 11.1875 21 11 C19.4375 9.5625 19.4375 9.5625 18 8 C15.89667109 7.28552357 15.89667109 7.28552357 14 7 C14 6.34 14 5.68 14 5 C13.40832031 4.95101562 12.81664062 4.90203125 12.20703125 4.8515625 C7.80895528 4.43543133 4.03071103 3.95034405 0 2 C0 1.34 0 0.68 0 0 Z " fill="#F8DC64" transform="translate(352,108)"/>
<path d="M0 0 C-0.21679144 3.79385021 -0.9436203 4.9436203 -3.6875 7.6875 C-6.58354655 9.91738572 -9.45024164 11.07030138 -13 12 C-4.52427184 0 -4.52427184 0 0 0 Z " fill="#FDF9CD" transform="translate(408,335)"/>
<path d="M0 0 C6.8218683 -0.38614349 12.49577707 0.99134292 19 3 C19.33 4.32 19.66 5.64 20 7 C13.17973243 5.4260921 6.61760511 3.27204442 0 1 C0 0.67 0 0.34 0 0 Z " fill="#D0EAFC" transform="translate(204,105)"/>
<path d="M0 0 C1.91731918 0.11455681 3.8338675 0.24206258 5.75 0.375 C7.35101563 0.47941406 7.35101563 0.47941406 8.984375 0.5859375 C11.85978526 0.98074772 13.48583321 1.65911105 16 3 C18.66353755 3.51520982 21.29499131 3.72949913 24 4 C24 4.33 24 4.66 24 5 C16.93391809 5.13794954 10.02639415 4.74805717 3 4 C3.33 3.01 3.66 2.02 4 1 C2.68 0.67 1.36 0.34 0 0 Z " fill="#FEF9C3" transform="translate(264,368)"/>
<path d="M0 0 C-1.69476842 3.52648783 -3.64502684 6.8767124 -5.625 10.25 C-6.25664063 11.32765625 -6.88828125 12.4053125 -7.5390625 13.515625 C-8.02117188 14.33546875 -8.50328125 15.1553125 -9 16 C-10.23925303 12.51261488 -9.7983396 10.75296632 -8.25 7.4375 C-7.73179688 6.29087891 -7.73179688 6.29087891 -7.203125 5.12109375 C-5.19664824 1.58370129 -4.19753193 0 0 0 Z " fill="#DBEFFF" transform="translate(48,160)"/>
<path d="M0 0 C6.57315478 -0.36517527 11.79485526 0.86380263 18 3 C18 3.66 18 4.32 18 5 C18.66 5.33 19.32 5.66 20 6 C14.98306635 6.30873438 11.30680076 5.26671727 6.625 3.5 C5.98433594 3.26152344 5.34367187 3.02304688 4.68359375 2.77734375 C3.11912535 2.19358688 1.55907863 1.59800276 0 1 C0 0.67 0 0.34 0 0 Z " fill="#FDF7C0" transform="translate(348,106)"/>
<path d="M0 0 C3.49107379 1.16369126 3.85222763 1.88973538 5.6875 4.9375 C6.34298828 6.00291016 6.34298828 6.00291016 7.01171875 7.08984375 C8 9 8 9 8 11 C8.66 11 9.32 11 10 11 C10.99 12.98 11.98 14.96 13 17 C12.01 17.33 11.02 17.66 10 18 C10 17.34 10 16.68 10 16 C9.34 16 8.68 16 8 16 C7.75765625 15.40832031 7.5153125 14.81664062 7.265625 14.20703125 C5.29701264 9.56564904 3.287113 5.87409746 0 2 C0 1.34 0 0.68 0 0 Z " fill="#D0E8FC" transform="translate(41,305)"/>
<path d="M0 0 C1.08557659 3.24215827 0.94015194 5.02321809 -0.3125 8.1875 C-0.57675781 8.88230469 -0.84101563 9.57710937 -1.11328125 10.29296875 C-2 12 -2 12 -4 13 C-4.91280138 15.57437581 -4.91280138 15.57437581 -5.625 18.5625 C-5.88539063 19.57441406 -6.14578125 20.58632812 -6.4140625 21.62890625 C-6.60742188 22.41136719 -6.80078125 23.19382813 -7 24 C-7.33 24 -7.66 24 -8 24 C-8.46450943 17.49686791 -7.32575612 13.5825192 -4 8 C-3.34 8 -2.68 8 -2 8 C-2.061875 6.8553125 -2.061875 6.8553125 -2.125 5.6875 C-2 3 -2 3 0 0 Z " fill="#836EAD" transform="translate(178,180)"/>
<path d="M0 0 C1.79206547 0.14084796 3.58364917 0.28783701 5.375 0.4375 C6.87160156 0.55931641 6.87160156 0.55931641 8.3984375 0.68359375 C11 1 11 1 13 2 C13 2.66 13 3.32 13 4 C14.65 4 16.3 4 18 4 C18.33 4.66 18.66 5.32 19 6 C16.76914933 5.74340689 14.54032877 5.46912686 12.3125 5.1875 C11.07113281 5.03667969 9.82976562 4.88585937 8.55078125 4.73046875 C5.05701802 4.01172978 2.86461829 3.0868443 0 1 C0 0.67 0 0.34 0 0 Z " fill="#4883DE" transform="translate(109,361)"/>
<path d="M0 0 C0.99 0.33 1.98 0.66 3 1 C0.96453936 2.46770604 -1.07764543 3.92404872 -3.125 5.375 C-3.97964844 5.99375 -3.97964844 5.99375 -4.8515625 6.625 C-8.44717272 9.15827084 -11.70703036 10.81258287 -16 12 C-16 11.01 -16 10.02 -16 9 C-15.113125 8.7525 -14.22625 8.505 -13.3125 8.25 C-9.84816338 6.94270316 -7.80642536 5.37466761 -5 3 C-2.375 1.1875 -2.375 1.1875 0 0 Z " fill="#E77A34" transform="translate(252,343)"/>
<path d="M0 0 C3.63 0 7.26 0 11 0 C11 0.33 11 0.66 11 1 C7.940229 1.84357963 4.8767954 2.6730202 1.8125 3.5 C0.51602539 3.85771484 0.51602539 3.85771484 -0.80664062 4.22265625 C-1.64775391 4.44824219 -2.48886719 4.67382812 -3.35546875 4.90625 C-4.12528076 5.11572266 -4.89509277 5.32519531 -5.68823242 5.54101562 C-8.17823523 6.03538729 -10.46781499 6.07833519 -13 6 C-12 4 -12 4 -10.375 3.375 C-7.2339425 2.87904355 -4.17398169 2.93896189 -1 3 C-0.67 2.01 -0.34 1.02 0 0 Z " fill="#F4DE51" transform="translate(349,364)"/>
<path d="M0 0 C-5.12938283 3.88169511 -10.75630785 6.40232053 -17 8 C-17.99 7.67 -18.98 7.34 -20 7 C-17.42362412 5.63092584 -14.84031896 4.27971545 -12.25 2.9375 C-11.52039063 2.54755859 -10.79078125 2.15761719 -10.0390625 1.75585938 C-9.33007812 1.39169922 -8.62109375 1.02753906 -7.890625 0.65234375 C-7.24125977 0.31195068 -6.59189453 -0.02844238 -5.92285156 -0.37915039 C-3.58008982 -1.13558044 -2.29543427 -0.78821819 0 0 Z " fill="#E0725B" transform="translate(236,356)"/>
<path d="M0 0 C0.66 0.33 1.32 0.66 2 1 C-1.65903996 5.10255996 -4.88520642 7.04707881 -10 9 C-11.34013497 9.65288627 -12.67741528 10.31225595 -14 11 C-14 10.01 -14 9.02 -14 8 C-11.953125 6.46484375 -11.953125 6.46484375 -9.25 4.9375 C-8.36828125 4.43089844 -7.4865625 3.92429687 -6.578125 3.40234375 C-5.72734375 2.93957031 -4.8765625 2.47679687 -4 2 C-3.27296875 1.58878906 -2.5459375 1.17757813 -1.796875 0.75390625 C-1.20390625 0.50511719 -0.6109375 0.25632812 0 0 Z " fill="#F6E270" transform="translate(398,341)"/>
<path d="M0 0 C1.85272826 3.12647895 2.61875267 5.37587724 2 9 C-0.5 11.8125 -0.5 11.8125 -3 14 C-2.37240135 11.07120629 -1.41377341 8.63904371 0 6 C-0.99 6.33 -1.98 6.66 -3 7 C-3.33 5.35 -3.66 3.7 -4 2 C-2.68 1.34 -1.36 0.68 0 0 Z " fill="#4776EB" transform="translate(182,162)"/>
<path d="M0 0 C1.32 0.33 2.64 0.66 4 1 C3.01 2.175625 3.01 2.175625 2 3.375 C-0.20201441 5.71512812 -0.20201441 5.71512812 0 8 C-1.75 9.125 -1.75 9.125 -4 10 C-6.25 9.125 -6.25 9.125 -8 8 C-4.25 5 -4.25 5 -2 5 C-1.34 3.35 -0.68 1.7 0 0 Z " fill="#E96958" transform="translate(224,126)"/>
<path d="M0 0 C0.99 0 1.98 0 3 0 C2.79503906 0.97839844 2.59007812 1.95679688 2.37890625 2.96484375 C0.93266624 9.96736101 -0.37425528 16.86651022 -1 24 C-1.33 24 -1.66 24 -2 24 C-2.22384382 22.27277272 -2.42839969 20.54303993 -2.625 18.8125 C-2.74101562 17.84957031 -2.85703125 16.88664062 -2.9765625 15.89453125 C-3.00229771 12.71623241 -2.27151143 10.8795994 -1 8 C-0.56111075 5.79745973 -0.56111075 5.79745973 -0.375 3.6875 C-0.25125 2.470625 -0.1275 1.25375 0 0 Z " fill="#D9EBFD" transform="translate(26,200)"/>
<path d="M0 0 C4.05528845 1.31796875 8.04523324 2.75944413 12.03125 4.26953125 C14.66574405 5.24701218 17.3278579 6.13155382 20 7 C20 7.33 20 7.66 20 8 C14.46342706 8.42589023 10.10334017 6.905247 5 5 C5 4.34 5 3.68 5 3 C3.35 2.67 1.7 2.34 0 2 C0 1.34 0 0.68 0 0 Z " fill="#CDE8FD" transform="translate(104,360)"/>
<path d="M0 0 C3.91211733 1.15585285 6.8745041 2.35534962 10 5 C7.86521834 8.20217249 6.37204971 9.27285259 3 11 C2.01 11 1.02 11 0 11 C1.98 8.69 3.96 6.38 6 4 C4.02 3.34 2.04 2.68 0 2 C0 1.34 0 0.68 0 0 Z " fill="#6A76C1" transform="translate(226,114)"/>
<path d="M0 0 C0.33 0 0.66 0 1 0 C1 5.28 1 10.56 1 16 C0.34 16 -0.32 16 -1 16 C-1.33 18.64 -1.66 21.28 -2 24 C-2.33 24 -2.66 24 -3 24 C-2.38541771 15.9295642 -1.30774665 7.98614219 0 0 Z " fill="#FCB640" transform="translate(307,248)"/>
<path d="M0 0 C2.01618915 6.88864628 -0.02057786 12.78207554 -3 19 C-3.66 19 -4.32 19 -5 19 C-3.83795007 12.45150687 -2.26616615 6.25461856 0 0 Z " fill="#5C8CDA" transform="translate(32,189)"/>
<path d="M0 0 C0.99 0 1.98 0 3 0 C3 1.65 3 3.3 3 5 C3.99 5.33 4.98 5.66 6 6 C6 7.32 6 8.64 6 10 C5.01 10 4.02 10 3 10 C2.67 9.01 2.34 8.02 2 7 C1.01 7.495 1.01 7.495 0 8 C-0.66 7.67 -1.32 7.34 -2 7 C-1.34 4.69 -0.68 2.38 0 0 Z " fill="#3F80E7" transform="translate(35,182)"/>
<path d="M0 0 C-7.99730769 2.54824033 -15.62504986 3.61387352 -24 4 C-20.33038859 1.5535924 -16.82197691 1.03850656 -12.5625 0.3125 C-11.79873047 0.17005859 -11.03496094 0.02761719 -10.24804688 -0.11914062 C-9.13719727 -0.3134668 -9.13719727 -0.3134668 -8.00390625 -0.51171875 C-7.33174072 -0.62990967 -6.6595752 -0.74810059 -5.96704102 -0.86987305 C-3.77398918 -1.01495144 -2.09295669 -0.63457442 0 0 Z " fill="#DE7F6A" transform="translate(290,103)"/>
<path d="M0 0 C2.08559381 1.10006032 4.16843689 2.20485882 6.25 3.3125 C7.41015625 3.92738281 8.5703125 4.54226563 9.765625 5.17578125 C12.37033548 6.64486313 14.67723539 8.13143936 17 10 C11.92387682 10.61528766 9.17017994 8.61658349 5 6 C5 5.34 5 4.68 5 4 C4.360625 3.896875 3.72125 3.79375 3.0625 3.6875 C2.381875 3.460625 1.70125 3.23375 1 3 C0.67 2.01 0.34 1.02 0 0 Z " fill="#D9F0FE" transform="translate(86,350)"/>
<path d="M0 0 C1.32 0 2.64 0 4 0 C4 0.99 4 1.98 4 3 C4.5775 3.268125 5.155 3.53625 5.75 3.8125 C8.05550043 5.02929189 10.02056192 6.30333879 12 8 C12 8.66 12 9.32 12 10 C13.32 10.33 14.64 10.66 16 11 C16 11.66 16 12.32 16 13 C11.46002289 11.54753932 8.65506692 9.16368341 5.1875 5.9375 C4.68541016 5.47794922 4.18332031 5.01839844 3.66601562 4.54492188 C2.41909095 3.389608 1.20620984 2.19776004 0 1 C0 0.67 0 0.34 0 0 Z " fill="#5C8BD5" transform="translate(64,332)"/>
<path d="M0 0 C0 0.66 0 1.32 0 2 C-2.43133054 3.63863397 -4.84771535 5.14921334 -7.375 6.625 C-8.07367188 7.04523438 -8.77234375 7.46546875 -9.4921875 7.8984375 C-14.72859172 11 -14.72859172 11 -17 11 C-17 10.34 -17 9.68 -17 9 C-14.56866946 7.36136603 -12.15228465 5.85078666 -9.625 4.375 C-8.57699219 3.74464844 -8.57699219 3.74464844 -7.5078125 3.1015625 C-2.27140828 0 -2.27140828 0 0 0 Z " fill="#5186D0" transform="translate(99,117)"/>
<path d="M0 0 C-2.12390958 1.48075386 -4.24906405 2.95966056 -6.375 4.4375 C-6.97828125 4.85837891 -7.5815625 5.27925781 -8.203125 5.71289062 C-12.7734375 8.88671875 -12.7734375 8.88671875 -15 10 C-14.67 8.68 -14.34 7.36 -14 6 C-13.01 6 -12.02 6 -11 6 C-10.773125 5.401875 -10.54625 4.80375 -10.3125 4.1875 C-7.71442418 -0.14262636 -4.71941994 -1.4760739 0 0 Z " fill="#DAF0FE" transform="translate(90,122)"/>
<path d="M0 0 C2.97 0 5.94 0 9 0 C9.33 0.66 9.66 1.32 10 2 C10.99 2 11.98 2 13 2 C12.67 3.32 12.34 4.64 12 6 C7.76570244 4.68938409 3.92592596 3.05643741 0 1 C0 0.67 0 0.34 0 0 Z " fill="#D9E9FA" transform="translate(224,112)"/>
<path d="M0 0 C0 0.66 0 1.32 0 2 C-6.08356979 5.09212176 -11.18012971 6.56699236 -18 7 C-15.79168118 4.79168118 -14.50342124 4.3885542 -11.5625 3.5 C-0.01630435 0 -0.01630435 0 0 0 Z " fill="#FCDED5" transform="translate(239,356)"/>
<path d="M0 0 C0.99 0.33 1.98 0.66 3 1 C2.071875 2.1446875 2.071875 2.1446875 1.125 3.3125 C-1.05597052 5.99625809 -1.05597052 5.99625809 -3 9 C-3.66 9 -4.32 9 -5 9 C-5 9.66 -5 10.32 -5 11 C-5.66 11 -6.32 11 -7 11 C-7 11.66 -7 12.32 -7 13 C-7.99 13.33 -8.98 13.66 -10 14 C-8.54682061 10.6092481 -6.58699688 8.58699688 -4 6 C-3.67 5.01 -3.34 4.02 -3 3 C-2.34 3 -1.68 3 -1 3 C-0.67 2.01 -0.34 1.02 0 0 Z " fill="#EB7235" transform="translate(266,328)"/>
<path d="M0 0 C0.33 0 0.66 0 1 0 C1.53107314 2.74837849 2.05015881 5.49812375 2.5625 8.25 C2.71396484 9.02730469 2.86542969 9.80460937 3.02148438 10.60546875 C3.16005859 11.35957031 3.29863281 12.11367188 3.44140625 12.890625 C3.57232666 13.58188477 3.70324707 14.27314453 3.83813477 14.98535156 C4.01710362 17.21287942 3.65206197 18.87506962 3 21 C-1.15568659 14.76647012 -0.1053216 7.23208322 0 0 Z " fill="#D0EAFE" transform="translate(24,251)"/>
<path d="M0 0 C1.65 0 3.3 0 5 0 C5 0.66 5 1.32 5 2 C2.93950145 2.81756238 0.87651147 3.62884734 -1.1875 4.4375 C-2.33605469 4.88996094 -3.48460937 5.34242187 -4.66796875 5.80859375 C-7.47123233 6.81093301 -10.07112576 7.52012795 -13 8 C-12.01 7.67 -11.02 7.34 -10 7 C-10 6.34 -10 5.68 -10 5 C-9.36191406 4.89042969 -8.72382813 4.78085938 -8.06640625 4.66796875 C-7.24011719 4.50941406 -6.41382813 4.35085937 -5.5625 4.1875 C-4.32693359 3.96126953 -4.32693359 3.96126953 -3.06640625 3.73046875 C-2.38449219 3.48941406 -1.70257813 3.24835938 -1 3 C-0.67 2.01 -0.34 1.02 0 0 Z " fill="#E3755F" transform="translate(261,107)"/>
<path d="M0 0 C0 0.66 0 1.32 0 2 C-1.093125 2.12375 -2.18625 2.2475 -3.3125 2.375 C-7.07381802 2.75464801 -7.07381802 2.75464801 -10 5 C-12.48046875 5.1953125 -12.48046875 5.1953125 -15.1875 5.125 C-16.08855469 5.10695313 -16.98960937 5.08890625 -17.91796875 5.0703125 C-18.60503906 5.04710937 -19.29210937 5.02390625 -20 5 C-16.59916921 3.07815459 -13.23685016 2.23082631 -9.4375 1.375 C-8.30183594 1.11460937 -7.16617187 0.85421875 -5.99609375 0.5859375 C-3 0 -3 0 0 0 Z " fill="#FDF4AB" transform="translate(352,367)"/>
<path d="M0 0 C1.74991334 -0.02715383 3.49994945 -0.04646551 5.25 -0.0625 C6.71179688 -0.07990234 6.71179688 -0.07990234 8.203125 -0.09765625 C10.65758678 -0.01195577 12.66168914 0.29293934 15 1 C15 1.66 15 2.32 15 3 C17.475 3.495 17.475 3.495 20 4 C15.47907032 5.45606519 12.48351204 4.27032841 8 3 C8 2.34 8 1.68 8 1 C5.36 1 2.72 1 0 1 C0 0.67 0 0.34 0 0 Z " fill="#FDF5BC" transform="translate(328,101)"/>
<path d="M0 0 C6.625 0.75 6.625 0.75 10 3 C10 3.66 10 4.32 10 5 C10.66 5 11.32 5 12 5 C12.33 5.99 12.66 6.98 13 8 C8.27626146 6.37621488 4.05818166 3.89006982 0 1 C0 0.67 0 0.34 0 0 Z " fill="#5588DD" transform="translate(82,347)"/>
<path d="M0 0 C0.66 0.33 1.32 0.66 2 1 C-1.90456127 4.53269829 -4.80177328 6.63855967 -10 8 C-9.25 5.5625 -9.25 5.5625 -8 3 C-6.125 2.3125 -6.125 2.3125 -4 2 C-3.29875 1.62875 -2.5975 1.2575 -1.875 0.875 C-1.25625 0.58625 -0.6375 0.2975 0 0 Z " fill="#4C76DD" transform="translate(228,121)"/>
<path d="M0 0 C-5.84164487 3.89442991 -11.12443069 4.49267644 -18 5 C-18 4.34 -18 3.68 -18 3 C-15.36 3 -12.72 3 -10 3 C-10 2.34 -10 1.68 -10 1 C-6.59437148 0.22157062 -3.49234244 -0.09978121 0 0 Z " fill="#E8705C" transform="translate(216,364)"/>
<path d="M0 0 C2.86724686 0.57344937 3.8614515 0.8614515 6 3 C6.66 2.34 7.32 1.68 8 1 C11.125 0.875 11.125 0.875 14 1 C14 1.66 14 2.32 14 3 C12.865625 3.12375 11.73125 3.2475 10.5625 3.375 C8.7990625 3.684375 8.7990625 3.684375 7 4 C6.67 4.66 6.34 5.32 6 6 C5.01 5.67 4.02 5.34 3 5 C2.6278958 3.67696283 2.29369827 2.34262065 2 1 C1.34 0.67 0.68 0.34 0 0 Z " fill="#427EEF" transform="translate(92,351)"/>
<path d="M0 0 C3.84814487 -0.58305225 5.76308635 0.2997117 8.8125 2.5 C9.88364055 3.32219744 10.9491359 4.15204049 12 5 C11.67 5.99 11.34 6.98 11 8 C8 7 8 7 6 4 C4.03247172 2.93753473 2.03412421 1.92862192 0 1 C0 0.67 0 0.34 0 0 Z " fill="#FDFCC7" transform="translate(384,121)"/>
<path d="M0 0 C1.32 0 2.64 0 4 0 C4.33 0.66 4.66 1.32 5 2 C6.63846384 2.88750125 8.31093739 3.71305037 10 4.5 C14.88888889 6.77777778 14.88888889 6.77777778 16 9 C10.0942118 7.44584521 5.02261107 4.40465533 0 1 C0 0.67 0 0.34 0 0 Z " fill="#FEF4BF" transform="translate(368,112)"/>
<path d="M0 0 C0 0.66 0 1.32 0 2 C-0.99 2.33 -1.98 2.66 -3 3 C-4.21869929 5.50447516 -4.21869929 5.50447516 -5 8 C-7.31 7.67 -9.62 7.34 -12 7 C-3.55172414 0 -3.55172414 0 0 0 Z " fill="#3780F3" transform="translate(99,119)"/>
<path d="M0 0 C4.43090471 1.20842856 6.98112756 2.51668565 10 6 C9.67 6.66 9.34 7.32 9 8 C6.69 8 4.38 8 2 8 C2.99 6.68 3.98 5.36 5 4 C2.525 3.01 2.525 3.01 0 2 C0 1.34 0 0.68 0 0 Z " fill="#F9DB40" transform="translate(378,119)"/>
<path d="M0 0 C0.91007813 0.00902344 1.82015625 0.01804687 2.7578125 0.02734375 C3.45648438 0.03894531 4.15515625 0.05054687 4.875 0.0625 C4.545 1.0525 4.215 2.0425 3.875 3.0625 C-3.55357143 3.34821429 -3.55357143 3.34821429 -7.125 1.0625 C-4.60024538 -0.19987731 -2.81299534 -0.03606404 0 0 Z " fill="#FCFCEB" transform="translate(195.125,97.9375)"/>
<path d="M0 0 C1.65 1.32 3.3 2.64 5 4 C4.67 4.66 4.34 5.32 4 6 C3.01 5.67 2.02 5.34 1 5 C0.01 6.485 0.01 6.485 -1 8 C-1.66 8 -2.32 8 -3 8 C-3 6.35 -3 4.7 -3 3 C-2.01 3 -1.02 3 0 3 C0 2.01 0 1.02 0 0 Z " fill="#F8DB3E" transform="translate(419,154)"/>
<path d="M0 0 C-4.9476205 2.88611196 -10.33165837 4 -16 4 C-15.67 3.01 -15.34 2.02 -15 1 C-9.9752761 0.37470103 -5.07471573 -0.13012092 0 0 Z " fill="#FDE7D3" transform="translate(278,103)"/>
<path d="M0 0 C5.02254631 -0.2954439 7.89542386 0.01485372 12 3 C7.47907032 4.45606519 4.48351204 3.27032841 0 2 C0 1.34 0 0.68 0 0 Z " fill="#D6EEFD" transform="translate(192,101)"/>
<path d="M0 0 C0.33 0 0.66 0 1 0 C1.2358396 5.77807024 0.86783046 10.51324804 -1 16 C-1.66 16 -2.32 16 -3 16 C-2.40984815 10.49191603 -1.43336231 5.35121931 0 0 Z " fill="#FEF9C2" transform="translate(447,264)"/>
<path d="M0 0 C0.33 0 0.66 0 1 0 C1.33 2.97 1.66 5.94 2 9 C1.34 9 0.68 9 0 9 C-0.33 9.66 -0.66 10.32 -1 11 C-2.0257259 6.58937864 -2.03684712 4.07369424 0 0 Z " fill="#2685F6" transform="translate(164,183)"/>
<path d="M0 0 C0.99 1.32 1.98 2.64 3 4 C3.33 2.68 3.66 1.36 4 0 C4.66 0 5.32 0 6 0 C6 1.98 6 3.96 6 6 C2.86650268 7.04449911 2.01031744 6.93423645 -1 6 C-0.67 4.02 -0.34 2.04 0 0 Z " fill="#F5644F" transform="translate(186,168)"/>
<path d="M0 0 C1.32 0.33 2.64 0.66 4 1 C1.47524538 3.52475462 -0.73497997 4.04307871 -4.125 5.125 C-5.22070312 5.47820312 -6.31640625 5.83140625 -7.4453125 6.1953125 C-8.28835938 6.46085937 -9.13140625 6.72640625 -10 7 C-10 6.34 -10 5.68 -10 5 C-8.35 4.67 -6.7 4.34 -5 4 C-4.67 3.01 -4.34 2.02 -4 1 C-2.68 1.33 -1.36 1.66 0 2 C0 1.34 0 0.68 0 0 Z " fill="#F6E05B" transform="translate(380,352)"/>
<path d="M0 0 C1.60725635 3.21451269 1.05748185 6.43612536 1 10 C0.34 10 -0.32 10 -1 10 C-1.33 9.01 -1.66 8.02 -2 7 C-2.99 7.495 -2.99 7.495 -4 8 C-2.25 2.25 -2.25 2.25 0 0 Z " fill="#FBFBDE" transform="translate(431,306)"/>
<path d="M0 0 C0.66 0 1.32 0 2 0 C2.33 1.98 2.66 3.96 3 6 C1.35 6.33 -0.3 6.66 -2 7 C-1.125 2.25 -1.125 2.25 0 0 Z " fill="#3280EE" transform="translate(43,293)"/>
<path d="M0 0 C1.485 0.99 1.485 0.99 3 2 C3 2.99 3 3.98 3 5 C3.99 5 4.98 5 6 5 C5.37240135 7.92879371 4.41377341 10.36095629 3 13 C1.90154282 8.67940177 0.82187261 4.38332057 0 0 Z " fill="#FBFEE1" transform="translate(442,187)"/>
<path d="M0 0 C0.66 0 1.32 0 2 0 C4.09350689 3.4019487 4.17942163 6.05272412 4 10 C2 8.9375 2 8.9375 0 7 C-0.25 3.3125 -0.25 3.3125 0 0 Z " fill="#F1DE57" transform="translate(434,176)"/>
<path d="M0 0 C-2.52480693 2.52480693 -4.13823034 2.55738633 -7.625 3.125 C-8.62789063 3.29257813 -9.63078125 3.46015625 -10.6640625 3.6328125 C-11.43492188 3.75398438 -12.20578125 3.87515625 -13 4 C-13 3.34 -13 2.68 -13 2 C-8.50343896 -0.24828052 -4.92127034 -0.16682272 0 0 Z " fill="#DAF3FE" transform="translate(130,104)"/>
<path d="M0 0 C5.75 1.75 5.75 1.75 8 4 C5.75 4.75 5.75 4.75 3 5 C0.6875 3.0625 0.6875 3.0625 -1 1 C-0.67 0.67 -0.34 0.34 0 0 Z " fill="#F6FDF0" transform="translate(92,357)"/>
<path d="M0 0 C0.99 0 1.98 0 3 0 C4.0625 1.8125 4.0625 1.8125 5 4 C4.67 4.99 4.34 5.98 4 7 C2.68 6.67 1.36 6.34 0 6 C0.99 5.67 1.98 5.34 3 5 C3 4.34 3 3.68 3 3 C1.35 3.33 -0.3 3.66 -2 4 C-2.33 3.34 -2.66 2.68 -3 2 C-2.01 2 -1.02 2 0 2 C0 1.34 0 0.68 0 0 Z " fill="#F66740" transform="translate(252,336)"/>
<path d="M0 0 C0.66 0.33 1.32 0.66 2 1 C1.2884375 1.5878125 1.2884375 1.5878125 0.5625 2.1875 C-1.35179633 4.40808374 -1.61266988 6.13375709 -2 9 C-3.65 9 -5.3 9 -7 9 C-2.85714286 2.57142857 -2.85714286 2.57142857 0 0 Z " fill="#EA675A" transform="translate(214,135)"/>
<path d="M0 0 C0.66 0.33 1.32 0.66 2 1 C-4.26637555 7.44541485 -4.26637555 7.44541485 -8 10 C-8.99 9.67 -9.98 9.34 -11 9 C-7.37 6.03 -3.74 3.06 0 0 Z " fill="#5A89D5" transform="translate(78,129)"/>
<path d="M0 0 C0.33 0.99 0.66 1.98 1 3 C-0.8125 5.6875 -0.8125 5.6875 -3 8 C-3.66 8 -4.32 8 -5 8 C-5.33 8.99 -5.66 9.98 -6 11 C-6.33 10.01 -6.66 9.02 -7 8 C-5.625 6.5 -5.625 6.5 -4 5 C-3.34 5 -2.68 5 -2 5 C-1.855625 4.360625 -1.71125 3.72125 -1.5625 3.0625 C-1 1 -1 1 0 0 Z " fill="#F6E373" transform="translate(427,309)"/>
<path d="M0 0 C1.98 0.99 1.98 0.99 4 2 C3.67 3.65 3.34 5.3 3 7 C2.01 7 1.02 7 0 7 C0 4.69 0 2.38 0 0 Z " fill="#FDE21B" transform="translate(434,202)"/>
<path d="M0 0 C0.33 0 0.66 0 1 0 C1.33 2.64 1.66 5.28 2 8 C1.01 8.66 0.02 9.32 -1 10 C-2.25 3.375 -2.25 3.375 0 0 Z " fill="#3C77FE" transform="translate(168,185)"/>
<path d="M0 0 C1.65 0.33 3.3 0.66 5 1 C5 2.32 5 3.64 5 5 C3.35 4.67 1.7 4.34 0 4 C0 2.68 0 1.36 0 0 Z " fill="#F9FEEE" transform="translate(424,147)"/>
<path d="M0 0 C0.66 0.33 1.32 0.66 2 1 C-0.64 3.97 -3.28 6.94 -6 10 C-6.66 9.67 -7.32 9.34 -8 9 C-6.4169423 4.7257442 -3.49431596 2.73468206 0 0 Z " fill="#AC708C" transform="translate(212,135)"/>
<path d="M0 0 C1.32 0 2.64 0 4 0 C4.33 0.99 4.66 1.98 5 3 C4.34 3.66 3.68 4.32 3 5 C0.875 4.625 0.875 4.625 -1 4 C-1 1 -1 1 0 0 Z " fill="#2882F9" transform="translate(72,136)"/>
<path d="M0 0 C1.60597325 0.45196245 3.20972508 0.91182327 4.8125 1.375 C6.15248047 1.75785156 6.15248047 1.75785156 7.51953125 2.1484375 C10 3 10 3 13 5 C8.28596212 4.52060632 4.33420699 4.03165952 0 2 C0 1.34 0 0.68 0 0 Z " fill="#F4DB48" transform="translate(352,108)"/>
<path d="M0 0 C1.7074998 1.28062485 3.37373596 2.61767557 5 4 C5 4.66 5 5.32 5 6 C5.9590625 6.433125 5.9590625 6.433125 6.9375 6.875 C9 8 9 8 10 10 C7.625 9.75 7.625 9.75 5 9 C3.875 7.125 3.875 7.125 3 5 C2.46375 4.46375 1.9275 3.9275 1.375 3.375 C0.92125 2.92125 0.4675 2.4675 0 2 C0 1.34 0 0.68 0 0 Z " fill="#C3E2FB" transform="translate(54,322)"/>
<path d="M0 0 C0.99 0.33 1.98 0.66 3 1 C2.67 3.64 2.34 6.28 2 9 C1.34 9 0.68 9 0 9 C0 6.03 0 3.06 0 0 Z " fill="#F76554" transform="translate(174,203)"/>
<path d="M0 0 C0.99 0 1.98 0 3 0 C3 1.32 3 2.64 3 4 C-3.625 6 -3.625 6 -7 6 C-4.94766315 3.7522025 -3.99332739 2.9977758 -1 2 C-0.67 1.34 -0.34 0.68 0 0 Z " fill="#D86C6E" transform="translate(235,119)"/>
<path d="M0 0 C0.66 0.66 1.32 1.32 2 2 C-2.625 6 -2.625 6 -6 6 C-5.25 3.5625 -5.25 3.5625 -4 1 C-2 0.0625 -2 0.0625 0 0 Z " fill="#FCE0D3" transform="translate(242,113)"/>
<path d="M0 0 C1.32 0 2.64 0 4 0 C3.67 1.65 3.34 3.3 3 5 C1.68 4.67 0.36 4.34 -1 4 C-0.67 2.68 -0.34 1.36 0 0 Z " fill="#FEDF1C" transform="translate(392,338)"/>
<path d="M0 0 C0.33 0 0.66 0 1 0 C1.28571429 7.42857143 1.28571429 7.42857143 -1 11 C-1.66 11 -2.32 11 -3 11 C-3.33 11.66 -3.66 12.32 -4 13 C-4.1875 10.625 -4.1875 10.625 -4 8 C-3.01 7.34 -2.02 6.68 -1 6 C-0.26656572 2.93443402 -0.26656572 2.93443402 0 0 Z " fill="#F8DD5E" transform="translate(438,285)"/>
<path d="M0 0 C0.99 0.33 1.98 0.66 3 1 C1.75023244 4.65316671 1.32901247 5.78065836 -2 8 C-1.125 2.25 -1.125 2.25 0 0 Z " fill="#FCFEEC" transform="translate(451,256)"/>
<path d="M0 0 C0.99 0 1.98 0 3 0 C3 2.64 3 5.28 3 8 C0.52557871 5.84832931 -0.56238367 4.28212246 -1 1 C-0.67 0.67 -0.34 0.34 0 0 Z " fill="#FCE122" transform="translate(441,199)"/>
<path d="M0 0 C2.475 0.495 2.475 0.495 5 1 C4.67 2.32 4.34 3.64 4 5 C2.68 4.67 1.36 4.34 0 4 C0 2.68 0 1.36 0 0 Z " fill="#FCFEEE" transform="translate(409,130)"/>
<path d="M0 0 C-6 4 -6 4 -10 4 C-10 3.01 -10 2.02 -10 1 C-6.61981469 -0.04005702 -3.5219721 -0.08004482 0 0 Z " fill="#F16649" transform="translate(276,106)"/>
<path d="M0 0 C0 0.66 0 1.32 0 2 C-3.14930893 3.04976964 -5.38814456 3.10131595 -8.6875 3.0625 C-9.68136719 3.05347656 -10.67523438 3.04445313 -11.69921875 3.03515625 C-12.83810547 3.01775391 -12.83810547 3.01775391 -14 3 C-14 2.67 -14 2.34 -14 2 C-12.4176994 1.66179834 -10.83410625 1.32964061 -9.25 1 C-8.36828125 0.814375 -7.4865625 0.62875 -6.578125 0.4375 C-4 0 -4 0 0 0 Z " fill="#FEF3E6" transform="translate(202,370)"/>
<path d="M0 0 C-3.55639236 2.30119506 -6.94718288 3.77472971 -11 5 C-4.36842105 -2.18421053 -4.36842105 -2.18421053 0 0 Z " fill="#FDCF3F" transform="translate(265,340)"/>
<path d="M0 0 C3.53600465 1.91135386 5.78972846 3.62642766 8 7 C5.125 6.3125 5.125 6.3125 2 5 C0.625 2.375 0.625 2.375 0 0 Z " fill="#DAF0FE" transform="translate(66,335)"/>
<path d="M0 0 C0.66 0 1.32 0 2 0 C2 1.98 2 3.96 2 6 C0.35 6.66 -1.3 7.32 -3 8 C-1.125 2.25 -1.125 2.25 0 0 Z " fill="#FCC93D" transform="translate(285,310)"/>
<path d="M0 0 C2.3129482 2.3129482 2.49580975 3.47904875 3.125 6.625 C3.29257812 7.44226563 3.46015625 8.25953125 3.6328125 9.1015625 C3.81457031 10.04128906 3.81457031 10.04128906 4 11 C3.01 10.67 2.02 10.34 1 10 C-0.1577506 6.52674819 -0.06866652 3.63932552 0 0 Z " fill="#C5E6FA" transform="translate(28,272)"/>
<path d="M0 0 C1.65 0 3.3 0 5 0 C4.67 1.65 4.34 3.3 4 5 C2.68 4.67 1.36 4.34 0 4 C0 2.68 0 1.36 0 0 Z " fill="#FEDA40" transform="translate(420,164)"/>
<path d="M0 0 C1.875 0.3125 1.875 0.3125 4 1 C4.66 1.99 5.32 2.98 6 4 C4.35 4.33 2.7 4.66 1 5 C0.67 3.35 0.34 1.7 0 0 Z " fill="#FEE11C" transform="translate(408,147)"/>
<path d="M0 0 C2.475 0.495 2.475 0.495 5 1 C4.34 2.32 3.68 3.64 3 5 C2.01 4.67 1.02 4.34 0 4 C0 2.68 0 1.36 0 0 Z " fill="#FEF9EB" transform="translate(170,378)"/>
<path d="M0 0 C1.98 0 3.96 0 6 0 C6.33 0.99 6.66 1.98 7 3 C9.01508358 3.73323796 9.01508358 3.73323796 11 4 C8.36 4 5.72 4 3 4 C3.33 3.01 3.66 2.02 4 1 C2.68 0.67 1.36 0.34 0 0 Z " fill="#FCFCDE" transform="translate(264,368)"/>
<path d="M0 0 C0.33 0 0.66 0 1 0 C1.56531239 4.8051553 -0.11675084 7.24303897 -3 11 C-3.33 11 -3.66 11 -4 11 C-3.67 8.69 -3.34 6.38 -3 4 C-2.01 4 -1.02 4 0 4 C0 2.68 0 1.36 0 0 Z " fill="#FED642" transform="translate(299,288)"/>
<path d="M0 0 C2.22825644 2.22825644 2.69239369 3.65761628 3.625 6.625 C4.01558594 7.85089844 4.01558594 7.85089844 4.4140625 9.1015625 C4.60742188 9.72804688 4.80078125 10.35453125 5 11 C4.01 10.67 3.02 10.34 2 10 C0.47839986 6.3962102 0 3.94779314 0 0 Z " fill="#C7E8FC" transform="translate(32,284)"/>
<path d="M0 0 C0.66 0 1.32 0 2 0 C1.67 2.31 1.34 4.62 1 7 C0.01 7.33 -0.98 7.66 -2 8 C-1.47731534 5.23723823 -0.89130413 2.6739124 0 0 Z " fill="#EE7C36" transform="translate(301,272)"/>
<path d="M0 0 C0.33 0 0.66 0 1 0 C1 2.64 1 5.28 1 8 C0.01 8.33 -0.98 8.66 -2 9 C-2.25 3.375 -2.25 3.375 0 0 Z " fill="#2982FF" transform="translate(29,216)"/>
<path d="M0 0 C1.12377697 3.30435084 0.89554742 5.0506862 -0.4375 8.25 C-0.72496094 8.95640625 -1.01242188 9.6628125 -1.30859375 10.390625 C-1.53675781 10.92171875 -1.76492187 11.4528125 -2 12 C-2.66 12 -3.32 12 -4 12 C-3.71640113 10.5608866 -3.42278601 9.12374482 -3.125 7.6875 C-2.96257812 6.88699219 -2.80015625 6.08648437 -2.6328125 5.26171875 C-2 3 -2 3 0 0 Z " fill="#B76D8E" transform="translate(178,180)"/>
<path d="M0 0 C1.53690745 2.41040161 2.09752136 3.50082285 1.5390625 6.359375 C1.23742188 7.14828125 0.93578125 7.9371875 0.625 8.75 C0.32851563 9.54921875 0.03203125 10.3484375 -0.2734375 11.171875 C-0.51320312 11.77515625 -0.75296875 12.3784375 -1 13 C-1.33 13 -1.66 13 -2 13 C-1.48041715 8.62065881 -0.94324258 4.31196609 0 0 Z " fill="#E3F3FB" transform="translate(36,172)"/>
<path d="M0 0 C0.66 0 1.32 0 2 0 C0.66666667 2.66666667 -0.66666667 5.33333333 -2 8 C-2.99 7.34 -3.98 6.68 -5 6 C-3.625 4 -3.625 4 -2 2 C-1.34 2 -0.68 2 0 2 C0 1.34 0 0.68 0 0 Z " fill="#4781DB" transform="translate(53,154)"/>
<path d="M0 0 C0.66 0.33 1.32 0.66 2 1 C2 1.99 2 2.98 2 4 C0.35 4.66 -1.3 5.32 -3 6 C-2.625 3.5625 -2.625 3.5625 -2 1 C-1.34 0.67 -0.68 0.34 0 0 Z " fill="#F9FDEF" transform="translate(54,143)"/>
<path d="M0 0 C2.69082872 0.17635452 5.32851446 0.61835921 8 1 C7.67 1.66 7.34 2.32 7 3 C4.125 3.125 4.125 3.125 1 3 C0.34 2.34 -0.32 1.68 -1 1 C-0.67 0.67 -0.34 0.34 0 0 Z " fill="#FAF4E7" transform="translate(253,106)"/>
<path d="M0 0 C0.33 0.66 0.66 1.32 1 2 C-0.258125 2.04125 -1.51625 2.0825 -2.8125 2.125 C-3.52019531 2.14820312 -4.22789062 2.17140625 -4.95703125 2.1953125 C-7 2 -7 2 -10 0 C-3.34250344 -1.36176066 -3.34250344 -1.36176066 0 0 Z " fill="#F9F9F1" transform="translate(146,98)"/>
<path d="M0 0 C1.32 0 2.64 0 4 0 C3.67 1.65 3.34 3.3 3 5 C2.01 5 1.02 5 0 5 C0 3.35 0 1.7 0 0 Z " fill="#FEDA3D" transform="translate(418,308)"/>
<path d="M0 0 C0.99 0 1.98 0 3 0 C2.34 1.32 1.68 2.64 1 4 C0.01 4 -0.98 4 -2 4 C-2 4.66 -2 5.32 -2 6 C-2.66 6 -3.32 6 -4 6 C-2.84826645 3.53199953 -1.95216435 1.95216435 0 0 Z " fill="#E7F2FD" transform="translate(45,160)"/>
<path d="M0 0 C2.97 0.495 2.97 0.495 6 1 C6.66 2.98 7.32 4.96 8 7 C6.68 6.34 5.36 5.68 4 5 C4 4.34 4 3.68 4 3 C2.68 2.34 1.36 1.68 0 1 C0 0.67 0 0.34 0 0 Z " fill="#FDF7B8" transform="translate(396,129)"/>
<path d="M0 0 C2.31 0.33 4.62 0.66 7 1 C6 3 6 3 4.125 3.6875 C2 4 2 4 -1 3 C-0.67 2.01 -0.34 1.02 0 0 Z " fill="#307FED" transform="translate(225,118)"/>
<path d="M0 0 C2.32472205 2.85306797 3.7508258 5.54074837 5 9 C3.68 8.34 2.36 7.68 1 7 C1 6.34 1 5.68 1 5 C0.34 4.67 -0.32 4.34 -1 4 C-0.67 2.68 -0.34 1.36 0 0 Z " fill="#C4E1FA" transform="translate(37,295)"/>
<path d="M0 0 C0.33 0 0.66 0 1 0 C1.36923077 5.41538462 1.36923077 5.41538462 -0.5 8.375 C-0.995 8.91125 -1.49 9.4475 -2 10 C-2.66 9.67 -3.32 9.34 -4 9 C-2.68 6.03 -1.36 3.06 0 0 Z " fill="#FBBB41" transform="translate(294,294)"/>
<path d="M0 0 C1.32 0 2.64 0 4 0 C3.67 1.65 3.34 3.3 3 5 C2.01 4.67 1.02 4.34 0 4 C0 2.68 0 1.36 0 0 Z " fill="#F56651" transform="translate(202,152)"/>
<path d="M0 0 C1.9375 0.3125 1.9375 0.3125 4 1 C4.33 1.99 4.66 2.98 5 4 C3.02 4 1.04 4 -1 4 C-0.67 2.68 -0.34 1.36 0 0 Z " fill="#F8654F" transform="translate(218,138)"/>
<path d="M0 0 C2.64 0 5.28 0 8 0 C8 0.66 8 1.32 8 2 C8.99 2.33 9.98 2.66 11 3 C9 4 9 4 6.8359375 3.44140625 C6.02382813 3.15136719 5.21171875 2.86132812 4.375 2.5625 C3.55773437 2.27503906 2.74046875 1.98757812 1.8984375 1.69140625 C1.27195312 1.46324219 0.64546875 1.23507813 0 1 C0 0.67 0 0.34 0 0 Z " fill="#FCF19C" transform="translate(348,106)"/>
<path d="M0 0 C3.24208567 0.35049575 4.61527704 0.56221181 6.8125 3.0625 C7.204375 3.701875 7.59625 4.34125 8 5 C2.25 3.125 2.25 3.125 0 2 C0 1.34 0 0.68 0 0 Z " fill="#FDF9CC" transform="translate(239,357)"/>
<path d="M0 0 C2.25 0.25 2.25 0.25 4 1 C2.02 2.32 0.04 3.64 -2 5 C-2.66 4.67 -3.32 4.34 -4 4 C-2.25 1.9375 -2.25 1.9375 0 0 Z " fill="#E58A7A" transform="translate(232,355)"/>
<path d="M0 0 C2.875 -0.125 2.875 -0.125 6 0 C6.66 0.66 7.32 1.32 8 2 C7.01 2.495 7.01 2.495 6 3 C6.33 3.66 6.66 4.32 7 5 C4.11562221 3.70700306 2.12780579 2.34058637 0 0 Z " fill="#3B80F6" transform="translate(71,336)"/>
<path d="M0 0 C2.4375 0.8125 2.4375 0.8125 5 2 C5.33 2.99 5.66 3.98 6 5 C5.01 5.33 4.02 5.66 3 6 C3 5.34 3 4.68 3 4 C2.34 4 1.68 4 1 4 C0.67 2.68 0.34 1.36 0 0 Z " fill="#E2F5F8" transform="translate(48,317)"/>
<path d="M0 0 C0.99 0 1.98 0 3 0 C3 1.65 3 3.3 3 5 C2.01 5.33 1.02 5.66 0 6 C0 4.02 0 2.04 0 0 Z " fill="#2284FE" transform="translate(166,196)"/>
<path d="M0 0 C1.32 0.33 2.64 0.66 4 1 C3.34 2.65 2.68 4.3 2 6 C1.34 5.67 0.68 5.34 0 5 C0 3.35 0 1.7 0 0 Z " fill="#2087F3" transform="translate(170,184)"/>
<path d="M0 0 C0.33 0.66 0.66 1.32 1 2 C0.06421005 4.35981813 -0.93347808 6.69631264 -2 9 C-2.66 9 -3.32 9 -4 9 C-2.94124926 5.59687262 -1.99097846 2.98646769 0 0 Z " fill="#5C89D9" transform="translate(40,173)"/>
<path d="M0 0 C0.33 0.66 0.66 1.32 1 2 C3.01669827 3.13350534 3.01669827 3.13350534 5 4 C5 4.99 5 5.98 5 7 C2.5 5.75 2.5 5.75 0 4 C0 2.68 0 1.36 0 0 Z " fill="#F1E358" transform="translate(424,160)"/>
<path d="M0 0 C0.99 0.33 1.98 0.66 3 1 C1.625 3.5 1.625 3.5 0 6 C-0.66 6 -1.32 6 -2 6 C-2.33 6.66 -2.66 7.32 -3 8 C-2.45276317 4.62537285 -1.9451 2.91765 0 0 Z " fill="#4C72D6" transform="translate(191,154)"/>
</svg>
