<?xml version="1.0" encoding="UTF-8"?>
<svg version="1.1" xmlns="http://www.w3.org/2000/svg" width="474" height="555">
<path d="M0 0 C156.42 0 312.84 0 474 0 C474 183.15 474 366.3 474 555 C317.58 555 161.16 555 0 555 C0 371.85 0 188.7 0 0 Z " fill="#5E8CBC" transform="translate(0,0)"/>
<path d="M0 0 C156.42 0 312.84 0 474 0 C474 183.15 474 366.3 474 555 C317.58 555 161.16 555 0 555 C0 371.85 0 188.7 0 0 Z M206.10546875 33 C202.80250492 35.1271918 199.42459033 37.07907848 196 39 C194.23559785 39.9959534 192.47128236 40.99206032 190.70703125 41.98828125 C189.75376953 42.52582031 188.80050781 43.06335938 187.81835938 43.6171875 C177.37314473 49.49576096 177.37314473 49.49576096 167 55.5 C161.24763542 58.88225542 155.43618317 62.15777009 149.625 65.4375 C148.61775879 66.00621826 147.61051758 66.57493652 146.57275391 67.16088867 C139.16873078 71.34096858 139.16873078 71.34096858 135.79882812 73.24121094 C129.56609393 76.75928497 123.39350081 80.34837844 117.3125 84.125 C112.67153175 87.00540886 107.97671384 89.68593292 103.1640625 92.265625 C99.15291575 94.46432766 95.20291669 96.76116665 91.25 99.0625 C83.95046633 103.31138366 76.61174716 107.48492474 69.25 111.625 C55.57098065 119.33131469 42.06891566 127.28738956 29 136 C29 136.66 29 137.32 29 138 C28.34 138 27.68 138 27 138 C27 138.66 27 139.32 27 140 C26.34 140 25.68 140 25 140 C23.85170023 142.269616 22.70628022 144.54060778 21.5625 146.8125 C21.23701172 147.45509766 20.91152344 148.09769531 20.57617188 148.75976562 C17.57469207 154.73178215 16.85286644 159.18657099 16.85955811 165.79737854 C16.85658698 166.70760189 16.85361586 167.61782523 16.8505547 168.5556311 C16.84185396 171.6185582 16.84035827 174.68144627 16.83886719 177.74438477 C16.83423987 179.93547143 16.82921533 182.12655729 16.82382202 184.31764221 C16.81068501 190.28075544 16.80425017 196.24385741 16.79981136 202.20698285 C16.79688188 205.93266213 16.79277724 209.65833831 16.78830719 213.38401604 C16.77462694 225.0409163 16.76494777 236.6978101 16.7611053 248.35471779 C16.76066184 249.69652085 16.76021527 251.0383239 16.75976562 252.38012695 C16.7595442 253.04570505 16.75932277 253.71128315 16.75909463 254.39703029 C16.75515083 265.16981484 16.73771059 275.94253158 16.7144061 286.71528996 C16.690658 297.78277805 16.67848627 308.85023046 16.67706418 319.9177441 C16.67601662 326.12870531 16.67011943 332.33957097 16.65224457 338.5505085 C16.63574676 344.39701639 16.6336168 350.24335709 16.64238358 356.08987999 C16.64315311 358.23200046 16.6388223 360.37412998 16.62892532 362.51622772 C16.61617401 365.44892804 16.62210013 368.38103906 16.63250732 371.31373596 C16.62445092 372.15413361 16.61639452 372.99453125 16.60809398 373.86039549 C16.67147207 381.53847207 18.28437277 389.30265657 22.75 395.6875 C23.42289063 396.68330078 23.42289063 396.68330078 24.109375 397.69921875 C30.1815654 405.08872319 36.7687502 409.55180446 45.125 414.1875 C46.28798297 414.8436936 47.45032791 415.50101916 48.61206055 416.15942383 C50.95779968 417.48695384 53.30670144 418.80857742 55.65869141 420.125 C59.53739402 422.30156263 63.39806714 424.50827726 67.25610352 426.72119141 C69.81711898 428.19014937 72.38074238 429.65444538 74.9453125 431.1171875 C76.19876465 431.83213379 76.19876465 431.83213379 77.47753906 432.56152344 C78.30995117 433.0362207 79.14236328 433.51091797 80 434 C97.39151495 443.91780934 114.75516022 453.88399962 132.06640625 463.94140625 C140.44999568 468.81079071 148.86239566 473.62181631 157.3125 478.375 C164.82326276 482.60229766 172.27946675 486.90776019 179.6875 491.3125 C183.45582078 493.54593708 187.22684284 495.77474322 191 498 C191.56857727 498.33549866 192.13715454 498.67099731 192.72296143 499.0166626 C196.44103179 501.20832621 200.16677045 503.38617527 203.90103149 505.55014038 C205.11560277 506.25620628 206.32806301 506.96591857 207.53817749 507.67959595 C220.54754059 515.34512522 231.96227807 519.35805436 247.23046875 516.3671875 C258.77714033 512.79489203 269.02789179 505.80712606 279.30810547 499.61523438 C282.53612081 497.67830807 285.79007848 495.79836667 289.0625 493.9375 C290.12210937 493.33421875 291.18171875 492.7309375 292.2734375 492.109375 C295.2763738 490.40742913 298.28270506 488.71151894 301.2890625 487.015625 C312.80553425 480.51843407 324.28975831 473.97255731 335.72021484 467.32519531 C339.49839749 465.12901033 343.28040735 462.93944261 347.0625 460.75 C347.82997559 460.30567627 348.59745117 459.86135254 349.38818359 459.40356445 C367.5628808 448.88438184 385.75796683 438.40200413 404 428 C406.33453813 426.66871186 408.66815268 425.33598119 411 424 C411.87857666 423.49670166 412.75715332 422.99340332 413.66235352 422.47485352 C416.75748548 420.69743349 419.84772793 418.91171903 422.9375 417.125 C424.50661133 416.22587891 424.50661133 416.22587891 426.10742188 415.30859375 C439.11174061 407.77246435 451.7882297 399.22498048 456 384 C457.02715903 378.98382268 457.14831281 374.17736205 457.14717102 369.08309937 C457.15268605 367.7527881 457.15268605 367.7527881 457.1583125 366.39560187 C457.1693084 363.42958151 457.17318621 360.46359624 457.17700195 357.49755859 C457.18326968 355.36838674 457.18991675 353.23921597 457.19691467 351.11004639 C457.21792016 344.12285112 457.22831359 337.13565572 457.23828125 330.1484375 C457.24233008 327.73973199 457.24644704 325.3310266 457.25063133 322.92232132 C457.26967505 311.6050123 457.28390797 300.28770977 457.2922433 288.97038782 C457.30201386 275.92111444 457.32833225 262.87201077 457.36874419 249.82279718 C457.39893453 239.72660473 457.41371494 229.63046085 457.41702431 219.53422415 C457.41937137 213.50876619 457.42828736 207.4834897 457.45348549 201.45808029 C457.47682224 195.78631417 457.48097678 190.11484832 457.47072411 184.44304657 C457.47023001 182.36787287 457.47651301 180.29268409 457.49028015 178.217556 C457.58830953 162.55841361 456.3796094 149.25620841 445.328125 137.171875 C439.99192435 132.10932566 433.62576983 128.72905995 427.22021484 125.22216797 C422.87614447 122.83087521 418.56597934 120.37900645 414.25 117.9375 C413.28263916 117.3911792 412.31527832 116.8448584 411.31860352 116.28198242 C379.90779138 98.52450507 379.90779138 98.52450507 365.6484375 89.6171875 C362.16079595 87.48756567 358.58785406 85.54590283 354.98828125 83.61328125 C345.10500163 78.27760219 335.38104791 72.66466919 325.71508789 66.94677734 C318.18845398 62.50267434 310.59686621 58.17418502 303 53.8515625 C299.86677799 52.06849608 296.74105309 50.2738353 293.625 48.4609375 C292.64793091 47.89463623 292.64793091 47.89463623 291.65112305 47.31689453 C289.93898841 46.3233972 288.22916561 45.32591872 286.51953125 44.328125 C284.17981802 42.8445628 284.17981802 42.8445628 282 43 C282 42.34 282 41.68 282 41 C281.10539062 40.56429687 280.21078125 40.12859375 279.2890625 39.6796875 C273.63552203 36.90274375 268.05188107 34.12604344 262.6875 30.8125 C243.48518009 19.00054663 224.62284559 20.98365407 206.10546875 33 Z " fill="#F7F7F8" transform="translate(0,0)"/>
<path d="M0 0 C4.97045644 10.88059841 4.55449755 21.52280159 4.48583984 33.24707031 C4.48798874 35.38361849 4.49187092 37.52016552 4.49734497 39.65670776 C4.50699384 45.42919399 4.49179227 51.20136834 4.47143888 56.97381687 C4.45380386 63.02654701 4.45739417 69.07926845 4.4581604 75.13201904 C4.45629079 85.28988836 4.43896995 95.44763775 4.41162109 105.60546875 C4.38014014 117.34123981 4.36962629 129.07687979 4.3710922 140.81269002 C4.37244393 153.32540202 4.35856097 165.83806367 4.34019899 178.35076046 C4.33594129 181.94991943 4.33451733 185.54907025 4.33372116 189.14823151 C4.33170928 194.80525109 4.31947504 200.46216106 4.29938889 206.11914444 C4.29355794 208.19276127 4.29108429 210.26639071 4.29224396 212.34001541 C4.29322907 215.17432278 4.28187818 218.00832552 4.26742554 220.84259033 C4.27052274 221.65932889 4.27361995 222.47606745 4.276811 223.31755567 C4.18492217 234.25930964 0.61792699 245.88644885 -7 254 C-16.39928605 262.29455301 -28.11769436 267.93448694 -39 274 C-41.60511573 275.45664312 -44.20913661 276.91522762 -46.8125 278.375 C-47.43576172 278.72385254 -48.05902344 279.07270508 -48.70117188 279.43212891 C-55.78067167 283.41038514 -62.78017796 287.52569225 -69.78857422 291.62744141 C-76.48244061 295.5417675 -83.19839029 299.41414092 -89.9375 303.25 C-96.15250149 306.78810866 -102.34437764 310.35953899 -108.5 314 C-120.40664665 321.03858675 -132.42141456 327.89343139 -144.49951172 334.63330078 C-149.71904633 337.54691456 -154.87385841 340.50675302 -159.9375 343.6875 C-166.40920052 347.72011741 -173.03722355 351.45806097 -179.6875 355.1875 C-180.74509521 355.78199951 -181.80269043 356.37649902 -182.89233398 356.98901367 C-204.902054 369.27635286 -204.902054 369.27635286 -216.3125 369.3125 C-217.52550781 369.32925781 -218.73851562 369.34601563 -219.98828125 369.36328125 C-229.09114674 368.86567479 -236.72207039 364.83767264 -244.4375 360.3125 C-245.42121582 359.746521 -246.40493164 359.18054199 -247.41845703 358.59741211 C-256.26187294 353.48851407 -265.02979707 348.24959058 -273.80175781 343.01928711 C-282.38929825 337.91286798 -291.0695528 332.99588611 -299.80297852 328.14428711 C-307.84743447 323.66809523 -315.80738628 319.06022345 -323.74829102 314.40332031 C-334.99532531 307.81439052 -346.32077318 301.36473787 -357.64624023 294.91186523 C-361.75904228 292.56729562 -365.86938825 290.21844699 -369.97947693 287.86912537 C-373.41640854 285.90466047 -376.85418591 283.94169111 -380.29296875 281.98046875 C-384.63121554 279.5060581 -388.96588649 277.02544005 -393.29980469 274.54345703 C-395.96014018 273.02278425 -398.62440555 271.50917793 -401.2890625 269.99609375 C-402.96369054 269.03932303 -404.63817578 268.0823023 -406.3125 267.125 C-407.07006592 266.69727295 -407.82763184 266.2695459 -408.6081543 265.82885742 C-415.68409204 261.76734322 -422.18477834 257.38936839 -427.5 251.125 C-428.1703125 250.34382812 -428.840625 249.56265625 -429.53125 248.7578125 C-430.0159375 248.17773438 -430.500625 247.59765625 -431 247 C-429.62979689 243.67236387 -428.44931391 242.36168445 -425.25 240.75 C-420.98789979 238.52176846 -416.7968453 236.20412752 -412.625 233.8125 C-411.71476074 233.29478027 -411.71476074 233.29478027 -410.78613281 232.76660156 C-408.12888822 231.25008578 -405.54715142 229.69810095 -403 228 C-402.01 228 -401.02 228 -400 228 C-400 227.34 -400 226.68 -400 226 C-398.91460937 225.47148437 -397.82921875 224.94296875 -396.7109375 224.3984375 C-391.24247421 221.66300294 -385.94032148 218.64443655 -380.625 215.625 C-379.64789063 215.07328125 -378.67078125 214.5215625 -377.6640625 213.953125 C-370.05469495 209.64249923 -362.54304374 205.18761665 -355.1015625 200.59375 C-353.94314733 199.89510493 -352.78430503 199.19716749 -351.625 198.5 C-350.74134766 197.943125 -350.74134766 197.943125 -349.83984375 197.375 C-345.60698911 194.86382331 -345.60698911 194.86382331 -342.75390625 195.50390625 C-340.64552575 197.3023689 -339.6160876 198.99082658 -338.3125 201.4375 C-334.83350875 207.51916229 -330.55665701 212.69813162 -326 218 C-325.31550781 218.80824219 -324.63101563 219.61648438 -323.92578125 220.44921875 C-319.6244809 225.42655844 -315.08558152 229.83197062 -310 234 C-309.35933594 234.54011719 -308.71867187 235.08023438 -308.05859375 235.63671875 C-287.65120735 252.2491832 -263.69920757 261.37826393 -238 266 C-237.05833984 266.17345947 -236.11667969 266.34691895 -235.14648438 266.52563477 C-205.68112777 270.96784363 -172.79540013 264.64332846 -147 250 C-146.02957764 249.46004395 -146.02957764 249.46004395 -145.03955078 248.90917969 C-136.32406123 244.03057603 -128.52349394 238.61226331 -121 232 C-120.12859375 231.24976563 -119.2571875 230.49953125 -118.359375 229.7265625 C-114.12700277 226.3129131 -114.12700277 226.3129131 -111 222 C-110.34 222 -109.68 222 -109 222 C-108.73316406 221.40960938 -108.46632813 220.81921875 -108.19140625 220.2109375 C-106.97920482 217.9614096 -105.69825169 216.46483983 -103.9375 214.625 C-100.56185802 210.86479121 -97.79081689 206.86279434 -95.0625 202.625 C-94.4600647 201.6961499 -94.4600647 201.6961499 -93.84545898 200.74853516 C-91.69618738 197.61994558 -91.69618738 197.61994558 -91 194 C-93.34626127 192.46590609 -95.6873851 191.06427096 -98.125 189.6875 C-99.69565778 188.78315149 -101.26595277 187.87817269 -102.8359375 186.97265625 C-103.67608398 186.49070801 -104.51623047 186.00875977 -105.38183594 185.51220703 C-108.93983628 183.45716655 -112.47072183 181.35776823 -116.00219727 179.25756836 C-119.70628389 177.05683737 -123.41920115 174.87127985 -127.13330078 172.6875 C-129.08386333 171.53928944 -131.03269427 170.3881333 -132.97998047 169.234375 C-135.87658507 167.52095733 -138.78092121 165.8214291 -141.6875 164.125 C-142.57856445 163.59471191 -143.46962891 163.06442383 -144.38769531 162.51806641 C-145.21237305 162.04030762 -146.03705078 161.56254883 -146.88671875 161.0703125 C-147.97279419 160.43246826 -147.97279419 160.43246826 -149.08081055 159.78173828 C-151.16044872 158.69196112 -151.16044872 158.69196112 -154 160 C-155.59803164 161.97041699 -157.08616568 163.94250642 -158.5625 166 C-170.5181041 181.92409755 -186.48015884 190.83210253 -206.03515625 194.58203125 C-223.44228767 197.03600103 -242.05982236 192.80769063 -256.75390625 183.19921875 C-258.92168079 181.54496103 -260.96085049 179.80878534 -263 178 C-263.57492187 177.5771875 -264.14984375 177.154375 -264.7421875 176.71875 C-277.56466943 167.02802633 -285.86193317 149.83012415 -288.67919922 134.36425781 C-290.84811564 118.3796409 -288.53674436 104.59739231 -282 90 C-281.55527344 88.93265625 -281.55527344 88.93265625 -281.1015625 87.84375 C-273.75876015 71.40665115 -258.23198479 59.7161958 -242 53 C-223.23145716 46.26560378 -203.70719387 47.93842069 -185.328125 55.33984375 C-179.07263574 58.46024626 -173.31644136 62.46719595 -168 67 C-167.67 67.99 -167.34 68.98 -167 70 C-165.67845575 70.68974126 -164.3435263 71.3541213 -163 72 C-161.40234375 73.5859375 -161.40234375 73.5859375 -159.9375 75.375 C-159.42832031 75.99503906 -158.91914063 76.61507812 -158.39453125 77.25390625 C-157.70423828 78.11822266 -157.70423828 78.11822266 -157 79 C-156.38125 79.763125 -155.7625 80.52625 -155.125 81.3125 C-154 83 -154 83 -154 85 C-141.35616523 77.97815605 -128.74444458 70.91002473 -116.25 63.625 C-114.7496521 62.75029053 -114.7496521 62.75029053 -113.21899414 61.85791016 C-109.06619653 59.42522473 -104.92774307 56.97970722 -100.85546875 54.4140625 C-100.26282227 54.04071777 -99.67017578 53.66737305 -99.05957031 53.28271484 C-97.59429698 52.34982709 -96.13835098 51.4023283 -94.68359375 50.453125 C-91.48662624 48.72201596 -88.51967076 47.88753132 -85 47 C-85 46.34 -85 45.68 -85 45 C-84.0867395 44.50971313 -84.0867395 44.50971313 -83.1550293 44.00952148 C-68.49747454 36.17809406 -68.49747454 36.17809406 -54.33984375 27.49609375 C-51.04012354 25.38625595 -47.60114714 23.57554138 -44.1484375 21.73046875 C-40.2156763 19.5689139 -36.35982713 17.28855883 -32.5 15 C-26.84868096 11.65033393 -21.16647424 8.40243321 -15.36328125 5.3203125 C-12.39303902 3.66090444 -9.611294 1.77289237 -6.8515625 -0.21484375 C-4.31230452 -1.2916177 -2.63401772 -0.60658467 0 0 Z " fill="#1E598E" transform="translate(453,148)"/>
<path d="M0 0 C1.14603195 -0.0049926 1.14603195 -0.0049926 2.31521606 -0.01008606 C3.92026169 -0.01511367 5.52531761 -0.01749569 7.13037109 -0.01733398 C9.55714495 -0.01951939 11.98346256 -0.03771664 14.41015625 -0.05664062 C22.40433687 -0.08646066 29.92473446 0.06880362 37.6953125 2.16796875 C38.41074219 2.33965576 39.12617188 2.51134277 39.86328125 2.68823242 C58.46226678 7.21328106 75.74306499 14.53313708 91.6953125 25.16796875 C91.6953125 25.82796875 91.6953125 26.48796875 91.6953125 27.16796875 C92.41074219 27.41160156 93.12617188 27.65523437 93.86328125 27.90625 C99.16895492 30.2700191 103.30233905 34.42992524 107.6953125 38.16796875 C108.80712891 39.07482422 108.80712891 39.07482422 109.94140625 40 C114.99837521 44.20921198 118.82016434 48.87268832 122.6953125 54.16796875 C123.64348151 55.4252715 124.59278907 56.68171609 125.54296875 57.9375 C126.5528123 59.2846101 127.56192495 60.63226841 128.5703125 61.98046875 C129.30374878 62.95016602 129.30374878 62.95016602 130.05200195 63.93945312 C130.73782349 64.86661133 130.73782349 64.86661133 131.4375 65.8125 C131.8485498 66.36268799 132.25959961 66.91287598 132.68310547 67.47973633 C133.80524085 69.35131523 134.26830158 71.03785235 134.6953125 73.16796875 C121.05420713 81.21177273 107.38985442 89.21545539 93.6953125 97.16796875 C92.6753418 97.7609375 91.65537109 98.35390625 90.60449219 98.96484375 C87.67934388 100.66265054 84.75053736 102.35394195 81.8203125 104.04296875 C80.92860352 104.56101074 80.03689453 105.07905273 79.11816406 105.61279297 C78.30057617 106.08217285 77.48298828 106.55155273 76.640625 107.03515625 C75.92406738 107.44878418 75.20750977 107.86241211 74.46923828 108.28857422 C72.6953125 109.16796875 72.6953125 109.16796875 70.6953125 109.16796875 C69.55122072 107.64939332 68.47946212 106.07594734 67.4453125 104.48046875 C64.51879048 100.16961681 61.81529731 97.3027398 57.6953125 94.16796875 C56.9528125 93.38421875 56.2103125 92.60046875 55.4453125 91.79296875 C42.21490996 79.16394814 23.98620477 73.55115235 5.86572266 73.75292969 C-13.06487397 74.48783423 -30.23644428 82.08697748 -43.71875 95.34765625 C-59.24332786 112.27929555 -64.26658082 131.05387146 -63.47509766 153.51171875 C-62.31592589 171.58018409 -52.85595433 187.89388056 -40.07421875 200.33984375 C-30.03273911 209.01891158 -17.34070475 214.89059224 -4.3046875 217.16796875 C-3.61375 217.296875 -2.9228125 217.42578125 -2.2109375 217.55859375 C-0.2368032 217.86604089 1.70138998 218.04148859 3.6953125 218.16796875 C4.55125 218.23242188 5.4071875 218.296875 6.2890625 218.36328125 C25.87748613 219.15313704 45.0335409 210.57176969 59.34375 197.6015625 C63.93772873 192.8473287 67.802219 187.49963751 71.6953125 182.16796875 C75.8637524 183.69587435 79.62472841 185.74618444 83.4453125 187.98046875 C84.6064078 188.65427179 85.7678727 189.32743832 86.9296875 190 C87.83376343 190.52364136 87.83376343 190.52364136 88.75610352 191.05786133 C90.85466886 192.2591929 92.96642298 193.4344229 95.08203125 194.60546875 C108.53495871 202.05695764 121.7188176 209.91670786 134.6953125 218.16796875 C131.23167236 227.48800527 125.2823045 235.0037823 118.515625 242.171875 C116.64554881 244.04062663 116.64554881 244.04062663 115.6953125 246.16796875 C115.0353125 246.16796875 114.3753125 246.16796875 113.6953125 246.16796875 C113.46714844 246.73 113.23898437 247.29203125 113.00390625 247.87109375 C105.64199805 260.79289083 88.26840604 269.33429135 75.56445312 276.15576172 C73.94399031 277.03330075 72.34128876 277.94348764 70.7421875 278.859375 C43.85470807 293.57066732 6.04939107 296.69217151 -23.3046875 289.16796875 C-24.54863281 288.87792969 -25.79257813 288.58789062 -27.07421875 288.2890625 C-49.44464821 282.78284969 -69.89567977 272.26815991 -87.3046875 257.16796875 C-88.1090625 256.48605469 -88.9134375 255.80414063 -89.7421875 255.1015625 C-94.73514981 250.79175889 -99.16809769 246.3022067 -103.3046875 241.16796875 C-103.72588867 240.65862793 -104.14708984 240.14928711 -104.58105469 239.62451172 C-123.51937573 216.54137372 -137.21758318 186.38946875 -138.3046875 156.16796875 C-138.36785156 154.89050781 -138.43101562 153.61304688 -138.49609375 152.296875 C-139.38417632 125.96493652 -133.64026988 101.03268709 -121.23779297 77.91650391 C-120.39576187 76.33863191 -119.58460473 74.74437801 -118.77734375 73.1484375 C-106.68367889 49.73161828 -86.01672785 31.01220408 -63.3046875 18.16796875 C-62.71187988 17.82781738 -62.11907227 17.48766602 -61.50830078 17.13720703 C-42.71969312 6.415689 -21.73780298 0.03384233 0 0 Z " fill="#FCFDFD" transform="translate(228.3046875,123.83203125)"/>
<path d="M0 0 C2.1083805 1.79846265 3.13781865 3.48692033 4.44140625 5.93359375 C7.9203975 12.01525604 12.19724924 17.19422537 16.75390625 22.49609375 C17.78064453 23.70845703 17.78064453 23.70845703 18.828125 24.9453125 C23.12942535 29.92265219 27.66832473 34.32806437 32.75390625 38.49609375 C33.39457031 39.03621094 34.03523438 39.57632813 34.6953125 40.1328125 C55.1026989 56.74527695 79.05469868 65.87435768 104.75390625 70.49609375 C105.69556641 70.66955322 106.63722656 70.8430127 107.60742188 71.02172852 C137.07277848 75.46393738 169.95850612 69.13942221 195.75390625 54.49609375 C196.40085449 54.13612305 197.04780273 53.77615234 197.71435547 53.40527344 C206.42984502 48.52666978 214.23041231 43.10835706 221.75390625 36.49609375 C222.6253125 35.74585938 223.49671875 34.995625 224.39453125 34.22265625 C228.62690348 30.80900685 228.62690348 30.80900685 231.75390625 26.49609375 C232.41390625 26.49609375 233.07390625 26.49609375 233.75390625 26.49609375 C234.01816406 25.91085937 234.28242188 25.325625 234.5546875 24.72265625 C235.79821772 22.41382164 237.159594 20.78745933 238.94140625 18.87109375 C242.43215942 15.01747642 245.22479962 10.90234946 247.98046875 6.5 C250.14493007 4.05425406 251.56029962 3.79583499 254.75390625 3.49609375 C254.42390625 2.17609375 254.09390625 0.85609375 253.75390625 -0.50390625 C255.40293645 0.11260958 257.04806466 0.73957117 258.69140625 1.37109375 C259.60792969 1.71914063 260.52445312 2.0671875 261.46875 2.42578125 C263.75390625 3.49609375 263.75390625 3.49609375 264.75390625 5.49609375 C266.7785388 6.14822667 266.7785388 6.14822667 268.75390625 6.49609375 C268.75390625 7.15609375 268.75390625 7.81609375 268.75390625 8.49609375 C270.73390625 8.82609375 272.71390625 9.15609375 274.75390625 9.49609375 C274.75390625 10.15609375 274.75390625 10.81609375 274.75390625 11.49609375 C276.73390625 11.99109375 276.73390625 11.99109375 278.75390625 12.49609375 C278.75390625 13.15609375 278.75390625 13.81609375 278.75390625 14.49609375 C279.74390625 14.49609375 280.73390625 14.49609375 281.75390625 14.49609375 C281.75390625 15.15609375 281.75390625 15.81609375 281.75390625 16.49609375 C282.33785156 16.62628906 282.92179687 16.75648438 283.5234375 16.890625 C289.89525346 18.62027732 295.35266766 22.4448541 300.67578125 26.2265625 C302.7318359 27.48261093 304.40015585 28.05609086 306.75390625 28.49609375 C306.75390625 29.15609375 306.75390625 29.81609375 306.75390625 30.49609375 C307.35203125 30.64046875 307.95015625 30.78484375 308.56640625 30.93359375 C310.31541029 31.38333765 312.04067648 31.92501716 313.75390625 32.49609375 C313.75390625 33.15609375 313.75390625 33.81609375 313.75390625 34.49609375 C314.88828125 34.76421875 316.02265625 35.03234375 317.19140625 35.30859375 C318.36703125 35.70046875 319.54265625 36.09234375 320.75390625 36.49609375 C321.08390625 37.48609375 321.41390625 38.47609375 321.75390625 39.49609375 C322.62015625 39.78484375 323.48640625 40.07359375 324.37890625 40.37109375 C327.35885563 41.36441021 328.83493157 42.15767299 331.25390625 43.99609375 C334.26686098 46.27090813 337.07742629 47.50972108 340.75390625 48.49609375 C341.08390625 47.83609375 341.41390625 47.17609375 341.75390625 46.49609375 C341.21443375 52.43029129 338.031962 56.47988349 333.71484375 60.30078125 C324.42817717 67.40581822 313.94172991 72.81766681 303.75390625 78.49609375 C301.14879052 79.95273687 298.54476964 81.41132137 295.94140625 82.87109375 C295.31814453 83.21994629 294.69488281 83.56879883 294.05273438 83.92822266 C286.97323458 87.90647889 279.97372829 92.021786 272.96533203 96.12353516 C266.27146564 100.03786125 259.55551596 103.91023467 252.81640625 107.74609375 C246.60140476 111.28420241 240.40952861 114.85563274 234.25390625 118.49609375 C222.3472596 125.5346805 210.33249169 132.38952514 198.25439453 139.12939453 C193.03485992 142.04300831 187.88004784 145.00284677 182.81640625 148.18359375 C176.34470573 152.21621116 169.7166827 155.95415472 163.06640625 159.68359375 C162.00881104 160.27809326 160.95121582 160.87259277 159.86157227 161.48510742 C137.85185225 173.77244661 137.85185225 173.77244661 126.44140625 173.80859375 C125.22839844 173.82535156 124.01539063 173.84210938 122.765625 173.859375 C113.66275951 173.36176854 106.03183586 169.33376639 98.31640625 164.80859375 C97.33269043 164.24261475 96.34897461 163.67663574 95.33544922 163.09350586 C86.49203331 157.98460782 77.72410918 152.74568433 68.95214844 147.51538086 C60.364608 142.40896173 51.68435345 137.49197986 42.95092773 132.64038086 C34.90647178 128.16418898 26.94651997 123.5563172 19.00561523 118.89941406 C7.75858094 112.31048427 -3.56686693 105.86083162 -14.89233398 99.40795898 C-19.00513603 97.06338937 -23.115482 94.71454074 -27.22557068 92.36521912 C-30.66250229 90.40075422 -34.10027966 88.43778486 -37.5390625 86.4765625 C-41.87730929 84.00215185 -46.21198024 81.5215338 -50.54589844 79.03955078 C-53.20623393 77.518878 -55.8704993 76.00527168 -58.53515625 74.4921875 C-60.20978429 73.53541678 -61.88426953 72.57839605 -63.55859375 71.62109375 C-64.31615967 71.1933667 -65.07372559 70.76563965 -65.85424805 70.32495117 C-72.93018579 66.26343697 -79.43087209 61.88546214 -84.74609375 55.62109375 C-85.41640625 54.83992188 -86.08671875 54.05875 -86.77734375 53.25390625 C-87.26203125 52.67382812 -87.74671875 52.09375 -88.24609375 51.49609375 C-86.87589064 48.16845762 -85.69540766 46.8577782 -82.49609375 45.24609375 C-78.23399354 43.01786221 -74.04293905 40.70022127 -69.87109375 38.30859375 C-69.26426758 37.96344727 -68.65744141 37.61830078 -68.03222656 37.26269531 C-65.37498197 35.74617953 -62.79324517 34.1941947 -60.24609375 32.49609375 C-59.25609375 32.49609375 -58.26609375 32.49609375 -57.24609375 32.49609375 C-57.24609375 31.83609375 -57.24609375 31.17609375 -57.24609375 30.49609375 C-55.61800781 29.70332031 -55.61800781 29.70332031 -53.95703125 28.89453125 C-48.48856796 26.15909669 -43.18641523 23.1405303 -37.87109375 20.12109375 C-36.89398438 19.569375 -35.916875 19.01765625 -34.91015625 18.44921875 C-27.3007887 14.13859298 -19.78913749 9.6837104 -12.34765625 5.08984375 C-11.18924108 4.39119868 -10.03039878 3.69326124 -8.87109375 2.99609375 C-8.28199219 2.62484375 -7.69289063 2.25359375 -7.0859375 1.87109375 C-2.85308286 -0.64008294 -2.85308286 -0.64008294 0 0 Z " fill="#1A4672" transform="translate(110.24609375,343.50390625)"/>
<path d="M0 0 C2.703125 2.3046875 2.703125 2.3046875 3.703125 5.3046875 C5.02466925 5.99442876 6.3595987 6.6588088 7.703125 7.3046875 C9.89449524 9.47998412 11.76880454 11.90029475 13.703125 14.3046875 C14.3425 15.0265625 14.981875 15.7484375 15.640625 16.4921875 C16.703125 18.3046875 16.703125 18.3046875 16.55004883 20.24487305 C15.3770574 23.09772075 13.92892303 23.66160647 11.21484375 25.07421875 C10.28575195 25.56760742 9.35666016 26.06099609 8.39941406 26.56933594 C7.40651367 27.08012695 6.41361328 27.59091797 5.390625 28.1171875 C3.37815132 29.17956074 1.36642673 30.24335424 -0.64453125 31.30859375 C-1.61793457 31.8205127 -2.59133789 32.33243164 -3.59423828 32.85986328 C-7.90105649 35.16227974 -12.07541633 37.66160565 -16.25 40.1953125 C-18.296875 41.3046875 -18.296875 41.3046875 -20.296875 41.3046875 C-20.296875 41.9646875 -20.296875 42.6246875 -20.296875 43.3046875 C-20.91949219 43.59859375 -21.54210937 43.8925 -22.18359375 44.1953125 C-37.36521718 51.56379919 -51.81784257 60.36228321 -66.25439453 69.07568359 C-73.20621657 73.26781359 -80.23232516 77.30588571 -87.296875 81.3046875 C-88.5266604 82.01194606 -89.75581184 82.72030793 -90.984375 83.4296875 C-97.00755199 86.90362292 -103.02631411 90.29481827 -109.296875 93.3046875 C-118.68509824 77.29853641 -121.30678314 57.3708198 -116.87646484 39.33422852 C-115.48637822 34.46658314 -113.36134503 29.91491505 -111.296875 25.3046875 C-111.00039062 24.593125 -110.70390625 23.8815625 -110.3984375 23.1484375 C-103.05563515 6.71133865 -87.52885979 -4.9791167 -71.296875 -11.6953125 C-46.78170582 -20.49167266 -20.67133763 -15.32847324 0 0 Z " fill="#5D8CBC" transform="translate(282.296875,212.6953125)"/>
<path d="M0 0 C0 0.66 0 1.32 0 2 C1.175625 2.4640625 1.175625 2.4640625 2.375 2.9375 C5 4 5 4 7 5 C7 5.66 7 6.32 7 7 C7.53625 7.12375 8.0725 7.2475 8.625 7.375 C11.4638286 8.12206016 14.22223202 9.05303364 17 10 C17 10.66 17 11.32 17 12 C19.97 12.495 19.97 12.495 23 13 C23 13.66 23 14.32 23 15 C25.65228812 16.07525194 28.28368454 17.09456151 31 18 C31 18.66 31 19.32 31 20 C31.70769531 20.26683594 32.41539062 20.53367187 33.14453125 20.80859375 C36.11939204 22.04981473 38.87015878 23.49816456 41.6875 25.0625 C45.31676566 27.08258292 45.31676566 27.08258292 49 29 C49 29.66 49 30.32 49 31 C50.65 31.33 52.3 31.66 54 32 C54 32.66 54 33.32 54 34 C55.98 34.495 55.98 34.495 58 35 C57.55803531 39.86161162 55.16666456 42.76084586 52.0625 46.3125 C51.56596924 46.88500488 51.06943848 47.45750977 50.55786133 48.04736328 C37.8204117 62.40815374 19.65578497 71.70537994 0.38671875 73.203125 C-18.45216811 73.53028367 -36.73051165 68.69060968 -51 56 C-51.87978516 55.33097656 -51.87978516 55.33097656 -52.77734375 54.6484375 C-58.56948329 50.15657419 -63.08359784 44.15434624 -67 38 C-67 37.01 -67 36.02 -67 35 C-65.97261719 34.43152344 -64.94523438 33.86304688 -63.88671875 33.27734375 C-56.56677402 29.20549163 -49.38737221 25.03669586 -42.359375 20.47265625 C-39.7631789 18.85218286 -37.11419052 17.53660415 -34.35546875 16.22265625 C-31.00222063 14.48208136 -27.79303507 12.51946256 -24.5625 10.5625 C-15.84301141 5.28885002 -15.84301141 5.28885002 -11.8125 3 C-11.15894531 2.62875 -10.50539062 2.2575 -9.83203125 1.875 C-6.40234568 0.23694122 -3.84005672 0 0 0 Z " fill="#1A4673" transform="translate(241,270)"/>
<path d="M0 0 C5.61 0 11.22 0 17 0 C17 5.61 17 11.22 17 17 C22.61 17 28.22 17 34 17 C34 22.61 34 28.22 34 34 C28.39 34 22.78 34 17 34 C17 39.61 17 45.22 17 51 C11.39 51 5.78 51 0 51 C0 45.39 0 39.78 0 34 C-5.61 34 -11.22 34 -17 34 C-17 28.39 -17 22.78 -17 17 C-11.39 17 -5.78 17 0 17 C0 11.39 0 5.78 0 0 Z " fill="#F4F9FA" transform="translate(350,244)"/>
<path d="M0 0 C5.28 0 10.56 0 16 0 C16 5.28 16 10.56 16 16 C21.61 16 27.22 16 33 16 C33 21.61 33 27.22 33 33 C27.39 33 21.78 33 16 33 C16 38.61 16 44.22 16 50 C10.39 50 4.78 50 -1 50 C-1 44.39 -1 38.78 -1 33 C-6.28 33 -11.56 33 -17 33 C-17 27.39 -17 21.78 -17 16 C-11.39 16 -5.78 16 0 16 C0 10.72 0 5.44 0 0 Z " fill="#F8FBF9" transform="translate(412,245)"/>
<path d="M0 0 C0.66 0 1.32 0 2 0 C2.07013864 26.2779151 2.123012 52.55581613 2.15543652 78.83380604 C2.17089318 91.03563889 2.1919598 103.23741351 2.22631836 115.43920898 C2.25625741 126.07658528 2.27558373 136.7139194 2.28226548 147.35133666 C2.28617009 152.98167658 2.29532156 158.61189585 2.31719017 164.24219704 C2.33762644 169.54695024 2.34381937 174.85153365 2.33932304 180.15632248 C2.34014505 182.0980681 2.34606795 184.03981969 2.35761642 185.98153114 C2.4781496 207.30204579 2.4781496 207.30204579 -1 214 C-1.99 214.33 -2.98 214.66 -4 215 C-3.7884537 214.29381185 -3.57690741 213.58762369 -3.35895061 212.8600359 C-0.59427597 202.52861738 -0.55782318 192.61046083 -0.56762695 181.98120117 C-0.55859488 179.98915505 -0.54826415 177.99711446 -0.53674316 176.00508118 C-0.50931684 170.63410651 -0.49990827 165.26323772 -0.49388909 159.89220214 C-0.48446783 154.26543901 -0.45826154 148.63875381 -0.43388367 143.01203918 C-0.39031787 132.3735311 -0.36171006 121.73503823 -0.33856028 111.09646827 C-0.3114553 98.97785164 -0.26754714 86.85931378 -0.22227156 74.74075353 C-0.12956742 49.82721181 -0.05782168 24.91364539 0 0 Z " fill="#ECFAFE" transform="translate(457,176)"/>
<path d="M0 0 C0.38666196 2.83036556 0.48058758 4.89665116 0.3125 7.6875 C0.209375 10.100625 0.10625 12.51375 0 15 C4.95 15 9.9 15 15 15 C15 15.66 15 16.32 15 17 C9.39 17 3.78 17 -2 17 C-2 11.39 -2 5.78 -2 0 C-7.61 0 -13.22 0 -19 0 C-19 5.61 -19 11.22 -19 17 C-24.61 17 -30.22 17 -36 17 C-36 21.95 -36 26.9 -36 32 C-36.33 32 -36.66 32 -37 32 C-37.22126178 29.54220024 -37.42750395 27.08472352 -37.625 24.625 C-37.68945312 23.92632812 -37.75390625 23.22765625 -37.8203125 22.5078125 C-37.96119739 20.67630889 -37.98761659 18.83687252 -38 17 C-35.32299024 14.32299024 -33.665618 14.6463457 -29.9375 14.4375 C-26.15176774 14.54118059 -26.15176774 14.54118059 -23 13 C-22.75492177 10.54921775 -22.61643957 8.09951666 -22.4765625 5.640625 C-21.88769325 2.37771012 -21.15153113 0.54271861 -19 -2 C-15.8203125 -2.8125 -15.8203125 -2.8125 -12.125 -3 C-10.91070312 -3.0825 -9.69640625 -3.165 -8.4453125 -3.25 C-4.60003504 -2.9709776 -2.79935797 -2.67283332 0 0 Z " fill="#275377" transform="translate(369,244)"/>
<path d="M0 0 C0.99 0.66 1.98 1.32 3 2 C2.34 2.33 1.68 2.66 1 3 C0.34 2.67 -0.32 2.34 -1 2 C-1 2.66 -1 3.32 -1 4 C-1.99 4 -2.98 4 -4 4 C-4 4.66 -4 5.32 -4 6 C-6.5614657 8.29648649 -7.47967572 9 -11 9 C-11.12375 9.639375 -11.2475 10.27875 -11.375 10.9375 C-11.58125 11.618125 -11.7875 12.29875 -12 13 C-12.99 13.495 -12.99 13.495 -14 14 C-14.65555119 16.52733235 -14.65555119 16.52733235 -15 19 C-16.9375 18.625 -16.9375 18.625 -19 18 C-19.33 17.34 -19.66 16.68 -20 16 C-21.0725 16.474375 -22.145 16.94875 -23.25 17.4375 C-25.80839865 18.53766332 -28.25835017 19.45167003 -31 20 C-31.33 21.32 -31.66 22.64 -32 24 C-35.96 24.495 -35.96 24.495 -40 25 C-38.83433529 21.50300586 -38.43760737 21.41260119 -35.3125 19.8125 C-31.308411 17.69677474 -27.36294265 15.50915063 -23.4375 13.25 C-15.65163733 8.78596132 -7.82705751 4.39128421 0 0 Z " fill="#688DB1" transform="translate(191,42)"/>
<path d="M0 0 C1.32 0.99 2.64 1.98 4 3 C4 3.66 4 4.32 4 5 C1.99534779 6.6466786 -0.11963987 8.08308324 -2.25 9.5625 C-3.11625 10.2740625 -3.11625 10.2740625 -4 11 C-4 11.66 -4 12.32 -4 13 C-7.63 12.67 -11.26 12.34 -15 12 C-14.01 12.66 -13.02 13.32 -12 14 C-14.97 13.505 -14.97 13.505 -18 13 C-18 12.01 -18 11.02 -18 10 C-12.06 6.7 -6.12 3.4 0 0 Z " fill="#F6F5F0" transform="translate(364,450)"/>
<path d="M0 0 C0.66 0.33 1.32 0.66 2 1 C2 1.66 2 2.32 2 3 C0.824375 3.3403125 0.824375 3.3403125 -0.375 3.6875 C-3.70542299 5.35271149 -3.68684527 6.635041 -5 10 C-6.64821244 11.03013277 -8.31503702 12.03114628 -10 13 C-10.68531646 14.32384424 -11.3501875 15.65837191 -12 17 C-12.94543949 18.15348885 -13.9262068 19.27878906 -14.9375 20.375 C-19.63163837 25.75441404 -21.46259673 31.1408162 -23 38 C-23.66 38 -24.32 38 -25 38 C-25.04898438 38.62648437 -25.09796875 39.25296875 -25.1484375 39.8984375 C-25.22320312 40.71570313 -25.29796875 41.53296875 -25.375 42.375 C-25.47941406 43.59316406 -25.47941406 43.59316406 -25.5859375 44.8359375 C-26 47 -26 47 -28 49 C-26.70508915 30.13129908 -18.39867016 16.47220515 -4.4375 3.8125 C-2.96559433 2.53326387 -1.4891632 1.25910458 0 0 Z " fill="#698EAD" transform="translate(194,210)"/>
<path d="M0 0 C5.18521615 1.28635797 9.5108673 3.16421197 14.125 5.875 C14.79515137 6.26067139 15.46530273 6.64634277 16.15576172 7.04370117 C17.63018376 7.89240347 19.10292998 8.74402201 20.57421875 9.59814453 C23.20810414 11.12026308 25.85284654 12.62217532 28.5 14.12109375 C30.37508174 15.18475175 32.25008263 16.2485523 34.125 17.3125 C35.45748779 18.06732666 35.45748779 18.06732666 36.81689453 18.83740234 C41.32840041 21.41037725 45.72505044 24.049584 50 27 C46.27656681 28.2411444 45.44933933 27.70683704 42 26 C40.19767117 24.73109585 38.42793418 23.4150516 36.6875 22.0625 C32.21400251 18.722531 28.3270664 16.60817099 23 15 C23 14.34 23 13.68 23 13 C21.2984375 12.566875 21.2984375 12.566875 19.5625 12.125 C18.386875 11.75375 17.21125 11.3825 16 11 C15.67 10.34 15.34 9.68 15 9 C13.09529034 8.07501997 11.15002814 7.23247815 9.1875 6.4375 C7.60001953 5.78587891 7.60001953 5.78587891 5.98046875 5.12109375 C3.64490661 4.24257955 1.43256061 3.52420798 -1 3 C-0.67 2.01 -0.34 1.02 0 0 Z " fill="#688BAA" transform="translate(348,82)"/>
<path d="M0 0 C5.61 0 11.22 0 17 0 C17 5.61 17 11.22 17 17 C11.39 17 5.78 17 0 17 C0 22.61 0 28.22 0 34 C-5.61 34 -11.22 34 -17 34 C-17 28.39 -17 22.78 -17 17 C-16.67 17 -16.34 17 -16 17 C-16 22.28 -16 27.56 -16 33 C-11.71 33 -7.42 33 -3 33 C-2.28553187 29.42765933 -1.88316783 26.8884801 -1.9375 23.375 C-1.95103516 22.24191406 -1.95103516 22.24191406 -1.96484375 21.0859375 C-1.97644531 20.39757812 -1.98804688 19.70921875 -2 19 C-2 18.01 -2 17.02 -2 16 C3.94 16 9.88 16 16 16 C16 11.05 16 6.1 16 1 C10.72 1 5.44 1 0 1 C0 0.67 0 0.34 0 0 Z " fill="#CBDFEE" transform="translate(367,261)"/>
<path d="M0 0 C0 0.66 0 1.32 0 2 C-6.40471818 2.12558271 -6.40471818 2.12558271 -9.3515625 1.50390625 C-12.3467135 0.93403239 -15.14022866 0.86742914 -18.1875 0.875 C-19.23292969 0.87242187 -20.27835938 0.86984375 -21.35546875 0.8671875 C-23.97748861 0.82133277 -23.97748861 0.82133277 -26 2 C-26 1.34 -26 0.68 -26 0 C-27.77119803 0.14133499 -29.54195287 0.28823208 -31.3125 0.4375 C-32.79169922 0.55931641 -32.79169922 0.55931641 -34.30078125 0.68359375 C-37.09375599 0.91812559 -37.09375599 0.91812559 -40 2 C-42.1875 1.0625 -42.1875 1.0625 -44 0 C-28.64856887 -4.02975067 -15.35143113 -4.02975067 0 0 Z " fill="#7091B4" transform="translate(258,200)"/>
<path d="M0 0 C0.66 0.66 1.32 1.32 2 2 C-1.625 5 -1.625 5 -5 5 C-5.020625 5.598125 -5.04125 6.19625 -5.0625 6.8125 C-6.54671509 10.27566855 -9.6338512 10.60711084 -13 12 C-14.92336969 14.02946853 -14.92336969 14.02946853 -16 16 C-16.99 15.67 -17.98 15.34 -19 15 C-19.99 15.99 -20.98 16.98 -22 18 C-22.66 17.67 -23.32 17.34 -24 17 C-24.33 17.66 -24.66 18.32 -25 19 C-26.65 18.67 -28.3 18.34 -30 18 C-27.17857205 15.80154788 -24.30332923 13.94824512 -21.19140625 12.1875 C-20.27939453 11.66929687 -19.36738281 11.15109375 -18.42773438 10.6171875 C-17.00944336 9.81667969 -17.00944336 9.81667969 -15.5625 9 C-13.68854053 7.93796137 -11.81483445 6.87547549 -9.94140625 5.8125 C-9.11326416 5.34457031 -8.28512207 4.87664062 -7.43188477 4.39453125 C-4.93417054 2.96225099 -2.46413385 1.48918796 0 0 Z " fill="#E9F1F6" transform="translate(343,462)"/>
<path d="M0 0 C5.28 0 10.56 0 16 0 C15.01 0.495 15.01 0.495 14 1 C14 1.66 14 2.32 14 3 C12.906875 2.979375 11.81375 2.95875 10.6875 2.9375 C7.05615809 2.81455548 7.05615809 2.81455548 4 4 C3.34 7.3 2.68 10.6 2 14 C5.1895143 14.79737858 8.00245153 15.26338369 11.25 15.5625 C12.14203125 15.64628906 13.0340625 15.73007812 13.953125 15.81640625 C14.96632813 15.90728516 14.96632813 15.90728516 16 16 C16 16.33 16 16.66 16 17 C10.72 17 5.44 17 0 17 C0 11.39 0 5.78 0 0 Z " fill="#E9FAFD" transform="translate(395,261)"/>
<path d="M0 0 C2.21399303 3.79541663 3.00980198 7.75629421 4 12 C5.65 11.67 7.3 11.34 9 11 C9.268125 11.804375 9.53625 12.60875 9.8125 13.4375 C10.204375 14.283125 10.59625 15.12875 11 16 C11.99 16.33 12.98 16.66 14 17 C11.63290296 19.74084921 9.35594194 20.7367158 6 22 C-1.69820717 7.13247012 -1.69820717 7.13247012 0 0 Z " fill="#608AB2" transform="translate(167,284)"/>
<path d="M0 0 C3.96 0 7.92 0 12 0 C9.00118923 1.99920718 6.37886693 3.03165856 3 4.25 C-2.59412926 6.34858152 -7.69476824 8.86357686 -12.85546875 11.86328125 C-15 13 -15 13 -17 13 C-16.67 11.35 -16.34 9.7 -16 8 C-13.69 8 -11.38 8 -9 8 C-9 7.34 -9 6.68 -9 6 C-6.03 4.68 -3.06 3.36 0 2 C0 1.34 0 0.68 0 0 Z " fill="#698CAF" transform="translate(180,130)"/>
<path d="M0 0 C1.82421875 1.3203125 1.82421875 1.3203125 2.82421875 4.3203125 C2.49421875 4.6503125 2.16421875 4.9803125 1.82421875 5.3203125 C-0.50911458 5.3203125 -2.84244792 5.3203125 -5.17578125 5.3203125 C-6.16578125 5.6503125 -7.15578125 5.9803125 -8.17578125 6.3203125 C-8.17578125 7.3103125 -8.17578125 8.3003125 -8.17578125 9.3203125 C-12.63078125 9.8153125 -12.63078125 9.8153125 -17.17578125 10.3203125 C-17.17578125 9.6603125 -17.17578125 9.0003125 -17.17578125 8.3203125 C-15.53402801 7.3968263 -13.89219785 6.47347659 -12.25 5.55078125 C-10.82663011 4.70640928 -9.43356539 3.80943665 -8.0703125 2.87109375 C-7.38324219 2.40058594 -6.69617188 1.93007813 -5.98828125 1.4453125 C-5.03888672 0.76855469 -5.03888672 0.76855469 -4.0703125 0.078125 C-2.17578125 -0.6796875 -2.17578125 -0.6796875 0 0 Z " fill="#E5EFF2" transform="translate(421.17578125,418.6796875)"/>
<path d="M0 0 C0.98226562 0.34224609 0.98226562 0.34224609 1.984375 0.69140625 C9.34095169 3.00852009 15.39647349 3.10138342 23 2 C22.67 3.32 22.34 4.64 22 6 C23.3921875 5.9071875 23.3921875 5.9071875 24.8125 5.8125 C28 6 28 6 29.69921875 7.51171875 C30.12847656 8.00285156 30.55773437 8.49398438 31 9 C19.93397724 8.94816851 9.47741412 5.19677125 -1 2 C-0.67 1.34 -0.34 0.68 0 0 Z " fill="#E5EEF4" transform="translate(188,406)"/>
<path d="M0 0 C0.99 0.33 1.98 0.66 3 1 C3 1.99 3 2.98 3 4 C3.99 3.67 4.98 3.34 6 3 C6.33 3.66 6.66 4.32 7 5 C7.928125 5.2165625 7.928125 5.2165625 8.875 5.4375 C11.38282641 6.1013364 12.23995676 7.15995479 14 9 C14.66 9 15.32 9 16 9 C16 9.66 16 10.32 16 11 C18.64 11.33 21.28 11.66 24 12 C24.33 12.99 24.66 13.98 25 15 C25.66 15.66 26.32 16.32 27 17 C26.34 17.33 25.68 17.66 25 18 C22.46568023 16.74191286 20.06097583 15.42894477 17.625 14 C16.55765625 13.38620483 16.55765625 13.38620483 15.46875 12.76000977 C13.30774678 11.51467357 11.15341378 10.2584043 9 9 C7.75803701 8.27956075 6.5158653 7.55948112 5.2734375 6.83984375 C2.51090929 5.23441268 -0.24693875 3.62159479 -3 2 C-2.01 1.34 -1.02 0.68 0 0 Z " fill="#2A4762" transform="translate(128,458)"/>
<path d="M0 0 C0.69480469 0.0721875 1.38960937 0.144375 2.10546875 0.21875 C12.73677321 1.18890706 23.33369044 1.09832791 34 1 C26.70060007 5.86626662 15.75862679 4.67226662 7.4375 3.125 C4.24192426 2.4638464 2.80421912 1.86947941 0 0 Z " fill="#395170" transform="translate(219,339)"/>
<path d="M0 0 C-1.28965176 1.37562854 -2.62689293 2.70766393 -4 4 C-4.66 4 -5.32 4 -6 4 C-6 4.66 -6 5.32 -6 6 C-6.66 6 -7.32 6 -8 6 C-8 6.66 -8 7.32 -8 8 C-8.66 8 -9.32 8 -10 8 C-10.268125 8.70125 -10.53625 9.4025 -10.8125 10.125 C-12.0681449 13.1649824 -13.50235123 16.0727774 -15 19 C-15.66 19 -16.32 19 -17 19 C-16.67 16.69 -16.34 14.38 -16 12 C-15.34 12 -14.68 12 -14 12 C-13.74605469 11.38511719 -13.49210937 10.77023438 -13.23046875 10.13671875 C-12.88628906 9.32847656 -12.54210937 8.52023438 -12.1875 7.6875 C-11.68283203 6.48673828 -11.68283203 6.48673828 -11.16796875 5.26171875 C-8.36163123 -0.17262715 -6.01224139 -0.34031555 0 0 Z " fill="#E4F2F7" transform="translate(35,132)"/>
<path d="M0 0 C0.66 0.33 1.32 0.66 2 1 C2.639375 0.814375 3.27875 0.62875 3.9375 0.4375 C4.618125 0.293125 5.29875 0.14875 6 0 C6.99 0.66 7.98 1.32 9 2 C3.39 5.3 -2.22 8.6 -8 12 C-8.33 11.01 -8.66 10.02 -9 9 C-9.66 8.67 -10.32 8.34 -11 8 C-9.5459375 7.5978125 -9.5459375 7.5978125 -8.0625 7.1875 C-6.5465625 6.5996875 -6.5465625 6.5996875 -5 6 C-4.67 5.01 -4.34 4.02 -4 3 C-2.68 3 -1.36 3 0 3 C0 2.01 0 1.02 0 0 Z " fill="#1E4670" transform="translate(271,497)"/>
<path d="M0 0 C5.61 0 11.22 0 17 0 C17 5.61 17 11.22 17 17 C11.39 17 5.78 17 0 17 C0 16.67 0 16.34 0 16 C4.95 16 9.9 16 15 16 C14.67 14.35 14.34 12.7 14 11 C13.88043144 7.99165508 13.95503411 5.01271496 14 2 C7.07 1.505 7.07 1.505 0 1 C0 0.67 0 0.34 0 0 Z " fill="#D0E8F3" transform="translate(428,261)"/>
<path d="M0 0 C-0.25 1.875 -0.25 1.875 -1 4 C-3 5.125 -3 5.125 -5 6 C-5.33 6.66 -5.66 7.32 -6 8 C-7.99117408 8.69258229 -9.9921136 9.35747635 -12 10 C-12.99 10.66 -13.98 11.32 -15 12 C-17.1875 11.625 -17.1875 11.625 -19 11 C-16.22312644 7.75177521 -12.60938618 5.87816944 -8.9375 3.8125 C-8.30005859 3.44447266 -7.66261719 3.07644531 -7.00585938 2.69726562 C-2.25687036 0 -2.25687036 0 0 0 Z " fill="#7193B3" transform="translate(130,78)"/>
<path d="M0 0 C1.7316239 0.1437323 3.46698333 0.24574932 5.203125 0.31640625 C6.67265625 0.37924805 6.67265625 0.37924805 8.171875 0.44335938 C9.18765625 0.48267578 10.2034375 0.52199219 11.25 0.5625 C12.796875 0.62727539 12.796875 0.62727539 14.375 0.69335938 C16.9165387 0.79925682 19.45817196 0.90133443 22 1 C22.66 2.32 23.32 3.64 24 5 C22.9790625 4.7834375 22.9790625 4.7834375 21.9375 4.5625 C9.14505412 2.1128827 -3.25837227 2.29723048 -16 5 C-16 4.34 -16 3.68 -16 3 C-14.7625 2.71125 -13.525 2.4225 -12.25 2.125 C-9.8388183 1.53493969 -7.95555415 0.97654247 -5.75 -0.1875 C-3.42393689 -1.26745787 -2.46100581 -0.63369001 0 0 Z " fill="#E5F4F9" transform="translate(232,195)"/>
<path d="M0 0 C0.99 0.33 1.98 0.66 3 1 C-3.26399627 6.22773022 -9.73680288 10.29373306 -17 14 C-17.33 13.34 -17.66 12.68 -18 12 C-16.625 10.5 -16.625 10.5 -15 9 C-14.34 9 -13.68 9 -13 9 C-12.7525 8.195625 -12.505 7.39125 -12.25 6.5625 C-11 4 -11 4 -9.0625 3.125 C-7 3 -7 3 -4 4 C-2.68 2.68 -1.36 1.36 0 0 Z " fill="#E4EDF3" transform="translate(324,384)"/>
<path d="M0 0 C31.87913616 -0.58256289 31.87913616 -0.58256289 36.90234375 3.57421875 C37.44568359 4.27998047 37.44568359 4.27998047 38 5 C36.0412957 4.85923685 34.08303907 4.7122324 32.125 4.5625 C31.03445313 4.48128906 29.94390625 4.40007812 28.8203125 4.31640625 C26 4 26 4 24 3 C22.18963178 2.77866002 20.37287901 2.60838518 18.5546875 2.46484375 C17.47832031 2.37783203 16.40195313 2.29082031 15.29296875 2.20117188 C14.16503906 2.11416016 13.03710938 2.02714844 11.875 1.9375 C10.73933594 1.84662109 9.60367188 1.75574219 8.43359375 1.66210938 C5.62266799 1.43770774 2.81149234 1.21716834 0 1 C0 0.67 0 0.34 0 0 Z " fill="#6388A9" transform="translate(232,122)"/>
<path d="M0 0 C-0.33 2.64 -0.66 5.28 -1 8 C-4.37097383 9.49821059 -6.20442119 10 -10 10 C-9.9375 7.25 -9.9375 7.25 -9 4 C-6.38191163 1.82922321 -3.48512002 0 0 0 Z " fill="#F8F4F1" transform="translate(305,485)"/>
<path d="M0 0 C3.00221784 4.50332676 4.31896025 8.57767579 4 14 C6.97 14 9.94 14 13 14 C13 14.66 13 15.32 13 16 C8.71 16 4.42 16 0 16 C0 10.72 0 5.44 0 0 Z " fill="#305B7E" transform="translate(428,245)"/>
<path d="M0 0 C-0.56847656 0.67804688 -1.13695313 1.35609375 -1.72265625 2.0546875 C-6.80050456 8.17523254 -11.55243582 14.40730841 -16 21 C-16.33 19.68 -16.66 18.36 -17 17 C-16.34 17 -15.68 17 -15 17 C-14.773125 16.113125 -14.54625 15.22625 -14.3125 14.3125 C-12.81540032 10.53410558 -10.8454032 8.8454032 -8 6 C-7.27648573 4.01985568 -6.59734611 2.02178685 -6 0 C-3.50907189 -1.24546405 -2.58919267 -0.7767578 0 0 Z " fill="#698AA8" transform="translate(129,171)"/>
<path d="M0 0 C0.66 0.33 1.32 0.66 2 1 C0.57497833 4.90455937 -1.26652127 8.24835962 -3.5 11.75 C-4.1084375 12.71421875 -4.716875 13.6784375 -5.34375 14.671875 C-7 17 -7 17 -9 18 C-8.45276317 14.62537285 -7.9451 12.91765 -6 10 C-6 9.34 -6 8.68 -6 8 C-5.34 8 -4.68 8 -4 8 C-4 7.34 -4 6.68 -4 6 C-4.66 6 -5.32 6 -6 6 C-6 5.34 -6 4.68 -6 4 C-5.34 4 -4.68 4 -4 4 C-3.67 3.01 -3.34 2.02 -3 1 C-2.01 0.67 -1.02 0.34 0 0 Z " fill="#DEEBF2" transform="translate(361,341)"/>
<path d="M0 0 C5.26198458 1.81447744 9.41821335 3.77192304 14 7 C14.7425 7.37125 15.485 7.7425 16.25 8.125 C18 9 18 9 20 11 C17.65942846 11.82193222 16.4410801 12.16347293 14.07714844 11.28735352 C13.4277832 10.90506592 12.77841797 10.52277832 12.109375 10.12890625 C11.40039062 9.71962891 10.69140625 9.31035156 9.9609375 8.88867188 C9.23132813 8.45103516 8.50171875 8.01339844 7.75 7.5625 C7.00492187 7.12873047 6.25984375 6.69496094 5.4921875 6.24804688 C3.65500263 5.1763557 1.82662026 4.08960023 0 3 C0 2.01 0 1.02 0 0 Z " fill="#305882" transform="translate(307,307)"/>
<path d="M0 0 C-4.1119753 3.5222421 -8.47841153 6.13336622 -13.1875 8.75 C-13.91130859 9.16121094 -14.63511719 9.57242188 -15.38085938 9.99609375 C-20.74497768 13 -20.74497768 13 -23 13 C-21.94145502 9.96901095 -21.07144429 9.04389455 -18.28515625 7.33203125 C-17.22167969 6.83058594 -16.15820312 6.32914063 -15.0625 5.8125 C-14.00160156 5.30332031 -12.94070313 4.79414063 -11.84765625 4.26953125 C-9 3 -9 3 -6 2 C-6 1.34 -6 0.68 -6 0 C-3.50907189 -1.24546405 -2.58919267 -0.7767578 0 0 Z " fill="#DDF1FA" transform="translate(322,220)"/>
<path d="M0 0 C4.60139641 1.48868707 7.50227094 3.74629855 11 7 C11 7.66 11 8.32 11 9 C11.59296875 9.25523437 12.1859375 9.51046875 12.796875 9.7734375 C15.21224538 11.11816498 16.51211706 12.49214367 18.25 14.625 C18.77078125 15.25664062 19.2915625 15.88828125 19.828125 16.5390625 C20.40820312 17.26222656 20.40820312 17.26222656 21 18 C20.34 18.33 19.68 18.66 19 19 C18.67 18.34 18.34 17.68 18 17 C17.38640625 16.7009375 16.7728125 16.401875 16.140625 16.09375 C13.73646591 14.86534754 12.47727367 13.55877063 10.75 11.5 C10.22921875 10.8915625 9.7084375 10.283125 9.171875 9.65625 C8 8 8 8 8 6 C7.05125 5.690625 6.1025 5.38125 5.125 5.0625 C2 4 2 4 0 3 C0 2.01 0 1.02 0 0 Z " fill="#6B8CAA" transform="translate(275,209)"/>
<path d="M0 0 C-1.17744585 3.53233755 -1.95605641 3.86308075 -5.0625 5.6875 C-5.79597656 6.12449219 -6.52945312 6.56148438 -7.28515625 7.01171875 C-7.85105469 7.33785156 -8.41695313 7.66398437 -9 8 C-6.69 8.66 -4.38 9.32 -2 10 C-5.81756824 11.37432457 -9.07255329 10.67975039 -13 10 C-12.01 10.66 -11.02 11.32 -10 12 C-12.97 11.505 -12.97 11.505 -16 11 C-16 10.01 -16 9.02 -16 8 C-13.71125827 6.66141476 -11.41930344 5.32898986 -9.125 4 C-8.47402344 3.6184375 -7.82304687 3.236875 -7.15234375 2.84375 C-2.2265625 0 -2.2265625 0 0 0 Z " fill="#ECF0F3" transform="translate(362,452)"/>
<path d="M0 0 C-3.93963055 4.55519783 -7.26928904 6.15451681 -13 8 C-12.67 8.66 -12.34 9.32 -12 10 C-13.32 10 -14.64 10 -16 10 C-16 10.66 -16 11.32 -16 12 C-17.32 12.33 -18.64 12.66 -20 13 C-20.33 12.01 -20.66 11.02 -21 10 C-20.3709375 9.62488281 -19.741875 9.24976563 -19.09375 8.86328125 C-18.2378125 8.35152344 -17.381875 7.83976563 -16.5 7.3125 C-15.59121094 6.77109375 -14.68242187 6.2296875 -13.74609375 5.671875 C-10.66691741 3.79721288 -7.66848234 1.81752344 -4.69140625 -0.21484375 C-3 -1 -3 -1 0 0 Z " fill="#275F90" transform="translate(440,154)"/>
<path d="M0 0 C0.33 0 0.66 0 1 0 C1 4.95 1 9.9 1 15 C-4.94 15 -10.88 15 -17 15 C-15 13 -15 13 -11.7421875 12.8046875 C-10.46601563 12.82789063 -9.18984375 12.85109375 -7.875 12.875 C-5.95300781 12.90207031 -5.95300781 12.90207031 -3.9921875 12.9296875 C-2.51105469 12.96449219 -2.51105469 12.96449219 -1 13 C-1.2784375 11.7934375 -1.2784375 11.7934375 -1.5625 10.5625 C-1.706875 9.716875 -1.85125 8.87125 -2 8 C-1.67 7.67 -1.34 7.34 -1 7 C-0.63239269 4.67182036 -0.29758419 2.3381615 0 0 Z " fill="#254F74" transform="translate(410,246)"/>
<path d="M0 0 C3.01171971 5.69442803 4.46208946 11.53074761 4 18 C3.67 18.66 3.34 19.32 3 20 C2.34 20 1.68 20 1 20 C-1.26613747 13.06828537 -0.88701576 7.19201969 0 0 Z " fill="#678BAD" transform="translate(91,292)"/>
<path d="M0 0 C2.1875 0.3125 2.1875 0.3125 4 1 C1.77252265 2.60655674 -0.45689442 4.21029679 -2.6875 5.8125 C-3.31333984 6.26431641 -3.93917969 6.71613281 -4.58398438 7.18164062 C-7.97604693 9.61469073 -11.37739216 11.91509568 -15 14 C-14.67 12.35 -14.34 10.7 -14 9 C-12.68 9 -11.36 9 -10 9 C-10.33 8.01 -10.66 7.02 -11 6 C-10.45730469 5.81824219 -9.91460937 5.63648438 -9.35546875 5.44921875 C-8.64003906 5.19785156 -7.92460937 4.94648438 -7.1875 4.6875 C-6.47980469 4.44386719 -5.77210938 4.20023438 -5.04296875 3.94921875 C-2.91188615 3.1201067 -2.91188615 3.1201067 -1.48828125 1.33203125 C-0.75158203 0.67267578 -0.75158203 0.67267578 0 0 Z " fill="#6D8FAC" transform="translate(157,144)"/>
<path d="M0 0 C1.0828125 -0.0009668 1.0828125 -0.0009668 2.1875 -0.00195312 C7.20818422 0.04789121 11.58555329 0.59101776 16.375 2.1875 C16.045 2.8475 15.715 3.5075 15.375 4.1875 C14.74335938 4.1153125 14.11171875 4.043125 13.4609375 3.96875 C5.74931421 3.16869686 -1.87680183 3.08569886 -9.625 3.1875 C-9.625 2.5275 -9.625 1.8675 -9.625 1.1875 C-6.56100622 -0.34449689 -3.35989095 -0.00303239 0 0 Z " fill="#6A8BA9" transform="translate(235.625,22.8125)"/>
<path d="M0 0 C4.56454251 0.54339792 7.9728176 1.79463821 12 4 C12 4.99 12 5.98 12 7 C12.66 7 13.32 7 14 7 C14 7.66 14 8.32 14 9 C16.475 9.99 16.475 9.99 19 11 C18.34 12.32 17.68 13.64 17 15 C16.236875 13.989375 15.47375 12.97875 14.6875 11.9375 C11.14013766 7.74050022 6.88398955 5.17101245 2.1953125 2.3828125 C1.47085937 1.92648438 0.74640625 1.47015625 0 1 C0 0.67 0 0.34 0 0 Z " fill="#E3F2F8" transform="translate(432,128)"/>
<path d="M0 0 C4.54089927 1.68661973 8.40627318 4.00392074 12.5 6.5625 C14.94360101 7.96757058 17.36108429 9.01983131 20 10 C20 10.66 20 11.32 20 12 C20.66 12.33 21.32 12.66 22 13 C21.01 13 20.02 13 19 13 C19 12.34 19 11.68 19 11 C13.69905784 9.19695845 8.39691512 7.49276376 3 6 C3 5.34 3 4.68 3 4 C2.34 4 1.68 4 1 4 C0.67 2.68 0.34 1.36 0 0 Z " fill="#7394B0" transform="translate(262,31)"/>
<path d="M0 0 C-0.33 1.65 -0.66 3.3 -1 5 C-0.34 5.33 0.32 5.66 1 6 C1 6.99 1 7.98 1 9 C-3.03321763 7.78065514 -6.54269479 6.44045073 -10 4 C-10 3.34 -10 2.68 -10 2 C-6.5980513 -0.09350689 -3.94727588 -0.17942163 0 0 Z " fill="#E6F0F6" transform="translate(391,96)"/>
<path d="M0 0 C5.28 0 10.56 0 16 0 C15.01 0.495 15.01 0.495 14 1 C14 1.66 14 2.32 14 3 C13.30132812 2.98839844 12.60265625 2.97679687 11.8828125 2.96484375 C10.97273438 2.95582031 10.06265625 2.94679688 9.125 2.9375 C8.22007812 2.92589844 7.31515625 2.91429687 6.3828125 2.90234375 C3.9831415 2.83750743 3.9831415 2.83750743 2 4 C1.59270772 6.32156597 1.25561323 8.6568787 1 11 C0.67 11 0.34 11 0 11 C0 7.37 0 3.74 0 0 Z " fill="#D4EBF2" transform="translate(395,261)"/>
<path d="M0 0 C2.1875 -0.375 2.1875 -0.375 5 0 C7.6875 2.9375 7.6875 2.9375 10 6 C10.66 6.33 11.32 6.66 12 7 C12 7.66 12 8.32 12 9 C12.66 9 13.32 9 14 9 C14.33 8.34 14.66 7.68 15 7 C15.33 7.99 15.66 8.98 16 10 C15.01 10.99 14.02 11.98 13 13 C1.80645161 3.61290323 1.80645161 3.61290323 0 0 Z " fill="#E2EDF4" transform="translate(280,211)"/>
<path d="M0 0 C0.66 0.33 1.32 0.66 2 1 C2 1.66 2 2.32 2 3 C1.21625 3.226875 0.4325 3.45375 -0.375 3.6875 C-3.70542299 5.35271149 -3.68684527 6.635041 -5 10 C-7.4375 11.875 -7.4375 11.875 -10 13 C-10.99 12.67 -11.98 12.34 -13 12 C-11.58653438 10.55935235 -10.16908789 9.12260985 -8.75 7.6875 C-7.96109375 6.88699219 -7.1721875 6.08648437 -6.359375 5.26171875 C-4.32605933 3.31256349 -2.29398922 1.62578594 0 0 Z " fill="#7497B2" transform="translate(194,210)"/>
<path d="M0 0 C5.64936558 2.22519975 11.1726271 5.31595226 16 9 C16 9.66 16 10.32 16 11 C14.02 10.34 12.04 9.68 10 9 C10 8.34 10 7.68 10 7 C4.94990405 6.06213918 4.94990405 6.06213918 0 7 C0.33 6.01 0.66 5.02 1 4 C0.01 3.01 -0.98 2.02 -2 1 C-1.34 0.67 -0.68 0.34 0 0 Z " fill="#6693BC" transform="translate(323,66)"/>
<path d="M0 0 C-1 3 -1 3 -3 4 C-2.01 5.485 -2.01 5.485 -1 7 C-4.01031744 7.93423645 -4.86650268 8.04449911 -8 7 C-9.33568021 7.32380126 -10.66923011 7.65657551 -12 8 C-12.66 7.67 -13.32 7.34 -14 7 C-12.04480616 5.82807953 -10.0857461 4.6626071 -8.125 3.5 C-7.03445313 2.8503125 -5.94390625 2.200625 -4.8203125 1.53125 C-2 0 -2 0 0 0 Z " fill="#EAEEEF" transform="translate(272,504)"/>
<path d="M0 0 C3.3 1.65 6.6 3.3 10 5 C9.67 6.32 9.34 7.64 9 9 C8.34 9 7.68 9 7 9 C7 9.66 7 10.32 7 11 C5.68 11.33 4.36 11.66 3 12 C2.67 11.01 2.34 10.02 2 9 C2.33 8.34 2.66 7.68 3 7 C3.66 7 4.32 7 5 7 C5 6.01 5 5.02 5 4 C3.68 4 2.36 4 1 4 C0.67 2.68 0.34 1.36 0 0 Z " fill="#E9EFEF" transform="translate(126,460)"/>
<path d="M0 0 C4.87072783 4.56630734 8.89156398 9.74976539 13 15 C12.01 15.33 11.02 15.66 10 16 C9.67 15.01 9.34 14.02 9 13 C8.01 13 7.02 13 6 13 C5.67 11.68 5.34 10.36 5 9 C4.34 9 3.68 9 3 9 C2.01 6.03 1.02 3.06 0 0 Z " fill="#DDEFF6" transform="translate(342,168)"/>
<path d="M0 0 C0.33 0 0.66 0 1 0 C1.39460234 7.55590399 1.14536174 14.98441948 -2 22 C-2.99 22.33 -3.98 22.66 -5 23 C-4.72285156 21.75863281 -4.44570313 20.51726562 -4.16015625 19.23828125 C-3.79424248 17.59636049 -3.42835864 15.95443305 -3.0625 14.3125 C-2.88009766 13.49587891 -2.69769531 12.67925781 -2.50976562 11.83789062 C-1.63272372 7.89917517 -0.76659545 3.96208805 0 0 Z " fill="#E1F1F9" transform="translate(458,368)"/>
<path d="M0 0 C3 1 3 1 4 3 C5.97522846 4.04808041 7.97481509 5.0520411 10 6 C9.79375 6.556875 9.5875 7.11375 9.375 7.6875 C8.89304789 10.659538 9.73434972 12.31979941 11 15 C6.25 13.125 6.25 13.125 4 12 C4.66 10.35 5.32 8.7 6 7 C2.535 5.02 2.535 5.02 -1 3 C-0.67 2.01 -0.34 1.02 0 0 Z " fill="#316283" transform="translate(356,335)"/>
<path d="M0 0 C0.66 0 1.32 0 2 0 C0.91103333 5.75762166 -0.29336293 11.39247819 -2 17 C-3.53508028 14.56661348 -4.03088304 13.32875493 -3.7578125 10.421875 C-3.44457031 9.09929687 -3.44457031 9.09929687 -3.125 7.75 C-2.92132813 6.85796875 -2.71765625 5.9659375 -2.5078125 5.046875 C-2.34023437 4.37140625 -2.17265625 3.6959375 -2 3 C-1.34 3 -0.68 3 0 3 C0 2.01 0 1.02 0 0 Z " fill="#688AAB" transform="translate(95,224)"/>
<path d="M0 0 C1.8871875 0.0309375 1.8871875 0.0309375 3.8125 0.0625 C1.01520707 1.92736195 -1.80717702 3.56522475 -4.75 5.1875 C-5.72066406 5.72632813 -6.69132813 6.26515625 -7.69140625 6.8203125 C-10.1875 8.0625 -10.1875 8.0625 -12.1875 8.0625 C-11.80868922 5.31612183 -11.40917713 4.26200942 -9.3125 2.375 C-6.1463561 0.41944053 -3.6430722 -0.0597225 0 0 Z " fill="#E5F7F9" transform="translate(210.1875,199.9375)"/>
<path d="M0 0 C-0.99 0 -1.98 0 -3 0 C-2.34 1.32 -1.68 2.64 -1 4 C-4 5 -4 5 -6.26171875 4.00390625 C-7.06222656 3.52824219 -7.86273438 3.05257812 -8.6875 2.5625 C-9.49574219 2.08941406 -10.30398438 1.61632812 -11.13671875 1.12890625 C-11.75160156 0.75636719 -12.36648438 0.38382812 -13 0 C-8.72283213 -4.27716787 -4.54882538 -3.34472455 0 0 Z " fill="#E7F2F5" transform="translate(351,75)"/>
<path d="M0 0 C0.99 0.33 1.98 0.66 3 1 C3 1.66 3 2.32 3 3 C3.66 3 4.32 3 5 3 C5 4.32 5 5.64 5 7 C1.98968256 7.93423645 1.13349732 8.04449911 -2 7 C-2 6.34 -2 5.68 -2 5 C-2.66 4.67 -3.32 4.34 -4 4 C-3.34 4 -2.68 4 -2 4 C-1.34 2.68 -0.68 1.36 0 0 Z " fill="#244B70" transform="translate(346,366)"/>
<path d="M0 0 C2.97 0.495 2.97 0.495 6 1 C6 1.99 6 2.98 6 4 C7.65 4 9.3 4 11 4 C11 3.34 11 2.68 11 2 C11.66 2 12.32 2 13 2 C12.814375 2.78375 12.62875 3.5675 12.4375 4.375 C11.74037734 6.97089775 11.74037734 6.97089775 13 9 C8.02790438 7.23570801 3.56561939 4.6060834 -1 2 C-0.67 1.34 -0.34 0.68 0 0 Z " fill="#E7F0F8" transform="translate(405,111)"/>
<path d="M0 0 C0 0.66 0 1.32 0 2 C0.66 2.66 1.32 3.32 2 4 C1.01 4 0.02 4 -1 4 C-0.67 4.99 -0.34 5.98 0 7 C-1.625 7.75 -1.625 7.75 -4 8 C-7.25 6.0625 -7.25 6.0625 -10 4 C-7.25346796 1.25346796 -3.91404908 0 0 0 Z " fill="#6993BB" transform="translate(226,24)"/>
<path d="M0 0 C-5.28 2.97 -10.56 5.94 -16 9 C-16.33 7.68 -16.66 6.36 -17 5 C-15.35 4.67 -13.7 4.34 -12 4 C-12 3.34 -12 2.68 -12 2 C-11.34 2 -10.68 2 -10 2 C-9.67 1.34 -9.34 0.68 -9 0 C-5.35541013 -1.08352672 -3.82056178 -0.95514044 0 0 Z " fill="#2A486C" transform="translate(385,439)"/>
<path d="M0 0 C4 0 4 0 6.25 1.875 C8 4 8 4 8 6 C8.66 6.33 9.32 6.66 10 7 C8.02 7.66 6.04 8.32 4 9 C4 8.01 4 7.02 4 6 C3.34 6 2.68 6 2 6 C2 5.01 2 4.02 2 3 C1.34 3 0.68 3 0 3 C0 2.01 0 1.02 0 0 Z " fill="#568EC4" transform="translate(288,228)"/>
<path d="M0 0 C0.99 0 1.98 0 3 0 C3 0.66 3 1.32 3 2 C3.66 2.33 4.32 2.66 5 3 C-1.4 7.06153846 -1.4 7.06153846 -4.4375 6.75 C-4.953125 6.5025 -5.46875 6.255 -6 6 C-6 4.68 -6 3.36 -6 2 C-4.02 2 -2.04 2 0 2 C0 1.34 0 0.68 0 0 Z " fill="#EBECF1" transform="translate(198,33)"/>
<path d="M0 0 C3.84366659 1.2812222 7.39856605 3.15740589 11 5 C9.4375 6.1875 9.4375 6.1875 7 7 C4.66666667 6 2.33333333 5 0 4 C-2.40686815 4.65682309 -2.40686815 4.65682309 -4 6 C-2.25 1.125 -2.25 1.125 0 0 Z " fill="#E9F0ED" transform="translate(52,418)"/>
<path d="M0 0 C0.53625 0.23074219 1.0725 0.46148437 1.625 0.69921875 C1.625 1.35921875 1.625 2.01921875 1.625 2.69921875 C0.55958984 2.85390625 0.55958984 2.85390625 -0.52734375 3.01171875 C-3.73338826 3.78574321 -6.08723372 5.0501078 -8.9375 6.69921875 C-12.07876612 8.51165524 -14.79471123 10.02528204 -18.375 10.69921875 C-15.35041373 7.42016008 -12.20624459 5.16152023 -8.375 2.88671875 C-6.828125 1.94892578 -6.828125 1.94892578 -5.25 0.9921875 C-2.375 -0.30078125 -2.375 -0.30078125 0 0 Z " fill="#2F577B" transform="translate(341.375,210.30078125)"/>
<path d="M0 0 C0.99 0.33 1.98 0.66 3 1 C-2.94 4.465 -2.94 4.465 -9 8 C-9.66 6.68 -10.32 5.36 -11 4 C-10.67 3.34 -10.34 2.68 -10 2 C-7.97511372 1.71073053 -5.94755984 1.42727846 -3.91015625 1.24609375 C-1.91747967 1.09593122 -1.91747967 1.09593122 0 0 Z " fill="#E0F3F9" transform="translate(355,199)"/>
<path d="M0 0 C0.99 0.66 1.98 1.32 3 2 C1.88200014 3.33920838 0.75538103 4.67122556 -0.375 6 C-1.31472656 7.11375 -1.31472656 7.11375 -2.2734375 8.25 C-2.84320313 8.8275 -3.41296875 9.405 -4 10 C-4.66 10 -5.32 10 -6 10 C-6.66 11.32 -7.32 12.64 -8 14 C-8.99 13.34 -9.98 12.68 -11 12 C-10.34 12 -9.68 12 -9 12 C-9 11.34 -9 10.68 -9 10 C-8.38125 9.54625 -7.7625 9.0925 -7.125 8.625 C-4.81426163 6.85796478 -4.21149674 5.58452637 -3 3 C-1.375 1.25 -1.375 1.25 0 0 Z " fill="#DFECF4" transform="translate(348,360)"/>
<path d="M0 0 C-0.33 2.64 -0.66 5.28 -1 8 C-2.65 7.67 -4.3 7.34 -6 7 C-6 6.34 -6 5.68 -6 5 C-6.66 4.67 -7.32 4.34 -8 4 C-1.125 0 -1.125 0 0 0 Z " fill="#1D4C7E" transform="translate(109,343)"/>
<path d="M0 0 C2.03833424 1.2739589 4.03852126 2.61061923 6 4 C6 4.66 6 5.32 6 6 C7.32 6.66 8.64 7.32 10 8 C10 9.32 10 10.64 10 12 C9.34 12 8.68 12 8 12 C8 11.34 8 10.68 8 10 C7.360625 9.731875 6.72125 9.46375 6.0625 9.1875 C4 8 4 8 3 5 C2.01 4.67 1.02 4.34 0 4 C0 2.68 0 1.36 0 0 Z " fill="#648DB3" transform="translate(288,222)"/>
<path d="M0 0 C-1.25 1.5 -1.25 1.5 -3 3 C-4.32 3 -5.64 3 -7 3 C-7.33 4.65 -7.66 6.3 -8 8 C-8.33 7.34 -8.66 6.68 -9 6 C-9.99 6.66 -10.98 7.32 -12 8 C-12.99 8 -13.98 8 -15 8 C-13.69432208 4.08296623 -12.19905398 3.68242813 -8.625 1.75 C-7.64789063 1.20859375 -6.67078125 0.6671875 -5.6640625 0.109375 C-3 -1 -3 -1 0 0 Z " fill="#668CAB" transform="translate(55,123)"/>
<path d="M0 0 C1.90845703 0.16628906 1.90845703 0.16628906 3.85546875 0.3359375 C4.83128906 0.43132812 5.80710938 0.52671875 6.8125 0.625 C6.8125 0.955 6.8125 1.285 6.8125 1.625 C0.07096717 2.88341946 -6.32234138 3.88904456 -13.1875 3.625 C-8.04621572 0.19747715 -6.21809685 -0.5704676 0 0 Z " fill="#6D8DAF" transform="translate(213.1875,123.375)"/>
<path d="M0 0 C-0.33 1.32 -0.66 2.64 -1 4 C-0.34 4.33 0.32 4.66 1 5 C-2.33333333 5.66666667 -5.66666667 6.33333333 -9 7 C-9 6.01 -9 5.02 -9 4 C-2.25 0 -2.25 0 0 0 Z " fill="#E2EFF5" transform="translate(284,497)"/>
<path d="M0 0 C1.27230469 0.01804688 2.54460937 0.03609375 3.85546875 0.0546875 C5.31919922 0.08949219 5.31919922 0.08949219 6.8125 0.125 C6.8125 2.105 6.8125 4.085 6.8125 6.125 C6.1525 5.135 5.4925 4.145 4.8125 3.125 C2.202879 2.74088725 -0.1933074 2.52206803 -2.8125 2.4375 C-3.51890625 2.40333984 -4.2253125 2.36917969 -4.953125 2.33398438 C-6.69735688 2.25148692 -8.44240395 2.18656665 -10.1875 2.125 C-6.4507157 -0.36618953 -4.44298181 -0.0815226 0 0 Z " fill="#1F5276" transform="translate(423.1875,241.875)"/>
<path d="M0 0 C2.64 1.32 5.28 2.64 8 4 C7.67 4.66 7.34 5.32 7 6 C2.32538149 6.32613618 -0.16674383 5.70582788 -4 3 C-2.68 2.01 -1.36 1.02 0 0 Z " fill="#E6EEF3" transform="translate(206,506)"/>
<path d="M0 0 C4.86263484 0.59300425 8.69348993 1.7200829 13 4 C13.9375 6.1875 13.9375 6.1875 14 8 C8.76481294 6.56032356 4.36973991 4.18303389 0 1 C0 0.67 0 0.34 0 0 Z " fill="#2A4866" transform="translate(195,499)"/>
<path d="M0 0 C3.465 1.485 3.465 1.485 7 3 C5.25 4.5625 5.25 4.5625 3 6 C1.0625 5.625 1.0625 5.625 -1 5 C-3.68149993 5.38567131 -3.68149993 5.38567131 -6 6 C-4.625 4.5 -4.625 4.5 -3 3 C-2.34 3 -1.68 3 -1 3 C-0.67 2.01 -0.34 1.02 0 0 Z " fill="#E7EDF1" transform="translate(150,474)"/>
<path d="M0 0 C2.48627517 3.0622744 4.09989404 6.1457054 5.6875 9.75 C6.12449219 10.73484375 6.56148438 11.7196875 7.01171875 12.734375 C7.33785156 13.48203125 7.66398437 14.2296875 8 15 C6.68 15 5.36 15 4 15 C4 13.02 4 11.04 4 9 C3.01 8.67 2.02 8.34 1 8 C0.67 5.36 0.34 2.72 0 0 Z " fill="#7396B4" transform="translate(102,328)"/>
<path d="M0 0 C2.21399303 3.79541663 3.00980198 7.75629421 4 12 C4.66 12 5.32 12 6 12 C5.67 13.32 5.34 14.64 5 16 C4.34 16 3.68 16 3 16 C-1.77676538 5.62642369 -1.77676538 5.62642369 0 0 Z " fill="#6E91B2" transform="translate(167,284)"/>
<path d="M0 0 C0 4.62 0 9.24 0 14 C-0.99 13.34 -1.98 12.68 -3 12 C-3.29296875 9.3984375 -3.29296875 9.3984375 -3.1875 6.375 C-3.16042969 5.37210937 -3.13335937 4.36921875 -3.10546875 3.3359375 C-3.07066406 2.56507813 -3.03585937 1.79421875 -3 1 C-1 0 -1 0 0 0 Z " fill="#155B9B" transform="translate(331,266)"/>
<path d="M0 0 C0.33 0.99 0.66 1.98 1 3 C-0.21484375 5.26171875 -0.21484375 5.26171875 -1.9375 7.6875 C-2.78634766 8.89986328 -2.78634766 8.89986328 -3.65234375 10.13671875 C-4.09707031 10.75160156 -4.54179687 11.36648438 -5 12 C-5.66 11.67 -6.32 11.34 -7 11 C-6.67 9.68 -6.34 8.36 -6 7 C-5.34 7.33 -4.68 7.66 -4 8 C-4 7.34 -4 6.68 -4 6 C-4.66 5.67 -5.32 5.34 -6 5 C-5.195625 4.54625 -4.39125 4.0925 -3.5625 3.625 C-0.91143428 2.25274335 -0.91143428 2.25274335 0 0 Z " fill="#274C6E" transform="translate(451,390)"/>
<path d="M0 0 C0.66 0 1.32 0 2 0 C2.45375 0.78375 2.9075 1.5675 3.375 2.375 C5.14658095 5.23678462 6.09455895 5.59414143 9 7 C10.25 9.125 10.25 9.125 11 11 C6.86218946 11 5.79080004 9.28490393 2.8125 6.5 C1.91144531 5.6646875 1.01039063 4.829375 0.08203125 3.96875 C-0.60503906 3.3190625 -1.29210937 2.669375 -2 2 C-1.34 1.34 -0.68 0.68 0 0 Z " fill="#6D8DAE" transform="translate(330,154)"/>
<path d="M0 0 C1.98 0.66 3.96 1.32 6 2 C3.45543849 4.96865509 0.51005335 6.3619751 -3 8 C-2.25 2.25 -2.25 2.25 0 0 Z " fill="#264364" transform="translate(397,425)"/>
<path d="M0 0 C3.44079622 1.72039811 3.88905349 5.50674133 5.11328125 8.98828125 C6.30239105 13.02706387 6.72491439 16.80494447 7 21 C2.85352912 14.78029367 0.65926803 7.41676534 0 0 Z " fill="#E2F2F9" transform="translate(94,302)"/>
<path d="M0 0 C1.12588014 0.95729916 2.2506715 1.91587895 3.375 2.875 C4.00148438 3.40867187 4.62796875 3.94234375 5.2734375 4.4921875 C6.55836651 5.61432007 7.79371975 6.79371975 9 8 C5.79937313 9.60031344 3.27728194 8.03173691 0 7 C0 4.69 0 2.38 0 0 Z " fill="#E1EBF0" transform="translate(26,400)"/>
<path d="M0 0 C0.99 0.33 1.98 0.66 3 1 C2.67 7.6 2.34 14.2 2 21 C1.67 21 1.34 21 1 21 C0.67 14.07 0.34 7.14 0 0 Z " fill="#E4F6FE" transform="translate(162,255)"/>
<path d="M0 0 C-0.33 1.65 -0.66 3.3 -1 5 C-4.3 5.33 -7.6 5.66 -11 6 C-3.8 0 -3.8 0 0 0 Z " fill="#7393B1" transform="translate(69,113)"/>
<path d="M0 0 C0.99 0.66 1.98 1.32 3 2 C3 1.34 3 0.68 3 0 C4.32 0.33 5.64 0.66 7 1 C7 1.66 7 2.32 7 3 C4.18230651 5.17364926 2.7809319 6.08677021 -0.8125 5.6875 C-1.534375 5.460625 -2.25625 5.23375 -3 5 C-2.67 4.01 -2.34 3.02 -2 2 C-1.34 2 -0.68 2 0 2 C0 1.34 0 0.68 0 0 Z " fill="#E8F3F0" transform="translate(168,49)"/>
<path d="M0 0 C0 1.66666667 0 3.33333333 0 5 C-1.32 4.67 -2.64 4.34 -4 4 C-4.33 5.32 -4.66 6.64 -5 8 C-7.97 7.505 -7.97 7.505 -11 7 C-8.37801226 4.84622436 -6.35595828 3.59927826 -3 3 C-3 2.34 -3 1.68 -3 1 C-2.01 0.67 -1.02 0.34 0 0 Z " fill="#236396" transform="translate(301,232)"/>
<path d="M0 0 C0.66 0.99 1.32 1.98 2 3 C-0.17424117 5.50037734 -1.73045798 6.43628586 -5 7 C-5.66 6.01 -6.32 5.02 -7 4 C-4.69 2.68 -2.38 1.36 0 0 Z " fill="#DCECF5" transform="translate(393,433)"/>
<path d="M0 0 C-0.74324341 2.39489543 -1.47057354 3.70777616 -3.69140625 4.93359375 C-5.44073501 5.67219923 -7.21934149 6.34049685 -9 7 C-9.33 6.01 -9.66 5.02 -10 4 C-3.375 0 -3.375 0 0 0 Z " fill="#274963" transform="translate(415,419)"/>
<path d="M0 0 C2.6875 0.3125 2.6875 0.3125 5 1 C3.515 2.485 3.515 2.485 2 4 C2.99 4.33 3.98 4.66 5 5 C5 5.99 5 6.98 5 8 C1.62496331 6.8141763 -0.64722731 5.72426311 -3 3 C-1.8125 1.4375 -1.8125 1.4375 0 0 Z " fill="#E6EBED" transform="translate(165,392)"/>
<path d="M0 0 C6.16456476 0.37742233 9.17375515 2.15870308 14 6 C13.34 6.66 12.68 7.32 12 8 C9.99743426 6.85865673 7.99800203 5.71181367 6 4.5625 C4.88625 3.92441406 3.7725 3.28632813 2.625 2.62890625 C1.75875 2.09136719 0.8925 1.55382812 0 1 C0 0.67 0 0.34 0 0 Z " fill="#315E7E" transform="translate(328,321)"/>
<path d="M0 0 C4.30764815 1.56641751 8.06171464 3.68336156 12 6 C12 6.33 12 6.66 12 7 C5.84765625 6.4140625 5.84765625 6.4140625 4 6 C3.67 5.34 3.34 4.68 3 4 C2.01 3.67 1.02 3.34 0 3 C0 2.01 0 1.02 0 0 Z " fill="#708EAB" transform="translate(406,114)"/>
<path d="M0 0 C2.91517292 1.07401108 4.77810176 1.77810176 7 4 C4.42786866 5.61949011 3.32330841 6.04408751 0.25 5.625 C-0.4925 5.41875 -1.235 5.2125 -2 5 C-2 4.34 -2 3.68 -2 3 C-1.34 3 -0.68 3 0 3 C0 2.01 0 1.02 0 0 Z " fill="#6692BF" transform="translate(307,57)"/>
<path d="M0 0 C5.94 1.485 5.94 1.485 12 3 C12 3.33 12 3.66 12 4 C7.34462607 4.83796731 3.62921525 5.0161692 -1 4 C-0.67 2.68 -0.34 1.36 0 0 Z " fill="#DDECF0" transform="translate(217,513)"/>
<path d="M0 0 C2.64 0.33 5.28 0.66 8 1 C8.33 1.99 8.66 2.98 9 4 C9.66 4.66 10.32 5.32 11 6 C10.01 6.495 10.01 6.495 9 7 C6.8359375 6.00390625 6.8359375 6.00390625 4.375 4.5625 C3.55773437 4.08941406 2.74046875 3.61632812 1.8984375 3.12890625 C1.27195313 2.75636719 0.64546875 2.38382812 0 2 C0 1.34 0 0.68 0 0 Z " fill="#2F5273" transform="translate(144,469)"/>
<path d="M0 0 C6.82637349 -0.11769609 12.65609533 0.20121853 19 3 C14.97985339 4.56454159 11.30074319 3.46223974 7.25 2.5625 C6.55261719 2.41490234 5.85523438 2.26730469 5.13671875 2.11523438 C3.4227979 1.75131967 1.71115419 1.37670932 0 1 C0 0.67 0 0.34 0 0 Z " fill="#CEE1ED" transform="translate(200,411)"/>
<path d="M0 0 C0.66 0.33 1.32 0.66 2 1 C1.34 2.65 0.68 4.3 0 6 C-2 6 -4 6 -6 6 C-6 5.34 -6 4.68 -6 4 C-5.34 4 -4.68 4 -4 4 C-3.67 3.01 -3.34 2.02 -3 1 C-2.01 0.67 -1.02 0.34 0 0 Z " fill="#EEF4F6" transform="translate(361,341)"/>
<path d="M0 0 C2.31 0.33 4.62 0.66 7 1 C7 1.33 7 1.66 7 2 C8.65 2.33 10.3 2.66 12 3 C11.01 3.99 10.02 4.98 9 6 C4 4 4 4 -1 2 C-0.67 1.34 -0.34 0.68 0 0 Z " fill="#7295B3" transform="translate(295,134)"/>
<path d="M0 0 C1.79398267 0.95399078 3.58511655 1.91334026 5.375 2.875 C6.37273437 3.40867187 7.37046875 3.94234375 8.3984375 4.4921875 C11 6 11 6 13 8 C11.68 8.33 10.36 8.66 9 9 C8.67 8.01 8.34 7.02 8 6 C6.68 6 5.36 6 4 6 C1.75 4.125 1.75 4.125 0 2 C0 1.34 0 0.68 0 0 Z " fill="#DAEBF3" transform="translate(173,487)"/>
<path d="M0 0 C1.98 0.66 3.96 1.32 6 2 C5.67 2.99 5.34 3.98 5 5 C4.01 5 3.02 5 2 5 C1.34 5.66 0.68 6.32 0 7 C-0.66 5.35 -1.32 3.7 -2 2 C-1.34 1.34 -0.68 0.68 0 0 Z " fill="#245178" transform="translate(24,391)"/>
<path d="M0 0 C0.66 0 1.32 0 2 0 C2.12375 0.639375 2.2475 1.27875 2.375 1.9375 C2.58125 2.618125 2.7875 3.29875 3 4 C3.66 4.33 4.32 4.66 5 5 C2.69 4.67 0.38 4.34 -2 4 C-2 4.99 -2 5.98 -2 7 C-3.32 7.33 -4.64 7.66 -6 8 C-2.25 2.25 -2.25 2.25 0 0 Z " fill="#1C4060" transform="translate(342,371)"/>
<path d="M0 0 C2.125 0.9375 2.125 0.9375 4 2 C4 2.99 4 3.98 4 5 C2.3125 5.6875 2.3125 5.6875 0 6 C-2.75 4.5625 -2.75 4.5625 -5 3 C-2 1 -2 1 0 0 Z " fill="#2F4F72" transform="translate(203,329)"/>
<path d="M0 0 C-2.97 2.475 -2.97 2.475 -6 5 C-6.99 4.34 -7.98 3.68 -9 3 C-8.34 3 -7.68 3 -7 3 C-6.67 2.01 -6.34 1.02 -6 0 C-3.50907189 -1.24546405 -2.58919267 -0.7767578 0 0 Z M-11 5 C-10.67 5.66 -10.34 6.32 -10 7 C-10.66 6.67 -11.32 6.34 -12 6 C-11.67 5.67 -11.34 5.34 -11 5 Z " fill="#2A4965" transform="translate(288,322)"/>
<path d="M0 0 C1.32 0 2.64 0 4 0 C3.45773019 3.79588866 1.79872437 5.47211993 -1 8 C-2.2077558 4.37673261 -1.54311128 3.35853631 0 0 Z " fill="#2B4762" transform="translate(294,307)"/>
<path d="M0 0 C2 2 2 2 2 4 C-1.465 5.485 -1.465 5.485 -5 7 C-5.33 5.68 -5.66 4.36 -6 3 C-4.02 2.01 -2.04 1.02 0 0 Z " fill="#275B81" transform="translate(357,200)"/>
<path d="M0 0 C-2.79196011 3.28465896 -6.23196817 5.01321958 -10 7 C-10.66 7 -11.32 7 -12 7 C-12 6.34 -12 5.68 -12 5 C-11.01 5 -10.02 5 -9 5 C-9 4.01 -9 3.02 -9 2 C-5.5647952 -0.29013653 -4.014669 -0.17842973 0 0 Z " fill="#E1F2FA" transform="translate(114,86)"/>
<path d="M0 0 C0.598125 0.33 1.19625 0.66 1.8125 1 C4.05386471 2.20787988 4.05386471 2.20787988 7 2 C7.33 3.65 7.66 5.3 8 7 C4.40608886 5.66511872 1.24509304 4.03977277 -2 2 C-1.34 1.34 -0.68 0.68 0 0 Z " fill="#E5EBEF" transform="translate(328,66)"/>
<path d="M0 0 C-0.99 0.495 -0.99 0.495 -2 1 C-0.35 1.33 1.3 1.66 3 2 C0.14693203 4.32472205 -2.54074837 5.7508258 -6 7 C-6 6.01 -6 5.02 -6 4 C-5.34 4 -4.68 4 -4 4 C-4 3.34 -4 2.68 -4 2 C-4.66 1.34 -5.32 0.68 -6 0 C-3.50907189 -1.24546405 -2.58919267 -0.7767578 0 0 Z " fill="#294E71" transform="translate(304,481)"/>
<path d="M0 0 C1.65 0 3.3 0 5 0 C5.309375 0.78375 5.61875 1.5675 5.9375 2.375 C6.92875038 4.92330128 6.92875038 4.92330128 8 7 C7.01 7.33 6.02 7.66 5 8 C4.16382818 6.8562364 3.33113541 5.70992861 2.5 4.5625 C2.0359375 3.92441406 1.571875 3.28632813 1.09375 2.62890625 C0 1 0 1 0 0 Z " fill="#E0EFF6" transform="translate(119,356)"/>
<path d="M0 0 C3.64991166 1.31802365 5.7895201 2.59214008 9 5 C5.7 5 2.4 5 -1 5 C-1 1 -1 1 0 0 Z " fill="#E2F3F6" transform="translate(300,306)"/>
<path d="M0 0 C0.66 0.33 1.32 0.66 2 1 C1.67 1.66 1.34 2.32 1 3 C2.65 2.67 4.3 2.34 6 2 C3.42910583 4.11180592 1.36939433 5.66306057 -2 6 C-2.66 5.34 -3.32 4.68 -4 4 C-4 3.34 -4 2.68 -4 2 C-2.125 0.9375 -2.125 0.9375 0 0 Z " fill="#5686B6" transform="translate(188,292)"/>
<path d="M0 0 C2.64 0 5.28 0 8 0 C5 2 5 2 2 3 C2.02320313 3.62648437 2.04640625 4.25296875 2.0703125 4.8984375 C2.08835937 5.71570313 2.10640625 6.53296875 2.125 7.375 C2.14820313 8.18710938 2.17140625 8.99921875 2.1953125 9.8359375 C2 12 2 12 0 14 C0 9.38 0 4.76 0 0 Z " fill="#ECFCFE" transform="translate(412,245)"/>
<path d="M0 0 C0.433125 0.474375 0.86625 0.94875 1.3125 1.4375 C3.02309613 3.23686957 3.02309613 3.23686957 6 4 C6.73046875 5.84765625 6.73046875 5.84765625 7.1875 8.0625 C7.34605469 8.79597656 7.50460937 9.52945313 7.66796875 10.28515625 C7.83232422 11.13400391 7.83232422 11.13400391 8 12 C7.34 12 6.68 12 6 12 C4.4921875 10.13671875 4.4921875 10.13671875 2.875 7.6875 C2.33617187 6.88699219 1.79734375 6.08648437 1.2421875 5.26171875 C0 3 0 3 0 0 Z " fill="#6987A3" transform="translate(356,183)"/>
<path d="M0 0 C0.66 0.99 1.32 1.98 2 3 C1.67 3.33 1.34 3.66 1 4 C0.92820036 5.51928038 0.91607993 7.04167482 0.9375 8.5625 C0.94652344 9.38878906 0.95554687 10.21507812 0.96484375 11.06640625 C0.97644531 11.70449219 0.98804688 12.34257812 1 13 C-0.32 12.67 -1.64 12.34 -3 12 C-2.49202991 7.6822542 -1.80317221 3.96697886 0 0 Z " fill="#7092B0" transform="translate(20,149)"/>
<path d="M0 0 C0.66 0.33 1.32 0.66 2 1 C-0.55738409 5.47542216 -4.4792579 6.98123631 -9 9 C-9 8.01 -9 7.02 -9 6 C-7.03125 4.39453125 -7.03125 4.39453125 -4.5 2.8125 C-3.6646875 2.28269531 -2.829375 1.75289062 -1.96875 1.20703125 C-0.99421875 0.60955078 -0.99421875 0.60955078 0 0 Z " fill="#E0F2F7" transform="translate(158,146)"/>
<path d="M0 0 C5.62541841 0.45003347 8.61487125 1.68441485 13 5 C12.67 5.66 12.34 6.32 12 7 C7.79289278 4.97435578 3.8831514 2.5887676 0 0 Z " fill="#5F88AF" transform="translate(421,125)"/>
<path d="M0 0 C3.59391114 1.33488128 6.75490696 2.96022723 10 5 C9.67 5.66 9.34 6.32 9 7 C8.01 6.67 7.02 6.34 6 6 C5.01 6 4.02 6 3 6 C3 5.01 3 4.02 3 3 C2.01 2.67 1.02 2.34 0 2 C0 1.34 0 0.68 0 0 Z " fill="#7591B4" transform="translate(342,77)"/>
<path d="M0 0 C2.6875 0.875 2.6875 0.875 5 2 C2.82575883 4.50037734 1.26954202 5.43628586 -2 6 C-2 5.34 -2 4.68 -2 4 C-2.66 4 -3.32 4 -4 4 C-3 2 -3 2 0 0 Z " fill="#E5F1F2" transform="translate(156,57)"/>
<path d="M0 0 C-1 3 -1 3 -2.7421875 4.203125 C-3.44601562 4.54859375 -4.14984375 4.8940625 -4.875 5.25 C-5.57367188 5.60578125 -6.27234375 5.9615625 -6.9921875 6.328125 C-9 7 -9 7 -12 6 C-10.37829621 4.99466333 -8.75252763 3.99588093 -7.125 3 C-5.76761719 2.1646875 -5.76761719 2.1646875 -4.3828125 1.3125 C-2 0 -2 0 0 0 Z " fill="#D7E8F1" transform="translate(362,452)"/>
<path d="M0 0 C-1.75 2.0625 -1.75 2.0625 -4 4 C-6.25 3.75 -6.25 3.75 -8 3 C-7.67 2.01 -7.34 1.02 -7 0 C-3.86650268 -1.04449911 -3.01031744 -0.93423645 0 0 Z " fill="#244361" transform="translate(276,330)"/>
<path d="M0 0 C0.66 0 1.32 0 2 0 C2.33 2.64 2.66 5.28 3 8 C1.68 8 0.36 8 -1 8 C-1.04241723 5.66705225 -1.04092937 3.33297433 -1 1 C-0.67 0.67 -0.34 0.34 0 0 Z " fill="#6689AE" transform="translate(99,323)"/>
<path d="M0 0 C2.64752004 2.57784846 4.94432065 4.91648098 7 8 C5.68 7.67 4.36 7.34 3 7 C3 7.66 3 8.32 3 9 C2.01 8.67 1.02 8.34 0 8 C0 5.36 0 2.72 0 0 Z " fill="#D9E5ED" transform="translate(176,311)"/>
<path d="M0 0 C0.66 0.33 1.32 0.66 2 1 C0.02 4.96 -1.96 8.92 -4 13 C-4.33 13 -4.66 13 -5 13 C-4.67 10.36 -4.34 7.72 -4 5 C-3.01 4.67 -2.02 4.34 -1 4 C-0.26676204 1.98491642 -0.26676204 1.98491642 0 0 Z " fill="#6B8AA7" transform="translate(106,200)"/>
<path d="M0 0 C1.82421875 0.99609375 1.82421875 0.99609375 3.6875 2.4375 C4.31011719 2.91058594 4.93273437 3.38367188 5.57421875 3.87109375 C6.27998047 4.42990234 6.27998047 4.42990234 7 5 C6.67 5.66 6.34 6.32 6 7 C5.34 7 4.68 7 4 7 C4 6.34 4 5.68 4 5 C1.60931266 3.89363605 1.60931266 3.89363605 -1 3 C-1.99 3.495 -1.99 3.495 -3 4 C-3 3.01 -3 2.02 -3 1 C-2.01 0.67 -1.02 0.34 0 0 Z " fill="#EBF3F5" transform="translate(323,152)"/>
<path d="M0 0 C1.27450447 0.59638333 2.54446877 1.20247416 3.8125 1.8125 C4.52019531 2.14894531 5.22789062 2.48539063 5.95703125 2.83203125 C8.01129035 4.00645471 9.41616278 5.25628016 11 7 C9.35 7.33 7.7 7.66 6 8 C5.38125 7.195625 4.7625 6.39125 4.125 5.5625 C2.25835959 2.96125481 2.25835959 2.96125481 0 2 C0 1.34 0 0.68 0 0 Z " fill="#DEEFF7" transform="translate(309,143)"/>
<path d="M0 0 C0 0.99 0 1.98 0 3 C-0.94875 3.12375 -1.8975 3.2475 -2.875 3.375 C-6.08667191 3.71687177 -6.08667191 3.71687177 -8 6 C-10.625 6.125 -10.625 6.125 -13 6 C-9.09130466 2.84297684 -5.1385061 0 0 0 Z " fill="#D9E8F3" transform="translate(183,134)"/>
<path d="M0 0 C2.25 -0.25 2.25 -0.25 5 0 C7.3125 2 7.3125 2 9 4 C8.34 4.66 7.68 5.32 7 6 C3.535 4.02 3.535 4.02 0 2 C0 1.34 0 0.68 0 0 Z " fill="#DDEEF9" transform="translate(284,42)"/>
<path d="M0 0 C0.66 0.33 1.32 0.66 2 1 C2.33 1.99 2.66 2.98 3 4 C2.01 5.485 2.01 5.485 1 7 C-0.32 6.01 -1.64 5.02 -3 4 C-2.67 3.01 -2.34 2.02 -2 1 C-1.34 0.67 -0.68 0.34 0 0 Z " fill="#F0F0F2" transform="translate(310,481)"/>
<path d="M0 0 C0.66 0.66 1.32 1.32 2 2 C-1.625 5 -1.625 5 -5 5 C-5 5.66 -5 6.32 -5 7 C-5.99 7 -6.98 7 -8 7 C-6.5361389 2.60841671 -4.02168662 2.12052567 0 0 Z " fill="#D8ECF6" transform="translate(343,462)"/>
<path d="M0 0 C4 4.625 4 4.625 4 8 C3.34 7.67 2.68 7.34 2 7 C2 6.34 2 5.68 2 5 C1.01 5.33 0.02 5.66 -1 6 C-1.66 4.68 -2.32 3.36 -3 2 C-2.01 2 -1.02 2 0 2 C0 1.34 0 0.68 0 0 Z " fill="#E8EFF1" transform="translate(21,393)"/>
<path d="M0 0 C0.99 0.33 1.98 0.66 3 1 C2.625 2.9375 2.625 2.9375 2 5 C1.01 5.495 1.01 5.495 0 6 C-2.625 4.5625 -2.625 4.5625 -5 3 C-2 1 -2 1 0 0 Z " fill="#E3E6E8" transform="translate(157,387)"/>
<path d="M0 0 C0.33 1.32 0.66 2.64 1 4 C0.34 4.66 -0.32 5.32 -1 6 C-1.6425235 8.06874034 -1.6425235 8.06874034 -2 10 C-4 9 -4 9 -6 7 C-4.02 4.69 -2.04 2.38 0 0 Z " fill="#E0EBF2" transform="translate(294,314)"/>
<path d="M0 0 C3.3 0 6.6 0 10 0 C10 0.99 10 1.98 10 3 C8.5199159 2.88637738 7.04089926 2.75877092 5.5625 2.625 C4.73878906 2.55539062 3.91507812 2.48578125 3.06640625 2.4140625 C2.38449219 2.27742188 1.70257813 2.14078125 1 2 C0.67 1.34 0.34 0.68 0 0 Z " fill="#F9FBED" transform="translate(353,290)"/>
<path d="M0 0 C1.1351555 3.4054665 0.84899821 4.31723087 -0.25 7.625 C-0.62898438 8.81996094 -0.62898438 8.81996094 -1.015625 10.0390625 C-2 12 -2 12 -5 13 C-4.54554036 11.58208592 -4.08625056 10.16571954 -3.625 8.75 C-3.24214844 7.56664062 -3.24214844 7.56664062 -2.8515625 6.359375 C-2.04826333 4.13372042 -1.10288338 2.09068328 0 0 Z " fill="#DBEDF4" transform="translate(105,205)"/>
<path d="M0 0 C2.3828125 0.0234375 2.3828125 0.0234375 5.125 0.375 C6.03507813 0.48585937 6.94515625 0.59671875 7.8828125 0.7109375 C8.93082031 0.85402344 8.93082031 0.85402344 10 1 C10 1.66 10 2.32 10 3 C5.83861737 3.08159574 2.0527516 2.98248524 -2 2 C-1.34 1.34 -0.68 0.68 0 0 Z " fill="#6589AC" transform="translate(248,199)"/>
<path d="M0 0 C0.66 0 1.32 0 2 0 C2.6875 1.8125 2.6875 1.8125 3 4 C1.5625 5.75 1.5625 5.75 0 7 C-0.99 6.67 -1.98 6.34 -3 6 C-1.125 1.125 -1.125 1.125 0 0 Z " fill="#E6F2F8" transform="translate(117,185)"/>
<path d="M0 0 C0.66 0.33 1.32 0.66 2 1 C0.54782324 2.50596108 -0.91192861 4.00462104 -2.375 5.5 C-3.18710938 6.3353125 -3.99921875 7.170625 -4.8359375 8.03125 C-7 10 -7 10 -9 10 C-9 9.34 -9 8.68 -9 8 C-8.34 8 -7.68 8 -7 8 C-6.9071875 7.1028125 -6.9071875 7.1028125 -6.8125 6.1875 C-5.67402342 3.12237075 -3.82352481 2.48235053 -1 1 C-0.67 0.67 -0.34 0.34 0 0 Z " fill="#6388A7" transform="translate(138,159)"/>
<path d="M0 0 C4.455 1.98 4.455 1.98 9 4 C8.01 4.495 8.01 4.495 7 5 C6.67 5.99 6.34 6.98 6 8 C5.34 8 4.68 8 4 8 C4.33 7.01 4.66 6.02 5 5 C3.68 4.67 2.36 4.34 1 4 C0.67 2.68 0.34 1.36 0 0 Z " fill="#E7EDF3" transform="translate(87,438)"/>
<path d="M0 0 C0.66 0.33 1.32 0.66 2 1 C2 1.66 2 2.32 2 3 C-1.96 3.66 -5.92 4.32 -10 5 C-9.67 4.01 -9.34 3.02 -9 2 C-7.6078125 2.061875 -7.6078125 2.061875 -6.1875 2.125 C-2.84190281 2.27136339 -2.84190281 2.27136339 0 0 Z " fill="#DAE8F1" transform="translate(271,409)"/>
<path d="M0 0 C0.598125 0.20625 1.19625 0.4125 1.8125 0.625 C1.4825 2.275 1.1525 3.925 0.8125 5.625 C-1.1675 4.305 -3.1475 2.985 -5.1875 1.625 C-2.1875 -0.375 -2.1875 -0.375 0 0 Z " fill="#E3E9EF" transform="translate(147.1875,380.375)"/>
<path d="M0 0 C0 3 0 3 -1.875 5.1875 C-4 7 -4 7 -6 7 C-6.33 6.01 -6.66 5.02 -7 4 C-4.69 2.68 -2.38 1.36 0 0 Z " fill="#E9F4F9" transform="translate(279,329)"/>
<path d="M0 0 C-1.64169528 2.02054804 -3.30911778 4.02043058 -5 6 C-5.33 6 -5.66 6 -6 6 C-6 4.02 -6 2.04 -6 0 C-3.50907189 -1.24546405 -2.58919267 -0.7767578 0 0 Z " fill="#7090B1" transform="translate(129,171)"/>
<path d="M0 0 C-2.68841859 2.25245881 -4.64641875 3.88213958 -8 5 C-8.33 4.34 -8.66 3.68 -9 3 C-7.01532024 -0.96935951 -3.9567243 -1.41311582 0 0 Z " fill="#DDF0F6" transform="translate(50,123)"/>
<path d="M0 0 C0.33 0.99 0.66 1.98 1 3 C0.01 3.495 0.01 3.495 -1 4 C-1.33 4.99 -1.66 5.98 -2 7 C-2.66 7 -3.32 7 -4 7 C-4 6.34 -4 5.68 -4 5 C-5.32 4.67 -6.64 4.34 -8 4 C-5.36 2.68 -2.72 1.36 0 0 Z " fill="#698FB3" transform="translate(87,102)"/>
<path d="M0 0 C2.64 1.32 5.28 2.64 8 4 C7.67 4.99 7.34 5.98 7 7 C4.03 5.35 1.06 3.7 -2 2 C-1.34 1.34 -0.68 0.68 0 0 Z " fill="#E3F4FC" transform="translate(302,51)"/>
<path d="M0 0 C3.40320742 1.01176437 4.75725331 1.64843582 6.8125 4.625 C7.204375 5.40875 7.59625 6.1925 8 7 C6.35 6.67 4.7 6.34 3 6 C3 5.34 3 4.68 3 4 C2.34 4 1.68 4 1 4 C0.67 2.68 0.34 1.36 0 0 Z " fill="#678FB0" transform="translate(262,31)"/>
<path d="M0 0 C1.65 0.33 3.3 0.66 5 1 C2.45543849 3.96865509 -0.48994665 5.3619751 -4 7 C-3.67 5.68 -3.34 4.36 -3 3 C-2.34 3 -1.68 3 -1 3 C-0.67 2.01 -0.34 1.02 0 0 Z " fill="#2F5072" transform="translate(275,497)"/>
<path d="M0 0 C2.875 0.3125 2.875 0.3125 6 1 C6.66 1.99 7.32 2.98 8 4 C6.3125 4.6875 6.3125 4.6875 4 5 C1.25 3.5625 1.25 3.5625 -1 2 C-0.67 1.34 -0.34 0.68 0 0 Z " fill="#265078" transform="translate(319,314)"/>
<path d="M0 0 C-0.1875 1.875 -0.1875 1.875 -1 4 C-3.5625 5.25 -3.5625 5.25 -6 6 C-5.625 3.5625 -5.625 3.5625 -5 1 C-3 0 -3 0 0 0 Z " fill="#24557B" transform="translate(320,223)"/>
<path d="M0 0 C2.97 0.495 2.97 0.495 6 1 C3.47211993 3.79872437 1.79588866 5.45773019 -2 6 C-1.34 4.02 -0.68 2.04 0 0 Z " fill="#E9EFF3" transform="translate(130,72)"/>
<path d="M0 0 C-0.556875 0.268125 -1.11375 0.53625 -1.6875 0.8125 C-4.08933398 2.00699665 -4.08933398 2.00699665 -6.625 3.625 C-9 5 -9 5 -11 5 C-10.03558469 2.58896173 -9.31202953 1.22595242 -7.1875 -0.3125 C-4.45808824 -1.17031512 -2.72321308 -0.75644808 0 0 Z " fill="#7193B3" transform="translate(171,57)"/>
<path d="M0 0 C0.66 0.33 1.32 0.66 2 1 C1.67 1.66 1.34 2.32 1 3 C0.64830932 4.32860925 0.31229724 5.66158328 0 7 C-0.99 7 -1.98 7 -3 7 C-3.33 6.01 -3.66 5.02 -4 4 C-2.68 2.68 -1.36 1.36 0 0 Z " fill="#345478" transform="translate(336,376)"/>
<path d="M0 0 C0.6875 1.75 0.6875 1.75 1 4 C-0.3125 6.25 -0.3125 6.25 -2 8 C-2.66 8 -3.32 8 -4 8 C-3.50168276 4.31245243 -2.89932357 2.39509338 0 0 Z " fill="#6A89A6" transform="translate(181,223)"/>
<path d="M0 0 C2.64 0.33 5.28 0.66 8 1 C8.66 2.65 9.32 4.3 10 6 C6.66666667 4.33333333 3.33333333 2.66666667 0 1 C0 0.67 0 0.34 0 0 Z " fill="#DEEEF6" transform="translate(418,120)"/>
<path d="M0 0 C0.33 0.66 0.66 1.32 1 2 C1.99 2.33 2.98 2.66 4 3 C3.01 3.66 2.02 4.32 1 5 C-1.6875 4.125 -1.6875 4.125 -4 3 C-3 1 -3 1 0 0 Z " fill="#F3F5ED" transform="translate(100,87)"/>
<path d="M0 0 C-0.33 1.32 -0.66 2.64 -1 4 C-3.64 4.33 -6.28 4.66 -9 5 C-6.45523312 2.20075644 -3.92372883 0 0 0 Z " fill="#D7E5F0" transform="translate(305,485)"/>
<path d="M0 0 C0.99 0.33 1.98 0.66 3 1 C3 1.99 3 2.98 3 4 C3.99 3.67 4.98 3.34 6 3 C5.67 3.99 5.34 4.98 5 6 C2.36 4.68 -0.28 3.36 -3 2 C-2.01 1.34 -1.02 0.68 0 0 Z " fill="#35516D" transform="translate(128,458)"/>
<path d="M0 0 C2.31 0.33 4.62 0.66 7 1 C7 1.66 7 2.32 7 3 C8.32 3.66 9.64 4.32 11 5 C10.01 5.495 10.01 5.495 9 6 C6.8359375 5.00390625 6.8359375 5.00390625 4.375 3.5625 C3.55773437 3.08941406 2.74046875 2.61632812 1.8984375 2.12890625 C1.27195312 1.75636719 0.64546875 1.38382812 0 1 C0 0.67 0 0.34 0 0 Z " fill="#2C4765" transform="translate(92,440)"/>
<path d="M0 0 C1.65 0 3.3 0 5 0 C4.67 1.65 4.34 3.3 4 5 C1.03 4.505 1.03 4.505 -2 4 C-2 3.34 -2 2.68 -2 2 C-1.01 2 -0.02 2 1 2 C0.67 1.34 0.34 0.68 0 0 Z " fill="#274B7A" transform="translate(59,417)"/>
<path d="M0 0 C3.96 1.98 3.96 1.98 8 4 C8 4.66 8 5.32 8 6 C6.02 6 4.04 6 2 6 C1.34 4.02 0.68 2.04 0 0 Z " fill="#DDEEF5" transform="translate(351,335)"/>
<path d="M0 0 C0.99 0.99 1.98 1.98 3 3 C2.67 3.99 2.34 4.98 2 6 C-2.875 4.25 -2.875 4.25 -4 2 C-2.68 1.34 -1.36 0.68 0 0 Z " fill="#335072" transform="translate(196,325)"/>
<path d="M0 0 C3.7952131 1.49097658 5.61042731 3.75700849 8 7 C7.01 7.495 7.01 7.495 6 8 C5.67 7.34 5.34 6.68 5 6 C4.34 5.71125 3.68 5.4225 3 5.125 C1 4 1 4 0.25 1.875 C0.1675 1.25625 0.085 0.6375 0 0 Z " fill="#7894B1" transform="translate(288,220)"/>
<path d="M0 0 C0.99 0 1.98 0 3 0 C3 0.66 3 1.32 3 2 C3.66 2 4.32 2 5 2 C5.33 1.34 5.66 0.68 6 0 C6.33 0.99 6.66 1.98 7 3 C6.01 3.99 5.02 4.98 4 6 C2.62437146 4.71034824 1.29233607 3.37310707 0 2 C0 1.34 0 0.68 0 0 Z " fill="#ECF3FA" transform="translate(289,218)"/>
<path d="M0 0 C2.97 0.33 5.94 0.66 9 1 C9.33 2.32 9.66 3.64 10 5 C6.08788267 3.84414715 3.1254959 2.64465038 0 0 Z " fill="#DCEFF3" transform="translate(264,202)"/>
<path d="M0 0 C0.33 0 0.66 0 1 0 C1 1.65 1 3.3 1 5 C0.34 5 -0.32 5 -1 5 C-1.66 7.31 -2.32 9.62 -3 12 C-3.66 11.01 -4.32 10.02 -5 9 C-3.35 6.03 -1.7 3.06 0 0 Z " fill="#E3F2F5" transform="translate(111,194)"/>
<path d="M0 0 C0.99 0.33 1.98 0.66 3 1 C3 1.66 3 2.32 3 3 C3.66 3.33 4.32 3.66 5 4 C4.01 5.32 3.02 6.64 2 8 C0.23537317 4.91190305 0 3.76687864 0 0 Z " fill="#6C94BF" transform="translate(106,192)"/>
<path d="M0 0 C1.65 0 3.3 0 5 0 C2.45543849 2.96865509 -0.48994665 4.3619751 -4 6 C-4 5.01 -4 4.02 -4 3 C-3.01 3 -2.02 3 -1 3 C-0.67 2.01 -0.34 1.02 0 0 Z " fill="#E2F3F6" transform="translate(58,115)"/>
<path d="M0 0 C3.5875213 1.33250791 6.8364623 2.830717 10 5 C10 5.66 10 6.32 10 7 C8.02 6.34 6.04 5.68 4 5 C4 4.34 4 3.68 4 3 C2.68 2.34 1.36 1.68 0 1 C0 0.67 0 0.34 0 0 Z " fill="#6888A5" transform="translate(329,70)"/>
<path d="M0 0 C0.53625 0.2475 1.0725 0.495 1.625 0.75 C-5.875 5.75 -5.875 5.75 -8.375 5.75 C-8.375 5.09 -8.375 4.43 -8.375 3.75 C-3.23290173 -0.34030544 -3.23290173 -0.34030544 0 0 Z " fill="#E6F4F9" transform="translate(219.375,24.25)"/>
<path d="M0 0 C2.64 0.33 5.28 0.66 8 1 C8 1.66 8 2.32 8 3 C8.66 3.33 9.32 3.66 10 4 C9.67 4.66 9.34 5.32 9 6 C6.03 4.35 3.06 2.7 0 1 C0 0.67 0 0.34 0 0 Z " fill="#354F68" transform="translate(64,424)"/>
<path d="M0 0 C1.32 0 2.64 0 4 0 C2.60667426 3.36720387 1.0210714 4.9859524 -2 7 C-2.33 6.01 -2.66 5.02 -3 4 C-2.34 3.34 -1.68 2.68 -1 2 C-0.67 1.34 -0.34 0.68 0 0 Z " fill="#E9F3FA" transform="translate(331,376)"/>
<path d="M0 0 C0.33 0.66 0.66 1.32 1 2 C0.34 2 -0.32 2 -1 2 C-1 3.65 -1 5.3 -1 7 C-2.98 6.34 -4.96 5.68 -7 5 C-2.25 1.125 -2.25 1.125 0 0 Z " fill="#245F96" transform="translate(273,248)"/>
<path d="M0 0 C5.75 0.875 5.75 0.875 8 2 C8 2.66 8 3.32 8 4 C6.25 4.75 6.25 4.75 4 5 C1.75 3.125 1.75 3.125 0 1 C0 0.67 0 0.34 0 0 Z " fill="#E6F4FB" transform="translate(278,130)"/>
<path d="M0 0 C0 0.66 0 1.32 0 2 C-0.99 2 -1.98 2 -3 2 C-3 2.66 -3 3.32 -3 4 C-3.66 4 -4.32 4 -5 4 C-5 4.66 -5 5.32 -5 6 C-6.65 6 -8.3 6 -10 6 C-2.6 0 -2.6 0 0 0 Z " fill="#7794B2" transform="translate(140,72)"/>
<path d="M0 0 C2.86724686 0.57344937 3.8614515 0.8614515 6 3 C6.66 3 7.32 3 8 3 C7.67 3.99 7.34 4.98 7 6 C5.68 5.67 4.36 5.34 3 5 C3 4.34 3 3.68 3 3 C2.01 2.67 1.02 2.34 0 2 C0 1.34 0 0.68 0 0 Z " fill="#5D87AE" transform="translate(277,41)"/>
<path d="M0 0 C0.99 0.33 1.98 0.66 3 1 C2.34 2.32 1.68 3.64 1 5 C-0.65 4.67 -2.3 4.34 -4 4 C-2.68 2.68 -1.36 1.36 0 0 Z " fill="#EDF0EF" transform="translate(164,482)"/>
<path d="M0 0 C1.98 0.66 3.96 1.32 6 2 C6 2.99 6 3.98 6 5 C3.08482708 3.92598892 1.22189824 3.22189824 -1 1 C-0.67 0.67 -0.34 0.34 0 0 Z " fill="#2E5076" transform="translate(46,412)"/>
<path d="M0 0 C-0.75 1.9375 -0.75 1.9375 -2 4 C-4.95319818 5.23843794 -5.87438528 5.04187157 -9 4 C-2.25 0 -2.25 0 0 0 Z " fill="#DBE6ED" transform="translate(440,407)"/>
<path d="M0 0 C6.52307692 -0.36923077 6.52307692 -0.36923077 8.9375 1.5 C9.288125 1.995 9.63875 2.49 10 3 C4.58461538 3.36923077 4.58461538 3.36923077 1.625 1.5 C1.08875 1.005 0.5525 0.51 0 0 Z " fill="#264C65" transform="translate(208,336)"/>
<path d="M0 0 C0.66 0 1.32 0 2 0 C3.38232443 1.62626404 4.71937515 3.2925002 6 5 C5.34 6.32 4.68 7.64 4 9 C2.68 6.03 1.36 3.06 0 0 Z " fill="#E6F3F9" transform="translate(101,325)"/>
<path d="M0 0 C2.475 0.99 2.475 0.99 5 2 C4.67 3.65 4.34 5.3 4 7 C2.68 6.67 1.36 6.34 0 6 C0 4.02 0 2.04 0 0 Z " fill="#ECF7F1" transform="translate(309,311)"/>
<path d="M0 0 C0.66 0 1.32 0 2 0 C1.01 3.3 0.02 6.6 -1 10 C-1.33 10 -1.66 10 -2 10 C-2 7.69 -2 5.38 -2 3 C-1.34 3 -0.68 3 0 3 C0 2.01 0 1.02 0 0 Z " fill="#6A8EAD" transform="translate(99,214)"/>
<path d="M0 0 C0.66 0.99 1.32 1.98 2 3 C-3.94 2.01 -3.94 2.01 -10 1 C-10 0.67 -10 0.34 -10 0 C-3.23076923 -1.38461538 -3.23076923 -1.38461538 0 0 Z " fill="#DCE9F2" transform="translate(254,197)"/>
<path d="M0 0 C2.97 0.495 2.97 0.495 6 1 C3.64722731 3.72426311 1.37503669 4.8141763 -2 6 C-1.67 5.01 -1.34 4.02 -1 3 C-0.34 3 0.32 3 1 3 C0.67 2.01 0.34 1.02 0 0 Z " fill="#E5F2F7" transform="translate(186,40)"/>
<path d="M0 0 C0.66 0.66 1.32 1.32 2 2 C-0.35968744 4.09749995 -1.54616994 4.96905704 -4.75 5.1875 C-5.86375 5.0946875 -5.86375 5.0946875 -7 5 C-4.87219421 2.65941363 -2.88437779 1.29299694 0 0 Z " fill="#DBE5EC" transform="translate(265,507)"/>
<path d="M0 0 C2.33944736 0.28730055 4.6739143 0.61936779 7 1 C4.94766315 3.2477975 3.99332739 4.0022242 1 5 C1 4.01 1 3.02 1 2 C0.34 1.67 -0.32 1.34 -1 1 C-0.67 0.67 -0.34 0.34 0 0 Z " fill="#2D4D6F" transform="translate(261,504)"/>
<path d="M0 0 C0.556875 0.144375 1.11375 0.28875 1.6875 0.4375 C4.11384195 1.02769128 6.54906345 1.523429 9 2 C8.67 2.66 8.34 3.32 8 4 C5.69 3.67 3.38 3.34 1 3 C0.67 2.01 0.34 1.02 0 0 Z " fill="#1F4264" transform="translate(84,434)"/>
<path d="M0 0 C0 0.33 0 0.66 0 1 C-2.64 1 -5.28 1 -8 1 C-8.33 0.34 -8.66 -0.32 -9 -1 C-5.38055101 -2.34053666 -3.42632833 -1.61798838 0 0 Z " fill="#2A4C69" transform="translate(278,413)"/>
<path d="M0 0 C-2.62198774 2.15377564 -4.64404172 3.40072174 -8 4 C-8.33 3.34 -8.66 2.68 -9 2 C-3.375 -1.125 -3.375 -1.125 0 0 Z " fill="#E0EEF7" transform="translate(300,401)"/>
<path d="M0 0 C1.32 1.32 2.64 2.64 4 4 C3.01 5.485 3.01 5.485 2 7 C-0.51083114 5.74458443 -0.87125446 4.49936512 -2 2 C-1.34 2 -0.68 2 0 2 C0 1.34 0 0.68 0 0 Z " fill="#2B4C71" transform="translate(115,352)"/>
<path d="M0 0 C1.32 1.65 2.64 3.3 4 5 C3.67 5.66 3.34 6.32 3 7 C1 6 -1 5 -3 4 C-2.01 2.68 -1.02 1.36 0 0 Z " fill="#305174" transform="translate(363,343)"/>
<path d="M0 0 C3.96 1.98 3.96 1.98 8 4 C7.34 4.66 6.68 5.32 6 6 C4.02 5.01 2.04 4.02 0 3 C0 2.01 0 1.02 0 0 Z " fill="#D1E4ED" transform="translate(339,328)"/>
<path d="M0 0 C1.485 0.99 1.485 0.99 3 2 C3 2.66 3 3.32 3 4 C4.32 4 5.64 4 7 4 C7 4.66 7 5.32 7 6 C3.75791433 5.64950425 2.38472296 5.43778819 0.1875 2.9375 C-0.4003125 1.9784375 -0.4003125 1.9784375 -1 1 C-0.67 0.67 -0.34 0.34 0 0 Z " fill="#1B3F5D" transform="translate(188,321)"/>
<path d="M0 0 C1.32 0 2.64 0 4 0 C4 1.65 4 3.3 4 5 C2.68 4.67 1.36 4.34 0 4 C0 2.68 0 1.36 0 0 Z " fill="#165C96" transform="translate(344,240)"/>
<path d="M0 0 C0.33 0 0.66 0 1 0 C1.33 1.98 1.66 3.96 2 6 C1.01 6.33 0.02 6.66 -1 7 C-1.33 7.99 -1.66 8.98 -2 10 C-3 8 -3 8 -2.44140625 6.0546875 C-2.15136719 5.33539063 -1.86132812 4.61609375 -1.5625 3.875 C-1.27503906 3.15054688 -0.98757812 2.42609375 -0.69140625 1.6796875 C-0.46324219 1.12539062 -0.23507813 0.57109375 0 0 Z " fill="#D5EAF3" transform="translate(99,219)"/>
<path d="M0 0 C0 0.66 0 1.32 0 2 C-4.38461538 5 -4.38461538 5 -7 5 C-6.67 3.68 -6.34 2.36 -6 1 C-3.92446352 0.4465236 -2.15634036 0 0 0 Z " fill="#E1ECF7" transform="translate(205,203)"/>
<path d="M0 0 C0.66 0.33 1.32 0.66 2 1 C2.625 3.0625 2.625 3.0625 3 5 C1.35 5.66 -0.3 6.32 -2 7 C-1.42415568 4.61435923 -0.77772405 2.33317216 0 0 Z " fill="#E1F3FA" transform="translate(360,192)"/>
<path d="M0 0 C1.32 0.66 2.64 1.32 4 2 C3.01 2.495 3.01 2.495 2 3 C1.67 3.99 1.34 4.98 1 6 C0.01 5.67 -0.98 5.34 -2 5 C-1.34 3.35 -0.68 1.7 0 0 Z " fill="#E9F1F8" transform="translate(354,185)"/>
<path d="M0 0 C5.53846154 0.49230769 5.53846154 0.49230769 7.875 3.0625 C8.431875 4.0215625 8.431875 4.0215625 9 5 C8.01 5.495 8.01 5.495 7 6 C6.34 5.67 5.68 5.34 5 5 C5 4.34 5 3.68 5 3 C2.525 2.01 2.525 2.01 0 1 C0 0.67 0 0.34 0 0 Z " fill="#7A95B8" transform="translate(315,146)"/>
<path d="M0 0 C0.33 0.66 0.66 1.32 1 2 C-2.96 1.67 -6.92 1.34 -11 1 C-11 0.67 -11 0.34 -11 0 C-7.02389268 -0.83220851 -3.9167686 -1.23098442 0 0 Z " fill="#7998B1" transform="translate(269,125)"/>
<path d="M0 0 C2.03144641 0.93446535 4.03533587 1.93224776 6 3 C6 3.66 6 4.32 6 5 C2.64404172 4.40072174 0.62198774 3.15377564 -2 1 C-1.34 0.67 -0.68 0.34 0 0 Z " fill="#DEEFF9" transform="translate(274,35)"/>
<path d="M0 0 C-3.96 1.98 -3.96 1.98 -8 4 C-7.67 2.68 -7.34 1.36 -7 0 C-3.98968256 -0.93423645 -3.13349732 -1.04449911 0 0 Z " fill="#2C4D6A" transform="translate(315,479)"/>
<path d="M0 0 C0.66 0 1.32 0 2 0 C2 0.66 2 1.32 2 2 C2.66 2.33 3.32 2.66 4 3 C4 3.66 4 4.32 4 5 C3.01 5.33 2.02 5.66 1 6 C0.34 4.35 -0.32 2.7 -1 1 C-0.67 0.67 -0.34 0.34 0 0 Z " fill="#274B70" transform="translate(117,450)"/>
<path d="M0 0 C0.598125 0.20625 1.19625 0.4125 1.8125 0.625 C1.1525 0.625 0.4925 0.625 -0.1875 0.625 C0.1425 1.615 0.4725 2.605 0.8125 3.625 C-0.8375 3.955 -2.4875 4.285 -4.1875 4.625 C-4.5175 3.635 -4.8475 2.645 -5.1875 1.625 C-2.1875 -0.375 -2.1875 -0.375 0 0 Z " fill="#EAECEF" transform="translate(381.1875,441.375)"/>
<path d="M0 0 C5.75 -0.125 5.75 -0.125 8 1 C8 1.66 8 2.32 8 3 C5.6568787 2.74438677 3.32156597 2.40729228 1 2 C0.67 1.34 0.34 0.68 0 0 Z " fill="#244166" transform="translate(60,421)"/>
<path d="M0 0 C3.82097239 0.53069061 6.06171403 1.49701566 9 4 C7.3125 4.8125 7.3125 4.8125 5 5 C2.25 2.5625 2.25 2.5625 0 0 Z " fill="#DFEEF8" transform="translate(54,420)"/>
<path d="M0 0 C3.96 1.98 3.96 1.98 8 4 C8 4.33 8 4.66 8 5 C6.35 5 4.7 5 3 5 C3 4.34 3 3.68 3 3 C2.01 2.67 1.02 2.34 0 2 C0 1.34 0 0.68 0 0 Z " fill="#DFEFF6" transform="translate(328,322)"/>
<path d="M0 0 C0.66 0 1.32 0 2 0 C2.95024979 3.69541586 2.95024979 6.30458414 2 10 C1.67 10 1.34 10 1 10 C0.67 6.7 0.34 3.4 0 0 Z " fill="#6090C7" transform="translate(96,323)"/>
<path d="M0 0 C0.66 0 1.32 0 2 0 C2.33 1.32 2.66 2.64 3 4 C3.66 4 4.32 4 5 4 C4.67 4.99 4.34 5.98 4 7 C2 5.1875 2 5.1875 0 3 C0 2.01 0 1.02 0 0 Z " fill="#EDF3F7" transform="translate(295,224)"/>
<path d="M0 0 C-3.44450737 2.29633824 -5.93812283 2.54016485 -10 3 C-7.29536552 -0.8183075 -4.37912428 -0.24787496 0 0 Z " fill="#688AA6" transform="translate(192,130)"/>
<path d="M0 0 C2.97 0 5.94 0 9 0 C9 0.99 9 1.98 9 3 C4.545 2.01 4.545 2.01 0 1 C0 0.67 0 0.34 0 0 Z " fill="#7092B2" transform="translate(271,127)"/>
<path d="M0 0 C2.4375 0.375 2.4375 0.375 5 1 C5.33 1.66 5.66 2.32 6 3 C4.02 3.33 2.04 3.66 0 4 C0 2.68 0 1.36 0 0 Z " fill="#5891C3" transform="translate(384,105)"/>
</svg>
