<?xml version="1.0" encoding="UTF-8"?>
<svg version="1.1" xmlns="http://www.w3.org/2000/svg" width="474" height="312">
<path d="M0 0 C156.42 0 312.84 0 474 0 C474 102.96 474 205.92 474 312 C317.58 312 161.16 312 0 312 C0 209.04 0 106.08 0 0 Z " fill="#FDFDFD" transform="translate(0,0)"/>
<path d="M0 0 C7.96545694 6.37236555 15.75490577 13.03192204 22.3125 20.875 C25.31057497 24.34132096 28.52623585 27.31151415 32.015625 30.2734375 C34.62165724 32.54089074 37.04044062 34.96332727 39.45703125 37.4296875 C40.75611775 38.75179578 42.09282685 40.03678445 43.4375 41.3125 C45 43 45 43 45 45 C45.66 45 46.32 45 47 45 C47 45.66 47 46.32 47 47 C50.07229724 46.92685007 52.25362136 46.69400119 54.55859375 44.55078125 C56.07939157 42.72977399 57.53937961 40.86943534 59 39 C61.38423578 36.49946004 63.69956712 34.23110222 66.4375 32.125 C68.556554 30.36773571 70.08214847 28.78730497 71.8125 26.6875 C74.63757646 23.28721468 77.77022381 20.47673263 81.12890625 17.61328125 C84.13297302 15.023136 86.9075939 12.21866409 89.5546875 9.265625 C103.55968343 -5.76119466 124.88868561 -16.1890993 145.45922852 -17.11010742 C148.24440631 -17.1701208 151.02669846 -17.18560102 153.8125 -17.1875 C154.74642578 -17.19974609 155.68035156 -17.21199219 156.64257812 -17.22460938 C162.99790186 -17.23784044 168.82833247 -16.49849313 175 -15 C176.07507813 -14.73960938 177.15015625 -14.47921875 178.2578125 -14.2109375 C190.97427057 -10.5034143 203.03634525 -4.81905411 213 4 C214.22783203 5.03253906 214.22783203 5.03253906 215.48046875 6.0859375 C230.53402124 19.06706446 242.64286427 38.55827904 244.83007812 58.67871094 C245.85677571 72.70434407 246.34196912 87.49893374 242 101 C241.80132324 101.63550781 241.60264648 102.27101563 241.39794922 102.92578125 C238.29632237 112.64653537 234.16778187 120.79579678 228 129 C227.37222656 129.87269531 226.74445313 130.74539062 226.09765625 131.64453125 C215.6634921 145.53541235 200.24695863 155.25013177 184 161 C182.97648437 161.39316406 181.95296875 161.78632813 180.8984375 162.19140625 C160.12944395 169.04278688 134.38157068 166.8707573 114.75 157.375 C112.05282855 156.00243942 109.55735693 154.59992281 107 153 C106.06591309 152.42491699 105.13182617 151.84983398 104.16943359 151.25732422 C92.24146741 143.34846772 82.54810627 133.01181903 72.5690918 122.84375 C70.13567931 120.36878643 67.69033241 117.90567029 65.24609375 115.44140625 C60.48593521 110.63885731 55.73870204 105.82371934 51 101 C47.66596541 102.4475761 45.51975328 104.25525467 42.98852539 106.84790039 C42.20993668 107.63955093 41.43134796 108.43120148 40.62916565 109.24684143 C39.3760685 110.53424477 39.3760685 110.53424477 38.09765625 111.84765625 C36.3017254 113.66890887 34.50549139 115.48986259 32.70898438 117.31054688 C29.89344595 120.1732159 27.08338164 123.04111669 24.27807617 125.91381836 C9.38819909 141.13865504 -4.15701404 152.92110396 -24 161 C-25.66482422 161.68642578 -25.66482422 161.68642578 -27.36328125 162.38671875 C-44.89089539 168.25671879 -67.68670248 167.24662046 -85 161 C-85.91910156 160.69964844 -86.83820313 160.39929688 -87.78515625 160.08984375 C-109.00401088 152.51402394 -127.14512377 134.18170253 -137.03588867 114.22802734 C-140.1203536 107.67489659 -142.48166392 101.08913254 -144 94 C-144.20367187 93.15566406 -144.40734375 92.31132812 -144.6171875 91.44140625 C-149.8533852 67.30468672 -142.99770171 42.63384155 -130.16796875 22.0625 C-127.12704314 17.61042591 -123.97892053 13.66479522 -120 10 C-119.24589844 9.21882813 -118.49179688 8.43765625 -117.71484375 7.6328125 C-86.48605595 -22.65237164 -34.77415688 -25.77267213 0 0 Z " fill="#7A97C0" transform="translate(187,77)"/>
<path d="M0 0 C3.87365987 2.61774006 7.31663822 5.59699567 10.73046875 8.77734375 C11.28994705 9.29646835 11.84942535 9.81559296 12.42585754 10.35044861 C18.79946277 16.30493347 24.9792103 22.45335077 31.13598633 28.63061523 C33.09535058 30.59544217 35.06014203 32.55473227 37.02539062 34.51367188 C38.28157155 35.77051203 39.5374431 37.0276615 40.79296875 38.28515625 C41.37620407 38.86636734 41.95943939 39.44757843 42.56034851 40.04640198 C44.93787691 42.4378477 46.99826986 44.6849048 48.875 47.5 C48.11132904 54.5396578 40.77056456 59.59913842 35.75390625 63.8828125 C32.17127703 66.96640605 29.01592568 70.31045254 26 73.9375 C23.4120214 77.00448749 20.61018411 79.55115223 17.5234375 82.10546875 C16.09788211 83.31144807 14.75783979 84.61716021 13.4375 85.9375 C12.591875 86.783125 11.74625 87.62875 10.875 88.5 C10.36066406 89.03496094 9.84632813 89.56992188 9.31640625 90.12109375 C-2.08643825 101.13158231 -17.21574211 105.00523467 -32.6640625 104.75390625 C-44.40573943 103.89249654 -55.23991659 99.11105842 -64.125 91.5 C-64.93066406 90.82453125 -65.73632812 90.1490625 -66.56640625 89.453125 C-76.64710882 80.28045518 -83.70017532 66.96797241 -84.4609375 53.203125 C-84.78625436 37.20926821 -80.32207486 21.2421971 -69.10546875 9.18359375 C-49.57315344 -7.42080053 -23.26956313 -12.62457839 0 0 Z " fill="#FAFCFB" transform="translate(161.125,102.5)"/>
<path d="M0 0 C13.1206774 9.85693628 21.3730738 21.71598513 25.33984375 37.7578125 C26.71435443 49.9692548 25.02367743 66.20277036 17.46484375 76.3828125 C16.42988471 77.51398633 15.38820028 78.63904397 14.33984375 79.7578125 C13.86289062 80.46550781 13.3859375 81.17320312 12.89453125 81.90234375 C5.08017778 93.42753341 -8.26539499 99.72822851 -21.62109375 102.3359375 C-35.96369232 104.3269409 -49.42111026 101.52582723 -61.66015625 93.7578125 C-65.95518784 90.37661742 -69.80025169 86.61468095 -73.66015625 82.7578125 C-74.4190918 82.00580566 -75.17802734 81.25379883 -75.95996094 80.47900391 C-82.08471334 74.4079774 -88.179713 68.30719636 -94.23095703 62.1628418 C-96.3021323 60.06808652 -98.36625371 58.18410832 -100.66015625 56.3203125 C-103.78061654 53.65491934 -106.12357746 50.96583861 -108.66015625 47.7578125 C-107.38390375 44.96356162 -106.06044648 42.90639124 -103.89453125 40.73339844 C-103.34055664 40.17311951 -102.78658203 39.61284058 -102.21582031 39.0355835 C-101.61995117 38.44376282 -101.02408203 37.85194214 -100.41015625 37.2421875 C-99.79624023 36.62635803 -99.18232422 36.01052856 -98.54980469 35.3760376 C-97.25441142 34.07928604 -95.95649981 32.78504593 -94.65625 31.49316406 C-92.66040557 29.50806048 -90.67548899 27.51247659 -88.69140625 25.515625 C-87.4316307 24.25717039 -86.17123524 22.99933596 -84.91015625 21.7421875 C-84.31428711 21.1422699 -83.71841797 20.54235229 -83.10449219 19.92425537 C-78.89008872 15.7578125 -78.89008872 15.7578125 -76.66015625 15.7578125 C-76.43328125 15.19835937 -76.20640625 14.63890625 -75.97265625 14.0625 C-69.99812718 3.57151145 -56.38661652 -4.11972922 -45.18359375 -7.546875 C-30.01643869 -10.53994995 -13.04350565 -8.63779576 0 0 Z " fill="#FAFCFC" transform="translate(371.66015625,104.2421875)"/>
<path d="M0 0 C0 7.92 0 15.84 0 24 C6.02751612 24.28821887 6.02751612 24.28821887 12.05541992 24.56811523 C16.12378036 24.77237534 20.02740865 25.02124561 24 26 C22.71034824 27.37562854 21.37310707 28.70766393 20 30 C19.34 30 18.68 30 18 30 C17.72800781 30.58523437 17.45601562 31.17046875 17.17578125 31.7734375 C16.02033513 33.96149162 14.73753986 35.70278698 13.1875 37.625 C9.7650148 42.13266344 7.24967798 46.81457203 5 52 C4.67773438 52.73476562 4.35546875 53.46953125 4.0234375 54.2265625 C-0.65394734 66.94730072 1.11323366 81.50356634 6.6171875 93.53515625 C9.28177484 99.12249664 11.95733369 104.26430518 16 109 C15.67 109.66 15.34 110.32 15 111 C14.91599471 112.59447464 14.89272533 114.19240545 14.90234375 115.7890625 C14.90556641 116.73007813 14.90878906 117.67109375 14.91210938 118.640625 C14.92048828 119.62546875 14.92886719 120.6103125 14.9375 121.625 C14.94201172 122.61757812 14.94652344 123.61015625 14.95117188 124.6328125 C14.96297855 127.0886016 14.979446 129.54427104 15 132 C14.40985107 132.08564209 13.81970215 132.17128418 13.21166992 132.25952148 C10.53652607 132.64935599 7.86201571 133.04338014 5.1875 133.4375 C4.25873047 133.57220703 3.32996094 133.70691406 2.37304688 133.84570312 C1.48037109 133.97783203 0.58769531 134.10996094 -0.33203125 134.24609375 C-1.56530151 134.42676392 -1.56530151 134.42676392 -2.82348633 134.61108398 C-5.16924057 134.97617892 -5.16924057 134.97617892 -8 136 C-20.32806201 123.1128422 -29.11161621 108.53635338 -33 91 C-33.20496094 90.15308594 -33.40992188 89.30617188 -33.62109375 88.43359375 C-38.83843998 64.28987431 -32.00201562 39.64075853 -19.16796875 19.0625 C-16.12704314 14.61042591 -12.97892053 10.66479522 -9 7 C-7.700625 5.6696875 -7.700625 5.6696875 -6.375 4.3125 C-1.94594595 0 -1.94594595 0 0 0 Z " fill="#7A97C0" transform="translate(76,80)"/>
<path d="M0 0 C4.72424621 3.37446158 8.16229642 5.92970832 12 10 C13.02480469 11.03253906 13.02480469 11.03253906 14.0703125 12.0859375 C32.66830695 32.80537619 36.16703543 58.30514518 35 85 C34.57652304 89.8444127 33.4884557 94.37174529 32 99 C31.80132324 99.63550781 31.60264648 100.27101563 31.39794922 100.92578125 C26.9364782 114.90839904 19.35853584 125.74984521 10 137 C9.67 136.34 9.34 135.68 9 135 C8.09378906 135.02320313 7.18757813 135.04640625 6.25390625 135.0703125 C-0.86197138 135.17573291 -7.13416799 134.89402262 -14 133 C-14.19502282 130.08365878 -14.38129328 127.16720455 -14.5625 124.25 C-14.61857422 123.425 -14.67464844 122.6 -14.73242188 121.75 C-14.78076172 120.95078125 -14.82910156 120.1515625 -14.87890625 119.328125 C-14.9260376 118.5949707 -14.97316895 117.86181641 -15.02172852 117.10644531 C-14.99913793 114.91642774 -14.61487456 113.09512813 -14 111 C-14.66 110.67 -15.32 110.34 -16 110 C-15.20335937 109.07380859 -15.20335937 109.07380859 -14.390625 108.12890625 C-4.15100234 95.85257032 -0.27292887 82.6876178 -0.65234375 66.63671875 C-2.20974183 50.34528494 -11.85208289 38.14791711 -23 27 C-11.615 25.515 -11.615 25.515 0 24 C0 16.08 0 8.16 0 0 Z " fill="#7A97C0" transform="translate(397,79)"/>
<path d="M0 0 C0.93392578 -0.01224609 1.86785156 -0.02449219 2.83007812 -0.03710938 C9.18540186 -0.05034044 15.01583247 0.68900687 21.1875 2.1875 C22.26257813 2.44789062 23.33765625 2.70828125 24.4453125 2.9765625 C35.55228987 6.21483656 46.87490298 11.22060992 56.1875 18.1875 C57.18009618 21.16528854 57.31641582 23.14992951 57.3203125 26.2578125 C57.32160156 27.23621094 57.32289063 28.21460937 57.32421875 29.22265625 C57.32035156 30.24230469 57.31648437 31.26195313 57.3125 32.3125 C57.31636719 33.33988281 57.32023438 34.36726563 57.32421875 35.42578125 C57.32228516 36.88951172 57.32228516 36.88951172 57.3203125 38.3828125 C57.31918457 39.28016113 57.31805664 40.17750977 57.31689453 41.10205078 C57.1875 43.1875 57.1875 43.1875 56.1875 44.1875 C51.54917932 45.07129685 46.87574639 45.6379801 42.1875 46.1875 C41.28644531 46.29964844 40.38539063 46.41179687 39.45703125 46.52734375 C33.00629323 46.95879605 28.8412008 44.7306913 23.23046875 41.72265625 C11.23411186 35.6705789 -4.62527176 34.79209969 -17.38916016 38.98388672 C-24.42470436 41.61529765 -30.29736746 45.07290781 -35.8125 50.1875 C-37.62453354 51.83384688 -39.43704274 53.47967037 -41.25 55.125 C-42.07371094 55.89714844 -42.89742188 56.66929688 -43.74609375 57.46484375 C-45.8125 59.1875 -45.8125 59.1875 -47.8125 59.1875 C-48.62684143 56.33589609 -48.93131242 53.82123869 -48.91015625 50.859375 C-48.90693359 50.06015625 -48.90371094 49.2609375 -48.90039062 48.4375 C-48.89201172 47.6125 -48.88363281 46.7875 -48.875 45.9375 C-48.87048828 45.09703125 -48.86597656 44.2565625 -48.86132812 43.390625 C-48.84957961 41.32288599 -48.83164522 39.25518376 -48.8125 37.1875 C-49.99005859 37.20490234 -49.99005859 37.20490234 -51.19140625 37.22265625 C-56.86242201 37.27136436 -62.22457023 37.13863698 -67.8125 36.1875 C-68.8025 36.1875 -69.7925 36.1875 -70.8125 36.1875 C-71.4725 35.8575 -72.1325 35.5275 -72.8125 35.1875 C-68.93390468 30.21804974 -64.68801323 26.17581633 -59.8125 22.1875 C-58.94753906 21.47335938 -58.08257812 20.75921875 -57.19140625 20.0234375 C-40.31988661 6.70020218 -21.55267534 0.01469167 0 0 Z " fill="#4F6B92" transform="translate(340.8125,59.8125)"/>
<path d="M0 0 C12.31838039 10.04122062 12.31838039 10.04122062 16.23095703 15.59765625 C16.23095703 16.25765625 16.23095703 16.91765625 16.23095703 17.59765625 C4.84595703 18.09265625 4.84595703 18.09265625 -6.76904297 18.59765625 C-6.40149623 23.72863733 -6.40149623 23.72863733 -6.02075195 28.85864258 C-5.80241657 32.11163571 -5.72859123 34.47630103 -6.76904297 37.59765625 C-6.76904297 38.91765625 -6.76904297 40.23765625 -6.76904297 41.59765625 C-9.80672209 40.25051159 -11.76572499 38.77598922 -14.01904297 36.34765625 C-25.96826392 24.11936644 -40.24821748 18.38716736 -57.26904297 18.16015625 C-66.86690982 18.21290731 -74.8910429 19.90039851 -82.89404297 25.41015625 C-91.12741052 30.3592577 -103.72697524 26.96475933 -112.76904297 25.59765625 C-114.97227783 4.25533175 -114.97227783 4.25533175 -111.57226562 -1.38916016 C-108.43356254 -4.46191151 -104.67307678 -6.16185755 -100.60253906 -7.70263672 C-98.05590699 -8.67449391 -95.69281443 -9.97216272 -93.26904297 -11.21484375 C-62.82310674 -24.23093187 -26.19625792 -20.76612 0 0 Z " fill="#4F6B92" transform="translate(188.76904296875,78.40234375)"/>
<path d="M0 0 C4.22807883 3.52974749 8.29951689 5.7563722 13.375 7.75 C14.31351807 8.11967896 14.31351807 8.11967896 15.27099609 8.49682617 C28.29354208 13.36168963 42.77021988 12.27072646 55.625 7.3125 C61.31061497 4.58317054 66.49538416 1.06236979 71.36328125 -2.9375 C73.625 -4.6875 73.625 -4.6875 75.625 -4.6875 C75.625 2.5725 75.625 9.8325 75.625 17.3125 C81.17114839 17.92873871 86.63221794 18.49745656 92.1875 18.875 C94.01474609 19.00068359 94.01474609 19.00068359 95.87890625 19.12890625 C96.78511719 19.18949219 97.69132813 19.25007813 98.625 19.3125 C93.9006092 30.01801609 79.89342033 36.60595683 69.75 41.0625 C67.71755433 41.83714015 65.67544366 42.58683921 63.625 43.3125 C62.08972656 43.90224609 62.08972656 43.90224609 60.5234375 44.50390625 C39.79706232 51.34122772 13.96116767 49.22634031 -5.625 39.6875 C-14.5416059 35.06554903 -24.91618949 29.09865081 -31.375 21.3125 C-31.82910156 18.56347656 -31.82910156 18.56347656 -31.765625 15.453125 C-31.75273437 14.33808594 -31.73984375 13.22304687 -31.7265625 12.07421875 C-31.69304687 10.91535156 -31.65953125 9.75648438 -31.625 8.5625 C-31.60695313 7.38816406 -31.58890625 6.21382812 -31.5703125 5.00390625 C-31.5231912 2.1059466 -31.45741305 -0.79036418 -31.375 -3.6875 C-27.81298805 -3.88516544 -24.25038633 -4.06883629 -20.6875 -4.25 C-19.68009766 -4.30607422 -18.67269531 -4.36214844 -17.63476562 -4.41992188 C-16.17006836 -4.49243164 -16.17006836 -4.49243164 -14.67578125 -4.56640625 C-13.78028564 -4.6135376 -12.88479004 -4.66066895 -11.9621582 -4.70922852 C-6.60777575 -4.66425918 -3.92080542 -3.61126815 0 0 Z " fill="#4E6B92" transform="translate(307.375,194.6875)"/>
<path d="M0 0 C3.10870081 1.38928664 5.28387424 3.04135207 7.75 5.375 C18.96647295 15.36823468 33.4122782 17.79099221 48 17 C57.77122815 15.83537209 70.50635295 11.74210345 77.5546875 4.375 C80.3026105 1.76075974 83.49893703 1.05088906 87.23242188 0.92431641 C89.74601794 0.99022535 92.24188557 1.13498505 94.75 1.3125 C95.61238281 1.36083984 96.47476563 1.40917969 97.36328125 1.45898438 C103.70157645 1.85078823 103.70157645 1.85078823 106 3 C106.37890625 5.73046875 106.37890625 5.73046875 106.5625 9.1875 C106.80576258 13.53147459 107.21391341 17.71875157 108 22 C107.34 22 106.68 22 106 22 C106.24234375 22.74507812 106.4846875 23.49015625 106.734375 24.2578125 C107 27 107 27 105.515625 28.9921875 C95.26855318 37.50785753 84.32056216 43.97801428 72 49 C70.93136719 49.43828125 69.86273438 49.8765625 68.76171875 50.328125 C51.1517774 56.2050032 28.39981743 55.27783675 11 49 C10.08089844 48.69964844 9.16179687 48.39929688 8.21484375 48.08984375 C-2.59757983 44.22945759 -14.37483825 36.67362149 -22 28 C-22 27.34 -22 26.68 -22 26 C-19.16595455 24.58297727 -16.38324343 24.38368973 -13.25 23.9375 C-12.03828125 23.76089844 -10.8265625 23.58429688 -9.578125 23.40234375 C-6.34399322 23.03868046 -3.24997042 22.92523074 0 23 C-0.03552979 22.3387915 -0.07105957 21.67758301 -0.10766602 20.99633789 C-0.26466247 18.01864712 -0.41368634 15.04061043 -0.5625 12.0625 C-0.61857422 11.02158203 -0.67464844 9.98066406 -0.73242188 8.90820312 C-0.78076172 7.91884766 -0.82910156 6.92949219 -0.87890625 5.91015625 C-0.9260376 4.99371338 -0.97316895 4.07727051 -1.02172852 3.13305664 C-1 1 -1 1 0 0 Z " fill="#4F6B92" transform="translate(91,189)"/>
<path d="M0 0 C5.63530392 1.45821721 11.19985184 1.78748978 17 2.1875 C17.33 9.4475 17.66 16.7075 18 24.1875 C18.66 24.5175 19.32 24.8475 20 25.1875 C19.56751953 25.54851807 19.13503906 25.90953613 18.68945312 26.28149414 C11.93933431 32.04275855 5.74532912 38.33047314 -0.5 44.625 C-1.61955632 45.7495833 -2.73934629 46.87393405 -3.859375 47.99804688 C-6.57561534 50.72519344 -9.28868292 53.45545907 -12 56.1875 C-14.44921875 55.3515625 -14.44921875 55.3515625 -17 54.1875 C-17.8125 51.5625 -17.8125 51.5625 -18 49.1875 C-18.99 49.1875 -19.98 49.1875 -21 49.1875 C-23.93952555 46.59791797 -25.75122171 44.93383486 -27 41.1875 C-27.66 41.1875 -28.32 41.1875 -29 41.1875 C-31.125 39.3125 -31.125 39.3125 -33 37.1875 C-33 36.5275 -33 35.8675 -33 35.1875 C-33.66 35.1875 -34.32 35.1875 -35 35.1875 C-35 34.5275 -35 33.8675 -35 33.1875 C-36.32 32.5275 -37.64 31.8675 -39 31.1875 C-38.01 31.1875 -37.02 31.1875 -36 31.1875 C-35.814375 30.48625 -35.62875 29.785 -35.4375 29.0625 C-33.73233571 25.65217142 -31.72468613 24.08747948 -28.80078125 21.7265625 C-27.11669546 20.28723539 -25.76376906 18.84442835 -24.375 17.125 C-20.38506845 12.19008466 -15.86704279 8.20810057 -11 4.1875 C-10.46375 3.630625 -9.9275 3.07375 -9.375 2.5 C-6.34576762 -0.39154 -4.00476738 -1.17564194 0 0 Z " fill="#6981AA" transform="translate(275,94.8125)"/>
<path d="M0 0 C0.99 0.66 1.98 1.32 3 2 C2.67 3.32 2.34 4.64 2 6 C2.33 5.67 2.66 5.34 3 5 C3.99 5.33 4.98 5.66 6 6 C6.66666667 7.66666667 7.33333333 9.33333333 8 11 C8.99 11.33 9.98 11.66 11 12 C11 12.66 11 13.32 11 14 C11.56074219 14.23976562 12.12148437 14.47953125 12.69921875 14.7265625 C15.49820004 16.27574399 17.5203048 18.14575685 19.8125 20.375 C21.02873047 21.53128906 21.02873047 21.53128906 22.26953125 22.7109375 C24 25 24 25 23.8217926 26.90814209 C22.81484964 29.47129682 21.53854732 30.82248279 19.58178711 32.75878906 C18.86111557 33.47923401 18.14044403 34.19967896 17.39793396 34.94195557 C16.61563919 35.70876648 15.83334442 36.47557739 15.02734375 37.265625 C14.22970108 38.05902283 13.43205841 38.85242065 12.61024475 39.66986084 C10.05961153 42.20369398 7.49874774 44.72690105 4.9375 47.25 C3.20699858 48.9654564 1.4771722 50.68159405 -0.25195312 52.3984375 C-4.49349906 56.60689643 -8.74349298 60.80667651 -13 65 C-13.66 63.68 -14.32 62.36 -15 61 C-14.34 61 -13.68 61 -13 61 C-13.49113281 59.72769531 -13.49113281 59.72769531 -13.9921875 58.4296875 C-15.05932828 54.79809989 -15.20197218 51.89663699 -15.125 48.125 C-15.10695312 46.97257812 -15.08890625 45.82015625 -15.0703125 44.6328125 C-15.04710937 43.76398438 -15.02390625 42.89515625 -15 42 C-18.77078686 41.83227069 -22.54163659 41.66599875 -26.3125 41.5 C-27.38435547 41.45230469 -28.45621094 41.40460938 -29.56054688 41.35546875 C-30.58857422 41.31035156 -31.61660156 41.26523438 -32.67578125 41.21875 C-34.0975769 41.1559082 -34.0975769 41.1559082 -35.5480957 41.09179688 C-37.36438224 41.0237969 -39.18244098 41 -41 41 C-39.625 39.5 -39.625 39.5 -38 38 C-37.34 38 -36.68 38 -36 38 C-35.7525 37.4225 -35.505 36.845 -35.25 36.25 C-33.81700012 33.67060021 -32.21575324 31.93878408 -30 30 C-29.34 30 -28.68 30 -28 30 C-27.7525 29.4225 -27.505 28.845 -27.25 28.25 C-25.81700012 25.67060021 -24.21575324 23.93878408 -22 22 C-21.34 22 -20.68 22 -20 22 C-19.7525 21.4225 -19.505 20.845 -19.25 20.25 C-17.81700012 17.67060021 -16.21575324 15.93878408 -14 14 C-13.34 14 -12.68 14 -12 14 C-11.67 13.01 -11.34 12.02 -11 11 C-10.34 11 -9.68 11 -9 11 C-8.79375 10.443125 -8.5875 9.88625 -8.375 9.3125 C-7.03153247 7.05303189 -5.94842298 6.0001344 -3.9375 4.375 C-0.99175287 2.32880603 -0.99175287 2.32880603 0 0 Z " fill="#6982AA" transform="translate(212,150)"/>
<path d="M0 0 C18.91891892 0 18.91891892 0 24.375 5.3125 C28.17260794 11.59315929 28.61381094 16.91075907 27 24 C24.47022266 28.63792512 22.07547762 32.30817413 17 34 C11.39 34 5.78 34 0 34 C0 22.78 0 11.56 0 0 Z " fill="#9CB4D1" transform="translate(95,134)"/>
<path d="M0 0 C4.07423603 1.47365984 6.25402048 3.91910384 8.27734375 7.77734375 C10.51581771 14.66216366 9.42880524 22.32078559 7 29 C6.34 29 5.68 29 5 29 C4.731875 29.61875 4.46375 30.2375 4.1875 30.875 C3 33 3 33 0 35 C-4.23255443 35.62077465 -8.13621713 35.23255693 -12.25 34.125 C-16.83100979 30.5851288 -19.39045722 25.51900988 -20.37890625 19.8125 C-20.55546456 13.78597629 -19.29592852 8.32792029 -15.5 3.625 C-10.96311202 -1.13873238 -6.28683638 -0.48290192 0 0 Z " fill="#9EB6D2" transform="translate(310,134)"/>
<path d="M0 0 C3.01125 -0.0825 6.0225 -0.165 9.125 -0.25 C10.06230957 -0.28641602 10.99961914 -0.32283203 11.96533203 -0.36035156 C17.63039899 -0.43516182 20.67553897 0.26963425 25 4 C26.85309592 7.70619184 26.10086598 12.18441244 25.875 16.25 C24.3453737 19.30925259 22.11622175 20.84939505 19 22 C15.26202533 22.32861316 11.7657109 22.18369321 8 22 C8 25.96 8 29.92 8 34 C5.36 34 2.72 34 0 34 C0 22.78 0 11.56 0 0 Z " fill="#ACC1DC" transform="translate(325,134)"/>
<path d="M0 0 C0 0.66 0 1.32 0 2 C1.32 2.66 2.64 3.32 4 4 C4 5.32 4 6.64 4 8 C1.75 9.1875 1.75 9.1875 -1 10 C-2.35917857 9.03542166 -3.69084721 8.03145371 -5 7 C-8.16732421 6.74913276 -8.16732421 6.74913276 -11 7 C-11.33 8.32 -11.66 9.64 -12 11 C-11.195625 11.0825 -10.39125 11.165 -9.5625 11.25 C-3.49037718 12.52834165 1.43281248 14.24624254 5.625 18.9375 C7 22 7 22 6.9375 24.5625 C5.21203718 29.04870333 4.11655207 31.36509784 -0.1875 33.8125 C-5.66058839 35.51723245 -9.72846415 35.82998425 -15.25 33.8125 C-18.22806962 31.84968139 -20.02666279 29.96000581 -22 27 C-22 26.34 -22 25.68 -22 25 C-18.04 24.505 -18.04 24.505 -14 24 C-14 24.66 -14 25.32 -14 26 C-13.34 26 -12.68 26 -12 26 C-12 26.66 -12 27.32 -12 28 C-8.04 27.505 -8.04 27.505 -4 27 C-3.67 25.68 -3.34 24.36 -3 23 C-3.89203125 22.78085938 -4.7840625 22.56171875 -5.703125 22.3359375 C-16.46183731 19.42113218 -16.46183731 19.42113218 -18.8125 16.125 C-20.12328243 12.67557255 -20.6202697 10.64408449 -20 7 C-18.125 4.125 -18.125 4.125 -16 2 C-15.34 2 -14.68 2 -14 2 C-14 1.34 -14 0.68 -14 0 C-9.35601989 -1.54799337 -4.67482292 -1.49594333 0 0 Z " fill="#9EB7D3" transform="translate(374,134)"/>
<path d="M0 0 C7.92 0 15.84 0 24 0 C24 1.98 24 3.96 24 6 C18.72 6 13.44 6 8 6 C8 8.64 8 11.28 8 14 C12.29 14 16.58 14 21 14 C21 15.98 21 17.96 21 20 C16.71 20 12.42 20 8 20 C8 22.64 8 25.28 8 28 C13.28 28 18.56 28 24 28 C24 29.98 24 31.96 24 34 C16.08 34 8.16 34 0 34 C0 22.78 0 11.56 0 0 Z " fill="#9DB5D2" transform="translate(126,134)"/>
<path d="M0 0 C2.64 0 5.28 0 8 0 C11.95875982 6.78644541 12.68254855 15.37560014 14 23 C14.66 23 15.32 23 16 23 C16.09796875 22.34515625 16.1959375 21.6903125 16.296875 21.015625 C17.49191448 13.72176334 19.50174256 6.94903646 22 0 C24.31 0 26.62 0 29 0 C28.82621826 0.57540527 28.65243652 1.15081055 28.47338867 1.74365234 C26.38091194 8.69290305 24.3403491 15.65665006 22.3125 22.625 C21.83200195 24.27435547 21.83200195 24.27435547 21.34179688 25.95703125 C20.560843 28.63791769 19.78025068 31.31890883 19 34 C15.7 34 12.4 34 9 34 C7.87466745 30.12347217 6.75381356 26.24567949 5.63696289 22.36669922 C5.25698537 21.04929309 4.87581935 19.73222911 4.4934082 18.41552734 C3.94164172 16.51491842 3.39460473 14.61293852 2.84765625 12.7109375 C2.51773682 11.56931152 2.18781738 10.42768555 1.84790039 9.25146484 C1.04583106 6.17574951 0.46819224 3.14209017 0 0 Z " fill="#9EB5D0" transform="translate(154,134)"/>
<path d="M0 0 C2.64 0 5.28 0 8 0 C8 0.66 8 1.32 8 2 C8.66 2 9.32 2 10 2 C12.63998338 6.58301115 12.63397366 10.83067628 12 16 C10.5 19.625 10.5 19.625 8 22 C5.36 22 2.72 22 0 22 C0 14.74 0 7.48 0 0 Z " fill="#F2F7F9" transform="translate(102,140)"/>
<path d="M0 0 C5.61 0 11.22 0 17 0 C15 2 15 2 12.375 2.125 C11.59125 2.08375 10.8075 2.0425 10 2 C11.65 2.33 13.3 2.66 15 3 C15 3.66 15 4.32 15 5 C12.36 5 9.72 5 7 5 C7.020625 6.2375 7.04125 7.475 7.0625 8.75 C7.03720438 15.92130744 7.03720438 15.92130744 4.4375 18.625 C3.7259375 19.305625 3.7259375 19.305625 3 20 C3 20.66 3 21.32 3 22 C4.32 22 5.64 22 7 22 C7 25.63 7 29.26 7 33 C4.69 33 2.38 33 0 33 C0 22.11 0 11.22 0 0 Z " fill="#9AB0CB" transform="translate(325,135)"/>
<path d="M0 0 C2.5625 0.625 2.5625 0.625 4.875 3 C7.48541722 8.60756291 7.44064073 13.88081023 5.5625 19.75 C5.2325 20.36875 4.9025 20.9875 4.5625 21.625 C2.2525 21.955 -0.0575 22.285 -2.4375 22.625 C-5.75838139 19.1108398 -5.84262247 16.36426798 -5.8125 11.625 C-5.82023437 10.408125 -5.82796875 9.19125 -5.8359375 7.9375 C-5.31980703 3.64653295 -4.34632464 1.11444221 0 0 Z " fill="#F7F9FB" transform="translate(304.4375,139.375)"/>
<path d="M0 0 C0.99 0.33 1.98 0.66 3 1 C2.34 1 1.68 1 1 1 C1 12.22 1 23.44 1 35 C8.92 35 16.84 35 25 35 C25 35.33 25 35.66 25 36 C12.625 36.495 12.625 36.495 0 37 C-1.88343932 33.23312136 -2.22057835 31.97041037 -2 28 C-3.65 29.65 -5.3 31.3 -7 33 C-7.66 32.67 -8.32 32.34 -9 32 C-8.38125 31.29875 -7.7625 30.5975 -7.125 29.875 C-3.3717297 24.79704606 -2.86618406 21.35190169 -3.625 15.1875 C-4.29891486 9.12226626 -3.06140932 5.20308194 0 0 Z " fill="#F1FBFD" transform="translate(125,133)"/>
<path d="M0 0 C3 0.3125 3 0.3125 6 1 C7.84950777 4.69901554 7.18738051 9.26673032 6.75 13.3125 C5.63578853 15.81947581 4.37173395 16.61392172 2 18 C-1.453125 18.29296875 -1.453125 18.29296875 -5.25 18.1875 C-6.51328125 18.16042969 -7.7765625 18.13335937 -9.078125 18.10546875 C-10.04234375 18.07066406 -11.0065625 18.03585938 -12 18 C-10.68 17.01 -9.36 16.02 -8 15 C-8.66 14.34 -9.32 13.68 -10 13 C-8.88625 12.690625 -7.7725 12.38125 -6.625 12.0625 C-3.2054845 11.17673517 -3.2054845 11.17673517 -1 10 C0.35336433 7.7004039 0.35336433 7.7004039 1 5 C0.23396041 2.7142289 0.23396041 2.7142289 -1 1 C-0.67 0.67 -0.34 0.34 0 0 Z " fill="#9DB4CF" transform="translate(344,137)"/>
<path d="M0 0 C2 1 2 1 2.61230469 2.71337891 C5.83293124 21.70858561 2.34792235 40.51601084 -5 58 C-5.66 58 -6.32 58 -7 58 C-7 58.66 -7 59.32 -7 60 C-7.66 60 -8.32 60 -9 60 C-7.97198576 55.37393594 -6.17595597 51.19648651 -4 47 C-3.34 47 -2.68 47 -2 47 C-2.2475 45.88625 -2.495 44.7725 -2.75 43.625 C-3.24184467 39.89195194 -2.65408141 37.78253649 -1.03515625 34.41015625 C1.33898864 28.77091162 1.50044167 23.86422171 1.3125 17.8125 C1.29799805 16.39420898 1.29799805 16.39420898 1.28320312 14.94726562 C1.2019743 9.87929338 0.85000784 4.99638753 0 0 Z " fill="#7D94B3" transform="translate(429,133)"/>
<path d="M0 0 C0.99 0.99 1.98 1.98 3 3 C2.6875 5.6875 2.6875 5.6875 2 8 C0.35 8 -1.3 8 -3 8 C-4.41377341 10.63904371 -5.37240135 13.07120629 -6 16 C-6.78375 15.95875 -7.5675 15.9175 -8.375 15.875 C-11.16116119 15.71271266 -11.16116119 15.71271266 -13 18 C-13.16687448 20.58354218 -13.16687448 20.58354218 -13 23 C-13.66 23.33 -14.32 23.66 -15 24 C-15.66 23.34 -16.32 22.68 -17 22 C-16.34 22 -15.68 22 -15 22 C-15.33 21.34 -15.66 20.68 -16 20 C-16.99 19.67 -17.98 19.34 -19 19 C-12.73 12.73 -6.46 6.46 0 0 Z " fill="#EFF4F7" transform="translate(229,184)"/>
<path d="M0 0 C0.93423645 3.01031744 1.04449911 3.86650268 0 7 C-1.62490954 7.02698189 -3.24994633 7.04638757 -4.875 7.0625 C-5.77992188 7.07410156 -6.68484375 7.08570313 -7.6171875 7.09765625 C-10 7 -10 7 -12 6 C-11.67 6.99 -11.34 7.98 -11 9 C-9.700625 9.12375 -8.40125 9.2475 -7.0625 9.375 C-4.84765625 9.5859375 -4.84765625 9.5859375 -3 10 C-2.67 10.66 -2.34 11.32 -2 12 C-7.59731932 12.28951652 -11.1683016 12.18452849 -16 9 C-20 4.68421053 -20 4.68421053 -20 2 C-17.36 1.67 -14.72 1.34 -12 1 C-12 1.66 -12 2.32 -12 3 C-11.34 3 -10.68 3 -10 3 C-10 3.66 -10 4.32 -10 5 C-5.94914321 4.75368443 -5.94914321 4.75368443 -2 4 C-0.4100567 2.07935207 -0.4100567 2.07935207 0 0 Z " fill="#A9BACF" transform="translate(372,157)"/>
<path d="M0 0 C1.32 0 2.64 0 4 0 C4.67220351 1.93558599 5.33758077 3.87354372 6 5.8125 C6.556875 7.43091797 6.556875 7.43091797 7.125 9.08203125 C8 12 8 12 8 15 C6.68 15.99 5.36 16.98 4 18 C4 14.04 4 10.08 4 6 C3.01 6.495 3.01 6.495 2 7 C-0.88370333 7.07194869 -3.74239664 7.09291708 -6.625 7.0625 C-7.42679688 7.05798828 -8.22859375 7.05347656 -9.0546875 7.04882812 C-11.03649006 7.03703168 -13.01825433 7.01909605 -15 7 C-15 8.98 -15 10.96 -15 13 C-11.04 13 -7.08 13 -3 13 C-3 13.33 -3 13.66 -3 14 C-7.29 14 -11.58 14 -16 14 C-16 11.36 -16 8.72 -16 6 C-10.72 6 -5.44 6 0 6 C0 4.02 0 2.04 0 0 Z " fill="#DAE8F2" transform="translate(150,134)"/>
<path d="M0 0 C0.99 0 1.98 0 3 0 C2.68872484 1.58357459 2.37592711 3.16684993 2.0625 4.75 C1.88847656 5.63171875 1.71445312 6.5134375 1.53515625 7.421875 C1.22273092 8.92698974 0.88768455 10.4283494 0.49780273 11.9152832 C-0.32768708 15.37230016 -0.61435727 18.90947161 -1 22.4375 C-1.50166032 27.00339275 -2.00015944 31.50964464 -3 36 C-3.33 36 -3.66 36 -4 36 C-4.44239358 23.82598396 -3.88725387 11.66176162 0 0 Z " fill="#8D9FB8" transform="translate(45,124)"/>
<path d="M0 0 C7.59 0 15.18 0 23 0 C23 1.65 23 3.3 23 5 C17.72 5 12.44 5 7 5 C7 4.01 7 3.02 7 2 C4.69 1.67 2.38 1.34 0 1 C0 0.67 0 0.34 0 0 Z " fill="#9AB2CD" transform="translate(127,135)"/>
<path d="M0 0 C5.52212389 -0.37650845 5.52212389 -0.37650845 8.0625 1.625 C8.701875 2.07875 9.34125 2.5325 10 3 C12.65245602 2.33903214 12.65245602 2.33903214 15 1 C15.66 0.67 16.32 0.34 17 0 C16.42618522 3.32812571 15.40619252 4.69842455 13 7 C13 7.66 13 8.32 13 9 C8.2460133 7.85248597 3.62107093 6.61737483 -1 5 C-0.67 3.35 -0.34 1.7 0 0 Z " fill="#ECF5FB" transform="translate(363,140)"/>
<path d="M0 0 C1.47906892 -0.02689216 2.95827483 -0.04634621 4.4375 -0.0625 C5.26121094 -0.07410156 6.08492188 -0.08570313 6.93359375 -0.09765625 C9 0 9 0 10 1 C10.04080783 2.99958364 10.04254356 5.00045254 10 7 C6.78548731 8.60725635 3.56387464 8.05748185 0 8 C0 5.36 0 2.72 0 0 Z " fill="#F2FAFB" transform="translate(333,141)"/>
<path d="M0 0 C0.66 0 1.32 0 2 0 C1.22978576 7.44540428 1.22978576 7.44540428 -0.0390625 10.5078125 C-1.47916193 15.74134458 -1.12818552 20.85338941 -1 26.25 C-0.949141 28.42167919 -0.90702023 30.59358637 -0.875 32.765625 C-0.85179688 33.72243164 -0.82859375 34.67923828 -0.8046875 35.66503906 C-1 38 -1 38 -3 40 C-5.98188263 12.36433776 -5.98188263 12.36433776 0 0 Z " fill="#7F93AD" transform="translate(79,128)"/>
<path d="M0 0 C0.66 0 1.32 0 2 0 C3.15136852 4.60547409 3 7.93994143 3 13 C10.92 13 18.84 13 27 13 C27 13.33 27 13.66 27 14 C14.625 14.495 14.625 14.495 2 15 C0.11656068 11.23312136 -0.22057835 9.97041037 0 6 C-1.65 7.65 -3.3 9.3 -5 11 C-5.66 10.67 -6.32 10.34 -7 10 C-6.401875 9.278125 -5.80375 8.55625 -5.1875 7.8125 C-2.9647189 5.08685797 -2.9647189 5.08685797 -1.375 2.1875 C-0.694375 1.1046875 -0.694375 1.1046875 0 0 Z " fill="#E6F1F7" transform="translate(123,155)"/>
<path d="M0 0 C1.08955155 4.35820619 1.00090014 4.4428442 -1 8 C-1.36784131 9.3242287 -1.71202981 10.65613912 -2 12 C-3.11375 11.8453125 -3.11375 11.8453125 -4.25 11.6875 C-7.25072867 11.7254586 -7.25072867 11.7254586 -9.3125 14.5 C-10.1478125 15.7375 -10.1478125 15.7375 -11 17 C-11.99 16.01 -12.98 15.02 -14 14 C-9.38 9.38 -4.76 4.76 0 0 Z " fill="#EFF4F7" transform="translate(209,204)"/>
<path d="M0 0 C3.35111834 2.23407889 4.81553956 3.26215824 5.8125 7.25 C5.874375 8.1575 5.93625 9.065 6 10 C5.01 10 4.02 10 3 10 C3 8.35 3 6.7 3 5 C2.34 4.67 1.68 4.34 1 4 C1.2784375 4.928125 1.2784375 4.928125 1.5625 5.875 C2 8 2 8 1 10 C0.7724985 11.87056791 0.59037189 13.74685958 0.4375 15.625 C0.31181641 17.12933594 0.31181641 17.12933594 0.18359375 18.6640625 C0.12300781 19.43492187 0.06242187 20.20578125 0 21 C-0.66 20.67 -1.32 20.34 -2 20 C-1.98839844 19.32453125 -1.97679688 18.6490625 -1.96484375 17.953125 C-1.95582031 17.06109375 -1.94679688 16.1690625 -1.9375 15.25 C-1.92009766 13.92742187 -1.92009766 13.92742187 -1.90234375 12.578125 C-1.99173802 10.2181162 -2.33087179 8.25501476 -3 6 C-3.66 6 -4.32 6 -5 6 C-4.67 4.68 -4.34 3.36 -4 2 C-2.68 2 -1.36 2 0 2 C0 1.34 0 0.68 0 0 Z " fill="#A5BBD4" transform="translate(115,136)"/>
<path d="M0 0 C0 3 0 3 -1.125 4.5625 C-3.55673126 6.4268273 -6.10452529 7.05582346 -9 8 C-9.33 8.66 -9.66 9.32 -10 10 C-9.01 9.34 -8.02 8.68 -7 8 C-7.33 9.32 -7.66 10.64 -8 12 C-9.0725 12.144375 -10.145 12.28875 -11.25 12.4375 C-13.91662949 12.83749442 -16.41399729 13.27591924 -19 14 C-17.625 12 -17.625 12 -16 10 C-15.34 10 -14.68 10 -14 10 C-13.773125 9.4225 -13.54625 8.845 -13.3125 8.25 C-11.61949517 5.347706 -9.81853141 3.81191305 -7 2 C-4.875 2.4375 -4.875 2.4375 -3 3 C-1.22809091 1.64555699 -1.22809091 1.64555699 0 0 Z " fill="#7187A7" transform="translate(190,178)"/>
<path d="M0 0 C3.06303578 -0.08115993 6.12390815 -0.14057409 9.1875 -0.1875 C10.48397461 -0.22520508 10.48397461 -0.22520508 11.80664062 -0.26367188 C16.73038334 -0.32026662 19.96831189 -0.18027571 24 3 C23.01 3.33 22.02 3.66 21 4 C20.01 4.495 20.01 4.495 19 5 C19.66 6.65 20.32 8.3 21 10 C20.01 10.99 19.02 11.98 18 13 C17 10 16 7 15 4 C13.02 4 11.04 4 9 4 C9.66 3.34 10.32 2.68 11 2 C7.37 1.67 3.74 1.34 0 1 C0 0.67 0 0.34 0 0 Z " fill="#A6BDD3" transform="translate(325,134)"/>
<path d="M0 0 C0.33 0.66 0.66 1.32 1 2 C1.66 2 2.32 2 3 2 C3 2.66 3 3.32 3 4 C2.34 4 1.68 4 1 4 C1.24230347 4.81307617 1.24230347 4.81307617 1.48950195 5.64257812 C2.54047487 10.49585143 2.18470601 15.55464486 2.1875 20.5 C2.19974609 21.64082031 2.21199219 22.78164062 2.22460938 23.95703125 C2.22654297 25.05402344 2.22847656 26.15101563 2.23046875 27.28125 C2.23457764 28.28220703 2.23868652 29.28316406 2.24291992 30.31445312 C1.99651272 33.03855287 1.39540647 34.67443777 0 37 C-0.66 37 -1.32 37 -2 37 C-1.855625 36.30777344 -1.71125 35.61554688 -1.5625 34.90234375 C0.26820091 25.25302437 1.55826639 14.78801807 -1.125 5.1875 C-1.41375 4.135625 -1.7025 3.08375 -2 2 C-1.34 1.34 -0.68 0.68 0 0 Z " fill="#869BB4" transform="translate(396,132)"/>
<path d="M0 0 C2.97 0.495 2.97 0.495 6 1 C5.67 3.97 5.34 6.94 5 10 C4.67 10 4.34 10 4 10 C3.67 11.65 3.34 13.3 3 15 C2.34 15 1.68 15 1 15 C-0.44207941 12.11584117 -0.09394887 9.58278472 -0.0625 6.375 C-0.05347656 5.18648437 -0.04445313 3.99796875 -0.03515625 2.7734375 C-0.02355469 1.85820312 -0.01195312 0.94296875 0 0 Z " fill="#9CB5DA" transform="translate(326,136)"/>
<path d="M0 0 C0.66 1.32 1.32 2.64 2 4 C1.54625 4.4125 1.0925 4.825 0.625 5.25 C-1.0880403 6.90196931 -1.0880403 6.90196931 -1.875 9 C-3.39794115 11.70745092 -5.29591319 12.54902659 -8 14 C-8.99 14.66 -9.98 15.32 -11 16 C-11 10.00959856 -7.23888495 7.26704143 -3.25 3.1875 C-2.5075 2.465625 -1.765 1.74375 -1 1 C-0.67 0.67 -0.34 0.34 0 0 Z " fill="#7589AC" transform="translate(252,110)"/>
<path d="M0 0 C2.475 0.495 2.475 0.495 5 1 C5 1.66 5 2.32 5 3 C6.32 3.66 7.64 4.32 9 5 C9 5.99 9 6.98 9 8 C9.99 8 10.98 8 12 8 C12.33 7.67 12.66 7.34 13 7 C13.66 6.67 14.32 6.34 15 6 C15.33 9.3 15.66 12.6 16 16 C10.35573231 11.31645873 4.9941954 6.3792354 0 1 C0 0.67 0 0.34 0 0 Z " fill="#8299B8" transform="translate(260,199)"/>
<path d="M0 0 C3.54159657 -0.05841253 7.08306793 -0.09373452 10.625 -0.125 C11.62402344 -0.14175781 12.62304688 -0.15851562 13.65234375 -0.17578125 C18.84088709 -0.21014246 23.14923649 -0.10254937 28 2 C28 2.33 28 2.66 28 3 C14.14 2.505 14.14 2.505 0 2 C0 1.34 0 0.68 0 0 Z " fill="#5D728D" transform="translate(122,60)"/>
<path d="M0 0 C7.05518656 4.8417947 12.1582053 9.94481344 17 17 C15.35 16.67 13.7 16.34 12 16 C11.67 15.01 11.34 14.02 11 13 C8.94867342 11.3243242 8.94867342 11.3243242 6.5 9.8125 C5.6853125 9.28269531 4.870625 8.75289062 4.03125 8.20703125 C2.25052385 6.91485928 2.25052385 6.91485928 1 7 C0.67 4.69 0.34 2.38 0 0 Z " fill="#7F95B3" transform="translate(397,79)"/>
<path d="M0 0 C0.8125 1.6875 0.8125 1.6875 1 4 C-0.64429829 5.68873879 -2.31384218 7.35305515 -4 9 C-5.33563611 12.16701423 -5.33563611 12.16701423 -6 15 C-6.99 14.67 -7.98 14.34 -9 14 C-9 13.34 -9 12.68 -9 12 C-9.66 11.67 -10.32 11.34 -11 11 C-9.88121617 9.82737096 -8.75476949 8.66204862 -7.625 7.5 C-6.68527344 6.52546875 -6.68527344 6.52546875 -5.7265625 5.53125 C-4 4 -4 4 -2 4 C-1.34 2.68 -0.68 1.36 0 0 Z " fill="#EEF0F3" transform="translate(297,116)"/>
<path d="M0 0 C-1.28965176 1.37562854 -2.62689293 2.70766393 -4 4 C-4.66 4 -5.32 4 -6 4 C-6.25523438 4.56203125 -6.51046875 5.1240625 -6.7734375 5.703125 C-8.15692781 8.29386482 -9.79938583 10.45107845 -11.625 12.75 C-12.57246094 13.94882813 -12.57246094 13.94882813 -13.5390625 15.171875 C-14.02117187 15.77515625 -14.50328125 16.3784375 -15 17 C-16.53445094 13.93109813 -15.54984289 11.29905734 -15 8 C-13.35 7.67 -11.7 7.34 -10 7 C-10 6.34 -10 5.68 -10 5 C-9.34 5 -8.68 5 -8 5 C-8 4.34 -8 3.68 -8 3 C-5.65966534 -0.20256322 -3.8395009 -0.31131088 0 0 Z " fill="#7F96B4" transform="translate(100,106)"/>
<path d="M0 0 C0.66 0.99 1.32 1.98 2 3 C2.66 3 3.32 3 4 3 C4.33 2.34 4.66 1.68 5 1 C6.31223496 4.93670488 5.24296256 7.12488144 4 11 C4.66 11 5.32 11 6 11 C5.67 11.66 5.34 12.32 5 13 C2.33333333 10.33333333 -0.33333333 7.66666667 -3 5 C-1.125 1.125 -1.125 1.125 0 0 Z " fill="#EEF5F8" transform="translate(266,147)"/>
<path d="M0 0 C0.66 0.33 1.32 0.66 2 1 C1.505 2.11375 1.01 3.2275 0.5 4.375 C-1.1274506 7.65415749 -1.1274506 7.65415749 -1 10 C-1.66 10 -2.32 10 -3 10 C-3 15.61 -3 21.22 -3 27 C-2.01 27.33 -1.02 27.66 0 28 C-1.32 28 -2.64 28 -4 28 C-4.11591764 23.89606988 -4.18715601 19.79255894 -4.25 15.6875 C-4.28351563 14.52025391 -4.31703125 13.35300781 -4.3515625 12.15039062 C-4.36445312 11.03212891 -4.37734375 9.91386719 -4.390625 8.76171875 C-4.41157227 7.73006592 -4.43251953 6.69841309 -4.45410156 5.63549805 C-4 3 -4 3 -1.97558594 1.13989258 C-1.32364258 0.76372803 -0.67169922 0.38756348 0 0 Z " fill="#5B759A" transform="translate(80,76)"/>
<path d="M0 0 C3.62493334 -0.05787784 7.24974857 -0.0935542 10.875 -0.125 C11.90753906 -0.14175781 12.94007813 -0.15851562 14.00390625 -0.17578125 C14.99003906 -0.18222656 15.97617187 -0.18867187 16.9921875 -0.1953125 C18.35899658 -0.21102295 18.35899658 -0.21102295 19.75341797 -0.22705078 C22 0 22 0 24 2 C18.74918443 3.14702282 13.93483462 2.93088566 8.625 2.5625 C7.79355469 2.51029297 6.96210938 2.45808594 6.10546875 2.40429688 C4.06991892 2.27561269 2.03489559 2.13864593 0 2 C0 1.34 0 0.68 0 0 Z " fill="#5E738D" transform="translate(330,60)"/>
<path d="M0 0 C0.99 0.66 1.98 1.32 3 2 C0.9627797 2.98838433 -1.07999607 3.96532252 -3.125 4.9375 C-4.83042969 5.75541016 -4.83042969 5.75541016 -6.5703125 6.58984375 C-9.78186661 7.9103119 -12.56709079 8.58784221 -16 9 C-16 8.34 -16 7.68 -16 7 C-15.34 7 -14.68 7 -14 7 C-14 6.34 -14 5.68 -14 5 C-12.4188708 4.49307308 -10.83498617 3.99473557 -9.25 3.5 C-8.36828125 3.2215625 -7.4865625 2.943125 -6.578125 2.65625 C-4 2 -4 2 0 2 C0 1.34 0 0.68 0 0 Z " fill="#566685" transform="translate(384,229)"/>
<path d="M0 0 C4.88049925 3.9419417 9.0580583 8.11950075 13 13 C10 13 10 13 7 11 C7 10.34 7 9.68 7 9 C6.01 9 5.02 9 4 9 C4 8.34 4 7.68 4 7 C3.34 7 2.68 7 2 7 C2 6.01 2 5.02 2 4 C1.34 4 0.68 4 0 4 C0 2.68 0 1.36 0 0 Z " fill="#879CB4" transform="translate(288,177)"/>
<path d="M0 0 C0.33 0 0.66 0 1 0 C1.66 6.6 2.32 13.2 3 20 C2.01 20.66 1.02 21.32 0 22 C-1.53380048 14.71444771 -1.53380048 7.28555229 0 0 Z " fill="#8096B1" transform="translate(43,149)"/>
<path d="M0 0 C0.99 0.33 1.98 0.66 3 1 C2.01 4.96 1.02 8.92 0 13 C-0.99 13 -1.98 13 -3 13 C-3.6875 9.6875 -3.6875 9.6875 -4 6 C-2.625 4.25 -2.625 4.25 -1 3 C-0.67 2.01 -0.34 1.02 0 0 Z " fill="#F0F9F9" transform="translate(44,117)"/>
<path d="M0 0 C0.66 0 1.32 0 2 0 C4.64147501 5.28295002 3.84520913 14.18523604 3 20 C1.34497455 23.3920784 -0.00141651 24.6261214 -3 27 C-3.99 26.67 -4.98 26.34 -6 26 C-4.71034824 24.62437146 -3.37310707 23.29233607 -2 22 C-1.34 22 -0.68 22 0 22 C1.27831175 14.96928537 2.28289063 6.84867189 0 0 Z " fill="#E4EEF7" transform="translate(317,141)"/>
<path d="M0 0 C0.66 0.33 1.32 0.66 2 1 C1.01 2.485 1.01 2.485 0 4 C0.33 4.99 0.66 5.98 1 7 C0.34 7 -0.32 7 -1 7 C-1.28875 7.598125 -1.5775 8.19625 -1.875 8.8125 C-3 11 -3 11 -5 14 C-6.32 13.67 -7.64 13.34 -9 13 C-6.03 8.71 -3.06 4.42 0 0 Z " fill="#849BB2" transform="translate(62,92)"/>
<path d="M0 0 C2.31 0 4.62 0 7 0 C7 0.66 7 1.32 7 2 C8.98 1.67 10.96 1.34 13 1 C13.33 2.32 13.66 3.64 14 5 C13.01 5.66 12.02 6.32 11 7 C7.37 5.02 3.74 3.04 0 1 C0 0.67 0 0.34 0 0 Z " fill="#596C88" transform="translate(152,98)"/>
<path d="M0 0 C4.95 0 9.9 0 15 0 C14.67 1.32 14.34 2.64 14 4 C10.30962722 5.37095624 8.29116165 4.60010967 4.75 3.0625 C3.85796875 2.68222656 2.9659375 2.30195312 2.046875 1.91015625 C1.37140625 1.60980469 0.6959375 1.30945313 0 1 C0 0.67 0 0.34 0 0 Z " fill="#F2FBF6" transform="translate(370,64)"/>
<path d="M0 0 C-0.99 1.485 -0.99 1.485 -2 3 C-1.01 3.33 -0.02 3.66 1 4 C-0.41433206 4.2236337 -1.83167618 4.42826476 -3.25 4.625 C-4.03890625 4.74101563 -4.8278125 4.85703125 -5.640625 4.9765625 C-8.32152459 5.00319395 -9.72694089 4.36592084 -12 3 C-8.61613364 -0.38386636 -4.56431325 -1.75550509 0 0 Z " fill="#E9F1F5" transform="translate(122,98)"/>
<path d="M0 0 C0.66 0 1.32 0 2 0 C2.33 2.97 2.66 5.94 3 9 C1.68 9.33 0.36 9.66 -1 10 C-1 9.01 -1 8.02 -1 7 C-1.99 7.66 -2.98 8.32 -4 9 C-4 4.32409833 -3.11997802 3.30350614 0 0 Z " fill="#839EC1" transform="translate(69,85)"/>
<path d="M0 0 C0.33 1.32 0.66 2.64 1 4 C0.01 4.33 -0.98 4.66 -2 5 C-1.79375 5.9075 -1.5875 6.815 -1.375 7.75 C-0.97850801 11.1862639 -1.08513559 12.22344661 -3 15 C-4.625 16.75 -4.625 16.75 -6 18 C-4.18181818 4.18181818 -4.18181818 4.18181818 0 0 Z " fill="#EDF6FB" transform="translate(182,140)"/>
<path d="M0 0 C2.31 1.98 4.62 3.96 7 6 C5.02 6.99 5.02 6.99 3 8 C3 7.01 3 6.02 3 5 C0.69 5.33 -1.62 5.66 -4 6 C-4 4.68 -4 3.36 -4 2 C-2.68 2 -1.36 2 0 2 C0 1.34 0 0.68 0 0 Z " fill="#7994BB" transform="translate(205,94)"/>
<path d="M0 0 C1.66666667 1.66666667 3.33333333 3.33333333 5 5 C5.8971875 5.8353125 5.8971875 5.8353125 6.8125 6.6875 C8 8 8 8 8 10 C5.69 10 3.38 10 1 10 C1.020625 8.906875 1.04125 7.81375 1.0625 6.6875 C1.18544452 3.05615809 1.18544452 3.05615809 0 0 Z " fill="#546E8C" transform="translate(197,86)"/>
<path d="M0 0 C3.16115776 1.36983503 3.9927092 1.9890638 6 5 C4.68 5 3.36 5 2 5 C1.67 10.94 1.34 16.88 1 23 C0.67 23 0.34 23 0 23 C-0.19588601 19.3545658 -0.38030536 15.7086421 -0.5625 12.0625 C-0.61857422 11.02158203 -0.67464844 9.98066406 -0.73242188 8.90820312 C-0.78076172 7.91884766 -0.82910156 6.92949219 -0.87890625 5.91015625 C-0.9260376 4.99371338 -0.97316895 4.07727051 -1.02172852 3.13305664 C-1 1 -1 1 0 0 Z " fill="#58759D" transform="translate(91,189)"/>
<path d="M0 0 C0 2.31 0 4.62 0 7 C-0.99 7.33 -1.98 7.66 -3 8 C-3.33 7.34 -3.66 6.68 -4 6 C-5.98 6.99 -5.98 6.99 -8 8 C-8.66 7.34 -9.32 6.68 -10 6 C-8.71283353 4.99421411 -7.42011342 3.99553202 -6.125 3 C-5.40570313 2.443125 -4.68640625 1.88625 -3.9453125 1.3125 C-2 0 -2 0 0 0 Z " fill="#576E8C" transform="translate(383,190)"/>
<path d="M0 0 C4 2 4 2 5 4 C1.14243493 6.15305957 -1.55129785 7.39253254 -6 7 C-4.02 4.69 -2.04 2.38 0 0 Z " fill="#E8F2F9" transform="translate(236,177)"/>
<path d="M0 0 C3.96 0.33 7.92 0.66 12 1 C12 1.99 12 2.98 12 4 C8.37 4 4.74 4 1 4 C0.67 2.68 0.34 1.36 0 0 Z " fill="#93B8E1" transform="translate(360,163)"/>
<path d="M0 0 C-1.30745749 1.68704193 -2.64172029 3.35360035 -4 5 C-4.33 5 -4.66 5 -5 5 C-5.33 7.97 -5.66 10.94 -6 14 C-6.66 14 -7.32 14 -8 14 C-7.98839844 13.31292969 -7.97679687 12.62585938 -7.96484375 11.91796875 C-7.95582031 11.01691406 -7.94679688 10.11585938 -7.9375 9.1875 C-7.92589844 8.29417969 -7.91429687 7.40085938 -7.90234375 6.48046875 C-7.88990033 3.86586209 -7.88990033 3.86586209 -9 1 C-6.04335481 -0.4783226 -3.25770263 -0.06032783 0 0 Z " fill="#E6F4FB" transform="translate(358,136)"/>
<path d="M0 0 C0 3.65351863 -0.88942301 5.06026776 -3 8 C-5.1875 9.3125 -5.1875 9.3125 -7 10 C-7.99 9.34 -8.98 8.68 -10 8 C-8.71064081 6.85157077 -7.41843421 5.70633773 -6.125 4.5625 C-5.04605469 3.60537109 -5.04605469 3.60537109 -3.9453125 2.62890625 C-2 1 -2 1 0 0 Z M-12 9 C-10 10 -10 10 -10 10 Z " fill="#E7F0F6" transform="translate(314,102)"/>
<path d="M0 0 C4.62 0 9.24 0 14 0 C14 0.99 14 1.98 14 3 C4.58997722 3.3690205 4.58997722 3.3690205 0 1 C0 0.67 0 0.34 0 0 Z " fill="#A6B6CA" transform="translate(95,134)"/>
<path d="M0 0 C0.66 0.33 1.32 0.66 2 1 C2 1.66 2 2.32 2 3 C0.10787298 3.53414112 -1.78891636 4.05178329 -3.6875 4.5625 C-4.74324219 4.85253906 -5.79898438 5.14257812 -6.88671875 5.44140625 C-10.00695382 6.00124767 -11.97693234 5.84690764 -15 5 C-15 4.67 -15 4.34 -15 4 C-14.08476562 3.79503906 -13.16953125 3.59007812 -12.2265625 3.37890625 C-11.03804687 3.10949219 -9.84953125 2.84007812 -8.625 2.5625 C-6.84996094 2.16224609 -6.84996094 2.16224609 -5.0390625 1.75390625 C-2.10505419 1.14365305 -2.10505419 1.14365305 0 0 Z " fill="#637590" transform="translate(154,202)"/>
<path d="M0 0 C0.99 0.33 1.98 0.66 3 1 C1.49776416 5.20626034 -1.28550034 6.73900021 -5 9 C-5.33 8.01 -5.66 7.02 -6 6 C-5.67 5.34 -5.34 4.68 -5 4 C-4.34 4 -3.68 4 -3 4 C-3 3.34 -3 2.68 -3 2 C-2.01 1.34 -1.02 0.68 0 0 Z " fill="#EBF6F8" transform="translate(254,104)"/>
<path d="M0 0 C2.4375 1 2.4375 1 4 2 C3.01 3.32 2.02 4.64 1 6 C1.66 6.66 2.32 7.32 3 8 C2.01 8.495 2.01 8.495 1 9 C0.34 8.67 -0.32 8.34 -1 8 C-2.26229508 3.52459016 -2.26229508 3.52459016 -1 1 C-5.455 1.495 -5.455 1.495 -10 2 C-6.29873141 -0.46751239 -4.37776468 -0.30721156 0 0 Z " fill="#B6C7DB" transform="translate(370,133)"/>
<path d="M0 0 C4.39642348 0.5024484 6.7948982 1.97295941 10 5 C10.33 5.99 10.66 6.98 11 8 C6.38486888 6.68139111 2.90102388 4.78644563 -1 2 C-0.67 1.34 -0.34 0.68 0 0 Z " fill="#576A84" transform="translate(364,98)"/>
<path d="M0 0 C3.3 0 6.6 0 10 0 C10 0.99 10 1.98 10 3 C9.34 3 8.68 3 8 3 C8 3.66 8 4.32 8 5 C5.03 4.01 2.06 3.02 -1 2 C-0.67 1.34 -0.34 0.68 0 0 Z " fill="#E7F2F2" transform="translate(165,64)"/>
<path d="M0 0 C5.97873264 0.90060764 5.97873264 0.90060764 7.08984375 2.01171875 C9.41802339 2.37932606 11.75168225 2.71413456 14.08984375 3.01171875 C11.39610377 4.84346193 10.08685705 5.01149334 6.77734375 4.76171875 C3.12585923 4.01904393 -0.35000548 3.10156082 -3.91015625 2.01171875 C-1.91015625 0.01171875 -1.91015625 0.01171875 0 0 Z " fill="#5F728E" transform="translate(105.91015625,235.98828125)"/>
<path d="M0 0 C4.18343269 0.59763324 8.12034244 1.28573271 12 3 C12.875 5.125 12.875 5.125 13 7 C9.34899606 7 7.89878202 5.9552415 4.8125 4.0625 C3.46091797 3.24458984 3.46091797 3.24458984 2.08203125 2.41015625 C1.39496094 1.94480469 0.70789063 1.47945313 0 1 C0 0.67 0 0.34 0 0 Z " fill="#E4F0F5" transform="translate(387,72)"/>
<path d="M0 0 C0 2 0 2 -1.25 3.5625 C-3.23448066 5.19260911 -4.44757898 5.76071053 -7 6 C-7.99 5.34 -8.98 4.68 -10 4 C-9.34 4 -8.68 4 -8 4 C-8 2.68 -8 1.36 -8 0 C-4.94736336 -0.98120464 -3.05263664 -0.98120464 0 0 Z " fill="#5B779B" transform="translate(320,233)"/>
<path d="M0 0 C0.66 0.33 1.32 0.66 2 1 C1.34 1.61875 0.68 2.2375 0 2.875 C-2.2284549 4.75637427 -2.2284549 4.75637427 -2 7 C-5.80504787 8.79682816 -6.70600835 9.07349791 -11 8 C-7.37 5.36 -3.74 2.72 0 0 Z " fill="#E0EDF2" transform="translate(191,221)"/>
<path d="M0 0 C-1.40301147 3.18673962 -3.07765071 5.32221406 -5.5625 7.75 C-6.49255859 8.67039063 -6.49255859 8.67039063 -7.44140625 9.609375 C-9 11 -9 11 -10 11 C-10 9.35 -10 7.7 -10 6 C-9.34 5.67 -8.68 5.34 -8 5 C-7.34 4.34 -6.68 3.68 -6 3 C-3.89377581 0.89377581 -2.98199855 0 0 0 Z " fill="#7083A0" transform="translate(221,191)"/>
<path d="M0 0 C0.93423645 3.01031744 1.04449911 3.86650268 0 7 C-3.3 7 -6.6 7 -10 7 C-10.33 5.68 -10.66 4.36 -11 3 C-10.67 3.66 -10.34 4.32 -10 5 C-5.94914321 4.75368443 -5.94914321 4.75368443 -2 4 C-0.4100567 2.07935207 -0.4100567 2.07935207 0 0 Z " fill="#AEBED4" transform="translate(372,157)"/>
<path d="M0 0 C2.31 1.98 4.62 3.96 7 6 C6.67 6.66 6.34 7.32 6 8 C3.36 7.67 0.72 7.34 -2 7 C-1.67 6.21625 -1.34 5.4325 -1 4.625 C0.11866511 2.15667503 0.11866511 2.15667503 0 0 Z " fill="#849DB7" transform="translate(214,103)"/>
<path d="M0 0 C0 3 0 3 -1.125 4.625 C-3.70335103 6.51579075 -5.83987005 6.79828958 -9 7 C-9.66 6.34 -10.32 5.68 -11 5 C-9.25 3.4375 -9.25 3.4375 -7 2 C-5.66431979 2.32380126 -4.33076989 2.65657551 -3 3 C-1.22809091 1.64555699 -1.22809091 1.64555699 0 0 Z " fill="#7688B3" transform="translate(190,178)"/>
<path d="M0 0 C0.66 0.66 1.32 1.32 2 2 C1.625 4.625 1.625 4.625 1 7 C0.01 7 -0.98 7 -2 7 C-2.33 7.99 -2.66 8.98 -3 10 C-3.99 8.02 -4.98 6.04 -6 4 C-4.68 4.33 -3.36 4.66 -2 5 C-1.34 3.35 -0.68 1.7 0 0 Z " fill="#A6BDD9" transform="translate(313,136)"/>
<path d="M0 0 C2.31 0 4.62 0 7 0 C6.67 0.99 6.34 1.98 6 3 C5.01 2.67 4.02 2.34 3 2 C2.87625 2.639375 2.7525 3.27875 2.625 3.9375 C2.41875 4.618125 2.2125 5.29875 2 6 C1.01 6.495 1.01 6.495 0 7 C-1.125 2.25 -1.125 2.25 0 0 Z " fill="#A7B8CF" transform="translate(176,134)"/>
<path d="M0 0 C0.66 0 1.32 0 2 0 C1.7834375 0.8353125 1.7834375 0.8353125 1.5625 1.6875 C1.1694125 3.30352638 0.81850994 4.93013655 0.5 6.5625 C0 9 0 9 -1 12 C-1.99 12 -2.98 12 -4 12 C-3.45660208 7.43545749 -2.20536179 4.0271824 0 0 Z " fill="#EDF4F9" transform="translate(84,124)"/>
<path d="M0 0 C0.71929687 0.29003906 1.43859375 0.58007812 2.1796875 0.87890625 C2.90414062 1.16636719 3.62859375 1.45382813 4.375 1.75 C4.92929688 1.97816406 5.48359375 2.20632812 6.0546875 2.44140625 C3.29544565 4.24552592 2.16496647 4.45413075 -1.1953125 4.06640625 C-2.1028125 3.86015625 -3.0103125 3.65390625 -3.9453125 3.44140625 C-3.9453125 2.45140625 -3.9453125 1.46140625 -3.9453125 0.44140625 C-1.9453125 -0.55859375 -1.9453125 -0.55859375 0 0 Z " fill="#536A85" transform="translate(111.9453125,202.55859375)"/>
<path d="M0 0 C3.63 0.33 7.26 0.66 11 1 C11 1.33 11 1.66 11 2 C6.64667264 2.84023188 2.55557481 3.10770995 -1.875 3.0625 C-3.02742188 3.05347656 -4.17984375 3.04445312 -5.3671875 3.03515625 C-6.23601562 3.02355469 -7.10484375 3.01195312 -8 3 C-8 2.67 -8 2.34 -8 2 C-5.36 1.67 -2.72 1.34 0 1 C0 0.67 0 0.34 0 0 Z " fill="#D6E3EB" transform="translate(342,204)"/>
<path d="M0 0 C4 0 4 0 7 2 C2.05 4.97 2.05 4.97 -3 8 C-2.34 6.35 -1.68 4.7 -1 3 C-0.67 2.01 -0.34 1.02 0 0 Z " fill="#ECF4F6" transform="translate(369,193)"/>
<path d="M0 0 C0.763125 0.515625 1.52625 1.03125 2.3125 1.5625 C3.199375 2.036875 4.08625 2.51125 5 3 C5.99 2.67 6.98 2.34 8 2 C8.66 3.98 9.32 5.96 10 8 C5.89041233 6.54955729 2.56741255 4.48889248 -1 2 C-0.67 1.34 -0.34 0.68 0 0 Z " fill="#DDE9F0" transform="translate(100,194)"/>
<path d="M0 0 C0.66 0 1.32 0 2 0 C2 2.64 2 5.28 2 8 C1.01 8.33 0.02 8.66 -1 9 C-1.625 5.625 -1.625 5.625 -2 2 C-1.34 1.34 -0.68 0.68 0 0 Z " fill="#9BB4DE" transform="translate(328,157)"/>
<path d="M0 0 C2.64 0 5.28 0 8 0 C8 1.32 8 2.64 8 4 C5.36 4.66 2.72 5.32 0 6 C0.66 4.35 1.32 2.7 2 1 C1.34 0.67 0.68 0.34 0 0 Z " fill="#99AFDC" transform="translate(297,136)"/>
<path d="M0 0 C0.33 0.66 0.66 1.32 1 2 C1.66 2 2.32 2 3 2 C3.625 4.875 3.625 4.875 4 8 C3.34 8.66 2.68 9.32 2 10 C-2 3.25 -2 3.25 -2 1 C-1.34 0.67 -0.68 0.34 0 0 Z " fill="#8399B4" transform="translate(391,121)"/>
<path d="M0 0 C0.66 0.33 1.32 0.66 2 1 C-5.25 8.25 -5.25 8.25 -11 10 C-9.73459948 6.20379845 -8.21781569 5.51321812 -4.9375 3.3125 C-4.01839844 2.68988281 -3.09929687 2.06726563 -2.15234375 1.42578125 C-1.44207031 0.95527344 -0.73179688 0.48476562 0 0 Z " fill="#DEEBF5" transform="translate(104,103)"/>
<path d="M0 0 C0.33 0 0.66 0 1 0 C1 1.65 1 3.3 1 5 C0.01 5.33 -0.98 5.66 -2 6 C-1.67 7.65 -1.34 9.3 -1 11 C-2.32 11 -3.64 11 -5 11 C-3.77782954 6.95743617 -2.37245704 3.50711041 0 0 Z " fill="#8093B2" transform="translate(393,172)"/>
<path d="M0 0 C2.64 0 5.28 0 8 0 C8.33 0.99 8.66 1.98 9 3 C6.625 4.0625 6.625 4.0625 4 5 C3.34 4.67 2.68 4.34 2 4 C2 3.34 2 2.68 2 2 C1.34 2 0.68 2 0 2 C0 1.34 0 0.68 0 0 Z " fill="#E7F2F6" transform="translate(232,120)"/>
<path d="M0 0 C1.98 0.66 3.96 1.32 6 2 C6.33 3.98 6.66 5.96 7 8 C5.68 7.34 4.36 6.68 3 6 C3 5.34 3 4.68 3 4 C1.68 3.34 0.36 2.68 -1 2 C-0.67 1.34 -0.34 0.68 0 0 Z " fill="#E9F1F7" transform="translate(401,80)"/>
<path d="M0 0 C-3.01447835 2.57075841 -5.35979771 3.52207066 -9.25 4.1875 C-10.58804688 4.42533203 -10.58804688 4.42533203 -11.953125 4.66796875 C-12.96632812 4.83232422 -12.96632812 4.83232422 -14 5 C-13.67 4.34 -13.34 3.68 -13 3 C-9.9375 2.375 -9.9375 2.375 -7 2 C-7 1.34 -7 0.68 -7 0 C-3.98968256 -0.93423645 -3.13349732 -1.04449911 0 0 Z " fill="#E4F0F6" transform="translate(156,201)"/>
<path d="M0 0 C0.66 0.66 1.32 1.32 2 2 C-2.75 6 -2.75 6 -5 6 C-5 6.66 -5 7.32 -5 8 C-5.66 8 -6.32 8 -7 8 C-7 6.68 -7 5.36 -7 4 C-4.69 2.68 -2.38 1.36 0 0 Z " fill="#5E728E" transform="translate(372,197)"/>
<path d="M0 0 C0.99 0.33 1.98 0.66 3 1 C3 4.63 3 8.26 3 12 C2.67 12 2.34 12 2 12 C2 10.35 2 8.7 2 7 C1.34 7 0.68 7 0 7 C-0.33 8.32 -0.66 9.64 -1 11 C-0.67 7.37 -0.34 3.74 0 0 Z " fill="#90B3D3" transform="translate(116,140)"/>
<path d="M0 0 C0.99 0.33 1.98 0.66 3 1 C2.625 2.9375 2.625 2.9375 2 5 C1.01 5.495 1.01 5.495 0 6 C0.33 6.66 0.66 7.32 1 8 C-0.32 7.67 -1.64 7.34 -3 7 C-3 5.02 -3 3.04 -3 1 C-2.01 1.495 -2.01 1.495 -1 2 C-0.67 1.34 -0.34 0.68 0 0 Z " fill="#9AB0C9" transform="translate(358,142)"/>
<path d="M0 0 C2.56616632 3.84924948 2.55097676 6.4349304 3 11 C2.01 11.66 1.02 12.32 0 13 C-0.19466332 11.20909747 -0.38051213 9.41723495 -0.5625 7.625 C-0.66691406 6.62726563 -0.77132813 5.62953125 -0.87890625 4.6015625 C-1 2 -1 2 0 0 Z " fill="#92A1BA" transform="translate(428,123)"/>
<path d="M0 0 C0 0.66 0 1.32 0 2 C0.99 2.33 1.98 2.66 3 3 C-2.625 5 -2.625 5 -6 5 C-6.33 4.01 -6.66 3.02 -7 2 C-2.25 0 -2.25 0 0 0 Z " fill="#5E6F92" transform="translate(314,64)"/>
<path d="M0 0 C0.33 0 0.66 0 1 0 C0.88529863 1.75070517 0.75780972 3.50057536 0.625 5.25 C0.55539062 6.22453125 0.48578125 7.1990625 0.4140625 8.203125 C0.01534751 10.89633189 -0.63507063 12.66963279 -2 15 C-2.66 15 -3.32 15 -4 15 C-3.52229477 13.06213915 -3.04278429 11.12472326 -2.5625 9.1875 C-2.29566406 8.10855469 -2.02882813 7.02960938 -1.75390625 5.91796875 C-1.23922588 3.9259157 -0.65062825 1.95188476 0 0 Z " fill="#E1EAF5" transform="translate(430,171)"/>
<path d="M0 0 C0.99 0 1.98 0 3 0 C3 1.98 3 3.96 3 6 C-1.29 6 -5.58 6 -10 6 C-10 5.67 -10 5.34 -10 5 C-6.7 4.67 -3.4 4.34 0 4 C0 2.68 0 1.36 0 0 Z " fill="#A5B4CE" transform="translate(144,148)"/>
<path d="M0 0 C0.66 0 1.32 0 2 0 C2 0.66 2 1.32 2 2 C2.99 2 3.98 2 5 2 C5 3.32 5 4.64 5 6 C7.31 6 9.62 6 12 6 C12 6.33 12 6.66 12 7 C9.36 7 6.72 7 4 7 C3.67 6.01 3.34 5.02 3 4 C0.99983534 2.79117904 0.99983534 2.79117904 -1 2 C-0.67 1.34 -0.34 0.68 0 0 Z " fill="#51719B" transform="translate(371,99)"/>
<path d="M0 0 C0.66 0.66 1.32 1.32 2 2 C-0.97 3.65 -3.94 5.3 -7 7 C-7.33 6.01 -7.66 5.02 -8 4 C-5.53721199 1.53721199 -3.29323018 1.00228745 0 0 Z " fill="#E7F2F8" transform="translate(83,72)"/>
<path d="M0 0 C3 1 3 1 4.1875 3.0625 C4.455625 3.701875 4.72375 4.34125 5 5 C3.25 5.6875 3.25 5.6875 1 6 C-1.25 4.5625 -1.25 4.5625 -3 3 C-2.01 2.01 -1.02 1.02 0 0 Z " fill="#5C7397" transform="translate(298,227)"/>
<path d="M0 0 C0.33 0.66 0.66 1.32 1 2 C1.66 2 2.32 2 3 2 C3.66 4.97 4.32 7.94 5 11 C4.01 11.495 4.01 11.495 3 12 C2.49166409 10.75336669 1.99368855 9.50250613 1.5 8.25 C1.2215625 7.55390625 0.943125 6.8578125 0.65625 6.140625 C0 4 0 4 0 0 Z " fill="#8597B5" transform="translate(45,174)"/>
<path d="M0 0 C1.2065625 0.0309375 1.2065625 0.0309375 2.4375 0.0625 C2.4375 1.7125 2.4375 3.3625 2.4375 5.0625 C0.7875 5.0625 -0.8625 5.0625 -2.5625 5.0625 C-3.125 3.125 -3.125 3.125 -3.5625 1.0625 C-2.5625 0.0625 -2.5625 0.0625 0 0 Z " fill="#9AB0CA" transform="translate(366.5625,133.9375)"/>
<path d="M0 0 C0.66 0.33 1.32 0.66 2 1 C1.34 2.98 0.68 4.96 0 7 C-0.66 7 -1.32 7 -2 7 C-2 7.66 -2 8.32 -2 9 C-2.66 9 -3.32 9 -4 9 C-4.25 6.75 -4.25 6.75 -4 4 C-2 1.6875 -2 1.6875 0 0 Z " fill="#4A6687" transform="translate(278,85)"/>
<path d="M0 0 C0.66 0.66 1.32 1.32 2 2 C0.25 4 0.25 4 -2 6 C-3.32 6 -4.64 6 -6 6 C-6 5.34 -6 4.68 -6 4 C-5.34 4 -4.68 4 -4 4 C-4 3.34 -4 2.68 -4 2 C-4.66 1.67 -5.32 1.34 -6 1 C-4.7934375 1.0309375 -4.7934375 1.0309375 -3.5625 1.0625 C-1.06645115 1.29633621 -1.06645115 1.29633621 0 0 Z " fill="#EBF6F9" transform="translate(175,184)"/>
<path d="M0 0 C0 0.66 0 1.32 0 2 C-2.39456443 4.39456443 -3.65807308 4.75546876 -7 5 C-8.8125 3.5625 -8.8125 3.5625 -10 2 C-6.38026598 0.68373308 -3.90432869 0 0 0 Z " fill="#DCE4EE" transform="translate(334,96)"/>
<path d="M0 0 C0.99 0.66 1.98 1.32 3 2 C-2.445 4.475 -2.445 4.475 -8 7 C-8.33 6.34 -8.66 5.68 -9 5 C-5.55930376 2.70620251 -4.27709699 2 0 2 C0 1.34 0 0.68 0 0 Z " fill="#61738B" transform="translate(384,229)"/>
<path d="M0 0 C1.65 1.65 3.3 3.3 5 5 C2 7 2 7 -1 7 C-0.67 4.69 -0.34 2.38 0 0 Z " fill="#EEF2F5" transform="translate(68,216)"/>
<path d="M0 0 C1.875 0.1875 1.875 0.1875 4 1 C5.52164099 3.89111788 6 5.71823412 6 9 C3.69 6.69 1.38 4.38 -1 2 C-0.67 1.34 -0.34 0.68 0 0 Z " fill="#839BB8" transform="translate(251,188)"/>
<path d="M0 0 C4.6875 3.61328125 4.6875 3.61328125 6 5 C6 8 6 8 5 10 C0 4.5 0 4.5 0 0 Z " fill="#EEF2F4" transform="translate(198,138)"/>
<path d="M0 0 C1.32 0.66 2.64 1.32 4 2 C3.34 3.65 2.68 5.3 2 7 C0.68 5.68 -0.64 4.36 -2 3 C-1.34 2.01 -0.68 1.02 0 0 Z " fill="#F0F4F7" transform="translate(228,112)"/>
<path d="M0 0 C0.66 0.33 1.32 0.66 2 1 C1.34 2.98 0.68 4.96 0 7 C-1.65 7 -3.3 7 -5 7 C-4.60196439 4.11424181 -4.20990931 3.17810487 -1.9375 1.25 C-1.298125 0.8375 -0.65875 0.425 0 0 Z " fill="#6C7EA1" transform="translate(257,106)"/>
<path d="M0 0 C0 0.66 0 1.32 0 2 C-0.66 2 -1.32 2 -2 2 C-2 2.99 -2 3.98 -2 5 C-4.97 4.505 -4.97 4.505 -8 4 C-8 3.34 -8 2.68 -8 2 C-2.25 0 -2.25 0 0 0 Z " fill="#556A87" transform="translate(114,62)"/>
<path d="M0 0 C1.5 1.3125 1.5 1.3125 3 3 C3 3.99 3 4.98 3 6 C3.66 6 4.32 6 5 6 C4.67 7.65 4.34 9.3 4 11 C3.01 11 2.02 11 1 11 C1.020625 9.9275 1.04125 8.855 1.0625 7.75 C1.0142016 4.85209576 0.86844115 2.71387859 0 0 Z " fill="#A7B9CE" transform="translate(170,154)"/>
<path d="M0 0 C0.66 0.33 1.32 0.66 2 1 C1.01 2.485 1.01 2.485 0 4 C0.33 4.99 0.66 5.98 1 7 C0.34 7 -0.32 7 -1 7 C-1.66 8.32 -2.32 9.64 -3 11 C-3 6.54151685 -2.49604304 3.74406455 0 0 Z " fill="#8BA3BE" transform="translate(62,92)"/>
<path d="M0 0 C1.32 0.66 2.64 1.32 4 2 C-0.43076923 5.07692308 -0.43076923 5.07692308 -3.3125 4.6875 C-3.869375 4.460625 -4.42625 4.23375 -5 4 C-3.35 2.68 -1.7 1.36 0 0 Z " fill="#576E8C" transform="translate(182,224)"/>
<path d="M0 0 C0.66 0.99 1.32 1.98 2 3 C1.01 3.33 0.02 3.66 -1 4 C-2.37195574 5.29355827 -3.71182656 6.62298702 -5 8 C-5.99 7.67 -6.98 7.34 -8 7 C-5.36 4.69 -2.72 2.38 0 0 Z " fill="#E7F1F6" transform="translate(404,217)"/>
<path d="M0 0 C0 0.99 0 1.98 0 3 C-1.98 3.33 -3.96 3.66 -6 4 C-6 2.68 -6 1.36 -6 0 C-3.50907189 -1.24546405 -2.58919267 -0.7767578 0 0 Z " fill="#F0FDF4" transform="translate(304,169)"/>
<path d="M0 0 C0.804375 0.4640625 0.804375 0.4640625 1.625 0.9375 C4.3984957 2.17827439 7.00042837 2.5909675 10 3 C9.01 3.99 8.02 4.98 7 6 C2.32307692 4.52307692 2.32307692 4.52307692 0.6875 1.875 C0.460625 1.25625 0.23375 0.6375 0 0 Z " fill="#9EB7E4" transform="translate(295,161)"/>
<path d="M0 0 C1.32 0 2.64 0 4 0 C3.67 1.65 3.34 3.3 3 5 C1.35 4.67 -0.3 4.34 -2 4 C-2 3.34 -2 2.68 -2 2 C-1.34 2 -0.68 2 0 2 C0 1.34 0 0.68 0 0 Z " fill="#9DB2CC" transform="translate(357,161)"/>
<path d="M0 0 C0.33 0.99 0.66 1.98 1 3 C-0.11878383 4.17262904 -1.24523051 5.33795138 -2.375 6.5 C-3.00148438 7.1496875 -3.62796875 7.799375 -4.2734375 8.46875 C-6 10 -6 10 -8 10 C-6.75976392 6.27929177 -5.04269852 5.37478909 -2 3 C-1.34 2.01 -0.68 1.02 0 0 Z " fill="#536684" transform="translate(301,109)"/>
<path d="M0 0 C3.39192363 0.59283621 5.2107757 1.76743189 7.75 4.0625 C8.67039063 4.88427734 8.67039063 4.88427734 9.609375 5.72265625 C10.29773438 6.35494141 10.29773438 6.35494141 11 7 C7.76169533 7 6.68408288 6.70805274 4 5 C1.75 2.375 1.75 2.375 0 0 Z " fill="#536885" transform="translate(185,78)"/>
<path d="M0 0 C2.31 0 4.62 0 7 0 C6.67 0.99 6.34 1.98 6 3 C6.66 3.33 7.32 3.66 8 4 C7.34 4.66 6.68 5.32 6 6 C3.96166576 4.7260411 1.96147874 3.38938077 0 2 C0 1.34 0 0.68 0 0 Z " fill="#E5F2F6" transform="translate(181,72)"/>
<path d="M0 0 C5.53846154 0.61538462 5.53846154 0.61538462 7.875 2.5625 C8.431875 3.2740625 8.431875 3.2740625 9 4 C8.67 4.66 8.34 5.32 8 6 C5.525 5.01 5.525 5.01 3 4 C3 3.34 3 2.68 3 2 C2.01 1.34 1.02 0.68 0 0 Z " fill="#506283" transform="translate(381,71)"/>
<path d="M0 0 C4.43090471 1.20842856 6.98112756 2.51668565 10 6 C5.16743695 5.58578031 3.17320782 3.53586014 0 0 Z " fill="#506881" transform="translate(93,193)"/>
<path d="M0 0 C2.64 0 5.28 0 8 0 C8 0.66 8 1.32 8 2 C6.02 2 4.04 2 2 2 C1.67 2.99 1.34 3.98 1 5 C0.67 3.35 0.34 1.7 0 0 Z " fill="#ACB8C6" transform="translate(154,134)"/>
<path d="M0 0 C2.6875 1.9375 2.6875 1.9375 5 4 C3.02 4.33 1.04 4.66 -1 5 C-0.67 4.34 -0.34 3.68 0 3 C-1.65 3 -3.3 3 -5 3 C-3 1 -3 1 0 0 Z " fill="#587294" transform="translate(182,74)"/>
<path d="M0 0 C0.66 0.33 1.32 0.66 2 1 C0.1875 3.5 0.1875 3.5 -2 6 C-2.99 6 -3.98 6 -5 6 C-5.33 5.01 -5.66 4.02 -6 3 C-4.03533587 1.93224776 -2.03144641 0.93446535 0 0 Z " fill="#D5E1E4" transform="translate(176,231)"/>
<path d="M0 0 C0.99 0.33 1.98 0.66 3 1 C2.625 2.9375 2.625 2.9375 2 5 C1.01 5.495 1.01 5.495 0 6 C0 5.34 0 4.68 0 4 C-0.66 4 -1.32 4 -2 4 C-1.34 2.68 -0.68 1.36 0 0 Z " fill="#7E93B0" transform="translate(411,203)"/>
<path d="M0 0 C2.31 1.65 4.62 3.3 7 5 C6.67 5.66 6.34 6.32 6 7 C4.125 6.875 4.125 6.875 2 6 C0.75 2.9375 0.75 2.9375 0 0 Z " fill="#5E7391" transform="translate(302,191)"/>
<path d="M0 0 C0.33 0 0.66 0 1 0 C1 2.97 1 5.94 1 9 C0.01 8.67 -0.98 8.34 -2 8 C-1.125 2.25 -1.125 2.25 0 0 Z " fill="#A9B9CC" transform="translate(173,144)"/>
<path d="M0 0 C0.33 0.99 0.66 1.98 1 3 C2.65 3 4.3 3 6 3 C6 3.33 6 3.66 6 4 C3.69 4.33 1.38 4.66 -1 5 C-1 4.34 -1 3.68 -1 3 C-1.99 3 -2.98 3 -4 3 C-4 2.34 -4 1.68 -4 1 C-2.68 0.67 -1.36 0.34 0 0 Z " fill="#9EBBDD" transform="translate(363,136)"/>
<path d="M0 0 C1.3372432 0.65878893 2.67112568 1.32448889 4 2 C2.37675914 2.22162329 0.751279 2.42689803 -0.875 2.625 C-2.23238281 2.79902344 -2.23238281 2.79902344 -3.6171875 2.9765625 C-4.40351563 2.98429688 -5.18984375 2.99203125 -6 3 C-6.66 2.34 -7.32 1.68 -8 1 C-4.91013114 -0.87599181 -3.40359125 -1.27634672 0 0 Z " fill="#E7F4F0" transform="translate(304,132)"/>
<path d="M0 0 C2.31 1.98 4.62 3.96 7 6 C5.02 6.99 5.02 6.99 3 8 C0 2.25 0 2.25 0 0 Z " fill="#91A7BE" transform="translate(221,110)"/>
<path d="M0 0 C0 0.99 0 1.98 0 3 C-2.31 3.33 -4.62 3.66 -7 4 C-7.33 3.34 -7.66 2.68 -8 2 C-2.25 0 -2.25 0 0 0 Z " fill="#5A6E89" transform="translate(322,97)"/>
<path d="M0 0 C0.33 0.99 0.66 1.98 1 3 C-0.65 4.32 -2.3 5.64 -4 7 C-4.33 5.68 -4.66 4.36 -5 3 C-3.35 2.67 -1.7 2.34 0 2 C0 1.34 0 0.68 0 0 Z " fill="#DEE9EF" transform="translate(271,89)"/>
<path d="M0 0 C6.0546875 -0.1953125 6.0546875 -0.1953125 8 0 C8.66 0.66 9.32 1.32 10 2 C9.67 2.66 9.34 3.32 9 4 C6.03 3.01 3.06 2.02 0 1 C0 0.67 0 0.34 0 0 Z " fill="#DFEDF1" transform="translate(370,64)"/>
<path d="M0 0 C0.721875 0.268125 1.44375 0.53625 2.1875 0.8125 C1.5275 1.4725 0.8675 2.1325 0.1875 2.8125 C-0.8025 2.8125 -1.7925 2.8125 -2.8125 2.8125 C-2.8125 3.4725 -2.8125 4.1325 -2.8125 4.8125 C-4.4625 4.8125 -6.1125 4.8125 -7.8125 4.8125 C-3.50480769 -0.23365385 -3.50480769 -0.23365385 0 0 Z " fill="#546C86" transform="translate(322.8125,203.1875)"/>
<path d="M0 0 C3.465 1.98 3.465 1.98 7 4 C3.18510326 5.46726798 0.70988378 4.43336419 -3 3 C-2.01 2.01 -1.02 1.02 0 0 Z " fill="#DCE5ED" transform="translate(325,201)"/>
<path d="M0 0 C3.40320742 1.01176437 4.75725331 1.64843582 6.8125 4.625 C7.204375 5.40875 7.59625 6.1925 8 7 C4.2047869 5.50902342 2.38957269 3.24299151 0 0 Z " fill="#ECF8FC" transform="translate(88,184)"/>
<path d="M0 0 C0.66 0.66 1.32 1.32 2 2 C1.64700993 5.44165321 0.95418308 7.06872538 -1 10 C-1.33 8.02 -1.66 6.04 -2 4 C-1.34 4 -0.68 4 0 4 C0 2.68 0 1.36 0 0 Z " fill="#A5BBD1" transform="translate(379,154)"/>
<path d="M0 0 C2.0625 0.4375 2.0625 0.4375 4 1 C1.03 3.475 1.03 3.475 -2 6 C-1.125 1.125 -1.125 1.125 0 0 Z " fill="#7181A0" transform="translate(277,132)"/>
<path d="M0 0 C2 3 2 3 2 7 C0.68 6.34 -0.64 5.68 -2 5 C-2 2 -2 2 0 0 Z " fill="#536987" transform="translate(180,113)"/>
<path d="M0 0 C0.33 0.66 0.66 1.32 1 2 C1.66 2.33 2.32 2.66 3 3 C-1.625 6 -1.625 6 -5 6 C-3.35 4.02 -1.7 2.04 0 0 Z " fill="#DBEBF3" transform="translate(92,113)"/>
<path d="M0 0 C2.0625 0.4375 2.0625 0.4375 4 1 C2.35 2.65 0.7 4.3 -1 6 C-1.042721 4.33388095 -1.04063832 2.66617115 -1 1 C-0.67 0.67 -0.34 0.34 0 0 Z " fill="#617591" transform="translate(304,105)"/>
<path d="M0 0 C2 3 2 3 2 5 C-0.5 6.625 -0.5 6.625 -3 8 C-3 3.73173127 -2.62386487 3.06117568 0 0 Z " fill="#7B8FB0" transform="translate(260,102)"/>
<path d="M0 0 C4.875 4.75 4.875 4.75 6 7 C4.35 6.67 2.7 6.34 1 6 C0.67 4.02 0.34 2.04 0 0 Z " fill="#899EB3" transform="translate(408,89)"/>
<path d="M0 0 C0.33 0.66 0.66 1.32 1 2 C0.34 2 -0.32 2 -1 2 C-1 2.66 -1 3.32 -1 4 C-3.375 5.6875 -3.375 5.6875 -6 7 C-6.66 6.67 -7.32 6.34 -8 6 C-5.36 4.02 -2.72 2.04 0 0 Z " fill="#566A85" transform="translate(292,74)"/>
<path d="M0 0 C1.65 0.33 3.3 0.66 5 1 C4.67 2.32 4.34 3.64 4 5 C2.35 4.67 0.7 4.34 -1 4 C-0.34 3.34 0.32 2.68 1 2 C0.67 1.34 0.34 0.68 0 0 Z " fill="#4E6484" transform="translate(369,65)"/>
<path d="M0 0 C1.65 0 3.3 0 5 0 C5.33 0.99 5.66 1.98 6 3 C3.69 3.33 1.38 3.66 -1 4 C-0.67 2.68 -0.34 1.36 0 0 Z " fill="#EFF4F7" transform="translate(326,57)"/>
<path d="M0 0 C0.99 0.33 1.98 0.66 3 1 C2.67 2.32 2.34 3.64 2 5 C0.35 4.67 -1.3 4.34 -3 4 C-2.01 2.68 -1.02 1.36 0 0 Z " fill="#FAF7F5" transform="translate(278,219)"/>
<path d="M0 0 C1.485 0.99 1.485 0.99 3 2 C2.67 3.32 2.34 4.64 2 6 C1.01 5.67 0.02 5.34 -1 5 C-0.67 3.35 -0.34 1.7 0 0 Z " fill="#839CBC" transform="translate(60,201)"/>
<path d="M0 0 C3.16115776 1.36983503 3.9927092 1.9890638 6 5 C4.35 5 2.7 5 1 5 C0.34 3.68 -0.32 2.36 -1 1 C-0.67 0.67 -0.34 0.34 0 0 Z " fill="#667C94" transform="translate(91,189)"/>
<path d="M0 0 C0.66 0.33 1.32 0.66 2 1 C1.835 1.598125 1.67 2.19625 1.5 2.8125 C0.8885876 5.11344336 0.8885876 5.11344336 1 8 C0.01 7.34 -0.98 6.68 -2 6 C-1.34 4.02 -0.68 2.04 0 0 Z " fill="#486388" transform="translate(174,190)"/>
<path d="M0 0 C0.99 0 1.98 0 3 0 C3 0.66 3 1.32 3 2 C3.66 2 4.32 2 5 2 C5 2.99 5 3.98 5 5 C4.01 5.33 3.02 5.66 2 6 C1.34 4.02 0.68 2.04 0 0 Z " fill="#7B8FAD" transform="translate(49,186)"/>
<path d="M0 0 C1.65 1.65 3.3 3.3 5 5 C3 5 1 5 -1 5 C-1.33 4.01 -1.66 3.02 -2 2 C-1.34 2 -0.68 2 0 2 C0 1.34 0 0.68 0 0 Z " fill="#899FB8" transform="translate(280,169)"/>
<path d="M0 0 C0.66 1.32 1.32 2.64 2 4 C-0.475 5.485 -0.475 5.485 -3 7 C-3.33 6.01 -3.66 5.02 -4 4 C-2.68 2.68 -1.36 1.36 0 0 Z " fill="#7C8FAB" transform="translate(196,166)"/>
<path d="M0 0 C1.65 0 3.3 0 5 0 C5 0.99 5 1.98 5 3 C3.35 3.33 1.7 3.66 0 4 C0 2.68 0 1.36 0 0 Z " fill="#9AB3E1" transform="translate(144,164)"/>
<path d="M0 0 C0.33 1.32 0.66 2.64 1 4 C0.01 4.33 -0.98 4.66 -2 5 C-2.73323796 7.01508358 -2.73323796 7.01508358 -3 9 C-3.33 8.34 -3.66 7.68 -4 7 C-1.55555556 1.55555556 -1.55555556 1.55555556 0 0 Z " fill="#E3F1F6" transform="translate(182,140)"/>
<path d="M0 0 C2.66666667 1.33333333 5.33333333 2.66666667 8 4 C7.01 5.485 7.01 5.485 6 7 C4.02 4.69 2.04 2.38 0 0 Z " fill="#8294B2" transform="translate(181,120)"/>
<path d="M0 0 C1.9375 0.75 1.9375 0.75 4 2 C4.75 4.125 4.75 4.125 5 6 C4.01 5.67 3.02 5.34 2 5 C2 4.34 2 3.68 2 3 C1.01 2.67 0.02 2.34 -1 2 C-0.67 1.34 -0.34 0.68 0 0 Z " fill="#7791AC" transform="translate(210,101)"/>
<path d="M0 0 C1.98 1.65 3.96 3.3 6 5 C4.02 5.99 4.02 5.99 2 7 C1.34 4.69 0.68 2.38 0 0 Z " fill="#92A4BC" transform="translate(206,95)"/>
<path d="M0 0 C2.97 0.495 2.97 0.495 6 1 C6 2.65 6 4.3 6 6 C3.97945196 4.35830472 1.97956942 2.69088222 0 1 C0 0.67 0 0.34 0 0 Z " fill="#ECF6FA" transform="translate(410,91)"/>
<path d="M0 0 C1.32 0.99 2.64 1.98 4 3 C3.67 4.65 3.34 6.3 3 8 C2.34 8 1.68 8 1 8 C1.020625 7.236875 1.04125 6.47375 1.0625 5.6875 C1.12942841 2.89814214 1.12942841 2.89814214 0 0 Z " fill="#5F7894" transform="translate(197,86)"/>
<path d="M0 0 C0.99 0.66 1.98 1.32 3 2 C3 3.32 3 4.64 3 6 C0.525 5.01 0.525 5.01 -2 4 C-1.34 2.68 -0.68 1.36 0 0 Z " fill="#EAF0F6" transform="translate(197,81)"/>
<path d="M0 0 C1.98 0.99 3.96 1.98 6 3 C5.01 3.66 4.02 4.32 3 5 C2.01 4.67 1.02 4.34 0 4 C0 2.68 0 1.36 0 0 Z " fill="#546384" transform="translate(176,71)"/>
</svg>
