<?xml version="1.0" encoding="UTF-8"?>
<svg version="1.1" xmlns="http://www.w3.org/2000/svg" width="249" height="249">
<path d="M0 0 C82.17 0 164.34 0 249 0 C249 82.17 249 164.34 249 249 C166.83 249 84.66 249 0 249 C0 166.83 0 84.66 0 0 Z " fill="#FDFDFD" transform="translate(0,0)"/>
<path d="M0 0 C3.0625 0.5 3.0625 0.5 5.4375 2.125 C7.53714453 5.19371124 7.68310815 6.85392711 7.0625 10.5 C6.40475586 10.93675049 5.74701172 11.37350098 5.06933594 11.82348633 C2.80664481 13.36081967 2.80664481 13.36081967 2.51660156 16.13549805 C2.4956543 17.16715088 2.47470703 18.19880371 2.453125 19.26171875 C2.42089844 20.37998047 2.38867188 21.49824219 2.35546875 22.65039062 C2.34128906 23.81763672 2.32710938 24.98488281 2.3125 26.1875 C2.26802734 27.95577148 2.26802734 27.95577148 2.22265625 29.75976562 C2.15189412 32.67280683 2.10494124 35.58640856 2.0625 38.5 C6.6825 38.5 11.3025 38.5 16.0625 38.5 C15.8459375 35.4371875 15.8459375 35.4371875 15.625 32.3125 C15.54378906 31.16394531 15.46257812 30.01539062 15.37890625 28.83203125 C15.10846188 25.98401829 14.68728253 23.28789518 14.0625 20.5 C16.4375 19.875 16.4375 19.875 19.0625 19.5 C20.0525 20.49 20.0525 20.49 21.0625 21.5 C20.52678571 25.03571429 20.52678571 25.03571429 19.0625 26.5 C18.82822222 28.51594582 18.64913876 30.538474 18.5 32.5625 C18.355625 34.521875 18.21125 36.48125 18.0625 38.5 C23.3425 38.5 28.6225 38.5 34.0625 38.5 C34.00240608 35.74769852 33.91537379 33.0007556 33.8125 30.25 C33.79832031 29.47269531 33.78414063 28.69539063 33.76953125 27.89453125 C33.60763605 23.09669753 33.60763605 23.09669753 31.04296875 19.14453125 C30.38941406 18.60183594 29.73585938 18.05914062 29.0625 17.5 C28.60930675 14.32764724 28.53259717 12.43512264 30.125 9.625 C33.20321911 7.83764697 35.59156068 8.06613258 39.0625 8.5 C41.0625 10.125 41.0625 10.125 42.0625 12.5 C41.84776244 17.76107018 41.84776244 17.76107018 39.53979492 19.93286133 C37.70256682 21.88182301 37.65006291 22.87082666 37.55078125 25.51171875 C37.51533203 26.26904297 37.47988281 27.02636719 37.44335938 27.80664062 C37.40952148 28.98516602 37.40952148 28.98516602 37.375 30.1875 C37.34083984 30.98478516 37.30667969 31.78207031 37.27148438 32.60351562 C37.18911896 34.56851904 37.12412933 36.53423696 37.0625 38.5 C40.3625 38.5 43.6625 38.5 47.0625 38.5 C46.98 37.241875 46.8975 35.98375 46.8125 34.6875 C46.796875 32.45703125 46.796875 32.45703125 47.0625 30.5 C49.0625 28.875 49.0625 28.875 51.0625 27.5 C51.40573695 24.34222003 51.14004691 21.84120642 50.4375 18.75 C50.31375 18.0075 50.19 17.265 50.0625 16.5 C50.7225 15.84 51.3825 15.18 52.0625 14.5 C54.1875 14.875 54.1875 14.875 56.0625 15.5 C56.3925 17.15 56.7225 18.8 57.0625 20.5 C56.0725 20.83 55.0825 21.16 54.0625 21.5 C54.145 22.4075 54.2275 23.315 54.3125 24.25 C54.00167001 28.29078988 52.83435534 28.72814466 50.0625 31.5 C49.25484122 35.14721696 49.25484122 35.14721696 49.0625 38.5 C50.238125 38.685625 50.238125 38.685625 51.4375 38.875 C54.0625 39.5 54.0625 39.5 56.0625 41.5 C56.20767744 44.4093558 56.24880796 47.219946 56.1875 50.125 C56.17847656 50.92679688 56.16945312 51.72859375 56.16015625 52.5546875 C56.13656223 54.53658523 56.10069065 56.51832981 56.0625 58.5 C61.26544265 58.57328088 65.91773892 58.30445297 70.125 55 C75.184757 49.38200689 74.11848222 40.60974212 74.0625 33.5 C73.1034375 33.314375 73.1034375 33.314375 72.125 33.125 C71.1040625 32.815625 71.1040625 32.815625 70.0625 32.5 C68.52086825 29.4167365 68.76502465 26.89121901 69.0625 23.5 C71.13941798 21.11539047 72.46806916 20.6040254 75.5625 20.0625 C78.0625 20.5 78.0625 20.5 80.4375 22.0625 C82.0625 24.5 82.0625 24.5 82.0625 28.125 C81.0625 31.5 81.0625 31.5 79 32.7109375 C78.0409375 33.10152344 78.0409375 33.10152344 77.0625 33.5 C77.17851562 34.68335938 77.29453125 35.86671875 77.4140625 37.0859375 C78.25369865 49.28452226 78.25369865 49.28452226 75.22265625 54.921875 C71.79154149 58.67279351 69.02003605 61.12666816 63.94921875 62.09375 C60.9375 62.125 60.9375 62.125 56.0625 61.5 C56.0625 65.13 56.0625 68.76 56.0625 72.5 C58.33405498 72.41297874 60.60480743 72.30480478 62.875 72.1875 C64.13957031 72.12949219 65.40414062 72.07148437 66.70703125 72.01171875 C69.99465221 71.76779062 69.99465221 71.76779062 72.0078125 70.1171875 C73.46156083 67.88810673 73.12950426 66.11316616 73.0625 63.5 C74.0525 62.51 74.0525 62.51 75.0625 61.5 C77.6875 61.875 77.6875 61.875 80.0625 62.5 C79.37707736 67.58794501 77.66495178 69.85081003 73.8046875 73.1171875 C68.34011185 75.87282821 62.01052581 74.98792399 56.0625 74.5 C56.0625 76.48 56.0625 78.46 56.0625 80.5 C60.6825 80.5 65.3025 80.5 70.0625 80.5 C70.0625 79.84 70.0625 79.18 70.0625 78.5 C71.7125 78.5 73.3625 78.5 75.0625 78.5 C75.6875 80.875 75.6875 80.875 76.0625 83.5 C75.4025 84.16 74.7425 84.82 74.0625 85.5 C70.52678571 84.96428571 70.52678571 84.96428571 69.0625 83.5 C66.87957226 83.26518307 64.69046826 83.08636677 62.5 82.9375 C60.70369141 82.81181641 60.70369141 82.81181641 58.87109375 82.68359375 C57.94425781 82.62300781 57.01742187 82.56242187 56.0625 82.5 C56.0625 84.48 56.0625 86.46 56.0625 88.5 C64.3125 88.5 72.5625 88.5 81.0625 88.5 C82.0525 86.52 82.0525 86.52 83.0625 84.5 C86.4375 83.5 86.4375 83.5 90.0625 83.5 C92.5625 85 92.5625 85 94.0625 87.5 C94 91.125 94 91.125 93.0625 94.5 C89.59326119 96.81282587 88.14044425 96.92478586 84.0625 96.5 C82.1875 95.125 82.1875 95.125 81.0625 93.5 C81.0625 92.84 81.0625 92.18 81.0625 91.5 C72.8125 91.5 64.5625 91.5 56.0625 91.5 C56.0625 96.78 56.0625 102.06 56.0625 107.5 C62.80274219 106.24274256 62.80274219 106.24274256 65.375 102.9375 C69.29318676 99.38379573 72.95934468 99.75138696 78.0625 99.5 C79.5784375 99.190625 79.5784375 99.190625 81.125 98.875 C81.764375 98.75125 82.40375 98.6275 83.0625 98.5 C84.0625 99.5 84.0625 99.5 84.125 102.0625 C84.104375 102.866875 84.08375 103.67125 84.0625 104.5 C80.3125 105.625 80.3125 105.625 78.0625 104.5 C78.0625 103.84 78.0625 103.18 78.0625 102.5 C73.09633559 102.61901483 69.98175578 102.73395352 66.0625 106 C65.4025 106.825 64.7425 107.65 64.0625 108.5 C63.0625 109.5 63.0625 109.5 59.5 109.5625 C58.365625 109.541875 57.23125 109.52125 56.0625 109.5 C56.0625 111.15 56.0625 112.8 56.0625 114.5 C61.0125 114.5 65.9625 114.5 71.0625 114.5 C71.0625 113.84 71.0625 113.18 71.0625 112.5 C72.7125 112.5 74.3625 112.5 76.0625 112.5 C76.6875 114.875 76.6875 114.875 77.0625 117.5 C76.4025 118.16 75.7425 118.82 75.0625 119.5 C71.52678571 118.96428571 71.52678571 118.96428571 70.0625 117.5 C67.71262738 117.26472227 65.35693961 117.08613583 63 116.9375 C61.06447266 116.81181641 61.06447266 116.81181641 59.08984375 116.68359375 C58.09082031 116.62300781 57.09179688 116.56242187 56.0625 116.5 C56.0625 118.81 56.0625 121.12 56.0625 123.5 C56.75214844 123.39558594 57.44179687 123.29117188 58.15234375 123.18359375 C63.86453084 122.68994795 67.70322958 123.14901937 72.25 126.8125 C77.24392736 132.32181488 76.79655342 138.16282707 76.5222168 145.19848633 C76.39981441 147.30101319 76.23545708 149.40102706 76.0625 151.5 C77.3825 151.83 78.7025 152.16 80.0625 152.5 C81.37970856 158.72680412 81.37970856 158.72680412 80.0625 161.9375 C78.0625 163.5 78.0625 163.5 74.5625 163.9375 C71.0625 163.5 71.0625 163.5 69.125 162.375 C67.55141696 159.59808875 67.67829101 157.63770673 68.0625 154.5 C69.4375 152.125 69.4375 152.125 71.0625 150.5 C71.7225 150.5 72.3825 150.5 73.0625 150.5 C73.05645857 147.78739966 73.00884292 145.08603109 72.9375 142.375 C72.94007813 141.61445313 72.94265625 140.85390625 72.9453125 140.0703125 C72.79855949 135.81447512 72.28777787 133.18327167 69.34375 130 C66.55710139 127.58568022 64.43525151 126.72629058 60.6875 126.625 C59.81351563 126.58632812 58.93953125 126.54765625 58.0390625 126.5078125 C57.06066406 126.50394531 57.06066406 126.50394531 56.0625 126.5 C56.09730469 127.33144531 56.13210937 128.16289062 56.16796875 129.01953125 C56.19503906 130.10621094 56.22210938 131.19289062 56.25 132.3125 C56.28480469 133.39144531 56.31960937 134.47039062 56.35546875 135.58203125 C56.0625 138.5 56.0625 138.5 55 140.375 C51.9889221 142.12336781 49.31191563 141.78209401 45.875 141.6875 C44.60269531 141.66042969 43.33039063 141.63335937 42.01953125 141.60546875 C41.04371094 141.57066406 40.06789062 141.53585938 39.0625 141.5 C39.33530545 146.80234348 39.33530545 146.80234348 42.5625 150.8125 C45.7978382 154.29048856 45.69284784 156.68115841 45.82421875 161.29296875 C45.85148829 163.70706823 45.85148829 163.70706823 48.0625 165.5 C47.6875 167.625 47.6875 167.625 47.0625 169.5 C45.1875 170.125 45.1875 170.125 43.0625 170.5 C42.4025 169.84 41.7425 169.18 41.0625 168.5 C41.37573028 166.82943851 41.71584443 165.16394675 42.0625 163.5 C42.41966959 160.10688888 42.58938033 156.87988128 42.0625 153.5 C39.62499975 150.81232422 39.62499975 150.81232422 37.0625 148.5 C36.75 144.6875 36.75 144.6875 37.0625 141.5 C33.4325 141.5 29.8025 141.5 26.0625 141.5 C26.17619211 143.95933991 26.30292651 146.4167909 26.4375 148.875 C26.4684375 149.57367188 26.499375 150.27234375 26.53125 150.9921875 C26.65749498 155.20185827 26.65749498 155.20185827 29.0625 158.5 C28.6875 160.625 28.6875 160.625 28.0625 162.5 C26.1875 163.125 26.1875 163.125 24.0625 163.5 C23.4025 162.84 22.7425 162.18 22.0625 161.5 C22.32947621 159.82142543 22.68064238 158.1562227 23.0625 156.5 C23.28131019 153.8931873 23.47262853 151.29779811 23.625 148.6875 C23.68977539 147.64819336 23.68977539 147.64819336 23.75585938 146.58789062 C23.86111453 144.89211314 23.96222863 143.19607948 24.0625 141.5 C20.4325 141.5 16.8025 141.5 13.0625 141.5 C13.0625 144.14 13.0625 146.78 13.0625 149.5 C13.7225 149.5 14.3825 149.5 15.0625 149.5 C15.105221 151.16611905 15.10313832 152.83382885 15.0625 154.5 C14.0625 155.5 14.0625 155.5 11.5 155.5625 C10.695625 155.541875 9.89125 155.52125 9.0625 155.5 C8.5675 153.025 8.5675 153.025 8.0625 150.5 C9.0525 150.17 10.0425 149.84 11.0625 149.5 C11.0625 146.86 11.0625 144.22 11.0625 141.5 C8.0925 141.5 5.1225 141.5 2.0625 141.5 C2.1142332 145.60520809 2.20927764 149.70828913 2.3125 153.8125 C2.32667969 154.97974609 2.34085937 156.14699219 2.35546875 157.34960938 C2.38769531 158.46787109 2.41992188 159.58613281 2.453125 160.73828125 C2.4845459 162.2857605 2.4845459 162.2857605 2.51660156 163.86450195 C3.20167253 167.17189956 4.32857025 167.68463582 7.0625 169.5 C7.68310815 173.14607289 7.53714453 174.80628876 5.4375 177.875 C2.36878876 179.97464453 0.70857289 180.12060815 -2.9375 179.5 C-5.53564888 177.24827097 -5.89466454 175.84982295 -6.3125 172.4375 C-5.9375 169.5 -5.9375 169.5 -4.5625 167.625 C-2.9375 166.5 -2.9375 166.5 -0.9375 166.5 C-0.9375 158.25 -0.9375 150 -0.9375 141.5 C-3.2475 141.5 -5.5575 141.5 -7.9375 141.5 C-7.87949219 142.23605469 -7.82148437 142.97210938 -7.76171875 143.73046875 C-7.38438875 151.89157762 -7.38438875 151.89157762 -10.4375 155.25 C-11.2625 155.9925 -12.0875 156.735 -12.9375 157.5 C-13.52164702 161.12693382 -13.52164702 161.12693382 -12.9375 164.5 C-12.2775 165.16 -11.6175 165.82 -10.9375 166.5 C-11.3125 168.625 -11.3125 168.625 -11.9375 170.5 C-13.8125 171.125 -13.8125 171.125 -15.9375 171.5 C-16.5975 170.84 -17.2575 170.18 -17.9375 169.5 C-17.625 167.375 -17.625 167.375 -16.9375 164.5 C-16.85383061 163.16668771 -16.77052008 161.83335287 -16.6875 160.5 C-16.30595129 157.07877986 -16.10041717 156.65477131 -13.4375 154.125 C-9.69646898 150.19691743 -10.15078319 146.83207985 -9.9375 141.5 C-15.2175 141.5 -20.4975 141.5 -25.9375 141.5 C-25.9375 145.79 -25.9375 150.08 -25.9375 154.5 C-24.9475 154.83 -23.9575 155.16 -22.9375 155.5 C-23.2675 157.15 -23.5975 158.8 -23.9375 160.5 C-25.5875 160.5 -27.2375 160.5 -28.9375 160.5 C-29.31968767 158.84385343 -29.65145102 157.17542976 -29.9375 155.5 C-29.6075 155.17 -29.2775 154.84 -28.9375 154.5 C-28.70268307 152.31707226 -28.52386677 150.12796826 -28.375 147.9375 C-28.24931641 146.14119141 -28.24931641 146.14119141 -28.12109375 144.30859375 C-28.06050781 143.38175781 -27.99992187 142.45492187 -27.9375 141.5 C-31.2375 141.5 -34.5375 141.5 -37.9375 141.5 C-37.73125 142.94375 -37.525 144.3875 -37.3125 145.875 C-37.36810014 150.74696183 -38.68173475 153.34739672 -41.8125 157.0625 C-47.97855737 162.75015637 -54.01561593 162.51843831 -61.9609375 162.33984375 C-66.06271158 162.5050429 -67.02271753 162.86773782 -69.9375 165.5 C-73.4178645 165.42897215 -75.23235909 165.11415498 -77.875 162.8125 C-79.32300221 159.66096578 -78.867426 157.79050737 -77.9375 154.5 C-75.9375 152.5 -75.9375 152.5 -72 152.125 C-68.25039483 152.20666109 -68.25039483 152.20666109 -65.9375 154.375 C-64.9375 156.5 -64.9375 156.5 -64.9375 158.5 C-53.9710386 159.01332819 -53.9710386 159.01332819 -44.5 154.5 C-41.3450514 150.54809823 -40.85898152 146.44666434 -40.9375 141.5 C-41.69675781 141.53480469 -42.45601562 141.56960937 -43.23828125 141.60546875 C-44.23214844 141.63253906 -45.22601563 141.65960938 -46.25 141.6875 C-47.23613281 141.72230469 -48.22226563 141.75710937 -49.23828125 141.79296875 C-51.9375 141.5 -51.9375 141.5 -53.78125 140.46875 C-55.58564328 137.39640469 -55.25065622 134.26321304 -55.125 130.8125 C-55.10469727 129.7596582 -55.10469727 129.7596582 -55.08398438 128.68554688 C-55.04870182 126.95670171 -54.99489583 125.22825235 -54.9375 123.5 C-61.32220125 123.31849939 -61.32220125 123.31849939 -66.80859375 126.08984375 C-67.34613281 126.72019531 -67.88367188 127.35054688 -68.4375 128 C-71.23643958 131.28105358 -73.00915577 132.02146747 -77.3125 132.375 C-78.16585937 132.39304688 -79.01921875 132.41109375 -79.8984375 132.4296875 C-81.93261361 132.26767419 -81.93261361 132.26767419 -82.9375 133.5 C-84.60367115 133.54063832 -86.27138095 133.542721 -87.9375 133.5 C-88.5625 131.625 -88.5625 131.625 -88.9375 129.5 C-87.9475 128.51 -87.9475 128.51 -86.9375 127.5 C-85.26693851 127.81323028 -83.60144675 128.15334443 -81.9375 128.5 C-78.49748085 128.97092082 -75.35350541 129.20981931 -71.9375 128.5 C-70.27512871 126.9680529 -70.27512871 126.9680529 -69 125 C-67.65234375 123.05859375 -67.65234375 123.05859375 -65.9375 121.5 C-62.08385321 120.86219198 -58.87406397 121.16395186 -54.9375 121.5 C-54.9375 117.54 -54.9375 113.58 -54.9375 109.5 C-57.16692748 109.64179038 -59.39603628 109.78859698 -61.625 109.9375 C-62.86636719 110.01871094 -64.10773438 110.09992188 -65.38671875 110.18359375 C-68.84161733 110.40813656 -68.84161733 110.40813656 -71.76953125 111.16015625 C-72.84267578 111.32837891 -72.84267578 111.32837891 -73.9375 111.5 C-74.5975 110.84 -75.2575 110.18 -75.9375 109.5 C-75.5625 107.375 -75.5625 107.375 -74.9375 105.5 C-73.0625 104.875 -73.0625 104.875 -70.9375 104.5 C-70.2775 105.16 -69.6175 105.82 -68.9375 106.5 C-64.28082856 107.09185512 -59.62817934 107.24414476 -54.9375 107.5 C-54.9375 102.22 -54.9375 96.94 -54.9375 91.5 C-63.1875 91.5 -71.4375 91.5 -79.9375 91.5 C-80.5975 92.82 -81.2575 94.14 -81.9375 95.5 C-85.3125 96.5 -85.3125 96.5 -88.9375 96.5 C-91.4375 95 -91.4375 95 -92.9375 92.5 C-92.875 88.875 -92.875 88.875 -91.9375 85.5 C-88.46826119 83.18717413 -87.01544425 83.07521414 -82.9375 83.5 C-81.0625 84.875 -81.0625 84.875 -79.9375 86.5 C-79.9375 87.16 -79.9375 87.82 -79.9375 88.5 C-71.6875 88.5 -63.4375 88.5 -54.9375 88.5 C-54.9375 82.89 -54.9375 77.28 -54.9375 71.5 C-59.8875 71.5 -64.8375 71.5 -69.9375 71.5 C-69.9375 72.16 -69.9375 72.82 -69.9375 73.5 C-71.5875 73.5 -73.2375 73.5 -74.9375 73.5 C-75.2675 71.85 -75.5975 70.2 -75.9375 68.5 C-74.9475 68.5 -73.9575 68.5 -72.9375 68.5 C-73.2675 69.49 -73.5975 70.48 -73.9375 71.5 C-72.9475 71.5 -71.9575 71.5 -70.9375 71.5 C-70.4425 70.015 -70.4425 70.015 -69.9375 68.5 C-64.9875 68.83 -60.0375 69.16 -54.9375 69.5 C-54.9375 65.54 -54.9375 61.58 -54.9375 57.5 C-56.731875 57.685625 -58.52625 57.87125 -60.375 58.0625 C-65.3529187 58.00941793 -68.26231135 57.32106335 -72.125 54.125 C-76.80128918 48.8872209 -76.85838797 43.51859471 -76.69018555 36.79736328 C-76.48959291 32.05793381 -76.48959291 32.05793381 -78.91796875 28.11328125 C-79.58441406 27.58089844 -80.25085938 27.04851563 -80.9375 26.5 C-81.4375 24 -81.4375 24 -80.9375 21.5 C-79.3125 19.1875 -79.3125 19.1875 -76.9375 17.5 C-73.76514724 17.04680675 -71.87262264 16.97009717 -69.0625 18.5625 C-67.29476726 21.6069286 -67.56926084 24.0631012 -67.9375 27.5 C-69.3125 29.4375 -69.3125 29.4375 -70.9375 30.5 C-71.5975 30.5 -72.2575 30.5 -72.9375 30.5 C-72.93145857 33.21260034 -72.88384292 35.91396891 -72.8125 38.625 C-72.81507812 39.38554688 -72.81765625 40.14609375 -72.8203125 40.9296875 C-72.67424381 45.16567948 -72.16575032 47.81857767 -69.25 51 C-66.30669792 53.55004251 -64.00494561 54.27884279 -60.0625 54.375 C-58.61230469 54.43300781 -58.61230469 54.43300781 -57.1328125 54.4921875 C-56.40835938 54.49476562 -55.68390625 54.49734375 -54.9375 54.5 C-54.98970703 53.14455078 -54.98970703 53.14455078 -55.04296875 51.76171875 C-55.07003906 50.58222656 -55.09710938 49.40273437 -55.125 48.1875 C-55.15980469 47.01574219 -55.19460937 45.84398437 -55.23046875 44.63671875 C-54.9375 41.5 -54.9375 41.5 -53.875 39.59375 C-50.85840515 37.89083355 -48.17113509 38.21834032 -44.75 38.3125 C-42.84154297 38.35310547 -42.84154297 38.35310547 -40.89453125 38.39453125 C-39.43080078 38.44673828 -39.43080078 38.44673828 -37.9375 38.5 C-38.07929038 36.27057252 -38.22609698 34.04146372 -38.375 31.8125 C-38.45621094 30.57113281 -38.53742188 29.32976563 -38.62109375 28.05078125 C-38.8576343 24.60084036 -38.8576343 24.60084036 -39.53515625 21.66796875 C-39.9375 19.5 -39.9375 19.5 -38.9375 17.5 C-37.2875 17.83 -35.6375 18.16 -33.9375 18.5 C-33.3125 20.375 -33.3125 20.375 -32.9375 22.5 C-33.5975 23.16 -34.2575 23.82 -34.9375 24.5 C-35.23809943 26.86509361 -35.43265012 29.24441881 -35.5625 31.625 C-35.748125 35.028125 -35.748125 35.028125 -35.9375 38.5 C-29.3375 38.5 -22.7375 38.5 -15.9375 38.5 C-17.25504463 32.72647352 -17.25504463 32.72647352 -20.0625 30.8125 C-23.19636336 26.94740186 -22.23463698 22.28720689 -21.9375 17.5 C-22.5975 17.5 -23.2575 17.5 -23.9375 17.5 C-25.0625 13.75 -25.0625 13.75 -23.9375 11.5 C-22.27138095 11.457279 -20.60367115 11.45936168 -18.9375 11.5 C-17.9375 12.5 -17.9375 12.5 -17.875 15.0625 C-17.895625 15.866875 -17.91625 16.67125 -17.9375 17.5 C-18.5975 17.5 -19.2575 17.5 -19.9375 17.5 C-19.91944876 24.50872529 -19.91944876 24.50872529 -16.375 30.25 C-15.570625 30.9925 -14.76625 31.735 -13.9375 32.5 C-13.9375 34.48 -13.9375 36.46 -13.9375 38.5 C-9.6475 38.5 -5.3575 38.5 -0.9375 38.5 C-0.99730716 34.39423851 -1.08426533 30.29220034 -1.1875 26.1875 C-1.20167969 25.02025391 -1.21585937 23.85300781 -1.23046875 22.65039062 C-1.26269531 21.53212891 -1.29492188 20.41386719 -1.328125 19.26171875 C-1.3595459 17.7142395 -1.3595459 17.7142395 -1.39160156 16.13549805 C-2.07658967 12.82850044 -3.20606408 12.31726977 -5.9375 10.5 C-6.43676965 7.14776095 -6.26438252 5.19008532 -4.8125 2.125 C-2.9375 0.5 -2.9375 0.5 0 0 Z " fill="#FBFBFB" transform="translate(123.9375,34.5)"/>
<path d="M0 0 C3.0625 0.5 3.0625 0.5 5.4375 2.125 C7.53714453 5.19371124 7.68310815 6.85392711 7.0625 10.5 C6.40475586 10.93675049 5.74701172 11.37350098 5.06933594 11.82348633 C2.80664481 13.36081967 2.80664481 13.36081967 2.51660156 16.13549805 C2.4956543 17.16715088 2.47470703 18.19880371 2.453125 19.26171875 C2.42089844 20.37998047 2.38867188 21.49824219 2.35546875 22.65039062 C2.34128906 23.81763672 2.32710938 24.98488281 2.3125 26.1875 C2.26802734 27.95577148 2.26802734 27.95577148 2.22265625 29.75976562 C2.15189412 32.67280683 2.10494124 35.58640856 2.0625 38.5 C6.6825 38.5 11.3025 38.5 16.0625 38.5 C15.8459375 35.4371875 15.8459375 35.4371875 15.625 32.3125 C15.54378906 31.16394531 15.46257812 30.01539062 15.37890625 28.83203125 C15.10846188 25.98401829 14.68728253 23.28789518 14.0625 20.5 C16.4375 19.875 16.4375 19.875 19.0625 19.5 C20.0525 20.49 20.0525 20.49 21.0625 21.5 C20.52678571 25.03571429 20.52678571 25.03571429 19.0625 26.5 C18.82822222 28.51594582 18.64913876 30.538474 18.5 32.5625 C18.355625 34.521875 18.21125 36.48125 18.0625 38.5 C23.3425 38.5 28.6225 38.5 34.0625 38.5 C34.00240608 35.74769852 33.91537379 33.0007556 33.8125 30.25 C33.79832031 29.47269531 33.78414063 28.69539063 33.76953125 27.89453125 C33.60763605 23.09669753 33.60763605 23.09669753 31.04296875 19.14453125 C30.38941406 18.60183594 29.73585938 18.05914062 29.0625 17.5 C28.60930675 14.32764724 28.53259717 12.43512264 30.125 9.625 C33.20321911 7.83764697 35.59156068 8.06613258 39.0625 8.5 C41.0625 10.125 41.0625 10.125 42.0625 12.5 C41.84776244 17.76107018 41.84776244 17.76107018 39.53979492 19.93286133 C37.70256682 21.88182301 37.65006291 22.87082666 37.55078125 25.51171875 C37.51533203 26.26904297 37.47988281 27.02636719 37.44335938 27.80664062 C37.40952148 28.98516602 37.40952148 28.98516602 37.375 30.1875 C37.34083984 30.98478516 37.30667969 31.78207031 37.27148438 32.60351562 C37.18911896 34.56851904 37.12412933 36.53423696 37.0625 38.5 C40.3625 38.5 43.6625 38.5 47.0625 38.5 C46.98 37.241875 46.8975 35.98375 46.8125 34.6875 C46.796875 32.45703125 46.796875 32.45703125 47.0625 30.5 C49.0625 28.875 49.0625 28.875 51.0625 27.5 C51.40573695 24.34222003 51.14004691 21.84120642 50.4375 18.75 C50.31375 18.0075 50.19 17.265 50.0625 16.5 C50.7225 15.84 51.3825 15.18 52.0625 14.5 C54.1875 14.875 54.1875 14.875 56.0625 15.5 C56.3925 17.15 56.7225 18.8 57.0625 20.5 C56.0725 20.83 55.0825 21.16 54.0625 21.5 C54.145 22.4075 54.2275 23.315 54.3125 24.25 C54.00167001 28.29078988 52.83435534 28.72814466 50.0625 31.5 C49.25484122 35.14721696 49.25484122 35.14721696 49.0625 38.5 C50.238125 38.685625 50.238125 38.685625 51.4375 38.875 C54.0625 39.5 54.0625 39.5 56.0625 41.5 C56.20767744 44.4093558 56.24880796 47.219946 56.1875 50.125 C56.17847656 50.92679688 56.16945312 51.72859375 56.16015625 52.5546875 C56.13656223 54.53658523 56.10069065 56.51832981 56.0625 58.5 C61.26544265 58.57328088 65.91773892 58.30445297 70.125 55 C75.184757 49.38200689 74.11848222 40.60974212 74.0625 33.5 C73.1034375 33.314375 73.1034375 33.314375 72.125 33.125 C71.1040625 32.815625 71.1040625 32.815625 70.0625 32.5 C68.52086825 29.4167365 68.76502465 26.89121901 69.0625 23.5 C71.13941798 21.11539047 72.46806916 20.6040254 75.5625 20.0625 C78.0625 20.5 78.0625 20.5 80.4375 22.0625 C82.0625 24.5 82.0625 24.5 82.0625 28.125 C81.0625 31.5 81.0625 31.5 79 32.7109375 C78.0409375 33.10152344 78.0409375 33.10152344 77.0625 33.5 C77.17851562 34.68335938 77.29453125 35.86671875 77.4140625 37.0859375 C78.25369865 49.28452226 78.25369865 49.28452226 75.22265625 54.921875 C71.79154149 58.67279351 69.02003605 61.12666816 63.94921875 62.09375 C60.9375 62.125 60.9375 62.125 56.0625 61.5 C56.0625 65.13 56.0625 68.76 56.0625 72.5 C58.33405498 72.41297874 60.60480743 72.30480478 62.875 72.1875 C64.13957031 72.12949219 65.40414062 72.07148437 66.70703125 72.01171875 C69.99465221 71.76779062 69.99465221 71.76779062 72.0078125 70.1171875 C73.46156083 67.88810673 73.12950426 66.11316616 73.0625 63.5 C74.0525 62.51 74.0525 62.51 75.0625 61.5 C77.6875 61.875 77.6875 61.875 80.0625 62.5 C79.37707736 67.58794501 77.66495178 69.85081003 73.8046875 73.1171875 C68.34011185 75.87282821 62.01052581 74.98792399 56.0625 74.5 C56.0625 76.48 56.0625 78.46 56.0625 80.5 C60.6825 80.5 65.3025 80.5 70.0625 80.5 C70.0625 79.84 70.0625 79.18 70.0625 78.5 C71.7125 78.5 73.3625 78.5 75.0625 78.5 C75.6875 80.875 75.6875 80.875 76.0625 83.5 C75.4025 84.16 74.7425 84.82 74.0625 85.5 C70.52678571 84.96428571 70.52678571 84.96428571 69.0625 83.5 C66.87957226 83.26518307 64.69046826 83.08636677 62.5 82.9375 C60.70369141 82.81181641 60.70369141 82.81181641 58.87109375 82.68359375 C57.94425781 82.62300781 57.01742187 82.56242187 56.0625 82.5 C56.0625 84.48 56.0625 86.46 56.0625 88.5 C64.3125 88.5 72.5625 88.5 81.0625 88.5 C82.0525 86.52 82.0525 86.52 83.0625 84.5 C86.4375 83.5 86.4375 83.5 90.0625 83.5 C92.5625 85 92.5625 85 94.0625 87.5 C94 91.125 94 91.125 93.0625 94.5 C89.59326119 96.81282587 88.14044425 96.92478586 84.0625 96.5 C82.1875 95.125 82.1875 95.125 81.0625 93.5 C81.0625 92.84 81.0625 92.18 81.0625 91.5 C72.8125 91.5 64.5625 91.5 56.0625 91.5 C56.0625 96.78 56.0625 102.06 56.0625 107.5 C62.80274219 106.24274256 62.80274219 106.24274256 65.375 102.9375 C69.29318676 99.38379573 72.95934468 99.75138696 78.0625 99.5 C79.5784375 99.190625 79.5784375 99.190625 81.125 98.875 C81.764375 98.75125 82.40375 98.6275 83.0625 98.5 C84.0625 99.5 84.0625 99.5 84.125 102.0625 C84.104375 102.866875 84.08375 103.67125 84.0625 104.5 C80.3125 105.625 80.3125 105.625 78.0625 104.5 C78.0625 103.84 78.0625 103.18 78.0625 102.5 C73.09633559 102.61901483 69.98175578 102.73395352 66.0625 106 C65.4025 106.825 64.7425 107.65 64.0625 108.5 C63.0625 109.5 63.0625 109.5 59.5 109.5625 C58.365625 109.541875 57.23125 109.52125 56.0625 109.5 C56.0625 111.15 56.0625 112.8 56.0625 114.5 C61.0125 114.5 65.9625 114.5 71.0625 114.5 C71.0625 113.84 71.0625 113.18 71.0625 112.5 C72.7125 112.5 74.3625 112.5 76.0625 112.5 C76.6875 114.875 76.6875 114.875 77.0625 117.5 C76.4025 118.16 75.7425 118.82 75.0625 119.5 C71.52678571 118.96428571 71.52678571 118.96428571 70.0625 117.5 C67.71262738 117.26472227 65.35693961 117.08613583 63 116.9375 C61.06447266 116.81181641 61.06447266 116.81181641 59.08984375 116.68359375 C58.09082031 116.62300781 57.09179688 116.56242187 56.0625 116.5 C56.0625 118.81 56.0625 121.12 56.0625 123.5 C56.75214844 123.39558594 57.44179687 123.29117188 58.15234375 123.18359375 C63.86453084 122.68994795 67.70322958 123.14901937 72.25 126.8125 C77.24392736 132.32181488 76.79655342 138.16282707 76.5222168 145.19848633 C76.39981441 147.30101319 76.23545708 149.40102706 76.0625 151.5 C77.3825 151.83 78.7025 152.16 80.0625 152.5 C81.37970856 158.72680412 81.37970856 158.72680412 80.0625 161.9375 C78.0625 163.5 78.0625 163.5 74.5625 163.9375 C71.0625 163.5 71.0625 163.5 69.125 162.375 C67.55141696 159.59808875 67.67829101 157.63770673 68.0625 154.5 C69.4375 152.125 69.4375 152.125 71.0625 150.5 C71.7225 150.5 72.3825 150.5 73.0625 150.5 C73.05645857 147.78739966 73.00884292 145.08603109 72.9375 142.375 C72.94007813 141.61445313 72.94265625 140.85390625 72.9453125 140.0703125 C72.79855949 135.81447512 72.28777787 133.18327167 69.34375 130 C66.55710139 127.58568022 64.43525151 126.72629058 60.6875 126.625 C59.81351563 126.58632812 58.93953125 126.54765625 58.0390625 126.5078125 C57.06066406 126.50394531 57.06066406 126.50394531 56.0625 126.5 C56.09730469 127.33144531 56.13210937 128.16289062 56.16796875 129.01953125 C56.19503906 130.10621094 56.22210938 131.19289062 56.25 132.3125 C56.28480469 133.39144531 56.31960937 134.47039062 56.35546875 135.58203125 C56.0625 138.5 56.0625 138.5 55 140.375 C51.9889221 142.12336781 49.31191563 141.78209401 45.875 141.6875 C44.60269531 141.66042969 43.33039063 141.63335937 42.01953125 141.60546875 C41.04371094 141.57066406 40.06789062 141.53585938 39.0625 141.5 C39.33530545 146.80234348 39.33530545 146.80234348 42.5625 150.8125 C45.7978382 154.29048856 45.69284784 156.68115841 45.82421875 161.29296875 C45.85148829 163.70706823 45.85148829 163.70706823 48.0625 165.5 C47.6875 167.625 47.6875 167.625 47.0625 169.5 C45.1875 170.125 45.1875 170.125 43.0625 170.5 C42.4025 169.84 41.7425 169.18 41.0625 168.5 C41.37573028 166.82943851 41.71584443 165.16394675 42.0625 163.5 C42.41966959 160.10688888 42.58938033 156.87988128 42.0625 153.5 C39.62499975 150.81232422 39.62499975 150.81232422 37.0625 148.5 C36.75 144.6875 36.75 144.6875 37.0625 141.5 C33.4325 141.5 29.8025 141.5 26.0625 141.5 C26.17619211 143.95933991 26.30292651 146.4167909 26.4375 148.875 C26.4684375 149.57367188 26.499375 150.27234375 26.53125 150.9921875 C26.65749498 155.20185827 26.65749498 155.20185827 29.0625 158.5 C28.6875 160.625 28.6875 160.625 28.0625 162.5 C26.1875 163.125 26.1875 163.125 24.0625 163.5 C23.4025 162.84 22.7425 162.18 22.0625 161.5 C22.32947621 159.82142543 22.68064238 158.1562227 23.0625 156.5 C23.28131019 153.8931873 23.47262853 151.29779811 23.625 148.6875 C23.68977539 147.64819336 23.68977539 147.64819336 23.75585938 146.58789062 C23.86111453 144.89211314 23.96222863 143.19607948 24.0625 141.5 C20.4325 141.5 16.8025 141.5 13.0625 141.5 C13.0625 144.14 13.0625 146.78 13.0625 149.5 C13.7225 149.5 14.3825 149.5 15.0625 149.5 C15.105221 151.16611905 15.10313832 152.83382885 15.0625 154.5 C14.0625 155.5 14.0625 155.5 11.5 155.5625 C10.695625 155.541875 9.89125 155.52125 9.0625 155.5 C8.5675 153.025 8.5675 153.025 8.0625 150.5 C9.0525 150.17 10.0425 149.84 11.0625 149.5 C11.0625 146.86 11.0625 144.22 11.0625 141.5 C8.0925 141.5 5.1225 141.5 2.0625 141.5 C2.1142332 145.60520809 2.20927764 149.70828913 2.3125 153.8125 C2.32667969 154.97974609 2.34085937 156.14699219 2.35546875 157.34960938 C2.38769531 158.46787109 2.41992188 159.58613281 2.453125 160.73828125 C2.4845459 162.2857605 2.4845459 162.2857605 2.51660156 163.86450195 C3.20167253 167.17189956 4.32857025 167.68463582 7.0625 169.5 C7.68310815 173.14607289 7.53714453 174.80628876 5.4375 177.875 C2.36878876 179.97464453 0.70857289 180.12060815 -2.9375 179.5 C-5.53564888 177.24827097 -5.89466454 175.84982295 -6.3125 172.4375 C-5.9375 169.5 -5.9375 169.5 -4.5625 167.625 C-2.9375 166.5 -2.9375 166.5 -0.9375 166.5 C-0.9375 158.25 -0.9375 150 -0.9375 141.5 C-3.2475 141.5 -5.5575 141.5 -7.9375 141.5 C-7.87949219 142.23605469 -7.82148437 142.97210938 -7.76171875 143.73046875 C-7.38438875 151.89157762 -7.38438875 151.89157762 -10.4375 155.25 C-11.2625 155.9925 -12.0875 156.735 -12.9375 157.5 C-13.52164702 161.12693382 -13.52164702 161.12693382 -12.9375 164.5 C-12.2775 165.16 -11.6175 165.82 -10.9375 166.5 C-11.3125 168.625 -11.3125 168.625 -11.9375 170.5 C-13.8125 171.125 -13.8125 171.125 -15.9375 171.5 C-16.5975 170.84 -17.2575 170.18 -17.9375 169.5 C-17.625 167.375 -17.625 167.375 -16.9375 164.5 C-16.85383061 163.16668771 -16.77052008 161.83335287 -16.6875 160.5 C-16.30595129 157.07877986 -16.10041717 156.65477131 -13.4375 154.125 C-9.69646898 150.19691743 -10.15078319 146.83207985 -9.9375 141.5 C-15.2175 141.5 -20.4975 141.5 -25.9375 141.5 C-25.9375 145.79 -25.9375 150.08 -25.9375 154.5 C-24.9475 154.83 -23.9575 155.16 -22.9375 155.5 C-23.2675 157.15 -23.5975 158.8 -23.9375 160.5 C-25.5875 160.5 -27.2375 160.5 -28.9375 160.5 C-29.31968767 158.84385343 -29.65145102 157.17542976 -29.9375 155.5 C-29.6075 155.17 -29.2775 154.84 -28.9375 154.5 C-28.70268307 152.31707226 -28.52386677 150.12796826 -28.375 147.9375 C-28.24931641 146.14119141 -28.24931641 146.14119141 -28.12109375 144.30859375 C-28.06050781 143.38175781 -27.99992187 142.45492187 -27.9375 141.5 C-31.2375 141.5 -34.5375 141.5 -37.9375 141.5 C-37.73125 142.94375 -37.525 144.3875 -37.3125 145.875 C-37.36810014 150.74696183 -38.68173475 153.34739672 -41.8125 157.0625 C-47.97855737 162.75015637 -54.01561593 162.51843831 -61.9609375 162.33984375 C-66.06271158 162.5050429 -67.02271753 162.86773782 -69.9375 165.5 C-73.4178645 165.42897215 -75.23235909 165.11415498 -77.875 162.8125 C-79.32300221 159.66096578 -78.867426 157.79050737 -77.9375 154.5 C-75.9375 152.5 -75.9375 152.5 -72 152.125 C-68.25039483 152.20666109 -68.25039483 152.20666109 -65.9375 154.375 C-64.9375 156.5 -64.9375 156.5 -64.9375 158.5 C-53.9710386 159.01332819 -53.9710386 159.01332819 -44.5 154.5 C-41.3450514 150.54809823 -40.85898152 146.44666434 -40.9375 141.5 C-41.69675781 141.53480469 -42.45601562 141.56960937 -43.23828125 141.60546875 C-44.23214844 141.63253906 -45.22601563 141.65960938 -46.25 141.6875 C-47.23613281 141.72230469 -48.22226563 141.75710937 -49.23828125 141.79296875 C-51.9375 141.5 -51.9375 141.5 -53.78125 140.46875 C-55.58564328 137.39640469 -55.25065622 134.26321304 -55.125 130.8125 C-55.10469727 129.7596582 -55.10469727 129.7596582 -55.08398438 128.68554688 C-55.04870182 126.95670171 -54.99489583 125.22825235 -54.9375 123.5 C-61.32220125 123.31849939 -61.32220125 123.31849939 -66.80859375 126.08984375 C-67.34613281 126.72019531 -67.88367188 127.35054688 -68.4375 128 C-71.23643958 131.28105358 -73.00915577 132.02146747 -77.3125 132.375 C-78.16585937 132.39304688 -79.01921875 132.41109375 -79.8984375 132.4296875 C-81.93261361 132.26767419 -81.93261361 132.26767419 -82.9375 133.5 C-84.60367115 133.54063832 -86.27138095 133.542721 -87.9375 133.5 C-88.5625 131.625 -88.5625 131.625 -88.9375 129.5 C-87.9475 128.51 -87.9475 128.51 -86.9375 127.5 C-85.26693851 127.81323028 -83.60144675 128.15334443 -81.9375 128.5 C-78.49748085 128.97092082 -75.35350541 129.20981931 -71.9375 128.5 C-70.27512871 126.9680529 -70.27512871 126.9680529 -69 125 C-67.65234375 123.05859375 -67.65234375 123.05859375 -65.9375 121.5 C-62.08385321 120.86219198 -58.87406397 121.16395186 -54.9375 121.5 C-54.9375 117.54 -54.9375 113.58 -54.9375 109.5 C-57.16692748 109.64179038 -59.39603628 109.78859698 -61.625 109.9375 C-62.86636719 110.01871094 -64.10773438 110.09992188 -65.38671875 110.18359375 C-68.84161733 110.40813656 -68.84161733 110.40813656 -71.76953125 111.16015625 C-72.84267578 111.32837891 -72.84267578 111.32837891 -73.9375 111.5 C-74.5975 110.84 -75.2575 110.18 -75.9375 109.5 C-75.5625 107.375 -75.5625 107.375 -74.9375 105.5 C-73.0625 104.875 -73.0625 104.875 -70.9375 104.5 C-70.2775 105.16 -69.6175 105.82 -68.9375 106.5 C-64.28082856 107.09185512 -59.62817934 107.24414476 -54.9375 107.5 C-54.9375 102.22 -54.9375 96.94 -54.9375 91.5 C-63.1875 91.5 -71.4375 91.5 -79.9375 91.5 C-80.5975 92.82 -81.2575 94.14 -81.9375 95.5 C-85.3125 96.5 -85.3125 96.5 -88.9375 96.5 C-91.4375 95 -91.4375 95 -92.9375 92.5 C-92.875 88.875 -92.875 88.875 -91.9375 85.5 C-88.46826119 83.18717413 -87.01544425 83.07521414 -82.9375 83.5 C-81.0625 84.875 -81.0625 84.875 -79.9375 86.5 C-79.9375 87.16 -79.9375 87.82 -79.9375 88.5 C-71.6875 88.5 -63.4375 88.5 -54.9375 88.5 C-54.9375 82.89 -54.9375 77.28 -54.9375 71.5 C-59.8875 71.5 -64.8375 71.5 -69.9375 71.5 C-69.9375 72.16 -69.9375 72.82 -69.9375 73.5 C-71.5875 73.5 -73.2375 73.5 -74.9375 73.5 C-75.2675 71.85 -75.5975 70.2 -75.9375 68.5 C-74.9475 68.5 -73.9575 68.5 -72.9375 68.5 C-73.2675 69.49 -73.5975 70.48 -73.9375 71.5 C-72.9475 71.5 -71.9575 71.5 -70.9375 71.5 C-70.4425 70.015 -70.4425 70.015 -69.9375 68.5 C-64.9875 68.83 -60.0375 69.16 -54.9375 69.5 C-54.9375 65.54 -54.9375 61.58 -54.9375 57.5 C-56.731875 57.685625 -58.52625 57.87125 -60.375 58.0625 C-65.3529187 58.00941793 -68.26231135 57.32106335 -72.125 54.125 C-76.80128918 48.8872209 -76.85838797 43.51859471 -76.69018555 36.79736328 C-76.48959291 32.05793381 -76.48959291 32.05793381 -78.91796875 28.11328125 C-79.58441406 27.58089844 -80.25085938 27.04851563 -80.9375 26.5 C-81.4375 24 -81.4375 24 -80.9375 21.5 C-79.3125 19.1875 -79.3125 19.1875 -76.9375 17.5 C-73.76514724 17.04680675 -71.87262264 16.97009717 -69.0625 18.5625 C-67.29476726 21.6069286 -67.56926084 24.0631012 -67.9375 27.5 C-69.3125 29.4375 -69.3125 29.4375 -70.9375 30.5 C-71.5975 30.5 -72.2575 30.5 -72.9375 30.5 C-72.93145857 33.21260034 -72.88384292 35.91396891 -72.8125 38.625 C-72.81507812 39.38554688 -72.81765625 40.14609375 -72.8203125 40.9296875 C-72.67424381 45.16567948 -72.16575032 47.81857767 -69.25 51 C-66.30669792 53.55004251 -64.00494561 54.27884279 -60.0625 54.375 C-58.61230469 54.43300781 -58.61230469 54.43300781 -57.1328125 54.4921875 C-56.40835938 54.49476562 -55.68390625 54.49734375 -54.9375 54.5 C-54.98970703 53.14455078 -54.98970703 53.14455078 -55.04296875 51.76171875 C-55.07003906 50.58222656 -55.09710938 49.40273437 -55.125 48.1875 C-55.15980469 47.01574219 -55.19460937 45.84398437 -55.23046875 44.63671875 C-54.9375 41.5 -54.9375 41.5 -53.875 39.59375 C-50.85840515 37.89083355 -48.17113509 38.21834032 -44.75 38.3125 C-42.84154297 38.35310547 -42.84154297 38.35310547 -40.89453125 38.39453125 C-39.43080078 38.44673828 -39.43080078 38.44673828 -37.9375 38.5 C-38.07929038 36.27057252 -38.22609698 34.04146372 -38.375 31.8125 C-38.45621094 30.57113281 -38.53742188 29.32976563 -38.62109375 28.05078125 C-38.8576343 24.60084036 -38.8576343 24.60084036 -39.53515625 21.66796875 C-39.9375 19.5 -39.9375 19.5 -38.9375 17.5 C-37.2875 17.83 -35.6375 18.16 -33.9375 18.5 C-33.3125 20.375 -33.3125 20.375 -32.9375 22.5 C-33.5975 23.16 -34.2575 23.82 -34.9375 24.5 C-35.23809943 26.86509361 -35.43265012 29.24441881 -35.5625 31.625 C-35.748125 35.028125 -35.748125 35.028125 -35.9375 38.5 C-29.3375 38.5 -22.7375 38.5 -15.9375 38.5 C-17.25504463 32.72647352 -17.25504463 32.72647352 -20.0625 30.8125 C-23.19636336 26.94740186 -22.23463698 22.28720689 -21.9375 17.5 C-22.5975 17.5 -23.2575 17.5 -23.9375 17.5 C-25.0625 13.75 -25.0625 13.75 -23.9375 11.5 C-22.27138095 11.457279 -20.60367115 11.45936168 -18.9375 11.5 C-17.9375 12.5 -17.9375 12.5 -17.875 15.0625 C-17.895625 15.866875 -17.91625 16.67125 -17.9375 17.5 C-18.5975 17.5 -19.2575 17.5 -19.9375 17.5 C-19.91944876 24.50872529 -19.91944876 24.50872529 -16.375 30.25 C-15.570625 30.9925 -14.76625 31.735 -13.9375 32.5 C-13.9375 34.48 -13.9375 36.46 -13.9375 38.5 C-9.6475 38.5 -5.3575 38.5 -0.9375 38.5 C-0.99730716 34.39423851 -1.08426533 30.29220034 -1.1875 26.1875 C-1.20167969 25.02025391 -1.21585937 23.85300781 -1.23046875 22.65039062 C-1.26269531 21.53212891 -1.29492188 20.41386719 -1.328125 19.26171875 C-1.3595459 17.7142395 -1.3595459 17.7142395 -1.39160156 16.13549805 C-2.07658967 12.82850044 -3.20606408 12.31726977 -5.9375 10.5 C-6.43676965 7.14776095 -6.26438252 5.19008532 -4.8125 2.125 C-2.9375 0.5 -2.9375 0.5 0 0 Z M-49.9375 43.5 C-49.9375 74.19 -49.9375 104.88 -49.9375 136.5 C-16.6075 136.5 16.7225 136.5 51.0625 136.5 C51.0625 105.81 51.0625 75.12 51.0625 43.5 C17.7325 43.5 -15.5975 43.5 -49.9375 43.5 Z " fill="#0B0B0B" transform="translate(123.9375,34.5)"/>
<path d="M0 0 C3.0625 0.5 3.0625 0.5 5.4375 2.125 C7.53714453 5.19371124 7.68310815 6.85392711 7.0625 10.5 C6.40475586 10.93675049 5.74701172 11.37350098 5.06933594 11.82348633 C2.80664481 13.36081967 2.80664481 13.36081967 2.51660156 16.13549805 C2.4956543 17.16715088 2.47470703 18.19880371 2.453125 19.26171875 C2.42089844 20.37998047 2.38867188 21.49824219 2.35546875 22.65039062 C2.34128906 23.81763672 2.32710938 24.98488281 2.3125 26.1875 C2.26802734 27.95577148 2.26802734 27.95577148 2.22265625 29.75976562 C2.15188344 32.67324632 2.09922275 35.58592336 2.0625 38.5 C3.40828125 38.48259766 3.40828125 38.48259766 4.78125 38.46484375 C14.25201202 38.39635683 23.61849109 38.80504008 33.0625 39.5 C33.0625 40.82 33.0625 42.14 33.0625 43.5 C5.6725 43.5 -21.7175 43.5 -49.9375 43.5 C-49.9375 74.19 -49.9375 104.88 -49.9375 136.5 C-32.1175 136.5 -14.2975 136.5 4.0625 136.5 C4.0625 137.16 4.0625 137.82 4.0625 138.5 C0.16221775 141.10018816 -3.41184569 140.65085514 -7.9375 140.5 C-7.87949219 141.30824219 -7.82148437 142.11648437 -7.76171875 142.94921875 C-7.38474341 151.87814884 -7.38474341 151.87814884 -10.4375 155.3125 C-11.2625 156.034375 -12.0875 156.75625 -12.9375 157.5 C-13.52164702 161.12693382 -13.52164702 161.12693382 -12.9375 164.5 C-12.2775 165.16 -11.6175 165.82 -10.9375 166.5 C-11.3125 168.625 -11.3125 168.625 -11.9375 170.5 C-13.8125 171.125 -13.8125 171.125 -15.9375 171.5 C-16.5975 170.84 -17.2575 170.18 -17.9375 169.5 C-17.625 167.375 -17.625 167.375 -16.9375 164.5 C-16.85383061 163.16668771 -16.77052008 161.83335287 -16.6875 160.5 C-16.30595129 157.07877986 -16.10041717 156.65477131 -13.4375 154.125 C-9.69646898 150.19691743 -10.15078319 146.83207985 -9.9375 141.5 C-15.2175 141.5 -20.4975 141.5 -25.9375 141.5 C-25.9375 145.79 -25.9375 150.08 -25.9375 154.5 C-24.9475 154.83 -23.9575 155.16 -22.9375 155.5 C-23.2675 157.15 -23.5975 158.8 -23.9375 160.5 C-25.5875 160.5 -27.2375 160.5 -28.9375 160.5 C-29.31968767 158.84385343 -29.65145102 157.17542976 -29.9375 155.5 C-29.6075 155.17 -29.2775 154.84 -28.9375 154.5 C-28.70268307 152.31707226 -28.52386677 150.12796826 -28.375 147.9375 C-28.24931641 146.14119141 -28.24931641 146.14119141 -28.12109375 144.30859375 C-28.06050781 143.38175781 -27.99992187 142.45492187 -27.9375 141.5 C-31.2375 141.5 -34.5375 141.5 -37.9375 141.5 C-37.73125 142.94375 -37.525 144.3875 -37.3125 145.875 C-37.36810014 150.74696183 -38.68173475 153.34739672 -41.8125 157.0625 C-47.97855737 162.75015637 -54.01561593 162.51843831 -61.9609375 162.33984375 C-66.06271158 162.5050429 -67.02271753 162.86773782 -69.9375 165.5 C-73.4178645 165.42897215 -75.23235909 165.11415498 -77.875 162.8125 C-79.32300221 159.66096578 -78.867426 157.79050737 -77.9375 154.5 C-75.9375 152.5 -75.9375 152.5 -72 152.125 C-68.25039483 152.20666109 -68.25039483 152.20666109 -65.9375 154.375 C-64.9375 156.5 -64.9375 156.5 -64.9375 158.5 C-53.9710386 159.01332819 -53.9710386 159.01332819 -44.5 154.5 C-41.3450514 150.54809823 -40.85898152 146.44666434 -40.9375 141.5 C-41.69675781 141.53480469 -42.45601562 141.56960937 -43.23828125 141.60546875 C-44.23214844 141.63253906 -45.22601563 141.65960938 -46.25 141.6875 C-47.23613281 141.72230469 -48.22226563 141.75710937 -49.23828125 141.79296875 C-51.9375 141.5 -51.9375 141.5 -53.78125 140.46875 C-55.58564328 137.39640469 -55.25065622 134.26321304 -55.125 130.8125 C-55.10469727 129.7596582 -55.10469727 129.7596582 -55.08398438 128.68554688 C-55.04870182 126.95670171 -54.99489583 125.22825235 -54.9375 123.5 C-61.32220125 123.31849939 -61.32220125 123.31849939 -66.80859375 126.08984375 C-67.34613281 126.72019531 -67.88367188 127.35054688 -68.4375 128 C-71.23643958 131.28105358 -73.00915577 132.02146747 -77.3125 132.375 C-78.16585937 132.39304688 -79.01921875 132.41109375 -79.8984375 132.4296875 C-81.93261361 132.26767419 -81.93261361 132.26767419 -82.9375 133.5 C-84.60367115 133.54063832 -86.27138095 133.542721 -87.9375 133.5 C-88.5625 131.625 -88.5625 131.625 -88.9375 129.5 C-87.9475 128.51 -87.9475 128.51 -86.9375 127.5 C-85.26693851 127.81323028 -83.60144675 128.15334443 -81.9375 128.5 C-78.49748085 128.97092082 -75.35350541 129.20981931 -71.9375 128.5 C-70.27512871 126.9680529 -70.27512871 126.9680529 -69 125 C-67.65234375 123.05859375 -67.65234375 123.05859375 -65.9375 121.5 C-62.08385321 120.86219198 -58.87406397 121.16395186 -54.9375 121.5 C-54.9375 117.54 -54.9375 113.58 -54.9375 109.5 C-57.16692748 109.64179038 -59.39603628 109.78859698 -61.625 109.9375 C-62.86636719 110.01871094 -64.10773438 110.09992188 -65.38671875 110.18359375 C-68.84161733 110.40813656 -68.84161733 110.40813656 -71.76953125 111.16015625 C-72.84267578 111.32837891 -72.84267578 111.32837891 -73.9375 111.5 C-74.5975 110.84 -75.2575 110.18 -75.9375 109.5 C-75.5625 107.375 -75.5625 107.375 -74.9375 105.5 C-73.0625 104.875 -73.0625 104.875 -70.9375 104.5 C-70.2775 105.16 -69.6175 105.82 -68.9375 106.5 C-64.28082856 107.09185512 -59.62817934 107.24414476 -54.9375 107.5 C-54.9375 102.22 -54.9375 96.94 -54.9375 91.5 C-63.1875 91.5 -71.4375 91.5 -79.9375 91.5 C-80.5975 92.82 -81.2575 94.14 -81.9375 95.5 C-85.3125 96.5 -85.3125 96.5 -88.9375 96.5 C-91.4375 95 -91.4375 95 -92.9375 92.5 C-92.875 88.875 -92.875 88.875 -91.9375 85.5 C-88.46826119 83.18717413 -87.01544425 83.07521414 -82.9375 83.5 C-81.0625 84.875 -81.0625 84.875 -79.9375 86.5 C-79.9375 87.16 -79.9375 87.82 -79.9375 88.5 C-71.6875 88.5 -63.4375 88.5 -54.9375 88.5 C-54.9375 82.89 -54.9375 77.28 -54.9375 71.5 C-59.8875 71.5 -64.8375 71.5 -69.9375 71.5 C-69.9375 72.16 -69.9375 72.82 -69.9375 73.5 C-71.5875 73.5 -73.2375 73.5 -74.9375 73.5 C-75.2675 71.85 -75.5975 70.2 -75.9375 68.5 C-74.9475 68.5 -73.9575 68.5 -72.9375 68.5 C-73.2675 69.49 -73.5975 70.48 -73.9375 71.5 C-72.9475 71.5 -71.9575 71.5 -70.9375 71.5 C-70.4425 70.015 -70.4425 70.015 -69.9375 68.5 C-64.9875 68.83 -60.0375 69.16 -54.9375 69.5 C-54.9375 65.54 -54.9375 61.58 -54.9375 57.5 C-56.731875 57.685625 -58.52625 57.87125 -60.375 58.0625 C-65.3529187 58.00941793 -68.26231135 57.32106335 -72.125 54.125 C-76.80128918 48.8872209 -76.85838797 43.51859471 -76.69018555 36.79736328 C-76.48959291 32.05793381 -76.48959291 32.05793381 -78.91796875 28.11328125 C-79.58441406 27.58089844 -80.25085938 27.04851563 -80.9375 26.5 C-81.4375 24 -81.4375 24 -80.9375 21.5 C-79.3125 19.1875 -79.3125 19.1875 -76.9375 17.5 C-73.76514724 17.04680675 -71.87262264 16.97009717 -69.0625 18.5625 C-67.29476726 21.6069286 -67.56926084 24.0631012 -67.9375 27.5 C-69.3125 29.4375 -69.3125 29.4375 -70.9375 30.5 C-71.5975 30.5 -72.2575 30.5 -72.9375 30.5 C-72.93145857 33.21260034 -72.88384292 35.91396891 -72.8125 38.625 C-72.81507812 39.38554688 -72.81765625 40.14609375 -72.8203125 40.9296875 C-72.67424381 45.16567948 -72.16575032 47.81857767 -69.25 51 C-66.30669792 53.55004251 -64.00494561 54.27884279 -60.0625 54.375 C-58.61230469 54.43300781 -58.61230469 54.43300781 -57.1328125 54.4921875 C-56.40835938 54.49476562 -55.68390625 54.49734375 -54.9375 54.5 C-54.98970703 53.14455078 -54.98970703 53.14455078 -55.04296875 51.76171875 C-55.07003906 50.58222656 -55.09710938 49.40273437 -55.125 48.1875 C-55.15980469 47.01574219 -55.19460937 45.84398437 -55.23046875 44.63671875 C-54.9375 41.5 -54.9375 41.5 -53.875 39.59375 C-50.85840515 37.89083355 -48.17113509 38.21834032 -44.75 38.3125 C-42.84154297 38.35310547 -42.84154297 38.35310547 -40.89453125 38.39453125 C-39.43080078 38.44673828 -39.43080078 38.44673828 -37.9375 38.5 C-38.07929038 36.27057252 -38.22609698 34.04146372 -38.375 31.8125 C-38.45621094 30.57113281 -38.53742188 29.32976563 -38.62109375 28.05078125 C-38.8576343 24.60084036 -38.8576343 24.60084036 -39.53515625 21.66796875 C-39.9375 19.5 -39.9375 19.5 -38.9375 17.5 C-37.2875 17.83 -35.6375 18.16 -33.9375 18.5 C-33.3125 20.375 -33.3125 20.375 -32.9375 22.5 C-33.5975 23.16 -34.2575 23.82 -34.9375 24.5 C-35.23809943 26.86509361 -35.43265012 29.24441881 -35.5625 31.625 C-35.748125 35.028125 -35.748125 35.028125 -35.9375 38.5 C-29.3375 38.5 -22.7375 38.5 -15.9375 38.5 C-17.25504463 32.72647352 -17.25504463 32.72647352 -20.0625 30.8125 C-23.19636336 26.94740186 -22.23463698 22.28720689 -21.9375 17.5 C-22.5975 17.5 -23.2575 17.5 -23.9375 17.5 C-25.0625 13.75 -25.0625 13.75 -23.9375 11.5 C-22.27138095 11.457279 -20.60367115 11.45936168 -18.9375 11.5 C-17.9375 12.5 -17.9375 12.5 -17.875 15.0625 C-17.895625 15.866875 -17.91625 16.67125 -17.9375 17.5 C-18.5975 17.5 -19.2575 17.5 -19.9375 17.5 C-19.91944876 24.50872529 -19.91944876 24.50872529 -16.375 30.25 C-15.570625 30.9925 -14.76625 31.735 -13.9375 32.5 C-13.9375 34.48 -13.9375 36.46 -13.9375 38.5 C-9.6475 38.5 -5.3575 38.5 -0.9375 38.5 C-0.99730716 34.39423851 -1.08426533 30.29220034 -1.1875 26.1875 C-1.20167969 25.02025391 -1.21585937 23.85300781 -1.23046875 22.65039062 C-1.26269531 21.53212891 -1.29492188 20.41386719 -1.328125 19.26171875 C-1.3595459 17.7142395 -1.3595459 17.7142395 -1.39160156 16.13549805 C-2.07658967 12.82850044 -3.20606408 12.31726977 -5.9375 10.5 C-6.43676965 7.14776095 -6.26438252 5.19008532 -4.8125 2.125 C-2.9375 0.5 -2.9375 0.5 0 0 Z " fill="#090909" transform="translate(123.9375,34.5)"/>
<path d="M0 0 C2.97 0 5.94 0 9 0 C11.93321756 7.04685282 14.45384236 14.1597643 16.75 21.4375 C17.06582031 22.41654297 17.38164062 23.39558594 17.70703125 24.40429688 C18.00480469 25.34208984 18.30257812 26.27988281 18.609375 27.24609375 C18.87717773 28.08841553 19.14498047 28.9307373 19.42089844 29.79858398 C20 32 20 32 20 35 C17.69 35 15.38 35 13 35 C12.01 32.03 11.02 29.06 10 26 C6.37 26 2.74 26 -1 26 C-1.99 28.97 -2.98 31.94 -4 35 C-5.98 35 -7.96 35 -10 35 C-8.65242215 27.04726593 -6.39334957 19.52793509 -3.875 11.875 C-3.50246094 10.72773437 -3.12992187 9.58046875 -2.74609375 8.3984375 C-1.83572012 5.59728787 -0.92027251 2.79790983 0 0 Z " fill="#141414" transform="translate(114,96)"/>
<path d="M0 0 C0.33 0 0.66 0 1 0 C1 1.65 1 3.3 1 5 C5.95 5 10.9 5 16 5 C16 4.34 16 3.68 16 3 C17.65 3 19.3 3 21 3 C21.625 5.375 21.625 5.375 22 8 C21.34 8.66 20.68 9.32 20 10 C16.46428571 9.46428571 16.46428571 9.46428571 15 8 C12.65012738 7.76472227 10.29443961 7.58613583 7.9375 7.4375 C6.00197266 7.31181641 6.00197266 7.31181641 4.02734375 7.18359375 C2.52880859 7.09271484 2.52880859 7.09271484 1 7 C1 9.31 1 11.62 1 14 C2.03447266 13.84337891 2.03447266 13.84337891 3.08984375 13.68359375 C8.80203084 13.18994795 12.64072958 13.64901937 17.1875 17.3125 C22.18142736 22.82181488 21.73405342 28.66282707 21.4597168 35.69848633 C21.33731441 37.80101319 21.17295708 39.90102706 21 42 C22.32 42.33 23.64 42.66 25 43 C26.31720856 49.22680412 26.31720856 49.22680412 25 52.4375 C23 54 23 54 19.5 54.4375 C16 54 16 54 14.0625 52.875 C12.48891696 50.09808875 12.61579101 48.13770673 13 45 C14.375 42.625 14.375 42.625 16 41 C16.66 41 17.32 41 18 41 C17.99395857 38.28739966 17.94634292 35.58603109 17.875 32.875 C17.87757813 32.11445313 17.88015625 31.35390625 17.8828125 30.5703125 C17.73605949 26.31447512 17.22527787 23.68327167 14.28125 20.5 C11.49460139 18.08568022 9.37275151 17.22629058 5.625 17.125 C4.09875 17.08375 2.5725 17.0425 1 17 C1 20.96 1 24.92 1 29 C0.67 29 0.34 29 0 29 C-0.16820551 27.06263299 -0.33451095 25.12510094 -0.5 23.1875 C-0.5928125 22.10855469 -0.685625 21.02960938 -0.78125 19.91796875 C-1.11612595 15.45096274 -0.66762065 11.42298678 0 7 C-0.66 7 -1.32 7 -2 7 C-2 6.34 -2 5.68 -2 5 C-1.34 5 -0.68 5 0 5 C0 3.35 0 1.7 0 0 Z " fill="#212121" transform="translate(179,144)"/>
<path d="M0 0 C4.10486132 -0.10762928 8.20692052 -0.18714805 12.3125 -0.25 C13.47974609 -0.28351563 14.64699219 -0.31703125 15.84960938 -0.3515625 C17.52700195 -0.37089844 17.52700195 -0.37089844 19.23828125 -0.390625 C20.26993408 -0.41157227 21.30158691 -0.43251953 22.36450195 -0.45410156 C25 0 25 0 26.69213867 1.97753906 C27.33953003 2.97865723 27.33953003 2.97865723 28 4 C30.59855733 4.8042208 30.59855733 4.8042208 33 5 C33 5.33 33 5.66 33 6 C31.35 6 29.7 6 28 6 C27.67 6.66 27.34 7.32 27 8 C24.54594866 8.71246652 22.20684371 8.99379469 19.65625 9.0703125 C14.59936445 9.17597203 14.59936445 9.17597203 10.23046875 11.3984375 C8.74070175 13.01721622 8.74070175 13.01721622 7.546875 14.72265625 C6 16 6 16 0 16 C0 10.72 0 5.44 0 0 Z " fill="#F8F8F8" transform="translate(180,126)"/>
<path d="M0 0 C2 1.625 2 1.625 3 4 C2.78526244 9.26107018 2.78526244 9.26107018 0.47729492 11.43286133 C-1.35993318 13.38182301 -1.41243709 14.37082666 -1.51171875 17.01171875 C-1.54716797 17.76904297 -1.58261719 18.52636719 -1.61914062 19.30664062 C-1.64169922 20.09232422 -1.66425781 20.87800781 -1.6875 21.6875 C-1.72166016 22.48478516 -1.75582031 23.28207031 -1.79101562 24.10351562 C-1.87338104 26.06851904 -1.93837067 28.03423696 -2 30 C1.3 30 4.6 30 8 30 C8 30.33 8 30.66 8 31 C3.71 31 -0.58 31 -5 31 C-5.33 31.66 -5.66 32.32 -6 33 C-6 32.34 -6 31.68 -6 31 C-7.14339844 31.01160156 -8.28679687 31.02320312 -9.46484375 31.03515625 C-10.95572754 31.04453288 -12.44661309 31.05363321 -13.9375 31.0625 C-14.69224609 31.07087891 -15.44699219 31.07925781 -16.22460938 31.08789062 C-18.14994313 31.09652441 -20.07535581 31.05224333 -22 31 C-23.83261503 29.16738497 -23.34481564 26.2218651 -23.5 23.75 C-23.75391469 19.74177532 -24.11567191 15.92052118 -25 12 C-22.625 11.375 -22.625 11.375 -20 11 C-19.34 11.66 -18.68 12.32 -18 13 C-18.53571429 16.53571429 -18.53571429 16.53571429 -20 18 C-20.23427778 20.01594582 -20.41336124 22.038474 -20.5625 24.0625 C-20.706875 26.021875 -20.85125 27.98125 -21 30 C-15.72 30 -10.44 30 -5 30 C-5.06009392 27.24769852 -5.14712621 24.5007556 -5.25 21.75 C-5.26417969 20.97269531 -5.27835938 20.19539063 -5.29296875 19.39453125 C-5.45486395 14.59669753 -5.45486395 14.59669753 -8.01953125 10.64453125 C-8.67308594 10.10183594 -9.32664063 9.55914062 -10 9 C-10.45319325 5.82764724 -10.52990283 3.93512264 -8.9375 1.125 C-5.85928089 -0.66235303 -3.47093932 -0.43386742 0 0 Z " fill="#303030" transform="translate(163,43)"/>
<path d="M0 0 C2.97 0 5.94 0 9 0 C9 0.99 9 1.98 9 3 C8.01 3 7.02 3 6 3 C6 3.66 6 4.32 6 5 C5.34 5 4.68 5 4 5 C3.8453125 6.4540625 3.8453125 6.4540625 3.6875 7.9375 C3.05370121 12.48593839 1.55244173 16.69417104 0 21 C2.64 21 5.28 21 8 21 C8 22.32 8 23.64 8 25 C5.03 25.33 2.06 25.66 -1 26 C-1.99 28.97 -2.98 31.94 -4 35 C-5.98 35 -7.96 35 -10 35 C-8.65242215 27.04726593 -6.39334957 19.52793509 -3.875 11.875 C-3.50246094 10.72773437 -3.12992187 9.58046875 -2.74609375 8.3984375 C-1.83572012 5.59728787 -0.92027251 2.79790983 0 0 Z " fill="#0D0D0D" transform="translate(114,96)"/>
<path d="M0 0 C2.31 0 4.62 0 7 0 C7.11591764 4.10393012 7.18715601 8.20744106 7.25 12.3125 C7.28351563 13.47974609 7.31703125 14.64699219 7.3515625 15.84960938 C7.36445312 16.96787109 7.37734375 18.08613281 7.390625 19.23828125 C7.41157227 20.26993408 7.43251953 21.30158691 7.45410156 22.36450195 C7 25 7 25 5.10058594 26.86010742 C3 28 3 28 1 28 C1 27.34 1 26.68 1 26 C-0.32 26.33 -1.64 26.66 -3 27 C-5.40096632 24.49899342 -5.99318044 23.04688447 -6.5 19.5625 C-6 16 -6 16 -3.5625 13.75 C0.24642733 9.66237067 -0.10421298 5.40960093 0 0 Z " fill="#F7F7F7" transform="translate(116,176)"/>
<path d="M0 0 C2 1 2 1 2.765625 2.71484375 C3.64499792 6.75003078 3.48462108 9.12077652 1.46484375 12.78515625 C-2.30726781 17.28192733 -5.62249915 20.08776971 -11.53515625 20.74609375 C-14.70957142 20.94138308 -17.84566111 20.91092424 -21.0234375 20.83984375 C-25.12521158 21.0050429 -26.08521753 21.36773782 -29 24 C-32.4803645 23.92897215 -34.29485909 23.61415498 -36.9375 21.3125 C-38.38550221 18.16096578 -37.929926 16.29050737 -37 13 C-35 11 -35 11 -31.0625 10.625 C-27.31289483 10.70666109 -27.31289483 10.70666109 -25 12.875 C-24 15 -24 15 -24 17 C-13.0335386 17.51332819 -13.0335386 17.51332819 -3.5625 13 C-0.4075514 9.04809823 0.07851848 4.94666434 0 0 Z " fill="#141414" transform="translate(83,176)"/>
<path d="M0 0 C2.31 0 4.62 0 7 0 C7 11.55 7 23.1 7 35 C4.69 35 2.38 35 0 35 C0 23.45 0 11.9 0 0 Z " fill="#141414" transform="translate(139,96)"/>
<path d="M0 0 C0.33 0.66 0.66 1.32 1 2 C3.97 2 6.94 2 10 2 C10 2.33 10 2.66 10 3 C7.03 3 4.06 3 1 3 C1.0517332 7.10520809 1.14677764 11.20828913 1.25 15.3125 C1.26417969 16.47974609 1.27835938 17.64699219 1.29296875 18.84960938 C1.32519531 19.96787109 1.35742188 21.08613281 1.390625 22.23828125 C1.41157227 23.26993408 1.43251953 24.30158691 1.45410156 25.36450195 C2.13917253 28.67189956 3.26607025 29.18463582 6 31 C6.62060815 34.64607289 6.47464453 36.30628876 4.375 39.375 C1.30628876 41.47464453 -0.35392711 41.62060815 -4 41 C-6.59814888 38.74827097 -6.95716454 37.34982295 -7.375 33.9375 C-7 31 -7 31 -5.625 29.125 C-4 28 -4 28 -2 28 C-2 19.75 -2 11.5 -2 3 C-4.31 3 -6.62 3 -9 3 C-9 2.67 -9 2.34 -9 2 C-6.94921875 1.77213542 -4.8984375 1.54427083 -2.84765625 1.31640625 C-0.98859771 1.18113386 -0.98859771 1.18113386 0 0 Z " fill="#151515" transform="translate(125,173)"/>
<path d="M0 0 C1.875 1.375 1.875 1.375 3 3 C3 3.66 3 4.32 3 5 C3.74685059 4.98428955 4.49370117 4.9685791 5.26318359 4.95239258 C8.63371261 4.89018923 12.00412112 4.8510558 15.375 4.8125 C16.550625 4.78736328 17.72625 4.76222656 18.9375 4.73632812 C20.61972656 4.72182617 20.61972656 4.72182617 22.3359375 4.70703125 C23.37282715 4.6913208 24.4097168 4.67561035 25.47802734 4.65942383 C26.31027832 4.77181396 27.1425293 4.8842041 28 5 C30.57860235 8.86790352 30.01114505 11.76613915 29.625 16.1875 C29.53992188 17.31188477 29.53992188 17.31188477 29.453125 18.45898438 C29.31189331 20.30676559 29.15723833 22.153512 29 24 C28.67 24 28.34 24 28 24 C28 18.72 28 13.44 28 8 C19.75 8 11.5 8 3 8 C2.34 9.32 1.68 10.64 1 12 C-2.375 13 -2.375 13 -6 13 C-8.5 11.5 -8.5 11.5 -10 9 C-9.9375 5.375 -9.9375 5.375 -9 2 C-5.53076119 -0.31282587 -4.07794425 -0.42478586 0 0 Z " fill="#151515" transform="translate(41,118)"/>
<path d="M0 0 C2.31 0 4.62 0 7 0 C7 0.66 7 1.32 7 2 C5.68 2 4.36 2 3 2 C3 2.66 3 3.32 3 4 C4.32 4 5.64 4 7 4 C7.33 2.68 7.66 1.36 8 0 C13.41538462 -0.36923077 13.41538462 -0.36923077 16.375 1.5 C16.91125 1.995 17.4475 2.49 18 3 C17.74438677 5.3431213 17.40729228 7.67843403 17 10 C13.93466836 11.53266582 10.73245728 11.10276471 7.375 11.0625 C6.66859375 11.05798828 5.9621875 11.05347656 5.234375 11.04882812 C3.48954725 11.03703875 1.744763 11.01910324 0 11 C0 7.37 0 3.74 0 0 Z " fill="#2A2A2A" transform="translate(148,142)"/>
<path d="M0 0 C2.375 1.5625 2.375 1.5625 4 4 C4 7.625 4 7.625 3 11 C1.0625 12.5 1.0625 12.5 -1 13 C-1.66 12.67 -2.32 12.34 -3 12 C-3 18.27 -3 24.54 -3 31 C-3.66 30.67 -4.32 30.34 -5 30 C-4.67 24.39 -4.34 18.78 -4 13 C-5.32 12.67 -6.64 12.34 -8 12 C-9.54163175 8.9167365 -9.29747535 6.39121901 -9 3 C-6.35893733 -0.03233122 -3.92985113 -0.68772395 0 0 Z " fill="#292929" transform="translate(202,55)"/>
<path d="M0 0 C1.875 1.0625 1.875 1.0625 3 3 C3.651622 9.08180536 3.651622 9.08180536 1.625 11.9375 C0 13 0 13 -2 13 C-2 18.28 -2 23.56 -2 29 C-2.33 29 -2.66 29 -3 29 C-3.03867187 27.30230469 -3.03867187 27.30230469 -3.078125 25.5703125 C-3.13439626 24.08850257 -3.19174382 22.60673323 -3.25 21.125 C-3.26417969 20.37863281 -3.27835938 19.63226563 -3.29296875 18.86328125 C-3.35986341 16.42861619 -3.35986341 16.42861619 -4 13 C-5.83687723 11.51851445 -5.83687723 11.51851445 -8 11 C-10 9 -10 9 -10.375 6.625 C-10 4 -10 4 -8.375 1.6875 C-5.3258758 -0.47898298 -3.66762206 -0.54624158 0 0 Z " fill="#1B1B1B" transform="translate(53,52)"/>
<path d="M0 0 C4.455 0.99 4.455 0.99 9 2 C9 2.66 9 3.32 9 4 C7.35 4 5.7 4 4 4 C4 4.99 4 5.98 4 7 C5.32 7.33 6.64 7.66 8 8 C6.68 8 5.36 8 4 8 C4 9.32 4 10.64 4 12 C5.65 12 7.3 12 9 12 C9 12.33 9 12.66 9 13 C6.37438891 13.08074203 3.75124324 13.1403623 1.125 13.1875 C0.00544922 13.22520508 0.00544922 13.22520508 -1.13671875 13.26367188 C-3.3046875 13.29296875 -3.3046875 13.29296875 -7 13 C-9.15502531 9.76746204 -9.46856135 8.74849077 -9 5 C-7.875 3.1875 -7.875 3.1875 -6 2 C-2.8125 1.8125 -2.8125 1.8125 0 2 C0 1.34 0 0.68 0 0 Z " fill="#E1E1E1" transform="translate(92,140)"/>
<path d="M0 0 C2.29141286 -0.05384521 4.58318188 -0.09272087 6.875 -0.125 C8.78925781 -0.15980469 8.78925781 -0.15980469 10.7421875 -0.1953125 C14 0 14 0 16 2 C16.1953125 4.1640625 16.1953125 4.1640625 16.125 6.625 C16.10695312 7.44226563 16.08890625 8.25953125 16.0703125 9.1015625 C16.04710937 9.72804687 16.02390625 10.35453125 16 11 C15.34 11 14.68 11 14 11 C13.67 10.01 13.34 9.02 13 8 C12.34 7.67 11.68 7.34 11 7 C11 8.32 11 9.64 11 11 C10.01 11 9.02 11 8 11 C7.67 10.01 7.34 9.02 7 8 C4.98491642 7.26676204 4.98491642 7.26676204 3 7 C3 7.66 3 8.32 3 9 C4.32 9 5.64 9 7 9 C7 9.66 7 10.32 7 11 C4.69 11 2.38 11 0 11 C0 7.37 0 3.74 0 0 Z " fill="#7B7B7B" transform="translate(113,142)"/>
<path d="M0 0 C3.0625 0.5 3.0625 0.5 5.4375 2.125 C7.0625 4.5 7.0625 4.5 7.6875 7.5 C7.0625 10.5 7.0625 10.5 4.0625 12.875 C3.0725 13.41125 2.0825 13.9475 1.0625 14.5 C1.0625 13.84 1.0625 13.18 1.0625 12.5 C0.27875 12.54125 -0.505 12.5825 -1.3125 12.625 C-3.9375 12.5 -3.9375 12.5 -5.9375 10.5 C-6.29435017 7.21697841 -6.23357814 5.12505385 -4.8125 2.125 C-2.9375 0.5 -2.9375 0.5 0 0 Z " fill="#131313" transform="translate(123.9375,34.5)"/>
<path d="M0 0 C0 1.32 0 2.64 0 4 C-11.55 4 -23.1 4 -35 4 C-34.67 3.01 -34.34 2.02 -34 1 C-24.86629809 -3.56685096 -9.87862371 -0.78593702 0 0 Z " fill="#050505" transform="translate(157,74)"/>
<path d="M0 0 C4.29 0 8.58 0 13 0 C13 0.66 13 1.32 13 2 C12.01 2 11.02 2 10 2 C10 5.3 10 8.6 10 12 C7 13 7 13 4.8125 12.0625 C4.214375 11.711875 3.61625 11.36125 3 11 C3 10.01 3 9.02 3 8 C1.68 8 0.36 8 -1 8 C-1 8.99 -1 9.98 -1 11 C-1.66 11 -2.32 11 -3 11 C-3.39253254 6.55129785 -2.15305957 3.85756507 0 0 Z " fill="#EAEAEA" transform="translate(134,142)"/>
<path d="M0 0 C2 0.66666667 4 1.33333333 6 2 C6.99 2 7.98 2 9 2 C10.31720856 8.22680412 10.31720856 8.22680412 9 11.4375 C7 13 7 13 3.5 13.4375 C0 13 0 13 -1.9375 11.875 C-3.51108304 9.09808875 -3.38420899 7.13770673 -3 4 C-1.5 1.625 -1.5 1.625 0 0 Z " fill="#222222" transform="translate(195,185)"/>
<path d="M0 0 C-0.33 0.66 -0.66 1.32 -1 2 C4.94 2.33 10.88 2.66 17 3 C17 3.33 17 3.66 17 4 C11.72 4 6.44 4 1 4 C1 8.29 1 12.58 1 17 C1.99 17.33 2.98 17.66 4 18 C3.67 19.65 3.34 21.3 3 23 C1.35 23 -0.3 23 -2 23 C-2.38218767 21.34385343 -2.71395102 19.67542976 -3 18 C-2.67 17.67 -2.34 17.34 -2 17 C-1.76518307 14.81707226 -1.58636677 12.62796826 -1.4375 10.4375 C-1.35371094 9.23996094 -1.26992187 8.04242188 -1.18359375 6.80859375 C-1.12300781 5.88175781 -1.06242187 4.95492187 -1 4 C-4.3 4 -7.6 4 -11 4 C-11 2.68 -11 1.36 -11 0 C-3.375 -1.125 -3.375 -1.125 0 0 Z " fill="#1F1F1F" transform="translate(97,172)"/>
<path d="M0 0 C0.33 0 0.66 0 1 0 C1.98945341 9.87931171 1.8984165 19.13124027 1 29 C0.67 29 0.34 29 0 29 C0 24.05 0 19.1 0 14 C-6.40516173 13.84002523 -6.40516173 13.84002523 -11.87109375 16.58984375 C-12.40863281 17.22019531 -12.94617188 17.85054687 -13.5 18.5 C-16.29893958 21.78105358 -18.07165577 22.52146747 -22.375 22.875 C-23.22835937 22.89304688 -24.08171875 22.91109375 -24.9609375 22.9296875 C-26.99511361 22.76767419 -26.99511361 22.76767419 -28 24 C-29.66617115 24.04063832 -31.33388095 24.042721 -33 24 C-33.625 22.125 -33.625 22.125 -34 20 C-33.34 19.34 -32.68 18.68 -32 18 C-30.32943851 18.31323028 -28.66394675 18.65334443 -27 19 C-23.55998085 19.47092082 -20.41600541 19.70981931 -17 19 C-15.33762871 17.4680529 -15.33762871 17.4680529 -14.0625 15.5 C-12.71484375 13.55859375 -12.71484375 13.55859375 -11 12 C-7.14635321 11.36219198 -3.93656397 11.66395186 0 12 C0 8.04 0 4.08 0 0 Z " fill="#303030" transform="translate(69,144)"/>
<path d="M0 0 C1.9375 0.5625 1.9375 0.5625 4 2 C5 5.375 5 5.375 5 9 C3.4375 11.4375 3.4375 11.4375 1 13 C-2.0625 13.4375 -2.0625 13.4375 -5 13 C-6.875 11.5 -6.875 11.5 -8 10 C-6.63029745 7.04987143 -5.17390875 4.4347778 -3 2 C-2.01 2 -1.02 2 0 2 C0 1.34 0 0.68 0 0 Z " fill="#1B1B1B" transform="translate(213,118)"/>
<path d="M0 0 C0.32152515 3.53677664 0.4131192 5.3962104 -1.625 8.375 C-4.69371124 10.47464453 -6.35392711 10.62060815 -10 10 C-11.9375 8.3125 -11.9375 8.3125 -13 6 C-12.6875 3.25 -12.6875 3.25 -12 1 C-10.56496445 0.63597631 -9.12683494 0.28413409 -7.6875 -0.0625 C-6.88699219 -0.25972656 -6.08648437 -0.45695313 -5.26171875 -0.66015625 C-3 -1 -3 -1 0 0 Z " fill="#181818" transform="translate(131,204)"/>
<path d="M0 0 C0 0.66 0 1.32 0 2 C-0.598125 2.2475 -1.19625 2.495 -1.8125 2.75 C-4.1289219 3.84167433 -4.1289219 3.84167433 -5.26293945 6.05371094 C-7 8 -7 8 -9.72729492 8.45410156 C-10.80084229 8.4331543 -11.87438965 8.41220703 -12.98046875 8.390625 C-14.14384766 8.37773438 -15.30722656 8.36484375 -16.50585938 8.3515625 C-17.72080078 8.31804687 -18.93574219 8.28453125 -20.1875 8.25 C-21.41404297 8.23195313 -22.64058594 8.21390625 -23.90429688 8.1953125 C-26.93697759 8.14811124 -29.96810087 8.08227677 -33 8 C-33 7.01 -33 6.02 -33 5 C-24.75 5 -16.5 5 -8 5 C-7.34 3.68 -6.68 2.36 -6 1 C-4 0 -4 0 0 0 Z " fill="#111111" transform="translate(213,118)"/>
<path d="M0 0 C0.33 0 0.66 0 1 0 C1 3.63 1 7.26 1 11 C3.27155498 10.91297874 5.54230743 10.80480478 7.8125 10.6875 C9.70935547 10.60048828 9.70935547 10.60048828 11.64453125 10.51171875 C14.93215221 10.26779062 14.93215221 10.26779062 16.9453125 8.6171875 C18.39906083 6.38810673 18.06700426 4.61316616 18 2 C18.66 1.34 19.32 0.68 20 0 C22.625 0.375 22.625 0.375 25 1 C24.31457736 6.08794501 22.60245178 8.35081003 18.7421875 11.6171875 C13.27761185 14.37282821 6.94802581 13.48792399 1 13 C1 14.98 1 16.96 1 19 C0.67 19 0.34 19 0 19 C0 12.73 0 6.46 0 0 Z " fill="#3E3E3E" transform="translate(179,96)"/>
<path d="M0 0 C1.875 0.40625 1.875 0.40625 3.875 2.40625 C4.205 3.06625 4.535 3.72625 4.875 4.40625 C4.545 5.06625 4.215 5.72625 3.875 6.40625 C3.545 6.07625 3.215 5.74625 2.875 5.40625 C1.39 7.88125 1.39 7.88125 -0.125 10.40625 C-1.07375 10.220625 -2.0225 10.035 -3 9.84375 C-6.02368793 9.11938368 -6.02368793 9.11938368 -8.125 10.40625 C-8.92739884 7.19665466 -9.42031307 5.15437645 -8.1875 2.03125 C-5.43296733 -0.13898786 -3.43892013 -0.15171706 0 0 Z " fill="#1B1B1B" transform="translate(54.125,186.59375)"/>
<path d="M0 0 C0.66 0 1.32 0 2 0 C3.49392348 16.16757184 3.49392348 16.16757184 0.16015625 22.48828125 C-3.2732701 26.23630274 -6.0468938 28.62996357 -11.11328125 29.58984375 C-13.82816071 29.62153495 -16.32720796 29.45732183 -19 29 C-18.01 27.515 -18.01 27.515 -17 26 C-15.03275706 25.83606309 -13.06545393 25.67276311 -11.09765625 25.515625 C-7.37529476 24.60063111 -5.52994338 21.76528695 -3 19 C-2.01 19 -1.02 19 0 19 C0 12.73 0 6.46 0 0 Z " fill="#0F0F0F" transform="translate(199,67)"/>
<path d="M0 0 C2.12472576 -0.05386629 4.24983652 -0.09273071 6.375 -0.125 C7.55835938 -0.14820312 8.74171875 -0.17140625 9.9609375 -0.1953125 C13 0 13 0 15 2 C15 2.99 15 3.98 15 5 C18.3 5 21.6 5 25 5 C25 5.33 25 5.66 25 6 C16.75 6 8.5 6 0 6 C0 4.02 0 2.04 0 0 Z " fill="#F1F1F1" transform="translate(180,117)"/>
<path d="M0 0 C1.12588014 0.95729916 2.2506715 1.91587895 3.375 2.875 C4.00148437 3.40867188 4.62796875 3.94234375 5.2734375 4.4921875 C8.96754865 7.71826647 8.96754865 7.71826647 9.22705078 9.97119141 C9.21134033 11.1494751 9.21134033 11.1494751 9.1953125 12.3515625 C9.18564453 13.62773437 9.18564453 13.62773437 9.17578125 14.9296875 C9.15902344 15.81914062 9.14226562 16.70859375 9.125 17.625 C9.11597656 18.5221875 9.10695312 19.419375 9.09765625 20.34375 C9.0740497 22.56276586 9.0411231 24.78125077 9 27 C9.66 27.33 10.32 27.66 11 28 C10 29 10 29 7.4375 29.0625 C6.633125 29.041875 5.82875 29.02125 5 29 C5.33 28.34 5.66 27.68 6 27 C6.04091471 24.03952826 5.99585622 21.14150503 5.875 18.1875 C5.8646875 17.37990234 5.854375 16.57230469 5.84375 15.74023438 C5.6553979 11.31758224 5.51789002 9.57252979 2.4453125 6.17578125 C1.63835937 5.45777344 0.83140625 4.73976562 0 4 C0 2.68 0 1.36 0 0 Z " fill="#262626" transform="translate(191,159)"/>
<path d="M0 0 C5.70520231 2.30635838 5.70520231 2.30635838 7.0625 5.5 C7 8 7 8 5.6875 9.8125 C4 11 4 11 2 11 C1.67 11.66 1.34 12.32 1 13 C-1.82790258 10.70232915 -2.91278296 9.61051925 -3.4375 5.9375 C-2.96865123 2.7895154 -2.49619254 1.87214441 0 0 Z " fill="#242424" transform="translate(156,43)"/>
<path d="M0 0 C2.31 0 4.62 0 7 0 C7 0.66 7 1.32 7 2 C5.68 2 4.36 2 3 2 C3 2.66 3 3.32 3 4 C4.32 4 5.64 4 7 4 C7.66 2.68 8.32 1.36 9 0 C9 3.63 9 7.26 9 11 C6.03 11 3.06 11 0 11 C0 7.37 0 3.74 0 0 Z " fill="#BCBCBC" transform="translate(148,142)"/>
<path d="M0 0 C1.67542976 0.28604898 3.34385343 0.61781233 5 1 C5 2.65 5 4.3 5 6 C1.25 7.125 1.25 7.125 -1 6 C-1 5.34 -1 4.68 -1 4 C-5.96616441 4.11901483 -9.08074422 4.23395352 -13 7.5 C-13.66 8.325 -14.32 9.15 -15 10 C-16 11 -16 11 -19.5625 11.0625 C-20.696875 11.041875 -21.83125 11.02125 -23 11 C-23 10.34 -23 9.68 -23 9 C-21.948125 8.773125 -20.89625 8.54625 -19.8125 8.3125 C-16.67765497 7.45072985 -15.99554663 6.99506518 -13.6875 4.4375 C-10.19529708 1.27015317 -7.69330515 1.33049193 -3.109375 1.140625 C-1.01396383 1.23346536 -1.01396383 1.23346536 0 0 Z " fill="#2F2F2F" transform="translate(203,133)"/>
<path d="M0 0 C0.33 0 0.66 0 1 0 C1.29242633 3.71056525 1.4462948 7.29837841 1 11 C-1.5 13.75 -1.5 13.75 -4 16 C-4.58414702 19.62693382 -4.58414702 19.62693382 -4 23 C-3.34 23.66 -2.68 24.32 -2 25 C-2.375 27.125 -2.375 27.125 -3 29 C-4.875 29.625 -4.875 29.625 -7 30 C-7.66 29.34 -8.32 28.68 -9 28 C-8.6875 25.875 -8.6875 25.875 -8 23 C-7.91633061 21.66668771 -7.83302008 20.33335287 -7.75 19 C-7.35157853 15.55136822 -6.92007512 14.90163092 -4.5625 12 C-2 10 -2 10 0 10 C0 6.7 0 3.4 0 0 Z " fill="#2A2A2A" transform="translate(115,176)"/>
<path d="M0 0 C1.66611905 -0.042721 3.33382885 -0.04063832 5 0 C6 1 6 1 6.0625 3.5625 C6.041875 4.366875 6.02125 5.17125 6 6 C5.34 6 4.68 6 4 6 C4.04507955 13.27675751 4.04507955 13.27675751 7.625 19.3125 C8.40875 20.199375 9.1925 21.08625 10 22 C9.8125 24.875 9.8125 24.875 9 27 C8.67 27 8.34 27 8 27 C7.7525 26.0925 7.505 25.185 7.25 24.25 C6.29212752 20.93879774 6.29212752 20.93879774 3.875 19.3125 C0.74113664 15.44740186 1.70286302 10.78720689 2 6 C1.34 6 0.68 6 0 6 C-1.125 2.25 -1.125 2.25 0 0 Z " fill="#2D2D2D" transform="translate(100,46)"/>
<path d="M0 0 C2.8125 -0.25 2.8125 -0.25 6 0 C7.9375 1.625 7.9375 1.625 9 4 C8.77962372 7.67293796 8.63033454 9.36966546 6 12 C5.01 12 4.02 12 3 12 C3.01160156 12.88042969 3.02320313 13.76085938 3.03515625 14.66796875 C3.04869141 16.41013672 3.04869141 16.41013672 3.0625 18.1875 C3.07410156 19.33605469 3.08570313 20.48460938 3.09765625 21.66796875 C3.01192832 24.59300586 2.67849023 27.16316291 2 30 C1.67 30 1.34 30 1 30 C0.88386796 26.89614789 0.81277971 23.79285338 0.75 20.6875 C0.71648437 19.80642578 0.68296875 18.92535156 0.6484375 18.01757812 C0.54887335 11.47123501 0.54887335 11.47123501 3.015625 8.89453125 C3.67046875 8.59933594 4.3253125 8.30414063 5 8 C4.81171228 5.55519921 4.81171228 5.55519921 4 3 C2.03241727 1.63979849 2.03241727 1.63979849 0 1 C0 0.67 0 0.34 0 0 Z " fill="#0C0C0C" transform="translate(157,43)"/>
<path d="M0 0 C2.125 0.375 2.125 0.375 4 1 C4.33 2.65 4.66 4.3 5 6 C4.01 6.33 3.02 6.66 2 7 C2.0825 7.9075 2.165 8.815 2.25 9.75 C1.93917001 13.79078988 0.77185534 14.22814466 -2 17 C-2.80765878 20.64721696 -2.80765878 20.64721696 -3 24 C-3.66 24 -4.32 24 -5 24 C-5.35370611 18.60598179 -5.35370611 18.60598179 -5 16 C-3 14.375 -3 14.375 -1 13 C-0.65676305 9.84222003 -0.92245309 7.34120642 -1.625 4.25 C-1.74875 3.5075 -1.8725 2.765 -2 2 C-1.34 1.34 -0.68 0.68 0 0 Z " fill="#272727" transform="translate(176,49)"/>
<path d="M0 0 C0.99 0 1.98 0 3 0 C4.30475618 2.60951236 4.11301572 4.52701285 4.09765625 7.4453125 C4.09443359 8.52167969 4.09121094 9.59804688 4.08789062 10.70703125 C4.07951172 11.83496094 4.07113281 12.96289062 4.0625 14.125 C4.05798828 15.26066406 4.05347656 16.39632812 4.04882812 17.56640625 C4.03701615 20.37765638 4.02054507 23.1888023 4 26 C3.01 26 2.02 26 1 26 C0.67 17.42 0.34 8.84 0 0 Z " fill="#0E0E0E" transform="translate(122,47)"/>
<path d="M0 0 C0.66 0 1.32 0 2 0 C2 5.28 2 10.56 2 16 C-1.63 16.33 -5.26 16.66 -9 17 C-9 17.66 -9 18.32 -9 19 C-9.66 19 -10.32 19 -11 19 C-11.33 19.99 -11.66 20.98 -12 22 C-12.99 22 -13.98 22 -15 22 C-15 24.97 -15 27.94 -15 31 C-15.33 31 -15.66 31 -16 31 C-16.0810206 28.89646505 -16.13919907 26.79204048 -16.1875 24.6875 C-16.22230469 23.51574219 -16.25710937 22.34398437 -16.29296875 21.13671875 C-16 18 -16 18 -14.9375 16.09375 C-10.44198622 13.55595996 -3.90987249 14.86486589 1 15 C0.67 10.05 0.34 5.1 0 0 Z " fill="#353535" transform="translate(85,58)"/>
<path d="M0 0 C2.11044382 3.16566573 2.75552077 5.51197415 3.625 9.1875 C3.88539062 10.27417969 4.14578125 11.36085938 4.4140625 12.48046875 C4.60742188 13.31191406 4.80078125 14.14335938 5 15 C2.36 15 -0.28 15 -3 15 C-2.44854729 9.76119922 -1.57077907 5.02649303 0 0 Z " fill="#EDECED" transform="translate(118,101)"/>
<path d="M0 0 C1.67662658 0.27894838 3.34252398 0.62361969 5 1 C7.10323534 1.0659735 9.20835724 1.08562245 11.3125 1.0625 C12.38113281 1.05347656 13.44976562 1.04445312 14.55078125 1.03515625 C15.76314453 1.01775391 15.76314453 1.01775391 17 1 C15 4 15 4 12.65234375 4.4765625 C11.30849609 4.55003906 11.30849609 4.55003906 9.9375 4.625 C6.6617361 4.56041737 6.6617361 4.56041737 4 6 C2.33382885 6.04063832 0.66611905 6.042721 -1 6 C-1.625 4.125 -1.625 4.125 -2 2 C-1.34 1.34 -0.68 0.68 0 0 Z " fill="#1D1D1D" transform="translate(37,162)"/>
<path d="M0 0 C3 1 3 1 4.1875 3.0625 C4.455625 3.701875 4.72375 4.34125 5 5 C5.33 3.35 5.66 1.7 6 0 C6.66 0 7.32 0 8 0 C8 3.63 8 7.26 8 11 C5 10 5 10 3 7 C2.67 8.32 2.34 9.64 2 11 C1.34 11 0.68 11 0 11 C0 7.37 0 3.74 0 0 Z " fill="#343434" transform="translate(103,142)"/>
<path d="M0 0 C1.65 0 3.3 0 5 0 C5.625 2.375 5.625 2.375 6 5 C5.34 5.66 4.68 6.32 4 7 C1.06546739 6.63318342 0.13562754 6.13562754 -2 4 C-5.12196336 3.53513282 -5.12196336 3.53513282 -8.625 3.375 C-9.81351563 3.30023438 -11.00203125 3.22546875 -12.2265625 3.1484375 C-13.14179688 3.09945312 -14.05703125 3.05046875 -15 3 C-15 2.67 -15 2.34 -15 2 C-10.05 2 -5.1 2 0 2 C0 1.34 0 0.68 0 0 Z " fill="#3B3B3B" transform="translate(195,147)"/>
<path d="M0 0 C0.33 0 0.66 0 1 0 C1.03738281 1.05960938 1.07476562 2.11921875 1.11328125 3.2109375 C1.17893258 4.59899424 1.24538021 5.98701349 1.3125 7.375 C1.33505859 8.07367188 1.35761719 8.77234375 1.38085938 9.4921875 C1.46984296 11.77288941 1.46984296 11.77288941 2 15 C2.99 15.66 3.98 16.32 5 17 C4.67 18.32 4.34 19.64 4 21 C2.125 21.625 2.125 21.625 0 22 C-0.66 21.34 -1.32 20.68 -2 20 C-1.73302379 18.32142543 -1.38185762 16.6562227 -1 15 C-0.78118981 12.3931873 -0.58987147 9.79779811 -0.4375 7.1875 C-0.39431641 6.49462891 -0.35113281 5.80175781 -0.30664062 5.08789062 C-0.20138547 3.39211314 -0.10027137 1.69607948 0 0 Z " fill="#515151" transform="translate(148,176)"/>
<path d="M0 0 C0 0.66 0 1.32 0 2 C-1.98 2.66 -3.96 3.32 -6 4 C-6 5.32 -6 6.64 -6 8 C-4.68 8.33 -3.36 8.66 -2 9 C-2.33 7.68 -2.66 6.36 -3 5 C-2.01 5 -1.02 5 0 5 C0 6.98 0 8.96 0 11 C-3.375 11.1875 -3.375 11.1875 -7 11 C-9.15502531 7.76746204 -9.46856135 6.74849077 -9 3 C-6.71619742 -0.67945972 -4.04424788 -0.26961653 0 0 Z " fill="#2C2C2C" transform="translate(92,142)"/>
<path d="M0 0 C1.65 0 3.3 0 5 0 C5.625 2.375 5.625 2.375 6 5 C5.34 5.66 4.68 6.32 4 7 C1.9375 6.8125 1.9375 6.8125 0 6 C-0.33 5.01 -0.66 4.02 -1 3 C-5.29 3 -9.58 3 -14 3 C-14 2.67 -14 2.34 -14 2 C-9.38 2 -4.76 2 0 2 C0 1.34 0 0.68 0 0 Z " fill="#393939" transform="translate(194,113)"/>
<path d="M0 0 C0.99 0.33 1.98 0.66 3 1 C4.52160014 4.6037898 5 7.05220686 5 11 C4.34 11 3.68 11 3 11 C3 10.01 3 9.02 3 8 C1.68 8 0.36 8 -1 8 C-1 8.99 -1 9.98 -1 11 C-1.66 11 -2.32 11 -3 11 C-3.39253254 6.55129785 -2.15305957 3.85756507 0 0 Z " fill="#242424" transform="translate(134,142)"/>
<path d="M0 0 C2 0.25 2 0.25 4 1 C4.33 1.99 4.66 2.98 5 4 C9.62 4 14.24 4 19 4 C19 4.33 19 4.66 19 5 C18.04738281 5.06058594 17.09476563 5.12117187 16.11328125 5.18359375 C14.85902344 5.26738281 13.60476562 5.35117188 12.3125 5.4375 C11.07113281 5.51871094 9.82976563 5.59992188 8.55078125 5.68359375 C5.09588267 5.90813656 5.09588267 5.90813656 2.16796875 6.66015625 C1.45253906 6.77230469 0.73710938 6.88445312 0 7 C-0.66 6.34 -1.32 5.68 -2 5 C-1.46428571 1.46428571 -1.46428571 1.46428571 0 0 Z " fill="#505050" transform="translate(50,139)"/>
<path d="M0 0 C0.66 0.33 1.32 0.66 2 1 C1.67 1.99 1.34 2.98 1 4 C1.99 4 2.98 4 4 4 C4.33 3.01 4.66 2.02 5 1 C9.95 1.33 14.9 1.66 20 2 C20 2.66 20 3.32 20 4 C15.05 4 10.1 4 5 4 C5 4.66 5 5.32 5 6 C3.35 6 1.7 6 0 6 C-0.38218767 4.34385343 -0.71395102 2.67542976 -1 1 C-0.67 0.67 -0.34 0.34 0 0 Z " fill="#1E1E1E" transform="translate(49,102)"/>
<path d="M0 0 C0.33 0 0.66 0 1 0 C1.12117187 0.62648437 1.24234375 1.25296875 1.3671875 1.8984375 C1.53476563 2.71570313 1.70234375 3.53296875 1.875 4.375 C2.03742188 5.18710938 2.19984375 5.99921875 2.3671875 6.8359375 C2.86658932 9.18673923 2.86658932 9.18673923 5 11 C4.625 13.125 4.625 13.125 4 15 C2.125 15.625 2.125 15.625 0 16 C-0.66 15.34 -1.32 14.68 -2 14 C-1.6875 11.9375 -1.6875 11.9375 -1 9 C-0.61809642 6.00507191 -0.30753775 3.00340056 0 0 Z " fill="#4D4D4D" transform="translate(167,189)"/>
<path d="M0 0 C0.66 0 1.32 0 2 0 C2 5.94 2 11.88 2 18 C2.66 18.33 3.32 18.66 4 19 C3 20 3 20 0.4375 20.0625 C-0.366875 20.041875 -1.17125 20.02125 -2 20 C-1.505 18.515 -1.505 18.515 -1 17 C-0.85596652 15.66636297 -0.75409577 14.32781954 -0.68359375 12.98828125 C-0.64169922 12.23095703 -0.59980469 11.47363281 -0.55664062 10.69335938 C-0.51732422 9.90767578 -0.47800781 9.12199219 -0.4375 8.3125 C-0.39431641 7.51521484 -0.35113281 6.71792969 -0.30664062 5.89648438 C-0.20072632 3.93118553 -0.09987449 1.96561504 0 0 Z " fill="#040404" transform="translate(198,168)"/>
<path d="M0 0 C2.70313576 -0.21917317 4.43958382 -0.32851983 6.8125 1.0625 C8.66501934 4.08503156 8.37643703 6.54932719 8 10 C7.01 10.66 6.02 11.32 5 12 C4.02391783 9.07175348 3.91773332 7.04386724 4 4 C2.68 3.67 1.36 3.34 0 3 C0 2.01 0 1.02 0 0 Z " fill="#171717" transform="translate(48,52)"/>
<path d="M0 0 C2.475 0.99 2.475 0.99 5 2 C4.67 3.65 4.34 5.3 4 7 C0.25 8.125 0.25 8.125 -2 7 C-2.125 4.625 -2.125 4.625 -2 2 C-1.34 1.34 -0.68 0.68 0 0 Z " fill="#D5D5D5" transform="translate(51,189)"/>
<path d="M0 0 C1.2065625 0.0309375 1.2065625 0.0309375 2.4375 0.0625 C2.81883299 2.0539056 3.15075582 4.05529077 3.4375 6.0625 C2.4375 7.0625 2.4375 7.0625 -0.0625 7.1875 C-2.5625 7.0625 -2.5625 7.0625 -3.5625 6.0625 C-3.6875 3.5625 -3.6875 3.5625 -3.5625 1.0625 C-2.5625 0.0625 -2.5625 0.0625 0 0 Z " fill="#EBEBEB" transform="translate(124.5625,37.9375)"/>
<path d="M0 0 C2.625 0.375 2.625 0.375 5 1 C5.042721 2.66611905 5.04063832 4.33382885 5 6 C4 7 4 7 1.4375 7.0625 C0.2309375 7.0315625 0.2309375 7.0315625 -1 7 C-1.625 4.625 -1.625 4.625 -2 2 C-1.34 1.34 -0.68 0.68 0 0 Z " fill="#E5E5E5" transform="translate(36,121)"/>
<path d="M0 0 C1.875 1.5 1.875 1.5 3 3 C2.34 4.65 1.68 6.3 1 8 C0.34 6.68 -0.32 5.36 -1 4 C-3.31 4.33 -5.62 4.66 -8 5 C-8.33 4.01 -8.66 3.02 -9 2 C-5.53076119 -0.31282587 -4.07794425 -0.42478586 0 0 Z " fill="#202020" transform="translate(41,118)"/>
<path d="M0 0 C3.96 0 7.92 0 12 0 C11.34 1.32 10.68 2.64 10 4 C6.37 4 2.74 4 -1 4 C-0.34 3.67 0.32 3.34 1 3 C0.67 2.01 0.34 1.02 0 0 Z " fill="#070707" transform="translate(75,74)"/>
<path d="M0 0 C1.2065625 0.0309375 1.2065625 0.0309375 2.4375 0.0625 C3.0625 2.4375 3.0625 2.4375 3.4375 5.0625 C2.7775 5.7225 2.1175 6.3825 1.4375 7.0625 C-1.1875 6.6875 -1.1875 6.6875 -3.5625 6.0625 C-3.605221 4.39638095 -3.60313832 2.72867115 -3.5625 1.0625 C-2.5625 0.0625 -2.5625 0.0625 0 0 Z " fill="#E7E7E7" transform="translate(159.5625,45.9375)"/>
<path d="M0 0 C1.2065625 0.0309375 1.2065625 0.0309375 2.4375 0.0625 C3.0625 2.4375 3.0625 2.4375 3.4375 5.0625 C2.7775 5.7225 2.1175 6.3825 1.4375 7.0625 C-0.6875 6.6875 -0.6875 6.6875 -2.5625 6.0625 C-2.94468767 4.40635343 -3.27645102 2.73792976 -3.5625 1.0625 C-2.5625 0.0625 -2.5625 0.0625 0 0 Z " fill="#F6F6F6" transform="translate(124.5625,203.9375)"/>
<path d="M0 0 C1.67542976 0.28604898 3.34385343 0.61781233 5 1 C5.625 2.875 5.625 2.875 6 5 C5.34 5.66 4.68 6.32 4 7 C1.375 6.625 1.375 6.625 -1 6 C-1.042721 4.33388095 -1.04063832 2.66617115 -1 1 C-0.67 0.67 -0.34 0.34 0 0 Z " fill="#E9E9E9" transform="translate(196,188)"/>
<path d="M0 0 C2.31 0 4.62 0 7 0 C7 0.66 7 1.32 7 2 C5.35 2 3.7 2 2 2 C2 2.99 2 3.98 2 5 C3.32 5.33 4.64 5.66 6 6 C4.68 6 3.36 6 2 6 C2 7.32 2 8.64 2 10 C3.65 10 5.3 10 7 10 C7 10.33 7 10.66 7 11 C4.69 11 2.38 11 0 11 C0 7.37 0 3.74 0 0 Z " fill="#2D2D2D" transform="translate(148,142)"/>
<path d="M0 0 C2.31 0 4.62 0 7 0 C7 0.66 7 1.32 7 2 C5.35 2 3.7 2 2 2 C2 2.99 2 3.98 2 5 C3.32 5.33 4.64 5.66 6 6 C4.68 6 3.36 6 2 6 C2 7.32 2 8.64 2 10 C3.65 10 5.3 10 7 10 C7 10.33 7 10.66 7 11 C4.69 11 2.38 11 0 11 C0 7.37 0 3.74 0 0 Z " fill="#2C2C2C" transform="translate(94,142)"/>
<path d="M0 0 C0.33 0 0.66 0 1 0 C1 3.63 1 7.26 1 11 C0.34 9.68 -0.32 8.36 -1 7 C-2.32 7 -3.64 7 -5 7 C-5 7.66 -5 8.32 -5 9 C-3.02 9.495 -3.02 9.495 -1 10 C-2.65 10 -4.3 10 -6 10 C-6 7.36 -6 4.72 -6 2 C-4.35 2 -2.7 2 -1 2 C-0.67 1.34 -0.34 0.68 0 0 Z " fill="#B4B4B4" transform="translate(102,142)"/>
<path d="M0 0 C1.67542976 0.28604898 3.34385343 0.61781233 5 1 C5.625 2.875 5.625 2.875 6 5 C5.34 5.66 4.68 6.32 4 7 C1.375 6.625 1.375 6.625 -1 6 C-1.042721 4.33388095 -1.04063832 2.66617115 -1 1 C-0.67 0.67 -0.34 0.34 0 0 Z " fill="#EAEAEA" transform="translate(209,121)"/>
<path d="M0 0 C2.125 0.375 2.125 0.375 4 1 C4.38218767 2.65614657 4.71395102 4.32457024 5 6 C4 7 4 7 1.4375 7.0625 C0.2309375 7.0315625 0.2309375 7.0315625 -1 7 C-1.625 4.625 -1.625 4.625 -2 2 C-1.34 1.34 -0.68 0.68 0 0 Z " fill="#E5E5E5" transform="translate(198,58)"/>
<path d="M0 0 C1.67542976 0.28604898 3.34385343 0.61781233 5 1 C5 2.65 5 4.3 5 6 C2.625 6.625 2.625 6.625 0 7 C-0.66 6.34 -1.32 5.68 -2 5 C-1.46428571 1.46428571 -1.46428571 1.46428571 0 0 Z " fill="#EAEAEA" transform="translate(48,55)"/>
<path d="M0 0 C3.53677664 -0.32152515 5.3962104 -0.4131192 8.375 1.625 C10.4131192 4.6037896 10.32152515 6.46322336 10 10 C9.67 9.34 9.34 8.68 9 8 C8.34 8 7.68 8 7 8 C6.67 6.35 6.34 4.7 6 3 C3.69 2.67 1.38 2.34 -1 2 C-0.67 1.34 -0.34 0.68 0 0 Z " fill="#1B1B1B" transform="translate(121,35)"/>
<path d="M0 0 C0.99 0.33 1.98 0.66 3 1 C2.01 1.495 2.01 1.495 1 2 C1 3.093125 1 4.18625 1 5.3125 C1 7.54166667 1 9.77083333 1 12 C-0.32 11.34 -1.64 10.68 -3 10 C-3.36923077 4.58461538 -3.36923077 4.58461538 -1.5 1.625 C-1.005 1.08875 -0.51 0.5525 0 0 Z " fill="#181818" transform="translate(195,185)"/>
<path d="M0 0 C0.66 0 1.32 0 2 0 C2 1.32 2 2.64 2 4 C3.32 4 4.64 4 6 4 C6.33 5.98 6.66 7.96 7 10 C6.34 10 5.68 10 5 10 C4.67 9.01 4.34 8.02 4 7 C3.34 6.67 2.68 6.34 2 6 C2 7.32 2 8.64 2 10 C1.34 10 0.68 10 0 10 C0 6.7 0 3.4 0 0 Z " fill="#212121" transform="translate(122,143)"/>
<path d="M0 0 C2.64 0 5.28 0 8 0 C8 0.66 8 1.32 8 2 C7.01 2 6.02 2 5 2 C5 4.97 5 7.94 5 11 C4.34 11 3.68 11 3 11 C3 8.03 3 5.06 3 2 C2.01 2 1.02 2 0 2 C0 1.34 0 0.68 0 0 Z " fill="#212121" transform="translate(139,142)"/>
<path d="M0 0 C1.65 0.33 3.3 0.66 5 1 C5 2.65 5 4.3 5 6 C1.25 7.125 1.25 7.125 -1 6 C-0.67 4.02 -0.34 2.04 0 0 Z " fill="#545454" transform="translate(203,133)"/>
<path d="M0 0 C2.00720923 0.28674418 4.0085944 0.61866701 6 1 C5.67 2.65 5.34 4.3 5 6 C3.35 6 1.7 6 0 6 C-0.38218767 4.34385343 -0.71395102 2.67542976 -1 1 C-0.67 0.67 -0.34 0.34 0 0 Z " fill="#595959" transform="translate(95,189)"/>
<path d="M0 0 C1.32 0.33 2.64 0.66 4 1 C4.33 2.65 4.66 4.3 5 6 C3.35 6.66 1.7 7.32 0 8 C0 5.36 0 2.72 0 0 Z " fill="#E9E9E9" transform="translate(159,144)"/>
<path d="M0 0 C0.66 0.33 1.32 0.66 2 1 C1.67 4.3 1.34 7.6 1 11 C-0.32 10.67 -1.64 10.34 -3 10 C-2.88637738 8.5199159 -2.75877092 7.04089926 -2.625 5.5625 C-2.55539063 4.73878906 -2.48578125 3.91507813 -2.4140625 3.06640625 C-2.27742187 2.38449219 -2.14078125 1.70257813 -2 1 C-1.34 0.67 -0.68 0.34 0 0 Z " fill="#E0E0E0" transform="translate(131,143)"/>
<path d="M0 0 C2.4375 0.8125 2.4375 0.8125 5 2 C5.33 2.99 5.66 3.98 6 5 C5 6 5 6 2.4375 6.0625 C1.2309375 6.0315625 1.2309375 6.0315625 0 6 C-0.38218767 4.34385343 -0.71395102 2.67542976 -1 1 C-0.67 0.67 -0.34 0.34 0 0 Z " fill="#636363" transform="translate(133,184)"/>
<path d="M0 0 C2.475 0.495 2.475 0.495 5 1 C5.33 1.66 5.66 2.32 6 3 C4.68 2.67 3.36 2.34 2 2 C2 8.27 2 14.54 2 21 C1.34 20.67 0.68 20.34 0 20 C0 13.4 0 6.8 0 0 Z " fill="#2F2F2F" transform="translate(197,65)"/>
<path d="M0 0 C2.53731364 1.26865682 2.78646846 2.49709121 4 5 C4.66 5.66 5.32 6.32 6 7 C5.34 7 4.68 7 4 7 C4 7.66 4 8.32 4 9 C2.0625 8.375 2.0625 8.375 0 7 C-0.8125 3.9375 -0.8125 3.9375 -1 1 C-0.67 0.67 -0.34 0.34 0 0 Z " fill="#1F1F1F" transform="translate(119,205)"/>
<path d="M0 0 C2.31 0 4.62 0 7 0 C7 1.32 7 2.64 7 4 C4.36 4 1.72 4 -1 4 C-0.67 2.68 -0.34 1.36 0 0 Z " fill="#010101" transform="translate(115,117)"/>
<path d="M0 0 C2.625 0.375 2.625 0.375 5 1 C4.25 2.9375 4.25 2.9375 3 5 C0.875 5.75 0.875 5.75 -1 6 C-1.625 4.125 -1.625 4.125 -2 2 C-1.34 1.34 -0.68 0.68 0 0 Z " fill="#646464" transform="translate(37,162)"/>
<path d="M0 0 C0.66 0 1.32 0 2 0 C2 3.63 2 7.26 2 11 C1.01 10.67 0.02 10.34 -1 10 C-1.6875 7.9375 -1.6875 7.9375 -2 6 C-1.34 6 -0.68 6 0 6 C0 4.02 0 2.04 0 0 Z " fill="#2E2E2E" transform="translate(109,142)"/>
<path d="M0 0 C1.67542976 0.28604898 3.34385343 0.61781233 5 1 C4.34 2.32 3.68 3.64 3 5 C1.35 5 -0.3 5 -2 5 C-1.125 1.125 -1.125 1.125 0 0 Z " fill="#636363" transform="translate(199,96)"/>
<path d="M0 0 C1.67542976 0.28604898 3.34385343 0.61781233 5 1 C5.33 2.32 5.66 3.64 6 5 C4.35 5 2.7 5 1 5 C0.34 3.68 -0.32 2.36 -1 1 C-0.67 0.67 -0.34 0.34 0 0 Z " fill="#606060" transform="translate(139,54)"/>
<path d="M0 0 C1.5625 1.1875 1.5625 1.1875 3 3 C2.6875 5.6875 2.6875 5.6875 2 8 C1.01 8.33 0.02 8.66 -1 9 C-1.625 6.1875 -1.625 6.1875 -2 3 C-1.34 2.01 -0.68 1.02 0 0 Z " fill="#353535" transform="translate(47,188)"/>
<path d="M0 0 C0.99 0.66 1.98 1.32 3 2 C5.73872955 2.45772063 5.73872955 2.45772063 8.6875 2.625 C9.68136719 2.69976562 10.67523438 2.77453125 11.69921875 2.8515625 C12.45847656 2.90054688 13.21773437 2.94953125 14 3 C14 3.33 14 3.66 14 4 C12.39602723 4.16852247 10.7918131 4.33474886 9.1875 4.5 C8.29417969 4.5928125 7.40085937 4.685625 6.48046875 4.78125 C4 5 4 5 1 5 C-0.6875 3 -0.6875 3 -2 1 C-1.34 0.67 -0.68 0.34 0 0 Z " fill="#2F2F2F" transform="translate(55,86)"/>
<path d="M0 0 C0.33 0 0.66 0 1 0 C1.92017937 9.73004484 1.92017937 9.73004484 -0.3359375 12.84375 C-2 14.1875 -2 14.1875 -5 16 C-5 13 -5 13 -3.625 11.3125 C-2 10 -2 10 0 10 C0 6.7 0 3.4 0 0 Z " fill="#505050" transform="translate(115,176)"/>
<path d="M0 0 C0.66 0.33 1.32 0.66 2 1 C1.67 2.65 1.34 4.3 1 6 C-0.32 6.33 -1.64 6.66 -3 7 C-3.1875 4.625 -3.1875 4.625 -3 2 C-2.01 1.34 -1.02 0.68 0 0 Z " fill="#676767" transform="translate(198,113)"/>
<path d="M0 0 C3.3 0 6.6 0 10 0 C10 0.33 10 0.66 10 1 C9.05125 1.144375 8.1025 1.28875 7.125 1.4375 C4.1065506 1.82935399 4.1065506 1.82935399 2 3 C2 4.98 2 6.96 2 9 C-0.29013653 5.5647952 -0.17842973 4.014669 0 0 Z " fill="#030303" transform="translate(84,171)"/>
<path d="M0 0 C0 0.99 0 1.98 0 3 C-1.75 4.60546875 -1.75 4.60546875 -4 6.1875 C-4.7425 6.71730469 -5.485 7.24710937 -6.25 7.79296875 C-6.8275 8.19128906 -7.405 8.58960937 -8 9 C-8 5.4065708 -7.41382509 4.58029579 -5 2 C-2.3125 0.75 -2.3125 0.75 0 0 Z " fill="#292929" transform="translate(203,99)"/>
<path d="M0 0 C0.99 0.33 1.98 0.66 3 1 C2.67 2.32 2.34 3.64 2 5 C0.68 5.33 -0.64 5.66 -2 6 C-2 4.35 -2 2.7 -2 1 C-1.34 0.67 -0.68 0.34 0 0 Z " fill="#696969" transform="translate(110,200)"/>
<path d="M0 0 C2.375 -0.125 2.375 -0.125 5 0 C7 2 7 2 7 5 C5.35 5 3.7 5 2 5 C2 3.68 2 2.36 2 1 C1.34 0.67 0.68 0.34 0 0 Z " fill="#737373" transform="translate(122,142)"/>
<path d="M0 0 C0 0.66 0 1.32 0 2 C-0.598125 2.268125 -1.19625 2.53625 -1.8125 2.8125 C-3.97224808 3.98493467 -5.35790256 5.19369282 -7 7 C-7.1875 4.625 -7.1875 4.625 -7 2 C-4 0 -4 0 0 0 Z " fill="#0D0D0D" transform="translate(213,118)"/>
<path d="M0 0 C0.928125 1.175625 0.928125 1.175625 1.875 2.375 C3.89858661 4.96837647 3.89858661 4.96837647 6 7 C3.36 7 0.72 7 -2 7 C-1.34 6.67 -0.68 6.34 0 6 C0 4.02 0 2.04 0 0 Z " fill="#E7E7E7" transform="translate(105,147)"/>
<path d="M0 0 C1.485 0.99 1.485 0.99 3 2 C4.65549531 2.38499891 6.3222433 2.72793135 8 3 C8 3.33 8 3.66 8 4 C6.35 4 4.7 4 3 4 C2.67 4.66 2.34 5.32 2 6 C1.01 5.67 0.02 5.34 -1 5 C-0.67 3.35 -0.34 1.7 0 0 Z " fill="#E9E9E9" transform="translate(205,128)"/>
<path d="M0 0 C2.475 0.495 2.475 0.495 5 1 C5.33 2.32 5.66 3.64 6 5 C4.35 5 2.7 5 1 5 C0.67 3.35 0.34 1.7 0 0 Z " fill="#787878" transform="translate(85,52)"/>
<path d="M0 0 C1.98 0.495 1.98 0.495 4 1 C4 2.32 4 3.64 4 5 C2.68 5.33 1.36 5.66 0 6 C-1.125 2.25 -1.125 2.25 0 0 Z " fill="#757575" transform="translate(100,46)"/>
<path d="M0 0 C0.66 0 1.32 0 2 0 C2.144375 0.78375 2.28875 1.5675 2.4375 2.375 C2.87798925 4.96421018 2.87798925 4.96421018 4 7 C2.35 6.67 0.7 6.34 -1 6 C-1.042721 4.33388095 -1.04063832 2.66617115 -1 1 C-0.67 0.67 -0.34 0.34 0 0 Z " fill="#E7E7E7" transform="translate(50,190)"/>
<path d="M0 0 C1.65 0 3.3 0 5 0 C5.33 0.66 5.66 1.32 6 2 C5.01 3.485 5.01 3.485 4 5 C3.01 4.67 2.02 4.34 1 4 C0.3125 1.9375 0.3125 1.9375 0 0 Z " fill="#777777" transform="translate(195,147)"/>
<path d="M0 0 C2.56687367 3.8503105 1.83288724 5.58569763 1 10 C0.01 9.67 -0.98 9.34 -2 9 C-1.34 6.03 -0.68 3.06 0 0 Z " fill="#D4D3D4" transform="translate(118,101)"/>
<path d="M0 0 C2.79872437 2.52788007 4.45773019 4.20411134 5 8 C3.68 7.67 2.36 7.34 1 7 C0.67 4.69 0.34 2.38 0 0 Z " fill="#111111" transform="translate(193,60)"/>
<path d="M0 0 C1.32 0 2.64 0 4 0 C3.67 1.65 3.34 3.3 3 5 C1.68 4.67 0.36 4.34 -1 4 C-0.67 2.68 -0.34 1.36 0 0 Z " fill="#7C7C7C" transform="translate(177,51)"/>
<path d="M0 0 C0.99 0 1.98 0 3 0 C3.33 1.98 3.66 3.96 4 6 C1 5 1 5 -0.1875 2.9375 C-0.5896875 1.9784375 -0.5896875 1.9784375 -1 1 C-0.67 0.67 -0.34 0.34 0 0 Z " fill="#1B1B1B" transform="translate(201,187)"/>
<path d="M0 0 C0.33 0.66 0.66 1.32 1 2 C2.97888961 2.72693904 4.97954558 3.39816251 7 4 C6.01 4.495 6.01 4.495 5 5 C4.67 5.66 4.34 6.32 4 7 C2 5.1875 2 5.1875 0 3 C0 2.01 0 1.02 0 0 Z " fill="#141414" transform="translate(153,49)"/>
<path d="M0 0 C1.65 0 3.3 0 5 0 C5.33 0.66 5.66 1.32 6 2 C4.1875 3.0625 4.1875 3.0625 2 4 C1.01 3.67 0.02 3.34 -1 3 C-0.67 2.01 -0.34 1.02 0 0 Z " fill="#D7D7D7" transform="translate(122,204)"/>
<path d="M0 0 C0.99 0.33 1.98 0.66 3 1 C2.67 2.98 2.34 4.96 2 7 C1.34 7 0.68 7 0 7 C-0.38133299 5.0085944 -0.71325582 3.00720923 -1 1 C-0.67 0.67 -0.34 0.34 0 0 Z " fill="#666666" transform="translate(134,142)"/>
<path d="M0 0 C1.9375 0.8125 1.9375 0.8125 4 2 C4.33 2.99 4.66 3.98 5 5 C1.62537285 4.45276317 -0.08235 3.9451 -3 2 C-2.01 2 -1.02 2 0 2 C0 1.34 0 0.68 0 0 Z " fill="#242424" transform="translate(213,118)"/>
<path d="M0 0 C0.33 0.66 0.66 1.32 1 2 C1.99 2.33 2.98 2.66 4 3 C4.99 4.485 4.99 4.485 6 6 C4.33388095 6.042721 2.66617115 6.04063832 1 6 C0 5 0 5 -0.0625 2.4375 C-0.041875 1.633125 -0.02125 0.82875 0 0 Z " fill="#D6D6D6" transform="translate(121,39)"/>
<path d="M0 0 C0.66 0 1.32 0 2 0 C2.33 2.31 2.66 4.62 3 7 C2.01 7.33 1.02 7.66 0 8 C0 5.36 0 2.72 0 0 Z " fill="#F2F2F2" transform="translate(137,176)"/>
<path d="M0 0 C0.99 1.485 0.99 1.485 2 3 C2.66 3 3.32 3 4 3 C4.66 2.34 5.32 1.68 6 1 C5.67 2.32 5.34 3.64 5 5 C3.0625 5.5625 3.0625 5.5625 1 6 C0 5 0 5 -0.0625 2.4375 C-0.041875 1.633125 -0.02125 0.82875 0 0 Z " fill="#272727" transform="translate(195,148)"/>
<path d="M0 0 C1.4540625 0.0309375 1.4540625 0.0309375 2.9375 0.0625 C2.9375 0.7225 2.9375 1.3825 2.9375 2.0625 C0.6275 2.7225 -1.6825 3.3825 -4.0625 4.0625 C-4.0625 0.08290816 -4.0625 0.08290816 0 0 Z " fill="#444444" transform="translate(89.0625,141.9375)"/>
<path d="M0 0 C0.66 0 1.32 0 2 0 C2 1.98 2 3.96 2 6 C0.68 6 -0.64 6 -2 6 C-1.34 4.02 -0.68 2.04 0 0 Z " fill="#0D0D0D" transform="translate(203,60)"/>
<path d="M0 0 C0.33 1.32 0.66 2.64 1 4 C0.01 4.33 -0.98 4.66 -2 5 C-3.20882096 7.00016466 -3.20882096 7.00016466 -4 9 C-4.25 6.75 -4.25 6.75 -4 4 C-2 1.6875 -2 1.6875 0 0 Z " fill="#2B2B2B" transform="translate(47,52)"/>
</svg>
