<?xml version="1.0" encoding="UTF-8"?>
<svg version="1.1" xmlns="http://www.w3.org/2000/svg" width="474" height="291">
<path d="M0 0 C156.42 0 312.84 0 474 0 C474 96.03 474 192.06 474 291 C317.58 291 161.16 291 0 291 C0 194.97 0 98.94 0 0 Z " fill="#FDFDFD" transform="translate(0,0)"/>
<path d="M0 0 C1.71413086 -0.02416992 1.71413086 -0.02416992 3.46289062 -0.04882812 C21.23773433 -0.05887609 35.90015338 6.07260618 50.8125 15.3125 C51.44285156 15.69535156 52.07320312 16.07820313 52.72265625 16.47265625 C56.23901663 18.69398877 58.97771265 21.27993679 61.8125 24.3125 C62.81796875 25.31023437 62.81796875 25.31023437 63.84375 26.328125 C78.99513837 41.99839654 86.20535176 63.79994708 86.11523438 85.33349609 C85.83593296 97.73913394 83.29947308 109.11970022 77.8125 120.3125 C77.37035156 121.23546875 76.92820312 122.1584375 76.47265625 123.109375 C71.18317256 133.48321004 63.89254835 142.07051812 54.8125 149.3125 C54.25820313 149.79976562 53.70390625 150.28703125 53.1328125 150.7890625 C34.38128555 166.3736649 10.19751387 168.82364791 -13.1875 167.3125 C-17.81588254 166.68979394 -21.91936105 165.18299914 -26.1875 163.3125 C-27.55134514 162.77345484 -28.91739539 162.2399682 -30.28515625 161.7109375 C-33.93866533 160.28938116 -37.56655906 158.81496512 -41.1875 157.3125 C-41.1875 156.6525 -41.1875 155.9925 -41.1875 155.3125 C-42.04730469 155.09464844 -42.90710938 154.87679687 -43.79296875 154.65234375 C-47.78348827 153.07725952 -50.45400931 150.79742388 -53.5 147.875 C-54.34485962 147.07908447 -54.34485962 147.07908447 -55.20678711 146.26708984 C-60.36134838 141.32017852 -64.88784057 136.02356938 -69.1875 130.3125 C-69.950625 129.301875 -70.71375 128.29125 -71.5 127.25 C-73.87803072 123.11046504 -75.51723086 118.77579181 -77.1875 114.3125 C-77.46722656 113.60609375 -77.74695313 112.8996875 -78.03515625 112.171875 C-84.63123366 95.33364725 -85.23780435 73.78840037 -78.73828125 56.81640625 C-78.22652344 55.66011719 -77.71476563 54.50382812 -77.1875 53.3125 C-76.6389215 51.98844749 -76.09075575 50.66422391 -75.54296875 49.33984375 C-72.35062824 41.88437196 -68.52218104 35.45546605 -63.1875 29.3125 C-62.56101563 28.49652344 -61.93453125 27.68054688 -61.2890625 26.83984375 C-51.16707621 14.66712046 -36.11595638 6.75487802 -21.1875 2.3125 C-20.0015625 1.94511719 -18.815625 1.57773437 -17.59375 1.19921875 C-11.80682884 -0.20367123 -5.92057439 -0.01641868 0 0 Z " fill="#F8AC03" transform="translate(295.1875,61.6875)"/>
<path d="M0 0 C-0.53012628 4.59157761 -2.56341518 7.71923971 -5.125 11.4375 C-9.14787179 17.45849225 -12.46349458 23.61055724 -15.58984375 30.13671875 C-17 33 -17 33 -19 36 C-19.99 36 -20.98 36 -22 36 C-22 35.34 -22 34.68 -22 34 C-22.639375 33.773125 -23.27875 33.54625 -23.9375 33.3125 C-26.56322003 32.18719142 -28.85665057 30.94036844 -31.3125 29.5 C-41.08526611 24.08665406 -52.72161025 23.30809361 -63.5625 25.828125 C-66.44383083 26.77444444 -69.22112788 27.78756216 -72 29 C-72.74765625 29.31195313 -73.4953125 29.62390625 -74.265625 29.9453125 C-76.34333544 30.95289044 -76.34333544 30.95289044 -77 34 C-78.3287985 34.67566025 -79.6628133 35.34109641 -81 36 C-90.07963447 45.2389263 -93.27587557 56.25896093 -93.32128906 68.88012695 C-93.17998591 78.45341535 -90.4467529 87.09342322 -85 95 C-84.01 95.33 -83.02 95.66 -82 96 C-81.62875 96.721875 -81.2575 97.44375 -80.875 98.1875 C-76.83194481 104.25208279 -69.86252797 107.72929508 -62.91796875 109.52734375 C-51.11608541 111.43902766 -37.41826395 110.9874204 -27.234375 104.140625 C-25.7050517 102.90729976 -24.2101099 101.62887821 -22.76953125 100.29296875 C-22.18558594 99.86628906 -21.60164063 99.43960938 -21 99 C-16.8014444 100.39951853 -16.40804359 102.55174126 -14.4375 106.4375 C-12.17661783 111.05104792 -12.17661783 111.05104792 -9 115 C-9 116.32 -9 117.64 -9 119 C-8.34 119 -7.68 119 -7 119 C-6.4225 120.03125 -5.845 121.0625 -5.25 122.125 C-3.84481557 124.5991283 -2.36784682 126.97240014 -0.75 129.3125 C1 132 1 132 1 134 C-0.97484956 135.39082392 -2.9280856 136.64465789 -5 137.875 C-6.670625 138.89207031 -6.670625 138.89207031 -8.375 139.9296875 C-28.33469169 151.51989267 -50.98481855 154.40449171 -73.5 149.0625 C-88.62154148 145.04049413 -103.31193849 136.37918971 -113 124 C-113.78890625 123.24074219 -114.5778125 122.48148438 -115.390625 121.69921875 C-130.87543378 105.68125038 -135.61353394 82.63295194 -135.26953125 61.171875 C-134.75314567 47.36428435 -129.48310449 35.95585504 -123 24 C-122.32656524 22.67007224 -121.65582696 21.33869833 -121 20 C-120.34 20 -119.68 20 -119 20 C-118.87431641 19.15695313 -118.87431641 19.15695313 -118.74609375 18.296875 C-117.77104948 15.29516805 -116.17188491 13.58443682 -114.0625 11.25 C-113.35222656 10.45078125 -112.64195313 9.6515625 -111.91015625 8.828125 C-110 7 -110 7 -108 7 C-107.67 6.01 -107.34 5.02 -107 4 C-105.02678947 2.6273318 -103.02456848 1.29572383 -101 0 C-100.53464844 -0.48726562 -100.06929687 -0.97453125 -99.58984375 -1.4765625 C-97.02139338 -3.93773116 -93.90181692 -5.15383326 -90.71484375 -6.671875 C-88.0429331 -7.9347293 -88.0429331 -7.9347293 -85.75390625 -9.328125 C-59.65465856 -24.34536977 -23.28920159 -15.9081751 0 0 Z " fill="#EA7204" transform="translate(228,78)"/>
<path d="M0 0 C10.83357978 4.66314956 15.95630099 19.89803564 20.32421875 30.08984375 C27.52988329 48.76028308 27.10065276 70.73179132 19.6875 89.3125 C18.81846525 91.22076623 17.92297699 93.11723213 17 95 C16.55785156 95.92296875 16.11570312 96.8459375 15.66015625 97.796875 C10.37067256 108.17071004 3.08004835 116.75801812 -6 124 C-6.55429687 124.48726563 -7.10859375 124.97453125 -7.6796875 125.4765625 C-26.43121445 141.0611649 -50.61498613 143.51114791 -74 142 C-78.62838254 141.37729394 -82.73186105 139.87049914 -87 138 C-88.36384514 137.46095484 -89.72989539 136.9274682 -91.09765625 136.3984375 C-94.75116533 134.97688116 -98.37905906 133.50246512 -102 132 C-102 131.34 -102 130.68 -102 130 C-103.31871094 129.64421875 -103.31871094 129.64421875 -104.6640625 129.28125 C-108.35429208 127.86392529 -110.48498833 126.17304383 -113.375 123.5 C-114.24898437 122.7059375 -115.12296875 121.911875 -116.0234375 121.09375 C-118 119 -118 119 -118 117 C-117.34 117 -116.68 117 -116 117 C-115.7628125 116.43796875 -115.525625 115.8759375 -115.28125 115.296875 C-113.71052303 112.48105958 -111.78528536 110.52044584 -109.5 108.25 C-108.7059375 107.45078125 -107.911875 106.6515625 -107.09375 105.828125 C-105 104 -105 104 -103 104 C-103 103.34 -103 102.68 -103 102 C-102.34 102 -101.68 102 -101 102 C-100.7525 101.38125 -100.505 100.7625 -100.25 100.125 C-98.79371361 97.64931313 -97.62187494 97.04874998 -95 96 C-95 95.34 -95 94.68 -95 94 C-94.34 94 -93.68 94 -93 94 C-92.34 92.68 -91.68 91.36 -91 90 C-88.09542774 90.99585334 -86.01951308 91.98408144 -83.625 93.9375 C-80.5681106 96.33934167 -77.62012023 97.60276061 -74 99 C-73.113125 99.34933594 -72.22625 99.69867188 -71.3125 100.05859375 C-59.94867579 103.28817115 -47.2492502 101.66333232 -37 96 C-26.53882051 89.48754741 -19.93475705 79.9279404 -17 68 C-16.567859 64.71606213 -16.47529244 61.49735044 -16.5 58.1875 C-16.50640503 56.87809448 -16.50640503 56.87809448 -16.51293945 55.54223633 C-16.75241944 46.40560952 -19.40202049 39.31263649 -24.875 32 C-27 29 -27 29 -26.76953125 26.92578125 C-25.62002794 24.04910546 -23.43141054 22.89109709 -21 21 C-19.3876994 19.17035495 -17.85094326 17.2982823 -16.33203125 15.390625 C-15.89246094 14.93171875 -15.45289063 14.4728125 -15 14 C-14.34 14 -13.68 14 -13 14 C-12.67 13.01 -12.34 12.02 -12 11 C-11.34 11 -10.68 11 -10 11 C-9.67 10.01 -9.34 9.02 -9 8 C-6.21537003 4.98958922 -3.35324899 2.35969373 0 0 Z " fill="#EA7204" transform="translate(356,87)"/>
<path d="M0 0 C1.34375 2.22265625 1.34375 2.22265625 2 4 C2.66 4 3.32 4 4 4 C6.34435251 6.77303411 8.15523941 9.87990746 10 13 C10.4228125 13.69996094 10.845625 14.39992188 11.28125 15.12109375 C16.07854713 24.73282122 15.75894072 38.96560329 12.5 49.0625 C7.18385477 60.94455092 -1.11430572 69.60517997 -12.9375 74.9375 C-22.87711644 78.47236359 -35.67918361 78.81876547 -45.6953125 75.1796875 C-57.89065803 68.93732419 -66.83811226 59.48477278 -71.875 46.75 C-75.03581053 36.18279321 -73.65542579 22.97591241 -69 13 C-68.34 13 -67.68 13 -67 13 C-66.9175 12.278125 -66.835 11.55625 -66.75 10.8125 C-65.84286169 7.41073132 -64.39989121 5.54533916 -62 3 C-61.34 3 -60.68 3 -60 3 C-59.67 2.01 -59.34 1.02 -59 0 C-40.56888401 -13.6677145 -18.7291764 -13.78016934 0 0 Z " fill="#FDFDFB" transform="translate(326,112)"/>
<path d="M0 0 C-0.53012628 4.59157761 -2.56341518 7.71923971 -5.125 11.4375 C-9.14787179 17.45849225 -12.46349458 23.61055724 -15.58984375 30.13671875 C-17 33 -17 33 -19 36 C-19.99 36 -20.98 36 -22 36 C-22 35.34 -22 34.68 -22 34 C-22.639375 33.773125 -23.27875 33.54625 -23.9375 33.3125 C-26.56322003 32.18719142 -28.85665057 30.94036844 -31.3125 29.5 C-41.08526611 24.08665406 -52.72161025 23.30809361 -63.5625 25.828125 C-66.44383083 26.77444444 -69.22112788 27.78756216 -72 29 C-72.74765625 29.31195313 -73.4953125 29.62390625 -74.265625 29.9453125 C-76.34333544 30.95289044 -76.34333544 30.95289044 -77 34 C-78.9375 35.0625 -78.9375 35.0625 -81 36 C-81.66 36.66 -82.32 37.32 -83 38 C-83.40476563 37.2678125 -83.80953125 36.535625 -84.2265625 35.78125 C-86.03918882 32.93854088 -87.95893215 30.84185416 -90.375 28.5 C-91.17421875 27.72011719 -91.9734375 26.94023438 -92.796875 26.13671875 C-93.88742188 25.07904297 -93.88742188 25.07904297 -95 24 C-95.86625 23.113125 -96.7325 22.22625 -97.625 21.3125 C-99.55220416 19.43601174 -101.50134754 17.7212584 -103.5625 16 C-106.43228649 13.58135899 -108.76812511 11.03534984 -111 8 C-110.01 7.67 -109.02 7.34 -108 7 C-107.67 6.01 -107.34 5.02 -107 4 C-105.02678947 2.6273318 -103.02456848 1.29572383 -101 0 C-100.53464844 -0.48726562 -100.06929687 -0.97453125 -99.58984375 -1.4765625 C-97.02139338 -3.93773116 -93.90181692 -5.15383326 -90.71484375 -6.671875 C-88.0429331 -7.9347293 -88.0429331 -7.9347293 -85.75390625 -9.328125 C-59.65465856 -24.34536977 -23.28920159 -15.9081751 0 0 Z " fill="#F8AC03" transform="translate(228,78)"/>
<path d="M0 0 C0.66 0 1.32 0 2 0 C2.350625 0.70125 2.70125 1.4025 3.0625 2.125 C7.16332865 8.21010058 14.08029428 11.71449092 21.08203125 13.52734375 C32.88391459 15.43902766 46.58173605 14.9874204 56.765625 8.140625 C58.2949483 6.90729976 59.7898901 5.62887821 61.23046875 4.29296875 C61.81441406 3.86628906 62.39835937 3.43960938 63 3 C67.1985556 4.39951853 67.59195641 6.55174126 69.5625 10.4375 C71.82338217 15.05104792 71.82338217 15.05104792 75 19 C75 20.32 75 21.64 75 23 C75.66 23 76.32 23 77 23 C77.5775 24.03125 78.155 25.0625 78.75 26.125 C80.15518443 28.5991283 81.63215318 30.97240014 83.25 33.3125 C85 36 85 36 85 38 C83.02515044 39.39082392 81.0719144 40.64465789 79 41.875 C77.88625 42.55304688 76.7725 43.23109375 75.625 43.9296875 C55.66530831 55.51989267 33.01518145 58.40449171 10.5 53.0625 C-1.82866392 49.78333969 -14.91243468 43.10973011 -24 34 C-25.2265625 31.80078125 -25.2265625 31.80078125 -26 30 C-24.948125 28.9790625 -24.948125 28.9790625 -23.875 27.9375 C-21.80899207 25.88313155 -19.92202418 23.74222309 -18.0625 21.5 C-15.29941943 18.22681225 -12.32856088 15.69117688 -9 13 C-5.71243152 9.8689824 -2.63378437 6.70680763 0 3 C0 2.01 0 1.02 0 0 Z " fill="#F8AC03" transform="translate(144,174)"/>
<path d="M0 0 C4.875 0.875 4.875 0.875 6 2 C6.04080783 3.99958364 6.04254356 6.00045254 6 8 C5.34 8 4.68 8 4 8 C4 9.98 4 11.96 4 14 C7.12197478 12.6910428 7.12197478 12.6910428 9 10 C9.66 10 10.32 10 11 10 C11 9.34 11 8.68 11 8 C11.99 7.67 12.98 7.34 14 7 C14.99 7.99 14.99 7.99 16 9 C15.38125 9.2475 14.7625 9.495 14.125 9.75 C11.54189715 11.26947227 11.26452613 12.32217995 10 15 C7.625 17.9375 7.625 17.9375 6.4140625 19.33984375 C5.94742188 19.88769531 5.48078125 20.43554688 5 21 C4.36964844 21.69996094 3.73929687 22.39992188 3.08984375 23.12109375 C0.35454354 26.88916151 -1.30045588 30.83362473 -3.0625 35.125 C-3.40087891 35.91648438 -3.73925781 36.70796875 -4.08789062 37.5234375 C-8.74162782 48.68520563 -10.46923612 58.44366295 -10.3125 70.5625 C-10.31733398 72.43711914 -10.31733398 72.43711914 -10.32226562 74.34960938 C-10.28114114 81.4641458 -9.75293182 88.09563603 -8 95 C-8.66 95 -9.32 95 -10 95 C-12.19725222 87.27053567 -12.27418704 79.78981321 -12.20581055 71.82617188 C-12.18759649 69.6365991 -12.18530129 67.44745315 -12.18554688 65.2578125 C-12.1653568 57.46311858 -11.90260064 49.7505247 -11 42 C-10.01 42 -9.02 42 -8 42 C-7.86722656 41.22914062 -7.73445313 40.45828125 -7.59765625 39.6640625 C-7.42105469 38.66117188 -7.24445313 37.65828125 -7.0625 36.625 C-6.88847656 35.62726563 -6.71445313 34.62953125 -6.53515625 33.6015625 C-6 31 -6 31 -5 29 C-9.4008703 32.82180842 -10.80805531 35.47371099 -12 41 C-14.97 41 -17.94 41 -21 41 C-21.495 39.02 -21.495 39.02 -22 37 C-24.80376352 35.87050779 -24.80376352 35.87050779 -28 35 C-28.763125 34.525625 -29.52625 34.05125 -30.3125 33.5625 C-38.00087247 29.09251601 -46.16277387 27.79331049 -55 29 C-56.36646158 29.95423295 -57.70298085 30.95332952 -59 32 C-61.32227822 32.59840275 -63.60469133 32.93456503 -65.9765625 33.27734375 C-68.17340041 33.82255514 -68.17340041 33.82255514 -69.19140625 35.95703125 C-69.45824219 36.63121094 -69.72507813 37.30539063 -70 38 C-71.3125 39.75 -71.3125 39.75 -73 41 C-75.6875 41.1875 -75.6875 41.1875 -78 41 C-77.1875 39.0625 -77.1875 39.0625 -76 37 C-74.515 36.505 -74.515 36.505 -73 36 C-72.360625 35.236875 -71.72125 34.47375 -71.0625 33.6875 C-65.61853091 28.14689241 -57.4228533 26.83951679 -49.95141602 26.57568359 C-37.65313799 26.49759929 -28.07497902 29.81595139 -18 37 C-18 37.66 -18 38.32 -18 39 C-17.01 39 -16.02 39 -15 39 C-14.61908203 37.98292969 -14.61908203 37.98292969 -14.23046875 36.9453125 C-12.78283587 33.4801849 -11.0825657 30.18256186 -9.3125 26.875 C-8.9623584 26.21773926 -8.6122168 25.56047852 -8.25146484 24.88330078 C-5.5532005 19.88196628 -2.6088603 15.09043793 0.5546875 10.3671875 C2.01377188 7.9774439 3.03795618 5.62460499 4 3 C2.68 2.34 1.36 1.68 0 1 C0 0.67 0 0.34 0 0 Z " fill="#FCF9DD" transform="translate(224,75)"/>
<path d="M0 0 C0.99 0.33 1.98 0.66 3 1 C2.46987372 5.59157761 0.43658482 8.71923971 -2.125 12.4375 C-6.14787179 18.45849225 -9.46349458 24.61055724 -12.58984375 31.13671875 C-14 34 -14 34 -16 37 C-16.99 37 -17.98 37 -19 37 C-19 36.34 -19 35.68 -19 35 C-19.639375 34.773125 -20.27875 34.54625 -20.9375 34.3125 C-23.56322003 33.18719142 -25.85665057 31.94036844 -28.3125 30.5 C-38.08526611 25.08665406 -49.72161025 24.30809361 -60.5625 26.828125 C-63.44383083 27.77444444 -66.22112788 28.78756216 -69 30 C-69.74765625 30.31195313 -70.4953125 30.62390625 -71.265625 30.9453125 C-73.34333544 31.95289044 -73.34333544 31.95289044 -74 35 C-75.9375 36.0625 -75.9375 36.0625 -78 37 C-78.66 37.66 -79.32 38.32 -80 39 C-80.33 37.68 -80.66 36.36 -81 35 C-80.01 35 -79.02 35 -78 35 C-77.979375 34.401875 -77.95875 33.80375 -77.9375 33.1875 C-77 31 -77 31 -74.0625 29.5625 C-73.41925781 29.32917969 -72.77601563 29.09585938 -72.11328125 28.85546875 C-69.95437601 28.05241193 -69.95437601 28.05241193 -67.98046875 26.73828125 C-61.28887859 22.64832509 -55.08537077 22.39524892 -47.42480469 22.36474609 C-46.22452637 22.35048584 -46.22452637 22.35048584 -45 22.3359375 C-44.278125 22.34157715 -43.55625 22.3472168 -42.8125 22.35302734 C-42.214375 22.23652832 -41.61625 22.1200293 -41 22 C-40.34 21.01 -39.68 20.02 -39 19 C-36.8359375 18.70703125 -36.8359375 18.70703125 -34.375 18.8125 C-33.55773437 18.83957031 -32.74046875 18.86664063 -31.8984375 18.89453125 C-31.27195313 18.92933594 -30.64546875 18.96414062 -30 19 C-30 19.66 -30 20.32 -30 21 C-28.96875 21.0825 -27.9375 21.165 -26.875 21.25 C-22.47024613 22.10253301 -20.51487063 23.34241489 -17 26 C-18 29 -18 29 -20 30 C-19.505 31.485 -19.505 31.485 -19 33 C-18.01 33.33 -17.02 33.66 -16 34 C-15.855625 33.2575 -15.71125 32.515 -15.5625 31.75 C-15 29 -15 29 -14.375 26.875 C-13.7958595 24.78552327 -13.7958595 24.78552327 -15 22 C-15.66 21.67 -16.32 21.34 -17 21 C-17 20.34 -17 19.68 -17 19 C-15.906875 18.938125 -14.81375 18.87625 -13.6875 18.8125 C-9.89314858 18.4008426 -9.89314858 18.4008426 -8.25 15.625 C-7.8375 14.75875 -7.425 13.8925 -7 13 C-5.4375 11.1875 -5.4375 11.1875 -4 10 C-3.34 10 -2.68 10 -2 10 C-1.34 6.7 -0.68 3.4 0 0 Z " fill="#F4AA0A" transform="translate(225,77)"/>
<path d="M0 0 C0.2475 0.515625 0.495 1.03125 0.75 1.5625 C2.03952392 4.07707164 3.45209007 6.50086316 4.90234375 8.92578125 C6 11 6 11 7.3359375 14.328125 C8.92846605 18.09632637 11.15399658 21.24487769 13.6875 24.4375 C14.34298828 25.27728394 14.34298828 25.27728394 15.01171875 26.1340332 C18.6846257 30.76453853 22.67998519 34.96586852 27 39 C27.66 39.66 28.32 40.32 29 41 C27.35 41 25.7 41 24 41 C23.67 40.01 23.34 39.02 23 38 C22.34 37.835 21.68 37.67 21 37.5 C20.34 37.335 19.68 37.17 19 37 C18.67 36.01 18.34 35.02 18 34 C16.515 33.505 16.515 33.505 15 33 C14.93941406 33.62648437 14.87882812 34.25296875 14.81640625 34.8984375 C14.69072266 36.12433594 14.69072266 36.12433594 14.5625 37.375 C14.48128906 38.18710938 14.40007812 38.99921875 14.31640625 39.8359375 C14 42 14 42 13 44 C11.24312198 44.99024034 9.48385766 45.97805252 7.69140625 46.90234375 C5.68233132 48.04751017 5.68233132 48.04751017 4 51 C2.1953125 51.765625 2.1953125 51.765625 0.125 52.25 C-0.55304688 52.42015625 -1.23109375 52.5903125 -1.9296875 52.765625 C-4.21384039 53.02420835 -5.8209213 52.68401574 -8 52 C-6.69675781 51.31164062 -6.69675781 51.31164062 -5.3671875 50.609375 C-4.21476563 49.99578125 -3.06234375 49.3821875 -1.875 48.75 C-0.73804688 48.14671875 0.39890625 47.5434375 1.5703125 46.921875 C5.03718966 45.0419956 5.03718966 45.0419956 8.3046875 42.765625 C11 41 11 41 13 41 C12.50628906 40.25234375 12.01257813 39.5046875 11.50390625 38.734375 C10.86324219 37.74953125 10.22257812 36.7646875 9.5625 35.75 C8.92441406 34.77546875 8.28632813 33.8009375 7.62890625 32.796875 C6.2423864 30.41618385 5.453419 28.68219693 5 26 C4.34 26 3.68 26 3 26 C2.731875 25.278125 2.46375 24.55625 2.1875 23.8125 C1.00383639 21.00908619 -0.38888165 18.57778936 -2 16 C-4.03586776 12.74261158 -5.66140851 9.60390017 -7 6 C-4.5625 6.6875 -4.5625 6.6875 -2 8 C-1.1875 10.625 -1.1875 10.625 -1 13 C-0.01 13 0.98 13 2 13 C1.81535634 8.65815798 1.81535634 8.65815798 0 5 C-0.04063832 3.33382885 -0.042721 1.66611905 0 0 Z " fill="#FCFAE7" transform="translate(216,171)"/>
<path d="M0 0 C0.66 0.33 1.32 0.66 2 1 C1.67 1.99 1.34 2.98 1 4 C-0.98 4.33 -2.96 4.66 -5 5 C-5.68707555 7.49064888 -6 9.37886292 -6 12 C-6 12.66 -6 13.32 -6 14 C-8.23005002 14.57816112 -10.4107745 15.06687027 -12.6875 15.4375 C-13.450625 15.623125 -14.21375 15.80875 -15 16 C-15.33 16.66 -15.66 17.32 -16 18 C-16.66 18 -17.32 18 -18 18 C-18 18.66 -18 19.32 -18 20 C-19.32 20.33 -20.64 20.66 -22 21 C-22.08636719 21.59167969 -22.17273438 22.18335937 -22.26171875 22.79296875 C-23.44743204 29.46124624 -23.44743204 29.46124624 -26.5 32.4375 C-29.66133912 35.6778726 -29.88349472 38.11508075 -30.4453125 42.5 C-31.10292069 45.46386792 -32.39883761 47.43179894 -34 50 C-38.77985498 60.94421968 -38.8066762 72.24891285 -39 84 C-37.02 83.01 -37.02 83.01 -35 82 C-35 83.65 -35 85.3 -35 87 C-35.66 87 -36.32 87 -37 87 C-36.505 87.969375 -36.01 88.93875 -35.5 89.9375 C-33.60142633 94.28728381 -33.71410012 98.33030204 -34 103 C-36 102 -36 102 -37.0703125 99.640625 C-42.73709029 81.4229838 -42.76426354 59.54293298 -35 42 C-34.4514215 40.67594749 -33.90325575 39.35172391 -33.35546875 38.02734375 C-30.16312824 30.57187196 -26.33468104 24.14296605 -21 18 C-20.38253906 17.18917969 -19.76507813 16.37835938 -19.12890625 15.54296875 C-13.91147793 9.31077455 -6.88811748 4.28180275 0 0 Z " fill="#EAAE2A" transform="translate(253,73)"/>
<path d="M0 0 C3 1 3 1 4.38671875 3.28515625 C4.81597656 4.20167969 5.24523437 5.11820313 5.6875 6.0625 C6.12449219 6.98160156 6.56148437 7.90070313 7.01171875 8.84765625 C7.33785156 9.55792969 7.66398437 10.26820313 8 11 C7.34 11.66 6.68 12.32 6 13 C6 12.34 6 11.68 6 11 C5.01 11 4.02 11 3 11 C2.505 10.01 2.505 10.01 2 9 C-1.18234105 10.75454385 -1.18234105 10.75454385 -4 13 C-5.99958364 13.04080783 -8.00045254 13.04254356 -10 13 C-10 12.34 -10 11.68 -10 11 C-10.63164062 11.2165625 -11.26328125 11.433125 -11.9140625 11.65625 C-25.26276455 15.81088925 -39.40279672 15.17509965 -52 9 C-54.9375 7.4375 -54.9375 7.4375 -57 6 C-57 5.34 -57 4.68 -57 4 C-52.99009223 5.55222236 -49.08951146 7.30377723 -45.18359375 9.09765625 C-34.99476604 13.30806627 -22.36146201 11.57963872 -12.140625 8.359375 C-8.07945928 6.601557 -5.00105086 4.28969344 -1.76953125 1.29296875 C-1.18558594 0.86628906 -0.60164063 0.43960938 0 0 Z " fill="#F4AF06" transform="translate(207,177)"/>
<path d="M0 0 C2.31705474 2.8218879 3.61006747 5.24792512 4.625 8.75 C4.86476563 9.54921875 5.10453125 10.3484375 5.3515625 11.171875 C9.59830679 29.69381998 7.81957532 51.11373994 -1 68 C-1.966142 69.35806753 -2.95588309 70.70092431 -4 72 C-4 69.69 -4 67.38 -4 65 C-4.66 65 -5.32 65 -6 65 C-6 64.01 -6 63.02 -6 62 C-5.34 62 -4.68 62 -4 62 C-4 59.36 -4 56.72 -4 54 C-3.34 54 -2.68 54 -2 54 C-2 55.32 -2 56.64 -2 58 C-1.01 58 -0.02 58 1 58 C2.81845193 49.25331907 3.3435439 40.70618246 3.31567383 31.80737305 C3.31247756 29.6725109 3.33620258 27.53899258 3.36132812 25.40429688 C3.3635987 24.02343921 3.36430574 22.6425779 3.36328125 21.26171875 C3.36626221 20.03412842 3.36924316 18.80653809 3.37231445 17.54174805 C2.93853005 13.41524944 1.70193814 10.7630162 0 7 C-0.1875 3.0625 -0.1875 3.0625 0 0 Z " fill="#D77B30" transform="translate(374,114)"/>
<path d="M0 0 C1.4835001 0.42257276 2.96176424 0.86356322 4.4375 1.3125 C5.67306641 1.67794922 5.67306641 1.67794922 6.93359375 2.05078125 C7.61550781 2.36402344 8.29742187 2.67726562 9 3 C9.33 3.99 9.66 4.98 10 6 C11.65 6.33 13.3 6.66 15 7 C15 7.66 15 8.32 15 9 C18.3171411 10.4216319 21.44219804 11.39009109 25 12 C25 12.66 25 13.32 25 14 C25.680625 13.95875 26.36125 13.9175 27.0625 13.875 C31.72844309 14.07355077 35.97943431 15.68274987 40.41796875 17.0625 C46.21381026 18.49623282 52.06826895 18.21333047 58 18.125 C59.15628906 18.11597656 60.31257813 18.10695312 61.50390625 18.09765625 C64.33615647 18.07424922 67.16796619 18.04145995 70 18 C70 17.34 70 16.68 70 16 C70.69867188 15.97421875 71.39734375 15.9484375 72.1171875 15.921875 C73.48230469 15.83679688 73.48230469 15.83679688 74.875 15.75 C75.77992188 15.70359375 76.68484375 15.6571875 77.6171875 15.609375 C80.15990681 15.24920558 80.15990681 15.24920558 81.2578125 13.015625 C81.62519531 12.01789063 81.62519531 12.01789063 82 11 C83 10 83 10 85.50390625 9.90234375 C87.01791016 9.91974609 87.01791016 9.91974609 88.5625 9.9375 C89.57441406 9.94652344 90.58632813 9.95554688 91.62890625 9.96484375 C92.41136719 9.97644531 93.19382812 9.98804688 94 10 C90.98462812 12.44508878 88.00721092 14.04620468 84.4375 15.5625 C83.48746094 15.97628906 82.53742188 16.39007813 81.55859375 16.81640625 C65.03102487 22.31350106 43.08694507 23.05005561 27 16 C25.63615486 15.46095484 24.27010461 14.9274682 22.90234375 14.3984375 C19.24883467 12.97688116 15.62094094 11.50246512 12 10 C12 9.34 12 8.68 12 8 C11.13375 7.773125 10.2675 7.54625 9.375 7.3125 C5.35958105 5.75094819 3.14167478 3.91726944 0 1 C0 0.67 0 0.34 0 0 Z " fill="#D07E36" transform="translate(242,209)"/>
<path d="M0 0 C2.90457226 0.99585334 4.98048692 1.98408144 7.375 3.9375 C10.4318894 6.33934167 13.37987977 7.60276061 17 9 C17.886875 9.34933594 18.77375 9.69867188 19.6875 10.05859375 C31.40717739 13.38930395 43.27820914 11.31259908 54 6 C55.16402344 5.42378906 55.16402344 5.42378906 56.3515625 4.8359375 C56.89554687 4.56007812 57.43953125 4.28421875 58 4 C57.02133662 5.14626322 56.04205413 6.29199788 55.0625 7.4375 C54.24458984 8.39462891 54.24458984 8.39462891 53.41015625 9.37109375 C50.64938679 12.56012661 48.10958414 12.63291677 44 13 C39.87429747 13.1889191 35.75459887 13.23052076 31.625 13.25 C30.53960937 13.270625 29.45421875 13.29125 28.3359375 13.3125 C21.55083734 13.34527826 16.30802847 12.52321139 10 10 C10 10.99 10 11.98 10 13 C7.69 13 5.38 13 3 13 C1 9.25 1 9.25 1 7 C0.01 6.67 -0.98 6.34 -2 6 C-1.125 1.125 -1.125 1.125 0 0 Z " fill="#E5720C" transform="translate(265,177)"/>
<path d="M0 0 C1.68428101 -0.0148645 1.68428101 -0.0148645 3.40258789 -0.0300293 C13.72279927 0.07447346 23.63561582 1.87024072 33.125 6 C34.09824219 6.41378906 35.07148438 6.82757813 36.07421875 7.25390625 C38.4375 8.4375 38.4375 8.4375 40.4375 10.4375 C36.36372401 9.8264336 32.44659099 8.94660841 28.46875 7.90625 C26.13759226 7.33251877 26.13759226 7.33251877 22.5 6.9375 C20.9840625 6.69 20.9840625 6.69 19.4375 6.4375 C18.9425 5.4475 18.9425 5.4475 18.4375 4.4375 C16.08150765 3.96998212 16.08150765 3.96998212 13.375 3.8125 C12.45589844 3.73773438 11.53679687 3.66296875 10.58984375 3.5859375 C9.87957031 3.53695312 9.16929687 3.48796875 8.4375 3.4375 C8.4375 2.7775 8.4375 2.1175 8.4375 1.4375 C5.79125716 1.57771805 3.14565422 1.72439776 0.5 1.875 C-0.63211914 1.93397461 -0.63211914 1.93397461 -1.78710938 1.99414062 C-5.48194187 1.87788024 -5.48194187 1.87788024 -8.5625 3.4375 C-10.88202569 3.71851946 -13.20135514 3.88532625 -15.53125 4.05859375 C-16.53671875 4.24615234 -16.53671875 4.24615234 -17.5625 4.4375 C-17.8925 5.0975 -18.2225 5.7575 -18.5625 6.4375 C-21.50390625 6.8515625 -21.50390625 6.8515625 -25.125 7.0625 C-26.32253906 7.13726562 -27.52007812 7.21203125 -28.75390625 7.2890625 C-30.14416016 7.36253906 -30.14416016 7.36253906 -31.5625 7.4375 C-22.60860926 0.05001095 -11.05593114 0.05073265 0 0 Z " fill="#E7B02B" transform="translate(295.5625,61.5625)"/>
<path d="M0 0 C0.66846954 0.00276947 1.33693909 0.00553894 2.02566528 0.00839233 C27.90431688 0.13463345 27.90431688 0.13463345 37.4375 5.25 C37.4375 5.91 37.4375 6.57 37.4375 7.25 C38.38625 7.559375 39.335 7.86875 40.3125 8.1875 C43.4375 9.25 43.4375 9.25 45.4375 10.25 C45.4375 10.91 45.4375 11.57 45.4375 12.25 C39.86029381 10.49499412 34.66588061 8.13391262 29.36328125 5.6875 C20.35045607 2.0728765 10.71029919 1.86145187 1.125 1.875 C-0.65849854 1.87741699 -0.65849854 1.87741699 -2.47802734 1.87988281 C-11.15851009 2.00115514 -18.48653346 2.88790234 -26.5625 6.25 C-27.39136719 6.57355469 -28.22023438 6.89710937 -29.07421875 7.23046875 C-33.82914306 9.20832351 -38.27474535 11.69702902 -42.71484375 14.296875 C-44.5625 15.25 -44.5625 15.25 -46.5625 15.25 C-44.6875 11.375 -44.6875 11.375 -43.5625 10.25 C-41.89632885 10.20936168 -40.22861905 10.207279 -38.5625 10.25 C-38.5625 9.59 -38.5625 8.93 -38.5625 8.25 C-36.06456261 7.28599018 -33.56436341 6.32872453 -31.0625 5.375 C-30.36640625 5.10558594 -29.6703125 4.83617188 -28.953125 4.55859375 C-19.02979622 0.79140412 -10.62197142 -0.07547277 0 0 Z " fill="#FBE8A5" transform="translate(294.5625,60.75)"/>
<path d="M0 0 C3.9492568 0.55105909 7.34920174 1.38935371 11 3 C11 3.66 11 4.32 11 5 C12.093125 4.79375 13.18625 4.5875 14.3125 4.375 C18 4 18 4 21 6 C21.33 6.99 21.66 7.98 22 9 C30.24673723 11.61192342 38.98065091 11.66080902 47.5625 12.125 C49.06318988 12.21156891 50.56384154 12.29880314 52.06445312 12.38671875 C55.70922667 12.59881811 59.35443508 12.80190955 63 13 C55.04676008 18.30215994 39.61438292 15.74254244 30.52734375 14.1953125 C19.19011276 11.83271203 9.70297597 7.22020387 0 1 C0 0.67 0 0.34 0 0 Z " fill="#E2B434" transform="translate(129,214)"/>
<path d="M0 0 C0.99 0.33 1.98 0.66 3 1 C2.46987372 5.59157761 0.43658482 8.71923971 -2.125 12.4375 C-6.14787179 18.45849225 -9.46349458 24.61055724 -12.58984375 31.13671875 C-14 34 -14 34 -16 37 C-16.99 37 -17.98 37 -19 37 C-19 36.34 -19 35.68 -19 35 C-19.804375 34.71125 -20.60875 34.4225 -21.4375 34.125 C-24 33 -24 33 -25 31 C-21.65626525 31.55728913 -18.96687001 32.35173889 -16 34 C-15.855625 33.2575 -15.71125 32.515 -15.5625 31.75 C-15 29 -15 29 -14.375 26.875 C-13.7958595 24.78552327 -13.7958595 24.78552327 -15 22 C-15.66 21.67 -16.32 21.34 -17 21 C-17 20.34 -17 19.68 -17 19 C-15.906875 18.938125 -14.81375 18.87625 -13.6875 18.8125 C-9.89314858 18.4008426 -9.89314858 18.4008426 -8.25 15.625 C-7.8375 14.75875 -7.425 13.8925 -7 13 C-5.4375 11.1875 -5.4375 11.1875 -4 10 C-3.34 10 -2.68 10 -2 10 C-1.34 6.7 -0.68 3.4 0 0 Z " fill="#F4AC0B" transform="translate(225,77)"/>
<path d="M0 0 C0.33 0 0.66 0 1 0 C1 9.9 1 19.8 1 30 C1.66 30 2.32 30 3 30 C3.12375 31.216875 3.2475 32.43375 3.375 33.6875 C3.78890199 37.08269607 4.64875842 39.84710298 6 43 C6 43.99 6 44.98 6 46 C6.66 46 7.32 46 8 46 C8.23074219 46.6290625 8.46148437 47.258125 8.69921875 47.90625 C10.69165574 53.1354127 12.89669309 57.77586213 16.046875 62.40625 C17 64 17 64 17 66 C17.99 66 18.98 66 20 66 C20 66.99 20 67.98 20 69 C20.66 69 21.32 69 22 69 C21.67 69.99 21.34 70.98 21 72 C7.83247168 59.58686133 -0.40517734 39.5583303 -1.09375 21.54785156 C-1.13337052 18.947755 -1.13657427 16.35035201 -1.125 13.75 C-1.12886719 12.86570313 -1.13273437 11.98140625 -1.13671875 11.0703125 C-1.13542969 10.21695313 -1.13414063 9.36359375 -1.1328125 8.484375 C-1.13168457 7.71834961 -1.13055664 6.95232422 -1.12939453 6.16308594 C-0.99958485 3.99306 -0.59640404 2.08593348 0 0 Z " fill="#D08035" transform="translate(94,130)"/>
<path d="M0 0 C0.33 0 0.66 0 1 0 C1 1.65 1 3.3 1 5 C1.66 5 2.32 5 3 5 C3 6.65 3 8.3 3 10 C3.99 10.33 4.98 10.66 6 11 C6 11.66 6 12.32 6 13 C5.34 13 4.68 13 4 13 C4 13.66 4 14.32 4 15 C4.515625 14.46375 5.03125 13.9275 5.5625 13.375 C8 12 8 12 11.75 12.8125 C12.8225 13.204375 13.895 13.59625 15 14 C14.67 14.99 14.34 15.98 14 17 C13.360625 16.814375 12.72125 16.62875 12.0625 16.4375 C11.0415625 16.2209375 11.0415625 16.2209375 10 16 C9.67 16.33 9.34 16.66 9 17 C5.81826178 17.5432236 3.72168225 17.41105093 0.89453125 15.80078125 C-2.72338831 13.18454434 -5.22059776 11.17614812 -7 7 C-4.66666667 4.66666667 -2.33333333 2.33333333 0 0 Z " fill="#F6AC0D" transform="translate(125,197)"/>
<path d="M0 0 C2.475 1.485 2.475 1.485 5 3 C3.71937515 4.7074998 2.38232443 6.37373596 1 8 C0.34 8 -0.32 8 -1 8 C-1 8.66 -1 9.32 -1 10 C-2.65002828 11.35386936 -4.3174387 12.68678142 -6 14 C-6.33 14.66 -6.66 15.32 -7 16 C-7.66 16 -8.32 16 -9 16 C-9 16.66 -9 17.32 -9 18 C-10.57421875 19.515625 -10.57421875 19.515625 -12.6875 21.25 C-15.33101109 23.48250583 -17.67156335 25.65614181 -19.8125 28.375 C-22 31 -22 31 -25 32 C-27.64 29.03 -30.28 26.06 -33 23 C-30 23 -30 23 -27.9375 24.9375 C-27.298125 25.618125 -26.65875 26.29875 -26 27 C-25.34 27.33 -24.68 27.66 -24 28 C-24 27.34 -24 26.68 -24 26 C-23.01 26 -22.02 26 -21 26 C-20.67 25.34 -20.34 24.68 -20 24 C-19.34 24 -18.68 24 -18 24 C-17.67 22.35 -17.34 20.7 -17 19 C-16.360625 18.896875 -15.72125 18.79375 -15.0625 18.6875 C-14.381875 18.460625 -13.70125 18.23375 -13 18 C-12.67 17.01 -12.34 16.02 -12 15 C-10.7625 14.319375 -10.7625 14.319375 -9.5 13.625 C-6.75147228 12.22066726 -6.75147228 12.22066726 -6.1875 9.3125 C-6.0946875 8.1678125 -6.0946875 8.1678125 -6 7 C-4.35 6.67 -2.7 6.34 -1 6 C-0.67 4.02 -0.34 2.04 0 0 Z " fill="#F1A824" transform="translate(262,173)"/>
<path d="M0 0 C2 1.75 2 1.75 4 4 C4 5.32 4 6.64 4 8 C4.66 8 5.32 8 6 8 C6.5775 9.03125 7.155 10.0625 7.75 11.125 C9.15518443 13.5991283 10.63215318 15.97240014 12.25 18.3125 C14 21 14 21 14 23 C12.02518726 24.41789147 10.07957758 25.69072216 8 26.9375 C7.41001221 27.29650391 6.82002441 27.65550781 6.2121582 28.02539062 C1.91361976 30.58677201 -2.23842998 32.50617411 -7 34 C-6.67 33.01 -6.34 32.02 -6 31 C-4.02 30.67 -2.04 30.34 0 30 C0.33 29.01 0.66 28.02 1 27 C5.33333333 24 5.33333333 24 8 24 C7.814375 23.236875 7.62875 22.47375 7.4375 21.6875 C7 19 7 19 8 16 C7.34 15.38125 6.68 14.7625 6 14.125 C4 12 4 12 4 10 C3.34 10 2.68 10 2 10 C0.68373308 6.38026598 0 3.90432869 0 0 Z " fill="#E9AF30" transform="translate(215,189)"/>
<path d="M0 0 C0.66 0.33 1.32 0.66 2 1 C1.566875 2.38445312 1.566875 2.38445312 1.125 3.796875 C-3.45763664 19.47087975 -2.96198418 35.02644246 0 51 C-0.66 51 -1.32 51 -2 51 C-2 50.34 -2 49.68 -2 49 C-2.66 49 -3.32 49 -4 49 C-4.89416689 42.1305274 -5.15229377 35.42351999 -5.125 28.5 C-5.12886719 27.51902344 -5.13273437 26.53804687 -5.13671875 25.52734375 C-5.12883165 19.60413463 -4.76459736 13.87404955 -4 8 C-3.01 8 -2.02 8 -1 8 C-0.67 5.36 -0.34 2.72 0 0 Z " fill="#FDFAE8" transform="translate(96,117)"/>
<path d="M0 0 C0 0.33 0 0.66 0 1 C-1.13179687 1.06058594 -2.26359375 1.12117188 -3.4296875 1.18359375 C-4.91147145 1.26799917 -6.3932416 1.35264717 -7.875 1.4375 C-8.99455078 1.49647461 -8.99455078 1.49647461 -10.13671875 1.55664062 C-14.19986864 1.71573624 -14.19986864 1.71573624 -18 3 C-19.43393653 3.17748134 -20.8724964 3.31891147 -22.3125 3.4375 C-25.89777656 3.80346124 -28.69392939 4.52096841 -32 6 C-33.11375 6.309375 -34.2275 6.61875 -35.375 6.9375 C-39.05344838 7.92227716 -39.05344838 7.92227716 -42.5625 9.625 C-46.02534454 11.01013782 -48.31791451 11.26942089 -52 11 C-50.50567562 8.01135124 -48.30616995 7.72246798 -45.25 6.5 C-44.20328125 6.0771875 -43.1565625 5.654375 -42.078125 5.21875 C-41.06234375 4.8165625 -40.0465625 4.414375 -39 4 C-37.75669922 3.46246094 -37.75669922 3.46246094 -36.48828125 2.9140625 C-25.08360895 -1.27540896 -11.93853742 -0.21619082 0 0 Z " fill="#E8AC23" transform="translate(188,62)"/>
<path d="M0 0 C-11.23106297 9.44326111 -22.77342369 12.91373128 -37.26953125 12.33203125 C-42.05366337 11.90621844 -46.66166082 11.14457583 -51 9 C-51.33 8.34 -51.66 7.68 -52 7 C-50.90558594 7.2165625 -50.90558594 7.2165625 -49.7890625 7.4375 C-40.13257918 9.15420815 -30.77916196 9.19755883 -21 9 C-21 8.34 -21 7.68 -21 7 C-18.69 7 -16.38 7 -14 7 C-14 6.34 -14 5.68 -14 5 C-12.35 5 -10.7 5 -9 5 C-9 4.34 -9 3.68 -9 3 C-8.34 3 -7.68 3 -7 3 C-6.67 2.01 -6.34 1.02 -6 0 C-3 -1 -3 -1 0 0 Z " fill="#FDE8AF" transform="translate(209,177)"/>
<path d="M0 0 C0.66 0 1.32 0 2 0 C1.608125 1.155 1.21625 2.31 0.8125 3.5 C0.544375 4.34046875 0.27625 5.1809375 0 6.046875 C-0.69682559 8.10468808 -1.47476332 10.13604079 -2.3125 12.140625 C-8.38812607 28.08914342 -8.10902982 47.54011536 -4 64 C-4.66 64 -5.32 64 -6 64 C-8.19725222 56.27053567 -8.27418704 48.78981321 -8.20581055 40.82617188 C-8.18759649 38.6365991 -8.18530129 36.44745315 -8.18554688 34.2578125 C-8.1653568 26.46311858 -7.90260064 18.7505247 -7 11 C-6.01 11 -5.02 11 -4 11 C-3.7834375 9.576875 -3.7834375 9.576875 -3.5625 8.125 C-3 5 -3 5 -2 3 C-1.34 3 -0.68 3 0 3 C0 2.01 0 1.02 0 0 Z " fill="#FCECB4" transform="translate(220,106)"/>
<path d="M0 0 C0.9178125 0.01353516 1.835625 0.02707031 2.78125 0.04101562 C5.02146803 0.07601903 7.26040594 0.12511131 9.5 0.1875 C9.5 0.8475 9.5 1.5075 9.5 2.1875 C8.46101563 2.22488281 7.42203125 2.26226562 6.3515625 2.30078125 C-6.86452422 2.87546274 -16.64902017 5.01480194 -27.5 13.1875 C-27.83 13.8475 -28.16 14.5075 -28.5 15.1875 C-29.16 15.1875 -29.82 15.1875 -30.5 15.1875 C-30.768125 15.785625 -31.03625 16.38375 -31.3125 17 C-32.48493467 19.15974808 -33.69369282 20.54540256 -35.5 22.1875 C-34.19121113 16.76537468 -32.95742064 14.66646245 -28.5 11.1875 C-27.84 10.1975 -27.18 9.2075 -26.5 8.1875 C-24.17518826 7.16784573 -21.84205301 6.16690398 -19.5 5.1875 C-19.17 4.5275 -18.84 3.8675 -18.5 3.1875 C-12.18672283 0.19738134 -6.91394845 -0.1959622 0 0 Z " fill="#E8AD33" transform="translate(294.5,99.8125)"/>
<path d="M0 0 C2.64 0 5.28 0 8 0 C8.33 0.66 8.66 1.32 9 2 C8.34 2 7.68 2 7 2 C7 2.99 7 3.98 7 5 C7.5775 4.67 8.155 4.34 8.75 4 C11 3 11 3 15 3 C15.125 8.75 15.125 8.75 14 11 C14.66 11 15.32 11 16 11 C16 10.34 16 9.68 16 9 C16.66 9 17.32 9 18 9 C18 11.64 18 14.28 18 17 C17.34 17.33 16.68 17.66 16 18 C15.40832031 17.25234375 14.81664062 16.5046875 14.20703125 15.734375 C13.41683594 14.74953125 12.62664062 13.7646875 11.8125 12.75 C11.03519531 11.77546875 10.25789063 10.8009375 9.45703125 9.796875 C7.09092853 6.93832829 7.09092853 6.93832829 4.19921875 4.765625 C3.47347656 4.18296875 2.74773437 3.6003125 2 3 C2 2.34 2 1.68 2 1 C1.34 0.67 0.68 0.34 0 0 Z " fill="#FDFAF1" transform="translate(350,80)"/>
<path d="M0 0 C1.53720703 0.52400391 1.53720703 0.52400391 3.10546875 1.05859375 C4.46609137 1.51839036 5.82677151 1.9780168 7.1875 2.4375 C8.19780273 2.78264648 8.19780273 2.78264648 9.22851562 3.13476562 C17.33851793 5.86447372 24.49108226 6.21304487 33 6.25 C34.15628906 6.270625 35.31257813 6.29125 36.50390625 6.3125 C44.74644163 6.34933815 52.04977492 5.08597721 60 3 C61.66411608 2.65415819 63.33003118 2.31637483 65 2 C61.83152384 6.35665471 56.25155565 6.56771603 51.31054688 7.51635742 C45.72678167 8.33209775 40.11134433 8.18594073 34.47973633 8.18530273 C32.33589426 8.18747628 30.19257855 8.20562941 28.04882812 8.22460938 C20.18413035 8.25572216 12.69249744 7.80861303 5 6 C5 5.34 5 4.68 5 4 C4.360625 3.896875 3.72125 3.79375 3.0625 3.6875 C2.381875 3.460625 1.70125 3.23375 1 3 C0.67 2.01 0.34 1.02 0 0 Z " fill="#FADEB2" transform="translate(262,222)"/>
<path d="M0 0 C4.00990777 1.55222236 7.91048854 3.30377723 11.81640625 5.09765625 C23.72196087 10.01748294 37.27124953 6.77477027 49 3 C48.0177112 5.64126543 47.45890663 6.77224634 44.890625 8.046875 C29.98736937 12.0151975 15.61723128 10.64746345 2.0625 3.4375 C1.381875 2.963125 0.70125 2.48875 0 2 C0 1.34 0 0.68 0 0 Z " fill="#E4AB2B" transform="translate(150,181)"/>
<path d="M0 0 C0.33 0 0.66 0 1 0 C1.12549613 7.52976753 1.12549613 7.52976753 0.51367188 9.82226562 C-0.05754166 12.24395037 -0.21032448 14.4990307 -0.31640625 16.984375 C-0.35830078 17.91894531 -0.40019531 18.85351562 -0.44335938 19.81640625 C-0.48267578 20.78449219 -0.52199219 21.75257813 -0.5625 22.75 C-0.60568359 23.73355469 -0.64886719 24.71710938 -0.69335938 25.73046875 C-0.79922052 28.15351275 -0.90130171 30.5766554 -1 33 C0.32 32.34 1.64 31.68 3 31 C3 32.65 3 34.3 3 36 C2.34 36 1.68 36 1 36 C1.495 36.969375 1.99 37.93875 2.5 38.9375 C4.39857367 43.28728381 4.28589988 47.33030204 4 52 C2 51 2 51 0.9296875 48.640625 C-1.93951961 39.41665548 -2.37379721 30.64878939 -2.375 21 C-2.3764502 19.73575195 -2.37790039 18.47150391 -2.37939453 17.16894531 C-2.30753252 11.10185395 -2.12483886 5.71156685 0 0 Z " fill="#E3B041" transform="translate(215,124)"/>
<path d="M0 0 C0.66 0 1.32 0 2 0 C2 0.66 2 1.32 2 2 C2.66 2 3.32 2 4 2 C8.42750885 10.57829841 10.58321027 18.15929506 10.5625 27.875 C10.56540039 29.17473755 10.56540039 29.17473755 10.56835938 30.50073242 C10.42764026 36.07672728 9.9291755 42.12198632 7 47 C4.89282227 47.74560547 4.89282227 47.74560547 3 48 C3.28875 47.36578125 3.5775 46.7315625 3.875 46.078125 C8.46643832 34.53575922 9.42488995 20.62228546 4.625 9 C3.78709066 7.31438121 2.91652797 5.64419563 2 4 C1.32973703 2.66847089 0.66171468 1.33579785 0 0 Z " fill="#DA8337" transform="translate(332,119)"/>
<path d="M0 0 C1.51400391 0.01740234 1.51400391 0.01740234 3.05859375 0.03515625 C4.07050781 0.04417969 5.08242188 0.05320313 6.125 0.0625 C6.90746094 0.07410156 7.68992187 0.08570313 8.49609375 0.09765625 C-4.47316305 10.61409853 -20.73728338 10.4098666 -36.50390625 10.09765625 C-36.50390625 9.76765625 -36.50390625 9.43765625 -36.50390625 9.09765625 C-26.10890625 8.60265625 -26.10890625 8.60265625 -15.50390625 8.09765625 C-15.50390625 7.43765625 -15.50390625 6.77765625 -15.50390625 6.09765625 C-14.80523437 6.071875 -14.1065625 6.04609375 -13.38671875 6.01953125 C-12.47664063 5.9628125 -11.5665625 5.90609375 -10.62890625 5.84765625 C-9.72398437 5.80125 -8.8190625 5.75484375 -7.88671875 5.70703125 C-5.34399944 5.34686183 -5.34399944 5.34686183 -4.24609375 3.11328125 C-4.00117188 2.448125 -3.75625 1.78296875 -3.50390625 1.09765625 C-2.50390625 0.09765625 -2.50390625 0.09765625 0 0 Z " fill="#CF7C2C" transform="translate(327.50390625,218.90234375)"/>
<path d="M0 0 C0 0.33 0 0.66 0 1 C-0.60585937 1.08636719 -1.21171875 1.17273438 -1.8359375 1.26171875 C-8.63957585 2.40263657 -13.97216361 4.72561974 -20 8 C-21.82924494 8.94545244 -23.66250143 9.88319038 -25.5 10.8125 C-26.3146875 11.23144531 -27.129375 11.65039062 -27.96875 12.08203125 C-30 13 -30 13 -32 13 C-32.226875 13.598125 -32.45375 14.19625 -32.6875 14.8125 C-34.34703745 17.57839575 -36.20498395 18.46274117 -39 20 C-39.66 20.66 -40.32 21.32 -41 22 C-40.625 19.5625 -40.625 19.5625 -40 17 C-39.34 16.67 -38.68 16.34 -38 16 C-37.72285156 15.34128906 -37.44570312 14.68257812 -37.16015625 14.00390625 C-36 12 -36 12 -33.87109375 11.27734375 C-32.66646484 11.10912109 -32.66646484 11.10912109 -31.4375 10.9375 C-29.04681229 10.65741114 -29.04681229 10.65741114 -27 10 C-26.67 9.01 -26.34 8.02 -26 7 C-24.68 7 -23.36 7 -22 7 C-22 6.34 -22 5.68 -22 5 C-18.7 4.34 -15.4 3.68 -12 3 C-12 2.34 -12 1.68 -12 1 C-7.9472484 0.01751476 -4.16138263 -0.08159574 0 0 Z " fill="#FDF4C5" transform="translate(160,63)"/>
<path d="M0 0 C5.2271448 7.8407172 4.09349796 20.48252171 2.31640625 29.44921875 C0.21373804 35.56527858 -3.16534296 40.823213 -7 46 C-7.33 44.68 -7.66 43.36 -8 42 C-6.515 41.505 -6.515 41.505 -5 41 C-4.67 38.69 -4.34 36.38 -4 34 C-3.01 34 -2.02 34 -1 34 C0.14503657 27.988558 0.04136301 22.12016231 -0.0625 16.01171875 C0 13 0 13 1 11 C0.855625 10.443125 0.71125 9.88625 0.5625 9.3125 C-0.19758892 6.18769 -0.06158477 3.20240799 0 0 Z " fill="#FDEBC7" transform="translate(337,129)"/>
<path d="M0 0 C7.77865539 4.21775981 14.52657045 7.91673823 20 15 C18.02 16.32 16.04 17.64 14 19 C14 18.34 14 17.68 14 17 C12.68 16.67 11.36 16.34 10 16 C10.33 15.34 10.66 14.68 11 14 C10.01 13.67 9.02 13.34 8 13 C8 11.02 8 9.04 8 7 C6.02 6.01 4.04 5.02 2 4 C2 3.34 2 2.68 2 2 C1.34 2 0.68 2 0 2 C0 1.34 0 0.68 0 0 Z " fill="#F5AC08" transform="translate(337,72)"/>
<path d="M0 0 C-10.83678413 8.82063824 -22.34075432 11.17066733 -35.97363281 10.21386719 C-40.14802366 9.77329292 -44.250417 8.93240921 -48 7 C-48.33 6.34 -48.66 5.68 -49 5 C-47.20767663 5.30871122 -45.41615679 5.62209064 -43.625 5.9375 C-42.12839844 6.19853516 -42.12839844 6.19853516 -40.6015625 6.46484375 C-38 7 -38 7 -36 8 C-33.81423854 8.09663965 -31.62539152 8.12980327 -29.4375 8.125 C-28.26058594 8.12757813 -27.08367187 8.13015625 -25.87109375 8.1328125 C-23.10327299 8.32783188 -23.10327299 8.32783188 -22 7 C-19.66702567 6.95907063 -17.33294775 6.95758277 -15 7 C-15 6.34 -15 5.68 -15 5 C-14.01 5 -13.02 5 -12 5 C-11.7215625 4.071875 -11.7215625 4.071875 -11.4375 3.125 C-10 1 -10 1 -6.5625 -0.3125 C-3 -1 -3 -1 0 0 Z " fill="#F9DFB6" transform="translate(326,179)"/>
<path d="M0 0 C0.66 0 1.32 0 2 0 C1.76880644 9.49995347 -0.95228669 18.53761692 -7 26 C-7 23.69 -7 21.38 -7 19 C-7.66 19 -8.32 19 -9 19 C-9 18.01 -9 17.02 -9 16 C-8.34 16 -7.68 16 -7 16 C-7 13.36 -7 10.72 -7 8 C-6.34 8 -5.68 8 -5 8 C-5 9.32 -5 10.64 -5 12 C-4.01 12 -3.02 12 -2 12 C-1.34 8.04 -0.68 4.08 0 0 Z " fill="#DC771C" transform="translate(377,160)"/>
<path d="M0 0 C2.12994908 4.25989815 3.84933106 8.59619635 5.5859375 13.02734375 C7.04853593 16.10203271 8.77847679 18.43343169 11 21 C10.34 22.32 9.68 23.64 9 25 C8.34 25 7.68 25 7 25 C5.30225062 26.29352333 3.63260714 27.62517293 2 29 C2.33 27.68 2.66 26.36 3 25 C3.66 25 4.32 25 5 25 C5 24.34 5 23.68 5 23 C4.34 23 3.68 23 3 23 C3.33 19.7 3.66 16.4 4 13 C2.68 12.67 1.36 12.34 0 12 C0 8.04 0 4.08 0 0 Z " fill="#E3730E" transform="translate(134,154)"/>
<path d="M0 0 C0 0.33 0 0.66 0 1 C-1.03640625 1.03738281 -2.0728125 1.07476562 -3.140625 1.11328125 C-4.51045184 1.17895788 -5.88024191 1.24540464 -7.25 1.3125 C-8.27287109 1.34633789 -8.27287109 1.34633789 -9.31640625 1.38085938 C-13.57897465 1.60847225 -15.76725274 2.28505208 -19 5 C-21.32227822 5.59840275 -23.60469133 5.93456503 -25.9765625 6.27734375 C-28.17340041 6.82255514 -28.17340041 6.82255514 -29.19140625 8.95703125 C-29.45824219 9.63121094 -29.72507813 10.30539063 -30 11 C-31.3125 12.75 -31.3125 12.75 -33 14 C-35.6875 14.1875 -35.6875 14.1875 -38 14 C-37.1875 12.0625 -37.1875 12.0625 -36 10 C-35.01 9.67 -34.02 9.34 -33 9 C-32.360625 8.236875 -31.72125 7.47375 -31.0625 6.6875 C-23.09009023 -1.42643184 -10.45037049 -0.47742809 0 0 Z " fill="#FBEDBE" transform="translate(184,102)"/>
<path d="M0 0 C0 0.66 0 1.32 0 2 C-0.66 2 -1.32 2 -2 2 C-2 2.66 -2 3.32 -2 4 C-28.69514954 8.16373461 -28.69514954 8.16373461 -40 7 C-40.66 6.34 -41.32 5.68 -42 5 C-41.38181396 4.9906543 -40.76362793 4.98130859 -40.12670898 4.97167969 C-28.62250405 4.75387386 -17.87511211 4.34417498 -6.86328125 0.83984375 C-4 0 -4 0 0 0 Z " fill="#FEF1B6" transform="translate(208,224)"/>
<path d="M0 0 C0.99 0.33 1.98 0.66 3 1 C3 1.99 3 2.98 3 4 C5.31 4.33 7.62 4.66 10 5 C10.33 6.65 10.66 8.3 11 10 C11.99 10.33 12.98 10.66 14 11 C14 11.66 14 12.32 14 13 C14.99 13 15.98 13 17 13 C17.33 14.65 17.66 16.3 18 18 C13.39137539 16.50897439 10.46669756 14.30545582 7 11 C7 10.01 7 9.02 7 8 C6.401875 7.938125 5.80375 7.87625 5.1875 7.8125 C2.09660471 6.66445318 1.4119656 4.89452948 0 2 C0 1.34 0 0.68 0 0 Z " fill="#FAEBCC" transform="translate(139,166)"/>
<path d="M0 0 C0.73935791 0.00008057 1.47871582 0.00016113 2.24047852 0.00024414 C17.88301432 0.16025716 17.88301432 0.16025716 23.9375 3.1875 C23.9375 3.8475 23.9375 4.5075 23.9375 5.1875 C16.44680317 4.28345038 16.44680317 4.28345038 13.2109375 3.67382812 C9.82766047 3.17118136 6.64542517 3.07416089 3.2265625 3.08984375 C1.98261719 3.09306641 0.73867187 3.09628906 -0.54296875 3.09960938 C-1.82816406 3.10798828 -3.11335937 3.11636719 -4.4375 3.125 C-5.74589844 3.12951172 -7.05429688 3.13402344 -8.40234375 3.13867188 C-11.62244281 3.15042406 -14.8424477 3.16685457 -18.0625 3.1875 C-12.25738959 0.13417781 -6.47034871 -0.00661665 0 0 Z " fill="#FDEBB5" transform="translate(178.0625,59.8125)"/>
<path d="M0 0 C0.66 0.33 1.32 0.66 2 1 C1.00003665 2.16409107 -0.02624684 3.30559271 -1.0625 4.4375 C-1.63097656 5.07558594 -2.19945312 5.71367187 -2.78515625 6.37109375 C-8.57161135 10.62674062 -17.90786865 9.18356322 -24.75 9.1875 C-25.88566406 9.19974609 -27.02132813 9.21199219 -28.19140625 9.22460938 C-29.27808594 9.22654297 -30.36476563 9.22847656 -31.484375 9.23046875 C-32.47147461 9.23457764 -33.45857422 9.23868652 -34.47558594 9.24291992 C-37 9 -37 9 -40 7 C-39.67 6.34 -39.34 5.68 -39 5 C-37.77990234 5.48146484 -37.77990234 5.48146484 -36.53515625 5.97265625 C-24.99269222 9.32698558 -12.50455759 7.62744156 -2 2 C-1.34 1.34 -0.68 0.68 0 0 Z " fill="#CF7B2E" transform="translate(321,181)"/>
<path d="M0 0 C0.52207031 0.24234375 1.04414063 0.4846875 1.58203125 0.734375 C0.96328125 0.816875 0.34453125 0.899375 -0.29296875 0.984375 C-0.99421875 1.231875 -1.69546875 1.479375 -2.41796875 1.734375 C-2.85109375 2.6625 -2.85109375 2.6625 -3.29296875 3.609375 C-4.92647827 6.69489298 -7.29962581 7.37857372 -10.41796875 8.734375 C-10.41796875 10.714375 -10.41796875 12.694375 -10.41796875 14.734375 C-11.40796875 14.734375 -12.39796875 14.734375 -13.41796875 14.734375 C-13.08796875 13.744375 -12.75796875 12.754375 -12.41796875 11.734375 C-14.06796875 11.734375 -15.71796875 11.734375 -17.41796875 11.734375 C-17.41796875 12.394375 -17.41796875 13.054375 -17.41796875 13.734375 C-18.07796875 13.404375 -18.73796875 13.074375 -19.41796875 12.734375 C-19.08796875 12.074375 -18.75796875 11.414375 -18.41796875 10.734375 C-17.75796875 10.734375 -17.09796875 10.734375 -16.41796875 10.734375 C-16.08796875 9.744375 -15.75796875 8.754375 -15.41796875 7.734375 C-13.33519495 6.18899751 -11.31172196 4.82585361 -9.10546875 3.484375 C-8.52345703 3.10796875 -7.94144531 2.7315625 -7.34179688 2.34375 C-3.00218627 -0.32980398 -3.00218627 -0.32980398 0 0 Z " fill="#FDF9EB" transform="translate(282.41796875,104.265625)"/>
<path d="M0 0 C0.33 0 0.66 0 1 0 C1.07419134 4.21749219 1.1286204 8.43463811 1.16479492 12.65258789 C1.17987589 14.08722552 1.2003438 15.52181708 1.22631836 16.95629883 C1.26273437 19.01915859 1.27973243 21.08140858 1.29296875 23.14453125 C1.3086792 24.38565674 1.32438965 25.62678223 1.34057617 26.90551758 C0.96706399 30.29925733 0.54547575 30.92458206 -2 33 C-2.33 33.99 -2.66 34.98 -3 36 C-3.66 36 -4.32 36 -5 36 C-4.27382577 31.47537597 -3.39863688 26.9931844 -2.5 22.5 C-1.04352096 15.00803317 -0.34576981 7.63078203 0 0 Z " fill="#FAECCC" transform="translate(381,140)"/>
<path d="M0 0 C0.66 0.33 1.32 0.66 2 1 C1.23302204 2.41875765 0.46123222 3.83491452 -0.3125 5.25 C-0.74175781 6.03890625 -1.17101562 6.8278125 -1.61328125 7.640625 C-3 10 -3 10 -4.54296875 11.859375 C-8.70816016 17.97874469 -8.25132429 24.82932922 -8.125 31.9375 C-8.11597656 32.90751953 -8.10695312 33.87753906 -8.09765625 34.87695312 C-8.07426107 37.25156407 -8.04148176 39.62564776 -8 42 C-11.92096056 34.97649383 -10.91704936 24.41851055 -9.3125 16.6875 C-7.20557536 10.50718771 -3.87189991 5.22706487 0 0 Z " fill="#FDE6C4" transform="translate(144,116)"/>
<path d="M0 0 C7.03128878 0.43384548 13.329015 1.74321997 20 4 C20 4.33 20 4.66 20 5 C17.36 5 14.72 5 12 5 C11.67 5.66 11.34 6.32 11 7 C8.6859378 7.73075648 6.35171131 8.40138258 4 9 C4 6.69 4 4.38 4 2 C2.68 1.34 1.36 0.68 0 0 Z " fill="#F4AF03" transform="translate(188,63)"/>
<path d="M0 0 C1.32 0 2.64 0 4 0 C4.66 3.3 5.32 6.6 6 10 C6.66 10 7.32 10 8 10 C9.00926479 14.15626368 9.10239579 18.04365094 9.0625 22.3125 C9.05347656 23.56675781 9.04445313 24.82101563 9.03515625 26.11328125 C9.02355469 27.06589844 9.01195312 28.01851562 9 29 C8.67 29 8.34 29 8 29 C7.91363281 28.36835938 7.82726562 27.73671875 7.73828125 27.0859375 C6.63662788 20.07174083 4.62103717 13.70572187 2.12109375 7.06640625 C1.25749648 4.70430222 0.53587671 2.45058226 0 0 Z " fill="#FDF0CB" transform="translate(372,107)"/>
<path d="M0 0 C0.99 0.66 1.98 1.32 3 2 C2.38125 2.2475 1.7625 2.495 1.125 2.75 C-1.45810285 4.26947227 -1.73547387 5.32217995 -3 8 C-4.64163668 10.03044537 -6.29564524 12.02438157 -8 14 C-10.75960237 17.23267706 -12.61748005 19.96765014 -14 24 C-14.33 24 -14.66 24 -15 24 C-15.125 18.25 -15.125 18.25 -14 16 C-13.01 16 -12.02 16 -11 16 C-11.33 14.68 -11.66 13.36 -12 12 C-11.01 12.33 -10.02 12.66 -9 13 C-8.67 11.68 -8.34 10.36 -8 9 C-7.34 9 -6.68 9 -6 9 C-5.855625 8.38125 -5.71125 7.7625 -5.5625 7.125 C-5 5 -5 5 -4 3 C-3.34 3 -2.68 3 -2 3 C-2 2.34 -2 1.68 -2 1 C-1.34 0.67 -0.68 0.34 0 0 Z " fill="#FDF4C2" transform="translate(237,82)"/>
<path d="M0 0 C0.66 0 1.32 0 2 0 C3.49524178 2.2727675 4.78399715 4.5679943 6 7 C4.700625 6.7834375 4.700625 6.7834375 3.375 6.5625 C-1.04958524 7.13605735 -1.93881625 8.79272264 -4.5625 12.1953125 C-6.42571462 14.53445695 -8.63626558 16.18174276 -11 18 C-12.68528688 19.64783606 -14.35697047 21.31002677 -16 23 C-16.33 22.34 -16.66 21.68 -17 21 C-16.2575 20.278125 -15.515 19.55625 -14.75 18.8125 C-12.04139481 16.15316684 -12.04139481 16.15316684 -10.125 13.5625 C-8.27026751 11.32591082 -6.56312225 9.79224705 -4.3125 8 C-1.83086268 5.95317947 -1.0894586 5.27433969 -0.0625 2.125 C-0.041875 1.42375 -0.02125 0.7225 0 0 Z " fill="#FCA914" transform="translate(144,174)"/>
<path d="M0 0 C0.66 0.33 1.32 0.66 2 1 C1.2575 1.680625 0.515 2.36125 -0.25 3.0625 C-2.34615543 5.12904871 -3.74409798 7.1541183 -5.125 9.75 C-7 13 -7 13 -10 14 C-10 14.66 -10 15.32 -10 16 C-8.68 16 -7.36 16 -6 16 C-6.33 16.99 -6.66 17.98 -7 19 C-11.875 16.375 -11.875 16.375 -13 13 C-12.34 13 -11.68 13 -11 13 C-10.76539063 12.43796875 -10.53078125 11.8759375 -10.2890625 11.296875 C-8.69337 8.45364109 -6.71075457 6.51901873 -4.375 4.25 C-3.55773437 3.45078125 -2.74046875 2.6515625 -1.8984375 1.828125 C-0.95871094 0.92320312 -0.95871094 0.92320312 0 0 Z " fill="#DE7602" transform="translate(251,191)"/>
<path d="M0 0 C-2 2 -2 2 -5.625 2.125 C-6.73875 2.08375 -7.8525 2.0425 -9 2 C-9 2.66 -9 3.32 -9 4 C-19.89 3.67 -30.78 3.34 -42 3 C-42 2.67 -42 2.34 -42 2 C-41.12263184 1.97494385 -40.24526367 1.9498877 -39.34130859 1.92407227 C-36.06482809 1.82854616 -32.78850102 1.72933757 -29.51220703 1.62768555 C-28.09818835 1.58455749 -26.68412498 1.54286832 -25.27001953 1.50268555 C-23.2293556 1.4444425 -21.18891205 1.38090859 -19.1484375 1.31640625 C-17.92302246 1.27974854 -16.69760742 1.24309082 -15.43505859 1.20532227 C-10.20369933 0.8926305 -5.26751689 -0.12541707 0 0 Z " fill="#FDFAE2" transform="translate(322,228)"/>
<path d="M0 0 C0.66 0.33 1.32 0.66 2 1 C2.33 1.99 2.66 2.98 3 4 C5.95377498 6.36980013 5.95377498 6.36980013 10 6 C10 6.99 10 7.98 10 9 C10.515625 8.46375 11.03125 7.9275 11.5625 7.375 C14 6 14 6 17.75 6.8125 C18.8225 7.204375 19.895 7.59625 21 8 C20.67 8.99 20.34 9.98 20 11 C19.360625 10.814375 18.72125 10.62875 18.0625 10.4375 C17.0415625 10.2209375 17.0415625 10.2209375 16 10 C15.67 10.33 15.34 10.66 15 11 C11.81826178 11.5432236 9.72168225 11.41105093 6.89453125 9.80078125 C3.27661169 7.18454434 0.77940224 5.17614812 -1 1 C-0.67 0.67 -0.34 0.34 0 0 Z " fill="#F1AE0B" transform="translate(119,203)"/>
<path d="M0 0 C3.82946843 1.45255699 5.12050295 3.42895561 7 7 C4.525 6.505 4.525 6.505 2 6 C2 5.34 2 4.68 2 4 C0.27189692 4.99698255 -1.45613011 5.9940974 -3.18359375 6.9921875 C-5 8 -5 8 -7.3125 9 C-9.49361182 10.29251071 -10.07404415 11.68511037 -11 14 C-11.66 14 -12.32 14 -13 14 C-12.67 13.01 -12.34 12.02 -12 11 C-11.34 11 -10.68 11 -10 11 C-9.67 10.01 -9.34 9.02 -9 8 C-6.21537003 4.98958922 -3.35324899 2.35969373 0 0 Z " fill="#DF7704" transform="translate(356,87)"/>
<path d="M0 0 C4.51617599 -0.07654536 8.59085217 -0.10228696 13 1 C13 1.66 13 2.32 13 3 C13.99 3 14.98 3 16 3 C16 3.66 16 4.32 16 5 C17.32 5 18.64 5 20 5 C20.33 6.32 20.66 7.64 21 9 C22.32 9.33 23.64 9.66 25 10 C24.67 11.32 24.34 12.64 24 14 C23.401875 13.29875 22.80375 12.5975 22.1875 11.875 C16.21802302 5.92248176 8.16823057 2.54117558 0 1 C0 0.67 0 0.34 0 0 Z " fill="#E2B245" transform="translate(304,102)"/>
<path d="M0 0 C0.66 0 1.32 0 2 0 C1.52140759 1.60433809 1.04210442 3.20846416 0.5625 4.8125 C0.29566406 5.70582031 0.02882812 6.59914062 -0.24609375 7.51953125 C-0.80387873 9.35473055 -1.39344575 11.18033726 -2 13 C-2.14403348 14.33363703 -2.24590423 15.67218046 -2.31640625 17.01171875 C-2.35830078 17.76904297 -2.40019531 18.52636719 -2.44335938 19.30664062 C-2.48267578 20.09232422 -2.52199219 20.87800781 -2.5625 21.6875 C-2.60568359 22.48478516 -2.64886719 23.28207031 -2.69335938 24.10351562 C-2.79927368 26.06881447 -2.90012551 28.03438496 -3 30 C-3.66 29.67 -4.32 29.34 -5 29 C-5.57725602 18.17324258 -5.29472055 9.81414273 0 0 Z " fill="#D0843D" transform="translate(137,123)"/>
<path d="M0 0 C6.93 1.65 13.86 3.3 21 5 C19 7 19 7 15.91796875 7.08203125 C14.68691406 6.99308594 13.45585937 6.90414062 12.1875 6.8125 C10.35251953 6.69841797 10.35251953 6.69841797 8.48046875 6.58203125 C4.91478445 5.98574959 2.81704564 5.24827071 0 3 C0 2.01 0 1.02 0 0 Z " fill="#FEF5D1" transform="translate(144,223)"/>
<path d="M0 0 C0 0.99 0 1.98 0 3 C-1.7578125 3.94401042 -3.515625 4.88802083 -5.2734375 5.83203125 C-7.30502365 7.04763493 -7.30502365 7.04763493 -9 10 C-10.8046875 10.765625 -10.8046875 10.765625 -12.875 11.25 C-13.55304688 11.42015625 -14.23109375 11.5903125 -14.9296875 11.765625 C-17.21384039 12.02420835 -18.8209213 11.68401574 -21 11 C-20.13117188 10.54109375 -19.26234375 10.0821875 -18.3671875 9.609375 C-17.21476563 8.99578125 -16.06234375 8.3821875 -14.875 7.75 C-13.73804688 7.14671875 -12.60109375 6.5434375 -11.4296875 5.921875 C-7.96281034 4.0419956 -7.96281034 4.0419956 -4.6953125 1.765625 C-2 0 -2 0 0 0 Z " fill="#FBEFBB" transform="translate(229,212)"/>
<path d="M0 0 C0.66 0.33 1.32 0.66 2 1 C0.8774654 3.27208206 -0.24791521 5.54267645 -1.375 7.8125 C-1.69210938 8.45509766 -2.00921875 9.09769531 -2.3359375 9.75976562 C-3.76458611 12.63194461 -5.21785473 15.3267821 -7 18 C-7.99 18 -8.98 18 -10 18 C-10 17.34 -10 16.68 -10 16 C-10.804375 15.71125 -11.60875 15.4225 -12.4375 15.125 C-15 14 -15 14 -16 12 C-12.65626525 12.55728913 -9.96687001 13.35173889 -7 15 C-6.896875 14.236875 -6.79375 13.47375 -6.6875 12.6875 C-5.91325322 9.66089895 -5.14164574 9.14164574 -3 7 C-1.86177174 4.70809241 -0.94415749 2.38287368 0 0 Z " fill="#E0B338" transform="translate(216,96)"/>
<path d="M0 0 C5.95507399 0.3916035 10.62819824 1.37124595 16 4 C16 4.66 16 5.32 16 6 C16.94875 6.309375 17.8975 6.61875 18.875 6.9375 C22 8 22 8 24 9 C24 9.66 24 10.32 24 11 C19.50567509 9.57061226 15.20377571 7.86988152 10.875 6 C9.67617188 5.484375 8.47734375 4.96875 7.2421875 4.4375 C4.78830548 3.34951376 2.38279485 2.23288888 0 1 C0 0.67 0 0.34 0 0 Z " fill="#FBEDB5" transform="translate(316,62)"/>
<path d="M0 0 C0.66 0.33 1.32 0.66 2 1 C1.72285156 1.94617188 1.44570312 2.89234375 1.16015625 3.8671875 C-1.74057483 14.27788474 -2.75033237 24.21435836 -3 35 C-3.33 35 -3.66 35 -4 35 C-4 26.09 -4 17.18 -4 8 C-3.01 8 -2.02 8 -1 8 C-0.67 5.36 -0.34 2.72 0 0 Z " fill="#FDEDCC" transform="translate(96,117)"/>
<path d="M0 0 C0.66 0.33 1.32 0.66 2 1 C1.67 1.99 1.34 2.98 1 4 C-0.98 4.33 -2.96 4.66 -5 5 C-5.68707555 7.49064888 -6 9.37886292 -6 12 C-6 12.66 -6 13.32 -6 14 C-9.01031744 14.93423645 -9.86650268 15.04449911 -13 14 C-12 11 -12 11 -10.125 9.625 C-7.84044751 8.09455001 -7.84044751 8.09455001 -6.5625 5.5 C-4.73459975 2.5753596 -3.10990439 1.43534049 0 0 Z " fill="#EEAF07" transform="translate(253,73)"/>
<path d="M0 0 C1.65 0.99 3.3 1.98 5 3 C3.71937515 4.7074998 2.38232443 6.37373596 1 8 C0.34 8 -0.32 8 -1 8 C-1 8.66 -1 9.32 -1 10 C-2.65002828 11.35386936 -4.3174387 12.68678142 -6 14 C-6.33 14.66 -6.66 15.32 -7 16 C-7.66 16 -8.32 16 -9 16 C-9 15.01 -9 14.02 -9 13 C-8.34 12.67 -7.68 12.34 -7 12 C-6.34444881 9.47266765 -6.34444881 9.47266765 -6 7 C-4.35 6.67 -2.7 6.34 -1 6 C-0.67 4.02 -0.34 2.04 0 0 Z " fill="#FAA81E" transform="translate(262,173)"/>
<path d="M0 0 C1.32 0 2.64 0 4 0 C4 1.32 4 2.64 4 4 C3.01 4 2.02 4 1 4 C1.09539062 4.90363281 1.19078125 5.80726563 1.2890625 6.73828125 C1.39992188 7.91777344 1.51078125 9.09726563 1.625 10.3125 C1.74101563 11.48425781 1.85703125 12.65601563 1.9765625 13.86328125 C2 17 2 17 0 20 C0 18.68 0 17.36 0 16 C-0.66 16 -1.32 16 -2 16 C-1.33333333 10.66666667 -0.66666667 5.33333333 0 0 Z " fill="#F46E07" transform="translate(102,160)"/>
<path d="M0 0 C3.68579122 3.22914452 5.68356245 6.88653531 7.75 11.25 C8.06582031 11.8996875 8.38164062 12.549375 8.70703125 13.21875 C9.47873965 14.80893701 10.24040275 16.40399229 11 18 C9.02 18.66 7.04 19.32 5 20 C5 19.34 5 18.68 5 18 C5.66 18 6.32 18 7 18 C6.38144369 16.3725363 5.75492695 14.74809644 5.125 13.125 C4.77695312 12.22007813 4.42890625 11.31515625 4.0703125 10.3828125 C3.11469105 7.87782993 3.11469105 7.87782993 1 6 C0.60235737 4.01178687 0.26224651 2.01055661 0 0 Z " fill="#D1833D" transform="translate(363,94)"/>
<path d="M0 0 C-1.9020859 0.95104295 -3.80482755 1.90079808 -5.7109375 2.84375 C-7.18739841 3.58953913 -8.65230331 4.35888807 -10.1015625 5.15625 C-14.25604135 7.40191424 -17.14385899 8.4856141 -22 8 C-20.50567562 5.01135124 -18.30616995 4.72246798 -15.25 3.5 C-14.20328125 3.0771875 -13.1565625 2.654375 -12.078125 2.21875 C-11.06234375 1.8165625 -10.0465625 1.414375 -9 1 C-8.12859375 0.5978125 -7.2571875 0.195625 -6.359375 -0.21875 C-3.74420245 -1.08470118 -2.54639668 -0.94310988 0 0 Z " fill="#E6B946" transform="translate(158,65)"/>
<path d="M0 0 C7.53007251 -0.72404543 13.31351053 1.60532073 20 5 C20.66 5.66 21.32 6.32 22 7 C18.63306559 6.49495984 15.35386555 5.85973291 12.0625 5 C8.38832502 4.05136908 4.76403001 3.47050375 1 3 C0.67 2.01 0.34 1.02 0 0 Z " fill="#E8AB24" transform="translate(314,65)"/>
<path d="M0 0 C0.89771234 2.42382331 1.09639781 3.69327968 0.3125 6.1875 C-0.3371875 7.5796875 -0.3371875 7.5796875 -1 9 C-1.70994653 10.60345338 -2.41817054 12.20767013 -3.125 13.8125 C-3.74909369 15.20873879 -4.37379084 16.60470871 -5 18 C-5.33 18 -5.66 18 -6 18 C-6.33266291 11.79029227 -5.45029331 7.71735105 -3 2 C-2.01 2 -1.02 2 0 2 C0 1.34 0 0.68 0 0 Z " fill="#F0AD0D" transform="translate(222,110)"/>
<path d="M0 0 C0.33 0 0.66 0 1 0 C1.09816042 4.12273784 1.08953921 8.00502289 0 12 C-1.9375 13.0625 -1.9375 13.0625 -4 14 C-5.86033262 17.52484076 -6.45245041 21.07589463 -7 25 C-7.66 25 -8.32 25 -9 25 C-7.94068042 15.81202404 -4.07171999 8.16521388 0 0 Z " fill="#D57A29" transform="translate(104,103)"/>
<path d="M0 0 C-0.81984375 0.26554687 -1.6396875 0.53109375 -2.484375 0.8046875 C-4.10085937 1.33449219 -4.10085937 1.33449219 -5.75 1.875 C-6.81734375 2.22304687 -7.8846875 2.57109375 -8.984375 2.9296875 C-12.62164534 4.20197918 -12.62164534 4.20197918 -16 6 C-16.33 6.99 -16.66 7.98 -17 9 C-18.9375 10.0625 -18.9375 10.0625 -21 11 C-21.66 11.66 -22.32 12.32 -23 13 C-23.33 11.68 -23.66 10.36 -24 9 C-23.01 9 -22.02 9 -21 9 C-20.979375 8.401875 -20.95875 7.80375 -20.9375 7.1875 C-20 5 -20 5 -17 3.4375 C-15.67260457 2.9421215 -14.33854992 2.46439487 -13 2 C-12.23300781 1.70738281 -11.46601563 1.41476563 -10.67578125 1.11328125 C-3.9842242 -1.33107265 -3.9842242 -1.33107265 0 0 Z " fill="#E3AF36" transform="translate(168,103)"/>
<path d="M0 0 C-1.56069006 3.83078469 -4.06814114 6.14143762 -7 9 C-7.99 10.485 -7.99 10.485 -9 12 C-9.66 12 -10.32 12 -11 12 C-11 12.66 -11 13.32 -11 14 C-12.32 14.33 -13.64 14.66 -15 15 C-15 15.66 -15 16.32 -15 17 C-15.66 17 -16.32 17 -17 17 C-14.67936891 11.51487198 -6.5250161 0 0 0 Z " fill="#E2B33F" transform="translate(246,79)"/>
<path d="M0 0 C0.33 0.99 0.66 1.98 1 3 C-0.328125 5.41015625 -0.328125 5.41015625 -2.25 8.0625 C-2.87390625 8.94035156 -3.4978125 9.81820312 -4.140625 10.72265625 C-6 13 -6 13 -9 15 C-11.1875 14.625 -11.1875 14.625 -13 14 C-12.38125 13.7525 -11.7625 13.505 -11.125 13.25 C-8.8926498 12.19627726 -8.8926498 12.19627726 -8.09375 10.1875 C-6.82962919 7.65925838 -5.26315732 5.84795258 -3.375 3.75 C-2.74335938 3.04359375 -2.11171875 2.3371875 -1.4609375 1.609375 C-0.97882813 1.07828125 -0.49671875 0.5471875 0 0 Z " fill="#F8EAD0" transform="translate(367,192)"/>
<path d="M0 0 C0.66 0 1.32 0 2 0 C2.66 0.66 3.32 1.32 4 2 C4.66 2 5.32 2 6 2 C6 7.94 6 13.88 6 20 C5.67 20 5.34 20 5 20 C4.67 16.7 4.34 13.4 4 10 C3.01 10 2.02 10 1 10 C0.67 6.7 0.34 3.4 0 0 Z " fill="#F1AE0E" transform="translate(246,134)"/>
<path d="M0 0 C9.83743016 -0.33706931 18.50386702 -0.02149686 28 3 C28 3.66 28 4.32 28 5 C28.66 5 29.32 5 30 5 C30 5.66 30 6.32 30 7 C29.21625 6.731875 28.4325 6.46375 27.625 6.1875 C26.42875 5.795625 25.2325 5.40375 24 5 C23.29617187 4.74734375 22.59234375 4.4946875 21.8671875 4.234375 C14.65374764 1.80608831 7.57435931 1.31650781 0 1 C0 0.67 0 0.34 0 0 Z " fill="#E3B849" transform="translate(170,101)"/>
<path d="M0 0 C1 2 1 2 0.25 4.5625 C-1 7 -1 7 -4 8 C-4 8.66 -4 9.32 -4 10 C-4.66 10 -5.32 10 -6 10 C-5.67 11.65 -5.34 13.3 -5 15 C-6.98 15.33 -8.96 15.66 -11 16 C-10.34 14.35 -9.68 12.7 -9 11 C-8.34 11 -7.68 11 -7 11 C-6.89816406 10.41734375 -6.79632813 9.8346875 -6.69140625 9.234375 C-5.88482847 6.62780725 -4.75842991 5.26464586 -2.9375 3.25 C-2.38964844 2.63640625 -1.84179688 2.0228125 -1.27734375 1.390625 C-0.85582031 0.93171875 -0.43429688 0.4728125 0 0 Z " fill="#D9863D" transform="translate(116,87)"/>
<path d="M0 0 C5.33333333 5.33333333 10.66666667 10.66666667 16 16 C14.35 16 12.7 16 11 16 C10.67 15.01 10.34 14.02 10 13 C9.37480469 12.86335937 8.74960938 12.72671875 8.10546875 12.5859375 C6 12 6 12 4.55078125 10.0390625 C3.93783203 8.84410156 3.93783203 8.84410156 3.3125 7.625 C2.89613281 6.83351562 2.47976562 6.04203125 2.05078125 5.2265625 C1 3 1 3 0 0 Z " fill="#FDECBD" transform="translate(229,196)"/>
<path d="M0 0 C0.33 0 0.66 0 1 0 C1 1.65 1 3.3 1 5 C0.34 5 -0.32 5 -1 5 C-0.2575 6.4540625 -0.2575 6.4540625 0.5 7.9375 C2.39857367 12.28728381 2.28589988 16.33030204 2 21 C0 20 0 20 -1.125 17.125 C-2.41015116 12.21898645 -2.56700344 7.02798637 -2 2 C-1.34 1.34 -0.68 0.68 0 0 Z " fill="#E7AF29" transform="translate(217,155)"/>
<path d="M0 0 C1.32 0.33 2.64 0.66 4 1 C3.50628906 1.54269531 3.01257813 2.08539063 2.50390625 2.64453125 C1.86324219 3.35996094 1.22257812 4.07539062 0.5625 4.8125 C-0.07558594 5.52019531 -0.71367188 6.22789063 -1.37109375 6.95703125 C-3.19086012 8.99896152 -3.19086012 8.99896152 -4 12 C-4.66 12 -5.32 12 -6 12 C-6.66 13.65 -7.32 15.3 -8 17 C-8.33 17 -8.66 17 -9 17 C-9 15.35 -9 13.7 -9 12 C-8.34 12 -7.68 12 -7 12 C-6.731875 10.865625 -6.46375 9.73125 -6.1875 8.5625 C-5.795625 7.386875 -5.40375 6.21125 -5 5 C-4.01 4.67 -3.02 4.34 -2 4 C-0.79117904 1.99983534 -0.79117904 1.99983534 0 0 Z " fill="#FCEACB" transform="translate(113,86)"/>
<path d="M0 0 C7.77865539 4.21775981 14.52657045 7.91673823 20 15 C19.01 15.495 19.01 15.495 18 16 C18 15.34 18 14.68 18 14 C17.278125 13.773125 16.55625 13.54625 15.8125 13.3125 C12.45674285 11.74648 10.60817863 9.60817863 8 7 C4.83354526 5.20679176 4.83354526 5.20679176 2 4 C2 3.34 2 2.68 2 2 C1.34 2 0.68 2 0 2 C0 1.34 0 0.68 0 0 Z " fill="#E3AC35" transform="translate(337,72)"/>
<path d="M0 0 C0.99 0.33 1.98 0.66 3 1 C5.2258159 1.53497194 7.45544002 2.05420911 9.6875 2.5625 C11.45673828 2.96662109 11.45673828 2.96662109 13.26171875 3.37890625 C14.61716797 3.68634766 14.61716797 3.68634766 16 4 C16 4.33 16 4.66 16 5 C9.07 5 2.14 5 -5 5 C-3.68 4.01 -2.36 3.02 -1 2 C-0.67 1.34 -0.34 0.68 0 0 Z " fill="#FBFDE8" transform="translate(293,56)"/>
<path d="M0 0 C1.51400391 0.01740234 1.51400391 0.01740234 3.05859375 0.03515625 C4.07050781 0.04417969 5.08242188 0.05320313 6.125 0.0625 C7.29869141 0.07990234 7.29869141 0.07990234 8.49609375 0.09765625 C3.58911264 3.81352369 0.8177671 5.38500504 -5.50390625 5.09765625 C-3.09571996 0.12073791 -3.09571996 0.12073791 0 0 Z " fill="#D97519" transform="translate(327.50390625,218.90234375)"/>
<path d="M0 0 C-1.28062485 1.7074998 -2.61767557 3.37373596 -4 5 C-4.66 5 -5.32 5 -6 5 C-6.33 5.99 -6.66 6.98 -7 8 C-9.4375 10.6875 -9.4375 10.6875 -12 13 C-12.66 13 -13.32 13 -14 13 C-14.33 13.99 -14.66 14.98 -15 16 C-15.99 16.33 -16.98 16.66 -18 17 C-18 16.34 -18 15.68 -18 15 C-17.34 15 -16.68 15 -16 15 C-15.7525 14.4225 -15.505 13.845 -15.25 13.25 C-13.81700012 10.67060021 -12.21575324 8.93878408 -10 7 C-9.34 7 -8.68 7 -8 7 C-7.7525 6.05125 -7.505 5.1025 -7.25 4.125 C-6 1 -6 1 -4 -0.4375 C-2 -1 -2 -1 0 0 Z " fill="#F9AC22" transform="translate(347,96)"/>
<path d="M0 0 C2.97 1.65 5.94 3.3 9 5 C9 5.66 9 6.32 9 7 C9.78375 7.12375 10.5675 7.2475 11.375 7.375 C14 8 14 8 16 10 C11.28885985 9.8848388 7.29264153 9.70311254 3.5 6.6875 C1 4 1 4 0 0 Z " fill="#FDEBCE" transform="translate(245,212)"/>
<path d="M0 0 C0.66 0 1.32 0 2 0 C3.1815224 3.5445672 2.64290553 5.35686868 2 9 C1.96296931 10.99965715 1.95239444 13.00056665 2 15 C0.68 15.33 -0.64 15.66 -2 16 C-1.34 10.72 -0.68 5.44 0 0 Z " fill="#E0760A" transform="translate(104,112)"/>
<path d="M0 0 C0.66 0.33 1.32 0.66 2 1 C-2.82995861 6.24927977 -7.93974033 10.24841068 -14 14 C-14.66 13.34 -15.32 12.68 -16 12 C-15.34 12 -14.68 12 -14 12 C-14 11.34 -14 10.68 -14 10 C-12.68 10 -11.36 10 -10 10 C-10 9.34 -10 8.68 -10 8 C-9.34 8 -8.68 8 -8 8 C-8 7.34 -8 6.68 -8 6 C-7.01 6 -6.02 6 -5 6 C-5 5.34 -5 4.68 -5 4 C-4.34 4 -3.68 4 -3 4 C-3 3.01 -3 2.02 -3 1 C-2.01 0.67 -1.02 0.34 0 0 Z " fill="#D0762B" transform="translate(354,204)"/>
<path d="M0 0 C1.485 0.99 1.485 0.99 3 2 C3 2.66 3 3.32 3 4 C3.66 4 4.32 4 5 4 C6.5078125 5.86328125 6.5078125 5.86328125 8.125 8.3125 C8.66382813 9.11300781 9.20265625 9.91351563 9.7578125 10.73828125 C11 13 11 13 11 16 C10.34 16 9.68 16 9 16 C7.59765625 14.20703125 7.59765625 14.20703125 6.0625 11.8125 C5.53527344 10.99265625 5.00804687 10.1728125 4.46484375 9.328125 C3.98144531 8.55984375 3.49804688 7.7915625 3 7 C2.38125 6.030625 1.7625 5.06125 1.125 4.0625 C0 2 0 2 0 0 Z " fill="#FCEAC5" transform="translate(325,112)"/>
<path d="M0 0 C0.99 0.33 1.98 0.66 3 1 C2.45207105 5.6182583 0.41035512 8.98149647 -2.0625 12.8125 C-2.43955078 13.40998047 -2.81660156 14.00746094 -3.20507812 14.62304688 C-4.12989566 16.08636577 -5.06402065 17.54379523 -6 19 C-6.97918775 15.92443042 -7.1498998 15.31407577 -5.6875 12.25 C-5.130625 11.5075 -4.57375 10.765 -4 10 C-3.34 10 -2.68 10 -2 10 C-1.34 6.7 -0.68 3.4 0 0 Z " fill="#E3B130" transform="translate(225,77)"/>
<path d="M0 0 C0 1.66666667 0 3.33333333 0 5 C-1.65 5.33 -3.3 5.66 -5 6 C-5 6.99 -5 7.98 -5 9 C-5.763125 9.0825 -6.52625 9.165 -7.3125 9.25 C-10.52373261 10.14615794 -11.29374499 11.21611025 -13 14 C-13.66 13.34 -14.32 12.68 -15 12 C-14.01 11.67 -13.02 11.34 -12 11 C-11.67 10.01 -11.34 9.02 -11 8 C-9.02678947 6.6273318 -7.02456848 5.29572383 -5 4 C-3.98198643 3.01834406 -2.9753197 2.02408568 -2 1 C-1.34 0.67 -0.68 0.34 0 0 Z " fill="#E9B33E" transform="translate(132,74)"/>
<path d="M0 0 C7.92 3.96 7.92 3.96 16 8 C16 8.33 16 8.66 16 9 C10.61136893 9.3265837 5.84567024 8.46707121 1.5625 5.0625 C0 3 0 3 0 0 Z " fill="#FBF5CA" transform="translate(128,214)"/>
<path d="M0 0 C4.83531794 7.25297691 3.04753096 15.75069367 2 24 C1.67 24 1.34 24 1 24 C0.80533668 22.20909747 0.61948787 20.41723495 0.4375 18.625 C0.33308594 17.62726563 0.22867187 16.62953125 0.12109375 15.6015625 C0 13 0 13 1 11 C0.855625 10.443125 0.71125 9.88625 0.5625 9.3125 C-0.19758892 6.18769 -0.06158477 3.20240799 0 0 Z " fill="#FCF0D5" transform="translate(337,129)"/>
<path d="M0 0 C0.66 0 1.32 0 2 0 C2.4125 1.051875 2.825 2.10375 3.25 3.1875 C4.35901856 5.82473553 5.30800225 7.3696027 7.1875 9.625 C9.27514436 12.36053398 9.38347912 13.64455768 9 17 C3.91810524 12.6440902 0.83019484 6.64155871 0 0 Z " fill="#E4AE39" transform="translate(219,176)"/>
<path d="M0 0 C1.65 0 3.3 0 5 0 C5.33 1.65 5.66 3.3 6 5 C5.34 4.67 4.68 4.34 4 4 C4 3.34 4 2.68 4 2 C3.34 2 2.68 2 2 2 C2 4.97 2 7.94 2 11 C1.01 10.67 0.02 10.34 -1 10 C-0.67 6.7 -0.34 3.4 0 0 Z " fill="#E3710D" transform="translate(128,152)"/>
<path d="M0 0 C4.875 0.875 4.875 0.875 6 2 C6.25 4.9375 6.25 4.9375 6 8 C5.01 8.66 4.02 9.32 3 10 C1.78715124 13.05429073 1.78715124 13.05429073 1 16 C0.34 15.67 -0.32 15.34 -1 15 C0.75 9.25 0.75 9.25 3 7 C3.6425235 4.93125966 3.6425235 4.93125966 4 3 C2.68 2.34 1.36 1.68 0 1 C0 0.67 0 0.34 0 0 Z " fill="#FDEDB7" transform="translate(224,75)"/>
<path d="M0 0 C1.5133049 3.02660981 2.89700552 6.00358737 4.1875 9.125 C4.55230469 9.99382812 4.91710937 10.86265625 5.29296875 11.7578125 C6 14 6 14 5 16 C4.67 15.01 4.34 14.02 4 13 C2.68 12.67 1.36 12.34 0 12 C0 8.04 0 4.08 0 0 Z " fill="#DB7A2D" transform="translate(134,154)"/>
<path d="M0 0 C0.33 0 0.66 0 1 0 C1.04898438 0.81984375 1.09796875 1.6396875 1.1484375 2.484375 C1.22320312 3.56203125 1.29796875 4.6396875 1.375 5.75 C1.44460937 6.81734375 1.51421875 7.8846875 1.5859375 8.984375 C1.97872194 11.84503146 2.66324481 13.49897416 4 16 C4.125 19.25 4.125 19.25 4 22 C4.66 22.33 5.32 22.66 6 23 C5.01 23 4.02 23 3 23 C-0.21819111 15.22270481 -0.32098157 8.35740901 0 0 Z " fill="#FEF1B8" transform="translate(253,140)"/>
<path d="M0 0 C2.375 -0.1875 2.375 -0.1875 5 0 C5.66 0.99 6.32 1.98 7 3 C3.68885166 4.12880057 0.41021743 5.21302675 -3 6 C-3.66 4.68 -4.32 3.36 -5 2 C-2.525 2.495 -2.525 2.495 0 3 C0 2.01 0 1.02 0 0 Z " fill="#F16E0C" transform="translate(275,187)"/>
<path d="M0 0 C0.66 0 1.32 0 2 0 C1.34 2.97 0.68 5.94 0 9 C-1.98 9 -3.96 9 -6 9 C-5.34 7.02 -4.68 5.04 -4 3 C-2.68 3 -1.36 3 0 3 C0 2.01 0 1.02 0 0 Z " fill="#FBFDEC" transform="translate(176,178)"/>
<path d="M0 0 C0.33 0 0.66 0 1 0 C0.8125 3.3125 0.8125 3.3125 0 7 C-2.375 8.75 -2.375 8.75 -5 10 C-6.75149165 11.58245275 -6.75149165 11.58245275 -8 13 C-8.99 12.67 -9.98 12.34 -11 12 C-9.6696875 10.9790625 -9.6696875 10.9790625 -8.3125 9.9375 C-4.81318985 7.05181295 -2.5565831 3.7253068 0 0 Z " fill="#D37B2B" transform="translate(334,168)"/>
<path d="M0 0 C2.64 0 5.28 0 8 0 C8.33 0.66 8.66 1.32 9 2 C8.34 2 7.68 2 7 2 C7 2.99 7 3.98 7 5 C7.99 5 8.98 5 10 5 C9.67 5.99 9.34 6.98 9 8 C7.82780457 7.21654285 6.66236332 6.42297164 5.5 5.625 C4.8503125 5.18414062 4.200625 4.74328125 3.53125 4.2890625 C3.0259375 3.86367187 2.520625 3.43828125 2 3 C2 2.34 2 1.68 2 1 C1.34 0.67 0.68 0.34 0 0 Z " fill="#FDF3D7" transform="translate(350,80)"/>
<path d="M0 0 C8.95652174 -0.62608696 8.95652174 -0.62608696 13.125 1.875 C15 4 15 4 15 6 C10 4.33333333 5 2.66666667 0 1 C0 0.67 0 0.34 0 0 Z " fill="#F9F2C2" transform="translate(202,65)"/>
<path d="M0 0 C0.99 0.33 1.98 0.66 3 1 C4.1875 4.0625 4.1875 4.0625 5 7 C4.01 7 3.02 7 2 7 C2 5.68 2 4.36 2 3 C0.3603125 4.0209375 0.3603125 4.0209375 -1.3125 5.0625 C-3.17578125 6.22265625 -3.17578125 6.22265625 -5 7 C-5.99 6.67 -6.98 6.34 -8 6 C-6.7391988 4.96680187 -5.46596742 3.94875621 -4.1875 2.9375 C-3.47980469 2.36902344 -2.77210938 1.80054688 -2.04296875 1.21484375 C-1.36878906 0.81394531 -0.69460937 0.41304687 0 0 Z " fill="#E6B13D" transform="translate(207,177)"/>
<path d="M0 0 C0.66 0.33 1.32 0.66 2 1 C0.625 3 0.625 3 -1 5 C-1.66 5 -2.32 5 -3 5 C-3 5.99 -3 6.98 -3 8 C-5.64 8.66 -8.28 9.32 -11 10 C-8.3310967 6.34261399 -5.95013947 4.18297181 -2 2 C-1.34 1.34 -0.68 0.68 0 0 Z " fill="#E67013" transform="translate(330,176)"/>
<path d="M0 0 C0.33 0 0.66 0 1 0 C1 1.98 1 3.96 1 6 C0.01 6.33 -0.98 6.66 -2 7 C-2.33 10.3 -2.66 13.6 -3 17 C-3.66 17 -4.32 17 -5 17 C-4.58846263 12.02906176 -4.20399168 7.55491614 -2 3 C-1.34 3 -0.68 3 0 3 C0 2.01 0 1.02 0 0 Z " fill="#FCF1C3" transform="translate(259,122)"/>
<path d="M0 0 C0.66 0.33 1.32 0.66 2 1 C-0.1217363 2.33878572 -2.24705188 3.67115476 -4.375 5 C-4.97828125 5.3815625 -5.5815625 5.763125 -6.203125 6.15625 C-10.7734375 9 -10.7734375 9 -13 9 C-11.125 5.125 -11.125 5.125 -10 4 C-8.33382885 3.95936168 -6.66611905 3.957279 -5 4 C-5 3.34 -5 2.68 -5 2 C-2.625 0.9375 -2.625 0.9375 0 0 Z " fill="#FDF4C5" transform="translate(261,67)"/>
<path d="M0 0 C3.9492568 0.55105909 7.34920174 1.38935371 11 3 C11 3.66 11 4.32 11 5 C12.32 5.66 13.64 6.32 15 7 C14.01 7.495 14.01 7.495 13 8 C10.72265625 7.109375 10.72265625 7.109375 8.0625 5.75 C7.18722656 5.31171875 6.31195313 4.8734375 5.41015625 4.421875 C3.21531155 3.12702335 1.68465218 1.89036879 0 0 Z " fill="#E7B139" transform="translate(129,214)"/>
<path d="M0 0 C0.99 0 1.98 0 3 0 C3 3.96 3 7.92 3 12 C2.34 12 1.68 12 1 12 C-0.3271261 8.0186217 -0.06915913 4.14954773 0 0 Z " fill="#EA6F12" transform="translate(103,164)"/>
<path d="M0 0 C0.66 0 1.32 0 2 0 C2 2.64 2 5.28 2 8 C1.01 8.495 1.01 8.495 0 9 C-1.98 6.36 -3.96 3.72 -6 1 C-3.03 1.495 -3.03 1.495 0 2 C0 1.34 0 0.68 0 0 Z " fill="#FBF0DB" transform="translate(366,89)"/>
<path d="M0 0 C0 0.33 0 0.66 0 1 C-0.60585937 1.08636719 -1.21171875 1.17273438 -1.8359375 1.26171875 C-8.59027664 2.39436947 -14.0344565 4.67452682 -20 8 C-20.33 7.34 -20.66 6.68 -21 6 C-20.34 6 -19.68 6 -19 6 C-19 5.34 -19 4.68 -19 4 C-15.535 3.505 -15.535 3.505 -12 3 C-12 2.34 -12 1.68 -12 1 C-7.9472484 0.01751476 -4.16138263 -0.08159574 0 0 Z " fill="#FCEBB5" transform="translate(160,63)"/>
<path d="M0 0 C7.03128878 0.43384548 13.329015 1.74321997 20 4 C20 4.33 20 4.66 20 5 C12.88515313 4.6143354 6.64558134 3.60900601 0 1 C0 0.67 0 0.34 0 0 Z " fill="#E3AD30" transform="translate(188,63)"/>
<path d="M0 0 C0.33 0.99 0.66 1.98 1 3 C0.0479279 4.00596297 -0.91187346 5.00461563 -1.875 6 C-2.40867187 6.556875 -2.94234375 7.11375 -3.4921875 7.6875 C-5 9 -5 9 -7 9 C-7.33 9.99 -7.66 10.98 -8 12 C-8.99 11.67 -9.98 11.34 -11 11 C-9.33333333 9.33333333 -7.66666667 7.66666667 -6 6 C-5.278125 5.236875 -4.55625 4.47375 -3.8125 3.6875 C-2 2 -2 2 0 2 C0 1.34 0 0.68 0 0 Z " fill="#DB7C0B" transform="translate(127,192)"/>
<path d="M0 0 C2.63664741 2.63664741 4.255224 4.75970171 6 8 C6 8.66 6 9.32 6 10 C4.35 10.33 2.7 10.66 1 11 C0.67 7.37 0.34 3.74 0 0 Z " fill="#F6FBF7" transform="translate(222,190)"/>
<path d="M0 0 C4.875 1.875 4.875 1.875 6 3 C6.04063832 4.66617115 6.042721 6.33388095 6 8 C6.66 8 7.32 8 8 8 C8.33 9.98 8.66 11.96 9 14 C8.34 13.67 7.68 13.34 7 13 C7 12.01 7 11.02 7 10 C6.34 10 5.68 10 5 10 C4.731875 9.278125 4.46375 8.55625 4.1875 7.8125 C3.01017502 5.02409874 1.60854116 2.55904276 0 0 Z " fill="#FDEEBD" transform="translate(214,187)"/>
<path d="M0 0 C2.8670615 2.8670615 4 4.91591468 4 9 C4.66 9 5.32 9 6 9 C6 9.66 6 10.32 6 11 C5.01 10.67 4.02 10.34 3 10 C3 9.01 3 8.02 3 7 C2.34 7 1.68 7 1 7 C1 6.34 1 5.68 1 5 C0.360625 4.896875 -0.27875 4.79375 -0.9375 4.6875 C-1.618125 4.460625 -2.29875 4.23375 -3 4 C-3.33 3.01 -3.66 2.02 -4 1 C-2.68 1.33 -1.36 1.66 0 2 C0 1.34 0 0.68 0 0 Z " fill="#DE7A1E" transform="translate(333,114)"/>
<path d="M0 0 C0.99 0.495 0.99 0.495 2 1 C1.01 1.495 1.01 1.495 0 2 C0 1.34 0 0.68 0 0 Z M-1 2 C-1 2.99 -1 3.98 -1 5 C-1.99 5.33 -2.98 5.66 -4 6 C-4 6.66 -4 7.32 -4 8 C-2.68 8 -1.36 8 0 8 C-0.33 8.99 -0.66 9.98 -1 11 C-5.875 8.375 -5.875 8.375 -7 5 C-5.02 4.01 -3.04 3.02 -1 2 Z " fill="#DB7519" transform="translate(245,199)"/>
<path d="M0 0 C0 0.99 0 1.98 0 3 C-4.92737019 4.97094808 -8.78020872 5.1799928 -14 5 C-10.99049877 3.38274466 -8.02896392 2.32417377 -4.75 1.375 C-3.41195312 0.98441406 -3.41195312 0.98441406 -2.046875 0.5859375 C-1.37140625 0.39257812 -0.6959375 0.19921875 0 0 Z " fill="#E6B43B" transform="translate(198,184)"/>
<path d="M0 0 C0.66 0.33 1.32 0.66 2 1 C1.45773019 4.79588866 -0.20127563 6.47211993 -3 9 C-3.75 6.75 -3.75 6.75 -4 4 C-2.0625 1.6875 -2.0625 1.6875 0 0 Z " fill="#D67618" transform="translate(143,112)"/>
<path d="M0 0 C2.5999298 2.51027705 4.99091227 4.9863684 7 8 C7 8.66 7 9.32 7 10 C5.68 10 4.36 10 3 10 C0.96564469 6.27034861 0 4.33094958 0 0 Z " fill="#FDEDC4" transform="translate(222,186)"/>
<path d="M0 0 C0.66 0 1.32 0 2 0 C3.49524178 2.2727675 4.78399715 4.5679943 6 7 C4.02 7 2.04 7 0 7 C-0.33 7.66 -0.66 8.32 -1 9 C-1.99 8.67 -2.98 8.34 -4 8 C-3.34 7.236875 -2.68 6.47375 -2 5.6875 C0.29850538 3.15722061 0.29850538 3.15722061 0 0 Z " fill="#EDAB2E" transform="translate(144,174)"/>
<path d="M0 0 C0.99 0 1.98 0 3 0 C3 3.96 3 7.92 3 12 C2.34 11.67 1.68 11.34 1 11 C0.5859375 8.49609375 0.5859375 8.49609375 0.375 5.4375 C0.30023438 4.42558594 0.22546875 3.41367188 0.1484375 2.37109375 C0.09945313 1.58863281 0.05046875 0.80617187 0 0 Z " fill="#DD7904" transform="translate(347,144)"/>
<path d="M0 0 C0.66 0.33 1.32 0.66 2 1 C1.071875 1.61875 1.071875 1.61875 0.125 2.25 C-2.06768281 4.05573879 -2.92788417 5.4090534 -4 8 C-5.32 8 -6.64 8 -8 8 C-8 8.66 -8 9.32 -8 10 C-8.66 9.67 -9.32 9.34 -10 9 C-9.67 8.34 -9.34 7.68 -9 7 C-8.34 7 -7.68 7 -7 7 C-6.67 6.01 -6.34 5.02 -6 4 C-4.04402816 2.60287726 -2.04563599 1.26220093 0 0 Z " fill="#FBEBAF" transform="translate(273,108)"/>
<path d="M0 0 C4.51617599 -0.07654536 8.59085217 -0.10228696 13 1 C13 1.66 13 2.32 13 3 C13.99 3.33 14.98 3.66 16 4 C10.23716896 4.45496035 5.39431697 2.79099852 0 1 C0 0.67 0 0.34 0 0 Z " fill="#E5B836" transform="translate(304,102)"/>
<path d="M0 0 C0.99 0 1.98 0 3 0 C3 0.66 3 1.32 3 2 C4.32 2.66 5.64 3.32 7 4 C7 4.66 7 5.32 7 6 C4.625 6.125 4.625 6.125 2 6 C1.34 5.34 0.68 4.68 0 4 C0 2.68 0 1.36 0 0 Z " fill="#F86906" transform="translate(360,98)"/>
<path d="M0 0 C0.33 0.66 0.66 1.32 1 2 C4.02934491 2.65772428 4.02934491 2.65772428 7 3 C7 4.65 7 6.3 7 8 C3.34683329 6.75023244 2.21934164 6.32901247 0 3 C0 2.01 0 1.02 0 0 Z " fill="#F1AA1C" transform="translate(120,86)"/>
<path d="M0 0 C0.66 0.33 1.32 0.66 2 1 C-0.28538605 5.08963819 -2.95706926 8.46362104 -6 12 C-6.33 11.01 -6.66 10.02 -7 9 C-6.34 9 -5.68 9 -5 9 C-4.7834375 8.071875 -4.7834375 8.071875 -4.5625 7.125 C-4 5 -4 5 -3 3 C-2.01 3 -1.02 3 0 3 C0 2.01 0 1.02 0 0 Z " fill="#D67B30" transform="translate(367,188)"/>
<path d="M0 0 C0.886875 0.309375 1.77375 0.61875 2.6875 0.9375 C8.30877947 2.57510414 14.18552198 2.66774411 20 3 C20 3.33 20 3.66 20 4 C17.22890693 4.05392397 14.45886182 4.09363455 11.6875 4.125 C10.90181641 4.14175781 10.11613281 4.15851563 9.30664062 4.17578125 C8.54931641 4.18222656 7.79199219 4.18867188 7.01171875 4.1953125 C5.96697388 4.21102295 5.96697388 4.21102295 4.90112305 4.22705078 C3 4 3 4 0 2 C0 1.34 0 0.68 0 0 Z " fill="#C47D35" transform="translate(281,186)"/>
<path d="M0 0 C0.33 1.32 0.66 2.64 1 4 C2.65 4.33 4.3 4.66 6 5 C6.33 6.32 6.66 7.64 7 9 C6.01 9.495 6.01 9.495 5 10 C5 9.34 5 8.68 5 8 C4.01 8 3.02 8 2 8 C1.67 7.34 1.34 6.68 1 6 C0.34 5.67 -0.32 5.34 -1 5 C-0.67 3.35 -0.34 1.7 0 0 Z " fill="#EFAC20" transform="translate(208,180)"/>
<path d="M0 0 C0.99 0 1.98 0 3 0 C3.33 1.98 3.66 3.96 4 6 C3.01 6.33 2.02 6.66 1 7 C0.34 6.67 -0.32 6.34 -1 6 C-1.042721 4.33388095 -1.04063832 2.66617115 -1 1 C-0.67 0.67 -0.34 0.34 0 0 Z " fill="#EEFDFD" transform="translate(328,164)"/>
<path d="M0 0 C3.57011026 3.732388 4.10913442 8.0949989 5 13 C4.01 13.495 4.01 13.495 3 14 C0.56574762 9.03006806 -0.34615998 5.65394631 0 0 Z " fill="#CB7B31" transform="translate(374,114)"/>
<path d="M0 0 C-5.445 3.96 -5.445 3.96 -11 8 C-11.66 7.67 -12.32 7.34 -13 7 C-11.68 6.34 -10.36 5.68 -9 5 C-9 4.34 -9 3.68 -9 3 C-8.34 3 -7.68 3 -7 3 C-6.67 2.01 -6.34 1.02 -6 0 C-3 -1 -3 -1 0 0 Z " fill="#FCE7AE" transform="translate(209,177)"/>
<path d="M0 0 C0.33 0 0.66 0 1 0 C1.05422947 1.4370809 1.09289723 2.87475462 1.125 4.3125 C1.14820313 5.11300781 1.17140625 5.91351563 1.1953125 6.73828125 C1 9 1 9 -1 12 C-1.99 11.67 -2.98 11.34 -4 11 C-2.68 7.37 -1.36 3.74 0 0 Z " fill="#CF8037" transform="translate(339,155)"/>
<path d="M0 0 C1.98 0.99 1.98 0.99 4 2 C4 3.98 4 5.96 4 8 C2.68 7.67 1.36 7.34 0 7 C0 4.69 0 2.38 0 0 Z " fill="#F4FAEB" transform="translate(138,159)"/>
<path d="M0 0 C-2.57784846 2.64752004 -4.91648098 4.94432065 -8 7 C-7.625 4.0625 -7.625 4.0625 -7 1 C-4.53721199 -0.231394 -2.7204945 -0.07159196 0 0 Z " fill="#FBF5CA" transform="translate(248,76)"/>
<path d="M0 0 C0 0.66 0 1.32 0 2 C-0.66 2 -1.32 2 -2 2 C-2 2.66 -2 3.32 -2 4 C-5.3 4.33 -8.6 4.66 -12 5 C-8 3 -8 3 -6 3 C-6 2.34 -6 1.68 -6 1 C-4 0 -4 0 0 0 Z " fill="#FCF5D3" transform="translate(208,224)"/>
<path d="M0 0 C1.32 0 2.64 0 4 0 C4 0.66 4 1.32 4 2 C3.01 2.33 2.02 2.66 1 3 C0.67 3.99 0.34 4.98 0 6 C-2.0625 6.6875 -2.0625 6.6875 -4 7 C-4 5.68 -4 4.36 -4 3 C-2.68 2.67 -1.36 2.34 0 2 C0 1.34 0 0.68 0 0 Z " fill="#E0760D" transform="translate(356,192)"/>
<path d="M0 0 C5.23880078 0.55145271 9.97350697 1.42922093 15 3 C15 3.66 15 4.32 15 5 C13.06043186 4.744398 11.12334011 4.46995354 9.1875 4.1875 C8.10855469 4.03667969 7.02960938 3.88585937 5.91796875 3.73046875 C2.93559009 2.98387597 1.85776521 2.37924316 0 0 Z " fill="#F9EDD0" transform="translate(272,181)"/>
<path d="M0 0 C0.99 0.33 1.98 0.66 3 1 C-1.18586481 4.18923033 -3.70558305 5.50423019 -9 5 C-8.34 4.67 -7.68 4.34 -7 4 C-7 3.34 -7 2.68 -7 2 C-4.69 2 -2.38 2 0 2 C0 1.34 0 0.68 0 0 Z " fill="#FEF8CC" transform="translate(195,182)"/>
<path d="M0 0 C3.81300782 3.2870757 5.22972246 6.39727838 7 11 C2.94089532 9.64696511 2.0786931 7.65563269 0 4 C0 2.68 0 1.36 0 0 Z " fill="#E8B53D" transform="translate(255,162)"/>
<path d="M0 0 C1.24546405 2.49092811 0.7767578 3.41080733 0 6 C-0.66 6 -1.32 6 -2 6 C-2 7.32 -2 8.64 -2 10 C-3.32 10.33 -4.64 10.66 -6 11 C-4.34703566 6.90694544 -2.86453858 3.41016497 0 0 Z " fill="#FCE6AD" transform="translate(222,90)"/>
<path d="M0 0 C9.59453303 0.59453303 9.59453303 0.59453303 13 4 C7.73946963 4.31563182 4.55426184 3.66590937 0 1 C0 0.67 0 0.34 0 0 Z " fill="#FCFAD2" transform="translate(316,62)"/>
<path d="M0 0 C2.33944736 0.28730055 4.6739143 0.61936779 7 1 C7 1.99 7 2.98 7 4 C5.02 4 3.04 4 1 4 C1 3.34 1 2.68 1 2 C0.34 1.67 -0.32 1.34 -1 1 C-0.67 0.67 -0.34 0.34 0 0 Z " fill="#F5FEF4" transform="translate(169,50)"/>
<path d="M0 0 C0.66 0.33 1.32 0.66 2 1 C2.33 1.99 2.66 2.98 3 4 C5.95377498 6.36980013 5.95377498 6.36980013 10 6 C9.34 7.32 8.68 8.64 8 10 C0.33257403 4.9977221 0.33257403 4.9977221 -1 1 C-0.67 0.67 -0.34 0.34 0 0 Z " fill="#E7B03B" transform="translate(119,203)"/>
<path d="M0 0 C0.99 0.33 1.98 0.66 3 1 C3 2.98 3 4.96 3 7 C1.68 6.67 0.36 6.34 -1 6 C-1.042721 4.33388095 -1.04063832 2.66617115 -1 1 C-0.67 0.67 -0.34 0.34 0 0 Z " fill="#DE7412" transform="translate(110,180)"/>
<path d="M0 0 C0.53625 0.28875 1.0725 0.5775 1.625 0.875 C4.07550097 2.11988906 4.07550097 2.11988906 7.1875 2.875 C8.115625 3.24625 9.04375 3.6175 10 4 C10.875 6.125 10.875 6.125 11 8 C6.40378078 6.5129879 3.53027653 4.20187872 0 1 C0 0.67 0 0.34 0 0 Z " fill="#FAE2A2" transform="translate(146,176)"/>
<path d="M0 0 C2 1.125 2 1.125 4 3 C4.25 6.1875 4.25 6.1875 4 9 C3.01 9.33 2.02 9.66 1 10 C1.66 8.02 2.32 6.04 3 4 C1.35 4.66 -0.3 5.32 -2 6 C-2 5.01 -2 4.02 -2 3 C-1.34 3 -0.68 3 0 3 C0 2.01 0 1.02 0 0 Z " fill="#EFAB0B" transform="translate(258,170)"/>
<path d="M0 0 C0.66 0 1.32 0 2 0 C4.1519437 3.22791555 4.20086443 4.28400809 4 8 C2.68 7.34 1.36 6.68 0 6 C0 4.02 0 2.04 0 0 Z " fill="#F26F01" transform="translate(130,154)"/>
<path d="M0 0 C1.32 0.33 2.64 0.66 4 1 C1.75 3.5 1.75 3.5 -1 6 C-2.32 6 -3.64 6 -5 6 C-4.34 4.68 -3.68 3.36 -3 2 C-2.01 2 -1.02 2 0 2 C0 1.34 0 0.68 0 0 Z " fill="#FCF3D9" transform="translate(265,116)"/>
<path d="M0 0 C2.99324263 1.0975223 3.84610901 1.67682892 5.25 4.625 C5.4975 5.40875 5.745 6.1925 6 7 C4.02 7.66 2.04 8.32 0 9 C0 8.34 0 7.68 0 7 C0.66 7 1.32 7 2 7 C1.34 4.69 0.68 2.38 0 0 Z " fill="#D07A1A" transform="translate(368,105)"/>
<path d="M0 0 C-4.77357872 2.71391278 -8.34388537 4.56561146 -14 4 C-13 2 -13 2 -10.56640625 1.11328125 C-9.57511719 0.84902344 -8.58382812 0.58476563 -7.5625 0.3125 C-6.57378906 0.04050781 -5.58507812 -0.23148437 -4.56640625 -0.51171875 C-2 -1 -2 -1 0 0 Z " fill="#E8B020" transform="translate(150,69)"/>
<path d="M0 0 C2.64 0 5.28 0 8 0 C7.67 0.66 7.34 1.32 7 2 C6.01 2 5.02 2 4 2 C4 2.99 4 3.98 4 5 C2.68 4.67 1.36 4.34 0 4 C0 2.68 0 1.36 0 0 Z " fill="#F0AD11" transform="translate(268,68)"/>
<path d="M0 0 C1.98146451 0.44829514 3.96014211 0.90892498 5.9375 1.375 C7.03964844 1.63023437 8.14179688 1.88546875 9.27734375 2.1484375 C10.17582031 2.42945313 11.07429688 2.71046875 12 3 C12.33 3.66 12.66 4.32 13 5 C7.88523181 5.63934602 4.32745622 3.40533547 0 1 C0 0.67 0 0.34 0 0 Z " fill="#E07115" transform="translate(259,218)"/>
<path d="M0 0 C2.475 0.99 2.475 0.99 5 2 C5 2.99 5 3.98 5 5 C2.03 4.505 2.03 4.505 -1 4 C-1 1 -1 1 0 0 Z " fill="#ECAC18" transform="translate(145,218)"/>
<path d="M0 0 C0.2475 0.515625 0.495 1.03125 0.75 1.5625 C1.47784518 2.9817981 2.23437502 4.38831876 3.05859375 5.75390625 C4.09427299 7.47048188 5.05147096 9.23377351 6 11 C5.67 11.66 5.34 12.32 5 13 C4.01 12.67 3.02 12.34 2 12 C0.51117562 7.92532275 -0.26270217 4.33458585 0 0 Z " fill="#FBE9AC" transform="translate(216,171)"/>
<path d="M0 0 C1.98 0.99 1.98 0.99 4 2 C3.67 3.65 3.34 5.3 3 7 C2.01 6.67 1.02 6.34 0 6 C0 4.02 0 2.04 0 0 Z " fill="#F86F01" transform="translate(105,180)"/>
<path d="M0 0 C0.33 0.99 0.66 1.98 1 3 C1.66 3 2.32 3 3 3 C3.33 2.01 3.66 1.02 4 0 C4 1.65 4 3.3 4 5 C3.01 5 2.02 5 1 5 C1 6.32 1 7.64 1 9 C0.34 9 -0.32 9 -1 9 C-0.67 6.03 -0.34 3.06 0 0 Z " fill="#FCF8F1" transform="translate(91,120)"/>
<path d="M0 0 C1.32 0.33 2.64 0.66 4 1 C0.375 5.875 0.375 5.875 -3 7 C-3 5.35 -3 3.7 -3 2 C-2.01 2 -1.02 2 0 2 C0 1.34 0 0.68 0 0 Z " fill="#ECAF0B" transform="translate(331,105)"/>
<path d="M0 0 C3.34373475 0.55728913 6.03312999 1.35173889 9 3 C9 3.99 9 4.98 9 6 C8.01 6 7.02 6 6 6 C6 5.34 6 4.68 6 4 C5.195625 3.71125 4.39125 3.4225 3.5625 3.125 C1 2 1 2 0 0 Z " fill="#E3BB52" transform="translate(200,108)"/>
<path d="M0 0 C0.66 0 1.32 0 2 0 C2.33 1.98 2.66 3.96 3 6 C1.68 6.33 0.36 6.66 -1 7 C-1.04254356 5.00045254 -1.04080783 2.99958364 -1 1 C-0.67 0.67 -0.34 0.34 0 0 Z " fill="#FBFEEF" transform="translate(378,100)"/>
<path d="M0 0 C1.65 0 3.3 0 5 0 C5.33 0.99 5.66 1.98 6 3 C5 4 5 4 2.4375 4.0625 C1.2309375 4.0315625 1.2309375 4.0315625 0 4 C0 2.68 0 1.36 0 0 Z " fill="#EDB00D" transform="translate(149,99)"/>
<path d="M0 0 C0 0.66 0 1.32 0 2 C-0.66 2 -1.32 2 -2 2 C-1.34 3.65 -0.68 5.3 0 7 C-1.98 7 -3.96 7 -6 7 C-5.34 6.01 -4.68 5.02 -4 4 C-4.66 3.34 -5.32 2.68 -6 2 C-2.25 0 -2.25 0 0 0 Z " fill="#F7F1E4" transform="translate(344,216)"/>
<path d="M0 0 C0.66 0.33 1.32 0.66 2 1 C0.71937515 2.7074998 -0.61767557 4.37373596 -2 6 C-2.66 6 -3.32 6 -4 6 C-4.33 6.99 -4.66 7.98 -5 9 C-6 6 -6 6 -5.3125 3.9375 C-3.76613258 1.65476715 -2.59177073 0.89092119 0 0 Z " fill="#FAA414" transform="translate(345,95)"/>
<path d="M0 0 C2 2 2 2 2 6 C1.01 6 0.02 6 -1 6 C-1.33 6.66 -1.66 7.32 -2 8 C-2.33 7.01 -2.66 6.02 -3 5 C-1.5625 2.3125 -1.5625 2.3125 0 0 Z " fill="#F2FEF6" transform="translate(224,92)"/>
<path d="M0 0 C3.65316671 1.24976756 4.78065836 1.67098753 7 5 C4.69 4.67 2.38 4.34 0 4 C-0.33 3.01 -0.66 2.02 -1 1 C-0.67 0.67 -0.34 0.34 0 0 Z " fill="#D87A27" transform="translate(265,177)"/>
<path d="M0 0 C0.66 0 1.32 0 2 0 C2 0.66 2 1.32 2 2 C3.32 2.33 4.64 2.66 6 3 C6 4.32 6 5.64 6 7 C3.00675737 5.9024777 2.15389099 5.32317108 0.75 2.375 C0.5025 1.59125 0.255 0.8075 0 0 Z " fill="#FDF1C0" transform="translate(260,168)"/>
<path d="M0 0 C0.33 0 0.66 0 1 0 C1.66 4.62 2.32 9.24 3 14 C2.34 14 1.68 14 1 14 C-0.38226016 11.23547967 -0.09525387 8.9538637 -0.0625 5.875 C-0.05347656 4.77929688 -0.04445313 3.68359375 -0.03515625 2.5546875 C-0.02355469 1.71164063 -0.01195313 0.86859375 0 0 Z " fill="#FBE2BC" transform="translate(93,154)"/>
<path d="M0 0 C0.66 0 1.32 0 2 0 C1.54917531 1.46067199 1.08906463 2.91848032 0.625 4.375 C0.36976563 5.18710938 0.11453125 5.99921875 -0.1484375 6.8359375 C-1 9 -1 9 -3 11 C-3.125 5.25 -3.125 5.25 -2 3 C-1.34 3 -0.68 3 0 3 C0 2.01 0 1.02 0 0 Z " fill="#FCE9AA" transform="translate(220,106)"/>
<path d="M0 0 C1.32 0 2.64 0 4 0 C4 2.97 4 5.94 4 9 C1.3144406 6.3144406 0.93950026 3.62378672 0 0 Z " fill="#FAE7BD" transform="translate(372,107)"/>
<path d="M0 0 C2.97 0 5.94 0 9 0 C8.01 1.485 8.01 1.485 7 3 C3.875 3.1875 3.875 3.1875 1 3 C0.67 2.01 0.34 1.02 0 0 Z " fill="#F7FEEA" transform="translate(170,106)"/>
<path d="M0 0 C0.33 0.66 0.66 1.32 1 2 C0.34 2 -0.32 2 -1 2 C-0.67 3.65 -0.34 5.3 0 7 C-1.98 7.33 -3.96 7.66 -6 8 C-5.34 6.35 -4.68 4.7 -4 3 C-3.34 3 -2.68 3 -2 3 C-2 2.34 -2 1.68 -2 1 C-1.34 0.67 -0.68 0.34 0 0 Z " fill="#D37A20" transform="translate(111,95)"/>
<path d="M0 0 C1.65 0.33 3.3 0.66 5 1 C4.01 1.66 3.02 2.32 2 3 C1.74969023 5.58380177 1.74969023 5.58380177 2 8 C1.34 7.67 0.68 7.34 0 7 C0 6.01 0 5.02 0 4 C-0.66 4 -1.32 4 -2 4 C-1.34 2.68 -0.68 1.36 0 0 Z " fill="#FBFAED" transform="translate(106,89)"/>
<path d="M0 0 C0.66 0.33 1.32 0.66 2 1 C1.67 1.99 1.34 2.98 1 4 C-0.84765625 4.73046875 -0.84765625 4.73046875 -3.0625 5.1875 C-3.79597656 5.34605469 -4.52945313 5.50460938 -5.28515625 5.66796875 C-6.13400391 5.83232422 -6.13400391 5.83232422 -7 6 C-4.74259377 3.66475218 -2.7194239 1.81294927 0 0 Z " fill="#E4B23D" transform="translate(253,73)"/>
<path d="M0 0 C1.48484412 0.39595843 2.9628831 0.81750706 4.4375 1.25 C5.26121094 1.48203125 6.08492188 1.7140625 6.93359375 1.953125 C9 3 9 3 9.78515625 5.109375 C9.85605469 5.73328125 9.92695313 6.3571875 10 7 C6.42032008 5.34784004 3.22017048 3.26875648 0 1 C0 0.67 0 0.34 0 0 Z " fill="#FAE4A8" transform="translate(340,73)"/>
<path d="M0 0 C2.74277578 3.19990508 4.6302836 6.00499382 6 10 C3 8.375 3 8.375 0 6 C-0.375 2.75 -0.375 2.75 0 0 Z " fill="#E8B447" transform="translate(220,197)"/>
<path d="M0 0 C-3.96 1.98 -3.96 1.98 -8 4 C-8.99 3.34 -9.98 2.68 -11 2 C-9.73392393 1.46770674 -8.46189588 0.94955456 -7.1875 0.4375 C-6.47980469 0.14746094 -5.77210938 -0.14257812 -5.04296875 -0.44140625 C-3 -1 -3 -1 0 0 Z " fill="#FCEECF" transform="translate(326,179)"/>
<path d="M0 0 C2.475 0.99 2.475 0.99 5 2 C5 3.98 5 5.96 5 8 C2.27573689 5.64722731 1.1858237 3.37503669 0 0 Z " fill="#FDF6C9" transform="translate(209,177)"/>
<path d="M0 0 C0.556875 0.226875 1.11375 0.45375 1.6875 0.6875 C1.06875 0.77 0.45 0.8525 -0.1875 0.9375 C-2.49687567 1.50008459 -2.49687567 1.50008459 -3.5625 3.75 C-3.81 4.389375 -4.0575 5.02875 -4.3125 5.6875 C-4.6425 5.0275 -4.9725 4.3675 -5.3125 3.6875 C-5.9725 3.3575 -6.6325 3.0275 -7.3125 2.6875 C-2.88173077 -0.38942308 -2.88173077 -0.38942308 0 0 Z " fill="#FBE7B2" transform="translate(282.3125,104.3125)"/>
<path d="M0 0 C2.97 0.495 2.97 0.495 6 1 C6 1.66 6 2.32 6 3 C6.66 3 7.32 3 8 3 C8 3.66 8 4.32 8 5 C2.25 3.125 2.25 3.125 0 2 C0 1.34 0 0.68 0 0 Z " fill="#E5B831" transform="translate(192,103)"/>
<path d="M0 0 C0.66 0.33 1.32 0.66 2 1 C1.27683594 1.50660156 1.27683594 1.50660156 0.5390625 2.0234375 C-0.09257813 2.46945313 -0.72421875 2.91546875 -1.375 3.375 C-2.00148438 3.81585938 -2.62796875 4.25671875 -3.2734375 4.7109375 C-5.12380509 6.02808866 -5.12380509 6.02808866 -7 8 C-6.875 5.6875 -6.875 5.6875 -6 3 C-3.0625 1.125 -3.0625 1.125 0 0 Z " fill="#FCECB3" transform="translate(126,77)"/>
<path d="M0 0 C-1 3 -1 3 -3.3125 4.75 C-6.32190521 6.14972335 -6.98041673 5.95287489 -10 5 C-8.71186658 4.16121545 -7.41936744 3.32913217 -6.125 2.5 C-5.40570313 2.0359375 -4.68640625 1.571875 -3.9453125 1.09375 C-2 0 -2 0 0 0 Z " fill="#FEF0D0" transform="translate(332,222)"/>
<path d="M0 0 C1.65 0 3.3 0 5 0 C4.67 1.32 4.34 2.64 4 4 C2.68 4 1.36 4 0 4 C0 2.68 0 1.36 0 0 Z " fill="#F5AA15" transform="translate(208,211)"/>
<path d="M0 0 C1.65 0.99 3.3 1.98 5 3 C3.68 4.32 2.36 5.64 1 7 C0.34 6.67 -0.32 6.34 -1 6 C-0.67 4.02 -0.34 2.04 0 0 Z " fill="#F1B846" transform="translate(262,173)"/>
<path d="M0 0 C0.99 0 1.98 0 3 0 C3 1.98 3 3.96 3 6 C1.68 5.34 0.36 4.68 -1 4 C-0.67 2.68 -0.34 1.36 0 0 Z " fill="#DF7702" transform="translate(135,168)"/>
<path d="M0 0 C4.875 4.75 4.875 4.75 6 7 C4.35 6.67 2.7 6.34 1 6 C0.67 4.02 0.34 2.04 0 0 Z " fill="#CF7E33" transform="translate(357,87)"/>
<path d="M0 0 C0.99 0 1.98 0 3 0 C2.49396008 2.16874252 2.00016187 3.99967627 1 6 C0.34 6 -0.32 6 -1 6 C-1.042721 4.33388095 -1.04063832 2.66617115 -1 1 C-0.67 0.67 -0.34 0.34 0 0 Z " fill="#DB7416" transform="translate(357,198)"/>
<path d="M0 0 C0.66 0.33 1.32 0.66 2 1 C-0.475 5.455 -0.475 5.455 -3 10 C-3.33 9.34 -3.66 8.68 -4 8 C-3.22265625 6.0546875 -3.22265625 6.0546875 -2.0625 3.875 C-1.49208984 2.78832031 -1.49208984 2.78832031 -0.91015625 1.6796875 C-0.60980469 1.12539062 -0.30945313 0.57109375 0 0 Z " fill="#FBEBD3" transform="translate(144,116)"/>
<path d="M0 0 C0.33 0 0.66 0 1 0 C1.34833144 4.87664009 0.41685712 7.77050005 -2 12 C-3.12377697 8.69564916 -2.89554742 6.9493138 -1.5625 3.75 C-1.27503906 3.04359375 -0.98757812 2.3371875 -0.69140625 1.609375 C-0.46324219 1.07828125 -0.23507813 0.5471875 0 0 Z " fill="#E1AF2F" transform="translate(219,112)"/>
<path d="M0 0 C0 0.66 0 1.32 0 2 C-4.38461538 5 -4.38461538 5 -7 5 C-6.67 3.68 -6.34 2.36 -6 1 C-3.92446352 0.4465236 -2.15634036 0 0 0 Z " fill="#FEF9D9" transform="translate(130,74)"/>
<path d="M0 0 C3.63 0 7.26 0 11 0 C5.48 2.76 5.48 2.76 3 3 C2.01 2.01 1.02 1.02 0 0 Z " fill="#EA7712" transform="translate(245,209)"/>
<path d="M0 0 C4.875 4.625 4.875 4.625 6 8 C4 8 4 8 1.875 6.25 C0 4 0 4 0 0 Z " fill="#F7D6AF" transform="translate(104,188)"/>
<path d="M0 0 C1.32 0 2.64 0 4 0 C4 0.99 4 1.98 4 3 C2.35 3.33 0.7 3.66 -1 4 C-0.67 2.68 -0.34 1.36 0 0 Z " fill="#E9B604" transform="translate(198,186)"/>
<path d="M0 0 C1.65 1.65 3.3 3.3 5 5 C3.35 5.66 1.7 6.32 0 7 C0 4.69 0 2.38 0 0 Z " fill="#E37C04" transform="translate(137,106)"/>
<path d="M0 0 C1.98 0 3.96 0 6 0 C5.34 1.32 4.68 2.64 4 4 C3.34 4 2.68 4 2 4 C2 3.34 2 2.68 2 2 C1.34 2 0.68 2 0 2 C0 1.34 0 0.68 0 0 Z " fill="#FCA30E" transform="translate(345,91)"/>
</svg>
