<?xml version="1.0" encoding="UTF-8"?>
<svg version="1.1" xmlns="http://www.w3.org/2000/svg" width="5000" height="4981">
<path d="M0 0 C1.66110809 0.0438382 1.66110809 0.0438382 3.35577393 0.08856201 C98.52428148 2.6236802 193.57294316 9.05048627 429 43 C430.1054718 43.21293701 431.2109436 43.42587402 432.34991455 43.64526367 C524.11409232 61.39054127 615.11783292 85.81094492 924 247 C925.3921875 248.11761719 925.3921875 248.11761719 926.8125 249.2578125 C937.52086074 257.94279112 947.96720277 266.92360918 958.078125 276.296875 C960.01568898 278.08938071 961.96356122 279.87081201 963.921875 281.640625 C973.76224642 290.54381819 983.54042143 299.68670799 992.11328125 309.8359375 C993.68022456 311.63321823 995.27886297 313.3710222 996.91796875 315.1015625 C1003.47099111 322.02244637 1009.58993342 329.0895987 1015.39453125 336.6484375 C1017.79361915 339.76609709 1020.31765839 342.76025763 1022.875 345.75 C1039.3271627 365.41486849 1053.22631405 387.44878607 1065.74560547 409.77636719 C1066.9590062 411.92733135 1068.1967444 414.06232143 1069.44140625 416.1953125 C1081.86910922 437.70854244 1091.61406186 460.64822517 1100 484 C1100.57959473 485.60512451 1100.57959473 485.60512451 1101.17089844 487.24267578 C1117.18572084 532.0720969 1126.25662584 579.62906168 1126.13037109 627.28051758 C1126.12498206 629.69553837 1126.13037051 632.11037519 1126.13671875 634.52539062 C1126.13605818 636.10416707 1126.13477745 637.68294339 1126.1328125 639.26171875 C1126.13584885 640.31222664 1126.13584885 640.31222664 1126.13894653 641.38395691 C1126.12099922 645.3208128 1125.89706148 649.17531198 1125.50023025 653.09241861 C1124.76838801 661.73585247 1124.85872003 670.37456255 1124.86692142 679.04205418 C1124.86507848 680.97428785 1124.86279888 682.90652115 1124.86012438 684.83875385 C1124.85403308 690.14797009 1124.8541153 695.45717098 1124.85519732 700.76638994 C1124.85527007 706.54304707 1124.8495496 712.31969891 1124.84455246 718.09635347 C1124.83658161 728.22124183 1124.83226605 738.3461266 1124.83033562 748.47101784 C1124.82824323 759.33303278 1124.82401473 770.19504347 1124.81707764 781.05705643 C1124.81663996 781.74372701 1124.81620229 782.43039759 1124.81575136 783.13787637 C1124.81350736 786.63947054 1124.81122361 790.14106468 1124.8089225 793.64265881 C1124.80422003 800.82117482 1124.79982345 807.99969101 1124.79553688 815.17820728 C1124.79510515 815.90113156 1124.79467343 816.62405584 1124.79422862 817.36888692 C1124.78436686 834.01991241 1124.7777043 850.67093901 1124.77112769 867.32196606 C1124.76088567 893.21248923 1124.74783487 919.10300872 1124.73081779 944.99352837 C1124.73030489 945.77413399 1124.72979198 946.55473961 1124.72926353 947.35899994 C1124.72299582 956.87963905 1124.71659614 966.40027807 1124.71015793 975.92091706 C1124.70034609 990.44346512 1124.69081759 1004.96601338 1124.68130992 1019.48856164 C1124.68024253 1021.11892156 1124.67917448 1022.74928149 1124.67810577 1024.37964141 C1124.65292461 1062.80290701 1124.63026896 1101.22617395 1124.60861443 1139.64944169 C1124.60717736 1142.19865328 1124.60573768 1144.74786488 1124.60429762 1147.29707648 C1124.58214729 1186.53390636 1124.56128112 1225.77073667 1124.54260254 1265.00756836 C1124.54179074 1266.71078135 1124.54097887 1268.41399433 1124.54016693 1270.11720732 C1124.53652002 1277.77021836 1124.53288169 1285.4232294 1124.52924435 1293.07624045 C1124.5276309 1296.47069347 1124.52601662 1299.86514649 1124.52440243 1303.25959951 C1124.52319368 1305.80279942 1124.5219868 1308.34599933 1124.52078002 1310.88919924 C1124.5025685 1349.23298882 1124.48285652 1387.57677646 1124.4570837 1425.92056179 C1124.45654196 1426.72760359 1124.45600021 1427.53464539 1124.45544205 1428.366143 C1124.44406673 1445.29229865 1124.43229826 1462.21845399 1124.42000187 1479.144609 C1124.41424516 1487.07264228 1124.40859019 1495.00067563 1124.40299797 1502.92870903 C1124.40244595 1503.70921499 1124.40189394 1504.48972095 1124.40132519 1505.2938786 C1124.38364023 1530.37507788 1124.37266504 1555.4562746 1124.36541818 1580.5374789 C1124.35809774 1605.82577962 1124.34478277 1631.1140692 1124.32313089 1656.40236195 C1124.32013175 1659.90848096 1124.31720525 1663.41460003 1124.31432343 1666.92071915 C1124.31375625 1667.6079209 1124.31318907 1668.29512266 1124.3126047 1669.00314871 C1124.30333273 1680.47396083 1124.30186546 1691.94476122 1124.30256996 1703.41557672 C1124.30263992 1713.43529049 1124.29542867 1723.45498264 1124.28251991 1733.47468804 C1124.27538917 1739.16858161 1124.27122635 1744.86242993 1124.27604241 1750.55632699 C1124.30006561 1782.39558916 1123.54818781 1814.05484149 1120.25 1845.75 C1120.16763092 1846.5581012 1120.08526184 1847.36620239 1120.00039673 1848.1987915 C1112.22258351 1923.80434002 1093.36065529 1998.63760614 969.65087891 2199.23144531 C967.84609389 2201.16487664 966.05369165 2203.10937847 964.26171875 2205.0546875 C958.27877385 2211.52722151 952.31445162 2217.87767263 945.65234375 2223.6640625 C942.88454112 2226.10168544 940.20395375 2228.61532768 937.52368164 2231.14819336 C930.89961313 2237.40283791 924.12498258 2243.31720558 917 2249 C915.79780138 2249.99145868 914.59739933 2250.98509829 913.3984375 2251.98046875 C903.57608223 2260.10850776 893.42834553 2267.66913666 883 2275 C882.32469238 2275.47679199 881.64938477 2275.95358398 880.95361328 2276.44482422 C809.05942928 2327.07378249 726.718383 2360.88756742 598 2392 C597.26497253 2392.14804077 596.52994507 2392.29608154 595.77264404 2392.4486084 C542.12547832 2403.1898451 488.18040121 2407.6413989 433.50882797 2407.51780262 C427.2013551 2407.5081294 420.89392089 2407.52213021 414.5864557 2407.5328458 C403.58215317 2407.5484219 392.57792854 2407.54970414 381.57361984 2407.54073906 C369.7921977 2407.53122199 358.01082299 2407.53065512 346.22940063 2407.54053879 C345.47943302 2407.54116302 344.7294654 2407.54178725 343.95677149 2407.54243039 C340.1311459 2407.5456556 336.30552046 2407.54902398 332.47989505 2407.55244446 C304.9290116 2407.57680028 277.37815146 2407.58225688 249.82725906 2407.57755089 C222.55169422 2407.57296189 195.27615233 2407.57717237 168.00059128 2407.59275246 C167.15016027 2407.59323487 166.29972926 2407.59371729 165.42352762 2407.59421432 C156.78701682 2407.59912269 148.15050614 2407.60420355 139.51399551 2407.60939628 C121.07239739 2407.62047366 102.63079863 2407.63023662 84.18919945 2407.63936329 C83.31022524 2407.63979951 82.43125104 2407.64023573 81.52564125 2407.64068517 C38.8522195 2407.66176337 -3.82120275 2407.66868932 -46.49462891 2407.67407227 C-61.28393556 2407.67595201 -76.0732422 2407.67786553 -90.86254883 2407.67993164 C-91.77965675 2407.68005924 -92.69676466 2407.68018684 -93.64166373 2407.6803183 C-136.26756367 2407.68629898 -178.89345999 2407.69992335 -221.5193572 2407.71599759 C-224.28684367 2407.71704073 -227.05433015 2407.71807901 -229.82181662 2407.71911643 C-270.66342783 2407.73444862 -311.50503823 2407.75143376 -352.34664817 2407.76981829 C-355.89338127 2407.77141344 -359.44011437 2407.77300242 -362.98684747 2407.77459096 C-366.5202277 2407.77617352 -370.05360793 2407.77775773 -373.58698816 2407.77934211 C-375.34836829 2407.78013183 -377.10974843 2407.7809213 -378.87112856 2407.7817105 C-388.4877081 2407.78602032 -398.10428762 2407.7903655 -407.72086711 2407.79479728 C-448.72503692 2407.81366219 -489.72920204 2407.82752402 -530.73337598 2407.83259294 C-534.07086362 2407.83300888 -537.40835125 2407.83343017 -540.74583888 2407.83385694 C-541.97884097 2407.83401398 -541.97884097 2407.83401398 -543.23675219 2407.8341742 C-555.4244765 2407.83576225 -567.61220024 2407.83837257 -579.79992414 2407.84191763 C-580.97830448 2407.84225939 -580.97830448 2407.84225939 -582.1804905 2407.84260805 C-589.98392885 2407.8448893 -597.78736714 2407.84731931 -605.59080538 2407.84994944 C-609.39980591 2407.8512274 -613.20880645 2407.85246092 -617.01780701 2407.8536644 C-617.76434483 2407.85390072 -618.51088265 2407.85413704 -619.28004283 2407.85438052 C-631.02389792 2407.85799548 -642.76775055 2407.8582543 -654.51160603 2407.85702855 C-666.10406124 2407.85587936 -677.69651044 2407.85836546 -689.28896432 2407.8642844 C-695.47052725 2407.867329 -701.65207944 2407.86887384 -707.83364265 2407.86587711 C-729.94452552 2407.8560971 -752.04578362 2407.89583166 -774.15065956 2408.45742512 C-775.34968264 2408.4877506 -775.34968264 2408.4877506 -776.57292841 2408.51868872 C-850.86225804 2410.45616815 -924.73517977 2420.56603191 -996 2442 C-996.88719727 2442.2666748 -997.77439453 2442.53334961 -998.68847656 2442.80810547 C-1004.15089386 2444.46406906 -1009.58222447 2446.20369064 -1015 2448 C-1015.85770996 2448.28278809 -1016.71541992 2448.56557617 -1017.59912109 2448.85693359 C-1092.06101878 2473.57972457 -1162.58869061 2513.06743992 -1220.73046875 2565.94921875 C-1222.83652418 2567.85228088 -1224.97320469 2569.71153821 -1227.125 2571.5625 C-1230.58045283 2574.56693991 -1233.78788451 2577.7665361 -1236.99609375 2581.03125 C-1238.95056452 2582.95143181 -1240.97313939 2584.72867309 -1243.0625 2586.5 C-1246.42998116 2589.39577173 -1249.28471711 2592.51476871 -1252.15234375 2595.8984375 C-1254.1780441 2598.20251105 -1256.31422567 2600.34751158 -1258.5 2602.5 C-1262.54849668 2606.50767151 -1266.3045513 2610.66815309 -1270 2615 C-1270.90428762 2616.04093857 -1271.80929531 2617.08125183 -1272.71484375 2618.12109375 C-1284.91640782 2632.17537689 -1296.09503905 2646.92280865 -1307 2662 C-1307.59248535 2662.81807129 -1308.1849707 2663.63614258 -1308.79541016 2664.47900391 C-1317.05316144 2675.93243046 -1324.59079282 2687.65651581 -1331.72167969 2699.84033203 C-1333.42630235 2702.72021974 -1335.21220978 2705.54617144 -1337 2708.375 C-1345.43400852 2722.02755129 -1352.90499913 2736.3386801 -1359.91015625 2750.77148438 C-1361.1208349 2753.24708355 -1362.3577474 2755.70882633 -1363.59375 2758.171875 C-1378.43418225 2788.06168789 -1390.54591479 2819.32785783 -1401 2851 C-1401.21166809 2851.6388916 -1401.42333618 2852.2777832 -1401.64141846 2852.93603516 C-1422.56581788 2916.30858267 -1435.06359453 2982.594994 -1441 3049 C-1441.14053476 3050.50725716 -1441.14053476 3050.50725716 -1441.28390861 3052.04496396 C-1443.75378215 3079.45416779 -1443.31138422 3106.98724564 -1443.31616788 3134.4797973 C-1443.31791478 3142.10851107 -1443.33137611 3149.73719446 -1443.3450741 3157.36589454 C-1443.37002666 3171.43748221 -1443.38599986 3185.50906612 -1443.39665604 3199.58067131 C-1443.40722011 3213.49095394 -1443.42189762 3227.40122249 -1443.44193649 3241.31149483 C-1443.44380979 3242.6142371 -1443.44380979 3242.6142371 -1443.44572094 3243.9432974 C-1443.45208567 3248.35486797 -1443.45852261 3252.76643844 -1443.46498732 3257.17800886 C-1443.51051539 3288.3350552 -1443.54702032 3319.49210612 -1443.578125 3350.64916992 C-1443.60834275 3380.8968981 -1443.64270604 3411.14461698 -1443.68261719 3441.39233398 C-1443.68446369 3442.79361869 -1443.68446369 3442.79361869 -1443.6863475 3444.22321217 C-1443.69871554 3453.60567921 -1443.71116716 3462.98814614 -1443.72367998 3472.37061299 C-1443.74916272 3491.47970511 -1443.77408797 3510.58879794 -1443.79867554 3529.69789124 C-1443.8003719 3531.01547782 -1443.8003719 3531.01547782 -1443.80210253 3532.35968231 C-1443.87741635 3590.90644408 -1443.93969861 3649.45322108 -1444 3708 C-1500.65523979 3708.06881129 -1557.31047538 3708.12160226 -1613.96574882 3708.15319599 C-1620.66906048 3708.15693745 -1627.37237206 3708.16082718 -1634.07568359 3708.16479492 C-1634.74268367 3708.1651872 -1635.40968375 3708.16557948 -1636.09689596 3708.16598364 C-1657.65054818 3708.17872913 -1679.20417655 3708.20123394 -1700.75781437 3708.22889166 C-1723.56966528 3708.25811022 -1746.3815022 3708.27601343 -1769.1933713 3708.28226548 C-1782.83445276 3708.28636206 -1796.47546567 3708.29925492 -1810.11652601 3708.3237494 C-1819.49708885 3708.33972563 -1828.87761675 3708.34437377 -1838.25819218 3708.34050413 C-1843.65346328 3708.33860088 -1849.04861541 3708.34131602 -1854.44386482 3708.35761642 C-1951.75096382 3708.63677927 -2044.77689534 3683.70173764 -2190.21484375 3595.35693359 C-2192.2100032 3593.8403723 -2194.21450852 3592.33656658 -2196.21875 3590.83203125 C-2204.01990441 3584.94824187 -2211.63105789 3578.90709797 -2219.03515625 3572.53125 C-2221.75236882 3570.21141634 -2224.51808681 3567.97556534 -2227.3125 3565.75 C-2233.51755435 3560.70274005 -2239.27643993 3555.20199377 -2245.078125 3549.703125 C-2248.4080241 3546.54729614 -2251.78555919 3543.45294645 -2255.1875 3540.375 C-2263.6773626 3532.61383133 -2271.95805538 3524.59200472 -2279.40234375 3515.8125 C-2281.14257652 3513.8382506 -2282.98675418 3512.02031786 -2284.875 3510.1875 C-2288.8018679 3506.32104546 -2292.2107621 3502.13881026 -2295.65625 3497.84375 C-2297.97503525 3495.03029056 -2300.39331712 3492.35766512 -2302.875 3489.6875 C-2307.59678954 3484.55036786 -2311.89197017 3479.17048196 -2316.15625 3473.65625 C-2318.04436193 3471.21526551 -2319.95946147 3468.80069579 -2321.90625 3466.40625 C-2329.08200709 3457.57947574 -2335.83064626 3448.50449539 -2342.41503906 3439.22900391 C-2343.9224255 3437.10909661 -2345.44024793 3434.99709456 -2346.9609375 3432.88671875 C-2396.79799398 3363.41384531 -2434.75006865 3285.75795991 -2571.75 2623.125 C-2571.80916595 2621.87324982 -2571.86833191 2620.62149963 -2571.92929077 2619.33181763 C-2573.30349955 2589.7732119 -2574.12946006 2560.2148171 -2574.53263092 2530.62889862 C-2574.56316986 2528.38835481 -2574.59439474 2526.14782122 -2574.62567139 2523.9072876 C-2575.90609298 2431.40163144 -2573.55352144 2338.95221822 -2498 1883 C-2497.69020203 1882.01535767 -2497.38040405 1881.03071533 -2497.06121826 1880.01623535 C-2478.24938439 1820.3660757 -2455.51721718 1762.95656309 -2427.8951416 1706.82281494 C-2426.58744051 1704.15988755 -2425.29070909 1701.49163171 -2423.9921875 1698.82421875 C-2418.02283357 1686.63656521 -2411.53113545 1674.80099074 -2404.75195312 1663.04638672 C-2402.92080057 1659.86228394 -2401.10783853 1656.66827986 -2399.296875 1653.47265625 C-2391.63559954 1640.00343258 -2383.60961458 1626.88207806 -2375 1614 C-2374.27425781 1612.89914062 -2373.54851563 1611.79828125 -2372.80078125 1610.6640625 C-2370.8843081 1607.76408487 -2368.94741463 1604.87928297 -2367 1602 C-2366.61199219 1601.42427246 -2366.22398437 1600.84854492 -2365.82421875 1600.25537109 C-2358.18671772 1588.94394832 -2350.18178239 1577.92311403 -2342 1567 C-2341.5477002 1566.39559082 -2341.09540039 1565.79118164 -2340.62939453 1565.16845703 C-2334.42896629 1556.91493893 -2327.90362106 1548.94613076 -2321.3125 1541.00390625 C-2318.65375048 1537.79975297 -2316.04084154 1534.56189137 -2313.4375 1531.3125 C-2308.87732287 1525.7209557 -2303.95232025 1520.49104798 -2299.015625 1515.234375 C-2296.6616963 1512.72371122 -2294.37005786 1510.17162129 -2292.125 1507.5625 C-2289.46494687 1504.4765763 -2286.63972167 1501.6195496 -2283.734375 1498.765625 C-2281.98797581 1496.98775916 -2280.36780761 1495.14514605 -2278.75 1493.25 C-2272.335235 1485.82617085 -2265.28653305 1478.9763087 -2257.828125 1472.609375 C-2255.97062012 1470.97413566 -2254.23393991 1469.26518207 -2252.5 1467.5 C-2248.83717092 1463.78800543 -2244.95893845 1460.39153359 -2241 1457 C-2240.00226562 1456.13632813 -2239.00453125 1455.27265625 -2237.9765625 1454.3828125 C-2211.16432136 1431.21232192 -2183.05892238 1409.81218961 -2153 1391 C-2152.02659668 1390.38817871 -2151.05319336 1389.77635742 -2150.05029297 1389.14599609 C-2112.32213659 1365.53362142 -2072.63025465 1345.74754865 -2031 1330 C-2029.79682129 1329.54173828 -2028.59364258 1329.08347656 -2027.35400391 1328.61132812 C-1953.82927184 1300.85128737 -1874.9172195 1286.53773729 -1796.37300304 1286.76469419 C-1792.64653484 1286.77312765 -1788.9200718 1286.76953931 -1785.19359714 1286.767645 C-1778.6671425 1286.76591595 -1772.1407278 1286.77153663 -1765.6142821 1286.78218846 C-1755.8443721 1286.79809301 -1746.07448037 1286.80215666 -1736.30455886 1286.80405386 C-1719.64724631 1286.8076238 -1702.98995348 1286.82066594 -1686.33265114 1286.83896446 C-1669.46738856 1286.85745214 -1652.60213084 1286.87149831 -1635.73686028 1286.88018608 C-1634.66927037 1286.88073864 -1633.60168046 1286.88129119 -1632.50173934 1286.88186049 C-1627.05752305 1286.88465798 -1621.61330674 1286.88738377 -1616.16909041 1286.89008425 C-1576.82334916 1286.90974723 -1537.47762004 1286.93914038 -1498.13188934 1286.97373581 C-1459.18029764 1287.007956 -1420.22870635 1287.03798597 -1381.27710724 1287.06242752 C-1380.06635152 1287.06318915 -1378.8555958 1287.06395078 -1377.60815051 1287.06473549 C-1366.54937366 1287.07168984 -1355.49059678 1287.07859274 -1344.43181986 1287.08543392 C-1316.94387649 1287.10243914 -1289.45593355 1287.12008941 -1261.96799088 1287.13817787 C-1260.71640415 1287.13900096 -1259.46481743 1287.13982405 -1258.17530384 1287.14067208 C-1197.328291 1287.18074365 -1136.48128426 1287.2282481 -1075.63427734 1287.27636719 C-1054.52532964 1287.29305645 -1033.41638192 1287.3097128 -1012.30743408 1287.32623291 C-1010.99821236 1287.32725756 -1009.68899065 1287.3282822 -1008.34009554 1287.3293379 C-947.45024956 1287.37694741 -886.56040024 1287.41926847 -825.67054947 1287.46022981 C-821.71636481 1287.46288993 -817.76218015 1287.46555233 -813.80799549 1287.4682152 C-787.60287844 1287.48585886 -761.39776132 1287.50341147 -735.19264416 1287.52090311 C-683.05327369 1287.55570641 -630.9139036 1287.59104462 -578.77453374 1287.62675044 C-576.29165583 1287.62845075 -573.80877792 1287.63015068 -571.32590001 1287.63185024 C-459.58672901 1287.70834009 -347.84756294 1287.79105172 -236.10839844 1287.87646484 C-235.06236311 1287.87726439 -234.01632779 1287.87806394 -232.93859442 1287.87888771 C-217.51999127 1287.89067448 -202.10138814 1287.90248729 -186.68278503 1287.9143219 C-185.77754229 1287.91501662 -184.87229955 1287.91571134 -183.93962522 1287.91642711 C-147.95974996 1287.94404296 -111.97987501 1287.97205633 -76 1288 C-76 1231.9 -76 1175.8 -76 1118 C-474.64 1118 -873.28 1118 -1284 1118 C-1285.14855167 946.86580163 -1285.14855167 946.86580163 -1285.26596296 873.98396981 C-1285.28357473 863.10594536 -1285.30664012 852.22793297 -1285.32973462 841.34991902 C-1285.37136275 821.72416903 -1285.41074201 802.09841548 -1285.44775391 782.47265625 C-1285.44991671 781.32640846 -1285.45207951 780.18016068 -1285.45430785 778.99917811 C-1285.47865337 766.07310194 -1285.50252328 753.14702493 -1285.52606201 740.22094727 C-1285.53477737 735.44156899 -1285.54350554 730.66219073 -1285.55224609 725.8828125 C-1285.55440496 724.70173882 -1285.55656383 723.52066515 -1285.55878812 722.30380136 C-1285.59499791 702.55197014 -1285.63487778 682.80014813 -1285.67754889 663.04832983 C-1285.70335407 651.03035518 -1285.72609019 639.01238297 -1285.74453247 626.99439472 C-1285.75728079 618.8328489 -1285.77343559 610.67131422 -1285.79218161 602.50977999 C-1285.80280633 597.83488639 -1285.81197798 593.16000319 -1285.81687737 588.48509979 C-1285.82245005 583.39064258 -1285.83257821 578.29621784 -1285.84851074 573.20178223 C-1285.8509869 572.40786925 -1285.85346306 571.61395628 -1285.85601425 570.79598534 C-1285.90091481 559.0447165 -1286.15993363 547.31870501 -1286.71435499 535.57910013 C-1288.80588948 487.82354325 -1275.30307523 438.89915128 -1255 396 C-1254.53335937 395.01306152 -1254.06671875 394.02612305 -1253.5859375 393.00927734 C-1237.00253799 358.27392817 -1215.32536164 326.01107567 -1189.3359375 297.58203125 C-1188.09850157 296.21422999 -1186.86595696 294.84113143 -1185.67651367 293.43139648 C-1179.98782495 286.73401773 -1173.74030755 280.58964586 -1167.52124023 274.39086914 C-1165.56704376 272.4420313 -1163.61824853 270.48790728 -1161.66992188 268.53320312 C-1155.61688552 262.47663933 -1149.56273878 256.50947158 -1143 251 C-1141.91616142 250.05154051 -1140.83409001 249.10105733 -1139.75390625 248.1484375 C-1131.56119376 241.00385223 -1123.06926394 234.33361853 -1114.37792969 227.80810547 C-1112.62228487 226.47316651 -1110.88008381 225.12050372 -1109.14550781 223.75830078 C-1100.66838338 217.10640092 -1091.8658887 211.05845012 -1082.875 205.125 C-1081.40115592 204.1485921 -1079.92736083 203.17211024 -1078.45361328 202.19555664 C-1074.30914218 199.45340513 -1070.1567402 196.7235101 -1066 194 C-1065.01 193.35111816 -1064.02 192.70223633 -1063 192.03369141 C-1041.81668434 178.22497897 -1019.50716191 166.48054393 -997 155 C-995.59625089 154.27754439 -994.19258814 153.5549209 -992.7890625 152.83203125 C-918.61563662 114.90535812 -838.42491501 88.49252881 -200 0 C-198.86274475 -0.02922546 -197.7254895 -0.05845093 -196.55377197 -0.08856201 C-131.08745809 -1.75521611 -65.46400777 -1.76673068 0 0 Z M-804 386 C-804.8573877 386.16097168 -805.71477539 386.32194336 -806.59814453 386.48779297 C-850.56969134 395.10658043 -888.66859843 417.51297888 -920 449 C-920.63421875 449.61101562 -921.2684375 450.22203125 -921.921875 450.8515625 C-960.04900225 487.83813466 -980.2816889 543.28964638 -981.28320312 595.671875 C-981.7161333 646.69991217 -965.62843697 696.47805973 -933 736 C-932.29641357 736.85585693 -932.29641357 736.85585693 -931.57861328 737.72900391 C-921.72675547 749.64023456 -911.27462712 760.52962842 -899 770 C-898.17290527 770.64171143 -898.17290527 770.64171143 -897.32910156 771.29638672 C-887.69552236 778.7234965 -877.65512773 785.13942951 -867 791 C-866.36545898 791.3515918 -865.73091797 791.70318359 -865.07714844 792.06542969 C-816.95560453 818.37993172 -758.28381262 823.7815808 -705.71728516 809.08203125 C-676.42762625 800.45162367 -650.82425349 786.90507565 -627 768 C-621.85406699 764.12440191 -621.85406699 764.12440191 -619.51171875 762.375 C-619.01285156 761.92125 -618.51398438 761.4675 -618 761 C-618 760.34 -618 759.68 -618 759 C-617.14341797 758.63261719 -617.14341797 758.63261719 -616.26953125 758.2578125 C-613.60566841 756.78145478 -611.81938928 755.04854253 -609.6875 752.875 C-608.96949219 752.15054687 -608.25148438 751.42609375 -607.51171875 750.6796875 C-595.93503543 738.32882474 -585.22354969 724.82484034 -577 710 C-576.5477002 709.18821289 -576.09540039 708.37642578 -575.62939453 707.54003906 C-560.8882165 680.82075445 -551.61128327 653.34341203 -548 623 C-547.86851562 621.97648438 -547.73703125 620.95296875 -547.6015625 619.8984375 C-541.77545699 565.25901559 -559.20685086 507.85406901 -593.5625 465.125 C-598.53967044 459.26160676 -603.70972566 453.58059428 -609 448 C-609.47308594 447.49823242 -609.94617187 446.99646484 -610.43359375 446.47949219 C-618.0220601 438.48486809 -626.15789489 431.57076374 -635 425 C-635.82886719 424.37609375 -636.65773438 423.7521875 -637.51171875 423.109375 C-664.66209642 403.38040787 -696.90237819 390.18815583 -730 385 C-731.258125 384.77699219 -732.51625 384.55398438 -733.8125 384.32421875 C-756.55258858 380.8992259 -781.46551396 381.72892388 -804 386 Z " fill="#3672A4" transform="translate(2577,2)"/>
<path d="M0 0 C2.16082642 -0.00559252 4.32165009 -0.00944011 6.48248076 -0.01295149 C7.7248843 -0.01564528 8.96728784 -0.01833906 10.24733996 -0.02111447 C96.05485001 0.63080501 184.54228056 29.75942617 263.78709197 76.00577867 C265.2007907 76.83843248 265.2007907 76.83843248 266.643049 77.68790758 C293.16903501 93.3621507 318.35020434 110.9939686 342.09763885 130.62052476 C344.40488281 132.51233145 346.75226063 134.35158317 349.09959197 136.19327867 C353.6523588 139.82018872 357.93549129 143.70890116 362.21677947 147.65030992 C364.29644018 149.55613881 366.39807921 151.41770926 368.53709197 153.25577867 C379.00198325 162.39413444 388.95158907 172.07363997 398.78709197 181.88077867 C400.11293303 183.19973131 400.11293303 183.19973131 401.46555877 184.54532945 C405.87686084 188.96710171 410.14449987 193.44897206 414.21384978 198.1874193 C416.62057748 200.96912443 419.14604995 203.63585527 421.66209197 206.31827867 C426.14129356 211.1333331 430.39478967 216.07109711 434.51365447 221.20109117 C436.57887045 223.74890058 438.68684882 226.24871316 440.81980681 228.73942125 C446.2528296 235.08738999 451.43591871 241.58455498 456.46726775 248.25626695 C457.85970234 250.10202837 459.25892528 251.94253159 460.65818572 253.78312242 C489.81674252 292.26305303 515.13909919 333.39601529 537.78709197 376.00577867 C538.3642697 377.09165269 538.94144744 378.17752672 539.53611541 379.29630601 C567.3186618 431.79660433 589.71048447 486.78901365 608.78709197 543.00577867 C609.0704843 543.839218 609.35387664 544.67265733 609.64585662 545.5313524 C641.47199401 639.27946657 662.87947598 736.30583631 701.97459197 1101.25577867 C702.0115216 1102.11207872 702.04845122 1102.96837877 702.08649993 1103.8506273 C702.31146735 1109.17522455 702.50447759 1114.50040351 702.67994475 1119.82685411 C702.75437905 1122.03522691 702.83320706 1124.24345424 702.91547942 1126.45154893 C704.08098927 1158.16696979 703.97482992 1189.8999227 703.97220296 1221.63177252 C703.97250521 1226.98701339 703.98062807 1232.34220318 703.99290252 1237.69742906 C704.11006734 1290.07073598 703.15405503 1342.33864623 699.97459197 1394.63077867 C699.88992423 1396.05330449 699.80543598 1397.47584101 699.72111297 1398.89838731 C693.35899595 1505.78361938 680.20832404 1612.63033627 612.78709197 1870.00577867 C612.56750823 1870.64283739 612.34792449 1871.2798961 612.1216867 1871.93625963 C596.59145621 1916.91268205 577.58155406 1960.2426813 556.78709197 2003.00577867 C556.36218474 2003.88427476 555.93727752 2004.76277086 555.49949431 2005.66788805 C549.25983219 2018.53796402 542.39847448 2030.98895668 535.27976775 2043.39200914 C533.57469119 2046.37770585 531.9025273 2049.38055841 530.23509002 2052.38737047 C522.22095346 2066.80916934 513.44752896 2080.77932819 504.39011931 2094.56534898 C503.24211335 2096.31305955 502.09692654 2098.0626232 500.95359588 2099.81339586 C492.78403044 2112.30898336 484.40627331 2124.49186709 475.174299 2136.22599351 C473.16418531 2138.80496726 471.22797626 2141.43698908 469.28709197 2144.06827867 C464.65476969 2150.27030131 459.76465311 2156.25222424 454.86131072 2162.24015367 C452.38714576 2165.26187355 449.95382541 2168.31282964 447.53709197 2171.38077867 C444.16204661 2175.61557242 440.58606802 2179.63664597 436.93943572 2183.63859117 C435.0289125 2185.73981997 433.15040749 2187.86275066 431.28709197 2190.00577867 C424.57899424 2197.68738718 417.70605718 2205.19759532 410.72459197 2212.63077867 C410.06402801 2213.33517076 409.40346404 2214.03956285 408.72288299 2214.76530015 C406.75407149 2216.85507418 404.77454176 2218.93372569 402.78709197 2221.00577867 C402.05893279 2221.76600328 401.33077361 2222.52622789 400.580549 2223.30948961 C399.86624724 2224.04199937 399.15194549 2224.77450914 398.41599822 2225.52921617 C397.76832488 2226.19614488 397.12065154 2226.86307359 396.45335174 2227.55021226 C394.78709197 2229.00577867 394.78709197 2229.00577867 392.78709197 2229.00577867 C392.78709197 2229.66577867 392.78709197 2230.32577867 392.78709197 2231.00577867 C391.28318572 2232.48624742 391.28318572 2232.48624742 389.22459197 2234.19327867 C386.46170517 2236.53857625 383.8202944 2238.91407272 381.28709197 2241.50577867 C377.62426289 2245.21777324 373.74603042 2248.61424508 369.78709197 2252.00577867 C368.7893576 2252.86945055 367.79162322 2253.73312242 366.76365447 2254.62296617 C352.31713069 2267.10759022 337.63565179 2279.10247983 322.15574431 2290.28995836 C319.82347782 2291.97942125 317.5015304 2293.68220907 315.18162322 2295.38859117 C305.28194943 2302.64664493 295.20764588 2309.51813718 284.78709197 2316.00577867 C283.7682492 2316.64031969 282.74940642 2317.2748607 281.69968963 2317.92863023 C265.6917489 2327.85657604 249.51411799 2337.32596514 232.78709197 2346.00577867 C231.70524627 2346.56861558 230.62340056 2347.1314525 229.50877166 2347.71134508 C202.04625937 2361.91786823 173.96431502 2373.79681866 144.78709197 2384.00577867 C143.59213103 2384.42955797 142.3971701 2384.85333726 141.16599822 2385.28995836 C88.32394342 2403.95106403 32.60454872 2415.34139373 -23.21290803 2420.00577867 C-24.16455516 2420.09421783 -25.11620228 2420.18265698 -26.0966872 2420.27377611 C-39.1541491 2421.33470273 -52.24106595 2421.13858396 -65.33197089 2421.11624703 C-69.06801421 2421.11100799 -72.80405753 2421.11169204 -76.54010388 2421.11158934 C-83.10366862 2421.11060335 -89.66722239 2421.10588485 -96.23078316 2421.09870703 C-106.05646457 2421.08798203 -115.88214304 2421.08311537 -125.70782929 2421.07937506 C-142.45508616 2421.07283125 -159.20233677 2421.06151875 -175.94958901 2421.04760873 C-192.91867822 2421.03353401 -209.88776686 2421.0216642 -226.85685945 2421.01248491 C-227.92895588 2421.01190366 -229.00105232 2421.01132241 -230.10563653 2421.01072355 C-235.57233568 2421.00776988 -241.03903484 2421.00485208 -246.50573401 2421.00194696 C-286.06652417 2420.9808501 -325.62730992 2420.95487507 -365.18809533 2420.9263128 C-404.36534654 2420.89804175 -443.54259824 2420.8718586 -482.71985269 2420.84847391 C-484.54497098 2420.84738308 -484.54497098 2420.84738308 -486.40696035 2420.84627021 C-497.52007505 2420.83962929 -508.63318976 2420.83301409 -519.74630449 2420.82642976 C-547.37212301 2420.81006162 -574.99794132 2420.79337082 -602.62375951 2420.77646101 C-603.881771 2420.77569123 -605.13978248 2420.77492146 -606.43591553 2420.77412836 C-667.62924093 2420.73665623 -728.82256376 2420.69546655 -790.01588655 2420.65397203 C-811.25103463 2420.63957478 -832.48618273 2420.62519396 -853.72133088 2420.61088121 C-855.03833891 2420.60999351 -856.35534694 2420.60910582 -857.71226431 2420.60819122 C-918.93803706 2420.56694607 -980.16381139 2420.528342 -1041.38958628 2420.49041911 C-1045.36446863 2420.48795704 -1049.33935098 2420.48549384 -1053.31423333 2420.4830304 C-1079.65601267 2420.46670687 -1105.99779204 2420.45042887 -1132.33957144 2420.43418134 C-1184.7530592 2420.40185246 -1237.16654681 2420.36925613 -1289.58003429 2420.33647606 C-1292.07609451 2420.334915 -1294.57215473 2420.33335412 -1297.06821494 2420.33179343 C-1409.43342355 2420.26153418 -1521.79863004 2420.18816367 -1634.16383576 2420.11344469 C-1635.74203361 2420.11239527 -1635.74203361 2420.11239527 -1637.35211423 2420.11132465 C-1652.86075063 2420.10101153 -1668.36938701 2420.0906854 -1683.87802339 2420.08034837 C-1685.24382871 2420.0794381 -1685.24382871 2420.0794381 -1686.63722607 2420.07850943 C-1722.82912014 2420.05438664 -1759.02101407 2420.03006524 -1795.21290803 2420.00577867 C-1795.21290803 2476.10577867 -1795.21290803 2532.20577867 -1795.21290803 2590.00577867 C-1396.24290803 2590.00577867 -997.27290803 2590.00577867 -586.21290803 2590.00577867 C-583.98772439 3226.40829906 -583.98772439 3226.40829906 -601.21290803 3277.00577867 C-601.54629182 3277.99320055 -601.87967561 3278.98062242 -602.22316194 3279.99796617 C-617.53308631 3324.67598447 -642.80020032 3366.93045682 -673.85206819 3402.43448961 C-675.27745935 3404.08031263 -676.67490902 3405.74692586 -678.06837678 3407.41984117 C-684.8775833 3415.55786643 -692.11829049 3423.12050314 -699.70778108 3430.53312242 C-703.00200943 3433.75628307 -706.24139431 3437.03402539 -709.48243928 3440.31046617 C-715.54878123 3446.43297008 -721.5961419 3452.47332431 -728.21290803 3458.00577867 C-729.16294709 3458.82175523 -730.11298615 3459.6377318 -731.09181428 3460.47843492 C-738.95387907 3467.22079497 -747.00276728 3473.69299485 -755.21290803 3480.00577867 C-755.80877717 3480.46532945 -756.40464631 3480.92488023 -757.01857209 3481.3983568 C-780.29163171 3499.28540101 -804.74894989 3515.42337067 -830.21290803 3530.00577867 C-831.10655061 3530.51834215 -832.00019319 3531.03090562 -832.92091584 3531.55900133 C-855.89687215 3544.69088861 -879.21332981 3557.07038806 -903.43434358 3567.75577867 C-906.15460727 3568.97955076 -908.85645579 3570.23918684 -911.55545259 3571.50907457 C-990.33528461 3608.57427306 -1075.57526074 3632.68409394 -1160.21290803 3652.00577867 C-1161.07239045 3652.20238084 -1161.93187287 3652.39898302 -1162.81740022 3652.60154283 C-1229.87449735 3667.89886242 -1297.97440996 3678.61489902 -1366.21290803 3687.00577867 C-1367.39717378 3687.15144273 -1368.58143952 3687.2971068 -1369.80159211 3687.44718492 C-1453.21990704 3697.65704595 -1537.11656598 3703.58241713 -1621.0814383 3706.84434068 C-1623.78378827 3706.94937842 -1626.48595831 3707.05747862 -1629.18812776 3707.16721666 C-1710.45215322 3710.46737485 -1792.26283114 3710.4944873 -1909.45308137 3707.16721666 C-1913.34239531 3707.0002188 -1917.23195962 3706.84028552 -1921.12159944 3706.68107164 C-2006.80211391 3703.14036691 -2092.43587686 3696.567028 -2233.21290803 3677.00577867 C-2234.24629304 3676.84547166 -2235.27967805 3676.68516466 -2236.34437776 3676.51999986 C-2325.3134078 3662.67120144 -2413.3119902 3642.21181728 -2689.73097444 3531.42814195 C-2691.90574676 3530.18180873 -2694.0901956 3528.95855987 -2696.28712678 3527.75187242 C-2729.64766753 3509.42408796 -2761.56646598 3487.87092058 -2791.21290803 3464.00577867 C-2791.84938264 3463.49547105 -2792.48585725 3462.98516344 -2793.14161897 3462.45939195 C-2813.29206684 3446.28691195 -2832.25132781 3429.15483205 -2850.52199006 3410.88199937 C-2852.6023702 3408.80383188 -2854.69068463 3406.73385422 -2856.77931428 3404.6639818 C-2863.33933077 3398.13077101 -2869.66784577 3391.60829082 -2875.37843537 3384.30778062 C-2877.30483296 3381.89042598 -2879.35097268 3379.63679624 -2881.46290803 3377.38077867 C-2887.87988121 3370.31877179 -2893.50104421 3362.63810691 -2899.21290803 3355.00577867 C-2899.79798127 3354.22960191 -2900.38305451 3353.45342515 -2900.98585725 3352.65372789 C-2913.92427409 3335.47680316 -2925.389409 3317.58148708 -2936.21290803 3299.00577867 C-2936.67165315 3298.21896715 -2937.13039826 3297.43215562 -2937.60304475 3296.62150133 C-2978.26269388 3226.26874149 -2997.27573015 3146.91043631 -2996.45118928 3066.11905992 C-2996.44361604 3065.22984849 -2996.4360428 3064.34063707 -2996.42824006 3063.42447984 C-2996.40926667 3062.15628404 -2996.40926667 3062.15628404 -2996.38990998 3060.86246812 C-2996.37514367 3059.77624918 -2996.37514367 3059.77624918 -2996.36007905 3058.66808641 C-2996.23312822 3056.37155964 -2995.99317622 3054.14308127 -2995.71172917 3051.86219883 C-2995.21512013 3047.43696465 -2995.07175392 3043.09021574 -2995.08459884 3038.64074832 C-2995.08287479 3037.84435149 -2995.08115074 3037.04795467 -2995.07937444 3036.2274246 C-2995.07482213 3033.56706578 -2995.07733609 3030.90676204 -2995.07982945 3028.24640119 C-2995.07798775 3026.30822901 -2995.07570865 3024.3700572 -2995.07303241 3022.43188599 C-2995.06692542 3017.09221556 -2995.06702503 3011.75256034 -2995.06810535 3006.41288719 C-2995.06817796 3000.60847661 -2995.06246146 2994.80407132 -2995.05746049 2988.99966329 C-2995.0489574 2978.15252707 -2995.04491207 2967.30539455 -2995.04286489 2956.45825534 C-2995.04087405 2946.20588765 -2995.03650245 2935.95352374 -2995.02998567 2925.70115793 C-2995.02954799 2925.01122228 -2995.02911032 2924.32128663 -2995.02865939 2923.61044384 C-2995.02641545 2920.09232676 -2995.02413169 2916.5742097 -2995.02183053 2913.05609266 C-2995.01712754 2905.84300956 -2995.01273114 2898.62992629 -2995.00844491 2891.41684294 C-2995.00801318 2890.69037842 -2995.00758146 2889.96391391 -2995.00713665 2889.21543532 C-2994.99727084 2872.47571814 -2994.99061086 2855.73599986 -2994.98403572 2838.99628112 C-2994.97379705 2812.9705705 -2994.96074924 2786.94486354 -2994.94372582 2760.91915643 C-2994.94321292 2760.13476531 -2994.94270001 2759.35037419 -2994.94217156 2758.54221364 C-2994.935904 2748.97565413 -2994.92950427 2739.40909471 -2994.92306596 2729.84253531 C-2994.91325368 2715.24946814 -2994.90372534 2700.65640079 -2994.89421795 2686.06333343 C-2994.89315056 2684.42500911 -2994.89208251 2682.7866848 -2994.89101379 2681.14836048 C-2994.86582817 2642.53051979 -2994.84317445 2603.91267775 -2994.82152246 2565.29483492 C-2994.8200854 2562.73241848 -2994.81864571 2560.17000205 -2994.81720565 2557.60758561 C-2994.79505485 2518.16668864 -2994.77418905 2478.72579122 -2994.75551057 2439.28489244 C-2994.75469877 2437.57281682 -2994.7538869 2435.8607412 -2994.75307496 2434.14866558 C-2994.74942807 2426.4558795 -2994.74578973 2418.76309341 -2994.74215238 2411.07030733 C-2994.74053893 2407.65823474 -2994.73892465 2404.24616216 -2994.73731046 2400.83408958 C-2994.7361017 2398.27768647 -2994.73489483 2395.72128336 -2994.73368805 2393.16488026 C-2994.71547884 2354.62693305 -2994.6957692 2316.08898779 -2994.66999173 2277.55104482 C-2994.66944999 2276.74006139 -2994.66890824 2275.92907796 -2994.66835008 2275.09351927 C-2994.65697519 2258.08535261 -2994.64520682 2241.07718625 -2994.6329099 2224.06902023 C-2994.62715307 2216.10273472 -2994.62149811 2208.13644914 -2994.615906 2200.17016351 C-2994.61535398 2199.38587859 -2994.61480196 2198.60159367 -2994.61423322 2197.79354254 C-2994.59654137 2172.58097294 -2994.58557071 2147.36840587 -2994.57832621 2122.15583126 C-2994.57100881 2096.73738436 -2994.55770092 2071.31894857 -2994.53603892 2045.90050961 C-2994.53303969 2042.37788107 -2994.5301132 2038.85525248 -2994.52723145 2035.33262384 C-2994.52666427 2034.64217202 -2994.5260971 2033.9517202 -2994.52551273 2033.2403456 C-2994.51623309 2021.70542408 -2994.51477389 2010.17051422 -2994.51547799 1998.63558933 C-2994.51554788 1988.5658729 -2994.5083495 1978.49617803 -2994.49542794 1968.42646994 C-2994.48828723 1962.70150362 -2994.48414379 1956.97658241 -2994.48895044 1951.2516126 C-2994.50705132 1927.08676695 -2994.18800588 1903.10017265 -2992.21290803 1879.00577867 C-2992.09350918 1877.52997041 -2992.09350918 1877.52997041 -2991.97169823 1876.02434783 C-2991.5298986 1870.6359232 -2991.0295443 1865.25749768 -2990.46290803 1859.88077867 C-2990.38053895 1859.08724992 -2990.29816987 1858.29372118 -2990.21330476 1857.4761461 C-2981.24223895 1771.96821565 -2957.62256721 1688.58399587 -2873.21290803 1548.00577867 C-2872.72483674 1547.36463121 -2872.23676545 1546.72348375 -2871.73390412 1546.06290758 C-2859.53714227 1530.12171038 -2846.33476701 1514.89689697 -2832.00587678 1500.83390367 C-2830.14743074 1498.93901751 -2828.43068791 1496.96601273 -2826.71290803 1494.94327867 C-2823.79845877 1491.55300096 -2820.65389829 1488.67444093 -2817.24806428 1485.78702867 C-2815.13922275 1483.94128637 -2813.17692261 1482.00438451 -2811.21290803 1480.00577867 C-2807.37731247 1476.12566943 -2803.36430197 1472.54293575 -2799.21290803 1469.00577867 C-2797.8284549 1467.80501695 -2797.8284549 1467.80501695 -2796.41603303 1466.57999742 C-2788.30763238 1459.58679227 -2779.88963382 1453.05074149 -2771.33741975 1446.61124742 C-2769.32004183 1445.08673843 -2767.31393111 1443.54863065 -2765.31056428 1442.00577867 C-2740.50214589 1422.99714061 -2713.60344621 1406.96862702 -2686.21290803 1392.00577867 C-2685.34794709 1391.52930894 -2684.48298615 1391.05283922 -2683.59181428 1390.56193101 C-2637.97252472 1365.52717476 -2588.21361546 1347.09003517 -2538.21290803 1333.00577867 C-2537.56829621 1332.82335618 -2536.9236844 1332.6409337 -2536.25953889 1332.45298326 C-2457.96145347 1310.32746912 -2378.06711568 1300.48342631 -2296.83262879 1300.61644361 C-2290.43481152 1300.62350317 -2284.03701676 1300.61287073 -2277.6392042 1300.60464376 C-2266.46694552 1300.59210952 -2255.29472447 1300.59135432 -2244.12246156 1300.59770334 C-2232.15630613 1300.60443972 -2220.1901772 1300.60448285 -2208.22402215 1300.59664094 C-2207.46334823 1300.59614589 -2206.70267431 1300.59565083 -2205.91894966 1300.59514077 C-2202.03896213 1300.59258351 -2198.15897468 1300.58991598 -2194.27898724 1300.58720624 C-2166.30985144 1300.56786915 -2138.34072772 1300.56254993 -2110.37158608 1300.5645231 C-2082.67519311 1300.56640848 -2054.97881466 1300.56115865 -2027.28242517 1300.54684198 C-2026.41938991 1300.5463979 -2025.55635465 1300.54595381 -2024.6671668 1300.54549627 C-2015.9028759 1300.54097404 -2007.13858508 1300.53629576 -1998.37429431 1300.53151291 C-1979.65831836 1300.52129959 -1960.94234197 1300.51204923 -1942.22636533 1300.50320852 C-1941.33424199 1300.50278594 -1940.44211866 1300.50236337 -1939.52296128 1300.50192798 C-1897.1302162 1300.4819075 -1854.73746989 1300.47138548 -1812.34472118 1300.46265622 C-1809.53468421 1300.46207735 -1806.72464725 1300.46149508 -1803.91461028 1300.46091184 C-1794.52954655 1300.45896503 -1785.14448282 1300.45703292 -1775.75941908 1300.45510945 C-1774.82890054 1300.45491869 -1773.898382 1300.45472794 -1772.93966592 1300.4545314 C-1768.23687704 1300.45356802 -1763.53408815 1300.45260822 -1758.83129926 1300.45165414 C-1716.49770975 1300.44305575 -1674.16412099 1300.43217926 -1631.83053239 1300.41992159 C-1629.0215292 1300.41910897 -1626.21252601 1300.41830048 -1623.40352282 1300.41749253 C-1581.04776174 1300.40528486 -1538.6920023 1300.39097036 -1496.33624387 1300.37155569 C-1494.99904004 1300.37094443 -1494.99904004 1300.37094443 -1493.63482199 1300.37032082 C-1475.81876526 1300.36217287 -1458.00270864 1300.35381215 -1440.18665227 1300.34491392 C-1430.55017046 1300.34010611 -1420.9136886 1300.33542994 -1411.27720666 1300.3308996 C-1410.41522504 1300.33049366 -1409.55324342 1300.33008772 -1408.66514115 1300.32966948 C-1380.13008636 1300.31631933 -1351.59503659 1300.31135602 -1323.05997891 1300.31060178 C-1296.01907218 1300.30986425 -1268.97817325 1300.30320031 -1241.93726994 1300.289272 C-1238.06924498 1300.28728499 -1234.20121999 1300.28537554 -1230.33319497 1300.28351533 C-1229.5750859 1300.28314881 -1228.81697682 1300.28278228 -1228.03589475 1300.28240465 C-1216.11096519 1300.27683015 -1204.18604619 1300.27791812 -1192.2611164 1300.28192018 C-1180.48905884 1300.28573787 -1168.7170222 1300.28217525 -1156.94496861 1300.27165025 C-1150.66776756 1300.26624873 -1144.39060894 1300.26382256 -1138.1134081 1300.27046352 C-1055.43037161 1300.35091991 -973.71417895 1293.3605691 -843.21290803 1256.00577867 C-841.97444123 1255.57265367 -840.73597444 1255.13952867 -839.45997834 1254.69327867 C-822.31066174 1248.65777544 -805.7115081 1241.63135114 -789.21290803 1234.00577867 C-787.7047049 1233.3154857 -787.7047049 1233.3154857 -786.16603303 1232.61124742 C-771.39313329 1225.8305646 -757.25537783 1218.18237349 -743.21290803 1210.00577867 C-741.67153845 1209.1185436 -740.12989035 1208.23179214 -738.58790803 1207.34562242 C-712.28672238 1192.1485225 -687.49876742 1174.5017108 -664.21290803 1155.00577867 C-663.71371858 1154.59150621 -663.21452912 1154.17723375 -662.70021272 1153.75040758 C-654.91548284 1147.28865116 -647.38677158 1140.6005569 -640.00636506 1133.68155992 C-638.03971415 1131.84394872 -636.06226344 1130.01838164 -634.08400178 1128.19327867 C-632.66841858 1126.88101445 -631.25305104 1125.56851756 -629.83790803 1124.25577867 C-629.18395051 1123.65410875 -628.52999299 1123.05243883 -627.85621858 1122.43253648 C-623.89723801 1118.74333742 -620.27602903 1114.88935705 -616.75343537 1110.78214586 C-614.99638448 1108.75610746 -613.14182189 1106.86817826 -611.21290803 1105.00577867 C-607.33265116 1101.16995222 -603.75783703 1097.15061873 -600.21290803 1093.00577867 C-599.30718609 1091.96365283 -598.40089 1090.92202583 -597.49415803 1089.88077867 C-536.60346861 1019.73366598 -494.49942499 935.27008116 -429.46290803 657.38077867 C-429.37402314 656.35769609 -429.37402314 656.35769609 -429.2833426 655.31394517 C-427.53830488 634.87607833 -427.06250334 614.4855604 -427.05468965 593.98080003 C-427.05011342 591.40942368 -427.04511188 588.83804805 -427.03972608 586.26667327 C-427.0287694 580.71347808 -427.02133715 575.16028729 -427.01632714 569.60708368 C-427.00886112 561.34990474 -426.99576496 553.09274115 -426.98158139 544.83557136 C-426.95786897 530.94010894 -426.93862396 517.04464377 -426.92198205 503.14917123 C-426.90550495 489.4036751 -426.88700728 475.65818409 -426.86584878 461.91269433 C-426.86387237 460.62763665 -426.86387237 460.62763665 -426.86185603 459.3166182 C-426.85515335 454.96531849 -426.84841494 450.61401883 -426.84166277 446.26271919 C-426.79398115 415.49389049 -426.75077292 384.72505698 -426.71022248 353.95621812 C-426.67083372 324.07665728 -426.62940187 294.19710041 -426.58522248 264.31754625 C-426.58385995 263.39548769 -426.58249742 262.47342913 -426.5810936 261.5234294 C-426.56740748 252.26319681 -426.55368001 243.00296427 -426.53992226 233.74273179 C-426.51190055 214.88089559 -426.48415462 196.019059 -426.45657563 177.15722215 C-426.45467333 175.85655032 -426.45467333 175.85655032 -426.4527326 174.52960229 C-426.36816842 116.6883342 -426.290052 58.84705707 -426.21290803 1.00577867 C-372.47016278 0.87816271 -318.72741706 0.75074625 -264.9846707 0.6235964 C-258.63627064 0.60857656 -252.28787058 0.59355508 -245.93947053 0.57853258 C-244.67564683 0.57554196 -243.41182314 0.57255135 -242.10970175 0.56947011 C-221.66042084 0.52107658 -201.21114025 0.47254968 -180.76185977 0.42397326 C-159.77067249 0.37411255 -138.77948487 0.32439567 -117.78829694 0.27481163 C-104.84123252 0.24422438 -91.89416838 0.21352567 -78.94710457 0.18268323 C-70.06238288 0.16152885 -61.17766087 0.14051449 -52.29293859 0.11960888 C-47.17108226 0.10755314 -42.0492261 0.09543698 -36.92737031 0.08315408 C-32.22892644 0.07188796 -27.53048218 0.06079952 -22.83203757 0.04984647 C-21.14131979 0.04587475 -19.45060217 0.04184041 -17.75988472 0.0377335 C-13.28759383 0.02688848 -8.81530433 0.01732967 -4.34300661 0.00978732 C-2.89533663 0.00706294 -1.44766761 0.00378036 0 0 Z M-1147.21290803 2895.00577867 C-1148.16874787 2895.20445543 -1149.12458772 2895.40313219 -1150.1093924 2895.60782945 C-1196.00563134 2905.49670598 -1241.41689415 2930.02212986 -1271.21290803 2967.00577867 C-1272.09770328 2968.05578179 -1272.98318853 2969.10520367 -1273.86915803 2970.15421617 C-1298.89589541 3000.17890275 -1314.87701652 3036.51523773 -1321.21290803 3075.00577867 C-1321.39079865 3076.06055406 -1321.39079865 3076.06055406 -1321.57228303 3077.13663805 C-1327.85864282 3116.23929267 -1321.74787486 3157.80752033 -1306.21290803 3194.00577867 C-1305.86888947 3194.81208726 -1305.52487092 3195.61839586 -1305.17042756 3196.44913805 C-1290.58278992 3230.09931569 -1266.61864547 3260.14650107 -1237.21290803 3282.00577867 C-1236.37638703 3282.64144762 -1236.37638703 3282.64144762 -1235.52296662 3283.28995836 C-1192.56150406 3315.90907875 -1134.97699399 3331.63027404 -1081.42531037 3324.64200914 C-1036.29741721 3318.26484002 -996.05962394 3300.64454502 -961.86427522 3270.45011461 C-960.09829749 3268.90553681 -958.30661757 3267.39394588 -956.51368928 3265.88077867 C-954.08932 3263.80591339 -951.889669 3261.70920713 -949.83790803 3259.25577867 C-947.23600388 3256.18924878 -944.56576315 3253.21095505 -941.83790803 3250.25577867 C-906.57882841 3210.99947683 -886.48402635 3154.72545032 -889.21290803 3102.00577867 C-889.27454133 3100.78664781 -889.27454133 3100.78664781 -889.33741975 3099.54288805 C-892.01618669 3050.96563203 -909.11584981 3004.84828191 -941.21290803 2968.00577867 C-942.00310334 2967.08667711 -942.79329865 2966.16757555 -943.60743928 2965.22062242 C-976.6055108 2927.70389606 -1022.49766936 2901.28525216 -1072.21290803 2894.00577867 C-1073.36855256 2893.8313524 -1074.52419709 2893.65692613 -1075.71486115 2893.47721422 C-1085.95173521 2892.05197897 -1096.00960273 2891.64339443 -1106.33790803 2891.69327867 C-1107.55080003 2891.6965114 -1107.55080003 2891.6965114 -1108.78819489 2891.69980943 C-1121.79011552 2891.75520829 -1134.44753279 2892.34513024 -1147.21290803 2895.00577867 Z " fill="#FFD242" transform="translate(4288.212908029556,1255.994221329689)"/>
</svg>
